<?xml version="1.0"?><svg xmlns="http://www.w3.org/2000/svg" version="1.2" baseProfile="tiny" width="1080" height="1080" viewBox="-66.8103 7.9759 7.035899999999998 5.7177999999999995" stroke-linecap="round" stroke-linejoin="round"><g id="UF11MU" transform="scale(0.0001,-0.0001)"><path id="1100015" d="M-620504,-118674l-82,4l-150,-104l-104,9l-30,57l-53,313l-102,-58l-175,24l-119,-44l-173,-127l-84,-108l-124,-3l-123,54l83,111l-41,128l-114,139h-98l-74,-41l-258,-768l-166,84l-186,-57l-126,54l-113,14l-78,66l-54,-81l-207,1l-49,47l-143,-18l-57,-70l-113,-23l-212,-2l-164,-30l-95,-160l-62,-6l-123,-102l-80,-34l-60,-183l-69,-22l-49,-75l-121,-56l-44,-72l-112,-66l15,-88l-171,-108l-161,-8l-27,-82l-112,-100l-98,-11l-101,-97l11,-107l-107,-81l-102,-32l-118,-109l-187,-21l-25,-55l-118,-84l-6,-171l58,-67l-93,-98l40,-52l51,-214l30,-38l-21,-119l-46,-88l37,-84l-30,-148l-88,-140h-78l-170,-291l219,-177l122,-13l155,71l102,-38l2,-67l62,-80l86,-45l76,28l39,-57l146,-49l59,-50l166,20l99,-48l109,-93l89,9l39,-59l83,-9l90,36l77,-50l164,-61l55,-63l210,-75l229,-193l141,9l71,47l99,-8l83,66l166,20l218,90l102,1l62,46l91,-24l298,-618l64,-96l26,-141l5,-182l-121,-48l54,-236l-86,-56l-77,-167l31,-73l42,-293l-88,-154l-129,-100l-119,-153l-91,-52l-161,-179l-204,-101l-41,-85l-91,-62l-76,-227l-103,-182l-62,-53l-59,-150l-97,-6l-79,-111l-19,-88l-70,-57l-52,-177l-49,-67l-255,-173l-105,-192l-271,-37l-96,-41l-105,-190l-78,-94l-15,-192l-26,-75l-123,32l-134,97l-127,-138l-178,6l-129,-170l-39,-112l-183,-178l-96,-160l-221,-104l-43,-171l-161,-68l-180,5l-108,34l-93,-186l-255,-50l-84,205l29,137l-112,104l-69,11l-70,68l-79,-105l-104,81l-110,23l4,122l-93,-34l-200,-34l-249,46l-85,-65l-76,-5l-71,-88l-118,67l-36,94l-110,44l-19,-142l57,-93l79,-49l103,-234l93,-23l154,-103l20,-90l-68,-87l45,-78l69,14l68,95l91,40l126,-42l71,-71l-56,-170l113,-217l32,-114l153,-144l227,-76l42,152l84,17l-4,-86l102,-130l70,71l18,135l120,-30l63,44l83,-29l42,106l195,12l104,103l38,112l99,39l55,-90l-69,-147l57,-38l76,39l97,-66l-38,-148l115,-71l111,63l78,-13l20,-61l-135,-74l15,-151l122,-74l111,-26l313,-143l108,-84l122,7l112,78l100,-103l112,-74l164,53l44,60l-8,130l67,14l38,-88l1,-126l86,43l62,107l48,-63l-67,-109l72,-67l90,79l95,-59l-26,-127l183,-204l72,116l73,24l153,-19l185,173l127,60l33,47l-28,86l26,120l79,7l93,-221l102,30l63,-37l-7,-217l36,-75l64,32l15,98l102,9l2,109l177,-31l190,79l102,15l63,124l75,205l125,16l90,41l42,90l185,22l203,135l17,79l63,29l45,139l4,102l94,25l61,78l146,73l51,-32l213,179l55,199l72,55l-9,80l210,74l307,-7l77,80l52,106l40,190l-15,219l59,274l83,162l104,126l1,1816l0,1541l-1,1871l-72,2l-3,1353l397,-3l1,468l387,-6l-3,1022l-53,30l77,106l134,-24l122,89l135,-1l19,569l-40,20l-100,148l-185,13l-44,134l23,104l-118,42l-196,-16l-93,-48l-34,45l-95,-36l-35,37l-132,-55l-158,19l-83,95l-132,-19l-170,-79l-47,10Z" /><path id="1100023" d="M-624226,-98046l-54,150l-78,91l-135,3l-67,62l-71,-40l-325,59l-122,167l-199,187l-88,45l-46,252l-78,166l-59,196l-125,-183l-24,-95l-148,-48l15,-192l-124,-77l-38,-62l-109,5l-121,-154l-76,-177l-134,-43l-133,-107l-43,-272l-143,-199l-20,-122l-77,9l-103,69l-113,21l-63,79l-180,28l-57,83l-118,49l-72,-10l-190,25l-80,67l-139,9l-16,83l-92,128l-251,196l-47,87l-578,-4l-356,10l-604,-13l-109,30l-47,-27l-143,56l-135,-59l-675,-8l73,-100l42,-198l-734,-27l-690,-21l-632,1l72,-65l-10,-103l28,-165l-53,-127l-2071,-3l0,1184l-745,-10l79,-162l7,-204l-58,-55l6,-156l-38,-117l-66,-55l6,-124l-32,-106l29,-42l-22,-229l-64,-111l12,-92l86,-153l-54,-109l-62,-42l-16,-79l-85,-88l-7,-64l-82,-59l-63,-121l-22,-210l27,-124l93,-63l-15,-91l107,-188l2415,-1l2424,1l-39,-50l24,-147l-79,-89l20,-72l-89,-59l10,-100l-112,-112l-62,-94l-5,-236l-122,-156l-123,-19l-45,-40l29,-138l-104,-73l-84,53l-87,-119l-68,18l-39,-71l48,-45l-86,-74l51,-43l2096,-2l1672,-2l17,-72l375,-270l123,-41l129,-118l-8,-32l221,-135l74,-139l108,21l115,-74l463,-344l9,-4l204,379l320,551l65,-26l143,83l45,109l-12,125l27,140l58,168l49,60l-1,100l-55,124l165,60l-77,77l44,74l-38,65l45,127l65,23l38,90l164,52l108,-21l86,269l1,94l44,86l116,120l52,207l1,96l140,79l218,189l68,136l-17,88l99,96l16,176l-14,309l38,181l-15,97l53,104l224,137l6,12Z" /><path id="1100031" d="M-607093,-136930l-54,57l8,113l153,72l-35,85l86,70l71,141l4,140l117,81l50,88l138,59l100,96l107,183l107,54l145,3l93,-39l226,75l293,168l44,119l82,-8l55,96l-14,96l114,54l94,91l97,51l56,-12l92,55l174,21l34,30l144,-37l125,47l83,61l189,203l116,54l120,16l50,200l29,42l7,152l61,30l-57,179l-7,192l83,77l1,191l51,162l-74,78l19,58l-1525,-28l-1811,-33l-38,-270l-97,-404l-501,-10l-118,-201l-112,-139l-98,-196l-193,-205l-119,-160l-141,-329l-141,-211l-101,-95l-222,-109l-254,38l-3,55l-58,-87l40,-119l119,-159l147,-91l71,-80l73,-156l46,-39l139,-30l163,-72l39,39l125,-18l95,-74l90,-184l237,-11l159,-87l10,-191l143,-31l201,9l176,-73l82,7Z" /><path id="1100049" d="M-612117,-115291l151,55l65,133l51,20l125,-27l111,44l74,85l142,40l126,6l110,106l62,202l81,95l121,52l69,98l159,-93l73,47l32,181l190,95l68,-51l122,24l94,76l81,119l2,1454l2,2608l-1026,11l-2688,29l-570,7l22,-1265l-740,-3l-4,-2192h-2411l-29,-69l44,-59l-91,-154l-52,-166l-118,-24l-25,-87l-176,-130l-88,46l14,-67l91,-40l205,-15l129,-41l131,11l60,-142l-36,-125l81,-8l-38,-92l49,-164l111,29l13,-188l-21,-121l1,-174l105,-40l-1,-62l89,-17l9,-116l87,25l44,-137l200,-60l142,-87l118,-18l70,19l163,-230l185,26l-34,-103l83,-58l98,-5l141,-51l117,-125l62,-37l484,-1l1479,17l23,124l-188,223l-10,90l78,109l-74,116l-30,144l54,22l-39,246l41,37l83,-83l39,102l109,-40l62,11l68,-59l39,74l119,-21l82,88l53,-45l83,55l194,-92l96,-72l118,-23l-5,-72l128,-44l124,17l67,82l96,-105Z" /><path id="1100056" d="M-607430,-131224l-197,-88l-105,1l-71,53l-75,-30l-42,51l-120,49l-177,-1l-12,115l-76,48l-138,4l-71,54l-235,-145l-241,-18l-124,-81l-214,-6l-95,-73l-125,-60l-86,-4l-106,72l-225,203l-51,30l-159,-104l-190,-67l-279,-16l-158,17l-188,43l-53,-35l-88,56l-84,-35l-190,20l-130,60l-118,-13l-161,25l-240,222l-115,-27l-377,84l-170,134l-51,-28l-76,53l-143,-25l-178,129l-162,-20l-37,68l-149,37l-87,61l-186,-34l-165,81l-111,82l-183,88l-100,75l-149,11l-172,-16l-130,10l-148,68l-67,3l-33,-158l-200,-180l-134,-13l-81,89l-158,4l-141,69l-121,-16l-33,-88l-93,-66l-170,-35l-77,-90l-152,-57l-4,-100l55,-37l108,-224l-39,-94l-25,-310l-53,-169l-106,-76l-73,-103l-143,-126l-139,-74l-180,-46l-119,-70l-78,-75l-235,26l-119,-30l-114,81l-119,-31l-73,72l-125,-5l-326,-72l-96,-8l-12,-62l-117,-104l-47,42l-94,-98l-35,-89l-162,-128l-94,-1l-93,-173l-14,-87l93,18l105,-196l106,-19l89,36l73,-16l71,39l63,-75l87,-43l91,50l136,5l140,-35l95,67l85,-12l118,59l112,115l53,137l78,18l139,-58l143,21l234,-66l112,-69l141,-156l102,-43l179,-27l48,79l183,-57l111,48l168,-95l100,21l211,113l206,83l154,8l203,-81l79,32l102,232l130,58l241,-67l123,21l121,183l174,103l160,-29l301,69l6,-87l-52,-295l-13,-279l86,-600l50,-92l3144,20l8,1165l381,1l500,-29l-2,-784l1121,6l84,-47l207,45h263l88,-44l167,94l160,-39l102,59l130,34l15,72l-34,85l-1,151l-95,217l43,147l-39,143l-47,60l-52,138l5,241l49,109l70,298l9,91l-42,70l-127,110Z" /><path id="1100064" d="M-603332,-132580l-126,45l-23,115l48,68l-57,89l-4,94l-72,192l26,231l-62,67l129,159l13,292l-112,166l-126,-37l-4,177l-95,25l-125,135l-23,66l-116,62l-98,174l7,86l-53,155l-1,70l-164,120l-104,-22l-111,21l-123,-85l-25,127l-85,91l-162,104l-68,114l15,142l-28,42l-141,-153l-134,-20l-96,92l-89,-16l-122,-136l-67,-138l-67,6l-10,87l-59,82l-73,9l-57,-63l-68,-137l-83,-42l-51,26l-42,111l-71,65l-229,-91l-186,-127l-331,-5l-87,-68l21,-257l-168,-57l-107,-107l-37,-189l38,-97l91,-87l-86,-170l-58,-247l127,-110l42,-70l-9,-91l-70,-298l-49,-109l-5,-241l52,-138l47,-60l39,-143l-43,-147l95,-217l1,-151l34,-85l-15,-72l-130,-34l-102,-59l364,2l1811,33l1525,28l108,201l90,68l0,187l128,7l58,143Z" /><path id="1100072" d="M-606520,-129813l-6,72l62,137l33,131l-14,93l-53,71l44,278l-27,167l-53,195l-64,103l-128,67l-15,57l-166,127l-146,-6l-158,142l4,76l-98,-25l-98,-69l-204,-68l-56,-101l-87,-91l-103,-17l-56,202l1,116l-247,-45l-126,134l-156,-89l-50,-77l-225,-12l-23,-128l-160,-78l-100,-12l-90,-88l-25,-136l-79,-118l-118,-95l-66,-264l-332,-219l-30,247l7,54l-124,194l102,187l19,145l-68,115l89,75l38,132l-45,139l65,99l-14,156l-116,188l-50,40l-11,108l-220,-116l-6,-122l-109,72l-128,-21l-4,106l-127,108l-43,165l21,85l-72,55l-32,114l-226,37l-100,-65l-44,-67l-92,8l-102,-37l-122,-94l-194,10l-54,-35l-177,-20l-30,-147l28,-63l-102,-187l-117,-174l-13,136l-45,40l38,86l-84,144l-110,13l-53,-28l-150,42l-33,130l-97,38l-76,-30l-172,87l-114,24l-82,-27l-90,28l-232,179l-79,-8l-161,116l48,117l-88,102l61,37l60,96l49,190l-63,114l-132,-115l-75,-94l-17,-99l-74,-132l-113,42l-67,-106l33,-123l-58,-51l41,-159l59,66l72,-49l-12,-65l-99,-68l-151,-30l-145,-54l-136,-2l-48,-166l-117,-200l21,-182l-24,-101l-100,-151l-76,-44l1,-72l-96,-216l87,-182l0,-51l-83,-191l-11,-107l-185,-199l24,-88l-58,-146l-76,-84l-3,-57l-75,-92l3,-148l-85,-149l146,-112l67,-3l148,-68l130,-10l172,16l149,-11l100,-75l183,-88l111,-82l165,-81l186,34l87,-61l149,-37l37,-68l162,20l178,-129l143,25l76,-53l51,28l170,-134l377,-84l115,27l240,-222l161,-25l118,13l130,-60l190,-20l84,35l88,-56l53,35l188,-43l158,-17l279,16l190,67l159,104l51,-30l225,-203l106,-72l86,4l125,60l95,73l214,6l124,81l241,18l235,145l71,-54l138,-4l76,-48l12,-115l177,1l120,-49l42,-51l75,30l71,-53l105,-1l197,88l58,247l86,170l-91,87l-38,97l37,189l107,107l168,57l-21,257l87,68l331,5l186,127Z" /><path id="1100080" d="M-636799,-116444l-70,-62l-54,89l-67,-9l-71,-82l-95,9l-78,92l-74,-63l-117,-34l-7,-101l-127,-16l-61,-39l-143,47l-103,-50l-126,-20l-99,-63l-116,5l-99,-95l-123,5l-65,-105l-80,-56l-53,-83l-181,-210l-243,90l-210,-109l-91,41l-192,-46l-116,-75l-12,-77l-94,-78l-56,66l-90,-3l-33,-52l-122,-26l-127,-84l-54,41l-2,140l-64,19l-111,-24l63,-70l-287,-178l-124,7l-17,-52l-100,-83l-127,8l38,-85l-32,-81l-91,-81l0,-87l-101,-146l-71,17l55,-194l-47,-91l-83,-61l47,-61l-122,-102l14,-66l-36,-91l-100,-72l-55,-93l-216,-1l-35,32l-187,-4l-69,-125l-60,38l-90,-146l-115,-25l-79,-119l-124,-74l47,-94l89,-9l43,-85l-45,-61l-100,-14l-44,-102l-272,-52l-40,-88l-154,-115l-141,86l-211,-185l-104,-120l-83,-39l-61,-102l-80,-38l-69,-230l33,-98l-63,-194l-151,35l-15,-66l-104,36l-126,-68l6,-120l-103,-36l-164,-196l53,-77l-34,-146l-107,-119l-108,-54l-12,-98l-182,-88l-132,139l-124,-60l-29,-117l-88,11l-141,-42l-46,136l7,95l-99,113l-103,25l-152,-3l-82,-62l-41,-206l-38,-101l145,14l115,-55l45,-107l119,-114l102,11l184,150l108,29l95,-123l6,-92l61,-176l37,-292l-26,-198l-58,-204l-118,-124l10,-76l127,-159l52,-6l152,-117l174,-62l67,-86l57,-125l172,-145l113,-163l145,-93l393,-85l70,-32l148,-11l233,31l271,-11l41,-89l-82,-241l48,-92l96,-32l93,67l51,84l242,185l113,141l68,-5l80,-63l145,-24l84,-81l127,69l86,2l42,-48l4,-210l-30,-91l27,-98l66,-40l105,24l75,102l19,177l75,73l70,-2l81,-113l-22,-162l88,5l130,110l67,88l64,-9l1,-90l73,-72l90,17l72,79l88,-3l91,-94l77,-137l108,11l115,48l63,-79l80,24l30,117l93,-24l151,-148l128,-95l114,-19l123,50l211,158l148,23l60,88l-31,168l115,172l-12,110l33,74l142,2l228,-133l163,-30l56,31l103,133l131,-12l63,48l81,139l43,16l191,-133l85,-7l250,33l422,-108l67,-37l78,35l163,10l101,41l91,131l132,60l43,217l-98,256l-104,68l-16,95l-56,111l32,163l-660,1l-117,110l-25,133l-107,89l-43,91l-29,209l-36,96l36,127l-38,90l-98,36l-83,72l-71,228l-108,138l-30,-53l-98,-9l-189,32l-298,26l-38,87l-304,18l-234,-32l-170,-216l-150,-106l-319,24l-159,79l-103,-124l-357,-50l-205,61l-341,330l258,106l13,147l60,38l85,-19l94,63l91,147l23,88l63,34l66,106l92,209l63,54l-6,156l-50,122l33,221l60,122l267,149l72,126l7,78l99,99l261,125l203,21l122,103l58,122l89,11l96,117l53,105l2,102l-51,166l21,83l130,137l106,-23l124,31l72,182l-28,135l23,61l305,-1l-1,-53l2070,-3l-62,129l-102,109l-93,148l52,132l142,66l22,70l198,111l61,-17l94,64l49,124l-18,181l-164,66l-128,74l-133,14l-126,83l-40,-13l-195,61l-130,97l-139,-7l-57,143l-53,45l-166,266Z" /><path id="1100098" d="M-604601,-109899l-311,-1l-3040,9l-2054,7l0,-38l-2,-2608l-2,-1454l-81,-119l-94,-76l-122,-24l-68,51l-190,-95l-32,-181l-73,-47l-159,93l-69,-98l-121,-52l-81,-95l-62,-202l-110,-106l-126,-6l-142,-40l-74,-85l-111,-44l-125,27l-51,-20l-65,-133l-151,-55l1393,-1064l1472,-1119l66,213l71,38l85,-35l86,44l71,-82l76,86l217,-11l41,-72l106,76l115,160l99,77l81,-22l72,36l79,-58l155,25l84,-63l137,-26l274,138l275,9l23,-32l226,-1l97,23l86,142l41,-14l125,222l58,-2l7,104l75,30l419,262l-48,208l27,109l154,44l132,239l212,105l72,157l25,139l72,86l35,175l108,155l52,15l151,-53l174,190l106,-11l18,83l108,62l127,35l29,110l-51,25l-52,188l27,75l-120,198l-41,30l-36,142l16,119l-150,-102l-83,-1l-32,75l23,111l-118,54l59,103l-34,73l54,142l-40,70l91,128l-84,78l-84,16l-141,168l-42,4l-91,118l-40,336l-55,49l51,155l3,177l60,6l62,134l-20,134l13,122l-113,1l22,67l95,62l-77,135l125,64l84,121l-72,65l31,121l-17,133l116,21l260,181l107,275l-46,187l90,100Z" /><path id="1100106" d="M-637067,-108400l-2102,-306l-139,-27l-86,24l-108,83l-167,-62l-43,56l16,127l-71,24l-34,86l-57,32l-93,-26l-135,6l-53,-232l-69,-50l-108,-3l-164,-49l-358,114l-98,8l-37,-39l-111,10l-56,-49l-70,81l-164,-12l-59,120l-54,42l-76,132l-135,63l-99,85l-115,179l-135,124l11,85l-179,172l-122,-33l-9,94l-184,10l-92,-81l-105,57l-267,-47l-28,38l-240,-29l-180,18l-151,-113l-47,-62l-114,53l-145,-95l-17,-67l-103,-88l-75,20l1,-120l-28,-125l24,-63l-257,-50l-130,-69l-144,80l-160,-32l-154,-6l-150,165l-70,16l-87,-36l-59,134l-145,109l-142,-82l-83,-81l-162,16l-94,-26l-71,93l-150,5l-102,94l-140,24l-54,91l-94,88l-49,87l-335,1220l-502,1830l-44,-1l-260,-214l-172,-3l-134,-146l-64,-174l-99,-14l-52,101l-76,42l-31,-63l-205,-134l-260,-119l-183,-138l-235,23l-35,22l-68,153l-109,61l-164,12l-109,29l-215,-41l-100,-56l-148,-15l-142,30l-231,-28l-57,-49l-262,35l-393,-72l-96,-71l-253,19l-206,-14l-176,-218l-47,-28l-143,104l-61,-41l-76,38l-95,-9l-174,22l-6,-48l-150,56l-91,65l-126,31l-29,87l-81,70l61,126l61,46l-128,70l-57,140l-155,102l-84,292l-122,101l-32,61l-207,2l-63,30l-89,-185l-144,-164l-130,13l-66,-32l-53,-150l63,-142l78,-53l50,-125l-87,-139l8,-130l138,-140l71,-271l-16,-100l-114,-106l13,-129l-68,-23l110,-239l103,-52l144,1l121,-45l100,-72l86,-131l37,-111l24,-180l-6,-216l-54,-223l49,-188l-35,-161l-173,-17l-15,-162l45,-53l230,-64l226,-174l175,-215l238,-243l64,-242l26,-264l-195,-12l47,-132l76,-90l74,-194l155,-199l-41,-103l-141,-51l-281,-261l-34,-133l177,-193l31,-205l-91,-152l-363,-95l-115,-63l-148,-116l-100,-132l-20,-124l126,-391l76,-39l89,40l88,-3l59,-69l-5,-121l-54,-61l-199,9l-99,-42l-53,-83l-12,-223l20,-122l130,-451l73,-95l72,-18l314,-15l72,-35l18,-119l-57,-40l-263,-35l-94,-64l-20,-120l93,-338l-4,-108l75,-458l79,-322l20,-140l42,-80l201,-45l275,-84l283,-11l115,-49l56,-100l-3,-124l-53,-98l-144,-134l-31,-107l101,-243l-55,-110l4,-111l114,-175l7,-114l-36,-87l-98,-129l-257,-227l-25,-137l89,-113l213,-143l245,-138l172,-67l136,31l-21,118l-101,144l32,52l548,12l76,18l133,101l102,30l66,-22l99,-126l9,-158l75,-216l56,-97l69,-232l-11,-293l-100,-364l1,-127l108,-137l59,-27l232,-19l119,-47l39,-121l-36,-167l-90,-249l-121,-123l141,-135l-98,-153l65,-107l114,-10l90,55l79,-3l117,-157l80,-78l87,-13l61,179l177,69l78,-68l107,-204l129,-78l333,147l255,14l84,32l102,-16l134,-105l33,-91l102,-146l27,-196l-55,-79l-167,-86l-102,-136l1,-129l97,-142l92,11l139,266l94,81l116,1l181,-79l105,-86l24,-100l-96,-206l-15,-131l99,-111l88,-5l81,64l52,127l29,204l-49,180l171,120l149,-2l90,-78l-8,-75l-138,-171l-56,-218l3,-115l46,-196l149,-142l264,-49l139,-67l415,-153l216,-10l38,101l41,206l82,62l152,3l103,-25l99,-113l-7,-95l46,-136l141,42l88,-11l29,117l124,60l132,-139l182,88l12,98l108,54l107,119l34,146l-53,77l164,196l103,36l-6,120l126,68l104,-36l15,66l151,-35l63,194l-33,98l69,230l80,38l61,102l83,39l104,120l211,185l141,-86l154,115l40,88l272,52l44,102l100,14l45,61l-43,85l-89,9l-47,94l124,74l79,119l115,25l90,146l60,-38l69,125l187,4l35,-32l216,1l55,93l100,72l36,91l-14,66l122,102l-47,61l83,61l47,91l-55,194l71,-17l101,146l0,87l91,81l32,81l-38,85l127,-8l100,83l17,52l124,-7l287,178l-63,70l111,24l64,-19l2,-140l54,-41l127,84l122,26l33,52l90,3l56,-66l94,78l12,77l116,75l192,46l91,-41l210,109l243,-90l181,210l53,83l80,56l65,105l123,-5l99,95l116,-5l99,63l126,20l103,50l143,-47l61,39l127,16l7,101l117,34l74,63l78,-92l95,-9l71,82l67,9l54,-89l70,62l40,38l-24,167l95,-65l27,110l84,105l89,-172l158,196l129,7l28,60l125,-23l61,84l-63,94l-34,150l34,67l-88,70l-23,133l52,133l-18,75l96,147l86,23l-117,133l-32,85l54,153l-7,132l59,81l-10,91l59,208l60,36l78,-41l146,43l66,-60l100,49l-50,84l17,116l113,33l2,99l141,48l46,54l3,121l-76,199l-136,128l57,102l-47,91l-107,-10l-97,82l-132,160l-131,12l24,80l-79,143l36,195l60,124l74,23l-59,128l-47,26l-6,282l-87,154l0,172l-57,62l49,168l-2,115l48,192l-7,147l116,113l-29,108l1,132l45,140l-159,135l-208,18l-97,109l126,39l116,-25l157,1l98,87l-59,141l4,80l-91,148l-110,8l-23,56l30,116l-52,97l-15,168l49,270l142,-16l184,124l-13,391l-44,49l-178,75l-142,-23l-94,-124l-59,-29l-177,44l-165,-10l-260,54l-221,-71Z" /><path id="1100114" d="M-621346,-102247l-139,28l-229,-17l-267,-66l-42,-115l-240,-21l-42,-82l-71,54l-95,-16l-157,-108l-67,-74l-130,16l-82,-108l-202,-61l-73,-107l-86,-25l-114,-91l-24,-97l-48,-10l-59,-96l-114,-9l-93,24l-4,62l-93,-4l-23,62l-99,28l-137,-43l-102,116l-78,23l-106,-20l-202,18l-104,117l-10,49l-326,-337l-578,-569l-21,32l-557,416l-40,11l-499,385l-9,4l-1176,-2033l3,-14l107,-123l156,-67l92,33l18,-86l160,-121l122,36l69,-40l55,47l106,15l169,-94l44,18l147,-28l336,161l159,-19l169,88l88,119l168,-179l-3,-122l-77,-83l-15,-93l-170,-57l-215,-41l-78,-70l64,-101l-104,-130l63,-78l-99,-78l-83,-27l-61,-72l56,-180l-101,-113l39,-117l-56,-37l-93,14l-70,-66l3,-93l-141,-24l-105,11l-88,-65l-57,77l-196,-162l-59,-133l-194,-53l-105,-82l-235,-96l-59,-104l71,-173l1,-150l-30,-121l-78,-54l47,-87l-46,-32l-104,17l-117,-57l-78,-140l-186,-142l-75,-5l-101,-99l-156,9l-89,28l-106,127l-117,-55l-107,-212l-98,-51l-24,-70l23,-103l-68,-51l-392,-163l-13,-81l-62,-15l-143,-106l-3,-279l-287,-122l-152,39l-47,-12l-48,-149l-293,-115l-104,40l-41,-179l-110,-81l-73,3l-44,-111l-79,-20l-145,-185l-25,-176l5,-163l23,-78l114,-32l135,40l33,46l123,47l96,76l169,-62l93,3l138,80l96,131l124,-16l236,1l268,57l109,36l142,-57l73,72l157,-47l75,28l129,-28l58,60l144,-27l359,307l1384,1217l778,684l1140,1003l779,681l1193,1044l684,602l1377,1218l-139,158l-43,118l48,56l-52,94l-11,146l25,131l55,99l-84,13l-39,80l70,99l16,204l28,105Z" /><path id="1100122" d="M-615402,-100002l90,103l32,195l-114,63l70,115l96,59l-59,106l56,81l-30,132l11,82l139,110l27,68l-19,98l24,179l-48,76l-38,153l2,103l-34,64l-116,-1l60,140l4,119l-135,23l-78,86l136,268l11,181l-79,18l-158,90l-116,-3l-78,116l-290,242l-65,93l-232,-124l-114,-100l-123,-18l-178,-96l-155,-14l-213,-118l-222,56l-266,-30l-142,116l-176,-26l-44,-83l-17,-113l32,-42l10,-155l-60,-133l-77,-75l18,-161l-47,-69l-272,-74l-63,-143l7,-160l62,-125l-58,-144l-76,-110l-95,-45l-103,-174l-61,-45l127,-414l56,-259l-37,-138l-106,-22l-196,74l-89,16l-80,-101l-212,281l-68,133l-173,-19l-62,-199l-27,-153l-186,-201l-112,-46l-2,-124l112,-101l96,-176l21,-95l-23,-83l41,-104l198,-19l154,-66l103,-90l125,-216l-19,-169l23,-212l-60,-112l53,-95l201,-181l175,-55l73,-66l24,-151l78,-179l100,-161l28,-153l152,-327l-86,-51l-120,40l-76,-4l-256,-130l-78,-54l-115,-17l-87,-49l55,-103l-22,-293l77,-119l-7,-49l-91,-86l33,-94l-42,-59l-7,-117l-50,-33l-13,-204l40,-89l-46,-126l-95,-93l1,-83l-145,-84l-197,-52l-595,-1488l-613,-1511l-413,-1015l-412,-1013l-8,-122l86,-131l116,-44l116,55l103,97l47,131l250,-55l15,-167l-65,-57l15,-150l155,-201l14,-111l63,-106l120,-95l48,-98l-1,-147l129,-128l-41,-124l41,-58l-72,-141l60,-99l-25,-63l21,-123l39,-41l-5,-124l35,-24l113,89l-26,114l92,189l-50,100l-8,120l48,139l65,102l97,26l292,241l-6,102l253,46l67,284l-38,122l-28,190l-69,108l66,200l93,93l1944,3l1157,2l817,2l35,85l82,17l85,-31l43,240l63,53l-38,94l28,209l58,78l-97,82l44,47l-55,116l26,82l-22,231l46,139l83,32l32,65l-35,100l91,138l-75,147l56,89l120,3l15,-114l58,-47l122,31l-58,98l32,199l-51,76l6,160l-75,77l31,102l89,38l-94,145l-85,27l-51,67l14,123l74,131l61,-6l40,144l-19,61l34,103l-106,119l81,115l53,119l-53,109l36,48l-31,155l10,73l99,127l38,153l-117,96l-30,152l20,158l-18,129l73,127l33,136l-59,67l90,62l10,133l43,153l-151,93l54,55l-126,49l-55,99l-61,1l-74,143l14,221l-115,52l-16,118l-67,60l-86,-25l-75,55l-33,76l-72,38l-52,94l79,85l-62,83l-30,106l-173,204l-48,106l-9,220l40,73l-4,103l83,60l134,36l-75,63l20,108l-47,104l-99,31l-62,56l-182,8l-44,123l57,59l-1,76l54,151l-18,43l33,131l54,84l2,132l44,33l-12,100l-50,76l132,151l158,75l104,202l53,186Z" /><path id="1100130" d="M-619030,-88629l-29,-116l-322,-69l-160,52l-173,6l-77,24l-61,-54l-56,135l-62,244l-70,106l-89,10l-84,55l-52,166l-46,73l-97,24l-181,7l-154,-20l-157,-86l-80,-17l-270,72l-44,70l-143,320l-113,231l-20,74l82,139l-54,79l-136,72l-40,81l67,157l-163,215l-191,136l47,75l192,-1l19,87l-90,292l-47,84l-69,-39l-333,39l-142,99l-78,1l-183,48l141,-162l79,-6l57,-120l-14,-78l41,-96l-51,-65l29,-93l-43,-138l79,-119l-85,-168l-3,-96l-122,-8l-193,-118l-122,25l-131,-42l-161,-11l-120,-40l-125,64l-4,159l-43,104l-180,43l12,-204l-28,-170l-102,-186l109,-88l-22,-65l31,-82l199,-44l52,-213l-21,-83l91,-51l76,-84l146,-44l68,-139l146,-105l-31,-107l18,-72l-49,-88l-117,-51l-68,-108l-78,-9l-71,-173l13,-125l-155,-215l-10,-98l47,-43l163,-72l-19,-172l-41,-161l-73,-78l-122,-68l5,-142l114,-131l46,-259l3,-106l-48,-119l38,-222l59,-225l-1,-417l-46,-228l1,-185l-34,-210l76,-313l3,-120l48,-78l18,-118l62,-193l78,-66l-11,-71l-74,-55l-90,-124l-15,-114l-91,-92l-135,-20l-106,45l-56,-40l-73,-140l-6,-93l-150,59l-17,-124l42,-113l-224,-214l-38,-77l-12,-210l-35,-169l-46,-117l43,-81l-100,-125l97,-71l-100,-114l46,-137l-30,-152l-87,-139l-101,-91l-111,-33l-44,-82l40,-80l-35,-150l-188,-179l-108,-27l-42,-77l-95,-50l-11,-129l-112,-144l72,-69l-118,-74l-288,-5l-65,23l59,-196l78,-166l46,-252l88,-45l199,-187l122,-167l325,-59l71,40l67,-62l135,-3l78,-91l54,-150l54,8l62,100l101,12l126,96l45,103l164,128l180,3l159,80l165,155l143,-12l110,16l53,-62l81,6l149,-39l50,-66l120,-66l62,62l168,39l64,79l74,-36l70,40l46,143l40,27l36,139l105,22l125,-31l138,54l215,158l75,85l19,126l86,59l-24,173l106,109l61,135l149,73l52,62l125,27l34,107l-20,66l173,213l-50,50l113,195l125,27l79,73l51,-85l4,-137l37,-126l63,-86l31,-167l-27,-108l27,-93l65,-64l136,-54l26,-101l-12,-257l-60,-71l21,-65l-72,-48l-114,50l-133,3l-73,-152l12,-127l49,-61l124,-20l11,-107l131,11l41,-66l-100,-65l-14,-57l76,-160l-7,-71l-152,144l-49,-9l25,-133l-46,-172l142,-107l257,4l539,962l-255,301l281,1082l584,-155l298,669l975,2l122,173l194,72l-127,426l74,40l118,-178l79,-64l61,86l-28,56l32,330l-35,201l90,-1l158,-41l257,610l169,26l49,111l-41,95l34,255l-133,-34l-81,98l51,172l287,11l105,123l121,62l86,4l164,-68l129,-1l98,-47l44,58l-25,164l52,141l26,151l-40,183l-83,80l-76,190l-159,205l-35,139l31,252l64,113l33,158l45,113l117,146l19,200l54,93l36,139l53,61l17,99l63,140l162,289l203,172l-11,50l-143,92l-75,211l-131,127l-73,115l-12,236l-135,201l-60,-33l-99,11l-101,96l-100,28l-52,56l-117,-16l-30,40l-70,42l-159,-2l-26,75l-147,289l-63,53l31,241l-41,69l-155,13l-43,71l-232,86l-239,-46l-79,21l-79,196l-127,-57l-159,-16l-25,-74l43,-73l-88,-139l-147,-50l15,-84l-125,-110l-154,30l-162,-26l-219,152l-84,-1l-47,-67l-36,-158l15,-242l-124,-96l-53,-146l41,-146l-57,-53l-11,-80l40,-215l-196,-94l-237,-5Z" /><path id="1100148" d="M-620861,-115005l26,273l49,144l92,33l79,71l-11,55l97,69l122,49l116,133l2,116l76,94l-38,89l58,65l-5,78l113,74l-2,103l39,62l76,19l33,139l261,231l153,204l-88,-18l-68,-78l-108,36l-82,-10l-55,65l-87,20l-94,-46l-89,-113l-67,-8l-117,77l-161,-84l-271,145l-121,-40l-118,-83l-28,-215l-69,-131l16,-40l-69,-259l-72,-41l-17,-94l-99,-15l-19,-90l-103,-16l-62,-136l-159,-106l-102,-143l-216,49l-125,-73l-225,61l-219,-72l-138,-19l-149,-100l-34,-118l-123,-87l5,-111l-42,-16l-117,-153l-179,-123l-67,-152l-102,-89l-132,-45l-20,-104l-93,-130l-299,-53l-100,-80l-38,-94l-11,-140l-115,-133l-56,67l-80,-12l-139,55l30,105l-57,95l-103,50l12,-27l-7,-372l12,-407l-7,-512l-31,-356l13,-1176l11,-40l120,-6l13,-655l-7,-288l118,-97l49,75l69,22l60,183l80,34l123,102l62,6l95,160l164,30l212,2l113,23l57,70l143,18l49,-47l207,-1l54,81l78,-66l113,-14l126,-54l186,57l166,-84l258,768l133,120l52,77l-30,202l-48,22l61,142l-45,63l8,83l-55,145l-50,21l-9,173l-79,105l55,152l96,97l37,125l-96,132l130,143l111,327l80,56l-29,117l21,65l-36,93l29,110l93,96l-89,180l153,110l41,65l129,71l202,-44l101,107l20,75l84,-13l136,98Z" /><path id="1100155" d="M-621226,-108994l413,1015l613,1511l595,1488l197,52l145,84l-1,83l95,93l46,126l-40,89l13,204l50,33l7,117l42,59l-33,94l91,86l7,49l-77,119l22,293l-55,103l87,49l115,17l78,54l256,130l76,4l120,-40l86,51l-152,327l-28,153l-100,161l-78,179l-24,151l-73,66l-175,55l-201,181l-53,95l60,112l-23,212l19,169l-468,-469l-587,-2034l-236,-819l-609,-2103l-1395,442l-14,40l255,866l16,29l-197,144l-17,64l-239,242l-684,-602l-1193,-1044l-779,-681l247,-259l1482,-1585l470,592l1828,-647Z" /><path id="1100189" d="M-606500,-122614l1062,15l579,5l1837,10l15,70l-74,76l53,70l-60,121l3,147l31,37l-42,125l-17,145l-42,121l41,169l-70,72l-74,150l-83,279l-105,75l-74,121l-130,93l31,111l-127,97l19,38l-23,219l-44,42l18,118l-45,37l-51,165l117,102l72,12l46,125l133,62l-27,115l-96,35l-120,106l3,191l39,117l-60,47l-98,276l81,79l-96,79l-57,-24l-108,173l-64,21l-109,120l-46,-29l-77,68l77,97l-124,41l-25,75l-135,137l-85,41l10,103l67,59l-15,200l41,-11l114,196l9,97l109,-12l-29,84l-127,127l-102,-68l-25,82l78,50l39,199l-24,44l-123,37l63,92l21,143l-18,125l76,49l23,84l72,31l6,223l-37,57l3,97l-87,133l81,221l-50,72l34,112l-40,80l57,38l15,116l-119,20l-185,72l-1,100l62,119l-106,11l-174,-190l-151,53l-52,-15l-108,-155l-35,-175l-72,-86l-25,-139l-72,-157l-212,-105l-132,-239l-154,-44l-27,-109l48,-208l-419,-262l-75,-30l-7,-104l-58,2l-125,-222l-41,14l-86,-142l-97,-23l-226,1l-23,32l-275,-9l-274,-138l-137,26l-84,63l-155,-25l-79,58l-72,-36l-81,22l-99,-77l-115,-160l-106,-76l-41,72l-217,11l-76,-86l-71,82l-86,-44l-85,35l-71,-38l-66,-213l-1472,1119l-1393,1064l-96,105l-67,-82l-124,-17l-128,44l5,72l-118,23l-96,72l-194,92l-83,-55l-53,45l-82,-88l-119,21l-39,-74l-68,59l-62,-11l-109,40l-39,-102l-83,83l-41,-37l39,-246l-54,-22l30,-144l74,-116l-78,-109l10,-90l188,-223l-23,-124l-1479,-17l-484,1l-96,-149l32,-98l-38,-128l-151,-85l60,-101l41,-190l165,-122l-10,-138l47,-92h89l5,-138l340,-10l858,2l-100,141h1604l-53,-173l764,5l21,-144l-34,-104l-116,-74l-66,-76l-61,-130l-21,-186l-41,-85l-133,-147l-43,-213l22,-135l-39,-97l36,-162l148,-59l21,-211l55,-156l-13,-118l103,-118l18,-204l104,-104l70,-15h82l200,-317l108,-8l37,-202l-9,-82l63,-106l-46,-129l37,-148l-102,-145l21,-54l-41,-120l-134,-144l-105,10l-16,-221h504l4174,10l38,-170l98,-170l158,-344l108,-187l227,-82Z" /><path id="1100205" d="M-622689,-85758l-54,-71l-151,-60l-49,-165l110,-150l40,-88l-20,-94l-82,-5l-225,167l-86,29l-152,100l-53,67l20,159l114,144l19,88l-85,175l11,184l-42,112l-166,49l-61,53l-60,128l24,154l-59,240l3,81l81,224l4,252l-97,138l-135,71l-160,28l-82,-26l-164,24l-151,71l-141,187l-117,95l-134,-60l-80,-135l-139,-69l-177,-186l-76,16l6,78l-65,43l-76,129l-119,-1l24,161l-67,147l5,80l-59,56l53,70l-60,228l-73,-33l-50,66l-73,21l-39,67l-74,-31l-73,28l-103,124l-78,26l-237,179l-80,23l-51,79l40,71l-89,224l-136,69l-32,73l-100,116l14,81l61,49l62,155l-11,83l-92,130l-22,76l67,50l-118,105l-17,80l-141,76l-182,161l-30,67l-164,172l-282,138l-140,52l-81,-12l-157,22l-110,108l-118,201l-88,-6l-35,85l-83,-11l-132,117l-2518,-12l-2088,4l-1733,4l-1207,-2l-7,-181l-46,-215l47,-135l-48,-116l-122,-60l-121,-192l-161,-152l-19,-103l65,-93l-75,-205l-125,-156l-38,-108l-72,-102l-300,-170l-181,-148l-55,-85l-16,-93l103,-187l114,-141l41,-88l-238,-207l-135,-209l-28,-116l-106,-180l-81,-85l-96,-40l-89,48l-76,90l-176,132l-218,112l-237,62l-112,-24l-129,-108l-94,-201l-65,-64l-210,38l-123,-65l-15,-77l22,-246l-20,-243l-102,-87l-214,-132l-9,-104l242,-79l146,-135l-17,-108l-324,-261l-13,-88l36,-121l114,-98l157,-175l-18,-239l66,-57l158,-31l-14,-162l-95,-129l-119,-211l-81,22l-115,114l-15,80l-132,72l-59,-49l-49,-318l-137,-85l-4,-158l-115,-108l-25,-79l28,-73l-41,-73l-120,-112l-30,-74l65,-139l11,-82l-310,57l-163,-31l-120,-114l-76,-39l-165,32l-133,85l-63,-55l-122,-208l-17,-334l153,-288l-63,-152l-194,-150l-30,-78l94,-299l-29,-161l9,-158l63,-231l27,-170l-16,-84l-61,-54l-174,6l-81,-23l-361,-212l-221,-105l-235,39l-168,-12l-77,-37l-165,-29l-136,-3l-140,84l-8,83l131,292l34,161l-138,56l-565,-178l-286,-140l-247,-78l-134,-84l-89,-10l-157,42l-252,-54l-211,5l-161,23l-165,-20l-141,-74l-47,-61l-100,34l-5,-129l-86,-82l-81,-7l-150,-63l-304,99l-162,-16l-137,-66l-56,63l-64,149l-159,53l-144,-56l-168,-186l-231,-82l-76,1l-134,183l-34,78l-136,81l-162,8l-160,-29l-155,-56l-238,-156l-75,-25l-102,-128l-64,-42l-69,-145l-74,-30l-158,36l-21,-75l45,-162l-8,-78l-136,-303l-42,-154l-64,-43l6,-237l57,-61l-1,-79l47,-153l-29,-73l82,-132l-28,-74l68,-148l-18,-80l-113,-123l-33,-152l-101,-121l-75,-34l-2,-76l-90,-139l-154,25l-79,-16l-143,-127l-14,-133l-108,-108l69,-148l-162,-25l-24,-79l-149,-57l36,-152l-112,-125l-7,-89l-59,-59l-170,-8l-74,19l-144,-84l34,-157l-89,-74l-159,-3l-134,-81l-158,-59l-122,96l-159,58l-63,48l-82,-4l-13,120l24,80l97,132l12,84l-227,101l-8,79l49,70l38,155l-25,80l-102,132l-80,141l-20,86l38,74l-46,146l-349,213l-237,-59l-138,-67l-40,-65l-192,-147l-216,-96l-137,-84l-85,-136l-263,-13l-20,-84l-140,-68l-66,42l-97,129l-150,41l-154,67l-68,-47l-21,-82l55,-58l-41,-154l16,-249l-12,-87l-93,-218l19,-74l114,-115l19,-123l93,-262l-26,-77l-80,16l-140,-58l-112,112l-91,-134l-158,-10l-104,37l-5,153l-29,70l-158,8l-138,92l-120,117l-235,87l-164,35l-165,-28l-67,-57l-303,-112l-83,-138l-73,-20l-156,30l-66,-51l-18,-155l2,-335l-151,-73l-91,-142l-89,-230l-94,-142l-65,-40l-128,101l-75,-6l-62,-154l-142,36l-63,-112l-145,-90l-85,6l-54,145l-126,82l-71,322l-157,-40l-74,18l16,159l-60,57l-78,-1l-205,233l-246,-5l-125,98l-77,142l-62,164l-57,51l-140,62l-16,75l-139,87l-32,69l-161,1l-162,88l-240,35l-158,-16l-41,-69l-132,-89l-252,34l-163,8l-150,50l-77,2l-305,-117l-46,-61l-146,-78l-84,4l-227,80l-159,7l-147,-56l-81,15l-163,184l-81,12l-226,-27l62,-197l-75,-32l-158,-14l-74,30l13,77l-53,61l-143,-77l-84,7l-42,71l-75,33l-135,-86l-80,-12l-264,170l-77,25l-51,-68l-7,-82l186,-156l46,-105l25,-163l-34,-198l0,-164l-248,-194l-116,-133l-101,-212l-177,-150l-109,-128l-142,-83l-132,-111l-22,-248l-35,-72l-163,-54l-200,-45l-57,-82l-91,-64l-115,-23l-231,-132l-86,18l-70,58l-75,11l-148,-159l-607,-338l-69,-193l-95,-95l-241,-127l-331,-43l-96,21l-73,52l-67,-55l48,-101l-33,-227l-297,-266l1834,-800l70,40l323,-63l132,102l155,91l100,-78l50,114l101,-78h138l57,83l137,15l-14,-67l109,-4l20,118l163,23l79,-74l338,86l62,-65l-73,-183l106,-31l-9,79l96,48l18,69l82,67l-2,52l208,-43l239,39l31,159l91,87l86,-14l181,39l61,43l272,-121l114,99l115,42l105,-15l53,115l98,60l96,-58l127,-123l117,-19l92,58l-21,141l15,84l189,30l21,85l221,92l291,-55l227,64l24,-66l-36,-121l40,-82l68,-12l109,192l86,93l179,-4l200,-42l72,-221l78,2l160,156l35,-71l133,-41l113,85l6,206l63,66l139,19l91,84l69,-85l65,15l118,147l60,-114l90,-27l49,68l132,75l145,-9l30,-86l65,-58l-60,-49l-36,-183l65,-35l114,2l191,183l43,86h78l55,127l153,-111l-115,-66l74,-157l122,-33l98,51l28,142l55,52l-41,179l16,122l113,-28l-61,-186l165,-88l102,-145l95,38l29,146l109,65l185,-3l63,61l129,18l-2,-129l-40,-69l-150,50l-53,-98l95,-146l-105,-191l153,-49l58,124l184,187l132,-127l104,23l17,-77l-82,-84l65,-82l102,113l42,-54l8,-202l85,-59l178,114l82,-30l7,-143l291,33l99,-60l39,126l-95,104l42,108l62,64h89l69,55l33,160l206,-103l114,74l39,74l-60,107l-1,190l30,54l3,135l153,6l-42,162l180,-7l214,132l70,78l1,234l123,-54l173,-41l222,-88l133,-95l214,-231l138,-333l113,-189l49,-117l49,-272l51,-71l239,-149l56,-66l14,-136l-27,-122l-71,-127l-165,-147l-89,-129l-73,-153l-49,-162l4,-68l79,4l78,69l414,-264l110,24l158,-5l192,-74l132,31l45,38l178,-2l92,-73l25,-99l109,-73l51,-135l1667,-2h921h2027h1321h2319l-62,179l31,213l103,81l-8,108l113,163l29,197l-65,226l71,72l-33,85l111,168l144,74l-42,119l-69,88l125,58l82,-132l83,-47l47,-70l86,22l64,81l138,-75l203,-84l71,90l170,49l146,-80l197,155l88,39l223,-86l8,-24h1686l1288,2l1531,3l2,123l57,77l-73,39l-2,92l111,65l43,90l-90,28l3,148l129,42l47,67l-93,81l97,156l-7,137l92,45l2,107l75,51l60,101l-14,180l110,19l121,158l-72,63l83,90l-43,81l74,137l222,193l-8,42l75,106l120,22l62,90l9,72l93,83l86,37l-26,170l-121,43l12,123l103,54l36,59l-204,108l28,53l103,4l10,223l-75,105l4,76l63,65l-54,93l-161,-50l4,137l-65,55l-2,84l-130,-44l-39,-78l-76,-12l-68,54l-95,-57l-48,-129l-56,45l-125,10l-136,-99l-109,-9l-31,42l70,97l-191,98l-21,-148l-115,6l-117,-157l-128,56l-97,-46l-30,43l11,119l-98,82l93,89l-116,69l-25,110l-64,13l-62,20l32,85l-95,19l-65,53l71,98l-81,39l-54,124l91,108l-117,65l35,247l76,147l-54,89l126,64l-37,162l-48,-13l-121,88l65,75l1,180l85,-8l9,75l-49,61l42,145l-33,82l-64,37l-45,115l64,199l95,67l-69,138l-109,37l-69,65l56,71l129,59l-162,96l52,236l104,204l-179,71l-21,81l114,128l-75,63l58,154l76,23l85,-51l24,104l-84,5l26,84l188,139l66,227l74,25l-50,201l22,115l172,-9l-13,74l-108,-6l-38,66l70,115l-81,60l180,122l-125,90l-124,18l45,148l-34,43l188,116l-130,75l13,111l80,-68l157,83l126,10l72,163l-105,40l-90,-2l-8,89l154,48l-2,100l-161,2l-21,147l80,3l25,-112l79,104l-26,73l64,150l137,85l-93,155l-124,-19l9,61l123,26l118,-44l8,97l139,64l13,-101l170,13l103,-94l-99,-16l-61,-110l47,-44l66,107l125,-45l43,94l-79,78l111,60l76,81l89,-30l169,136l51,158l-29,84l62,38l68,-41l40,-86l110,-29l8,137l-47,65l-24,162l31,87l76,-15l84,-77l56,34l95,-125l104,64l-16,126l78,65l49,111l150,48l258,45l120,36l119,81l21,90l-71,86l-204,2l-94,48l-1,68l158,127l-10,114l76,137l77,59l16,144l2556,-1l2120,1h1606l-126,-25l-87,-49l15,-121l87,-11l43,-93l86,-91l62,-224l111,-3l-13,-105l94,-60l79,75l37,128l47,12l100,-70l30,-130l-76,-54l-3,-57l-107,-58l59,-92l88,62l117,-15l132,-144l-95,-26l-9,-125h97l124,-59l-68,-62l29,-111l112,17l36,-98l-108,17l-27,-175l-199,-94l-66,-92l90,-79l-45,-227l-79,80l10,82l-99,11l-59,-72l99,-79l25,-114l83,-59l66,-134l-145,-77l32,-117l84,-81l-81,-178l100,3l156,-44l119,22l80,-94l148,-38l293,141l112,26l7,101l76,102l238,-12l34,24l19,172h73l90,57l101,7l107,-37l69,101l86,-18l138,61l69,-103l162,-5l88,37l248,159l115,31l64,-87l-7,-208l137,-134l207,24l44,26l-18,98l91,166l43,34l145,23l96,-62l24,-64l141,69l187,-58l68,25l22,65l-109,88l102,186l28,170l-12,204l180,-43l43,-104l4,-159l125,-64l120,40l161,11l131,42l122,-25l193,118l122,8l3,96l85,168l-79,119l43,138l-29,93l51,65l-41,96l14,78l-57,120l-79,6l-141,162Z" /><path id="1100254" d="M-617423,-113335l-21,100l124,127l50,97l68,-57l71,91l59,25l-6,135l42,110l83,63l138,21l111,68l44,152l-11,1219l347,2l4,1319l-1157,-2l-1944,-3l-93,-93l-66,-200l69,-108l28,-190l38,-122l-67,-284l-253,-46l6,-102l-292,-241l-97,-26l-65,-102l-48,-139l8,-120l50,-100l-92,-189l26,-114l-113,-89l-35,24l5,124l-39,41l-21,123l25,63l-60,99l72,141l-41,58l41,124l-129,128l1,147l-48,98l-120,95l-63,106l-14,111l-155,201l-15,150l65,57l-15,167l-250,55l-47,-131l-103,-97l-116,-55l4,-78l-81,-71l-175,75l100,-174l4,-126l7,-102l-56,-204l180,-166l-37,-364l25,-67l136,-130l35,-139l103,-3l28,-58l-39,-68l-70,-18l-116,-80l-34,-117l-60,-98l-157,-94l-85,-212l-81,6l-26,-129l12,-110l245,44l148,-22l-8,-46l62,-119l175,27l100,122l99,-6l7,-86l66,-41l121,40l271,-145l161,84l117,-77l67,8l89,113l94,46l87,-20l55,-65l82,10l108,-36l68,78l88,18l106,-59l121,2l118,36l61,-79l87,-175l84,-101l116,-48l162,-283l68,-76l168,-87l85,-69l124,25l255,-88l12,-72l88,-46l176,130l25,87l118,24l52,166l91,154l-44,59l29,69Z" /><path id="1100262" d="M-630768,-95250l52,-898l-37,-348l-46,-65l-188,-122l-67,-166l-39,-186l-70,-95l-38,-98l65,-74l9,-203l111,-21l675,8l135,59l143,-56l47,27l109,-30l604,13l356,-10l578,4l47,-87l251,-196l92,-128l16,-83l139,-9l80,-67l190,-25l72,10l118,-49l57,-83l180,-28l63,-79l113,-21l103,-69l77,-9l20,122l143,199l43,272l133,107l134,43l76,177l121,154l109,-5l38,62l124,77l-15,192l148,48l24,95l125,183l65,-23l288,5l118,74l-72,69l112,144l11,129l95,50l42,77l108,27l188,179l35,150l-40,80l44,82l111,33l101,91l87,139l30,152l-1776,-6l-1543,-4l-2462,-3l-762,13Z" /><path id="1100288" d="M-615490,-116191l-62,37l-117,125l-141,51l-98,5l-83,58l34,103l-185,-26l-1812,-8l-1184,-4l-22,-158l-109,-152l-140,-39l3,-75l-110,10l-108,-50l-25,-120l71,-94l-16,-67l-120,-91l-75,-25l-17,-67l55,-99l-45,-233l68,-183l107,-18l33,-42l-245,-118l-59,-55l-53,-170l-123,-118l-118,-149l-17,-134l-65,-103l-111,-55l3,-244l-128,-175l47,-10l170,79l132,19l83,-95l158,-19l132,55l35,-37l95,36l34,-45l93,48l196,16l118,-42l-23,-104l44,-134l185,-13l100,-148l18,116l52,101l140,2l32,97l96,-1l59,63l118,6l69,114l1440,3l1238,3l24,76l82,28l28,133l128,172l-16,66l70,126l-46,58l120,38l-35,85l74,189l-86,60l-87,-4l41,105l-5,138h-89l-47,92l10,138l-165,122l-41,190l-60,101l151,85l38,128l-32,98l96,149Z" /><path id="1100296" d="M-615305,-120890l-9,616l2,741l13,248l-8,723l-336,-2l-1238,-3l-1440,-3l-69,-114l-118,-6l-59,-63l-96,1l-32,-97l-140,-2l-52,-101l-18,-116l40,-20l-19,-569l125,-104l60,-84l91,84l89,-48l93,-96l-64,-87l61,-36l41,-125l63,-61l-42,-263l9,-226l187,-154l39,-117l83,-3l66,-131l-17,-89l257,-309l6,-80l109,-135l59,-130l94,-141l31,-177l-1,-215l40,-133l-36,-97l-76,-72l-17,-64l33,-118l67,-132l115,-156l59,-161l-36,-74l52,-79l-18,-129l83,-98l10,-115l117,-53l143,-129l-8,-72l47,-128l112,-98l-21,1650l-7,1745l1481,7Z" /><path id="1100304" d="M-597794,-123415l50,5l-1124,959l-55,-4l-18,141l-76,75l4,87l-53,101l-42,186l82,115l30,87l-2,491l-127,180l-105,45l-63,162l-225,129l-18,65l-84,27l-76,239l-98,30l47,144l44,17l31,108l-124,113l106,68l-46,98l22,48l-156,98l66,185l-83,121l45,147l-112,55l-115,146l-52,17l-126,-45l-197,39l-60,-43l-155,71l-90,111l-76,132l-60,39l-94,227l-55,207l65,239l-63,87l-39,165l15,64l-68,44l50,103l-93,197l42,70l-92,102l42,231l-49,66l67,133l11,77l-33,156l80,303l-42,121l35,79l-43,40l40,90l93,51l74,146l155,65l17,33l195,109l54,116l106,139l101,50l1,146l133,10l24,74l77,21l55,78l170,94l64,160l28,141l238,28l76,41l28,95l76,-9l138,257l7,220l-55,142l9,95l66,59l7,80l-99,271l-229,69l-95,97l-9,173l-81,110l6,135l-118,134l-20,176l-27,67l33,114l52,52l80,7l39,88l-236,180l-30,119l-53,22l9,88l101,12l50,72l31,174l-101,79l-43,-91l-249,-1l-33,-54l-126,13l-54,104l-160,-87l-133,6l3,45l-86,160l-92,82l-35,-102l-85,-38l-87,16l-78,67l-77,-44l-102,60l-156,-32l-131,84l-81,-35l-90,4l-92,-56l-59,-97l-157,23l-34,50l-169,14l-137,85l-240,32l-58,-50l-98,72l28,119l-44,156l-90,-15l-98,83l-80,-68l-83,-11l-102,-130l-68,-48l-75,3l-80,-257l-57,45l-146,48l-29,49l-105,-21l-79,24l-43,134l-82,110l-103,19l29,207l-67,59l-115,34l-60,-43l-109,-4l28,144l54,40l-66,127l-52,26l-23,152l-76,34l-90,-100l46,-187l-107,-275l-260,-181l-116,-21l17,-133l-31,-121l72,-65l-84,-121l-125,-64l77,-135l-95,-62l-22,-67l113,-1l-13,-122l20,-134l-62,-134l-60,-6l-3,-177l-51,-155l55,-49l40,-336l91,-118l42,-4l141,-168l84,-16l84,-78l-91,-128l40,-70l-54,-142l34,-73l-59,-103l118,-54l-23,-111l32,-75l83,1l150,102l-16,-119l36,-142l41,-30l120,-198l-27,-75l52,-188l51,-25l-29,-110l-127,-35l-108,-62l-18,-83l-62,-119l1,-100l185,-72l119,-20l-15,-116l-57,-38l40,-80l-34,-112l50,-72l-81,-221l87,-133l-3,-97l37,-57l-6,-223l-72,-31l-23,-84l-76,-49l18,-125l-21,-143l-63,-92l123,-37l24,-44l-39,-199l-78,-50l25,-82l102,68l127,-127l29,-84l-109,12l-9,-97l-114,-196l-41,11l15,-200l-67,-59l-10,-103l85,-41l135,-137l25,-75l124,-41l-77,-97l77,-68l46,29l109,-120l64,-21l108,-173l57,24l96,-79l-81,-79l98,-276l60,-47l-39,-117l-3,-191l120,-106l96,-35l27,-115l-133,-62l-46,-125l-72,-12l-117,-102l51,-165l45,-37l-18,-118l44,-42l23,-219l-19,-38l127,-97l-31,-111l130,-93l74,-121l105,-75l83,-279l74,-150l70,-72l-41,-169l42,-121l17,-145l42,-125l-31,-37l-3,-147l60,-121l-53,-70l74,-76l-15,-70l-1837,-10l-579,-5l-1062,-15l-354,-1l42,-161l-34,-189l-113,-134l-37,-142l-61,1l-152,-104l-111,3l-234,-91l-61,-97l-95,-8l-144,-140l-146,-79l-92,1l-8,-724l1813,37l-112,-943l1934,24l29,-3032l-219,87l-94,110l-241,151l-16,54l-112,15l-52,48l-180,-7l-268,223l-118,-217l17,-74l-50,-52l-10,-184l28,-57l-107,-201l42,-156l-38,-199l-94,-203l-16,-123l65,-67l1,-107l-96,-108l-5,-86l-109,-266l-19,-112l83,42l68,137l57,63l73,-9l59,-82l10,-87l67,-6l67,138l122,136l89,16l96,-92l134,20l141,153l28,-42l-15,-142l68,-114l162,-104l85,-91l25,-127l123,85l111,-21l104,22l164,-120l1,-70l53,-155l-7,-86l98,-174l116,-62l23,-66l125,-135l95,-25l4,-177l126,37l112,-166l-13,-292l-129,-159l62,-67l-26,-231l72,-192l4,-94l57,-89l-48,-68l23,-115l126,-45l84,75l-50,150l63,154l82,84l71,122l-11,72l55,139l145,80l36,73l71,35l101,146l-121,94l45,88l-49,69l39,72l-75,151l2,128l60,70l96,18l212,229l63,146l166,50l94,65l16,199l78,67l45,123l93,60l28,110l60,35l159,-30l108,19l60,46l108,-61l89,85l137,21l14,110l143,352l134,110l90,213l-37,285l92,159l18,115l62,145l-29,208l93,30l-77,195l44,100l-69,83l-54,146l56,140l70,48l62,108l-98,111l-12,163l72,133l140,27l-16,134l20,64l129,134l36,97l172,93l77,76l7,94l217,2l42,-144l47,-34l250,106l193,211l108,137l77,144l138,137l34,127l-31,47l-24,174l53,14l219,163l151,53l117,114l28,78l-22,127l31,60l-20,159l74,116l26,118l87,109l50,6l-5,112l138,101l34,112l92,116l135,43Z" /><path id="1100320" d="M-636270,-110050l97,-109l208,-18l159,-135l-45,-140l-1,-132l29,-108l-116,-113l7,-147l-48,-192l2,-115l-49,-168l57,-62l0,-172l87,-154l6,-282l47,-26l59,-128l-74,-23l-60,-124l-36,-195l79,-143l-24,-80l131,-12l132,-160l97,-82l107,10l47,-91l-57,-102l136,-128l76,-199l-3,-121l-46,-54l-141,-48l-2,-99l-113,-33l-17,-116l50,-84l-100,-49l-66,60l-146,-43l-78,41l-60,-36l-59,-208l10,-91l-59,-81l7,-132l-54,-153l32,-85l117,-133l-86,-23l-96,-147l18,-75l-52,-133l23,-133l88,-70l-34,-67l34,-150l63,-94l-61,-84l155,-65l74,33l63,-35l79,61l171,81l103,27l205,146l83,131l172,221l144,42l73,-36l31,-101l58,-45l167,-29l242,34l35,55l107,18l49,60l103,11l179,79l178,17l224,-14l325,85l33,38l143,35l106,119l19,66l394,129l70,-31l109,20l295,10l64,-31l92,67l125,-92l124,-51l102,-2l21,-106l72,2l69,-139l22,-94l-29,-158l183,82l82,-44l232,139l145,-69l-22,-82l101,-84l2,-89l222,31l217,51l113,-130l131,-296l100,-70l-55,-234l-70,-32l-79,-90l-89,-292l49,-262l-6,-139l36,-100l-6,-311l274,-47l97,-126l161,-60l59,-54l37,-104l111,-186l50,-39l163,-26l143,-63l87,79l67,10l63,-70l34,-147l-8,-115l46,-146l67,-84l84,-189l-45,-78l-67,-35l-17,-125l-217,-249l-31,-136l-170,-61l-38,95l-87,24l-105,-87l-43,54l-94,13l-230,-44l-248,-128l-140,-14l-27,-57l-153,-28l-48,-99l-1,-84l-169,-125l20,-37l-154,-104l-43,-114l-105,-7l-179,-95l-82,-7l-83,-131l-107,-49l60,-124l-194,-112l-51,-126l45,-114l-78,-41l-16,-118l27,-99l82,-60l-58,-55l47,-203l-19,-206l-74,-90l-21,-113l229,-28l187,48l185,21l117,-14l256,42l212,-42l405,-38l159,-33l176,17l211,76l216,-23l76,42l304,6l266,-84l151,8l150,162l204,30l122,81l25,150l40,44l24,130l103,113l107,30l45,87l6,97l211,-308l677,-966l170,291h78l88,140l30,148l-37,84l46,88l21,119l-30,38l-51,214l-40,52l93,98l-58,67l6,171l118,84l25,55l187,21l118,109l102,32l107,81l-11,107l101,97l98,11l112,100l27,82l161,8l171,108l-15,88l112,66l44,72l121,56l-118,97l7,288l-13,655l-120,6l-11,40l-13,1176l31,356l7,512l-12,407l7,372l-12,27l-128,248l40,38l-32,106l-159,161l-30,193l-108,75l-13,77l-62,80l-110,15l-59,-28l-114,98l-101,-74l-57,-2l-109,-66l-36,-85l-141,65l-99,117l-156,105l-3,54l-147,137l-105,-56l-43,58l-102,41l-40,53l-102,19l-151,-8l-186,-145l-103,17l-216,-24l-97,79l107,90l158,185l5,101l-49,82l-254,50l-124,-11l-54,40l-102,214l-127,98l-39,180l-219,25l-48,54l-14,173l-73,88l-255,-96l-72,32l-318,-107l-187,-163l-189,-184l-197,-22l-123,116l-200,-8l-91,67l-68,-57l-172,83l-201,-8l-398,-189l-44,12l-125,224l60,208l-8,92l-87,276l-128,186l74,214l1,141l-34,88l-107,86l-163,73l6,116l-78,69l-14,180l90,206l16,104l-75,119l-67,41l-181,-32l-42,49l-198,82l-110,-28l-140,-148l-128,-63l-40,-100l-81,-98l-97,-49l-124,6l-198,-20l-188,117l36,103l-173,221l-102,73l-54,129l63,141l-123,112l-119,-21l-109,-89l-123,-10l-75,38l-2,147l-194,85l-91,-8l-63,91l-141,105l-91,-18l-81,22l-165,-21l-143,45l-192,-155l-188,-34l-91,4l-123,103l-142,-38l-33,73l-86,-20l-16,80l-143,153l-274,14l-171,42Z" /><path id="1100338" d="M-643412,-100004h-2319h-1321h-2027h-921l-1667,2l-51,135l-109,73l-25,99l-92,73l-178,2l-45,-38l-132,-31l-192,74l-158,5l-110,-24l-414,264l-78,-69l-79,-4l11,-238l97,-96l15,-250l-87,-405l-4,-84l36,-146l64,-133l192,-214l-16,-225l19,-160l-67,-256l35,-172l123,-237l24,-140l-50,-90l-4,-88l-126,-121l-103,-276l-11,-103l-92,-176l-201,-163l-156,-217l-109,-73l-178,-238l13,-71l92,-163l22,-112l-24,-201l63,-30l207,-2l32,-61l122,-101l84,-292l155,-102l57,-140l128,-70l-61,-46l-61,-126l81,-70l29,-87l126,-31l91,-65l150,-56l6,48l174,-22l95,9l76,-38l61,41l143,-104l47,28l176,218l206,14l253,-19l96,71l393,72l262,-35l57,49l231,28l142,-30l148,15l100,56l215,41l109,-29l164,-12l109,-61l68,-153l35,-22l235,-23l183,138l260,119l205,134l31,63l76,-42l52,-101l99,14l64,174l134,146l172,3l260,214l44,1l502,-1830l335,-1220l49,-87l94,-88l54,-91l140,-24l102,-94l150,-5l71,-93l94,26l162,-16l83,81l142,82l145,-109l59,-134l87,36l70,-16l150,-165l154,6l160,32l144,-80l130,69l257,50l-24,63l28,125l-1,120l75,-20l103,88l17,67l145,95l114,-53l47,62l151,113l180,-18l240,29l28,-38l267,47l105,-57l92,81l184,-10l9,-94l122,33l179,-172l-11,-85l135,-124l115,-179l99,-85l135,-63l76,-132l54,-42l59,-120l164,12l70,-81l56,49l111,-10l37,39l98,-8l358,-114l164,49l108,3l69,50l53,232l135,-6l93,26l57,-32l34,-86l71,-24l-16,-127l43,-56l167,62l108,-83l86,-24l139,27l2102,306l-111,83l-108,8l-139,45l-69,119l-184,-27l-110,91l-81,117l-129,24l-127,-76l-254,121l-8,81l-148,-2l-27,92l-72,-5l-187,88l-25,99l-142,31l23,220l-72,159l22,67l-43,157l-72,20l-24,118l-67,75l-77,27l-31,67l58,112l-77,167l-184,34l-20,49l-245,37l22,-51l-103,-70l9,142l-35,110l-138,51l-119,148l9,219l72,67l-19,117l94,-25l157,124l20,128l137,15l-88,97l-88,6l-57,121l-122,60l-49,82l10,116l-229,96l-97,-54l-109,3l-109,-30l-114,37l-55,61l-134,10l-76,141l-175,50l-31,41l-127,-15l-24,60l-88,15l-7,75l-84,57l-38,103l-69,-16l-84,89l-118,5l14,87l-102,133l-8,62l-106,111l-84,36l-88,104l42,147l-65,161l79,120l70,2l98,124l33,140l59,79l-58,155l-2,99l-50,67l-22,230l-83,-23l34,219l-260,284l67,192l-40,63l26,103l-93,93l-32,257l106,162l-124,124l5,194l-82,118l-49,12l-2,174l-77,184h-765Z" /><path id="1100346" d="M-621592,-110678l-140,-43l-219,144l-93,-142l-132,-47l33,-149l-33,-57l-129,-102l-85,-5l-53,-196l-66,4l-74,-55l50,-63l-14,-112l-75,-93l-26,-129l-1805,-43l-1389,-482l-1071,950l-69,20l-87,-76l-20,-60l-136,1l-85,-110l32,-123l-82,-9l-5,-179l-193,36l-83,-33l-1,-63l-79,-31l-163,-11l-81,-31l-57,63l-120,30l-52,-60l-174,-77l-79,13l-140,69l-100,-95l-136,5l-57,-92l-148,12l-31,59l-257,-12l-74,-30l-113,50l-180,34l-190,-24l-131,9l-107,131l-109,49l-162,-63l-132,86l-145,-1l-175,-77l-61,31l-114,-78l-115,-11l-32,94l-27,231l-74,149l-39,21l-130,346l-102,96l-24,141l-191,68l-93,-38l-128,12l58,-57l-6,-92l-43,-59l198,-82l42,-49l181,32l67,-41l75,-119l-16,-104l-90,-206l14,-180l78,-69l-6,-116l163,-73l107,-86l34,-88l-1,-141l-74,-214l128,-186l87,-276l8,-92l-60,-208l125,-224l44,-12l398,189l201,8l172,-83l68,57l91,-67l200,8l123,-116l197,22l189,184l187,163l318,107l72,-32l255,96l73,-88l14,-173l48,-54l219,-25l39,-180l127,-98l102,-214l54,-40l124,11l254,-50l49,-82l-5,-101l-158,-185l-107,-90l97,-79l216,24l103,-17l186,145l151,8l102,-19l40,-53l102,-41l43,-58l105,56l147,-137l3,-54l156,-105l99,-117l141,-65l36,85l109,66l57,2l101,74l114,-98l59,28l110,-15l62,-80l13,-77l108,-75l30,-193l159,-161l32,-106l-40,-38l128,-248l103,-50l57,-95l-30,-105l139,-55l80,12l56,-67l115,133l11,140l38,94l100,80l299,53l93,130l20,104l132,45l102,89l67,152l179,123l117,153l42,16l-5,111l123,87l34,118l149,100l138,19l219,72l225,-61l125,73l216,-49l102,143l159,106l62,136l103,16l19,90l99,15l17,94l72,41l69,259l-16,40l69,131l28,215l118,83l-66,41l-7,86l-99,6l-100,-122l-175,-27l-62,119l8,46l-148,22l-245,-44l-12,110l26,129l81,-6l85,212l157,94l60,98l34,117l116,80l70,18l39,68l-28,58l-103,3l-35,139l-136,130l-25,67l37,364l-180,166l56,204l-7,102Z" /><path id="1100379" d="M-618884,-119657l-135,1l-122,-89l-134,24l-77,-106l53,-30l3,-1022l-387,6l-1,-468l-397,3l3,-1353l72,-2l1,-1871l0,-1541l-1,-1816l-104,-126l-83,-162l-59,-274l15,-219l-40,-190l-52,-106l-77,-80l-307,7l-210,-74l9,-80l-72,-55l-55,-199l-213,-179l-51,32l-146,-73l-61,-78l-94,-25l-4,-102l-45,-139l-63,-29l-17,-79l-203,-135l-185,-22l-42,-90l-90,-41l-125,-16l-75,-205l-63,-124l-102,-15l-190,-79l-177,31l-2,-109l-102,-9l-15,-98l-64,-32l-36,75l7,217l-63,37l-102,-30l-93,221l-79,-7l-26,-120l28,-86l-33,-47l-127,-60l-185,-173l-153,19l-73,-24l-72,-116l37,-95l146,150l45,-53l-25,-114l54,-47l95,40l99,-99l117,8l89,-34l65,62l150,-29l91,-121l46,176l109,-50l66,-111l146,85l168,-70l125,46l95,-7l22,145l-13,99l44,51l110,-59l65,79l83,24l85,-56l53,-76l8,-261l93,-32l127,108l-58,198l90,97l89,-56l-35,-151l95,-123l90,-47l-9,-85l91,-15l81,118l61,10l90,-51l45,-102l69,-178l174,179l92,71l132,5l112,70l66,121l156,13l2,56l146,205l74,166l16,115l95,175l87,100l44,134l136,188l45,101l117,151l203,114l115,32l115,126l21,210l-17,73l92,89l59,13l-17,119l83,130l-32,230l26,88l127,147l109,-10l46,37l103,-55l218,98l84,61l106,192l216,104l101,3l57,43l146,38l72,114l232,166l134,52l87,110l67,17l228,181l182,77l291,79l158,86l132,143l80,-1l229,96l111,28l38,80l132,127l77,114l-38,112l62,185l91,147l-41,58l-27,162l83,142l-11,59l-82,67l64,307l-51,117l-166,189l-47,112l-9,170l-111,113l-56,-58l-167,12l-104,63l-58,-11l-73,69l-75,-42l-121,24l-80,133l-159,89l-87,10l-117,93l-112,98l-47,128l8,72l-143,129l-117,53l-10,115l-83,98l18,129l-52,79l36,74l-59,161l-115,156l-67,132l-33,118l17,64l76,72l36,97l-40,133l1,215l-31,177l-94,141l-59,130l-109,135l-6,80l-257,309l17,89l-66,131l-83,3l-39,117l-187,154l-9,226l42,263l-63,61l-41,125l-61,36l64,87l-93,96l-89,48l-91,-84l-60,84l-125,104Z" /><path id="1100403" d="M-633260,-94285l-1712,139l-2596,194l64,-13l25,-110l116,-69l-93,-89l98,-82l-11,-119l30,-43l97,46l128,-56l117,157l115,-6l21,148l191,-98l-70,-97l31,-42l109,9l136,99l125,-10l56,-45l48,129l95,57l68,-54l76,12l39,78l130,44l2,-84l65,-55l-4,-137l161,50l54,-93l-63,-65l-4,-76l75,-105l-10,-223l-103,-4l-28,-53l204,-108l-36,-59l-103,-54l-12,-123l121,-43l26,-170l-86,-37l-93,-83l-9,-72l-62,-90l-120,-22l-75,-106l8,-42l-222,-193l-74,-137l43,-81l-83,-90l72,-63l-121,-158l-110,-19l14,-180l-60,-101l-75,-51l-2,-107l-92,-45l7,-137l-97,-156l93,-81l-47,-67l-129,-42l-3,-148l90,-28l-43,-90l-111,-65l2,-92l73,-39l-57,-77l-2,-123l-63,-92l56,-107l-118,-27l-38,-42l38,-160l-41,-84l-57,7l-57,-124l-49,-188l-131,-258l40,-75l-107,-174l-74,-14l-48,-84l-146,-121l26,-130l1652,-1l-107,188l15,91l-93,63l-27,124l22,210l63,121l82,59l7,64l85,88l16,79l62,42l54,109l-86,153l-12,92l64,111l22,229l-29,42l32,106l-6,124l66,55l38,117l-6,156l58,55l-7,204l-79,162l745,10l0,-1184l2071,3l53,127l-28,165l10,103l-72,65l632,-1l690,21l734,27l-42,198l-73,100l-111,21l-9,203l-65,74l38,98l70,95l39,186l67,166l188,122l46,65l37,348l-52,898l-13,170l-215,272l-15,281l-2256,196l7,46Z" /><path id="1100452" d="M-636853,-98330l-1531,-3l-1288,-2h-1686l-8,24l-223,86l-88,-39l-197,-155l-146,80l-170,-49l-71,-90l-203,84l-138,75l-64,-81l-86,-22l-47,70l-83,47l-82,132l-125,-58l69,-88l42,-119l-144,-74l-111,-168l33,-85l-71,-72l65,-226l-29,-197l-113,-163l8,-108l-103,-81l-31,-213l62,-179h765l77,-184l2,-174l49,-12l82,-118l-5,-194l124,-124l-106,-162l32,-257l93,-93l-26,-103l40,-63l-67,-192l260,-284l135,-28l54,-53l235,6l99,-40l27,-74l169,63l90,-110l20,-67l156,-166l81,25l85,-28l22,-76l301,4l89,319l119,255l34,151l72,134l15,98l62,-8l173,-137l-15,-137l48,-105l178,-110l203,-285l111,2l57,-113l119,-79l49,-78l-18,-159l212,-113l43,-71l101,-10l7,-114l-49,-48l32,-84l-9,-127l31,-135l-51,-151l469,48l93,-51l51,57l157,41l93,119l11,100l164,53l172,-60l185,76l-19,119l6,144l76,63l134,18l114,105l-31,121l40,207l132,-48l130,54l47,-44l1738,-5l-143,115l-115,-70l-151,42l-66,186l-61,82l-93,18l-30,64l62,68l15,129l-31,75l33,132l-31,53l52,192l-23,92l59,192l-80,56l-5,345l-45,138l35,47l-11,127l38,112l-69,120l-67,177l-1652,1l-26,130l146,121l48,84l74,14l107,174l-40,75l131,258l49,188l57,124l57,-7l41,84l-38,160l38,42l118,27l-56,107l63,92Z" /><path id="1100502" d="M-619138,-115850l-875,-3l9,851l-857,-3l-136,-98l-84,13l-20,-75l-101,-107l-202,44l-129,-71l-41,-65l-153,-110l89,-180l-93,-96l-29,-110l36,-93l-21,-65l29,-117l-80,-56l-111,-327l-130,-143l96,-132l-37,-125l-96,-97l-55,-152l79,-105l9,-173l50,-21l55,-145l-8,-83l45,-63l-61,-142l48,-22l30,-202l-52,-77l-133,-120l74,41h98l114,-139l41,-128l-83,-111l123,-54l124,3l84,108l173,127l119,44l175,-24l102,58l53,-313l30,-57l104,-9l150,104l82,-4l128,175l-3,244l111,55l65,103l17,134l118,149l123,118l53,170l59,55l245,118l-33,42l-107,18l-68,183l45,233l-55,99l17,67l75,25l120,91l16,67l-71,94l25,120l108,50l110,-10l-3,75l140,39l109,152l22,158Z" /><path id="1100601" d="M-626708,-102878l-463,344l-115,74l-108,-21l-74,139l-221,135l8,32l-129,118l-123,41l-375,270l-17,72l-1672,2l-2096,2l-36,-40l-25,-185l-91,-120l55,-117l-105,-61l-46,-120l-5,-121l36,-100l-72,-96l-4,-74l71,-47l6,-92l-126,-8l60,-197l-16,-199l-71,-129l-132,-3l-15,-352l96,-6l0,-91l-82,-124l51,-64l82,16l-5,-150l-73,-73l135,-79l77,-89l2,-99l-71,-85l44,-256l75,-60l103,8l39,-40l2137,8l2118,-10l-3,14l1176,2033Z" /><path id="1100700" d="M-635243,-102496l-1738,5l-47,44l-130,-54l-132,48l-40,-207l31,-121l-114,-105l-134,-18l-76,-63l-6,-144l19,-119l-185,-76l-172,60l-164,-53l-11,-100l-93,-119l-157,-41l-51,-57l-93,51l-469,-48l51,151l-31,135l9,127l-32,84l49,48l-7,114l-101,10l-43,71l-212,113l18,159l-49,78l-119,79l-57,113l-111,-2l-203,285l-178,110l-48,105l15,137l-173,137l-62,8l-15,-98l-72,-134l-34,-151l-119,-255l-89,-319l-301,-4l-22,76l-85,28l-81,-25l-156,166l-20,67l-90,110l-169,-63l-27,74l-99,40l-235,-6l-54,53l-135,28l-34,-219l83,23l22,-230l50,-67l2,-99l58,-155l-59,-79l-33,-140l-98,-124l-70,-2l-79,-120l65,-161l-42,-147l88,-104l84,-36l106,-111l8,-62l102,-133l-14,-87l118,-5l84,-89l69,16l38,-103l84,-57l7,-75l88,-15l24,-60l127,15l31,-41l175,-50l76,-141l134,-10l55,-61l114,-37l109,30l109,-3l97,54l229,-96l-10,-116l49,-82l122,-60l57,-121l88,-6l88,-97l-137,-15l-20,-128l-157,-124l-94,25l19,-117l-72,-67l-9,-219l119,-148l138,-51l35,-110l-9,-142l103,70l-22,51l245,-37l20,-49l184,-34l77,-167l-58,-112l31,-67l77,-27l67,-75l24,-118l72,-20l43,-157l-22,-67l72,-159l-23,-220l142,-31l25,-99l187,-88l72,5l27,-92l148,2l8,-81l254,-121l127,76l129,-24l81,-117l110,-91l184,27l69,-119l139,-45l108,-8l111,-83l221,71l260,-54l165,10l177,-44l59,29l94,124l142,23l178,-75l2,134l98,159l-66,38l-13,104l-76,70l-35,132l60,55l-22,87l33,57l12,163l73,-65l155,74l-22,214l68,105l-79,185l33,53l-72,191l31,51l-24,89l80,43l97,123l-47,125l93,3l5,94l70,69l-149,144l-14,105l-94,135l1,68l91,57l-81,132l210,20l-24,213l-31,25l108,138l9,162l-38,115l164,46l99,-59l175,-35l21,112l-103,139l-73,-20l-88,117l37,48l124,-1l30,153l80,67l-3,68l120,-28l155,66l51,-68l92,14l20,102l-39,64l10,104l-139,4l-137,226l37,74l-75,82l53,152l85,6l24,137l-50,52l-72,207l41,73l-40,66l-129,-21l-190,109l-72,7l-122,90Z" /><path id="1100809" d="M-627641,-87981l81,178l-84,81l-32,117l145,77l-66,134l-83,59l-25,114l-99,79l59,72l99,-11l-10,-82l79,-80l45,227l-90,79l66,92l199,94l27,175l108,-17l-36,98l-112,-17l-29,111l68,62l-124,59h-97l9,125l95,26l-132,144l-117,15l-88,-62l-59,92l107,58l3,57l76,54l-30,130l-100,70l-47,-12l-37,-128l-79,-75l-94,60l13,105l-111,3l-62,224l-86,91l-43,93l-87,11l-15,121l87,49l126,25h-1606l-2120,-1l-2556,1l-16,-144l-77,-59l-76,-137l10,-114l-158,-127l1,-68l94,-48l204,-2l71,-86l-21,-90l-119,-81l-120,-36l-258,-45l-150,-48l-49,-111l-78,-65l16,-126l-104,-64l-95,125l-56,-34l-84,77l-76,15l-31,-87l24,-162l47,-65l-8,-137l-110,29l-40,86l-68,41l-62,-38l29,-84l-51,-158l-169,-136l-89,30l-76,-81l-111,-60l79,-78l-43,-94l-125,45l-66,-107l-47,44l61,110l99,16l-103,94l-170,-13l-13,101l-139,-64l-8,-97l-118,44l-123,-26l-9,-61l124,19l93,-155l-137,-85l-64,-150l26,-73l-79,-104l-25,112l-80,-3l21,-147l161,-2l2,-100l-154,-48l8,-89l90,2l105,-40l-72,-163l-126,-10l-157,-83l-80,68l-13,-111l130,-75l-188,-116l34,-43l-45,-148l124,-18l125,-90l-180,-122l81,-60l-70,-115l38,-66l108,6l13,-74l-172,9l-22,-115l50,-201l-74,-25l-66,-227l-188,-139l-26,-84l84,-5l-24,-104l-85,51l-76,-23l-58,-154l75,-63l-114,-128l21,-81l179,-71l-104,-204l-52,-236l162,-96l-129,-59l-56,-71l69,-65l109,-37l69,-138l-95,-67l-64,-199l45,-115l64,-37l33,-82l-42,-145l49,-61l-9,-75l-85,8l-1,-180l-65,-75l121,-88l48,13l37,-162l-126,-64l54,-89l-76,-147l-35,-247l117,-65l-91,-108l54,-124l81,-39l-71,-98l65,-53l95,-19l-32,-85l62,-20l2596,-194l1712,-139l95,85l97,188l-52,137l43,161l138,27l20,69l-97,71l16,107l-97,37l-16,70l26,153l-37,74l77,114l-1,99l-142,-100l-18,93l-78,19l-47,78l-117,13l-7,110l-89,-47l-208,-13l-80,-63l-126,49l-74,134l-12,82l62,129l84,65l-39,52l-85,1l-7,104l68,52l16,160l-50,82l-80,-46l-112,46l-146,-7l-58,-82l-143,-43l-46,108l26,195l44,161l-205,128l-195,47l-83,-137l-83,-27l-45,55l39,58l-54,97l-1,230l-98,126l-19,151l-43,27l21,105l43,35l110,-24l29,94l63,19l85,148l142,160l11,70l302,145l92,-148l-1,-85l114,-221l16,-74l-186,-312l160,30l114,-66l146,6l80,-22l129,62l69,101l119,18l83,121l-54,191l27,93l67,85l2,103l104,45l7,158l159,59l-7,84l-59,98l44,122l-7,166l-34,77l148,94l227,-36l-92,200l-155,150l50,103l-50,46l10,129l194,-37l-21,80l-157,104l164,-6l154,-297l148,-97l55,-95l9,-88l-57,-88l49,-103l187,-88l26,-72l101,-111l157,-109l42,9l98,-175l-97,-125l23,-30l2188,2l43,135l51,48l125,4l164,120l129,199l54,24l-4,87l85,170l245,-94l130,96l95,-30l52,-81l94,13l71,116l72,38l6,64l82,47l73,-34l7,116l114,50l-4,116l97,53l-29,106l30,62l13,182l65,-4l52,86l93,61l-115,63l116,63l-27,188l167,4l121,-46Z" /><path id="1100908" d="M-617958,-113978l-12,72l-255,88l-124,-25l-85,69l-168,87l-68,76l-162,283l-116,48l-84,101l-87,175l-61,79l-118,-36l-121,-2l-106,59l-153,-204l-261,-231l-33,-139l-76,-19l-39,-62l2,-103l-113,-74l5,-78l-58,-65l38,-89l-76,-94l-2,-116l-116,-133l-122,-49l-97,-69l11,-55l-79,-71l-92,-33l-49,-144l-26,-273l857,3l-9,-851l875,3l1184,4l1812,8l-163,230l-70,-19l-118,18l-142,87l-200,60l-44,137l-87,-25l-9,116l-89,17l1,62l-105,40l-1,174l21,121l-13,188l-111,-29l-49,164l38,92l-81,8l36,125l-60,142l-131,-11l-129,41l-205,15l-91,40l-14,67Z" /><path id="1100924" d="M-606500,-122614l-227,82l-108,187l-158,344l-98,170l-38,170l-4174,-10h-504l40,-78l-93,-15l-53,-86l27,-85l-29,-125l-68,-136l42,-52l-5,-231l94,-258l-45,-123l89,-260l-68,-173l-85,-88l30,-60l-217,-149l-36,-217l-105,-81l-59,-86l-38,-122l-57,-79l-96,-259l-66,-78l-175,-260l-161,-431l-107,-60l-60,-186l-48,-61l-1,-141l-96,-143l-37,-12l-41,-287l-77,-80l-12,-88l39,-5l63,-114l-49,-190l-60,-96l-61,-37l88,-102l-48,-117l161,-116l79,8l232,-179l90,-28l82,27l114,-24l172,-87l76,30l97,-38l33,-130l150,-42l53,28l110,-13l84,-144l-38,-86l45,-40l13,-136l117,174l102,187l-28,63l30,147l177,20l54,35l194,-10l122,94l102,37l92,-8l44,67l100,65l226,-37l32,-114l72,-55l-21,-85l43,-165l127,-108l4,-106l128,21l109,-72l6,122l220,116l11,-108l50,-40l116,-188l14,-156l-65,-99l45,-139l-38,-132l-89,-75l68,-115l-19,-145l-102,-187l124,-194l-7,-54l30,-247l332,219l66,264l118,95l79,118l25,136l90,88l100,12l160,78l23,128l225,12l50,77l156,89l126,-134l247,45l-1,-116l56,-202l103,17l87,91l56,101l204,68l98,69l98,25l-4,-76l158,-142l146,6l166,-127l15,-57l128,-67l64,-103l53,-195l27,-167l-44,-278l53,-71l14,-93l-33,-131l-62,-137l6,-72l229,91l71,-65l42,-111l51,-26l19,112l109,266l5,86l96,108l-1,107l-65,67l16,123l94,203l38,199l-42,156l107,201l-28,57l10,184l50,52l-17,74l118,217l268,-223l180,7l52,-48l112,-15l16,-54l241,-151l94,-110l219,-87l-29,3032l-1934,-24l112,943l-1813,-37l8,724l92,-1l146,79l144,140l95,8l61,97l234,91l111,-3l152,104l61,-1l37,142l113,134l34,189l-42,161l354,1Z" /><path id="1100940" d="M-623691,-87436l-68,-25l-187,58l-141,-69l-24,64l-96,62l-145,-23l-43,-34l-91,-166l18,-98l-44,-26l-207,-24l-137,134l7,208l-64,87l-115,-31l-248,-159l-88,-37l-162,5l-69,103l-138,-61l-86,18l-69,-101l-107,37l-101,-7l-90,-57h-73l-19,-172l-34,-24l-238,12l-76,-102l-7,-101l-112,-26l-293,-141l-148,38l-80,94l-119,-22l-156,44l-100,-3l131,-114l-24,-77l239,-75l194,-293l103,95l12,-110l104,-5l11,-70l88,-75l-39,-63l7,-89l149,-22l23,-85l-79,-87l109,-61l2,-137l103,-63l128,-25l-38,-101l27,-81l-26,-96l68,-120l-17,-193l87,-77h-1080l16,-2184l12,-1707l-1566,-392l-1060,-264l-1039,-256l215,-272l13,-170l762,-13l2462,3l1543,4l1776,6l-46,137l100,114l-97,71l100,125l-43,81l46,117l35,169l12,210l38,77l224,214l-42,113l17,124l150,-59l6,93l73,140l56,40l106,-45l135,20l91,92l15,114l90,124l74,55l11,71l-78,66l-62,193l-18,118l-48,78l-3,120l-76,313l34,210l-1,185l46,228l1,417l-59,225l-38,222l48,119l-3,106l-46,259l-114,131l-5,142l122,68l73,78l41,161l19,172l-163,72l-47,43l10,98l155,215l-13,125l71,173l78,9l68,108l117,51l49,88l-18,72l31,107l-146,105l-68,139l-146,44l-76,84l-91,51l21,83l-52,213l-199,44l-31,82Z" /><path id="1101005" d="M-627881,-104925l-2118,10l-2137,-8l-1714,1l-1155,1l-295,-5l-108,-138l31,-25l24,-213l-210,-20l81,-132l-91,-57l-1,-68l94,-135l14,-105l149,-144l-70,-69l-5,-94l-93,-3l47,-125l-97,-123l-80,-43l24,-89l-31,-51l72,-191l-33,-53l79,-185l-68,-105l22,-214l-155,-74l-73,65l-12,-163l-33,-57l22,-87l-60,-55l35,-132l76,-70l13,-104l66,-38l-98,-159l-2,-134l44,-49l13,-391l-184,-124l-142,16l-49,-270l15,-168l52,-97l-30,-116l23,-56l110,-8l91,-148l-4,-80l59,-141l-98,-87l-157,-1l-116,25l-126,-39l171,-42l274,-14l143,-153l16,-80l86,20l33,-73l142,38l123,-103l91,-4l188,34l192,155l143,-45l165,21l81,-22l91,18l141,-105l63,-91l91,8l194,-85l2,-147l75,-38l123,10l109,89l119,21l123,-112l-63,-141l54,-129l102,-73l173,-221l-36,-103l188,-117l198,20l124,-6l97,49l81,98l40,100l128,63l140,148l110,28l43,59l6,92l-58,57l3,33l158,132l154,-10l162,-75l61,32l-23,78l-5,163l25,176l145,185l79,20l44,111l73,-3l110,81l41,179l104,-40l293,115l48,149l47,12l152,-39l287,122l3,279l143,106l62,15l13,81l392,163l68,51l-23,103l24,70l98,51l107,212l117,55l106,-127l89,-28l156,-9l101,99l75,5l186,142l78,140l117,57l104,-17l46,32l-47,87l78,54l30,121l-1,150l-71,173l59,104l235,96l105,82l194,53l59,133l196,162l57,-77l88,65l105,-11l141,24l-3,93l70,66l93,-14l56,37l-39,117l101,113l-56,180l61,72l83,27l99,78l-63,78l104,130l-64,101l78,70l215,41l170,57l15,93l77,83l3,122l-168,179l-88,-119l-169,-88l-159,19l-336,-161l-147,28l-44,-18l-169,94l-106,-15l-55,-47l-69,40l-122,-36l-160,121l-18,86l-92,-33l-156,67l-107,123Z" /><path id="1101104" d="M-627641,-87981l-121,46l-167,-4l27,-188l-116,-63l115,-63l-93,-61l-52,-86l-65,4l-13,-182l-30,-62l29,-106l-97,-53l4,-116l-114,-50l-7,-116l-73,34l-82,-47l-6,-64l-72,-38l-71,-116l-94,-13l-52,81l-95,30l-130,-96l-245,94l-85,-170l4,-87l-54,-24l-129,-199l-164,-120l-125,-4l-51,-48l-43,-135l-2188,-2l-23,30l97,125l-98,175l-42,-9l-157,109l-101,111l-26,72l-187,88l-49,103l57,88l-9,88l-55,95l-148,97l-154,297l-164,6l157,-104l21,-80l-194,37l-10,-129l50,-46l-50,-103l155,-150l92,-200l-227,36l-148,-94l34,-77l7,-166l-44,-122l59,-98l7,-84l-159,-59l-7,-158l-104,-45l-2,-103l-67,-85l-27,-93l54,-191l-83,-121l-119,-18l-69,-101l-129,-62l-80,22l-146,-6l-114,66l-160,-30l186,312l-16,74l-114,221l1,85l-92,148l-302,-145l-11,-70l-142,-160l-85,-148l-63,-19l-29,-94l-110,24l-43,-35l-21,-105l43,-27l19,-151l98,-126l1,-230l54,-97l-39,-58l45,-55l83,27l83,137l195,-47l205,-128l-44,-161l-26,-195l46,-108l143,43l58,82l146,7l112,-46l80,46l50,-82l-16,-160l-68,-52l7,-104l85,-1l39,-52l-84,-65l-62,-129l12,-82l74,-134l126,-49l80,63l208,13l89,47l7,-110l117,-13l47,-78l78,-19l18,-93l142,100l1,-99l-77,-114l37,-74l-26,-153l16,-70l97,-37l-16,-107l97,-71l-20,-69l-138,-27l-43,-161l52,-137l-97,-188l-95,-85l-7,-46l2256,-196l15,-281l1039,256l1060,264l1566,392l-12,1707l-16,2184h1080l-87,77l17,193l-68,120l26,96l-27,81l38,101l-128,25l-103,63l-2,137l-109,61l79,87l-23,85l-149,22l-7,89l39,63l-88,75l-11,70l-104,5l-12,110l-103,-95l-194,293l-239,75l24,77l-131,114Z" /><path id="1101203" d="M-617423,-113335h2411l4,2192l740,3l-22,1265l-1213,14l-817,-2l-4,-1319l-347,-2l11,-1219l-44,-152l-111,-68l-138,-21l-83,-63l-42,-110l6,-135l-59,-25l-71,-91l-68,57l-50,-97l-124,-127l21,-100Z" /><path id="1101302" d="M-625491,-110660l-537,655l-1143,1223l-1384,-1217l-359,-307l-144,27l-58,-60l-129,28l-75,-28l-157,47l-73,-72l-142,57l-109,-36l-268,-57l-236,-1l-124,16l-96,-131l-138,-80l-93,-3l-169,62l-96,-76l-123,-47l-33,-46l-135,-40l-114,32l-61,-32l-162,75l-154,10l-158,-132l-3,-33l128,-12l93,38l191,-68l24,-141l102,-96l130,-346l39,-21l74,-149l27,-231l32,-94l115,11l114,78l61,-31l175,77l145,1l132,-86l162,63l109,-49l107,-131l131,-9l190,24l180,-34l113,-50l74,30l257,12l31,-59l148,-12l57,92l136,-5l100,95l140,-69l79,-13l174,77l52,60l120,-30l57,-63l81,31l163,11l79,31l1,63l83,33l193,-36l5,179l82,9l-32,123l85,110l136,-1l20,60l87,76l69,-20l3,63l68,82l72,-21l149,84l-41,96l-7,132l116,71l72,-35l45,74l101,-10l30,-107l124,-22l144,101l161,164l149,-221l236,187Z" /><path id="1101401" d="M-632093,-101670l-51,43l86,74l-48,45l39,71l68,-18l87,119l84,-53l104,73l-29,138l45,40l123,19l122,156l5,236l62,94l112,112l-10,100l89,59l-20,72l79,89l-24,147l39,50l-2424,-1l-2415,1l67,-177l69,-120l-38,-112l11,-127l-35,-47l45,-138l5,-345l80,-56l-59,-192l23,-92l-52,-192l31,-53l-33,-132l31,-75l-15,-129l-62,-68l30,-64l93,-18l61,-82l66,-186l151,-42l115,70l143,-115l122,-90l72,-7l190,-109l129,21l40,-66l-41,-73l72,-207l50,-52l-24,-137l-85,-6l-53,-152l75,-82l-37,-74l137,-226l139,-4l-10,-104l39,-64l-20,-102l-92,-14l-51,68l-155,-66l-120,28l3,-68l-80,-67l-30,-153l-124,1l-37,-48l88,-117l73,20l103,-139l-21,-112l-175,35l-99,59l-164,-46l38,-115l-9,-162l295,5l1155,-1l1714,-1l-39,40l-103,-8l-75,60l-44,256l71,85l-2,99l-77,89l-135,79l73,73l5,150l-82,-16l-51,64l82,124l0,91l-96,6l15,352l132,3l71,129l16,199l-60,197l126,8l-6,92l-71,47l4,74l72,96l-36,100l5,121l46,120l105,61l-55,117l91,120l25,185l36,40Z" /><path id="1101435" d="M-624945,-110266l403,316l642,534l376,477l-1482,1585l-247,259l-1140,-1003l-778,-684l1143,-1223l537,-655l60,-74l189,232l297,236Z" /><path id="1101450" d="M-611807,-121671l16,221l105,-10l134,144l41,120l-21,54l102,145l-37,148l46,129l-63,106l9,82l-37,202l-108,8l-200,317h-82l-1425,-1l-110,-89l-99,-146l-71,-16l-53,-106l-80,-4l-85,-49l-47,-98l-110,-8l-130,-194l-59,-147l-92,-37l-104,16l-13,129l-72,-42l-68,19l-72,-44l-85,13l-50,-70l-578,-11l-1481,-7l7,-1745l21,-1650l117,-93l87,-10l159,-89l80,-133l121,-24l75,42l73,-69l58,11l104,-63l167,-12l56,58l28,25l367,-44l182,45l128,-16l195,21l81,-95l173,-115l132,-164l10,-66l145,-2l80,51l69,117l67,47l143,-3l44,-155l0,-203l40,-60l89,-41l25,-156l-40,-124l11,-72l139,-63l0,-215l75,-255l58,-44l12,88l77,80l41,287l37,12l96,143l1,141l48,61l60,186l107,60l161,431l175,260l66,78l96,259l57,79l38,122l59,86l105,81l36,217l217,149l-30,60l85,88l68,173l-89,260l45,123l-94,258l5,231l-42,52l68,136l29,125l-27,85l53,86l93,15l-40,78Z" /><path id="1101468" d="M-613420,-126261l-58,44l-75,255l0,215l-139,63l-11,72l40,124l-25,156l-89,41l-40,60l0,203l-44,155l-143,3l-67,-47l-69,-117l-80,-51l-145,2l-10,66l-132,164l-173,115l-81,95l-195,-21l-128,16l-182,-45l-367,44l-28,-25l111,-113l9,-170l47,-112l166,-189l51,-117l-64,-307l82,-67l11,-59l-83,-142l27,-162l41,-58l-91,-147l-62,-185l38,-112l-77,-114l-132,-127l-38,-80l-111,-28l-229,-96l-80,1l-132,-143l-158,-86l-291,-79l-182,-77l-228,-181l-67,-17l-87,-110l-134,-52l-232,-166l-72,-114l-146,-38l-57,-43l-101,-3l-216,-104l-106,-192l-84,-61l-218,-98l-103,55l-46,-37l-109,10l-127,-147l-26,-88l32,-230l-83,-130l17,-119l-59,-13l-92,-89l17,-73l-21,-210l-115,-126l-115,-32l-203,-114l-117,-151l-45,-101l-136,-188l-44,-134l-87,-100l-95,-175l-16,-115l-74,-166l-146,-205l-2,-56l-156,-13l-66,-121l-112,-70l-132,-5l-92,-71l-174,-179l-69,178l-25,-134l33,-112l-6,-156l59,-151l-8,-311l-58,-84l146,-116l83,-116l76,-4l9,-82l153,-56l120,77l1,-236l107,-45l135,-173l76,60l79,3l42,-68l-24,-138l39,-105l83,-70l227,-1l91,-87l-59,-139l98,13l52,-43l-83,-151l143,-21l83,-71l76,75l94,-95l22,-82l145,-81l67,-4l83,73l63,-41l56,-99l41,-160l22,-228l-21,-177l111,-161l32,-148l77,-72l83,-31l57,110l69,5l66,-123l125,55l41,64l113,-22l158,-83l118,49l16,152l74,-15l47,-199l72,-14l36,90l-41,74l61,38l74,-56l135,-5l111,68l124,27l135,89l76,-11l174,41l173,-136l56,22l8,97l161,-87l62,9l-34,147l72,7l31,-122l79,-3l85,100l139,11l13,100l76,20l36,-55l-58,-158l65,-87l92,-28l68,32l91,-61l120,-36l24,-51l112,-25l134,-124l163,15l129,-74l92,-15l148,56l255,43l111,58l160,17l-25,96l152,85l393,-14l83,28l27,103l108,45l152,-9l95,27l30,76l-44,79l28,74l63,11l80,-51l27,-192l104,-40l129,86l140,12l68,-81l-23,-84l66,-42l37,-80l118,-52l138,48l136,-110l115,87l-50,108l165,63l164,-91l17,-76h193l79,74l198,-118l53,32l-25,127l84,97l-28,103l100,37l120,-74l122,-26l32,-98l192,42l56,106l-168,45l54,79l215,-58l106,30l164,-124l-105,-65l22,-120l-55,-126l67,-193l51,-14l135,36l10,94l71,-15l115,33l94,-120l70,-30l171,112l109,-2l40,-74l3,-55l254,-38l222,109l101,95l141,211l141,329l119,160l193,205l98,196l112,139l118,201l501,10l97,404l38,270l-364,-2l-160,39l-167,-94l-88,44h-263l-207,-45l-84,47l-1121,-6l2,784l-500,29l-381,-1l-8,-1165l-3144,-20l-50,92l-86,600l13,279l52,295l-6,87l-301,-69l-160,29l-174,-103l-121,-183l-123,-21l-241,67l-130,-58l-102,-232l-79,-32l-203,81l-154,-8l-206,-83l-211,-113l-100,-21l-168,95l-111,-48l-183,57l-48,-79l-179,27l-102,43l-141,156l-112,69l-234,66l-143,-21l-139,58l-78,-18l-53,-137l-112,-115l-118,-59l-85,12l-95,-67l-140,35l-136,-5l-91,-50l-87,43l-63,75l-71,-39l-73,16l-89,-36l-106,19l-105,196l-93,-18l14,87l93,173l94,1l162,128l35,89l94,98l47,-42l117,104l12,62l96,8l326,72l125,5l73,-72l119,31l114,-81l119,30l235,-26l78,75l119,70l180,46l139,74l143,126l73,103l106,76l53,169l25,310l39,94l-108,224l-55,37l4,100l152,57l77,90l170,35l93,66l33,88l121,16l141,-69l158,-4l81,-89l134,13l200,180l33,158l-146,112l85,149l-3,148l75,92l3,57l76,84l58,146l-24,88l185,199l11,107l83,191l0,51l-87,182l96,216l-1,72l76,44l100,151l24,101l-21,182l117,200l48,166l136,2l145,54l151,30l99,68l12,65l-72,49l-59,-66l-41,159l58,51l-33,123l67,106l113,-42l74,132l17,99l75,94l132,115l-39,5Z" /><path id="1101476" d="M-611902,-120005l-70,15l-104,104l-18,204l-103,118l13,118l-55,156l-21,211l-148,59l-36,162l39,97l-22,135l43,213l133,147l41,85l21,186l61,130l66,76l116,74l34,104l-21,144l-764,-5l53,173h-1604l100,-141l229,-1l5,-1448l277,-3l-140,-140l-43,-239l-180,44l-90,-50l-84,-139l5,-604l-2,-843l59,147l130,194l110,8l47,98l85,49l80,4l53,106l71,16l99,146l110,89l1425,1Z" /><path id="1101484" d="M-615346,-117432l-41,-105l87,4l86,-60l-74,-189l35,-85l-120,-38l46,-58l-70,-126l16,-66l-128,-172l-28,-133l-82,-28l-24,-76l336,2l8,-723l-13,-248l-2,-741l9,-616l578,11l50,70l85,-13l72,44l68,-19l72,42l13,-129l104,-16l92,37l2,843l-5,604l84,139l90,50l180,-44l43,239l140,140l-277,3l-5,1448l-229,1l-858,-2l-340,10Z" /><path id="1101492" d="M-631289,-122020l-83,-67l14,-54l-55,-82l-80,54l-91,-185l-57,15l-95,-63l-85,65l-50,-39l-147,77l-70,-30l-10,-79l-104,-56l-94,-9l-60,-48l5,-110l49,-134l-98,-87l-28,-145l-133,60l-113,7l-1,75l-85,44l-235,-281l-86,90l-9,62l-133,41l-62,-104l-53,37l53,106l-93,166l87,170l11,137l-13,199l48,29l59,141l-44,82l0,82l71,4l52,62l3,86l58,114l-34,95l88,78l64,149l-3,210l53,81l27,163l-31,78l140,172l79,39l17,76l81,159l6,144l-81,85l-31,111l-19,191l-95,195l-87,35l-117,87l-122,-25l-203,100l-117,108l-112,132l-51,14l-53,136l-130,112l-70,179l37,118l144,172l-2145,4l-2070,3l1,53l-305,1l-23,-61l28,-135l-72,-182l-124,-31l-106,23l-130,-137l-21,-83l51,-166l-2,-102l-53,-105l-96,-117l-89,-11l-58,-122l-122,-103l-203,-21l-261,-125l-99,-99l-7,-78l-72,-126l-267,-149l-60,-122l-33,-221l50,-122l6,-156l-63,-54l-92,-209l-66,-106l-63,-34l-23,-88l-91,-147l-94,-63l-85,19l-60,-38l-13,-147l-258,-106l341,-330l205,-61l357,50l103,124l159,-79l319,-24l150,106l170,216l234,32l304,-18l38,-87l298,-26l189,-32l98,9l30,53l108,-138l71,-228l83,-72l98,-36l38,-90l-36,-127l36,-96l29,-209l43,-91l107,-89l25,-133l117,-110l660,-1l-32,-163l56,-111l16,-95l104,-68l98,-256l-43,-217l-132,-60l-91,-131l-101,-41l-163,-10l-78,-35l117,-101l183,9l205,-83l131,-29l72,-118l194,-41l184,-118l170,-33l87,-39l61,-85l110,-209l61,-79l256,-216l74,-2l203,59l315,-20l82,-31l-40,-112l10,-68l111,-128l-151,-35l77,-84l115,27l135,-62l77,-233l149,-145l166,-89l191,29l150,-96l398,-156l407,-33l158,-58l74,63l-81,73l-47,99l180,45l82,73l158,-12l95,54l26,104l-66,89l39,85l97,-31l98,-142l61,-10l56,61l-50,80l23,122l108,-38l2,-99l59,-73l90,-26l-9,-72l132,3l45,-93l95,-36l85,36l96,-19l14,-132l-61,-65l23,-59l179,-28l74,28l87,-18l-22,-113l-118,-40l-63,-119l39,-161l109,-28l78,30l57,-32l127,-190l17,-156l64,-150l124,-75l9,-182l102,-19l15,-69l-47,-138l64,-106l237,-45l14,-96l111,-52l77,115l202,-72l52,116l164,21l123,-118l169,-61l110,-44l36,-94l118,-67l71,88l76,5l85,65l249,-46l200,34l93,34l-4,-122l110,-23l104,-81l79,105l70,-68l69,-11l112,-104l-29,-137l84,-205l255,50l93,186l108,-34l180,-5l161,68l43,171l221,104l96,160l183,178l39,112l129,170l178,-6l127,138l134,-97l123,-32l26,75l15,192l78,94l105,190l96,41l271,37l105,192l255,173l49,67l52,177l70,57l19,88l79,111l97,6l59,150l62,53l103,182l76,227l91,62l41,85l204,101l161,179l91,52l119,153l129,100l88,154l-42,293l-31,73l77,167l86,56l-54,236l121,48l-5,182l-26,141l-64,96l-298,618l-91,24l-62,-46l-102,-1l-218,-90l-166,-20l-83,-66l-99,8l-71,-47l-141,-9l-229,193l-210,75l-55,63l-164,61l-77,50l-90,-36l-83,9l-39,59l-89,-9l-109,93l-99,48l-166,-20l-59,50l-146,49l-39,57l-76,-28l-86,45l-62,80l-2,67l-102,38l-155,-71l-122,13l-219,177l-677,966l-211,308l-6,-97l-45,-87l-107,-30l-103,-113l-24,-130l-40,-44l-25,-150l-122,-81l-204,-30l-150,-162l-151,-8l-266,84l-304,-6l-76,-42l-216,23l-211,-76l-176,-17l-159,33l-405,38l-212,42l-256,-42l-117,14l-185,-21l-187,-48l-229,28Z" /><path id="1101500" d="M-631289,-122020l21,113l74,90l19,206l-47,203l58,55l-82,60l-27,99l16,118l78,41l-45,114l51,126l194,112l-60,124l107,49l83,131l82,7l179,95l105,7l43,114l154,104l-20,37l169,125l1,84l48,99l153,28l27,57l140,14l248,128l230,44l94,-13l43,-54l105,87l87,-24l38,-95l170,61l31,136l217,249l17,125l67,35l45,78l-84,189l-67,84l-46,146l8,115l-34,147l-63,70l-67,-10l-87,-79l-143,63l-163,26l-50,39l-111,186l-37,104l-59,54l-161,60l-97,126l-274,47l6,311l-36,100l6,139l-49,262l89,292l79,90l70,32l55,234l-100,70l-131,296l-113,130l-217,-51l-222,-31l-2,89l-101,84l22,82l-145,69l-232,-139l-82,44l-183,-82l29,158l-22,94l-69,139l-72,-2l-21,106l-102,2l-124,51l-125,92l-92,-67l-64,31l-295,-10l-109,-20l-70,31l-394,-129l-19,-66l-106,-119l-143,-35l-33,-38l-325,-85l-224,14l-178,-17l-179,-79l-103,-11l-49,-60l-107,-18l-35,-55l-242,-34l-167,29l-58,45l-31,101l-73,36l-144,-42l-172,-221l-83,-131l-205,-146l-103,-27l-171,-81l-79,-61l-63,35l-74,-33l-155,65l-125,23l-28,-60l-129,-7l-158,-196l-89,172l-84,-105l-27,-110l-95,65l24,-167l-40,-38l166,-266l53,-45l57,-143l139,7l130,-97l195,-61l40,13l126,-83l133,-14l128,-74l164,-66l18,-181l-49,-124l-94,-64l-61,17l-198,-111l-22,-70l-142,-66l-52,-132l93,-148l102,-109l62,-129l2145,-4l-144,-172l-37,-118l70,-179l130,-112l53,-136l51,-14l112,-132l117,-108l203,-100l122,25l117,-87l87,-35l95,-195l19,-191l31,-111l81,-85l-6,-144l-81,-159l-17,-76l-79,-39l-140,-172l31,-78l-27,-163l-53,-81l3,-210l-64,-149l-88,-78l34,-95l-58,-114l-3,-86l-52,-62l-71,-4l0,-82l44,-82l-59,-141l-48,-29l13,-199l-11,-137l-87,-170l93,-166l-53,-106l53,-37l62,104l133,-41l9,-62l86,-90l235,281l85,-44l1,-75l113,-7l133,-60l28,145l98,87l-49,134l-5,110l60,48l94,9l104,56l10,79l70,30l147,-77l50,39l85,-65l95,63l57,-15l91,185l80,-54l55,82l-14,54l83,67Z" /><path id="1101559" d="M-621560,-110260l-86,131l8,122l412,1013l-1828,647l-470,-592l-376,-477l-642,-534l-403,-316l42,-38l358,75l458,71l594,41l1377,67l111,-61l354,-137l91,-12Z" /><path id="1101609" d="M-619544,-99497l-616,9l-89,-99l-30,-138l-167,-63l-154,-89l-77,-6l-42,-85l-68,-20l-88,-106l15,-71l-74,-21l-3,-102l-76,-104l-67,-32l-161,25l-143,-116l-219,-30l-215,62l-110,91l-190,83l-112,147l-212,158l-24,188l-30,93l-114,99l39,82l-122,48l-228,194l-136,65l-121,15l-146,98l-136,-6l-138,73l-190,-24l-73,-123l-145,98l-23,115l26,106l-60,97l10,141l-91,93l-69,218l-94,61l75,215l-224,-137l-53,-104l15,-97l-38,-181l14,-309l-16,-176l-99,-96l17,-88l-68,-136l-218,-189l-140,-79l-1,-96l-52,-207l-116,-120l-44,-86l-1,-94l-86,-269l-108,21l-164,-52l-38,-90l-65,-23l-45,-127l38,-65l-44,-74l77,-77l-165,-60l55,-124l1,-100l-49,-60l-58,-168l-27,-140l12,-125l-45,-109l-143,-83l-65,26l-320,-551l-204,-379l499,-385l40,-11l557,-416l21,-32l578,569l326,337l10,-49l104,-117l202,-18l106,20l78,-23l102,-116l137,43l99,-28l23,-62l93,4l4,-62l93,-24l114,9l59,96l48,10l24,97l114,91l86,25l73,107l202,61l82,108l130,-16l67,74l157,108l95,16l71,-54l42,82l240,21l42,115l267,66l229,17l139,-28l22,56l110,94l-53,169l119,-35l40,22l51,157l93,-63l109,18l70,45l153,40l78,85l31,94l137,31l120,132l-24,70l110,100l122,-95l159,26l-82,244l88,73l10,83l97,-31l-49,170l2,97l106,-10l23,83l-21,95l-96,176l-112,101l2,124l112,46l186,201l27,153l62,199Z" /><path id="1101708" d="M-621560,-110260l-91,12l-354,137l-111,61l-1377,-67l-594,-41l-458,-71l-358,-75l-42,38l-297,-236l-189,-232l-60,74l-236,-187l-149,221l-161,-164l-144,-101l-124,22l-30,107l-101,10l-45,-74l-72,35l-116,-71l7,-132l41,-96l-149,-84l-72,21l-68,-82l-3,-63l1071,-950l1389,482l1805,43l26,129l75,93l14,112l-50,63l74,55l66,-4l53,196l85,5l129,102l33,57l-33,149l132,47l93,142l219,-144l140,43l-4,126l-100,174l175,-75l81,71l-4,78l-116,44Z" /><path id="1101757" d="M-615746,-97178l215,106l70,-82l137,36l127,148l144,56l32,86l-48,208l119,21l180,300l-199,58l-68,115l26,34l62,243l-16,105l-67,14l-72,79l24,246l-61,13l7,107l-137,-48l-91,89l-85,42l-44,77l226,114l-121,39l-113,77l-128,37l-64,89l-94,74l60,59l-92,45l170,207l80,28l8,138l54,71l-98,112l14,180l-44,73l-161,98l-152,-3l-155,62l-47,62l-111,-67l-20,114l42,171l75,77l-169,-26l-257,-610l-158,41l-90,1l35,-201l-32,-330l28,-56l-61,-86l-79,64l-118,178l-74,-40l127,-426l-194,-72l-122,-173l-975,-2l-298,-669l-584,155l-281,-1082l255,-301l-539,-962l-257,-4l-142,107l46,172l-25,133l49,9l152,-144l7,71l-76,160l14,57l100,65l-41,66l-131,-11l-11,107l-124,20l-49,61l-12,127l73,152l133,-3l114,-50l72,48l-21,65l60,71l12,257l-26,101l-136,54l-65,64l-27,93l27,108l-31,167l-63,86l-37,126l-4,137l-51,85l-79,-73l-125,-27l-113,-195l50,-50l-173,-213l20,-66l-34,-107l-125,-27l-52,-62l-149,-73l-61,-135l-106,-109l24,-173l-86,-59l-19,-126l-75,-85l-215,-158l-138,-54l-125,31l-105,-22l-36,-139l-40,-27l-46,-143l-70,-40l-74,36l-64,-79l-168,-39l-62,-62l-120,66l-50,66l-149,39l-81,-6l-53,62l-110,-16l-143,12l-165,-155l-159,-80l-180,-3l-164,-128l-45,-103l-126,-96l-101,-12l-62,-100l-54,-8l-6,-12l-75,-215l94,-61l69,-218l91,-93l-10,-141l60,-97l-26,-106l23,-115l145,-98l73,123l190,24l138,-73l136,6l146,-98l121,-15l136,-65l228,-194l122,-48l-39,-82l114,-99l30,-93l24,-188l212,-158l112,-147l190,-83l110,-91l215,-62l219,30l143,116l161,-25l67,32l76,104l3,102l74,21l-15,71l88,106l68,20l42,85l77,6l154,89l167,63l30,138l89,99l616,-9l173,19l68,-133l212,-281l80,101l89,-16l196,-74l106,22l37,138l-56,259l-127,414l61,45l103,174l95,45l76,110l58,144l-62,125l-7,160l63,143l272,74l47,69l-18,161l77,75l60,133l-10,155l-32,42l17,113l44,83l176,26l142,-116l266,30l222,-56l213,118l155,14l178,96l123,18l114,100l232,124l65,-93l290,-242Z" /><path id="1101807" d="M-619106,-101170l-125,216l-103,90l-154,66l-198,19l-41,104l-106,10l-2,-97l49,-170l-97,31l-10,-83l-88,-73l82,-244l-159,-26l-122,95l-110,-100l24,-70l-120,-132l-137,-31l-31,-94l-78,-85l-153,-40l-70,-45l-109,-18l-93,63l-51,-157l-40,-22l-119,35l53,-169l-110,-94l-22,-56l-28,-105l-16,-204l-70,-99l39,-80l84,-13l-55,-99l-25,-131l11,-146l52,-94l-48,-56l43,-118l139,-158l-1377,-1218l239,-242l17,-64l197,-144l-16,-29l-255,-866l14,-40l1395,-442l609,2103l236,819l587,2034l468,469Z" /></g></svg>