<?xml version="1.0"?><svg xmlns="http://www.w3.org/2000/svg" version="1.2" baseProfile="tiny" width="1080" height="1080" viewBox="-73.9904 7.1118 7.366499999999988 4.0338" stroke-linecap="round" stroke-linejoin="round"><g id="UF12MU" transform="scale(0.0001,-0.0001)"><path id="1200013" d="M-668103,-98180l-2244,982l-1003,439l-46,-83l-272,-28l-88,-56l-122,2l-11,-91l38,-85l828,-2195l120,-278l-344,-126l128,-722l116,-617l242,158l1,-1144l736,1l1,-274l76,19l-58,93l20,66l156,147l146,50l74,95l95,-40l15,113l41,86l-10,69l123,93l138,55l100,-14l-18,91l-59,24l79,93l86,-9l74,162l91,19l122,71l-16,109l39,97l269,-55l67,44l-32,118l66,36l16,69l100,1l50,78l93,20l59,139l121,138l117,46l143,113l27,77l80,-22l27,74l111,-18l107,150l56,-31l47,94l62,-48l64,18l109,99l138,18l61,-21l94,200l15,88l78,26l72,-83l122,-59l6,68l103,126l-101,35l33,66l-17,97l107,54l-30,73l-1834,800Z" /><path id="1200054" d="M-695079,-105050l-250,202l-46,167l6,110l-64,49l29,206l-6,121l-100,106l-41,114l-133,83l-1,34l-147,74l-34,64l-90,-63l-100,-13l-31,-54h-86l-133,-111l37,-64l-99,-87l-66,-17l-70,-76l-134,-63l-94,48l-71,-12l-87,-156l-116,57l-95,-50l41,-70l-117,-14l-121,-84l-148,76l-208,-153l-36,47l-168,-37l-9,-73l-64,-108l-73,17l-58,-74l75,-185l-99,-13l-185,-85l-40,-67l-18,-206l-164,-19l-74,36l-101,-29l-113,-187l-88,62l-124,-32l-9,87l-71,50l-72,-67l-87,-28l-87,36l-71,-158l-185,-92l-99,5l-69,-102l-62,-13l-114,149l-53,-31l27,-94l-47,-27l-95,35l-102,-137l-80,27l-93,-104l-138,-48l-54,-93l-96,46l-55,-29l29,-157l-112,-12l-163,-184l-67,111l-79,-68l-99,90l-59,-58l36,-111l-130,-17l-22,-58l-123,-32l-17,-62l-112,55l-46,-65l-98,-23l-27,-151l-158,-26l-57,39l-64,-51l-96,89l-134,-45l-54,-47l-167,-32l-6,-134l-87,-2l-84,43l-5,107l-59,4l-12,-118l-120,116l-67,-54l-149,9l-22,-123l-109,6l-177,81l-32,-42l-207,-57l-3,-154l-80,13l-77,63l-159,-28l-79,72l-103,2l-85,42l-13,-102l-95,92l-75,-50l-28,85l-83,-38l-102,71l-79,-93l-99,-67l-76,38l-125,-37l-147,72l-47,-35l-92,36l-45,79l34,122l-239,83l-31,-44l-222,-110l-63,54l-282,-82l-54,7l0,-2052l-1,-889l909,648l60,16l104,-160l94,-31l79,-107l96,-13l115,-125l20,-76l206,-123l151,-299l-39,-69l37,-55l169,-3l392,-108l12,-64l74,-42l192,18l36,-65l81,-21l145,21l195,-52l182,77l84,67l61,-30l91,21l22,54l238,22l171,-21l110,13l107,-42l177,92l119,23l211,117l126,32l68,46l46,91l199,101l-21,88l104,32l92,71l84,9l36,-48l140,-37l174,139l68,-13l66,68l104,43l63,-10l96,90l85,-21l75,91l157,53l110,96l92,38l57,106l70,-15l79,51l104,-35l230,47l230,-48l46,-56l196,63l97,-6l108,-90l98,7l110,74l117,-8l65,-79l67,55l144,-115l126,11l208,-262l36,-91l126,98l44,-108l117,62l68,-12l103,61l132,44l84,-23l93,93l138,-12l112,-37l123,77l253,93l43,-66l69,75l179,-40l93,-41l173,-28l-25,109l41,28l181,10l127,-76h88l66,-77l77,14l59,-47l50,104l60,-52l145,3l12,125l170,29l107,-10l14,83l335,1003l-16,256l-11,686l-114,81l-195,106l22,224l-138,-122l-383,-74l-32,80l-212,22l0,-488l124,-338l7,-108l-157,-280l-204,-264l-316,-253l-2,51l-166,113l-116,-20l-110,-51l-72,54l-86,-19l-41,43l-167,50l-99,56l-152,-149l-85,3l-7,137l-46,96l-105,27l-47,63l-95,-25l-244,66l-88,-42l-58,66l-105,52l-17,72l-122,83l-224,190l222,405l852,101l184,416l1009,737l403,595l30,515Z" /><path id="1200104" d="M-688348,-107395l-121,-91l-59,-92l-248,-3l-29,-84l-152,-40l-45,-49l-139,-4l-78,-40l-66,33l-121,-16l-56,26l-297,45l-42,173l34,123l108,23l102,110l-3,87l72,62l-8,103l40,86l-33,165l163,11l68,112l13,83l104,193l-111,114l10,122l93,23l70,85l-3,111l69,91l-30,39l-179,11l-235,-5l-287,-38l-24,70l-209,-40l-62,-66l-230,-20l-75,41l-171,-1l-120,-59l-170,113l-13,128l-66,84l-139,34l-44,171l-116,121l-156,103l-237,21l-71,92l19,105l-37,34l-19,130l108,91l108,248l71,78l-17,99l127,256l-29,143h-178l-1,-123l-204,-48l-135,31l-128,-135l-232,-25l-70,-88l-80,-28l-125,-108l-20,-175l-192,-36l-199,-117l-342,-18l-196,-133l-1661,-197l-30,-515l-403,-595l-1009,-737l-184,-416l-852,-101l-222,-405l224,-190l122,-83l17,-72l105,-52l58,-66l88,42l244,-66l95,25l47,-63l105,-27l46,-96l7,-137l85,-3l152,149l99,-56l167,-50l41,-43l86,19l72,-54l110,51l116,20l166,-113l2,-51l316,253l204,264l157,280l-7,108l-124,338l0,488l212,-22l32,-80l383,74l138,122l-22,-224l195,-106l114,-81l11,-686l16,-256l-335,-1003l84,9l24,-117l74,85l165,-106l78,-9l39,-140l44,3l23,156l64,-15l112,41l116,-93l137,-35l143,46l87,-43l127,-17l137,19l66,66l212,-6l-40,-67l136,-26l81,115l74,-86l49,-3l41,-91l149,98l116,-21l72,-53l118,-31l55,-69l86,29l84,-92l96,39l170,10l137,-54l36,-80l65,7l135,92l63,-53l99,-17l70,-83l65,53l108,-7l207,-124l95,32l54,-116l68,-69l101,-26l64,21l-27,110l137,90l78,14l181,-236l153,65l15,-77l110,-6l81,-83l172,155l98,-93l23,71l229,-80l-4,117l105,119l61,13l61,-97l85,-50l126,11l50,109l131,-15l14,-45l144,-11l122,-56l78,43l57,-64l88,-25l-5,-72l82,34l1,161l56,63l52,-89l121,135l5,98l125,61l55,-9l112,56l10,303l-174,162l-104,33l-52,78l-106,34l-28,76l-194,124l-90,27l-229,152l-20,356l-95,152l-83,211l-78,89l10,52l-108,211l-117,159l-13,63Z" /><path id="1200138" d="M-682199,-92428l-66,-70l-107,-25l-91,-113l-81,11l-126,-29l-56,-80l-120,-96l-170,-76l-86,4l-62,-52l-189,49l-138,-13l-28,-61l-147,-16l-28,-56l-106,-43l-208,-144l694,-1164l-59,-243l-57,-108l-87,-69l-45,-87l-143,-71l-129,16l-137,-54l-88,-175l-73,-79l2,-132l-50,-51l-77,-155l27,-80l-50,-117l8,-187l-141,-81l-142,-177l45,-81l109,-91l-19,-182l75,-42l43,-180l77,-89l-313,-1527l81,64l30,90l143,16l48,82l99,88l200,66l-3,101l39,49l233,84l209,-64l116,22l91,-47l250,-54l97,-141l167,-164l60,17l1147,-1376l73,164l110,102l139,-38l220,87l119,104l9,74l179,169l142,72l89,-40l84,109l78,48l272,81l110,135l146,88l41,-64l225,-16l294,67l148,2l42,38l366,12l147,-180l56,8l150,-105l39,179l-84,185l-3,131l27,115l86,106l-44,137l44,92l114,79l155,50l-137,105l42,100l-225,-107l-187,85l6,75l-80,9l-31,86l-76,-141l-75,80l-34,123l-90,9l-215,77l-80,62l18,97l-100,25l24,88l-19,86l117,68l-1803,1115l35,131l139,214l87,41l59,78l304,199l0,65l80,58l15,200l-43,40l-36,120l-130,61l-14,67l-154,181l12,155l-45,46l47,179l37,25l57,193l135,88l182,-104l159,-49l95,61l114,2l-2431,1099Z" /><path id="1200179" d="M-676379,-103687l-44,42l-131,30l-98,-11l-78,53l-119,7l-61,39l-45,95l-4,192l-64,74l-32,97l-107,154l-380,203l-88,96l-19,110l-68,78l-73,19l-45,89l14,60l-34,127l-164,50l-26,104l-9,-61l-167,-23l-26,-80l83,-23l40,-83l-26,-85l-93,-109l-82,-19l9,-100l124,-115l-123,-59l-105,39l-79,-89l33,-89h-995l-29,-135l-109,-130l-213,-30l-161,11l-119,-77l-74,-125l-217,-155l51,-144l72,-36l-48,-93l-98,-100l-54,-52l-7,-87l-84,-81l12,-101l-98,-44l207,-472l10,-117l50,-65l72,-265l-42,-88l55,-161l106,-91l-7,-115l53,-76l114,-61l13,-51l142,-98l-41,-56l-258,-55l56,-77l19,-246l66,-136l94,-27l165,-119l107,77l26,52l171,-20l145,-37l185,64l26,74l107,-14l59,-45l77,82l128,-35l91,24l87,-64l228,-58l49,16l126,-139l66,4l179,-127l103,-34l136,-80l90,25l52,-91l80,-49l41,-75l104,-55l210,90l46,45l129,426l19,31l140,491l157,-94l190,152l46,72l10,118l209,124l46,56l48,281l43,14l62,113l168,49l104,72l-114,72l-115,-85l-194,64l-25,134l-81,103l-196,23l-106,-44l-198,19l-106,47l-194,204l-113,142l138,216l108,91l48,183l118,18l118,-80l98,62l108,239Z" /><path id="1200203" d="M-721695,-76006l-1890,221l-2263,265l-1284,465l-1871,678l112,-856l1,-206l76,-69l9,-98l102,-13l58,-211l216,-241l192,-158l403,-372l-86,14l-127,-57l-138,25l-88,-16l-279,51l-49,-156l542,-109l115,-37l532,-364h83l782,302l23,169l82,20l27,-60l-4,-238l-49,-213l34,-135l48,-69l127,-52l14,-125l-140,-20l-38,-76l214,7l-71,-91l-123,-10l41,-75l-22,-80l57,-95l-56,-33l-32,-113l-109,29l-51,-142l-249,94l-61,-106l-2,-107l-117,-12l-52,46l-243,-119l67,-93l-149,-108l-108,83l-26,-92l-91,-49l-72,33l-111,-72l-9,-88l-247,-77l-174,-21l-59,-82l-82,-35l-46,45l-127,9l-221,-128l-52,6l-105,-72l-101,-12l-84,37l-109,-69l-133,-44l-191,-100l-110,44l-65,68l-157,-50l-157,41l-69,43l-334,-17l-76,-84h-137l-134,-25l-127,88l-87,-21l-171,55l-11,50l41,138l62,41l5,90l130,155l-216,-52l-151,6l-28,-56l-212,-42l-174,52l-85,-57l-209,-44l-20,-65l-108,-2l-37,-73l-92,-49l-111,-172l-134,14l-88,-120l-82,-8l-48,-103l-58,-3l-113,-132l-16,-79l-63,-35l-278,-78l-35,59l-135,49l-193,-3l-189,-62l-189,-214l-6,-168l-2326,-286l166,-106l85,-169l131,-109l87,-254l-60,-195l55,-219l-7,-222l-87,-202l136,-13l71,-100l29,-119l113,-55l70,-186l130,-88l42,-146l-40,-177l104,-198l-81,-194l8,-113l77,-59l131,-182l120,-91l183,6l39,-137l98,-14l242,-90l145,-99l119,51l92,-36l57,-86l10,-150l113,-331l78,-23l215,62l179,-72l118,35l33,-83l854,626l72,95l184,128l72,4l113,115l92,31l159,16l446,232l52,50l217,43l54,36l65,199l84,160l60,70l145,68l122,-10l154,67l143,211l80,59l35,209l82,99l101,48l132,9l182,77l128,-33l69,37l-38,86l120,-19l96,37l20,57l98,40l181,29l31,50l158,90l256,233l110,46l71,107l99,24l150,109l20,-187l32,-71l-90,-129l63,-76l93,-5l-14,-105l30,-76l-54,-125l83,-66l175,53l172,-15l-38,-92l91,-38l118,-154l48,9l26,116l59,54l76,-22l150,21l43,-93l86,27l76,-52l87,13l400,380l693,-24l89,16l113,-91l10,-76l160,-135l80,-1l124,-164l276,-36l185,47l64,-48l132,-45l81,4l159,-131l212,-8l85,89l85,11l66,59l129,-31l309,121l94,2l86,89l90,147l118,9l66,-56l81,-243l54,-56l-18,-139l54,-64l86,1891l-40,124l78,90l72,142l151,91l59,64l107,454l105,56l42,78l176,150l267,93l89,127l114,22l265,283l1,34l148,174l74,111l255,136l63,-3l54,91l488,314l555,1816l-2241,262Z" /><path id="1200252" d="M-683882,-110406l-104,38l-29,71l14,286l-84,68l49,115l9,93l-25,163l-178,248l38,250l87,9l86,124l-68,128l27,165l-19,86l-183,170l-42,128l-41,-3l-243,111l-126,-146l-73,-55l-282,269l-151,42l-108,98l-104,10l-187,237l61,126l72,6l33,-80l83,236l-81,63l25,72h105l-6,78l-194,32l-534,590l-381,28l19,282l51,68l-133,12l-274,-48l-78,-90l-153,2l-90,-45l-92,-121l-115,17l-128,-113l-52,2l-57,-122l-92,-16l-63,42l-143,35l-88,-49l-135,-13l11,-139l-94,-79l70,-105l18,-126l-180,-84l-114,-155l13,-63l117,-159l108,-211l-10,-52l78,-89l83,-211l95,-152l20,-356l229,-152l90,-27l194,-124l28,-76l106,-34l52,-78l104,-33l174,-162l-10,-303l-112,-56l-55,9l-125,-61l-5,-98l-121,-135l-52,89l-56,-63l-1,-161l-82,-34l-42,-53l15,-118l-84,-36l-66,-122l33,-71l-23,-72l96,-104l138,-205l74,35l132,-96l-9,-107l108,-148l-5,-95l-42,-77l1731,342l31,146l214,97l113,139l23,88l177,135l121,-8l194,64l109,-8l107,140l76,-67l109,-7l59,-50l37,-92l79,16l99,115Z" /><path id="1200302" d="M-698017,-80611l-1877,1600l-656,560l-1181,135l-1622,186l-1799,206l-37,-60l-188,-46l-88,-57l7,-124l-52,-46l-177,-75l-88,-84l72,-115l-95,-28l-40,-171l-197,11l-41,-28l72,-191l-199,2l34,-123l-27,-58l-110,-31l-88,67l-75,-1l43,-210l98,-72l5,-55l-82,-39l-6,-112l84,-69l-28,-129l33,-69l217,-72l51,-52l67,37l98,-7l9,-128l126,-198l63,-232l-88,-65l-5,-176l35,-134l5,-155l-35,-89l130,-326l85,-115l-23,-118l-75,-39l-138,-265l55,-85l90,-40l-41,-131l-78,-10l-97,-95l-464,-778l86,-297l-552,-420l40,-552l231,-285l-495,-107l141,-461l-385,-465l-154,-394l-255,-17l-162,-292l-525,-62l-215,-237l-99,98l-59,195l-178,2l-57,118l-134,154l-51,87l-149,31l-31,-92l-85,-16l-34,-99l-107,-44l-74,-80l27,-148l-204,-2l40,-183l-116,-16l-198,-221l-34,-71l55,-126l-49,-54l-148,-5l-46,-93l-122,-25l-49,-59l-121,-68l-38,-115l-197,-19l90,-91l-46,-39l-95,59l-235,-85l-99,-8l-139,-79l-118,-42l-133,-148l-131,101l-67,-42l-47,-98l5,-112l-118,84l-28,-71l-76,5l-147,-92l-89,-197l-91,-35l14,-92l-79,-16l-67,90l-166,-47l-86,5l-53,77l-111,-37l-83,-125l-63,-53l-77,1l-60,-59l-75,21l-126,-19l-63,-110l-88,-23l-122,-108l-57,14l-53,89l-100,-57l-54,114l-273,-72l-174,153l-67,-49l-187,61l-144,-159l-22,-108l-108,49l-92,-120l-240,-72l-51,-83l-33,-186l-65,19l-87,-122l-109,-3l-126,-186l51,-96l-150,-108l18,-60l-43,-194l-84,-21l-25,-99l24,-84l-68,-114l88,-204l-186,-179l64,-35l-17,-115l29,-76l-20,-115l-87,-7l39,-123l-73,-105l-71,-26l9,-119l73,-118l-71,-123l77,-133l-131,-41l-122,-127l20,-89l-93,-127l18,-67l-103,-14l21,-76l-145,-31l-33,-107l-112,-2l-61,-88l-102,-17l47,-182l-25,-143l-137,-76l-52,-175l25,-77l-24,-75l-74,-47l2,-107l-41,-38l-9,-156l58,-25l11,-315l-21,-128l-44,-42l-16,-138l-83,-63l-69,24l-24,-101l-76,-66l-22,-78l-198,-120l-131,-7l-12,-143l-91,-70l90,-158l-27,-62l-123,-37l25,-82l-49,-153l43,-94l-65,-102l-70,-50l-65,-136l-91,-21l-43,-91l39,-196l-340,-144l-151,-163l5,-143l-358,-183l-91,-367l-235,84l-389,-28l-168,-372l-302,-128l37,236l-757,-198l-423,-339l-24,-148l-85,-89l-17,-75l79,-68l25,-74l-9,-127l38,-104l115,-122l-117,-155l-43,-92l-96,-73l-78,-121l16,-144l118,-35l8,-139l41,-71l-66,-136l-183,-107l2,-152h1566h1618h1429h2046h1372l134,150l93,-30l18,114l140,46l212,-192l97,-8l164,71l61,-2l144,68l120,2l60,142l65,19l62,-45l129,-28l167,29l51,192l118,90l65,185l60,22l97,294l87,128l351,234l255,1l25,62l147,65l75,114l-227,118l111,370l-125,283l130,106l96,399l337,577l887,561l57,503l485,283l468,589l650,-1l204,269l358,64l411,440l621,-52l-82,638l104,67l20,361l551,571l444,748l289,316l459,29l157,182l344,674l377,358l461,188l1255,-39l1034,-61l580,47l1670,114l254,133l134,236l229,612l83,192l211,307l108,245l374,214l262,312l401,505l84,-13l147,27l82,-9l68,104l111,15l28,74l99,42l65,-11l99,53l7,51l88,46l43,315l104,144l62,129l-24,136l63,54l43,178l89,95l54,134l51,57l47,148l67,85l-19,93l19,184l68,145l186,210l65,104l129,140l63,19l111,112l28,89l25,204l-1771,1514l-1803,1540Z" /><path id="1200328" d="M-714816,-88841l-210,145l-198,-44l-155,145l-147,87l-647,-75l-26,122l19,253l101,56l100,104l75,174l102,89l-16,60l86,175l70,16l122,119l117,51l-31,98l-7,195l-83,43l-5,131l-39,34l7,193l-18,130l-56,60l-78,-116l-77,63l-166,-54l-72,-56l43,-115l-39,-25l-73,136l-62,-75l-93,-47l93,-105l-190,10l-18,-96l-100,16l-71,-43l-22,-75l-239,78l-11,-84l90,-86l-191,-29l-1,-119l-77,35l-177,-102l26,-62l-211,-89l-25,-106l-61,19l-100,-48l59,-114l-157,-77l13,-131l-136,-93l-174,22l4,-131l-199,-42l-57,-44l-73,35l-75,-53l-58,72l-146,73l-158,-32l-142,87l-59,-36l-63,91l-109,34l-95,111l-62,-51l-111,76l-289,28l-38,56l-171,-81l-33,-108l-139,-17l-248,-144l-66,-103l-161,-139l-99,-46l-85,17l-99,-82l-26,-138l30,-66l339,-323l-98,-336l176,-108l78,-261l-10,-311l-133,-267l108,-402l-206,-736l-167,-132l14,-195l236,-228l-13,-154l-96,-15l-425,-783l-35,-147l-193,-109l-289,-505l-116,-245l-223,51l-394,-263l-267,-295l-24,-149l-109,-140l-143,-4l41,-136l-212,-59l-100,-151l-364,-3l19,-134l157,-188h110l103,42l109,10l74,-53l10,-89l-48,-388l26,-64l-46,-71l200,-182l99,58l62,-82l-75,-169l26,-107l111,-59l-22,-159l-37,-65l14,-144l-127,-200l20,-130l-90,-187l93,-81l100,-9l84,-119l128,24l159,-107h131l261,-79l173,-93l51,-56l423,339l757,198l-37,-236l302,128l168,372l389,28l235,-84l91,367l358,183l-5,143l151,163l340,144l-39,196l43,91l91,21l65,136l70,50l65,102l-43,94l49,153l-25,82l123,37l27,62l-90,158l91,70l12,143l131,7l198,120l22,78l76,66l24,101l69,-24l83,63l16,138l44,42l21,128l-11,315l-58,25l9,156l41,38l-2,107l74,47l24,75l-25,77l52,175l137,76l25,143l-47,182l102,17l61,88l112,2l33,107l145,31l-21,76l103,14l-18,67l93,127l-20,89l122,127l131,41l-77,133l71,123l-73,118l-9,119l71,26l73,105l-39,123l87,7l20,115l-29,76l17,115l-64,35l186,179l-88,204l68,114l-24,84l25,99l84,21l43,194l-18,60l150,108l-51,96l126,186l109,3l87,122l65,-19l33,186l51,83l240,72l92,120l108,-49l22,108Z" /><path id="1200336" d="M-729003,-74377l-1545,560l-1277,462l-1105,399l-2746,993l-1706,616l-634,229l95,-121l-22,-63l88,-111l78,-42l24,-107l92,-70l67,-110l42,-237l105,-121l208,-109l101,-130l-19,-333l48,-102l73,-83l47,-100l-9,-82l-184,-249l-287,-149l-130,27l-13,82l-84,13l-245,-123l-138,68l-92,20l-125,-15l-227,-104l-76,-219l-70,-85l-96,-50l-137,47l-193,-1l-214,258l-54,-5l-73,-86l-72,139l-78,20l-76,-65l76,-262l170,-317l112,-160l30,-262l81,-136l-99,-123l-36,-166l-147,-320l-268,-61l-108,19l-53,-56l26,-189l45,-113l150,-11l101,-93l158,-220l101,-94l95,-50l143,-114l127,-26l96,-88l11,-195l122,-158l157,-66l107,30l43,-30l32,-107l66,-78l107,-213l126,-52l229,3l308,-96l154,-17l79,-85l189,-133l167,-77l30,-77l186,308l1437,228l32,-52l136,-37l95,-91l71,5l66,-53l169,-195l124,-25l68,-78l151,31l176,66l99,95l95,-1l124,48l164,-55l62,82l57,145l85,9l119,154l83,29l58,-42l-144,-210l18,-46l276,-127l86,-78l9,-119l-49,-58l567,-150l596,531l164,133l384,169l816,328l149,72l178,-68l140,11l309,-42l151,-76l69,8l76,-62l177,126l168,153l503,-99l34,2l49,156l279,-51l88,16l138,-25l127,57l86,-14l-403,372l-192,158l-216,241l-58,211l-102,13l-9,98l-76,69l-1,206l-112,856Z" /><path id="1200344" d="M-692130,-85644l-966,827l-1347,1152l-25,-204l-28,-89l-111,-112l-63,-19l-129,-140l-65,-104l-186,-210l-68,-145l-19,-184l19,-93l-67,-85l-47,-148l-51,-57l-54,-134l-89,-95l-43,-178l-63,-54l24,-136l-62,-129l-104,-144l-43,-315l-88,-46l-7,-51l-99,-53l-65,11l-99,-42l-28,-74l-111,-15l-68,-104l-82,9l-147,-27l-84,13l-401,-505l-262,-312l-374,-214l-108,-245l-211,-307l-83,-192l-229,-612l-134,-236l-254,-133l225,-572l13,-86l114,-43l45,-67l-11,-92l56,-89l-31,-101l55,-157l92,-53l9,-164l163,-106l-79,-96l-33,-137l-141,-137l-174,-71l-63,111l-101,-37l29,-82l165,-15l-45,-115l-75,21l1,-101l-73,-102l-29,-161l-112,34l-75,-93l-79,19l-18,-174l-63,52l-91,-54l-102,73l-1,-122l130,-29l-21,-56l-119,60l-45,-116l-93,-45l-80,52l-133,-11l-222,45l-79,-131l-138,-105l-125,35l-24,52l-92,-1l-96,-204l-142,-59l3,-53l-279,-42l-39,42l-152,47l-207,-13l-190,-56l-87,46l-156,-13l-58,142l-361,-7l-48,-61l-172,-24l-65,-130l-96,-61l-107,-18l-43,-89l-75,-75l-119,20l-58,-79l-20,-140l-32,-41l-237,43l-39,-34l34,-246l-159,-125l-38,-106l-143,-82l590,-239l670,-178l490,-344l1198,-327l-22,-224l-162,-10l-89,-32l-84,30l-61,-49l3,-71h-160l-81,52l-78,-10l-37,-104l-99,56l-137,-51l-13,-71l-107,-32l-72,-57l-84,-158l2,-73l-121,-1l-8,-68l-74,-107l-22,-158l-292,-173l1,-90l-84,-93l-16,-91l-105,-35l-91,-72l-43,-98l-103,-10l-39,-46l-179,-307l-105,-31l-35,-179l-146,-103l-144,-73l-13,-151l-65,-159l25,-150l-140,-77l-155,-173l-5,-63l-167,-148l-3,-60l-72,-90l-135,-91l-28,-99l-152,-66l-126,-92l-127,-194l-8,-94l-50,-91l-134,-125l-137,-88l-135,14l-153,-62l-86,-151l-74,-31l-106,-173l-24,-78l-84,-10l-153,-138l-134,41l-127,-89l-52,-110l-156,-190l-118,-80l-71,-138l-3,-162l-2,-1329l8,-1352l-2,-614l2685,-4l959,-1l37,159l-26,151l48,216l100,308l214,302l-82,197l153,183l246,176l247,275l100,236l162,109l209,428l35,9l692,1607l49,377l-59,210l114,387l-66,269l177,335l439,497l13,72l-18,499l53,184l263,321l187,459l-39,177l86,144l173,170l269,374l93,210l27,236l-12,309l70,275l60,105l73,46l298,-1l339,439l-137,462l127,44l148,-88l794,1092l226,-66l555,271l246,303l293,-7l353,130l647,210l263,276l451,244l375,468l935,5l225,63l103,444l226,397l242,137l654,-135l199,211l70,42l37,258l102,93l101,4l167,57l63,-30l145,57l116,162l216,57l91,87l91,142l72,27l63,-36l245,116l120,165l-740,634l-1252,1073l-925,792Z" /><path id="1200351" d="M-722140,-87008l-432,-232l-459,-375l-551,-195l-73,-15l-87,42l-27,114l-133,14l-41,85l-236,66l-128,-104l-85,-21l-65,76l-114,-30l-57,-52l-125,-1l-53,-87l-159,-44l-174,44l-190,-3l-89,51l-135,-12l-207,28l-91,-43l-96,7l-107,-41l-75,25l-181,-38l-28,58l-118,6l-70,92l-107,87l10,124l-51,161l-152,159l-60,5l-104,139l-64,40l-145,-12l-120,159l-48,-115l-28,-197l-115,-115l-201,-61l-33,-48l-369,30l-142,-57l-56,-72l-157,69l-56,-15l-11,-101l-128,-101l-106,48l-89,-30l-56,25l-129,-63l-113,12l-65,-83l-97,34l-76,67l-154,55l-193,-30l-161,-81l-234,29l-73,-34l-407,-72l-169,55l-68,-18l-57,83l-219,-54l-30,-58l-121,-83l51,-36l113,-171l-2,-237l28,-71l147,-145l163,-57l5,-180l63,-89l69,-238l81,-133l130,-84l343,25l141,-70l70,-127l134,-354l82,-112l218,-50l81,-54l-29,-73l-177,-139l86,-149l30,-212l51,-222l-53,-54l17,-278l-89,-264l-117,-184l-72,-12l-146,-117l-225,-78l-77,-89l52,-110l159,-28l-59,-92l-179,-195l-30,-68l-178,-103l-50,-7l-113,116l-232,-131l-72,-61l-85,-216l-130,-93l-34,-67l107,-221l-65,-33l-207,-50l-113,-93l-81,-115l-93,-176l-293,-91l-46,-69l-29,-259l-161,-127l-23,-62h2282h1642h998l27,-93l130,-124l103,-20l103,30l151,-54l52,-99l183,43l228,-19l49,-73l58,34l106,-66l71,4l145,-44l55,-45l127,10l291,-109l78,-147l85,44l110,-21l162,74l83,-78l281,31l97,34l310,-10l127,-16l126,-100l108,-23l88,54l86,-44l173,-143l364,3l100,151l212,59l-41,136l143,4l109,140l24,149l267,295l394,263l223,-51l116,245l289,505l193,109l35,147l425,783l96,15l13,154l-236,228l-14,195l167,132l206,736l-108,402l133,267l10,311l-78,261l-176,108l98,336l-339,323l-469,396l-192,1167l-700,110Z" /><path id="1200385" d="M-670023,-102297l-1,274l-736,-1l-1,1144l-242,-158l-116,617l-128,722l-405,-147l-193,-110l-672,-326l-162,-134l-323,-209l-197,22l-270,-16l-816,-342l8,-115l-26,-198l-70,-150l-41,-177l-67,-92l-122,-88l-37,-137l-83,-153l-90,-82l-25,-80l-129,-93l-48,-92l8,-117l-39,-110l-149,-55l-187,-101l-259,-94l-339,-172l-137,36l0,-115l-116,-48l19,-112l-61,-40l17,-83l-107,-69l-14,-189l-108,-239l-98,-62l-118,80l-118,-18l-48,-183l-108,-91l-138,-216l113,-142l194,-204l106,-47l198,-19l106,44l196,-23l81,-103l25,-134l194,-64l115,85l114,-72l49,59l168,84l152,43l79,-7l67,71l274,143l102,24l123,125l142,2l152,72l46,169l45,39l122,1l40,86l-42,138l-84,132l109,95l64,94l53,9l206,-95l168,35l50,-121l61,3l15,108l131,19l89,-68l94,19l78,97l-61,58l26,189l-112,85l26,128l81,72l228,-61l45,48l124,-20l84,-84l143,15l120,104l177,29l60,-57l197,-17l67,-67l28,-95l184,16l81,87l153,34l125,98l-61,90l35,90l112,73l46,-22l148,38l75,66l111,-32l30,-49l293,110l45,123l163,28l47,78l201,45l54,86l-21,103l43,33Z" /><path id="1200393" d="M-722663,-82606l-54,64l18,139l-54,56l-81,243l-66,56l-118,-9l-90,-147l-86,-89l-94,-2l-309,-121l-129,31l-66,-59l-85,-11l-85,-89l-212,8l-159,131l-81,-4l-132,45l-64,48l-185,-47l-276,36l-124,164l-80,1l-160,135l-10,76l-113,91l-89,-16l-693,24l-400,-380l-87,-13l-76,52l-86,-27l-43,93l-150,-21l-76,22l-59,-54l-26,-116l-48,-9l-118,154l-91,38l38,92l-172,15l-175,-53l-83,66l54,125l-30,76l14,105l-93,5l-63,76l90,129l-32,71l-20,187l-150,-109l-99,-24l-71,-107l-110,-46l-256,-233l-158,-90l-31,-50l-181,-29l-98,-40l-20,-57l-96,-37l-120,19l38,-86l-69,-37l-128,33l-182,-77l-132,-9l-101,-48l-82,-99l-35,-209l-80,-59l-143,-211l-154,-67l-122,10l-145,-68l-60,-70l-84,-160l-65,-199l-54,-36l-217,-43l-52,-50l-446,-232l-159,-16l-92,-31l-113,-115l-72,-4l-184,-128l-72,-95l-854,-626l44,-61l-3,-356l-62,-230l-2,-124l-31,-184l-39,-78l-26,-234l26,-136l44,-21l174,37l80,-77l-15,-93l113,-54l44,-144l126,-155l90,-30l115,-83l70,-13l95,-83l100,7l160,67l135,-11l322,-133l207,-134l130,-150l48,-203l-6,-166l102,-116l121,83l30,58l219,54l57,-83l68,18l169,-55l407,72l73,34l234,-29l161,81l193,30l154,-55l76,-67l97,-34l65,83l113,-12l129,63l56,-25l89,30l106,-48l128,101l11,101l56,15l157,-69l56,72l142,57l369,-30l33,48l201,61l115,115l28,197l48,115l120,-159l145,12l64,-40l104,-139l60,-5l152,-159l51,-161l-10,-124l107,-87l70,-92l118,-6l28,-58l181,38l75,-25l107,41l96,-7l91,43l207,-28l135,12l89,-51l190,3l174,-44l159,44l53,87l125,1l57,52l114,30l65,-76l85,21l128,104l236,-66l41,-85l133,-14l27,-114l87,-42l73,15l551,195l459,375l432,232l-162,1039l289,450l-270,351l-33,1065l-344,194l404,1100l-407,203Z" /><path id="1200401" d="M-684180,-95455l-142,51l-192,-84l-22,-30l-132,58l-177,-155l-33,-94l-53,-33l-94,12l-85,-36l-31,-121l-701,495l-170,12l-66,328l-256,-107l-393,-442l-274,-1192l72,-711l264,-906l-279,-458l-1070,-753l-837,-1006l-1522,-1017l-835,-1045l-516,-176l-1385,-774l-311,-390l-218,-602l220,-222l196,133l342,18l199,117l192,36l20,175l125,108l80,28l70,88l232,25l128,135l135,-31l204,48l1,123h178h2151l1995,1l114,214l82,22l39,57l74,-26l45,67l-35,122l35,77l62,31l123,-3l58,96l99,51l105,99l204,-23l133,72l71,-3l46,60l109,-7l19,107l103,49l46,59l102,-69l238,83l19,135l134,14l71,-30l147,95l32,210l192,130l-18,188l65,112l168,19l53,-81l-108,-232l-2,-205l47,-170l164,-124l162,-6l51,-27l-43,-89l39,-126l1,-112l-34,-59l403,-44l247,-206l-37,-257l-357,-155l26,-61l628,-142l-27,-154l137,-91l149,71l40,50l143,34l26,88l60,54l167,-18l201,35l65,-30l91,84l92,13l94,60l147,-84l62,56l245,38l73,27l101,-42l151,-1l62,72l149,-12l100,50l35,-48l192,-151l57,39l138,-34l92,-58l98,100l48,93l-72,36l-51,144l217,155l74,125l119,77l161,-11l213,30l109,130l29,135h995l-33,89l79,89l105,-39l123,59l-124,115l-9,100l82,19l93,109l26,85l-40,83l-83,23l26,80l167,23l9,61l-78,24l102,116l-95,50l0,94l-72,113l50,72l-81,68l87,72l-153,166l3,119l73,17l36,84l-40,64l65,42l246,-80l158,-123l94,-17l262,12l680,67l152,117l94,99l87,202l176,121l98,-1l294,-211l204,109l78,135l186,112l68,126l177,-42l87,74l24,146l65,18l27,146l-74,103l35,151l5,130l103,217l-347,204l50,89l-12,120l-89,135l-46,125l-81,73l-77,20l-129,-39l-130,40l-132,131l-9,119l-90,16l-36,-63l32,-118l-55,-78l-110,-44l-41,-52l-126,31l-94,-65l-188,-9l-191,112l-12,103l-112,79l-52,-25l-201,-1l29,194l-111,114l154,182l-407,477l-505,-426l-28,118l10,85l-155,-50l-114,-79l-44,-92l44,-137l-86,-106l-27,-115l3,-131l84,-185l-39,-179l-150,105l-56,-8l-147,180l-366,-12l-42,-38l-148,-2l-294,-67l-225,16l-41,64l-146,-88l-110,-135l-272,-81l-78,-48l-84,-109l-89,40l-142,-72l-179,-169l-9,-74l-119,-104l-220,-87l-139,38l-110,-102l-73,-164l-1147,1376l-60,-17l-167,164l-97,141l-250,54l-91,47l-116,-22l-209,64l-233,-84l-39,-49l3,-101l-200,-66l-99,-88l-48,-82l-143,-16l-30,-90l-81,-64l313,1527l-77,89l-43,180l-75,42l19,182l-109,91l-45,81l142,177l141,81l-8,187l50,117l-27,80l77,155Z" /><path id="1200427" d="M-728601,-76740l-34,-2l-503,99l-168,-153l-177,-126l-76,62l-69,-8l-151,76l-309,42l-140,-11l-178,68l-149,-72l-816,-328l-384,-169l-164,-133l-596,-531l-567,150l49,58l-9,119l-86,78l-276,127l-18,46l144,210l-58,42l-83,-29l-119,-154l-85,-9l-57,-145l-62,-82l-164,55l-124,-48l-95,1l-99,-95l-176,-66l-151,-31l-68,78l-124,25l-169,195l-66,53l-71,-5l-95,91l-136,37l-32,52l-1437,-228l-186,-308l97,-52l19,-136l-14,-160l-36,-149l32,-237l-34,-97l-169,-186l-90,-29l-290,28l-144,146l-108,-28l11,-93l131,-194l-51,-51l-120,-21l-6,-81l198,-185l44,-118l0,-174l87,-53l90,-112l60,90l252,-1l89,-112l93,-310l34,-54l126,-4l139,57l96,-52l130,-138l35,-179l-88,-196l2326,286l6,168l189,214l189,62l193,3l135,-49l35,-59l278,78l63,35l16,79l113,132l58,3l48,103l82,8l88,120l134,-14l111,172l92,49l37,73l108,2l20,65l209,44l85,57l174,-52l212,42l28,56l151,-6l216,52l-130,-155l-5,-90l-62,-41l-41,-138l11,-50l171,-55l87,21l127,-88l134,25h137l76,84l334,17l69,-43l157,-41l157,50l65,-68l110,-44l191,100l133,44l109,69l84,-37l101,12l105,72l52,-6l221,128l127,-9l46,-45l82,35l59,82l174,21l247,77l9,88l111,72l72,-33l91,49l26,92l108,-83l149,108l-67,93l243,119l52,-46l117,12l2,107l61,106l249,-94l51,142l109,-29l32,113l56,33l-57,95l22,80l-41,75l123,10l71,91l-214,-7l38,76l140,20l-14,125l-127,52l-48,69l-34,135l49,213l4,238l-27,60l-82,-20l-23,-169l-782,-302h-83l-532,364l-115,37l-542,109Z" /><path id="1200435" d="M-698651,-89575l-1670,-114l-580,-47l-1034,61l-1255,39l-461,-188l-377,-358l-344,-674l-157,-182l-459,-29l-289,-316l-444,-748l-551,-571l-20,-361l-104,-67l82,-638l-621,52l-411,-440l-358,-64l-204,-269l-650,1l-468,-589l-485,-283l-57,-503l-887,-561l-337,-577l-96,-399l-130,-106l125,-283l-111,-370l227,-118l99,-1l102,43l54,73l127,-27l78,50l97,-45l117,24l126,-24l65,68l-3,169l103,156l8,80l62,89l218,202l272,1l102,154l177,163l1,72l108,144l61,5l113,234l190,99l115,-18l34,105l60,-5l163,72l70,-44l154,122l50,79l-10,93l101,24l87,86l113,29l-19,137l30,96l82,142l85,43l88,-91l69,50l55,91l243,182l192,60l50,59l78,18l62,104l35,120l167,53l23,143l61,11l23,79l120,28l56,83l81,-6l28,192l81,-28l175,117l104,24l110,-42l15,70l98,-60l169,42l146,66l109,-28l0,-150l-173,-72l-11,-105l-88,5l-16,-149l115,-93l-28,-185l-42,-44l-71,65l-90,-131l-89,-14l-27,-135l98,-47l-32,-65l-72,-22l-169,-5l-54,-158l81,-13l86,-106l-43,-71l-113,20l-46,80l-72,-42l-68,19l33,107l-70,77l-70,-43l-25,-103l146,-123l6,-152l-29,-84l-100,-76l75,-163l26,-104l83,-99l74,-173l95,-91l119,-8l32,-93l61,-20l102,-256l42,-187l-65,-102l15,-89l-73,-52l37,-110l-19,-67l-142,-162l-81,-51l-171,119l-88,-68l-4,-98l-49,-98l-86,34l-129,-48l-22,-110l-88,-47l30,-115l0,-2470l71,138l118,80l156,190l52,110l127,89l134,-41l153,138l84,10l24,78l106,173l74,31l86,151l153,62l135,-14l137,88l134,125l50,91l8,94l127,194l126,92l152,66l28,99l135,91l72,90l3,60l167,148l5,63l155,173l140,77l-25,150l65,159l13,151l144,73l146,103l35,179l105,31l179,307l39,46l103,10l43,98l91,72l105,35l16,91l84,93l-1,90l292,173l22,158l74,107l8,68l121,1l-2,73l84,158l72,57l107,32l13,71l137,51l99,-56l37,104l78,10l81,-52h160l-3,71l61,49l84,-30l89,32l162,10l22,224l-1198,327l-490,344l-670,178l-590,239l143,82l38,106l159,125l-34,246l39,34l237,-43l32,41l20,140l58,79l119,-20l75,75l43,89l107,18l96,61l65,130l172,24l48,61l361,7l58,-142l156,13l87,-46l190,56l207,13l152,-47l39,-42l279,42l-3,53l142,59l96,204l92,1l24,-52l125,-35l138,105l79,131l222,-45l133,11l80,-52l93,45l45,116l119,-60l21,56l-130,29l1,122l102,-73l91,54l63,-52l18,174l79,-19l75,93l112,-34l29,161l73,102l-1,101l75,-21l45,115l-165,15l-29,82l101,37l63,-111l174,71l141,137l33,137l79,96l-163,106l-9,164l-92,53l-55,157l31,101l-56,89l11,92l-45,67l-114,43l-13,86l-225,572Z" /><path id="1200450" d="M-671247,-99699l344,126l-120,278l-828,2195l-38,85l11,91l122,-2l88,56l272,28l46,83l-1905,834l-80,-137l-59,-185l116,-167l20,-207l-115,-216l27,-165l-16,-91l30,-122l-186,-305l-101,-124l-16,-100l-51,-81l-392,-227l-123,-199l-181,-106l-34,-93l0,-248l39,-115l-88,-186l2,-102l-46,-79l-174,31l-139,-118l-103,-217l-5,-130l-35,-151l74,-103l-27,-146l-65,-18l-24,-146l-87,-74l-177,42l-68,-126l-186,-112l-78,-135l-204,-109l-294,211l-98,1l-176,-121l-87,-202l-94,-99l-152,-117l-680,-67l-262,-12l-94,17l-158,123l-246,80l-65,-42l40,-64l-36,-84l-73,-17l-3,-119l153,-166l-87,-72l81,-68l-50,-72l72,-113l0,-94l95,-50l-102,-116l78,-24l26,-104l164,-50l34,-127l-14,-60l45,-89l73,-19l68,-78l19,-110l88,-96l380,-203l107,-154l32,-97l64,-74l4,-192l45,-95l61,-39l119,-7l78,-53l98,11l131,-30l44,-42l14,189l107,69l-17,83l61,40l-19,112l116,48l0,115l137,-36l339,172l259,94l187,101l149,55l39,110l-8,117l48,92l129,93l25,80l90,82l83,153l37,137l122,88l67,92l41,177l70,150l26,198l-8,115l816,342l270,16l197,-22l323,209l162,134l672,326l193,110l405,147Z" /><path id="1200500" d="M-682199,-92428l-1345,609l-1490,674l-1438,651l-1550,1330l-1191,1021l-120,-165l-245,-116l-63,36l-72,-27l-91,-142l-91,-87l-216,-57l-116,-162l-145,-57l-63,30l-167,-57l-101,-4l-102,-93l-37,-258l-70,-42l-199,-211l-654,135l-242,-137l-226,-397l-103,-444l-225,-63l-935,-5l-375,-468l-451,-244l-263,-276l-647,-210l-353,-130l-293,7l-246,-303l-555,-271l-226,66l-794,-1092l-148,88l-127,-44l137,-462l-339,-439l-298,1l-73,-46l-60,-105l-70,-275l12,-309l-27,-236l-93,-210l-269,-374l-173,-170l-86,-144l39,-177l-187,-459l-263,-321l-53,-184l18,-499l-13,-72l-439,-497l-177,-335l66,-269l-114,-387l59,-210l-49,-377l-692,-1607l-35,-9l-209,-428l-162,-109l-100,-236l-247,-275l-246,-176l-153,-183l82,-197l-214,-302l-100,-308l-48,-216l26,-151l-37,-159l-959,1l-2685,4l-1,-849l-3,-1956l54,-7l282,82l63,-54l222,110l31,44l239,-83l-34,-122l45,-79l92,-36l47,35l147,-72l125,37l76,-38l99,67l79,93l102,-71l83,38l28,-85l75,50l95,-92l13,102l85,-42l103,-2l79,-72l159,28l77,-63l80,-13l3,154l207,57l32,42l177,-81l109,-6l22,123l149,-9l67,54l120,-116l12,118l59,-4l5,-107l84,-43l87,2l6,134l167,32l54,47l134,45l96,-89l64,51l57,-39l158,26l27,151l98,23l46,65l112,-55l17,62l123,32l22,58l130,17l-36,111l59,58l99,-90l79,68l67,-111l163,184l112,12l-29,157l55,29l96,-46l54,93l138,48l93,104l80,-27l102,137l95,-35l47,27l-27,94l53,31l114,-149l62,13l69,102l99,-5l185,92l71,158l87,-36l87,28l72,67l71,-50l9,-87l124,32l88,-62l113,187l101,29l74,-36l164,19l18,206l40,67l185,85l99,13l-75,185l58,74l73,-17l64,108l9,73l168,37l36,-47l208,153l148,-76l121,84l117,14l-41,70l95,50l116,-57l87,156l71,12l94,-48l134,63l70,76l66,17l99,87l-37,64l133,111h86l31,54l100,13l90,63l34,-64l147,-74l1,-34l133,-83l41,-114l100,-106l6,-121l-29,-206l64,-49l-6,-110l46,-167l250,-202l1661,197l-220,222l218,602l311,390l1385,774l516,176l835,1045l1522,1017l837,1006l1070,753l279,458l-264,906l-72,711l274,1192l393,442l256,107l66,-328l170,-12l701,-495l31,121l85,36l94,-12l53,33l33,94l177,155l132,-58l22,30l192,84l142,-51l50,51l-2,132l73,79l88,175l137,54l129,-16l143,71l45,87l87,69l57,108l59,243l-694,1164l208,144l106,43l28,56l147,16l28,61l138,13l189,-49l62,52l86,-4l170,76l120,96l56,80l126,29l81,-11l91,113l107,25l66,70Z" /><path id="1200609" d="M-714816,-88841l144,159l187,-61l67,49l174,-153l273,72l54,-114l100,57l53,-89l57,-14l122,108l88,23l63,110l126,19l75,-21l60,59l77,-1l63,53l83,125l111,37l53,-77l86,-5l166,47l67,-90l79,16l-14,92l91,35l89,197l147,92l76,-5l28,71l118,-84l-5,112l47,98l67,42l131,-101l133,148l118,42l139,79l99,8l235,85l95,-59l46,39l-90,91l197,19l38,115l121,68l49,59l122,25l46,93l148,5l49,54l-55,126l34,71l198,221l116,16l-40,183l204,2l-27,148l74,80l107,44l34,99l85,16l31,92l149,-31l51,-87l134,-154l57,-118l178,-2l59,-195l99,-98l215,237l525,62l162,292l255,17l154,394l385,465l-141,461l495,107l-231,285l-40,552l552,420l-86,297l464,778l97,95l78,10l41,131l-90,40l-55,85l138,265l75,39l23,118l-85,115l-130,326l35,89l-5,155l-35,134l5,176l88,65l-63,232l-126,198l-9,128l-98,7l-67,-37l-51,52l-217,72l-33,69l28,129l-84,69l6,112l82,39l-5,55l-98,72l-43,210l75,1l88,-67l110,31l27,58l-34,123l199,-2l-72,191l41,28l197,-11l40,171l95,28l-72,115l88,84l177,75l52,46l-7,124l88,57l188,46l37,60l-2200,254l-1414,163l-2119,244l-2932,340l-2640,306l-1467,171l-1530,178l-555,-1816l-488,-314l-54,-91l-63,3l-255,-136l-74,-111l-148,-174l-1,-34l-265,-283l-114,-22l-89,-127l-267,-93l-176,-150l-42,-78l-105,-56l-107,-454l-59,-64l-151,-91l-72,-142l-78,-90l40,-124l-86,-1891l407,-203l-404,-1100l344,-194l33,-1065l270,-351l-289,-450l162,-1039l700,-110l192,-1167l469,-396l-30,66l26,138l99,82l85,-17l99,46l161,139l66,103l248,144l139,17l33,108l171,81l38,-56l289,-28l111,-76l62,51l95,-111l109,-34l63,-91l59,36l142,-87l158,32l146,-73l58,-72l75,53l73,-35l57,44l199,42l-4,131l174,-22l136,93l-13,131l157,77l-59,114l100,48l61,-19l25,106l211,89l-26,62l177,102l77,-35l1,119l191,29l-90,86l11,84l239,-78l22,75l71,43l100,-16l18,96l190,-10l-93,105l93,47l62,75l73,-136l39,25l-43,115l72,56l166,54l77,-63l78,116l56,-60l18,-130l-7,-193l39,-34l5,-131l83,-43l7,-195l31,-98l-117,-51l-122,-119l-70,-16l-86,-175l16,-60l-102,-89l-75,-174l-100,-104l-101,-56l-19,-253l26,-122l647,75l147,-87l155,-145l198,44l210,-145Z" /><path id="1200708" d="M-680406,-103889l-92,58l-138,34l-57,-39l-192,151l-35,48l-100,-50l-149,12l-62,-72l-151,1l-101,42l-73,-27l-245,-38l-62,-56l-147,84l-94,-60l-92,-13l-91,-84l-65,30l-201,-35l-167,18l-60,-54l-26,-88l-143,-34l-40,-50l-149,-71l-137,91l27,154l-628,142l-26,61l357,155l37,257l-247,206l-403,44l34,59l-1,112l-39,126l43,89l-51,27l-162,6l-164,124l-47,170l2,205l108,232l-53,81l-168,-19l-65,-112l18,-188l-192,-130l-32,-210l-147,-95l-71,30l-134,-14l-19,-135l-238,-83l-102,69l-46,-59l-103,-49l-19,-107l-109,7l-46,-60l-71,3l-133,-72l-204,23l-105,-99l-99,-51l-58,-96l-123,3l-62,-31l-35,-77l35,-122l-45,-67l-74,26l-39,-57l-82,-22l-114,-214l-1995,-1h-2151l29,-143l-127,-256l17,-99l-71,-78l-108,-248l-108,-91l19,-130l37,-34l-19,-105l71,-92l237,-21l156,-103l116,-121l44,-171l139,-34l66,-84l13,-128l170,-113l120,59l171,1l75,-41l230,20l62,66l209,40l24,-70l287,38l235,5l179,-11l30,-39l-69,-91l3,-111l-70,-85l-93,-23l-10,-122l111,-114l-104,-193l-13,-83l-68,-112l-163,-11l33,-165l-40,-86l8,-103l-72,-62l3,-87l-102,-110l-108,-23l-34,-123l42,-173l297,-45l56,-26l121,16l66,-33l78,40l139,4l45,49l152,40l29,84l248,3l59,92l121,91l114,155l180,84l-18,126l-70,105l94,79l-11,139l135,13l88,49l143,-35l63,-42l92,16l57,122l52,-2l128,113l115,-17l92,121l90,45l153,-2l78,90l274,48l133,-12l-51,-68l-19,-282l381,-28l534,-590l194,-32l6,-78h-105l-25,-72l81,-63l-83,-236l-33,80l-72,-6l-61,-126l187,-237l104,-10l108,-98l151,-42l282,-269l73,55l126,146l243,-111l41,3l42,-128l183,-170l19,-86l-27,-165l68,-128l-86,-124l-87,-9l-38,-250l178,-248l25,-163l-9,-93l-49,-115l84,-68l-14,-286l29,-71l104,-38l-24,116l59,109l242,117l151,22l144,-84l103,125l144,85l175,35l102,-12l69,94l153,79l60,89l110,53l91,168l34,161l-22,38l137,163l82,28l29,92l-20,117l91,101l42,125l103,17l289,357l102,50l33,77l73,35l292,315l14,193l49,38l-82,110l4,241l107,64l61,103l125,136l99,-2l58,99l209,53l111,115l155,98l106,2l-66,136l-19,246l-56,77l258,55l41,56l-142,98l-13,51l-114,61l-53,76l7,115l-106,91l-55,161l42,88l-72,265l-50,65l-10,117l-207,472l98,44l-12,101l84,81l7,87l54,52Z" /><path id="1200807" d="M-679768,-93527l-114,-2l-95,-61l-159,49l-182,104l-135,-88l-57,-193l-37,-25l-47,-179l45,-46l-12,-155l154,-181l14,-67l130,-61l36,-120l43,-40l-15,-200l-80,-58l0,-65l-304,-199l-59,-78l-87,-41l-139,-214l-35,-131l1803,-1115l-117,-68l19,-86l-24,-88l100,-25l-18,-97l80,-62l215,-77l90,-9l34,-123l75,-80l76,141l31,-86l80,-9l-6,-75l187,-85l225,107l-42,-100l137,-105l-10,-85l28,-118l505,426l407,-477l-154,-182l111,-114l-29,-194l201,1l52,25l112,-79l12,-103l191,-112l188,9l94,65l126,-31l41,52l110,44l55,78l-32,118l36,63l90,-16l9,-119l132,-131l130,-40l129,39l77,-20l81,-73l46,-125l89,-135l12,-120l-50,-89l347,-204l139,118l174,-31l46,79l-2,102l88,186l-39,115l0,248l34,93l181,106l123,199l392,227l51,81l16,100l101,124l186,305l-30,122l16,91l-27,165l115,216l-20,207l-116,167l59,185l80,137l-5,2l-1909,314l-1340,607l-1146,518l-2113,957Z" /></g></svg>