<?xml version="1.0"?><svg xmlns="http://www.w3.org/2000/svg" version="1.2" baseProfile="tiny" width="1080" height="1080" viewBox="-64.8253 -5.2718 5.9384000000000015 6.852399999999999" stroke-linecap="round" stroke-linejoin="round"><g id="UF14MU" transform="scale(0.0001,-0.0001)"><path id="1400027" d="M-606064,34485l-60,97l-98,90l2,166l126,169l-92,37l-22,96l-114,159l-97,-16l-154,49l-105,63l-57,89l-78,-30l-160,186l-85,-31l-61,-82l-204,105l-48,92l-150,26l-79,-75l-87,-10l-76,78l-221,65l2,132l-140,10l49,86l14,113l-91,66l-81,-34l-104,111l-166,28l-106,70l-79,104l59,168l-64,83l-48,266l-95,131l-60,241l102,202l12,207l56,67l-9,135l25,71l-70,369l-70,47l-40,112l-95,72l16,60l-74,102l-49,168l-3,95l-76,81l-67,155l-104,67l39,135l33,215l-29,120l-138,166l-29,-12l-101,202l-136,39l11,62l-83,36l-119,-33l-72,69l-41,-40l-167,86l-95,-49l-100,-118l-124,-68l-20,-134l-93,-28l-227,79l-54,-15l-215,44l-256,80l-52,-20l-336,152l-237,143l-88,154l-218,51l-57,93l-54,22l-47,120l-74,39l66,102l56,217l-33,225l-110,81l-43,123l64,70l17,165l49,43l-20,106l-104,91l-6,133l-324,309l3,54l-102,36l-21,78l32,84l-40,83l-270,142l-61,-11l-116,140l-1523,-30l-78,-6l-108,-213l-72,-62l13,-72l-75,-25l-94,-119l-131,-95l3,-55l-72,-67l-117,-5l-39,-37l-133,-27l-103,55l-72,114l-133,-108l-59,36l-44,-128l-106,-30l-44,144l-100,44l-14,48l-153,-3l-72,-72l-228,5l-200,-103l-77,67l80,92l-8,91l-120,-61l-16,-64l-128,-16l-250,-86l114,-145l-45,-33l-172,-47l-22,72l-145,-31l12,-94l-53,-25l-22,-139l-117,-42l47,-97l-31,-208l-52,-42l-128,-33l-97,41l-47,98l-237,-39l34,-136l-150,-31l-114,67l-84,-36l-166,-9l-39,-352l-42,-50l3,-123l-158,95l-20,89l-158,211l-108,83l-59,108l-19,186l-103,-55l-72,-108l-61,5l-50,-86l-103,11l-45,-61l-155,50l-64,-58l-167,83l-119,-47l-47,-92l36,-86l69,-55l-75,-111l-105,47l-181,-92l-103,25l-2,-131l33,-163l-189,-9l-147,-80l-136,69l-3,45l-156,-3l-164,80l3,120l-353,22l-61,58l-83,-16l-50,86l-225,61l-92,-17l-122,117l-105,-47h-117l-36,41l-95,-64l-89,45l-55,80l-86,39l-31,145l-83,19l-36,-44l-117,39l-133,108l-78,-33l-81,58l-313,31l-156,-100l-94,50l-56,-114l125,-87l-69,-66l19,-86l-108,-36l-67,-84l-103,36l-39,70l-63,11l-98,-53l-16,-103l-214,95l94,-161l-42,-53l-161,-56l-102,-5l80,-111l-69,-45l-50,-150l161,-44l-20,-142l95,-122l-47,-42l-92,23l-89,-37l-67,-75l42,-183l-167,-8l-136,172l-133,39l-78,78l-186,-48l-181,70l-99,-45l-14,-55l-228,17l-89,-56l-317,25l-150,50l-164,-75l28,-97l-169,-103l-11,-150l44,-119l200,-134l-69,-61l-81,-203l-64,-58l-219,-106l39,-58l-48,-89l-14,-214l137,-136l69,-133l97,-56l47,-111l-186,-136l134,-128l91,-58l67,-92l142,-36l-42,-100l-86,-47l64,-147l-45,-86l23,-223l33,-66l-6,-184l37,-94l-48,-97l-25,-136l-55,-28l8,-89l-53,-22l-222,155l-53,89l-89,25l-58,189l-100,47l-94,95h-128l-95,58l-58,-25l-164,-258l-178,-111l-144,-156l-192,-114l-114,17l-41,-83l0,-103l-148,-272l-161,-162l-89,-41l-50,33l-197,-11l-172,147l-75,147l-61,73l-100,36l-56,155l-244,114l-28,39l-133,45l-84,77l125,45l53,72l0,289l45,67l-17,113l-78,6l-155,175l-28,86l-164,147l-200,114l-125,-22l-97,31h-228l-114,75l-161,22l-86,-36l-81,63l-25,70l-116,106l-6,91l-50,61l6,167l-20,142l61,66l56,161l86,181l8,92l73,172l-181,39l-247,19l-61,70l-92,-3l-136,-58l-97,172l-59,-23l-58,62l-128,52l-53,-194l-83,14l-139,-70l-228,59l-138,66l-181,111l-203,-52l-153,19l-83,-97l-150,-119l128,-70l-33,-89l97,-53l130,12l-5,-117l86,-120l-61,-108l-114,-78l-86,-114l36,-36l-3,-133l-161,-64l-108,39l-192,108l-106,3l-77,-36l-3,-125l44,-70l-161,-33l-125,89l-114,25l-33,58l-136,6l-33,94l5,167l-169,-78l-95,31l-108,-8l72,102l-86,98l53,119l-42,108l-167,161l-86,153l-169,150l-97,47l-53,178l-114,128l-150,53l-97,-61l-36,-84l30,-86l-103,-258l14,-97l-55,-123l72,-83l108,-3l81,-136l-22,-89l-61,-58l-142,58l-142,-8l-30,-86l-137,114h-111l-44,69l19,106l-155,78l-92,-48l-317,-11l-258,64l-116,-11l-56,67l-94,33l-42,-53l-78,22l-94,-97l-195,-66l-114,30l-119,-75h-117l-111,-111l-8,-136l-89,-17l-3,-75l-55,-55l-67,8l-20,-175l-72,86l-103,220l-100,-31l-83,61l-47,295l-338,13l-4,98l-116,55l-37,47l-244,453l-156,214l-58,42l-28,94l53,81l-17,108l-125,320l-61,83l-183,122l-142,42l-119,89l-50,72l-75,25l-189,-122l-281,-11l-133,83l-186,58l-133,-41l-50,25l-73,158h-133l-97,-95l-70,-30l-291,-22l-509,80l-175,-50l-277,25l-106,-39l-103,-75l-139,-44l-339,-61l-30,-23l-178,59l-233,-25l-67,-25l-94,-97l-325,125l-161,125l-145,83l-75,86l-100,217l-136,391l-39,73l-261,277l-150,109l-250,97l-261,142l-297,125l-131,2l-61,-27l-91,-125l-89,-64l-39,-67l-37,-197l34,-156l0,-114l114,-372l66,-75l203,-144l303,-159l211,-166l92,-153l144,-383l247,-264l31,-239l56,-39l13,-78l232,-127l167,-169l95,-185l98,-99l120,-37l224,-146l119,-465l103,-133l107,-95l229,-171l154,-269l202,-245l103,-73l195,-19l152,25l153,-39l195,-142l125,-33l318,-152l70,-59l217,-106l50,-77l420,-234l80,-303l53,-80l180,-136l109,-200l369,-331l137,-157l88,-235l31,-661l247,-104l186,-54l161,39l175,-19l164,66l186,-14l98,-52l200,-162l80,9l70,-78l138,-39l42,-83l92,-67l141,-3l37,28l138,-17l31,67l94,64l273,-58l283,-211l133,-14l14,66l150,28l-16,70l130,97l75,22l44,69l56,189l117,223l86,236l103,36l55,169l36,14l120,-111l44,150l153,58l33,92l125,28l142,72l22,53l-39,100l78,291l128,359l47,91l11,128l-25,72l75,70l-19,117l125,83l28,69l66,31l136,-17l267,106l119,150l59,19l225,-50l164,20l241,-109l20,-111l-59,-100l92,-111l72,-39l56,-89l128,6l102,-28l187,61l38,-86l187,-114l191,-41h111l86,-153l164,-95l123,-105l255,-120l150,14l133,-30l139,108l103,-150l-53,-56l3,-158l111,-50l131,-89l178,67l66,89l109,44l125,159l-37,47l-16,128l61,91l14,117l-39,205l0,123l47,63l103,-11l122,-69l239,19l42,-58l130,47l95,9l44,-59l83,-25l56,-158l-22,-114l130,-89l142,-144l25,-170l-72,-119l16,-75l-86,-211l9,-156l-95,-89l17,-172l103,-150l119,-89l81,-180l-45,-25l197,-136l128,-9l28,-78l97,-141l347,-170l34,-86l100,28l261,-244l69,-109l-16,-50l130,-119l6,-139l100,-94l130,5l120,-25l128,-228l180,-80l117,14l136,-50l172,-145l242,-92l175,-133l122,-17l97,-47l61,-105l109,-75l111,16l141,-97l228,-14l117,39l247,-22l247,-97l139,-84l72,-8l164,89l223,83l63,-30l100,144l62,-86l72,39l89,-22l55,-59l103,-36l81,9l208,-39l125,41l139,-52l189,-123l55,-5l181,-84l261,-41l58,-128l117,-39l17,-114l64,-153l-39,-69l52,-200l153,-81l153,50l64,-36l186,67l39,81l128,-6l155,111l95,42l94,-36l186,27l120,-88l52,27l106,-16l64,55l158,-39l25,-61l203,-47l83,72l-16,75l100,81l52,-20l136,48l25,72l103,53l17,86l144,27l48,73l139,61l22,72l133,64l108,86l95,122l47,-11l331,125l205,56l114,119h128l308,-144l89,-6l92,70l291,58l136,-95l67,120l64,33l36,117l70,97l89,-80l133,100l111,-17l58,25l59,-92l164,-58l27,-81l153,-47l83,64l42,122l-11,89l42,97l91,17l-25,67l95,136l236,75l241,-25l148,-75l286,-3l119,22l73,64l-6,67l169,-67l50,-78l112,25l125,67l413,256l-2,-59l80,-89l31,-102l161,-189l253,8l58,-25l156,31l91,-106l61,-6l36,87l128,-34l122,72l17,75l111,131l122,64l67,-39l197,108l503,20l250,147l186,-42l128,-69l192,55l136,-25l75,123l103,66l75,86l119,53l117,106l283,394l64,53l142,47l180,14l131,-22l128,39l213,-31l178,-147l164,11l258,-5l86,25h184l130,38l109,-30l272,8l150,83l88,43l53,82l111,40l86,71l85,15l92,62l186,8l115,-138l109,-26l152,133l219,54l208,-47l176,63l187,-9l128,19l128,107l193,38l258,-11l89,-73l68,-98l184,-67l131,-11l129,-98l164,-92l124,-178l76,-38l200,-57l70,-52l70,-117l78,-71l37,74l11,193l-64,187Z" /><path id="1400050" d="M-610005,34479l-150,-83l-272,-8l-109,30l-130,-38h-184l-86,-25l-258,5l-164,-11l-178,147l-213,31l-128,-39l-131,22l-180,-14l-142,-47l-64,-53l-283,-394l-117,-106l-119,-53l-75,-86l-103,-66l-75,-123l-136,25l-192,-55l-128,69l-186,42l-250,-147l-503,-20l-197,-108l-67,39l-122,-64l-111,-131l-17,-75l-122,-72l-128,34l-36,-87l-61,6l-91,106l-156,-31l-58,25l-253,-8l-161,189l-31,102l-80,89l2,59l-413,-256l-125,-67l-112,-25l-50,78l-169,67l6,-67l-73,-64l-119,-22l-286,3l-148,75l-241,25l-236,-75l-95,-136l25,-67l-91,-17l-42,-97l11,-89l-42,-122l-83,-64l-153,47l-27,81l-164,58l-59,92l-58,-25l-111,17l-133,-100l-89,80l-70,-97l-36,-117l-64,-33l-67,-120l-136,95l-291,-58l-92,-70l-89,6l-308,144h-128l-114,-119l-205,-56l-331,-125l-47,11l-95,-122l-108,-86l-133,-64l-22,-72l-139,-61l-48,-73l-144,-27l-17,-86l-103,-53l-25,-72l-136,-48l-52,20l-100,-81l16,-75l-83,-72l-203,47l-25,61l-158,39l-64,-55l-106,16l-52,-27l-120,88l-186,-27l-94,36l-95,-42l-155,-111l-128,6l-39,-81l-186,-67l-64,36l-153,-50l-153,81l-52,200l39,69l-64,153l-17,114l-117,39l-58,128l-261,41l-181,84l-55,5l-189,123l-139,52l-125,-41l-208,39l-81,-9l-103,36l-55,59l-89,22l-72,-39l-62,86l-100,-144l-63,30l-223,-83l-164,-89l-72,8l-139,84l-247,97l-247,22l-117,-39l-228,14l-141,97l-111,-16l-109,75l-61,105l-97,47l-122,17l-175,133l-242,92l-172,145l-136,50l-117,-14l-180,80l-128,228l-120,25l-130,-5l-100,94l-6,139l-130,119l16,50l-69,109l-261,244l-100,-28l-34,86l-347,170l-97,141l-28,78l-128,9l-197,136l45,25l-81,180l-119,89l-103,150l-17,172l95,89l-9,156l86,211l-16,75l72,119l-25,170l-142,144l-130,89l22,114l-56,158l-83,25l-44,59l-95,-9l-130,-47l-42,58l-239,-19l-122,69l-103,11l-47,-63l0,-123l39,-205l-14,-117l-61,-91l16,-128l37,-47l-125,-159l-109,-44l-66,-89l-178,-67l-131,89l-111,50l-3,158l53,56l-103,150l-139,-108l-133,30l-150,-14l-255,120l-123,105l-164,95l-86,153h-111l-191,41l-187,114l-38,86l-187,-61l-102,28l-128,-6l-56,89l-72,39l-92,111l59,100l-20,111l-241,109l-164,-20l-225,50l-59,-19l-119,-150l-267,-106l-136,17l-66,-31l-28,-69l-125,-83l19,-117l-75,-70l25,-72l-11,-128l-47,-91l-128,-359l-78,-291l39,-100l-22,-53l-142,-72l-125,-28l-33,-92l-153,-58l-44,-150l-120,111l-36,-14l-55,-169l-103,-36l-86,-236l-117,-223l-56,-189l-44,-69l-75,-22l-130,-97l16,-70l-150,-28l-14,-66l-133,14l-283,211l-273,58l-94,-64l-31,-67l-138,17l-37,-28l-141,3l-92,67l-42,83l-138,39l-70,78l-80,-9l-200,162l-98,52l-186,14l-164,-66l-175,19l-161,-39l-186,54l-247,104l231,-243l127,-251l7,-361l80,-191l-72,-134l67,-65l74,-10l-34,-128l108,-123l106,-38l-36,-157l29,-45l-31,-160l-52,-68l58,-52l-35,-80l-171,-114l-113,-121l-4,-60l-81,-55l46,-158l-48,-212l-90,-23l-87,-249l-49,-90l-116,-114l-74,55l-106,-104l-93,-31l-56,-189l98,-307l22,-110l57,-83l90,-6l136,-138l110,-58l-45,-71l43,-43l169,-41l17,-65l81,-36l35,-107l-25,-151l-138,-234l161,-13l53,47l75,-37l131,-13l67,-156l52,-36l-9,-124l69,-19l74,-122l-9,-48l101,-38l113,-84l26,-54l-71,-116l63,-30l14,-122l-82,-108l19,-96l83,-6l153,-141l56,-154l57,-86l68,-9l198,-185l-34,-171l39,-92l-20,-83l122,-43l70,-70l-88,-131l77,-178l67,3l79,-82l-36,-119l-96,-48l-103,-13l90,-182l94,-15l18,-60l-41,-133l47,-218l-109,-163l-106,-46l-33,-95l9,-136l-186,-190l14,-84l-69,-18l-84,46l-62,-127l42,-138l-23,-48l11,-156l-19,-148l-66,-15l-74,-125l55,-80l132,-4l38,-110l49,4l113,-206l151,159l78,-17l177,-121l58,-19l165,81l23,-27l547,240l628,281l36,9l631,284l466,197l178,86l211,81l182,92l57,110l149,117l56,15l171,-162l57,-30l101,-119l98,-19l289,30l96,-74l78,35l308,-152l120,74l69,79l98,32l101,158l82,31l37,80l-24,170l-39,13l-32,212l51,6l111,100l2,129l-53,56l49,72l-72,111l45,137l54,35l48,144l-63,36l0,77l60,35l-15,102l99,44l70,130l50,13l72,-62l68,38l134,-92l234,-116l191,57l55,-39l81,158l47,-11l168,45l29,-28l137,20l199,-15l182,139l60,122l68,43l83,-8l142,128l211,-7l9,-56l276,30l29,32l248,-200l100,-11l126,-55l120,24l72,-59l85,38l24,-59l149,53l176,-47l110,-59l105,118l131,35l112,1l84,-68l110,126l67,-53l95,-20l87,28l71,-18l121,-189l148,-44l50,27l203,-140l197,10l57,-23l250,26l123,-101l93,201l150,-66l44,-114l150,-36l210,-197l7,-74l97,2l295,63l117,-98l120,27l134,-88h87l121,-120l46,-88l111,69l16,55l129,-36l58,39l68,-28l74,80l127,-6l44,93l169,65l50,105l169,3l96,-76l377,73l287,79l128,92l56,2l65,71l143,87l92,-26l96,16l195,75l44,50l73,-67l157,31l127,49l125,-17l188,-65l151,9l100,-33l34,32l105,-62l208,-59l226,-46l133,25l76,-40l135,10l224,-35l143,7l109,92l100,-26l61,-144l55,17l208,-14h300l58,-36l134,25l237,5l129,-14l54,-55l118,-25l53,-41l176,-1l85,-42l184,17l64,31l112,-106l12,-56l172,7l55,-64l-35,-83l4,-98l42,-52l110,-2l167,-49l69,54l54,145l131,6l69,-127l125,28l83,-45l93,73l68,-38l31,-80l140,-14l258,133l110,-74l59,93l121,60l96,-6l195,156l193,-81l166,27l58,37l7,170l-29,69l-118,2l60,223l64,38l103,159l131,16l45,48l121,16l-28,122l-69,-49l-153,91l-5,78l67,81l59,122l45,152l142,183l135,107l153,176l170,117l162,230l73,-12l149,75l162,36l99,49l139,-72l67,-93l105,-64l-5,-64l55,-81l78,3l14,-78l111,-78l97,-11l167,-80l101,50l67,-42l63,50l100,-59l101,87l40,-20l28,-161l114,-89l69,11l84,-55l141,-25l198,-167l61,-69l97,6l0,-112l-86,-114l100,-50l100,-191l25,-209l91,-33l31,-97l86,36l53,-142l53,-25l-3,-164l122,-27l8,-92l164,-128l-58,-92l4,-62l86,-149l12,-140l73,4l69,104l70,16l172,-42l106,-153l47,-16l150,58l94,128l-1,130l229,-18l69,-32l155,100l195,98l118,37l88,151l5,-164l191,-52l62,5l76,139l149,-58l54,-117l127,-26l92,-46l38,-69l126,-12l27,161l82,36l63,-130l117,24l69,-31l-1,2418l0,2840l1,2404Z" /><path id="1400100" d="M-604102,35802l-216,49l-44,-76l-66,41l-78,-15l-32,100l-103,29l-22,71l-95,59l-76,-3l-16,-118l-71,-126l-162,-84l-49,-55l-34,-114l23,-132l-139,115l-69,-154l-29,-130l-150,-73l-11,-114l75,-57l-39,-180l-36,-55l-109,20l-127,-10l-13,-92l-196,-126l-78,-87l64,-187l-11,-193l-37,-74l-78,71l-70,117l-70,52l-200,57l-76,38l-124,178l-164,92l-129,98l-131,11l-184,67l-68,98l-89,73l-258,11l-193,-38l-128,-107l-128,-19l-187,9l-176,-63l-208,47l-219,-54l-152,-133l-109,26l-115,138l-186,-8l-92,-62l-85,-15l-86,-71l-111,-40l-53,-82l-88,-43l-1,-2404l0,-2840l1,-2418l155,-82l39,-67l109,-11l125,-205l111,67l64,-20l205,-181l47,-119l25,-233l-8,-122l-42,-206l-80,14l-14,-136l-175,-303l233,-20l275,-116l0,-142l-189,-178l34,-102l67,89l102,13l222,-136l123,-136l8,-53l-78,-91l139,-56l142,92l86,178l0,211l58,425l3,147l-25,131l147,316l170,275l77,147l98,228l64,92l233,236l158,214l95,103l202,141l53,61l103,234l19,83l84,167l19,186l72,150l156,247l164,111l244,78l403,311l183,181l89,122l150,311l217,269l42,86l30,200l134,209l97,78l214,114l89,127l39,197l221,269l206,393l134,164l80,61l14,77l-75,64l-42,92l23,164l-23,111l-80,100l-147,314l-28,139l53,202l102,112l367,91l111,56l50,72l-22,139l47,106l125,122l70,100l-34,119l-11,150l36,172l34,48l163,61l53,72l-25,67l139,116l-33,145l-128,125l25,100l-89,47l-11,125l-50,55l-81,-22l-75,78l89,81l-27,86l-148,144l-133,56l-69,-98l-139,62l-89,94l47,67l-139,44l-50,42l-128,-42l-16,117Z" /><path id="1400159" d="M-598727,35638h-131l-67,114l-130,111l-175,-78l-131,-192l-75,12l-50,94l-97,28l-139,-145l-122,-44l-154,-11l-160,-95l-116,-33l-95,-122l-155,-6l-170,-180l-86,-61l-53,-95l-144,-80l-81,-12l-142,-77l-97,-103l-97,-53l-167,17l-111,-120l-103,-72l-83,-264l-114,-102l-297,-64l-155,-67l-217,-11l-311,-56l-198,-111l-63,-69l-70,-100l-125,-122l-47,-106l22,-139l-50,-72l-111,-56l-367,-91l-102,-112l-53,-202l28,-139l147,-314l80,-100l23,-111l-23,-164l42,-92l75,-64l-14,-77l-80,-61l-134,-164l-206,-393l-221,-269l-39,-197l-89,-127l-214,-114l-97,-78l-134,-209l-30,-200l-42,-86l-217,-269l-150,-311l-89,-122l-183,-181l67,-71l13,-126l33,-56l185,-101l135,-33l141,-85l259,-30l224,-117l151,19l267,-166l159,-35l88,21l158,-54l39,-39l192,-49l14,-72l112,-73l6,-66l67,-124l56,13l12,-119l-113,-95l-63,-182l6,-187l-95,-138l-187,-76l-113,-160l-70,-58l-26,-94l-138,-73l124,-46l118,-5l92,59l101,-25l107,45l143,-32l295,48l28,-84l102,-29l89,-66l312,-274l68,46l96,-49l74,11l137,-86l-63,-189l49,-130l144,-97l51,-84l85,-33l-56,-114l31,-58l-38,-145l26,-40l-20,-167l45,-40l15,-157l-19,-138l20,-79l-67,-111l38,-120l12,-135l-29,-100l50,-91l130,-34l47,-66l-24,-68l40,-123l74,-51l-19,-141l-73,9l-208,-397l-117,22l38,-96l24,-281l-32,-149l28,-105l68,-42l33,85l83,-16l40,-81l96,37l62,-23l50,-156l-27,-374l136,24l-3,-102l-51,-64l-27,-125l-198,-142l-232,81l-176,-23l-267,-426l-91,-71l-82,-180l-81,-112l-150,-64l-62,-79l276,-145l58,-130l60,-47l188,161l183,89l110,3l68,-54l93,19l129,-36l95,-67l55,-101l-7,-171l41,-100l2268,1l1954,-1l29,82l-22,106l78,14l50,80l-88,25l-26,154l-87,172l-3,84l48,176l147,146l0,129l-37,145l-81,128l-55,26l13,106l-40,52l46,124l-31,55l129,231l9,66l-46,157l15,77l88,35l-6,125l-75,172l57,97l-172,169l-198,-32l-96,57l-101,-95l-83,21l-162,107l-4,69l-192,125l-82,108l-64,-82l-53,88l-90,11l-37,95l-126,96l-58,107l-62,-75l-177,100l5,62l-62,64l-46,135l17,75l69,34l49,114l-34,89l76,61l-95,113l63,155l5,106l-54,64l20,122l-147,126l-6,77l-71,47l14,165l-79,148l-69,61l-48,105l84,114l-124,175l-207,83l-63,-8l-33,73l52,96l82,-6l-103,209l-76,104l53,187l-74,161l-93,58l-35,82l27,73l-26,127l21,94l-33,165l50,106l-1,83l-44,140l-10,193l64,168l-44,294l2,87l63,106l-23,111l49,73l-73,116l114,137l0,76l-82,53l35,109l-14,97l165,184l67,39l-33,93l67,216l109,197l-149,136l31,140l65,106l14,151l-60,204l7,57l183,82l-10,106l93,103l216,31l-13,118l-81,5l-22,65l39,69l-50,98l170,3l28,101l-75,143l-40,220l40,164l95,47l113,-2l110,61l20,59l-106,82l56,86l-20,127l115,206l105,-6l74,176l-13,66l115,64l0,111l54,14l91,121l-66,199l111,33l126,-46l39,22l21,159l-66,88l-28,135l-71,186l1,66l95,62l-26,66l-146,-68l-130,19l8,167l107,121l62,174l118,49l-8,91l98,54l-23,190l-105,95l-95,47l-88,-11l-105,204l10,102l-254,55l-38,48Z" /><path id="1400175" d="M-601566,19996l-41,100l7,171l-55,101l-95,67l-129,36l-93,-19l-68,54l-110,-3l-183,-89l-188,-161l-60,47l-58,130l-276,145l62,79l150,64l81,112l82,180l91,71l267,426l176,23l232,-81l198,142l27,125l51,64l3,102l-136,-24l27,374l-50,156l-62,23l-96,-37l-40,81l-83,16l-33,-85l-68,42l-28,105l32,149l-24,281l-38,96l117,-22l208,397l73,-9l19,141l-74,51l-40,123l24,68l-47,66l-130,34l-50,91l29,100l-12,135l-38,120l67,111l-20,79l19,138l-15,157l-45,40l20,167l-26,40l38,145l-31,58l56,114l-85,33l-51,84l-144,97l-49,130l63,189l-137,86l-74,-11l-96,49l-68,-46l-312,274l-89,66l-102,29l-28,84l-295,-48l-143,32l-107,-45l-101,25l-92,-59l-118,5l-124,46l138,73l26,94l70,58l113,160l187,76l95,138l-6,187l63,182l113,95l-12,119l-56,-13l-67,124l-6,66l-112,73l-14,72l-192,49l-39,39l-158,54l-88,-21l-159,35l-267,166l-151,-19l-224,117l-259,30l-141,85l-135,33l-185,101l-33,56l-13,126l-67,71l-403,-311l-244,-78l-164,-111l-156,-247l-72,-150l-19,-186l-84,-167l-19,-83l-103,-234l-53,-61l-202,-141l-95,-103l-158,-214l-233,-236l-64,-92l-98,-228l-77,-147l-170,-275l-147,-316l25,-131l-3,-147l-58,-425l0,-211l-86,-178l3,-175l-70,-103l-36,-114l-5,-169l86,-75l30,-123l-6,-102l-94,-381l-78,-89l-166,-108l-206,-100l-47,-86l-92,-297l-50,-99l-286,-203l-188,-210l-228,-195l-227,-170l-133,-128l-253,-453l-69,-164l-49,-204l15,-120l62,-151l79,-107l49,-169l104,-86l16,-181l60,-82l165,-153l125,-54l74,-68l102,111l129,77l161,19l96,170l154,15l153,-55l252,50l24,-29l124,30l278,-13l157,87l103,30l66,-26l94,68l464,3l1,-57l-60,-164l-121,-197l0,-221l103,-298l105,-85l150,-7l176,56l400,-64l122,20l162,-275l132,-66l85,4l71,-49l135,-36l65,-44l123,-177l17,-82l-32,-148l39,-200l60,-98l91,-50l125,-148l21,-87l-97,-152l-87,-46l-38,-79l-98,-31l-29,-144l159,55l274,-38l92,143l183,-75l184,-51l-15,92l69,97l132,35l73,-14l266,92l330,59l49,-67l107,-18l60,95l52,-7l25,122l82,23l98,150l112,20l80,82l63,21l3,76l79,38l82,118l73,50l70,107l219,101l49,100l189,187l264,174l66,79l33,144l88,27l140,138l-6,39l145,117l173,205l-10,82l53,118l-8,57l60,153Z" /><path id="1400209" d="M-610221,19996l-314,-48h-147l-189,-52l-115,-52l-692,-84l-126,10l-199,-52l-315,-11l-241,21l-262,42l-378,116l-126,52l-336,31l-35,44l-131,49l-321,194l-176,-48l-162,-110l-203,3l-101,30l-121,-26l-206,-127l-224,-89l-99,-127l-93,-80l-136,-61l-166,-7l-53,-25l-40,-106l-223,-99l-243,29l-193,-15l-235,2l-99,-17l-320,-10l-289,36l-91,85l-201,-29l-191,-103l-63,19l-82,-59l-110,32l-242,13l-230,-26l-216,-114l-99,11l-263,-93l-266,-4l-128,-95l-430,-172l-243,-48l-97,-70l-144,-43l-175,-83l-307,-200l-321,-122l-151,-107l-226,-90l-620,-356l-206,-60l-103,-84l-122,-26l-209,-118l-537,-322l-240,-208l-145,-97l-396,-205l-270,-152l-122,-31l-121,-100l-391,-147l-144,-123l-151,-30l-167,-74l-64,-63l-136,-47l-185,-114l-157,-117l-201,-106l-218,-178l-245,-36l-407,-21l55,-300l100,-111l222,-131l217,-208l203,-61l166,-103l45,-64l83,-200l69,-80l-2,-411l97,-101l11,-94l75,-174l47,-356l106,-347l103,-281l175,-397l61,-212l25,-221l53,-236l155,-320l86,-50l231,3l131,35l133,-13l-17,-192l-50,-105l-8,-87l47,-77l-33,-123l30,-116l103,-139l28,-75l116,-111l42,-70l31,-183l-109,-239l-136,-108l-39,-67l-61,-219l-75,-192l-14,-180l50,-153l150,-136l34,-86l41,-208l9,-145l-53,-83l-158,-112l-217,-178l-206,-266l-122,-200l-50,-261l53,-267l53,-191l11,-123l78,-233l5,-100l-30,-86l-26,-194l-38,-92l-53,-378l100,-232l24,-321l19,-98l93,-32l105,44l137,92l175,-281l91,-83l25,-75l0,-178l97,-133l-66,-56l11,-83l-92,-125l-58,-197l83,-195l-61,-291l-36,-86l17,-78l122,-244l17,-362l141,-125l100,-214l9,-127l36,-75l-3,-181l-37,-71l50,-120l13,-183l125,-227l234,-147l162,-26l198,-226l39,-10l94,-126l40,-178l67,-67l32,-120l-28,-64l45,-141l16,-213l-91,-11l29,-79l110,-33l-70,-85l97,-72l-66,-37l-13,-79l110,-68l27,-93l89,-46l77,-161l72,-44l45,-123l166,-119l196,-88l-5,-121l-47,-81l31,-154l-93,-68l27,-62l-18,-123l35,-62l-24,-88l105,4l-50,-154l-79,-86l42,-146l64,-59l-53,-58l80,-52l117,-131l91,89l163,-114l144,-52l14,-55l-71,-68l13,-77l-37,-206l-110,-34l62,-204l-125,-5l-35,-169l-153,-204l-70,36l-50,-117l-91,-68l-77,45l-77,-116l-95,48l-16,-90l69,-130l64,-45l-90,-58l-85,24l-43,-125l36,-89l-93,-45l19,-62l-145,-44l-15,-67l78,-112l-81,-43l-9,-120l-59,-95l92,-76l-24,-133l-33,-32l135,-116l82,-110l-10,-91l-81,-1l-21,-72l113,-56l38,-119l-39,-118l-79,-29l-95,-106l-97,-3l-40,52l-84,-54l-6,-78l-75,-34l-70,38l-64,-78l-168,62l-42,-125l51,-148l82,-17l23,-62l-184,-59l1,63l-180,-69l-6,-87l-170,47l-21,99l-128,56l-13,76l-90,-8l-91,46l-104,-31l-64,39l-102,-49l-144,86l-64,-61l-25,-164l-128,-102l22,-167l73,-31l38,-166l-152,-84l58,-66l33,-159l53,-55l150,-81l153,61l39,-127l83,-23l50,-61l56,81l94,-20l50,-83l78,-3l247,-78l17,-86l180,-75l-44,-72l69,-50l36,-105l-63,-70l97,-30l16,-81l84,22l164,-291l116,-114l114,14l45,-162l144,-105l45,-72l77,41l139,-80l131,-239l180,3l136,22l139,-103l97,8l39,-175l281,-55l36,-83l133,-120l95,-22l25,-89h175l58,-67l84,-164l-70,-161l36,-69l92,-31l58,-102l117,-34l164,25l94,-22l225,-186l222,-233l173,-350l108,-250l14,-150l211,-262l100,-230l69,-311l45,-78l180,-158l117,-161l89,-195l14,-233l89,-159l272,-63l295,6l-142,127l-106,203l-44,119l-34,258l25,81l162,336l138,233l9,70l-53,150l-11,267l-45,180l-136,345l-150,258l-22,208l58,189l131,175l39,167l-8,72l-92,144l-156,342l-61,84l18,130l141,361l41,195l-25,133l-117,247l17,158l72,175l200,200l70,187l-17,280l-89,186l-39,136l-2,100l-45,175l-5,100l161,378l150,220l180,352l84,206l11,133l-22,275l-20,81l-102,199l-15,137l62,217l166,300l20,86l-14,158l-39,86l-176,179l-124,168l-92,178l-16,256l113,255l50,200l-64,314l-16,145l36,261l161,447l89,339l17,214l36,105l83,136l50,150l-5,153l-178,267l-45,97l-25,164l31,111l78,108l25,162l102,213l123,181l64,193l38,390l-63,481l-14,222l47,411l0,147l25,198l58,230l58,433l115,231l161,275l63,266l136,489l176,314l100,225l80,73l256,186l175,311l116,319l39,231l70,117l172,149l114,164l111,214l111,134l218,165l104,101l267,175l94,142l220,272l153,206l169,341l78,223l47,280l336,414l150,142l64,119l28,167l208,255l95,45l119,91l69,20l106,-97l183,-70l231,-36l25,-78l67,-5l55,55l83,189l95,100l142,-14l25,-66l100,-100l61,-125l25,-120l83,-100l19,111l137,20l11,-75l133,22l50,-86l-19,-75l66,-42l36,120l59,36l122,-78l80,133l-80,73l133,27l42,89l-42,64l84,81l175,69l-25,97l102,84l134,-61l47,47l-53,78l42,158l172,80l-25,148l106,75l-42,100l28,94l69,-33h108l17,164l81,-25l8,-136l106,44l66,-53l114,84l108,-73l115,39l141,-91l56,-75l169,16l122,197l9,75l55,81l-5,92l83,75l128,47l102,-64l64,-89l164,-122l98,-125l27,-150l72,-64l120,-47l22,-159l-30,-88l50,-87l-9,-125l-61,-119l31,-92l153,-189l86,-11l166,-186l-8,-91l53,-87l125,-52l47,39l236,-61l44,11l34,-134l-64,-86l14,-294l72,-17l56,-133l50,-9l191,100l123,-36l66,128l67,-75l80,131l61,-12l42,123l150,-70l45,45l116,-34l147,128l78,103l134,122l108,6l117,61l69,161l92,147l61,28l-25,125l78,78l111,-73l89,45l33,136l-17,144l67,153l75,61l144,50l28,145l170,133l-6,103l131,-3l-23,103l123,97l111,50l77,-80l76,47l-34,130l184,145l155,25l81,53l139,-42l50,-53l58,72l97,-39l103,23l139,69l41,-103l131,50l56,-77l-50,-73l83,-66l147,161l98,-35l144,-65l108,16l39,67l233,-8l239,-84l353,-97l125,-61l111,-19l89,-73l78,75l247,-25l289,92l225,120l114,30h116l34,-75l97,64l60,-13l146,130l75,39l66,188l-14,70l84,128l105,-28l-5,78l183,55l64,56l144,-22l28,77l128,28l64,-55l86,44l61,97l81,-233l105,19l75,98l83,33l1,97l63,33l-5,92l111,314l108,-28l78,14l-17,81l64,25l153,-3l61,108l-75,78l50,200l0,147l-97,50l8,153l109,181l-6,58l83,36l-22,219l-61,56l11,81l-72,69l-53,111l-3,108l-255,206l-20,111l42,111l-39,28l17,133l141,195l-108,155l14,78l106,-30l52,50l42,161l94,83l162,47l13,139l-94,95l108,194l139,25l270,-8l44,25l108,-61l134,88l161,39l83,78l109,-33l-42,-81l69,-55l92,-6l175,167l164,22l22,-56l197,-122h81l239,-83l236,-28l42,-42l133,-33l128,6l127,55l137,-50l72,-122l69,-67l-8,-127l103,-14l16,-67l70,-56l350,59l-103,41l-81,106l39,200l-105,75l-103,256l-172,-17l-178,89l-119,186l-14,89l30,194l-50,36l-86,-77l-58,88l-136,131l-11,131l-70,44l8,75l-55,61l-61,-11l-53,69l-78,-30l-83,105l-175,-36l-25,-50l-214,-47l-94,-72l-125,128l-31,130l-164,-3l-44,23l-92,-61l-33,177l-148,-5l-91,22l-14,56l64,122l-34,44l98,286l114,53l69,-17l61,62l-39,58l81,175l-25,97l-111,158l-53,-72l39,-80l-86,-106l-181,136l-214,3l-122,-50l-206,31l-75,125l64,155l-122,206l53,116l-8,114l91,53l-3,122l81,145l-21,149l50,154l7,138l-1954,1l-2268,-1l-60,-153l8,-57l-53,-118l10,-82l-173,-205l-145,-117l6,-39l-140,-138l-88,-27l-33,-144l-66,-79l-264,-174l-189,-187l-49,-100l-219,-101l-70,-107l-73,-50l-82,-118l-79,-38l-3,-76l-63,-21l-80,-82l-112,-20l-98,-150l-82,-23l-25,-122l-52,7l-60,-95l-107,18l-49,67l-330,-59l-266,-92l-73,14l-132,-35l-69,-97l15,-92l-184,51l-183,75l-92,-143l-274,38l-159,-55l29,144l98,31l38,79l87,46l97,152l-21,87l-125,148l-91,50l-60,98l-39,200l32,148l-17,82l-123,177l-65,44l-135,36l-71,49l-85,-4l-132,66l-162,275l-122,-20l-400,64l-176,-56l-150,7l-105,85l-103,298l0,221l121,197l60,164l-1,57l-464,-3l-94,-68l-66,26l-103,-30l-157,-87l-278,13l-124,-30l-24,29l-252,-50l-153,55l-154,-15l-96,-170l-161,-19l-129,-77l-102,-111l-74,68l-125,54l-165,153l-60,82l-16,181Z" /><path id="1400233" d="M-594127,15516l-350,-59l-70,56l-16,67l-103,14l8,127l-69,67l-72,122l-137,50l-127,-55l-128,-6l-133,33l-42,42l-236,28l-239,83h-81l-197,122l-22,56l-164,-22l-175,-167l-92,6l-69,55l42,81l-109,33l-83,-78l-161,-39l-134,-88l-108,61l-44,-25l-270,8l-139,-25l-108,-194l94,-95l-13,-139l-162,-47l-94,-83l-42,-161l-52,-50l-106,30l-14,-78l108,-155l-141,-195l-17,-133l39,-28l-42,-111l20,-111l255,-206l3,-108l53,-111l72,-69l-11,-81l61,-56l22,-219l-83,-36l6,-58l-109,-181l-8,-153l97,-50l0,-147l-50,-200l75,-78l29,8l237,-873l138,-1136l-132,-749l-77,-772l47,-45l-52,-142l-108,-536l85,-116l-72,-106l-65,-16l-31,-76l-351,-2018l83,-36l32,-68l188,-167l261,-292l105,-177l42,-21l187,42l94,-14l146,24l139,-69l84,84l86,38l46,67l149,112l170,-18l185,14l111,-66h95l58,-190l69,-38l154,-153l129,-4l77,-36l116,-228l113,-87l50,-272l103,-58l25,-201l328,-85l77,-3l72,-229l34,-208l-54,-19l-4,-113l-63,-45l-9,-119l-43,-93l58,-74l72,-208l89,-61l33,-114l85,-95l38,-268h1702h711h2968l-1,3287l1,3125l0,3230l-167,105l75,31l-8,86l186,103l-119,192l-197,55l-53,86l75,106l-22,125l-142,8l-236,-53l-98,3l-155,-78l-122,225l-67,-33h-128l-78,72l-177,-66l-98,-17l-75,108l-102,20l-39,-59l-170,89l-41,78l-114,19l-159,-55l-130,97l-145,-53l-66,17l-84,103l-69,-25l-89,39l-105,141l-92,36l-161,-36l-128,23l-83,94l-125,-6l-70,25l-61,87l-100,36l-28,61l-108,39l78,91l-75,109l-59,141l45,50l-175,153l-89,11l-36,-58l-108,11l-31,122l64,86l-108,236l27,39l-100,86l-191,-2l8,-61l-150,-56l-103,17l42,75l-50,133l-103,83l-5,164l-34,36l-144,-55Z" /><path id="1400282" d="M-629125,27617l-197,-10l-203,140l-50,-27l-148,44l-121,189l-71,18l-87,-28l-95,20l-67,53l-110,-126l-84,68l-112,-1l-131,-35l-105,-118l-110,59l-176,47l-149,-53l-24,59l-85,-38l-72,59l-120,-24l-126,55l-100,11l-248,200l-29,-32l-276,-30l-9,56l-211,7l-142,-128l-83,8l-68,-43l-60,-122l-182,-139l-199,15l-137,-20l-29,28l-168,-45l-47,11l-81,-158l-55,39l-191,-57l-234,116l-134,92l-68,-38l-72,62l-50,-13l-70,-130l-99,-44l15,-102l-60,-35l0,-77l63,-36l-48,-144l-54,-35l-45,-137l72,-111l-49,-72l53,-56l-2,-129l-111,-100l-51,-6l32,-212l39,-13l24,-170l-37,-80l-82,-31l-101,-158l-98,-32l-69,-79l-120,-74l-308,152l-78,-35l-96,74l-289,-30l-98,19l-101,119l-57,30l-171,162l-56,-15l-149,-117l-57,-110l-182,-92l-211,-81l-178,-86l-466,-197l-631,-284l-36,-9l-628,-281l-547,-240l-23,27l53,-135l146,37l58,-60l139,163l206,-31l51,-47l127,33l108,137l148,38l79,61l144,-4l47,-61l107,13l82,-57l124,-19l31,-70l111,-18l20,-142l201,-130l115,-21l234,71l81,-43l72,96l77,36h129l25,-116l57,-40l73,30l228,-33l72,48l87,-61l194,105l104,-38l35,99l215,-51l41,-36l232,-11l-20,-66l34,-106l142,-51l192,-32l102,40l111,1l35,94l147,-18l92,-227l85,-93l75,13l-8,90l138,51l8,129l57,120l83,54l42,-26l86,95l104,-229l59,-29l111,32l55,-54l99,2l-3,-88l47,-94l37,-188l84,-71l-111,-163l-99,-94l4,-169l155,-123l-64,-149l58,-106l-69,-122l76,-205l-137,-293l-64,-105l84,-175l123,-148l222,-130l268,-191l217,-83l127,-23l403,122l420,146l286,-9l69,-60l123,-10l87,-122l-10,-183l24,-82l164,-381l126,-172l217,-179l82,-153l64,-61l173,-111l298,-142h133l301,32l319,131l157,-39l255,-34l204,-13l483,-60l97,-31l74,-125l83,-91l335,-135l204,-51l297,-126l147,-98l116,-169l46,-218l-6,-107l-49,-274l-269,-557l-3,-188l39,-238l10,-260l41,-271l-62,-225l-270,-238l-103,-49l-76,-150l-195,-210l-126,-311l3,-129l39,-46l196,-142l250,-249l70,-116l135,-64l407,21l245,36l218,178l201,106l157,117l185,114l136,47l64,63l167,74l151,30l144,123l391,147l121,100l122,31l270,152l396,205l145,97l240,208l537,322l209,118l122,26l103,84l206,60l620,356l226,90l151,107l321,122l307,200l175,83l144,43l97,70l243,48l430,172l128,95l266,4l263,93l99,-11l216,114l230,26l242,-13l110,-32l82,59l63,-19l191,103l201,29l91,-85l289,-36l320,10l99,17l235,-2l193,15l243,-29l223,99l40,106l53,25l166,7l136,61l93,80l99,127l224,89l206,127l121,26l101,-30l203,-3l162,110l176,48l321,-194l131,-49l35,-44l336,-31l126,-52l378,-116l262,-42l241,-21l315,11l199,52l126,-10l692,84l115,52l189,52h147l314,48l-104,86l-49,169l-79,107l-62,151l-15,120l49,204l69,164l253,453l133,128l227,170l228,195l188,210l-57,108l-100,111l-227,109l-63,16l-110,99l-362,232l-156,140l-53,12l-220,-90l-356,-82l-471,-145l-385,-111l-88,11l-167,183l-72,49h-252l-134,-86l-113,-25l-286,102l-209,-34l-123,-115l-576,1235l-152,219l-964,411l-695,-33l-462,61l-649,-91l-325,-71l-554,-338l-78,-86l-121,-208l-148,-197l-195,-74l-88,-78l-9,-134l-101,-10l-203,-230l-84,-39l-162,-20l-221,-247l-141,-103l-224,-76l-316,-125l-167,-99l-289,-88h-421l-615,150l-142,-23l-24,-81l-95,-23l-131,9l-143,-29l-91,12l-81,-51l-137,13l-69,-27l-263,-8l-214,-132l-137,25l-85,-49l-96,-104l-152,9l-101,-18l-96,40l-692,-747l-21,53l-109,-92l-4,-41l-209,-19l-35,34l-183,-42l-105,51l-147,-40l-109,25l-49,84l-99,-31l-45,-102l-109,8l-119,-26l-65,54l-14,96l30,85l-151,35l-24,90l-55,-1l-42,114l-75,2l-83,233l-35,34l-36,164l34,243l-122,90l-47,142l-68,-14l-72,58l-250,9l-77,51l-196,27l-73,-32l-242,-17l-173,19l-194,-31l-142,131l-44,-42l-138,-36l-125,64l-301,89l27,111l-50,93l-48,-1l-52,135l-83,-52l-96,41l-138,146l-105,30l-30,103l-113,22l-15,79l-84,11l-99,-100l-265,93l-50,186l-103,116l-203,-33l-326,57l-70,-50l-115,5l-43,51l-110,25l-65,138l37,71l-19,85l32,104l-2,124l-29,124l-63,55l0,66l-119,87l19,49l-221,-59l99,135l-11,86l36,99l97,172l83,79l21,65l-106,183l-91,26l-39,76l26,112l-13,113l16,121l121,162l197,211l46,7l-4,138l57,36l-42,154l110,70l107,114l108,10l96,-52l194,132l35,71l129,13l223,76l54,81l120,34l48,73l-44,173l49,35l49,120l-76,79Z" /><path id="1400308" d="M-610005,26817l-69,31l-117,-24l-63,130l-82,-36l-27,-161l-126,12l-38,69l-92,46l-127,26l-54,117l-149,58l-76,-139l-62,-5l-191,52l-5,164l-88,-151l-118,-37l-195,-98l-155,-100l-69,32l-229,18l1,-130l-94,-128l-150,-58l-47,16l-106,153l-172,42l-70,-16l-69,-104l-73,-4l-12,140l-86,149l-4,62l58,92l-164,128l-8,92l-122,27l3,164l-53,25l-53,142l-86,-36l-31,97l-91,33l-25,209l-100,191l-100,50l86,114l0,112l-97,-6l-61,69l-198,167l-141,25l-84,55l-69,-11l-114,89l-28,161l-40,20l-101,-87l-100,59l-63,-50l-67,42l-101,-50l-167,80l-97,11l-111,78l-14,78l-78,-3l-55,81l5,64l-105,64l-67,93l-139,72l-99,-49l-162,-36l-149,-75l-73,12l-162,-230l-170,-117l-153,-176l-135,-107l-142,-183l-45,-152l-59,-122l-67,-81l5,-78l153,-91l69,49l28,-122l-121,-16l-45,-48l-131,-16l-103,-159l-64,-38l-60,-223l118,-2l29,-69l-7,-170l-58,-37l-166,-27l-193,81l-195,-156l-96,6l-121,-60l-59,-93l-110,74l-258,-133l-140,14l-31,80l-68,38l-93,-73l-83,45l-125,-28l-69,127l-131,-6l-54,-145l-69,-54l-167,49l-110,2l-42,52l-4,98l35,83l-55,64l-172,-7l-12,56l-112,106l-64,-31l-184,-17l-85,42l-176,1l-53,41l-118,25l-54,55l-129,14l-237,-5l-134,-25l-58,36h-300l-208,14l-55,-17l-61,144l-100,26l-109,-92l-143,-7l-224,35l-135,-10l-76,40l-133,-25l-226,46l-208,59l-105,62l-34,-32l-100,33l-151,-9l-188,65l-125,17l-127,-49l-157,-31l-73,67l-44,-50l-195,-75l-96,-16l-92,26l-143,-87l-65,-71l-56,-2l-128,-92l-287,-79l-377,-73l-96,76l-169,-3l-50,-105l-169,-65l-44,-93l-127,6l-74,-80l-68,28l-58,-39l-129,36l-16,-55l-111,-69l-46,88l-121,120h-87l-134,88l-120,-27l-117,98l-295,-63l-97,-2l-7,74l-210,197l-150,36l-44,114l-150,66l-93,-201l-123,101l-250,-26l-57,23l76,-79l-49,-120l-49,-35l44,-173l-48,-73l-120,-34l-54,-81l-223,-76l-129,-13l-35,-71l-194,-132l-96,52l-108,-10l-107,-114l-110,-70l42,-154l-57,-36l4,-138l-46,-7l-197,-211l-121,-162l-16,-121l13,-113l-26,-112l39,-76l91,-26l106,-183l-21,-65l-83,-79l-97,-172l-36,-99l11,-86l-99,-135l221,59l-19,-49l119,-87l0,-66l63,-55l29,-124l2,-124l-32,-104l19,-85l-37,-71l65,-138l110,-25l43,-51l115,-5l70,50l326,-57l203,33l103,-116l50,-186l265,-93l99,100l84,-11l15,-79l113,-22l30,-103l105,-30l138,-146l96,-41l83,52l52,-135l48,1l50,-93l-27,-111l301,-89l125,-64l138,36l44,42l142,-131l194,31l173,-19l242,17l73,32l196,-27l77,-51l250,-9l72,-58l68,14l47,-142l122,-90l-34,-243l36,-164l35,-34l83,-233l75,-2l42,-114l55,1l24,-90l151,-35l-30,-85l14,-96l65,-54l119,26l109,-8l45,102l99,31l49,-84l109,-25l147,40l105,-51l183,42l35,-34l209,19l4,41l109,92l21,-53l692,747l96,-40l101,18l152,-9l96,104l85,49l137,-25l214,132l263,8l69,27l137,-13l81,51l91,-12l143,29l131,-9l95,23l24,81l142,23l615,-150h421l289,88l167,99l316,125l224,76l141,103l221,247l162,20l84,39l203,230l101,10l9,134l88,78l195,74l148,197l121,208l78,86l554,338l325,71l649,91l462,-61l695,33l964,-411l152,-219l576,-1235l123,115l209,34l286,-102l113,25l134,86h252l72,-49l167,-183l88,-11l385,111l471,145l356,82l220,90l53,-12l156,-140l362,-232l110,-99l63,-16l227,-109l100,-111l57,-108l286,203l50,99l92,297l47,86l206,100l166,108l78,89l94,381l6,102l-30,123l-86,75l5,169l36,114l70,103l-3,175l-142,-92l-139,56l78,91l-8,53l-123,136l-222,136l-102,-13l-67,-89l-34,102l189,178l0,142l-275,116l-233,20l175,303l14,136l80,-14l42,206l8,122l-25,233l-47,119l-205,181l-64,20l-111,-67l-125,205l-109,11l-39,67l-155,82Z" /><path id="1400407" d="M-597090,41619l-474,66l-142,76l-42,-34l-206,69l43,98l126,78l123,145l-242,-4l-240,19l-317,62h-125l-87,31l-231,25l-215,104l-92,11l-137,62l-285,245l-192,135l-177,-1l-163,116l-231,114l-55,-1l-173,-162l-67,-26l-8,-94l-101,-151l-107,24l-48,-41l-244,21l-107,-70l-59,-119l-70,-81l55,-37l-21,-80l-196,-133l-91,-29l-71,-121l-176,-61l-80,-62l-234,15l23,137l-92,1l-66,-82l-96,-4l-117,-50l-45,-93l-73,-61l-88,26l-136,-13l-60,52l-184,-68l-42,-56l-76,-12l-104,110l-223,65l-211,170l-68,23l-160,-24l-361,74l-268,33l-171,87l-81,-61l-97,13l-121,-88l-231,98l-30,-64l64,-220l-36,-94l55,-59l142,25l47,-27l53,-117l100,-64l-59,-119l28,-45l167,97l41,-102l112,-50l-31,-120l89,-78l80,-150l100,-77l0,-211l-27,-95l39,-117l69,-58l0,-105l-94,-106l-28,-172l-89,-64l-20,-120l45,-105l-31,-167l-102,42l-123,-11l-97,-170l50,-133l-122,-94l-8,-48l127,-80l-8,-159l-103,-122l95,-94l22,-89l61,-25l44,-100l0,-81l-86,-83l0,-111l37,-181l-92,6l30,-103l73,-58l8,-78l-133,-61l58,-97l-44,-131l-134,-94l8,-42l181,106l75,-153l86,-64l-3,-111l-44,-92l47,-64l92,-39l64,-66l-36,-92l66,-108l84,-14l52,-117l61,-22l-61,-189l23,-58l107,-31l6,-75l67,-103l-3,-69l84,-161l16,-117l128,42l50,-42l139,-44l-47,-67l89,-94l139,-62l69,98l133,-56l148,-144l27,-86l-89,-81l75,-78l81,22l50,-55l11,-125l89,-47l-25,-100l128,-125l33,-145l-139,-116l25,-67l-53,-72l-163,-61l-34,-48l-36,-172l11,-150l34,-119l63,69l198,111l311,56l217,11l155,67l297,64l114,102l83,264l103,72l111,120l167,-17l97,53l97,103l142,77l81,12l144,80l53,95l86,61l170,180l155,6l95,122l116,33l160,95l154,11l122,44l139,145l97,-28l50,-94l75,-12l131,192l175,78l130,-111l67,-114h131l128,104l83,290l164,41l179,109l120,-12l90,26l83,-28l139,93l83,-2l62,73l22,105l52,92l128,87l187,43l38,109l69,34l53,89l116,-5l69,113l67,-32l112,69l57,114l-91,131l75,66l-62,86l-28,177l86,213l171,50l73,-30l46,90l176,-19l60,120l80,-66l84,-13l15,121l50,93l111,7l1,140l-77,80l-79,219l33,63l-42,147l32,57l103,27l115,-8l40,262l50,45l109,-23l155,86l75,-25l4,145l99,71l-105,223l-178,43l-1,53l-111,13l-105,-100l-179,-11l-26,70l50,63l97,54l-91,155l-69,-86l-87,93l48,47l-98,210l-181,89l17,138l-104,5l-118,95l-19,56l-119,20l95,189l54,63l76,174l51,57l34,119l-33,76l-150,67l-138,27l-105,-27l-179,27l-254,155Z" /><path id="1400456" d="M-605397,42105l145,119l72,6l80,161l-44,44l-314,170l-128,13l-91,175l114,137l150,83l-58,79l-84,-9l-91,160l68,88l-149,108l-21,114l-71,65l-88,172l-80,104l-234,26l-47,35l-173,-19l45,127l-138,26l-30,98l127,389l44,63l28,124l-56,81l24,91l98,82l-4,86l89,243l98,112l-286,710l121,62l27,59l-47,68l-20,215l-51,83l-73,51l-11,126l67,369l-119,54l50,91l90,395l-52,177l39,147l91,147l45,-18l106,235l-105,130l-136,214l-144,73l41,-158l-80,-36l-28,-161l-134,-84l-38,-94l-98,-50l-14,-67l-86,-91l-91,-9l-145,-100l-67,-97l55,-125l-199,-108l-15,-49l-148,-79l-86,41l-94,-57l-100,17l-87,-63l-38,30l-129,-67l-52,-161l-222,-81l-156,-169l-178,68l-67,64l-214,22l-84,-96l-48,-118l27,-78l-97,-257l-114,-17l-30,-54l-136,-7l-31,-180l110,-77l64,-131l-50,-140l46,-177l-56,-51l-170,18l33,-217l-41,-33l-8,-115l-196,-39l-74,14l-23,-108l-98,-34l40,-68l-49,-61l-89,31l-103,-38l-57,52l-76,-7l-161,44l-185,-6l-78,-52l-106,-3l-106,51l-139,-125l-177,-46l-217,-250l-45,152l-89,-8l-38,62l-87,44l-32,58l-193,86l-51,-41l-87,67l-83,106l-88,-81l-305,109l-99,15l-90,-96l-93,96l-213,-5l-166,-22l-65,-192l73,-52l-7,-59l129,-20l39,-66l108,-69l-3,-84l170,-27l-6,-87l-89,-119l-250,3l-11,-67l-108,-86l39,-128l-156,-14l-17,-75l-130,-19l-209,83l-197,-36l-122,11l-36,59l-142,30l-61,-78l-200,134l-139,-28l-5,-89l-98,-31l-138,-138l-273,-51l-47,-72l25,-86l-53,-55l3,-245l33,-116l-100,-59l64,-94l0,-72l128,-37l78,6l1523,30l116,-140l61,11l270,-142l40,-83l-32,-84l21,-78l102,-36l-3,-54l324,-309l6,-133l104,-91l20,-106l-49,-43l-17,-165l-64,-70l43,-123l110,-81l33,-225l-56,-217l-66,-102l74,-39l47,-120l54,-22l57,-93l218,-51l88,-154l237,-143l336,-152l52,20l256,-80l215,-44l54,15l227,-79l93,28l20,134l124,68l100,118l95,49l167,-86l41,40l72,-69l119,33l83,-36l-11,-62l136,-39l101,-202l29,12l138,-166l29,-120l-33,-215l-39,-135l104,-67l67,-155l76,-81l3,-95l49,-168l74,-102l-16,-60l95,-72l40,-112l70,-47l70,-369l-25,-71l9,-135l-56,-67l-12,-207l-102,-202l60,-241l95,-131l48,-266l64,-83l-59,-168l79,-104l106,-70l166,-28l104,-111l81,34l91,-66l-14,-113l-49,-86l140,-10l-2,-132l221,-65l76,-78l87,10l79,75l150,-26l48,-92l204,-105l61,82l85,31l160,-186l78,30l57,-89l105,-63l154,-49l97,16l114,-159l22,-96l92,-37l-126,-169l-2,-166l98,-90l60,-97l78,87l196,126l13,92l127,10l109,-20l36,55l39,180l-75,57l11,114l150,73l29,130l69,154l139,-115l-23,132l34,114l49,55l162,84l71,126l16,118l76,3l95,-59l22,-71l103,-29l32,-100l78,15l66,-41l44,76l216,-49l-84,161l3,69l-67,103l-6,75l-107,31l-23,58l61,189l-61,22l-52,117l-84,14l-66,108l36,92l-64,66l-92,39l-47,64l44,92l3,111l-86,64l-75,153l-181,-106l-8,42l134,94l44,131l-58,97l133,61l-8,78l-73,58l-30,103l92,-6l-37,181l0,111l86,83l0,81l-44,100l-61,25l-22,89l-95,94l103,122l8,159l-127,80l8,48l122,94l-50,133l97,170l123,11l102,-42l31,167l-45,105l20,120l89,64l28,172l94,106l0,105l-69,58l-39,117l27,95l0,211l-100,77l-80,150l-89,78l31,120l-112,50l-41,102l-167,-97l-28,45l59,119l-100,64l-53,117l-47,27l-142,-25l-55,59l36,94l-64,220l30,64Z" /><path id="1400472" d="M-602671,11281l-98,35l-147,-161l-83,66l50,73l-56,77l-131,-50l-41,103l-139,-69l-103,-23l-97,39l-58,-72l-50,53l-139,42l-81,-53l-155,-25l-184,-145l34,-130l-76,-47l-77,80l-111,-50l-123,-97l23,-103l-131,3l6,-103l-170,-133l-28,-145l-144,-50l-75,-61l-67,-153l17,-144l-33,-136l-89,-45l-111,73l-78,-78l25,-125l-61,-28l-92,-147l-69,-161l-117,-61l-108,-6l-134,-122l-78,-103l-147,-128l-116,34l-45,-45l-150,70l-42,-123l-61,12l-80,-131l-67,75l-66,-128l-123,36l-191,-100l-50,9l-56,133l-72,17l-14,294l64,86l-34,134l-44,-11l-236,61l-47,-39l-125,52l-53,87l8,91l-166,186l-86,11l-153,189l-31,92l61,119l9,125l-50,87l30,88l-22,159l-120,47l-72,64l-27,150l-98,125l-164,122l-64,89l-102,64l-128,-47l-83,-75l5,-92l-55,-81l-9,-75l-122,-197l-169,-16l-56,75l-141,91l-115,-39l-108,73l-114,-84l-66,53l-106,-44l-8,136l-81,25l-17,-164h-108l-69,33l-28,-94l42,-100l-106,-75l25,-148l-172,-80l-42,-158l53,-78l-47,-47l-134,61l-102,-84l25,-97l-175,-69l-84,-81l42,-64l-42,-89l-133,-27l80,-73l-80,-133l-122,78l-59,-36l-36,-120l-66,42l19,75l-50,86l-133,-22l-11,75l-137,-20l-19,-111l-83,100l-25,120l-61,125l-100,100l-25,66l-142,14l-95,-100l-83,-189l-55,-55l-67,5l-25,78l-231,36l-183,70l-106,97l-69,-20l-119,-91l-95,-45l-208,-255l-28,-167l-64,-119l-150,-142l-336,-414l-47,-280l-78,-223l-169,-341l-153,-206l-220,-272l-94,-142l-267,-175l-104,-101l-218,-165l-111,-134l-111,-214l-114,-164l-172,-149l-70,-117l-39,-231l-116,-319l-175,-311l-256,-186l-80,-73l-100,-225l-176,-314l-136,-489l-63,-266l-161,-275l-115,-231l-58,-433l-58,-230l-25,-198l0,-147l-47,-411l14,-222l63,-481l-38,-390l-64,-193l-123,-181l-102,-213l-25,-162l-78,-108l-31,-111l25,-164l45,-97l178,-267l5,-153l-50,-150l-83,-136l-36,-105l-17,-214l-89,-339l-161,-447l-36,-261l16,-145l64,-314l-50,-200l-113,-255l16,-256l92,-178l124,-168l176,-179l39,-86l14,-158l-20,-86l-166,-300l-62,-217l15,-137l102,-199l20,-81l22,-275l-11,-133l-84,-206l-180,-352l-150,-220l-161,-378l5,-100l45,-175l2,-100l39,-136l89,-186l17,-280l-70,-187l-200,-200l-72,-175l-17,-158l117,-247l25,-133l-41,-195l-141,-361l-18,-130l61,-84l156,-342l92,-144l8,-72l-39,-167l-131,-175l-58,-189l22,-208l150,-258l136,-345l45,-180l11,-267l53,-150l-9,-70l-138,-233l-162,-336l-25,-81l34,-258l44,-119l106,-203l142,-127l130,-6l97,22l192,189l78,16l205,-39l289,-91l228,-178l278,-78l102,-55l220,-70l225,-39l305,-141l198,-161l130,-139l125,-170l22,-83l128,-222l317,-264l67,-89l236,-197l80,16l14,75l-22,184l50,72l-28,181l-80,100l-117,58l-168,50l-67,46l-71,118l-94,255l-22,134l-42,77l11,106l-97,39l-258,8l-81,192l-125,39l-86,-17l-117,47l-44,78l53,106l138,166l123,61l55,81l-33,147l-120,120l-141,186l-172,66l19,75l167,128l31,68l-12,220l28,105l63,110l78,195l43,170l59,64l93,30l-9,61l-87,105l3,118l107,131l44,144l-25,65l-100,88l8,76l101,27l2,85l-117,84l64,108l232,34l67,102l-11,326l-37,74l-109,84l34,55l114,47l11,109l-83,95l-189,-26l-95,24l-14,54l52,233l-71,178l43,95l19,163l107,135l135,82l-44,245l98,108l56,17l35,85l-106,103l10,385l76,169l42,238l55,59l97,16l99,54l259,246l63,121l45,252l86,194l71,55l194,-18l100,70l-55,89l7,76l264,45l147,143l195,66l134,107l130,28l82,-35l94,4l66,42l131,140l173,54l144,-20l261,91l174,46l63,109l-22,77l89,144l-83,121l0,59l62,110l116,8l124,-91l142,15l160,-96l76,37l-3,109l112,-3l169,50l156,-96l111,74l93,2l185,-71l88,-74l43,-80l6,-128l84,-96l179,-30l85,44l53,-72l205,-47l99,-67l111,-6l237,92l123,-55l141,101l94,-151l29,-160l-57,-104l-7,-161l103,-71l-23,-78l121,-92l51,-74l110,-83l200,70l97,-72l41,-100l-37,-149l62,-159l125,4l275,-44l80,-40l-30,-86l59,-89l12,-112l-72,-43l41,-128l136,-16l202,-127l-53,-199l-93,-101l91,-45l191,-50l-107,-69l63,-118l-59,-121l58,-96l13,-143l-39,-85l50,-64l92,10l14,71l101,-32l46,65l71,-9l13,-75l223,-4l80,-82l126,36l118,-45l90,-112l164,93l89,-19l54,123l114,-26l28,122l235,-128l15,142l56,72l141,-66l157,-9l18,-117l135,-8l67,-62l171,100l162,188l-10,77l-145,63l119,119l71,-17l62,51l-1,124l30,85l-75,98l94,94l135,97l74,2l115,-74l86,44l169,-16l55,-46l193,190l105,30l100,-50l41,99l-25,46l122,73l96,-106l50,87l101,-59l139,146l123,84l90,-19l74,181l8,124l-84,60l19,103l44,52l-47,90l-90,80l38,130l-68,43l-73,-28l-149,162l-93,14l-67,190l-89,91l-106,4l-94,128l98,39l-34,184l-115,30l-42,98l-16,235l-55,21l79,133l85,35l-22,92l77,132l-8,140l198,99l86,93l96,51l32,128l-56,141l60,162l55,43l2,88l104,8l18,184l55,43l4,97l-73,95l22,63l91,61l121,27l-34,64l42,181l94,89l-86,91l-90,193l54,18l110,306l-60,198l87,-28l108,36l-7,102l105,63l19,161l113,34l39,86l106,56l37,66l119,59l44,75l-46,172l-93,127l9,53l115,241l138,166l-48,52l55,74l23,146l35,59l247,229l104,32l96,106l25,86l115,40l55,77l0,183l89,56l23,97l-34,37l91,146l17,90l-124,72l2,83l87,111l100,75l-9,68l53,60l127,4l168,124l78,22l141,131l1,100l52,83l59,353l11,155l88,314l5,106l194,155l41,123l92,26l10,49l-184,32l-48,55l-97,-31l-219,134l-173,44l-57,75l-182,42l-51,133l90,148l32,115l61,49l41,116l-125,167l-6,175l-234,226l19,151l-16,74l-64,41l-69,208l14,77l65,83l-74,44l-71,194l-144,189l-111,36l-100,-41l-151,80l-202,-51l-145,2l-38,82l89,70l55,107l-34,41l-102,-77l-50,1l-68,163l153,242l-50,116l-94,53l-71,172l-76,32l-36,67l31,69l-1,128l-101,219l4,46l112,189l-124,42l-319,336l943,1038l-720,753l159,124l-201,85l-1117,241l-132,25l962,385l204,377l142,-13l-5,159l-67,16l-7,196l128,-2l-1,138Z" /><path id="1400506" d="M-594336,2635l-38,268l-85,95l-33,114l-89,61l-72,208l-58,74l43,93l9,119l63,45l4,113l54,19l-34,208l-72,229l-77,3l-328,85l-25,201l-103,58l-50,272l-113,87l-116,228l-77,36l-129,4l-154,153l-69,38l-58,190h-95l-111,66l-185,-14l-170,18l-149,-112l-46,-67l-86,-38l-84,-84l-139,69l-146,-24l-94,14l-187,-42l-42,21l-105,177l-261,292l-188,167l-32,68l-83,36l351,2018l31,76l65,16l72,106l-85,116l108,536l52,142l-47,45l77,772l132,749l-138,1136l-237,873l-29,-8l-61,-108l-153,3l-64,-25l17,-81l-78,-14l-108,28l-111,-314l5,-92l-63,-33l-1,-97l-83,-33l-75,-98l-105,-19l-81,233l-61,-97l-86,-44l-64,55l-128,-28l-28,-77l-144,22l-64,-56l-183,-55l5,-78l-105,28l-84,-128l14,-70l-66,-188l-75,-39l13,-1359l53,-108l-66,-186l-64,-50l-209,-58l-91,-9l-31,-55l36,-92l-64,-128l-44,-150l-64,-14l-44,-91l-103,-61l0,-181l-67,-117l42,-77l-11,-92l-84,-153l83,-114l-11,-183l64,-72l-47,-325l-86,-153l64,-125l-50,-122l-58,-331l19,-125l-83,-22l-78,-86l61,-131l33,-150l19,-315l-83,-40l-44,-78l-92,36l-212,-162l-75,20l-31,-79l-123,-19l-154,-51l-24,-112l144,-189l71,-194l74,-44l-65,-83l-14,-77l69,-208l64,-41l16,-74l-19,-151l234,-226l6,-175l125,-167l-41,-116l-61,-49l-32,-115l-90,-148l51,-133l182,-42l57,-75l173,-44l219,-134l97,31l48,-55l184,-32l-10,-49l-92,-26l-41,-123l-194,-155l-5,-106h1814h4230Z" /><path id="1400605" d="M-601530,5635l24,112l154,51l123,19l31,79l75,-20l212,162l92,-36l44,78l83,40l-19,315l-33,150l-61,131l78,86l83,22l-19,125l58,331l50,122l-64,125l86,153l47,325l-64,72l11,183l-83,114l84,153l11,92l-42,77l67,117l0,181l103,61l44,91l64,14l44,150l64,128l-36,92l31,55l91,9l209,58l64,50l66,186l-53,108l-13,1359l-146,-130l-60,13l-97,-64l-34,75h-116l-114,-30l-225,-120l-289,-92l-247,25l-78,-75l-89,73l-111,19l-125,61l-353,97l-239,84l-233,8l-39,-67l-108,-16l-144,65l1,-138l-128,2l7,-196l67,-16l5,-159l-142,13l-204,-377l-962,-385l132,-25l1117,-241l201,-85l-159,-124l720,-753l-943,-1038l319,-336l124,-42l-112,-189l-4,-46l101,-219l1,-128l-31,-69l36,-67l76,-32l71,-172l94,-53l50,-116l-153,-242l68,-163l50,-1l102,77l34,-41l-55,-107l-89,-70l38,-82l145,-2l202,51l151,-80l100,41l111,-36Z" /><path id="1400704" d="M-597090,41619l-128,95l-94,97l34,55l-100,222l21,191l-38,76l217,273l53,88l-79,28l-50,-55l-65,176l114,105l13,51l157,64l-29,61l156,206l115,64l31,53l-73,135l31,80l105,67l-163,103l-72,-56l-208,165l-91,150l-30,-12l-96,136l-122,-27l-65,27l-117,136l-89,38l-60,73l-125,-11l-29,33l26,126l-92,41l-40,-146l-54,-63l-136,24l-68,93l-159,-53l-59,30l-76,-32l-94,97l77,108l-107,52l-56,-35l-180,36l-71,-188l-108,79l42,111l-174,17l31,107l-259,92l-135,84l-62,7l-31,-207l-143,-29l-130,93l-69,6l-98,-57l-47,43l-105,-40l-110,43l-194,9l-67,44l49,234l-116,10l-129,89l-32,-55l-106,-42l70,-97l-93,-92l-150,-27l-152,128l-133,-31l-109,63l23,146l53,162l-71,70l50,186l65,8l45,-86l59,34l35,110l83,27l-38,117l82,98l107,-22l43,51l72,-41l115,20l125,104l63,8l-53,161l62,103l-60,120l143,171l27,58l171,171l155,103l-16,88l-119,99l57,105l83,82l9,155l-20,50l47,193l-142,81l79,264l30,149l73,43l86,244l-10,121l52,87l-8,87l40,263l39,125l44,48l-5,159l44,40l-45,108l73,142l-17,268l29,128l77,1l3,354l73,96l-17,112l-49,44l-165,72l-46,-42l-204,67l-169,188l-97,-16l-125,184l-65,131l-121,-3l-86,42l-111,-9l-55,200l-56,334l-133,133l-125,175l-53,239l-183,-158l-148,-64l-166,61l-75,55l25,117l-95,167l-103,52l-141,-80l-86,-11l-109,-109l-180,-8l-59,-75l-11,-92l-69,-5l-108,-58l-73,13l-102,-44l-73,-144l-147,-50l-83,24l-122,-30l-73,47l-111,-53l-36,89l-103,75l-175,-52l-80,-48l-53,34l-61,-84l0,-103l-164,-141l-122,28l-36,55l5,106l-72,25l-67,-36l-61,38l-308,-2l-186,53l-106,-3l-100,-50l-61,-86l-314,39l-133,94l-17,100l-64,31l-50,-53l-111,30l-103,-30l-147,53l-125,100l-78,-37l-155,50l-217,-30l-122,-103l-139,14l-61,-108l12,-81l99,-54l167,-13l69,28l139,-85l4,-92l192,-157l41,-77l8,-142l-20,-79l30,-164l127,-3l17,-74l-43,-138l39,-66l-5,-200l-32,-109l67,-72l63,-13l59,-190l146,-158l13,-111l111,-48l58,-180l0,-75l92,-181l-56,-130l-22,-159l-169,-27l-73,-61l-97,-139l-30,-153l-236,-42l144,-73l136,-214l105,-130l-106,-235l-45,18l-91,-147l-39,-147l52,-177l-90,-395l-50,-91l119,-54l-67,-369l11,-126l73,-51l51,-83l20,-215l47,-68l-27,-59l-121,-62l286,-710l-98,-112l-89,-243l4,-86l-98,-82l-24,-91l56,-81l-28,-124l-44,-63l-127,-389l30,-98l138,-26l-45,-127l173,19l47,-35l234,-26l80,-104l88,-172l71,-65l21,-114l149,-108l-68,-88l91,-160l84,9l58,-79l-150,-83l-114,-137l91,-175l128,-13l314,-170l44,-44l-80,-161l-72,-6l-145,-119l231,-98l121,88l97,-13l81,61l171,-87l268,-33l361,-74l160,24l68,-23l211,-170l223,-65l104,-110l76,12l42,56l184,68l60,-52l136,13l88,-26l73,61l45,93l117,50l96,4l66,82l92,-1l-23,-137l234,-15l80,62l176,61l71,121l91,29l196,133l21,80l-55,37l70,81l59,119l107,70l244,-21l48,41l107,-24l101,151l8,94l67,26l173,162l55,1l231,-114l163,-116l177,1l192,-135l285,-245l137,-62l92,-11l215,-104l231,-25l87,-31h125l317,-62l240,-19l242,4l-123,-145l-126,-78l-43,-98l206,-69l42,34l142,-76l474,-66Z" /></g></svg>