<?xml version="1.0"?><svg xmlns="http://www.w3.org/2000/svg" version="1.2" baseProfile="tiny" width="1080" height="1080" viewBox="-54.8763 -4.5088 5.000500000000002 5.745" stroke-linecap="round" stroke-linejoin="round"><g id="UF16MU" transform="scale(0.0001,-0.0001)"><path id="1600055" d="M-520158,24365l-58,-22l-213,49l-33,-32l-15,-178l-35,-164l-87,-104l-129,29l-121,74l-69,80l-37,-107l-178,20l-60,-74l-2,-110l-51,-134l60,-123l-116,-166l8,-55l-108,-107l-130,-67l34,-118l-51,-58l-93,-14l-117,45l-79,-90l37,-157l-98,10l-38,-179l-56,-14l-98,47l-67,-46l-89,48l-66,-8l-83,-161l-99,-96l60,-119l-41,-182l39,-73l156,-20l80,-103l-119,-13l-71,59l-77,-43l-56,-201l-133,-45l-32,-43l-122,-33l-99,18l-87,-38l-195,37l-208,-58l-73,-126l-81,16l-40,-123l-84,-112l-39,10l-83,-98l-126,-93l-70,-2l-113,-69l-51,-128l56,-45l-30,-83l11,-134l53,-182l-51,-63l-88,92l-44,-35l-141,99l-182,-30l-97,-64l-46,38l-134,-20l-145,35l-115,-126l-116,-12l-80,-50l-36,-70l-107,-8l-72,-47l-58,121l-75,-54l-89,22l-183,-61l-8,-89l-184,95l-46,118l-178,82l-84,156l-76,31l-63,-71l-113,121l-87,-32l-60,36l18,121l-107,-64l-67,39l-169,-40l-137,101l-183,-19l-100,-32l-29,100l-141,-45l-114,28l-110,-46l-108,110l-53,21l-200,-26l-60,-128l80,-22l19,-151l-83,-154l-78,-20l-119,63l-44,-21l-66,-138l347,-248l53,-75l171,-127l138,-21l35,-102l105,-114l-10,-132l34,-48l-65,-123l152,-386l158,-203l143,-65l39,90l126,-60l204,-203l124,-9l66,57l56,-121l180,-91l110,-275l98,-96l59,63l54,-96l85,-27l169,-161l-1,-56l84,-69l75,-171l85,4l81,67l27,-97l138,-85l21,-98l-39,-103l55,-84l42,-192l76,-65l41,-96l106,-26l22,-56l108,-47l-78,-88l-8,-96l204,-66l-12,-96l58,-54l141,-274l-118,-22l-26,-77l-89,-36l5,-60l234,-228l-146,-93l49,-81l-18,-79l49,-82l31,-194l68,-4l3,-218l69,-63l-12,-141l127,-6l17,-40l-139,-165l-23,-221l45,-72l103,-81l99,-140l-159,-265l3,-65l-141,-58l22,-136l-37,-128l-76,-59l-58,-128l110,3l195,-40l90,50l81,-50l-63,-178l92,6l100,-118l72,-14l90,-90l61,3l55,-175l164,-26l82,16l-33,-116l-48,-64l143,-65l87,40l81,-63l-113,-135l11,-103l104,-49l-59,-84l70,-179l90,-13l44,39l104,6l157,-105l77,-4l0,-157l144,-109l-14,-104l60,-38l57,-162l99,-117l158,6l96,-85l193,-17l86,19l64,98l74,20l103,-31l22,-75l-76,-65l20,-124l-80,-102l28,-54l112,-4l18,-168l304,72l54,-17l-18,-163l63,11l57,73l78,5l230,-109l69,-87l52,-2l124,148l189,48l240,-105l190,49l60,-32l57,-142l-52,-79l-8,-194l-157,-66l-79,-161l27,-54l-44,-128l9,-117l95,-111l-92,-44l-92,-113l83,-112l196,-110l181,32l56,122l137,-129l132,-26l216,-87l38,73l88,-3l87,122l19,131l54,102l-28,100l116,133l-24,84l30,67l102,87l640,192l26,102l152,95l124,-7l23,99l-40,66l9,110l-121,47l-69,90l0,129l-51,88l-184,-124l-17,98l-68,24l-87,-32l-92,48l35,93l-61,58l-50,-108l-94,14l-90,106l22,88l-97,59l-80,-88l74,-64l-197,-154l-101,85l-23,96l-318,-56l-28,66l85,106l-56,34l10,111l41,65l-5,135l-55,151l28,131l-125,39l-13,92l151,98l-118,41l-44,70l63,35l-7,88l-122,-4l-66,95l62,235l163,101l-131,126l28,230l-62,81l22,144l136,54l41,134l6,144l-82,35l-94,59l-62,-26l-85,61l58,127l-29,179l46,118l-150,77l-16,118l-112,126l9,97l-85,39l92,66l-76,122l-34,153l53,55l-6,83l132,60l18,72l-58,62l5,62l103,83l12,130l-80,31l8,99l-59,13l-44,97l2,203l40,85l-76,122l32,82l-21,105l75,14l86,192l28,167l-16,142l-124,195l-60,16l-63,101l33,123l-75,49l-31,199l69,144l-32,117l5,331l33,144l-53,41l34,125l-87,58l70,105l-19,284l6,131l-68,107l86,144l81,80l98,25l44,240l133,126l-74,322l99,246l-1,123l45,27l5,165l60,131l-84,82l28,85l-46,67l-2,249l-193,313l-22,234l-58,102l-39,292l48,155l-69,185l50,60l13,158l-97,189l-172,113l-28,122l16,139l126,191l90,165l-9,95l64,82l-17,98l7,256l-33,84l22,122l-52,64l43,194l139,39l57,-13l56,102Z" /><path id="1600105" d="M-504501,21092l-73,35l-110,-127l-154,14l-101,-86l-103,12l-54,-113l-28,-372l-47,-109l-41,-292l43,-60l112,-2l71,-47l72,-148l8,-150l115,-143l133,-272l109,-347l59,-89l117,-86l118,-40l218,47l173,59l194,119l136,126l217,241l143,213l-11,173l-35,104l-165,210l-76,4l-51,167l-113,87l19,74l-24,121l22,159l-113,128l-113,10l-6,89l-108,119l-40,130l-66,63l-159,-9l-160,21l-128,-33M-506840,21437l-252,-87l-106,40l-89,86l-100,-86l2,-89l-44,-107l-76,-15l-38,100l-73,47l-72,101l-80,41l-106,226l-79,6l-50,57l-132,10l-55,-60l-89,-27l-2,-130l-126,-53l-22,-98l-172,15l-121,230l-194,-54l-83,-58l-147,-19l-83,89l-245,35l-32,81l-99,12l-167,-73l-70,-70l10,-58l-144,-24l-38,57l-218,114l-120,-29l-100,100l-52,-37l-73,53l-75,-9l-103,54l-155,-48l-15,-107l-249,-2l-140,-133l-284,-16l-101,-99l-105,-8l-149,-113l-31,-66l-86,-14l-180,59l-75,-97l7,-77l-105,-23l22,-61l-401,-208l-156,-131l-100,5l-72,-107l-203,-123l-42,-91l-63,-45l-92,-5l-160,-101l-57,-14l-196,31l-75,74l-88,150l-109,35l-62,76l-60,3l-83,80l-70,8l-160,-104l-48,-64l23,-66l-82,-103l-189,-63l-103,25l-210,131l-450,746l-59,-49l-68,-138l23,-53l-22,-110l-141,-144l-43,-164l126,-250l-50,-77l-169,-46l-197,-163l-136,-25l9,-198l-20,-63l-134,-129l1,-105l130,-165l8,-133l-31,-241l11,-126l200,70l203,-13l135,25l64,-50l77,-132l56,7l175,-146l197,-5l159,-150l116,-47l266,-219l53,-84l159,-178l152,-119l14,-173l82,86l84,47l68,-21l98,75l69,98l219,110l11,113l129,106l28,166l-58,176l81,-31l124,29l137,68l45,-30l131,100l111,16l60,54l61,111l109,120l118,23l104,-24l160,-93l106,-113l92,31l62,59l138,63l132,-56l123,84l143,2l150,-75l26,-89l118,-27l32,-84l178,-103l29,-90l76,52l274,88l158,-17l89,98l78,-37l121,52l62,-27l172,-148l107,-24l90,-100l245,3l66,-55l165,-61l119,36l162,-32l48,-46l97,-1l148,63l107,-49l77,72l209,-52l98,-65l59,-89l168,16l97,-124l-32,-118l105,-21l138,175l71,146l74,75l-49,92l80,15l54,-102l134,39l128,-70l73,-73h165l77,94l146,39l482,1l-17,-59l66,-115l29,-179l46,-101l117,-158l37,-117l-32,-129l47,-77l100,48l34,-81l135,-4l164,-190l-54,-194l-57,-47l-7,-96l104,-237l87,-65h94l-28,-181l67,-142l-17,-102l84,-99l18,-145l-41,-158l36,-51l27,-149l-31,-139l14,-95l97,-67l-23,-60l-102,-30l55,-86l0,-75l-102,-66l-119,-29l-27,-95l608,-1090l645,-1231l46,-73l98,-70l42,-95l5,-186l-68,-107l98,4l176,45l193,-120l80,-99l296,-31l133,54l171,31l112,183l90,62l60,86l21,109l-33,100l-138,195l-88,235l-2,66l50,122l90,140l143,126l565,159l72,9l211,-23l254,-50h69l179,52l109,-38l78,-152l10,-197l-12,-141l-86,-128l-109,-240l-28,-126l16,-102l102,-138l145,-26l224,45l218,71l89,12l254,-26l539,76l392,102l471,83l-27,553l100,225l47,63l60,156l28,237l-21,213l44,46l2,172l25,163l-18,418l-37,149l-4,203l-168,570l-35,199l17,253l-87,342l-37,240l-62,70l-17,204l-86,114l-289,204l-378,192l-231,142l-132,66l-483,192l-117,32l-400,144l-265,147l-71,18l-208,-3l-107,-25l-365,-14l-305,37l-254,-46l-349,75l-67,-5l-271,-102l-151,-36l-270,-8l-232,42l-72,61l-139,44l-219,160l-83,76l-295,425l-40,72l-171,416l-74,101l-184,94l-66,64l-247,338l-63,148l-109,362l18,232l-150,192l-47,83l-164,109l-83,107l-285,162l-109,43l-21,103M-505088,21852l-144,-31l-62,-88l-146,-112l-61,-104l159,-88l72,-89l129,-260l64,-81l123,-37l92,82l107,-25l65,19l108,114l94,-26l59,34l203,25l32,129l-45,154l-61,33l-22,79l-87,85l-97,3l-82,58l-42,97l-208,21l-81,-20l-169,28Z" /><path id="1600154" d="M-518151,9758l-124,7l-152,-95l-26,-102l-640,-192l-102,-87l-30,-67l24,-84l-116,-133l28,-100l-54,-102l-19,-131l-87,-122l-88,3l-38,-73l-216,87l-132,26l-137,129l-56,-122l-181,-32l-196,110l-83,112l92,113l92,44l-95,111l-9,117l44,128l-27,54l79,161l157,66l8,194l52,79l-57,142l-60,32l-190,-49l-240,105l-189,-48l-124,-148l-52,2l-69,87l-230,109l-78,-5l-57,-73l-63,-11l18,163l-54,17l-304,-72l-18,168l-112,4l-28,54l80,102l-20,124l76,65l-22,75l-103,31l-74,-20l-64,-98l-86,-19l-193,17l-96,85l-158,-6l-99,117l-57,162l-60,38l14,104l-144,109l0,157l-77,4l-157,105l-104,-6l-44,-39l-90,13l-70,179l59,84l-104,49l-11,103l113,135l-81,63l-87,-40l-143,65l48,64l33,116l-82,-16l-164,26l-55,175l-61,-3l-90,90l-72,14l-100,118l-92,-6l63,178l-81,50l-90,-50l-195,40l-110,-3l58,128l76,59l37,128l-22,136l141,58l-3,65l159,265l-99,140l-103,81l-45,72l23,221l139,165l-17,40l-127,6l12,141l-69,63l-3,218l-68,4l-31,194l-49,82l18,79l-49,81l146,93l-234,228l-5,60l89,36l26,77l118,22l-141,274l-58,54l12,96l-204,66l8,96l78,88l-108,47l-22,56l-106,26l-41,96l-76,65l-42,192l-55,84l39,103l-21,98l-138,85l-27,97l-81,-67l-85,-4l-75,171l-84,69l1,56l-169,161l-85,27l-54,96l-59,-63l-98,96l-110,275l-180,91l-56,121l-66,-57l-124,9l-204,203l-126,60l-39,-90l-143,65l-158,203l-152,386l65,123l-34,48l10,132l-105,114l-35,102l-138,21l-171,127l-53,75l-347,248l-127,59l-89,11l-60,-37l-132,-194l52,-94l-42,-49l36,-211l36,-85l-90,-79l-47,-85l-92,-60l-56,77l-121,-42l-106,1l-100,48l-205,-13l-168,53l-12,71l-84,165l-169,25l-164,-41l-96,-104l-74,-198l-2,-127l68,-202l99,-65l5,-92l148,-233l23,-91l-15,-113l63,-109l80,-34l159,-179l-29,-142l-98,-77l-37,-135l22,-130l58,-113l141,-71l50,-98l35,-141l81,-136l26,-173l-97,-85l-45,-116l-74,-321l-15,-216l38,-187l68,-109l67,-231l123,-151l126,-46l159,-1l69,43l135,12l194,-35l173,-90l107,-115l50,-155l3,-133l-43,-137l-1,-114l-34,-135l19,-242l-88,-166l-104,-339l-41,-78l-136,-143l-90,-138l-32,-236l-100,-163l-26,-187l37,-204l-54,-138l-210,6l-52,-71l-63,-188l2,-110l-78,-225l31,-111l55,-592l39,-91l143,-30l152,-87l177,-187l186,-79l32,-75l-23,-190l31,-127l112,-87l72,-302l-58,-104l15,-118l94,-213l157,-138l95,-23l114,88l60,-27l19,-165l-20,-101l-106,-171l-21,-155l84,-59l52,-161l70,-16l88,53l77,-2l82,62l92,-62l103,-30l105,-153l140,-75l-98,-234l44,-61l102,-93l161,60l46,60l272,-15l152,40l43,-27l122,76l29,-38l-56,-217l42,-164l170,-158l125,-17l135,-150l12,-154l73,-59l133,31l131,4l65,-35l84,-133h102l122,-40l135,-235l90,-47l46,-95l135,-51l49,-58l14,-151l-75,-65l36,-85l131,-33l88,-70l8,-155l130,-181l10,-157l97,-102l187,-26l104,-118l105,-64l36,-66l-42,-86l12,-257l56,-66l155,-54l2,-117l91,-22l-3,-168l81,-93l19,-73l93,-15l158,-112l36,-62l-15,93l206,102l70,107l11,69l69,72l47,231l179,41l207,180l73,154l30,183l107,101l84,170l47,31l138,-33l43,80l147,-17l91,59l53,145l72,76l-19,48l91,110l64,-15l33,79l117,-80l73,26l65,-54l61,45l156,-49l147,215l-53,110l45,112l97,43l60,-62l-2,-84l286,29l108,57l158,131l125,53l16,46l165,8l200,31l187,-39l86,32l95,-38l150,-11l80,49l151,13l45,-27l113,38l102,73l101,-67l-9,-87l168,-236l92,91l189,-7l128,102l120,-10l28,-108l-37,-221l84,-115l55,-14l192,194l91,17l86,-87l-49,-160l-12,-153l26,-62l169,59l42,56l120,242l-49,85l52,204l47,102l126,63l15,91l-93,235l-103,89l13,53l-43,138l-91,49l-102,222l19,31l-58,172l-78,73l-31,175l15,82l-35,95l-101,122l-101,80l-40,94l-3,99l-83,-2l-70,95l-76,-20l-41,84l-120,41l-91,61l6,80l59,152l176,102l158,180l195,91l5,96l-74,77l1,57l-123,20l-28,-150l-39,-69l-129,17Z" /><path id="1600204" d="M-506840,21437l-13,67l45,167l-58,240l-182,330l-78,87l-74,35l-53,164l34,253l-7,97l-86,131l-96,82l-45,129l12,78l-25,233l-39,104l-70,55l11,176l-51,124l-66,84l14,222l-37,239l-136,177l-40,149l-62,125l-76,41l-147,4l-105,98l34,148l-95,121l14,142l-65,242l-91,133l30,96l-4,187l-30,206l-113,49l18,113l-109,208l-123,69l-58,264l28,126l-13,182l-26,48l-150,113l-31,-6l-8,250l-33,82l-132,132l-98,45l-125,100l-26,93l-66,101l45,79l-17,163l24,139l-24,86l-89,120l-158,335l-77,77l-51,211l-36,40l2,135l-65,353l-86,159l-77,102l-61,143l3,125l59,38l-33,106l40,73l-110,169l-65,44l-126,271l13,332l75,94l28,371l-108,269l-54,71l-161,404l-41,150l-173,471l-117,444l-14,111l-58,201l-39,248l82,109l101,190l39,194l1,198l52,398l-44,320l-22,330l-24,74l30,111l-25,464l-9,491l40,454l-17,103l25,167l-30,82l46,210l41,447l-44,150l-70,85l-98,45l-220,-44l-269,54l-125,-459l-59,-406l-48,-254l-28,-289l-62,-319l-86,-248l-17,-282l-48,-178l-7,-114l86,-194l33,-152l44,-436l-6,-389l13,-126l-32,-354l-2,-216l-54,-253l-12,-128l15,-322l71,-11l41,-303l1,-219l52,-105l-14,-194l6,-253l-112,-273l-16,-296l-51,-106l-316,-105l45,-124l-97,-105l-76,182l-36,-98l-138,-119l90,-114l-56,-51l60,-75l-33,-73l16,-74l95,2l-59,-168l-123,-139l-113,-38l-246,45l42,-207l-6,-63l-215,-243l-94,93l-45,-4l-15,-124l-122,-91l-107,1l-118,-45l-85,-118l-110,-94l123,-84l-323,-7l58,-218l-108,-134l27,-66l-71,-57l-134,-177l-18,-113l-171,-88l21,-80l81,-1l-6,-94l62,-56l-134,-84l-30,-102l49,-107l-104,-63l20,-52l-93,-43l-122,21l-48,-66l109,-68l-164,-40l-61,-149l-334,-84l-1,-60l-112,-4l81,-183l-27,-110l20,-137l-60,-3l-70,-122l-8,-103l-76,-51l-48,-114l-66,-81l-6,-121l-55,-87l-47,-148l-57,4l-177,-196l-78,-47l-115,-121l14,-114l-70,-14l-81,-74l-22,-69l-96,-44l-30,-128l-52,15l-59,-178l-61,-35l-53,-124l79,-34l100,-147l-91,-249l-44,-73l-182,-54l-79,-2l-84,-125l-4,-227l-20,-94l-117,-168l-148,-159l-53,-10l-73,-157l-109,-82l-94,-30l13,-70l-62,-59l9,-78l-171,-224l-144,-15l-127,90l-45,-20l-47,-105l-151,-36l-279,242l-140,-26l5,-86l74,-34l34,-129l-15,-49l-93,-48l-37,-106l-103,-20l-106,-64l-59,43l-27,125l-191,-10l-146,203l-46,-64l-66,85l-71,-12l-45,60l-37,156l7,75l-162,79l-129,17l-109,-105l-76,154l90,38l-9,58l-96,30l-61,66l-51,-34l-56,-102l-57,13l-139,-39l-43,-194l52,-64l-22,-122l33,-84l-7,-256l17,-98l-64,-82l9,-95l-90,-165l-126,-191l-16,-139l28,-122l172,-113l97,-189l-13,-158l-50,-60l69,-185l-48,-155l39,-292l58,-102l22,-234l193,-313l2,-249l46,-67l-28,-85l84,-82l-60,-131l-5,-165l-45,-27l1,-123l-99,-246l74,-322l-133,-126l-44,-240l-98,-25l-81,-80l-86,-144l68,-107l-6,-131l19,-284l-70,-105l87,-58l-34,-125l53,-41l-33,-144l-5,-331l32,-117l-69,-144l31,-199l75,-49l-33,-123l63,-101l60,-16l124,-195l16,-142l-28,-167l-86,-192l-75,-14l21,-105l-32,-82l76,-122l-40,-85l-2,-203l44,-97l59,-13l-8,-99l80,-31l-12,-130l-103,-83l-5,-62l58,-62l-18,-72l-132,-60l6,-83l-53,-55l34,-153l76,-122l-92,-66l85,-39l-9,-97l112,-126l16,-118l150,-77l-46,-118l29,-179l-58,-127l85,-61l62,26l94,-59l31,57l136,56l48,125l-37,227l60,193l68,4l60,139l303,-100l42,70l208,172l47,122l69,14l145,186l52,231l83,65l31,105l104,122l46,-4l91,84l28,84l72,93l221,128l69,82l32,138l50,26l47,132l93,28l319,159l139,250l26,108l-24,79l91,125l-4,74l45,70l-14,107l56,69l-10,67l52,253l-53,69l6,164l105,159l26,228l46,185l58,150l99,114l19,81l66,97l119,310l69,99l-11,126l31,241l-8,133l-130,165l-1,105l134,129l20,63l-9,198l136,25l197,163l169,46l50,77l-126,250l43,164l141,144l22,110l-23,53l68,138l59,49l450,-746l210,-131l103,-25l189,63l82,103l-23,66l48,64l160,104l70,-8l83,-80l60,-3l62,-76l109,-35l88,-150l75,-74l196,-31l57,14l160,101l92,5l63,45l42,91l203,123l72,107l100,-5l156,131l401,208l-22,61l105,23l-7,77l75,97l180,-59l86,14l31,66l149,113l105,8l101,99l284,16l140,133l249,2l15,107l155,48l103,-54l75,9l73,-53l52,37l100,-100l120,29l218,-114l38,-57l144,24l-10,58l70,70l167,73l99,-12l32,-81l245,-35l83,-89l147,19l83,58l194,54l121,-230l172,-15l22,98l126,53l2,130l89,27l55,60l132,-10l50,-57l79,-6l106,-226l80,-41l72,-101l73,-47l38,-100l76,15l44,107l-2,89l100,86l89,-86l106,-40l252,87Z" /><path id="1600212" d="M-500672,12168l-89,-12l-218,-71l-224,-45l-145,26l-102,138l-16,102l28,126l109,240l86,128l12,141l-10,197l-78,152l-109,38l-179,-52h-69l-254,50l-211,23l-72,-9l-565,-159l-143,-126l-90,-140l-50,-122l2,-66l88,-235l138,-195l33,-100l-21,-109l-60,-86l-90,-62l-112,-183l-171,-31l-133,-54l-296,31l-80,99l-193,120l-176,-45l-98,-4l-99,-27l-177,-152l-104,-124l-100,-356l35,-253l-29,-103l-140,-171l-208,-117l-219,-148l-97,32l-37,118l5,136l-157,214l-90,-1l-112,-146l-89,-29l-55,31l-73,145l-124,26l-134,-54h-87l-95,-82l-26,-85l64,-197l63,-90l-20,-144l-103,-44l-97,-8l-88,28l-107,166l-91,100l-145,38l-213,-165l-112,-20l-214,28l-190,-79l-255,-41l-129,-121l-75,-188l6,-79l56,-109l-33,-105l-134,-86l-287,-72l-144,27l-48,43l-25,125l-68,152l-99,48l6,-60l-74,-91l-74,-156l-128,-70l-42,-145l20,-71l78,-82l-23,-85l68,-115l-39,-97l-239,-37l-58,-65l24,-98l-96,-149l11,-189l-21,-134l234,-180l120,-74l222,-55l73,-1l78,19l156,85l152,106l300,73l139,145l89,28l93,-50l20,-75l153,-86l178,33l73,-67l267,-19l150,53l74,109l207,89l86,75l-15,43l59,148l135,100l18,-47l234,-48l66,-82l85,307l64,-46l42,-165l83,-80l107,110l87,23l97,-56l127,61l119,-34l145,138l60,109l102,125l22,68l-46,50l68,56l207,-17l131,-85l92,42l72,104l97,-21l37,111l-9,81l73,26l88,87l81,-30l67,-86l48,-135l66,-40l82,13l50,-83l121,70l-9,75l94,11l30,-58l159,-87l144,192l200,-5l772,680l439,382l-69,84l33,60l3,144l112,189l162,47l133,-3l79,150l16,119l189,109l90,-7l112,136l83,41l103,169l126,279l18,146Z" /><path id="1600238" d="M-508930,9934l-312,-12l-68,-23l-140,40l-143,-105l-230,-15l-68,-61l-24,-84l31,-149l-135,-116l-96,64l-40,160l-109,132l81,94l-63,35l-117,10l31,93l-27,64l-142,45l-81,80l-142,-6l-39,51l-115,15l-64,-38l-341,-111l-225,215l-116,4l-116,40l-86,-6l-66,-86l-139,-231l-14,-70l-74,-34l-165,-285l-66,-51l-115,59l16,74l-131,8l-47,55l-112,-25l-200,-11l-94,145l-77,-61l-107,-30l-211,10l-57,-106l-73,-35l39,-98l-21,-93l-73,-29l-67,88l-100,-40l-89,89l42,137l-78,58l-56,-8l-42,97l-92,99l28,530l-60,46l-156,64l-384,60l-161,199l123,174l167,91l4,181l53,28l27,87l-31,55l38,115l-5,215l96,49l-12,200l-51,59l11,120l-31,108l-91,58l147,135l40,-16l79,108l203,55l63,71l-54,58l162,402l-1119,9l-4897,-70l82,-35l-6,-144l-41,-134l-136,-54l-22,-144l62,-81l-28,-230l131,-126l-163,-101l-62,-235l66,-95l122,4l7,-88l-63,-35l44,-70l118,-41l-151,-98l13,-92l125,-39l-28,-131l55,-151l5,-135l-41,-65l-10,-111l56,-34l-85,-106l28,-66l318,56l23,-96l101,-85l197,154l-74,64l80,88l97,-59l-22,-88l90,-106l94,-14l50,108l61,-58l-35,-93l92,-48l87,32l68,-24l17,-98l184,124l51,-88l0,-129l69,-90l121,-47l-9,-110l40,-66l-23,-99l129,-17l39,69l28,150l123,-20l55,31l114,-96l116,11l18,-55l-59,-82l184,36l38,41l221,115l84,-51l31,-127l74,17l51,86l11,201l44,63l85,-9l99,-243l-47,-70l73,-198h85l88,-71l68,8l123,-65l106,-83l20,-69l189,-91l17,-74l-93,-90l4,-173l-65,-82l-144,-41l-29,-128l35,-146l80,-159l86,-23l9,84l53,69l183,33l133,90l120,42l185,139l156,-52l118,58l260,-236l-45,-117l58,-165l38,-193l80,-151l76,-49l107,-177l181,-50l115,-164l297,-125l72,50l89,-4l98,68l35,123l-60,98l175,107l150,-440l-190,-133l-52,-183l-72,-83l124,-381l279,-135l156,-51l332,-60l176,-79l109,-129l519,-172l48,-62l157,-86l79,-77l172,-44l52,-44l7,-118l76,-110l151,-100l-57,-144l302,-409l70,-54l102,9l61,-64l32,-104l147,-34l167,-153l-43,-128l81,67l100,-20l-29,253l38,61l139,-33l47,237l88,167l87,-9l172,73l58,-32l117,21l176,-53l157,181l-174,96l-90,-2l-221,149l-53,94l-81,19l-50,142l-84,88l38,235l87,80l-1,213l-75,183l57,242l83,89l18,92l58,96l608,319l85,140l-61,106l-50,148l14,65l144,126l134,-133l-2,247l-73,1l-222,55l-120,74l-234,180l21,134l-11,189l96,149l-24,98l58,65l239,37l39,97l-68,115l23,85l-78,82l-20,71l42,145l128,70l74,156l74,91l-6,60Z" /><path id="1600253" d="M-504099,6233l-330,384l-23,71l55,52l27,112l-20,105l-125,98l-53,106l1,138l-159,17l-80,-15l-47,82l-86,10l-39,149l-197,80l-111,-25l-197,83l-70,-29l-149,50l-21,-193l39,-69l-112,-94l-9,80l-139,43l-66,48l-134,5l-64,-177l7,-226l-22,-48l68,-74l-8,-73l-96,-42l-6,-123l35,-61l-41,-287l21,-65l-68,-96l-90,-13l-11,-70l-72,-103l48,-33l-87,-101l-64,66l18,59l-118,85l-28,154l-70,2l-9,-88l-63,-76l-144,-5l-129,300l-126,-42l-68,33l-139,14l-22,105l-88,72l-190,239l-6,112l-313,256l-52,118l-89,54l-50,131h-123l-99,36l-408,-807l-170,114l-73,-12l-88,-113l-165,-37l60,-157l91,-52l52,-114l4,-134l98,-225l23,-96l11,-242l96,-28l100,99l101,42l103,-11l217,-116l-24,-98l130,-53l105,13l102,-127l62,-134l116,-17l78,130l115,77l70,-15l68,-93l11,-77l-38,-75l60,-34l-12,-84l96,8l-50,-98l47,-174l109,-92l94,23l16,-151l66,14l13,-113l78,-18l54,-80l114,-24l-85,-116l57,-92l104,48l74,-90l-73,-138l-98,-6l-84,-119l140,-14l94,-41l-15,-215l43,-88l-62,-116l-84,-27l-83,62l-129,-158l77,-57l47,-221l599,-898l212,231l168,139l71,37l34,10l165,196l268,425l137,333l154,266l49,214l113,238l37,175l146,183l132,281l49,182l1,133l39,179l150,401l158,291l114,115l152,117Z" /><path id="1600279" d="M-532792,21860l-78,106l70,82l37,204l89,-15l67,121l10,171l64,-64l157,124l81,35l-52,130l-112,-23l-162,32l12,118l-166,108l-53,109l-148,1l-105,78l-84,124l-5,97l-63,73l-102,-26l-47,91l-101,11l-117,-54l0,-155l-76,-132l-96,-28l-86,-94l-131,-2l-62,-107l-102,-3l-65,-74l-118,-19l-68,-76l-209,107l-84,-22l41,-119l112,-68l-43,-90l-144,-44l-123,82l-100,-39l-145,10l-103,45l-113,-88l-184,6l-177,132l-106,13l-60,-39l-117,105l-22,51l-119,25l-93,-86l-69,62l-301,-1l30,179l-106,30l-183,-42l-40,-66l-93,177l-122,-32l-58,34l-135,19l-56,-54l-162,38l3,97l78,24l26,131l74,25l52,86l-130,132l-31,127l-164,1l-92,38l-61,-53l-108,-9l-68,-80l-87,3l-59,-75l-77,-30l-14,-121l-182,-12l-42,-76l53,-55l137,-11l31,-100l-91,6l-52,-42l-147,-41l-85,10l-72,97l-63,-84l-54,47h-126l-59,-122l20,-53l-200,-248l-86,32l4,135h-136l-125,-126l64,-187l-70,-69l3,-101l-106,29l-142,-22l-77,-107l-151,50l-112,-74l-1879,-512l-2475,311l-1651,1273l-605,-102l-299,344l58,498l14,356l-591,247l-534,-325l-749,-53l-40,-70l16,-114l86,-124l235,-229l350,-383l25,-125l89,-112l4,-85l-62,-18l-52,-98l43,-78l-62,-37l-23,-200l125,-208l123,-133l50,-89l65,-31l45,-119l75,-61l3,-103l-67,-44l16,-67l-153,-67l-3,-101l-150,-140l-78,-112l27,-66l-56,-95l45,-149l-91,-71l58,-123l18,-121l-59,-54l-7,-82l68,-91l-13,-163l35,-116l88,-90l40,-95l101,-77l119,-34l-2,-116l132,-104l1,-139l-76,-99l-67,-247l83,-201l-16,-131l44,-23l60,-145l-1,-247l93,-81l54,-181l-122,-106l38,-84l-75,-80l80,-114l16,-106l187,-19l24,-26l285,22l30,-56l132,10l78,-32l196,60l80,-31l177,120l142,-13l98,53l76,-44l132,-25l53,22l116,-56l337,-72l65,-111l222,-49l59,-42l103,44l143,2l7,42l134,26l226,-42l99,63l68,-38l140,32l165,-146l83,122l93,17l181,-50l102,-143l119,40l62,-63l65,-7l165,-130l72,22l236,-212l69,-164l183,-123l143,-1l17,-107l91,-85l92,-24l92,-88l34,-138l101,-38l-9,112l25,145l74,37l23,-94l72,-40l252,-34l13,-121l96,-14l-7,-100l104,-97l5,-56l-88,-49l86,-60l42,-94l75,65l92,-37l-85,-93l-71,-168l30,-70l157,-7l142,-242l-44,-126l38,-82l-35,-135l195,90l68,-63l104,-2l120,117l154,-63l43,159l73,42l68,-27l67,-125l-35,-99l12,-113l71,-88l85,42l101,-67l90,121l126,-73l4,-91l105,33l177,-58l-47,-78l2,-78l-80,-39l33,-96l126,59l50,146l54,15l161,-33l28,-117l125,-32l34,-85l-105,-239l50,-71l65,68l116,-15l97,-44l107,47l4,-120l131,-4l72,-43l165,22l-4,102l-153,118l71,81l117,16l155,-103l48,-103l156,-70l56,125l74,-138l228,-83l9,95l160,96l-6,125l-81,103l69,36l67,-52l106,-18l41,-67l-108,-110l-68,-107l19,-124l100,-61l140,79l45,-14l25,-119l156,27l23,179l74,136l106,-12l37,-170l-42,-83l16,-163l-179,-189l104,-88l91,-12l87,124l206,38l174,70l110,-109l135,-100l52,25l16,99l154,-12l100,-76l51,-185l-107,-68l-126,-24l-59,-66l34,-160l65,-103l151,-25l71,-42l72,-123l-73,-160l-157,-168l10,-70l63,-91l138,-7l222,130l100,20l193,126l228,-66l121,-6l123,106l4,-168l87,-231l144,-89l69,-146l-7,-89l-53,-164l-54,-50l-138,-16l-134,63l-97,-24l-90,-77l-58,-99l33,-233l1,-330l31,-62l167,-116l13,-116l72,-47l52,-96l-76,-139l31,-274l93,-31l67,-73l-20,-103l21,-151l-30,-92l22,-181l120,-101l381,-231l65,-78l329,-163l197,-130l148,-133l170,-221l154,-144l208,-116l440,-292l18,-132l39,-77l126,-105l146,-79l63,-97l42,-196l70,-67l158,43l184,-179l-87,-179l-8,-146l-75,-169l-76,-71l-38,-83l-132,-144l-62,-238l-13,-131l66,-113l-2,-104l-37,-98l-106,-94l31,-87l-102,-201l103,-55l44,-80l-88,-273l-38,-72l25,-135l60,-119l-20,-218l-141,-168l3,-46l86,-145l151,-107l79,-169l69,-90l-1,-168l52,-130l195,-97l35,-82l143,-193l-118,-217l116,-420l109,-67l133,-191l180,-122l26,-83l99,-130l31,-162l72,-151l182,-97l-39,-353l113,-158l142,-51l61,-54l75,-149l-14,-188l22,-221l61,-274l90,-134l108,-339l119,-261l46,-191l287,-126l64,4l158,108l101,10l202,-75l67,-95l87,-264l196,-125l561,-390l39,-85l21,-161l142,-144l240,-161l153,-1l91,-69l76,-146l24,-257l-33,-122l-109,-198l-13,-209l162,-222l19,-86l-80,-140l-59,-45l-96,-170l117,-180l-48,-129l4,-63l132,-199l149,-88l-25,-131l298,-467l108,-89l162,-11l141,98l131,65l95,22l411,23l120,-150l57,-240l43,-65l31,-318l-24,-137l21,-141l87,-136l43,-185l-5,-194l-39,-161l-164,-287l-46,-206l58,-129l-248,-275l-20,-150l63,-69l138,-8l126,25l143,72l125,28l210,82l78,82l584,237l96,-43l153,124l120,5l62,-38l109,39l170,9l50,-23l131,19l214,-4l202,-49l189,-100l136,-14l16,-53l331,-148l82,-8l101,-110l-20,-70l114,-211l82,-58l24,-82l84,-121l183,-143l102,26l118,-26l273,57l213,-139l67,57l-22,52l93,76l178,29l82,119l60,-33l174,59l76,79l85,12l80,105l209,-24l122,-36l52,29l-55,47l32,64l-97,22l-80,146l92,187l67,62l34,130l-76,73l15,156l92,141l-133,136l-132,93l-67,-22l-102,232l23,72l-29,142l-79,152l-352,68l-130,220l-93,18l13,71l-126,87l44,81l-7,124l-65,74l107,82l-14,85l-157,322l-112,-18l-111,21l7,88l117,61l-20,110l47,83l-119,153l89,88l-24,75l113,67l51,148l-78,23l7,141l-94,25l-37,103l10,132l-35,42l24,108l-52,359l58,84l-52,131l53,250l-66,62l-89,2l-85,78l-2,50l-97,87l-107,177l-121,74l-74,-19l-236,132l-112,38l-46,60l-128,55l-259,6l-133,-31l-282,25l-143,57l-74,-9l-448,488l-66,137l0,188l-99,146l-45,133l-203,57l-205,126l-147,27l-51,58l-231,83l-266,18l-195,-29l-176,-65l-116,-112l-102,-142l-114,-36l-50,33l-144,-34l-37,161l35,150l73,4l-104,175l144,9l80,78l40,91l-54,148l67,131l-12,68l68,55l-65,132l69,86l164,6l-28,177l-76,30l102,159l-121,120l71,83l-59,100l39,57l-39,69l106,72l10,114l-77,79l48,161l19,303l60,23l29,123l-36,153l84,92l21,132l-106,186l91,36l36,93l-147,97l47,74l-11,92l107,66l-40,54l35,92l-58,112l-1,77l-137,223l-44,4l-203,284l-63,143l-157,51l-77,114l36,117l-129,19l-27,91l48,169l-15,65l-117,217l-111,80l15,84l-113,166l-67,246l-130,36l-143,101l63,107l-191,130l-26,62l-81,38l-4,117l-58,24l-13,86l-113,169l6,91l-45,49l20,184l-92,254l47,158l-2,104l37,148l-1,227l70,140l19,100l-21,286l-86,106l-390,160l-194,139l-99,104l9,169l-44,61l98,234l-140,75l-105,153l-103,30l-92,62l-82,-62l-77,2l-88,-53l-70,16l-52,161l-84,59l21,155l106,171l20,101l-19,165l-60,27l-114,-88l-95,23l-157,138l-94,213l-15,118l58,104l-72,302l-112,87l-31,127l23,190l-32,75l-186,79l-177,187l-152,87l-143,30l-39,91l-55,592l-31,111l78,225l-2,110l63,188l52,71l210,-6l54,138l-37,204l26,187l100,163l32,236l90,138l136,143l41,78l104,339l88,166l-19,242l34,135l1,114l43,137l-3,133l-50,155l-107,115l-173,90l-194,35l-135,-12l-69,-43l-159,1l-126,46l-123,151l-67,231l-68,109l-38,187l15,216l74,321l45,116l97,85l-26,173l-81,136l-35,141l-50,98l-141,71l-58,113l-22,130l37,135l98,77l29,142l-159,179l-80,34l-63,109l15,113l-23,91l-148,233l-5,92l-99,65l-68,202l2,127l-81,-39l-112,81l-54,134l-102,130l-167,34l-32,48l-25,216l-33,47l-120,56l-29,65l-3,182l-36,117l-7,126l39,253l-41,93l-63,37l-209,66l-102,95l-154,50l-106,80l-149,23l-169,74l-126,76l-229,196l-93,154Z" /><path id="1600303" d="M-499016,12403l-471,-83l-392,-102l-539,-76l-254,26l-18,-146l-126,-279l-103,-169l-83,-41l-112,-136l-90,7l-189,-109l-16,-119l-79,-150l-133,3l-162,-47l-112,-189l-3,-144l-33,-60l69,-84l-439,-382l-772,-680l-200,5l-144,-192l-159,87l-30,58l-94,-11l9,-75l-121,-70l-50,83l-82,-13l-66,40l-48,135l-67,86l-81,30l-88,-87l-73,-26l9,-81l-37,-111l-97,21l-72,-104l-92,-42l-131,85l-207,17l-68,-56l46,-50l-22,-68l-102,-125l-60,-109l-145,-138l-119,34l-127,-61l-97,56l-87,-23l-107,-110l-83,80l-42,165l-64,46l-85,-307l-66,82l-234,48l-18,47l-135,-100l-59,-148l15,-43l-86,-75l-207,-89l-74,-109l-150,-53l-267,19l-73,67l-178,-33l-153,86l-20,75l-93,50l-89,-28l-139,-145l-300,-73l-152,-106l-156,-85l-78,-19l2,-247l-134,133l-144,-126l-14,-65l50,-148l61,-106l-85,-140l-608,-319l-58,-96l-18,-92l-83,-89l-57,-242l75,-183l1,-213l-87,-80l-38,-235l84,-88l50,-142l81,-19l53,-94l221,-149l90,2l174,-96l-157,-181l-176,53l-117,-21l-58,32l-172,-73l-87,9l-88,-167l-47,-237l-139,33l-38,-61l29,-253l-100,20l-81,-67l-76,145l-51,45l-199,-49l-127,-96l-66,-125l-69,-43l-98,-170l29,-87l-26,-93l-97,-153l-17,-124l-47,-31l-39,-107l61,-65l23,-99l-107,-91l-38,48l-181,38l-156,-108l-153,108l-147,-5l-59,259l59,141l-31,124l20,84l-99,203l-186,61l-27,90l-59,15l-30,118l-119,169l-34,102l-140,2l-109,87l-148,33l-76,86l-116,1l-100,-79l-139,86l-228,117l-158,25l-180,-50l-91,-2l-55,101l-86,91l-164,62l-75,-56l-115,17l-99,-112l16,-115l-50,-70l-113,29l-76,-111l114,-34l62,-165l-34,-56l-89,-16l-31,-75l166,-71l104,7l69,-187l-7,-152l50,-61l66,-156l114,-65l193,25l52,-87l82,-59l122,-157l42,-241l48,-60l77,2l110,-142l5,-64l162,-184l19,-112l98,-183l84,-108l77,-32l97,-131l176,-72l-16,-75l136,-99l77,-230l114,13l68,91l56,-25l198,12l56,-55l224,-55l87,-57l13,-150l29,-73l-59,-209l-24,-153l-40,-72l-129,-138l-102,-10l33,-90l-56,-76l-124,-22l-74,-91l13,-179l128,32l-57,-156l58,-49l88,26l165,-66l5,-87h984l-13,-114l-123,-64l-149,-46l-110,-108l83,-121l-42,-115l222,-407l260,86l116,25l119,73l293,356l223,328l98,104l106,38l118,259l103,124l286,209l251,134l492,131l229,51l642,178l228,89l185,95l247,165l178,146l328,234l234,237l-599,898l-47,221l-77,57l129,158l83,-62l84,27l62,116l-43,88l15,215l-94,41l-140,14l84,119l98,6l73,138l-74,90l-104,-48l-57,92l85,116l-114,24l-54,80l-78,18l-13,113l-66,-14l-16,151l-94,-23l-109,92l-47,174l50,98l-96,-8l12,84l-60,34l38,75l-11,77l-68,93l-70,15l-115,-77l-78,-130l-116,17l-62,134l-102,127l-105,-13l-130,53l24,98l-217,116l-103,11l-101,-42l-100,-99l-96,28l-11,242l-23,96l-98,225l-4,134l-52,114l-91,52l-60,157l165,37l88,113l73,12l170,-114l408,807l99,-36h123l50,-131l89,-54l52,-118l313,-256l6,-112l190,-239l88,-72l22,-105l139,-14l68,-33l126,42l129,-300l144,5l63,76l9,88l70,-2l28,-154l118,-85l-18,-59l64,-66l87,101l-48,33l72,103l11,70l90,13l68,96l-21,65l41,287l-35,61l6,123l96,42l8,73l-68,74l22,48l-7,226l64,177l134,-5l66,-48l139,-43l9,-80l112,94l-39,69l21,193l149,-50l70,29l197,-83l111,25l197,-80l39,-149l86,-10l47,-82l80,15l159,-17l-1,-138l53,-106l125,-98l20,-105l-27,-112l-55,-52l23,-71l330,-384l120,93l393,275l114,67l186,75l348,90l351,75l326,54l-51,339l108,130l543,113l127,-47l415,107l145,66l257,292l349,363l114,156l51,107l319,160l23,85l-61,128l-103,103l135,331l222,42l227,157l96,116l71,137l376,289l51,335l-10,190l21,115l-27,103l2,233l30,579l-114,131l-31,94l5,147l-32,66l-13,274Z" /><path id="1600402" d="M-523481,4325l-36,62l-158,112l-93,15l-19,73l-81,93l3,168l-91,22l-2,117l-155,54l-56,66l-12,257l42,86l-36,66l-105,64l-104,118l-187,26l-97,102l-10,157l-130,181l-8,155l-88,70l-131,33l-36,85l75,65l-14,151l-49,58l-135,51l-46,95l-90,47l-135,235l-122,40h-102l-84,133l-65,35l-131,-4l-133,-31l-73,59l-12,154l-135,150l-125,17l-170,158l-42,164l56,217l-29,38l-122,-76l-43,27l-152,-40l-272,15l-46,-60l-161,-60l-102,93l-9,-169l99,-104l194,-139l390,-160l86,-106l21,-286l-19,-100l-70,-140l1,-227l-37,-148l2,-104l-47,-158l92,-254l-20,-184l45,-49l-6,-91l113,-169l13,-86l58,-24l4,-117l81,-38l26,-62l191,-130l-63,-107l143,-101l130,-36l67,-246l113,-166l-15,-84l111,-80l117,-217l15,-65l-48,-169l27,-91l129,-19l-36,-117l77,-114l157,-51l63,-143l203,-284l44,-4l137,-223l1,-77l58,-112l-35,-92l40,-54l-107,-66l11,-92l-47,-74l147,-97l-36,-93l-91,-36l106,-186l-21,-132l-84,-92l36,-153l-29,-123l-60,-23l-19,-303l-48,-161l77,-79l-10,-114l-106,-72l39,-69l-39,-57l59,-100l-71,-83l121,-120l-102,-159l76,-30l28,-177l-164,-6l-69,-86l65,-132l-68,-55l12,-68l-67,-131l54,-148l-40,-91l-80,-78l-144,-9l104,-175l-73,-4l-35,-150l37,-161l144,34l50,-33l114,36l102,142l116,112l176,65l195,29l266,-18l231,-83l51,-58l147,-27l205,-126l203,-57l45,-133l99,-146l0,-188l66,-137l448,-488l74,9l143,-57l282,-25l133,31l259,-6l128,-55l46,-60l112,-38l236,-132l74,19l121,-74l107,-177l97,-87l2,-50l85,-78l89,-2l66,-62l-53,-250l52,-131l-58,-84l52,-359l-24,-108l35,-42l-10,-132l37,-103l94,-25l-7,-141l78,-23l-51,-148l-113,-67l24,-75l-89,-88l119,-153l-47,-83l20,-110l-117,-61l-7,-88l111,-21l112,18l157,-322l14,-85l-107,-82l65,-74l7,-124l-44,-81l126,-87l-13,-71l93,-18l130,-220l352,-68l79,-152l29,-142l-23,-72l102,-232l67,22l132,-93l133,-136l-92,-141l-15,-156l76,-73l-34,-130l-67,-62l-92,-187l80,-146l97,-22l-32,-64l55,-47l82,-83l83,-8l-10,95l80,-8l-32,-89l84,-3l2,83l85,-14l-27,-111l230,-49l-17,90l224,-134l21,-95l74,11l129,-72l139,-3l31,121l56,101l-107,82l39,106l120,57l95,-3l77,-50l63,97l158,-101l110,72l202,-8l-45,57l88,44l49,-64l-2,331l100,169l134,75l230,52l43,102l78,92l92,178l282,478l139,193l79,149l167,259l239,273l323,298l131,131l111,142l142,121l142,83l85,113l204,211l253,399l41,114l47,253l70,123l129,96l252,271l161,195l5,93l75,403l67,189l157,258l91,100l205,112l129,245l296,411l28,64l162,244l60,126l186,250l83,16l-38,191l-61,105l-158,36l-183,-7l-177,-73l-142,112l-76,22l-117,-11l-135,49l-85,-75h-70l-184,56l-127,74l-117,-25l-189,37l-82,44l-29,128l-125,26l-63,79l-104,58l-39,241l-66,51l-32,156l-65,41l-151,28l-194,101l-13,101l-160,54l-142,20l-98,52l-47,130l24,110l-17,87l-75,58l-67,135l-136,108l60,32l-103,170l44,33l-33,106l-79,-24l-47,176l71,32l-19,256l34,262l-75,2l31,105l-175,122l-177,52l-16,89l-137,161l-54,-19l-114,112l-104,68l-223,95l6,57l-131,147l-76,34l32,152l96,152l-56,27l-77,242l52,61l-78,142l-81,14l-116,109l-217,-88l-91,51l-128,4l-34,88l-163,101l-82,86l-47,98l-233,68l-225,-140l-127,13l-98,-37l-130,94l-138,50l-115,-75l-81,77l-244,-33l-215,29l-6,102l-96,6l-195,75l-93,55l-277,65l-96,-85l-111,96l-83,26l-57,65l-185,54l-167,121l-169,20l-92,-122l-123,-21l-171,-75l-80,-106l-110,-70l-99,-1l-61,-49l-107,-2l-92,-59l-15,-155l-236,-265l-86,-134l-43,-110l37,-84l-9,-174l-69,-17l-237,52l-151,12l-144,222l-224,-148l-51,58l-138,7l-16,175l-82,51l-2,78l73,63l25,187l-109,-70Z" /><path id="1600501" d="M-511508,39138l-285,57l-11,77l12,240l-17,114l37,180l-11,228l26,75l-50,169l-78,491l-99,255l9,38l-189,438l-289,415l-68,118l-117,130l-75,177l-121,163l-138,109l-224,237l-183,253l-137,95l-145,164l-193,170l-88,119l-170,120l-106,101l-239,169l-402,332l-258,104l-1259,612l-244,-381l-74,-169l56,-303l-102,-294l-52,-280l24,-334l76,-229l199,-425l262,-417l42,-158l-30,-147l-94,-91l-37,-97l-26,-430l-46,-170l-55,-368l-84,-256l-196,-178l-265,-117l-65,-64l-79,-21l-129,-78l-162,-66l-126,-93l-62,-81l-113,-76l-65,-124l-9,-176l25,-41l-6,-172l-173,-382l-145,-138l-92,-54l-11,-92l-135,-80l-195,-179l-76,-108l-100,-187l-103,-18l-17,-67l-118,35l18,-123l-86,-49l-133,9l-87,-146l56,-80l49,-136l-28,-141l-61,-94l-106,-28l-137,31l-65,-21l-168,-149l-51,-202l-88,-132l-4,-180l-66,-112l47,-160l-138,-177l-166,-154l-138,-230l-64,-134l-217,-383l-100,-15l6,-111l-97,-142l-66,-27l-72,-145l-12,-133l-135,-107l-131,-274l-75,-109l-91,-191l-117,-181l-8,-44l-116,-203l-76,-68l-72,-174l-94,-66l-34,-101l10,-79l-140,-146l-74,-101l-127,-234l-104,-133l-91,-33l-74,135l-104,21l-30,-74l-125,-107l-165,-85l-9,-92l-93,-172l33,-218l-39,-52l-92,22l-170,-82l-59,-157l-54,-69l64,-99l-149,6l-21,-121l132,-55l-69,-91l-4,-107l73,-90l113,-82l-8,-92l-178,-289l-70,-194l-96,-59l-43,-218l-48,-44l28,-71l-22,-78l-125,-255l-92,-27l26,-74l-53,-89l68,-140l95,-37l-114,-156l-298,-50l-157,-295l-94,-136l-81,-222l-204,-340l-43,-121l23,-183l-159,-347l-86,-75l-67,-218l-136,-172l9,-57l-79,-125l-20,-125l-127,24l-84,-51l-51,-94l42,-83l58,-3l32,-89l-76,-111l180,-120l47,-165l-106,-153l9,-85l-136,29l-101,-148l48,-127l55,-16l-14,-115l-135,-46l-235,-239l-89,-171l-192,4l-49,-60l1,-76l103,-66l-51,-99l-203,-10l1,-45l-98,-80l17,-138l-123,-142l29,-84l-65,-217l-133,-51l-123,-16l-239,-86l-89,-87l22,-62l-230,-68l-93,-81l-294,-109l-252,-184l-149,-49l-236,-35l40,-99l-147,-23l-11,-153l-186,-55l-3,-116l-44,-82l-82,-55l-21,-93l-135,-250l-32,-101l-144,39l-69,-20l-90,39l-45,-44l8,-92l-185,-77l-28,24l-284,-69l-90,80l-153,18l-61,38l-206,34l-140,46l-116,98l-199,128l-150,16l-185,-25l-207,1l-244,-72l-123,-5l-98,-50h-232l-123,-56l-78,42l-46,76l-97,22l-38,-86l-90,-13l-23,-62l-76,-27l-74,27l-63,-55l93,-154l229,-196l126,-76l169,-74l149,-23l106,-80l154,-50l102,-95l209,-66l63,-37l41,-93l-39,-253l7,-126l36,-117l3,-182l29,-65l120,-56l33,-47l25,-216l32,-48l167,-34l102,-130l54,-134l112,-81l81,39l74,198l96,104l164,41l169,-25l84,-165l12,-71l168,-53l205,13l100,-48l106,-1l121,42l56,-77l92,60l47,85l90,79l-36,85l-36,211l42,49l-52,94l132,194l60,37l89,-11l127,-59l66,138l44,21l119,-63l78,20l83,154l-19,151l-80,22l60,128l200,26l53,-21l108,-110l110,46l114,-28l141,45l29,-100l100,32l183,19l137,-101l169,40l67,-39l107,64l-18,-121l60,-36l87,32l113,-121l63,71l76,-31l84,-156l178,-82l46,-118l184,-95l8,89l183,61l89,-22l75,54l58,-121l72,47l107,8l36,70l80,50l116,12l115,126l145,-35l134,20l46,-38l97,64l182,30l141,-99l44,35l88,-92l51,63l-53,182l-11,134l30,83l-56,45l51,128l113,69l70,2l126,93l83,98l39,-10l84,112l40,123l81,-16l73,126l208,58l195,-37l87,38l99,-18l122,33l32,43l133,45l56,201l77,43l71,-59l119,13l-80,103l-156,20l-39,73l41,182l-60,119l99,96l83,161l66,8l89,-48l67,46l98,-47l56,14l38,179l98,-10l-37,157l79,90l117,-45l93,14l51,58l-34,118l130,67l108,107l-8,55l116,166l-60,123l51,134l2,110l60,74l178,-20l37,107l69,-80l121,-74l129,-29l87,104l35,164l15,178l33,32l213,-49l58,22l51,34l61,-66l96,-30l9,-58l-90,-38l76,-154l109,105l129,-17l162,-79l-7,-75l37,-156l45,-60l71,12l66,-85l46,64l146,-203l191,10l27,-125l59,-43l106,64l103,20l37,106l93,48l15,49l-34,129l-74,34l-5,86l140,26l279,-242l151,36l47,105l45,20l127,-90l144,15l171,224l-9,78l62,59l-13,70l94,30l109,82l73,157l53,10l148,159l117,168l20,94l4,227l84,125l79,2l182,54l44,73l91,249l-100,147l-79,34l53,124l61,35l59,178l52,-15l30,128l96,44l22,69l81,74l70,14l-14,114l115,121l78,47l177,196l57,-4l47,148l55,87l6,121l66,81l48,114l76,51l8,103l70,122l60,3l-20,137l27,110l-81,183l112,4l1,60l334,84l61,149l164,40l-109,68l48,66l122,-21l93,43l-20,52l104,63l-49,107l30,102l134,84l-62,56l6,94l-81,1l-21,80l171,88l18,113l134,177l71,57l-27,66l108,134l-58,218l323,7l-123,84l110,94l85,118l118,45l107,-1l122,91l15,124l45,4l94,-93l215,243l6,63l-42,207l246,-45l113,38l123,139l59,168l-95,-2l-16,74l33,73l-60,75l56,51l-90,114l138,119l36,98l76,-182l97,105l-45,124l316,105l51,106l16,296l112,273l-6,253l14,194l-52,105l-1,219l-41,303l-71,11l-15,322l12,128l54,253l2,216l32,354l-13,126l6,389l-44,436l-33,152l-86,194l7,114l48,178l17,282l86,248l62,319l28,289l48,254l59,406l125,459Z" /><path id="1600535" d="M-510483,4233l43,128l-167,153l-147,34l-32,104l-61,64l-102,-9l-70,54l-302,409l57,144l-151,100l-76,110l-7,118l-52,44l-172,44l-79,77l-157,86l-48,62l-519,172l-109,129l-176,79l-332,60l-156,51l-279,135l-124,381l72,83l52,183l190,133l-150,440l-175,-107l60,-98l-35,-123l-98,-68l-89,4l-72,-50l-297,125l-115,164l-181,50l-107,177l-76,49l-80,151l-38,193l-58,165l45,117l-260,236l-118,-58l-156,52l-185,-139l-120,-42l-133,-90l-183,-33l-53,-69l-9,-84l-86,23l-80,159l-35,146l29,128l144,41l65,82l-4,173l93,90l-17,74l-189,91l-20,69l-106,83l-123,65l-68,-8l-88,71h-85l-73,198l47,70l-99,243l-85,9l-44,-63l-11,-201l-51,-86l-74,-17l-31,127l-84,51l-221,-115l-38,-41l-184,-36l59,82l-18,55l-116,-11l-114,96l-55,-31l-1,-57l74,-77l-5,-96l-195,-91l-158,-180l-176,-102l-59,-152l-6,-80l91,-61l120,-41l41,-84l76,20l70,-95l83,2l3,-99l40,-94l101,-80l101,-122l35,-95l-15,-82l31,-175l78,-73l58,-172l-19,-31l102,-222l91,-49l43,-138l-13,-53l103,-89l93,-235l-15,-91l-126,-63l-47,-102l-52,-204l49,-85l-120,-242l-42,-56l-169,-59l-26,62l12,153l49,160l-86,87l-91,-17l-192,-194l-55,14l-84,115l37,221l-28,108l-120,10l-128,-102l-189,7l-92,-91l-168,236l9,87l-101,67l-102,-73l-113,-38l-45,27l-151,-13l-80,-49l-150,11l-95,38l-86,-32l-187,39l-200,-31l-165,-8l-16,-46l-125,-53l-158,-131l-108,-57l-286,-29l2,84l-60,62l-97,-43l-45,-112l53,-110l-147,-215l-156,49l-61,-45l-65,54l-73,-26l-117,80l-33,-79l-64,15l-91,-110l19,-48l-72,-76l-53,-145l-91,-59l-147,17l-43,-80l-138,33l-47,-31l-84,-170l-107,-101l-30,-183l-73,-154l-207,-180l-179,-41l-47,-231l-69,-72l-11,-69l-70,-107l-206,-102l15,-93l109,70l-25,-187l-73,-63l2,-78l82,-51l16,-175l138,-7l51,-58l224,148l144,-222l151,-12l237,-52l69,17l9,174l-37,84l43,110l86,134l236,265l15,155l92,59l107,2l61,49l99,1l110,70l80,106l171,75l123,21l92,122l169,-20l167,-121l185,-54l57,-65l83,-26l111,-96l96,85l277,-65l93,-55l195,-75l96,-6l6,-102l215,-29l244,33l81,-77l115,75l138,-50l130,-94l98,37l127,-13l225,140l233,-68l47,-98l82,-86l163,-101l34,-88l128,-4l91,-51l217,88l116,-109l81,-14l78,-142l-52,-61l77,-242l56,-27l-96,-152l-32,-152l76,-34l131,-147l-6,-57l223,-95l104,-68l114,-112l54,19l137,-161l16,-89l177,-52l175,-122l-31,-105l75,-2l84,29l151,158l19,116l-32,140l141,123l-9,147l60,90l-24,113l-80,95l74,131l-34,83l21,104l-37,64l45,98l-2,211l44,94l-68,64l-23,160l212,104l42,276l21,35l157,72l76,111l113,-29l50,70l-16,115l99,112l115,-17l75,56l164,-62l86,-91l55,-101l91,2l180,50l158,-25l228,-117l139,-86l100,79l116,-1l76,-86l148,-33l109,-87l140,-2l34,-102l119,-169l30,-118l59,-15l27,-90l186,-61l99,-203l-20,-84l31,-124l-59,-141l59,-259l147,5l153,-108l156,108l181,-38l38,-48l107,91l-23,99l-61,65l39,107l47,31l17,124l97,153l26,93l-29,87l98,170l69,43l66,125l127,96l199,49l51,-45l76,-145Z" /><path id="1600550" d="M-505606,14725l27,95l119,29l102,66l0,75l-55,86l102,30l23,60l-97,67l-14,95l31,139l-27,149l-36,51l41,158l-18,145l-84,99l17,102l-67,142l28,181h-94l-87,65l-104,237l7,96l57,47l54,194l-164,190l-135,4l-34,81l-100,-48l-47,77l32,129l-37,117l-117,158l-46,101l-29,179l-66,115l17,59l-482,-1l-146,-39l-77,-94h-165l-73,73l-128,70l-134,-39l-54,102l-80,-15l49,-92l-74,-75l-71,-146l-138,-175l-105,21l32,118l-97,124l-168,-16l-59,89l-98,65l-209,52l-77,-72l-107,49l-148,-63l-97,1l-48,46l-162,32l-119,-36l-165,61l-66,55l-245,-3l-90,100l-107,24l-172,148l-62,27l-121,-52l-78,37l-89,-98l-158,17l-274,-88l-76,-52l-29,90l-178,103l-32,84l-118,27l-26,89l-150,75l-143,-2l-123,-84l-132,56l-138,-63l-62,-59l-92,-31l-106,113l-160,93l-104,24l-118,-23l-109,-120l-61,-111l-60,-54l-111,-16l-131,-100l-45,30l-137,-68l-124,-29l-81,31l58,-176l-28,-166l-129,-106l-11,-113l-219,-110l-69,-98l-98,-75l-68,21l-84,-47l-82,-86l-14,173l-152,119l-159,178l-53,84l-266,219l-116,47l-159,150l-197,5l-175,146l-56,-7l-77,132l-64,50l-135,-25l-203,13l-200,-70l-69,-99l-119,-310l-66,-97l-19,-81l-99,-114l-58,-150l-46,-185l-26,-228l-105,-159l-6,-164l53,-69l-52,-253l10,-67l-56,-69l14,-107l-45,-70l4,-74l-91,-125l24,-79l-26,-108l-139,-250l-319,-159l-93,-28l-47,-132l-50,-26l-32,-138l-69,-82l-221,-128l-72,-93l-28,-84l-91,-84l-46,4l-104,-122l-31,-105l-83,-65l-52,-231l-145,-186l-69,-14l-47,-122l-208,-172l-42,-70l-303,100l-60,-139l-68,-4l-60,-193l37,-227l-48,-125l-136,-56l-31,-57l4897,70l1119,-9l-33,135l21,182l50,172l59,74l-52,120l20,127l102,26l52,69l-33,50l19,109l-102,15l33,99l-20,117l-224,108l29,55l-96,73l29,157l-175,158l45,51l-53,112l-230,65l42,300l-34,110l15,82l-39,108l-86,98l151,82l113,147l-22,77l33,90l137,26l109,53l172,135l330,164l150,41l145,90l113,12l90,-53l128,-10l204,-56l145,-5l42,-73l163,-193l274,-35l58,-157l92,-18l60,72l165,-57l50,-57l19,-143l122,-94l139,52l38,-55l110,-17l95,28l140,-62l90,7l146,97l73,-16l126,86l88,91l42,83l137,136l107,-47l50,-92l-43,-84l30,-53l-19,-111l74,3l81,-74l91,74l80,-120l44,23l206,12l172,106l71,84l82,-74l136,-162l30,-91l196,-27l224,110l62,-21l3004,-1199Z" /><path id="1600600" d="M-511184,-975l-222,407l42,115l-83,121l110,108l149,46l123,64l13,114h-984l-5,87l-165,66l-88,-26l-58,49l57,156l-128,-32l-13,179l74,91l124,22l56,76l-33,90l102,10l129,138l40,72l24,153l59,209l-29,73l-13,150l-87,57l-224,55l-56,55l-198,-12l-56,25l-68,-91l-114,-13l-77,230l-136,99l16,75l-176,72l-97,131l-77,32l-84,108l-98,183l-19,112l-162,184l-5,64l-110,142l-77,-2l-48,60l-42,241l-122,157l-82,59l-52,87l-193,-25l-114,65l-66,156l-50,61l7,152l-69,187l-104,-7l-166,71l31,75l89,16l34,56l-62,165l-114,34l-157,-72l-21,-35l-42,-276l-212,-104l23,-160l68,-64l-44,-94l2,-211l-45,-98l37,-64l-21,-104l34,-83l-74,-131l80,-95l24,-113l-60,-90l9,-147l-141,-123l32,-140l-19,-116l-151,-158l-84,-29l-34,-262l19,-256l-71,-32l47,-176l79,24l33,-106l-44,-33l103,-170l-60,-32l136,-108l67,-135l75,-58l17,-87l-24,-110l47,-130l98,-52l142,-20l160,-54l13,-101l194,-101l151,-28l65,-41l32,-156l66,-51l39,-241l104,-58l63,-79l125,-26l29,-128l82,-44l189,-37l117,25l127,-74l184,-56h70l85,75l135,-49l117,11l76,-22l142,-112l177,73l183,7l158,-36l61,-105l38,-191l364,130l203,8l330,57Z" /><path id="1600709" d="M-505606,14725l-3004,1199l-62,21l-224,-110l-196,27l-30,91l-136,162l-82,74l-71,-84l-172,-106l-206,-12l-44,-23l-80,120l-91,-74l-81,74l-74,-3l19,111l-30,53l43,84l-50,92l-107,47l-137,-136l-42,-83l-88,-91l-126,-86l-73,16l-146,-97l-90,-7l-140,62l-95,-28l-110,17l-38,55l-139,-52l-122,94l-19,143l-50,57l-165,57l-60,-72l-92,18l-58,157l-274,35l-163,193l-42,73l-145,5l-204,56l-128,10l-90,53l-113,-12l-145,-90l-150,-41l-330,-164l-172,-135l-109,-53l-137,-26l-33,-90l22,-77l-113,-147l-151,-82l86,-98l39,-108l-15,-82l34,-110l-42,-300l230,-65l53,-112l-45,-51l175,-158l-29,-157l96,-73l-29,-55l224,-108l20,-117l-33,-99l102,-15l-19,-109l33,-50l-52,-69l-102,-26l-20,-127l52,-120l-59,-74l-50,-172l-21,-182l33,-135l-162,-402l54,-58l-63,-71l-203,-55l-79,-108l-40,16l-147,-135l91,-58l31,-108l-11,-120l51,-59l12,-200l-96,-49l5,-215l-38,-115l31,-55l-27,-87l-53,-28l-4,-181l-167,-91l-123,-174l161,-199l384,-60l156,-64l60,-46l-28,-530l92,-99l42,-97l56,8l78,-58l-42,-137l89,-89l100,40l67,-88l73,29l21,93l-39,98l73,35l57,106l211,-10l107,30l77,61l94,-145l200,11l112,25l47,-55l131,-8l-16,-74l115,-59l66,51l165,285l74,34l14,70l139,231l66,86l86,6l116,-40l116,-4l225,-215l341,111l64,38l115,-15l39,-51l142,6l81,-80l142,-45l27,-64l-31,-93l117,-10l63,-35l-81,-94l109,-132l40,-160l96,-64l135,116l-31,149l24,84l68,61l230,15l143,105l140,-40l68,23l312,12l99,-48l68,-152l25,-125l48,-43l144,-27l287,72l134,86l33,105l-56,109l-6,79l75,188l129,121l255,41l190,79l214,-28l112,20l213,165l145,-38l91,-100l107,-166l88,-28l97,8l103,44l20,144l-63,90l-64,197l26,85l95,82h87l134,54l124,-26l73,-145l55,-31l89,29l112,146l90,1l157,-214l-5,-136l37,-118l97,-32l219,148l208,117l140,171l29,103l-35,253l100,356l104,124l177,152l99,27l68,107l-5,186l-42,95l-98,70l-46,73l-645,1231l-608,1090Z" /><path id="1600808" d="M-517784,-11404l230,262l459,411l91,99l122,240l26,263l-42,153l2,174l-60,555l51,322l-11,256l27,224l7,213l21,47l26,230l-230,-52l-134,-75l-100,-169l2,-331l-49,64l-88,-44l45,-57l-202,8l-110,-72l-158,101l-63,-97l-77,50l-95,3l-120,-57l-39,-106l107,-82l-56,-101l-31,-121l-139,3l-129,72l-74,-11l-21,95l-224,134l17,-90l-230,49l27,111l-85,14l-2,-83l-84,3l32,89l-80,8l10,-95l-83,8l-82,83l-52,-29l-122,36l-209,24l-80,-105l-85,-12l-76,-79l-174,-59l-60,33l-82,-119l-178,-29l-93,-76l22,-52l-67,-57l-213,139l-273,-57l-118,26l-102,-26l-183,143l-84,121l-24,82l-82,58l-114,211l20,70l-101,110l-82,8l-331,148l-16,53l-136,14l-189,100l-202,49l-214,4l-131,-19l-50,23l-170,-9l-109,-39l-62,38l-120,-5l-153,-124l-96,43l-584,-237l112,-39l121,-136l123,-69l75,-80l112,-192l-35,-308l-38,-40l-182,-24l-110,-98l-10,-147l31,-66l108,-93l61,-127l5,-268l37,-103l-23,-163l-107,-122l-8,-103l82,-46l136,80l63,11l171,-104l249,-86l62,-72l132,-358l58,-103l202,17l170,-33l104,-74l121,-36l225,26l121,-3l97,-61l143,-27l269,25l89,29l165,-45l157,-147l264,26l37,-38l98,-331l-27,-116l-15,-203l122,-129l283,-81l103,-2l87,56l39,163l-154,214l-10,70l89,90l142,68l241,22l257,-39l41,73l-18,154l-52,144l6,57l81,76l103,8l94,-52l36,-86l-39,-187l14,-104l56,-55l95,2l47,61l59,151l78,135l81,11l145,-185l112,-105l152,-43l375,66l354,26l206,95l101,72Z" /></g></svg>