<?xml version="1.0"?><svg xmlns="http://www.w3.org/2000/svg" version="1.2" baseProfile="tiny" width="1080" height="1080" viewBox="-38.5821 4.8314 3.613599999999998 2.1513" stroke-linecap="round" stroke-linejoin="round"><g id="UF24MU" transform="scale(0.0001,-0.0001)"><path id="2400109" d="M-366046,-62904l-109,-29l-107,78l-58,169l-227,-36l-78,-63l-112,70l-79,17l-80,-48l-204,-35l-7,-88l-57,-141l-222,-8l-47,-57l-109,-130l150,-159l-92,-52l-40,-123l106,-237l-5,-153l-112,-554l-77,-302l-131,55l60,-275l72,-152l33,29l211,-122l125,-31l118,-88l89,-13l84,-197l161,66l-7,-280l44,23l169,224l103,217l55,-21l117,87l77,96l-26,54l141,127l263,166l41,77l356,-98l175,48l-28,272l21,88l102,252l80,106l63,210l-134,83l-202,56l-129,107l29,175l-52,45l-16,91l-51,34l-51,151l-198,59l0,65l-77,29l-36,88l-85,-22Z" /><path id="2400208" d="M-368975,-56035l52,167l98,136l-175,228l1,96l-39,112l53,174l102,99l22,90l129,73l37,79l-50,117l6,88l104,86l31,67l1,85l219,300l-180,29l-721,472l-1009,280l-218,316l-749,7l-131,-422l-37,-383l-299,-1166l682,-1657l500,-896l332,-93l273,-166l-417,-1193l2,-1l91,63l111,140l37,124l20,213l76,100l121,99l126,36l-27,283l150,118l36,210l679,417l58,76l2,128l36,80l21,321l-15,97l-88,98l11,75l-64,198Z" /><path id="2400307" d="M-364399,-53699l-757,-323l-218,-106l-1705,116l-1301,90l-4,-116l-219,-300l-1,-85l1607,-215l7,-623l542,-2l644,-25l15,-501l62,-70l1028,-125l300,2285Z" /><path id="2400406" d="M-382776,-61810l-109,-69l-225,115l-289,-132l-176,-118l-4,-162l407,-188l156,-49l112,51l108,-13l76,149l67,134l-59,115l44,135l-108,32Z" /><path id="2400505" d="M-378432,-63331l-189,4l-50,31l-337,113l-16,205l-57,126l201,73l62,48l-815,166l-28,-159l-113,-199l-16,-112l-49,-71l-472,-106l-124,6l0,81l-130,13l-66,-34l-116,6l-147,-31l5,-160l-109,28l-38,-260l-220,-109l43,-50l148,-63l-39,-236l48,-86l139,-46l-63,-141l12,-134l70,-132l127,-77l62,-2l169,102l21,103l85,1l-5,-87l69,-51l-39,-132l35,-49l106,4l50,63l91,2l-71,214l116,147l109,57l139,-16l123,57l34,62l-3,111l126,69l2,-99l58,-99l71,-61l162,30l67,95l179,119l112,-4l60,84l-42,45l-6,168l58,34l244,-74l47,81l127,33l-26,86l98,127l-89,86Z" /><path id="2400604" d="M-376876,-61093l-161,-186l-74,-29l-311,91l-150,338l-79,106l-123,95l-116,-231l-72,-102l-83,28l-1,-95l-56,-62l-10,-115l33,-102l61,-40l46,-98l-38,-42l-24,-105l-73,-39l120,-213l27,-124l-33,-45l15,-110l-5,-69l79,-105l98,-20l40,-92l152,63l-38,55l-104,28l118,124l77,17l40,81l-28,70l125,131l334,120l214,677Z" /><path id="2400703" d="M-365374,-54128l-180,179l-1090,227l-902,995l-77,-91l-130,-90l-51,-190l-93,-120l-106,-77l-106,-150l-60,-252l-149,24l-102,-72l40,-177l1301,-90l1705,-116Z" /><path id="2400802" d="M-364699,-55984l-1028,125l-62,70l-15,501l-644,25l-542,2l-148,-308l-115,-169l-185,-178l-82,-15l-30,-64l-100,-11l-62,-53l4,-111l148,-55l57,-165l-7,-78l33,-74l89,-29l70,-272l62,-69l229,-102l35,56l107,-75l138,-28l133,-185l38,-179l119,-64l17,-100l67,35l72,-33l137,15l485,-4l354,666l92,-1l-5,-85l383,23l63,-64l350,51l210,-69h370l154,-35l89,11l53,-94l242,-15l67,-27l154,35l41,106l154,14l112,-81l61,48l113,294l-69,-3l-194,172l-185,127l-109,29l-1520,490Z" /><path id="2400901" d="M-378895,-61669l-104,-99l-70,12l130,131l-13,91l-69,8l-50,-81l-52,119l-91,53l-14,-136l-117,-43l-126,9l-110,-114l-57,-28l-165,-260l-129,-96l-292,8l-93,171l-148,121l-9,78l57,34l-132,81l-24,-347l-62,-579l921,-18l81,-11l815,-166l225,91l92,81l221,31l212,-35l124,-2l178,106l-40,92l-98,20l-79,105l5,69l-573,335l-55,4l-289,165Z" /><path id="2401008" d="M-376748,-56326l-165,91l-380,279l-87,-28l-264,158l1094,1498l128,176l-1706,986l-101,-63l-128,-125l-118,-46l-102,-167l-9,-105l-51,-69l44,-216l-12,-110l-165,-207l-42,-88l-83,-161l-27,-285l-62,-51l-38,-148l-182,-47l-106,32l-37,-31l-70,-183l-89,-130l-96,-36l-155,-106l-143,-50l-79,-123l-4,-172l-157,-91l-101,-192l-78,-191l-48,-68l-167,-66l-109,-102l-115,-68l-70,-93l-17,-119l17,-141l-69,-164l25,-157l120,70l134,-17l149,-77l-106,-153l-11,-67l1774,578l251,-503l-238,-69l77,-1244l-409,-248l4,-102l115,-135l51,-138l6,-7l1141,163l475,134l1,1l129,1714l132,192l97,413l62,123l2,145l100,25l68,181Z" /><path id="2401107" d="M-368557,-49723l-114,142l-114,75l-224,-11l-179,52l-151,87l-261,192l-189,-130l-244,22l-48,-61l-292,-144l-167,33l-269,169l-230,73l-109,-35l-125,-103l-144,5l-31,-59l62,-63l3,-90l-90,-183l20,-73l116,-66l14,-113l-43,-47l44,-66l4,-188l-115,-120l-69,-24l-27,-90l48,-72l-47,-154l154,-289l194,-165l66,-28l-3,279l609,2l-1,368l225,1l-2,172l173,1l-1,205h456l-2,360l577,-39l91,125l142,8l114,47l106,-27l73,22Z" /><path id="2401206" d="M-351108,-61869l-247,198l-107,33l-2,110l-106,46l-32,-61l-153,-106l-225,4l-144,-94l-79,31l-172,61l-222,-57l-384,91l124,-440l546,-370l56,-1l170,101l61,96l328,82l73,-43l124,7l391,312Z" /><path id="2401305" d="M-372206,-57175l-233,95l-71,-95h-95l-98,43l-74,-42l-50,37l-106,-5l-40,37l-158,6l-45,-41l-205,-60l-336,-23l-80,-67l-179,-17l-173,-87l-201,-59l-71,27l-254,-97l200,-1504l109,-827l207,91l151,138l256,19l-21,-820l-53,-243l84,-31l-46,-151l72,23l172,-37l186,190l161,75l105,22l136,77l87,-79l144,23l89,93l10,79l61,100l59,26l187,-17l92,-145l205,33l79,-92l149,-20l55,20l116,268l-982,1126l655,849l155,46l-459,293l64,639l-16,84Z" /><path id="2401404" d="M-349685,-64872l-7,166l-47,189l13,121l-23,200l-47,160l-97,213l-28,114l-109,49l-89,-41l-77,44l-76,147l-49,258l2,144l-98,-68l-112,-157l-148,-131l-26,-82l75,-74l-141,-131l-70,8l-97,-47l-27,-123l-152,-102l-11,-51l-147,-54l172,-341l-36,-516l12,-74l88,-7l82,81l66,-73l135,-94l83,-103l94,-31l207,107l85,116l174,-6l190,46l137,142l99,1Z" /><path id="2401453" d="M-375831,-52779l585,1615l360,995l-74,85l-24,119l29,179l-12,93l52,261l-9,187l184,237l50,15l19,134l-915,-220l-817,-185l-200,-715l-168,-544l-17,-29l-317,-59l-146,-95l-65,-139l-18,-161l-149,-170l-167,-220l-113,-475l-111,-168l-8,-153l2051,-587Z" /><path id="2401503" d="M-358511,-59133l-104,17l-131,67l-124,-44l-176,128l-65,17l-112,-41l31,-97l-475,73l40,-625l-145,-159l-8,-95l-62,-88l49,-42l25,-122l-117,-107l-14,-70l-157,-94l-56,-77l-206,-202l639,346l431,242l900,635l-150,317l-13,21Z" /><path id="2401602" d="M-357468,-56197l-71,-22l-103,-164l-124,44l-55,64l-126,14l-83,58l-236,33l-25,52l-261,30l-141,-66l-34,-92l-126,-73l-131,76l-129,-54l-131,-69l1,-133l-76,-30l-98,-159l75,-461l-69,-109l15,-72l1625,166l1208,-16l242,36l-651,488l-107,279l-214,61l-94,-44l-88,67l7,96Z" /><path id="2401651" d="M-363340,-58898l38,109l-17,60l-192,23l-171,-41l-96,79l-57,127l-49,22l-127,-77l-137,12l-96,-390l-111,-135l-395,-157l-654,-631l-70,-666l256,96l511,15l265,38l-45,299l381,-97l159,82l23,232l128,32l71,91l21,78l73,8l-106,574l17,159l335,-118l54,91l-9,85Z" /><path id="2401701" d="M-355577,-60468l203,511l-182,472l-166,162l-780,-441l27,-396l767,-635l131,327Z" /><path id="2401800" d="M-353499,-62249l45,131l0,165l60,99l-130,34l-290,235l-216,-518l-334,-431l155,-198l158,97l37,181l433,-44l82,249Z" /><path id="2401859" d="M-360375,-50515l-50,-56l-121,-58l-255,-34l-194,-109l-522,-1800l179,-98l303,-195l352,-105l59,-70l116,52l489,427l-125,32l-86,56l-148,31l-49,50l-229,45l46,60l70,259l-10,224l62,246l63,472l4,248l85,100l-99,96l60,127Z" /><path id="2401909" d="M-359255,-58003l-131,68l96,162l50,133l-141,209l-15,101l-15,72l69,109l-364,6l-534,163l-385,427l-293,-937l-238,-602l31,-330l129,123l98,-91l103,-10l141,-95l2,-93l261,138l121,95l131,3l127,183l95,87l106,45l55,90l114,-78l164,-27l41,-84l180,61l2,72Z" /><path id="2402006" d="M-369573,-61908l-164,-17l-171,-205l-123,-87l-303,-48l-123,26l-30,-125l-322,-542l55,-169l-62,-467l6,-111l82,-272l-34,-98l-236,-107l-22,-46l-388,-104l4,-205l-270,56l-97,55l-114,-16l-68,-78l-42,-167l-67,-64l34,-89l-30,-209l62,-150l-138,-127l13,-129l-48,-191l-139,-101l124,-502l388,59l79,-49l85,-4l128,-70l143,-175l13,-63l140,-101l113,32l10,-161l56,-118l199,-62l-20,-62l199,-103l54,-133l244,-135l317,246l238,680l-8,245l437,394l-66,66l32,98l-106,208l-5,182l-113,123l50,183l212,163l317,275l307,292l133,299l-125,91l-130,368l-165,12l-26,56l43,101l-10,75l-216,241l-60,138l4,52l115,79l82,243l143,38l-288,5l12,133l-40,98l-304,250Z" /><path id="2402105" d="M-362568,-61580l-9,-408l-93,-305l87,-139l-108,-129l-95,-61l-32,-113l-72,-23l-64,-100l4,-63l151,-168l8,-87l65,104l264,51l64,-87l105,7l52,44l104,-26l82,69l165,-12l74,47l278,-19l200,892l-237,446l-687,19l-78,-7l-228,68Z" /><path id="2402204" d="M-350443,-62838l-26,-126l-165,-15l39,-193l40,-98l-153,-82l-137,-47l-329,61l-15,317l21,203l-145,-46l-140,-126l-2,-179l-105,37l-114,-88l46,-141l-46,-179l-107,-32l-206,-21l-230,18l-144,82l-361,-209l10,-20l145,-177l192,-76l59,-56l10,-154l84,-28l143,15l86,37l142,6l40,-68l6,-102l78,-5l3,-138l262,-860l4,-200l132,170l91,59l110,248l-12,74l36,516l-172,341l147,54l11,51l152,102l27,123l97,47l70,-8l141,131l-75,74l26,82l148,131l112,157l98,68l-15,244l-109,26Z" /><path id="2402303" d="M-374675,-57523l188,1250l27,-3l39,407l-511,201l-857,-48l-959,-610l-68,-181l-100,-25l-2,-145l-62,-123l-97,-413l-132,-192l-129,-1714l852,-294l555,-406l99,26l84,108l147,51l55,45l205,358l145,93l167,77l98,122l165,-57l267,1l24,-32l-200,1504Z" /><path id="2402402" d="M-365282,-64793l-175,-48l-356,98l-41,-77l-263,-166l-141,-127l26,-54l-77,-96l-117,-87l-55,21l-103,-217l-169,-224l-44,-23l281,-65l44,8l108,-74l124,2l119,71l246,3l120,-131l183,-23l72,-78l175,9l118,-35l-38,109l107,53l118,-71l82,-20l88,-73l133,-58l53,-118l59,-60l112,102l111,-51l23,34l-55,308l-8,304l-22,64l-101,66l-170,33l-78,85l-22,193l-189,71l-161,106l-93,17l-24,219Z" /><path id="2402501" d="M-367291,-51750l-97,136l-98,94l-484,-226l-300,45l-757,204l-274,187l20,-1628l-1231,-3l218,-316l1009,-280l721,-472l180,-29l4,116l-40,177l102,72l149,-24l60,252l106,150l106,77l93,120l51,190l130,90l77,91l289,107l38,149l-43,84l5,92l104,150l-79,119l-59,276Z" /><path id="2402600" d="M-352558,-55169l-3,-119l-59,17l-76,94l-23,118l-77,96l-164,41l-15,51l-172,-24l-168,8l-259,186l-148,57l-101,-46l-212,44l-87,74l-63,-5l-114,-92l-244,-29l-178,-160l-180,-11l-117,-54l-196,-854l93,-724l177,-159l-538,-221l-37,-152l45,-63l475,-74l132,-45l60,66l225,-29l62,-118l51,-38l147,7l188,-47l296,27l142,56l86,6l762,1042l577,122l19,208l-31,162l-74,29l-90,163l-48,167l12,106l-29,112l-46,5Z" /><path id="2402709" d="M-362242,-59000l-338,352l-1,175l51,132l-106,9l-59,-100l-66,-23l-87,-138l-359,-63l-133,-242l9,-85l-54,-91l-335,118l-17,-159l106,-574l-73,-8l-21,-78l-71,-91l-128,-32l-23,-232l-159,-82l-381,97l45,-299l174,-512l111,-10l40,-106l683,63l224,-146l165,-82l88,-15l-65,68l208,714l285,620l287,820Z" /><path id="2402808" d="M-361538,-62998l-278,19l-74,-47l-165,12l-82,-69l-104,26l-52,-44l-105,-7l-64,87l-264,-51l-65,-104l24,-228l-49,-142l-147,-158l305,-95l446,-229l439,-45l808,-130l4,1l-433,904l-144,300Z" /><path id="2402907" d="M-383650,-61729l-530,-459l-124,-176l-181,145l-138,-95l-76,-213l-116,7l-67,-311l68,-213l250,-208l-12,-45l107,105l123,63l137,123l122,71l89,68l-37,72l109,49l133,119l182,339l32,112l4,162l-75,285Z" /><path id="2403004" d="M-367542,-63205l-187,221l-415,-53l-24,73l-111,117l-66,-10l-32,159l-97,52l-136,17l-136,101l-135,68l-72,66l-143,-38l-82,-243l-115,-79l-4,-52l60,-138l216,-241l10,-75l-43,-101l26,-56l165,-12l130,-368l125,-91l-133,-299l270,-114l34,-74l235,-13l79,-156l92,-92l134,-43l83,26l71,-77l131,-55l77,302l112,554l5,153l-106,237l40,123l92,52l-150,159Z" /><path id="2403103" d="M-362957,-61222l-88,15l-165,82l-224,146l-683,-63l69,-89l0,-73l-63,-80l-131,-25l-90,-58l47,169l-5,71l-156,-43l-43,48l-110,-31l-76,-65l-104,-37l-141,-111l-113,-8l-59,145l61,60l113,20l-38,93l-201,57l-106,-139l35,-31l-75,-135l-96,-85l-108,-23l-25,98l-72,-28l-322,41l-134,56l-43,-71l-120,-2l-6,-91l-50,-144l122,-193l-32,-178l111,-112l86,-125l-18,-101l24,-154l70,-61l-48,-146l-104,-160l22,-121l85,22l36,-88l77,-29l0,-65l198,-59l51,-151l51,-34l16,-91l52,-45l-29,-175l129,-107l202,-56l134,-83l42,161l4,122l127,-16l545,-33l41,34l131,266l208,391l320,-160h50l136,75l304,191l101,4l85,-91l-4,63l64,100l72,23l32,113l95,61l108,129l-87,139l93,305l9,408l-389,358Z" /><path id="2403202" d="M-383396,-60777l-282,-99l-92,82l-14,126l-71,44l37,89l-230,-38l-84,-10l-142,-111l-57,-87l-142,-72l65,-116l-107,-98l-106,-56l-39,-91l192,-194l226,-273l96,-2l58,-96l123,41l77,108l148,-42l17,79l105,112l21,77l106,169l38,265l-6,79l63,114Z" /><path id="2403251" d="M-351541,-58978l-221,-20l-417,312l-61,-95l-119,54l-70,78l-111,-9l-113,94l-131,22l-40,44l-137,-1084l173,5l81,-36l201,-8l44,79l103,76l239,118l80,13l213,-43l71,-93l151,-74l90,-99l217,-177l88,4l-81,146l-139,24l-59,65l-41,112l-37,309l26,183Z" /><path id="2403301" d="M-382491,-61638l-5,279l-174,237l50,99l7,274l-136,91l-59,-56l-100,-18l-157,-138l-134,100l-197,-7l-63,-114l6,-79l-38,-265l-47,-215l-135,-184l23,-95l75,-285l176,118l289,132l225,-115l109,69l285,172Z" /><path id="2403400" d="M-365602,-68408l-77,53l-45,98l29,54l-54,141l-264,5l-102,59l-140,-56l-88,-123l-114,14l-85,-20l-60,-84l-107,23l-53,72l-165,-159l-97,25l-85,145l-151,-5l-42,-198l-148,-431l-124,-199l-26,-151l-21,-124l-44,-90l119,-201l172,-168l188,-99l93,80l146,402l75,85l139,2l184,-24l175,-56l209,-2l50,-37l79,72l63,140l74,78l220,339l11,82l-73,91l43,95l96,72Z" /><path id="2403509" d="M-352722,-63702l55,459l-15,110l-175,1080l-333,143l-56,-154l-14,-219l20,-57l8,-371l-99,-427l-91,-15l-36,-193l38,-295l-3,-115l34,-55l293,-220l367,323l17,-14l-10,20Z" /><path id="2403608" d="M-352036,-57432l32,223l82,203l-39,75l-84,-2l-75,89l-56,133l18,124l-20,137l8,135l-84,90l-17,104l-577,-122l-762,-1042l147,-24l56,-69l190,35l85,-37l120,88l142,73l16,109l113,103l86,-33l108,-61l171,-43l115,-129l225,-159Z" /><path id="2403707" d="M-375789,-55716l145,796l-318,190l-78,-5l-391,246l-40,117l-79,44l-1094,-1498l264,-158l87,28l380,-279l165,-91l959,610Z" /><path id="2403756" d="M-362735,-57093l-61,-48l-112,81l-154,-14l-41,-106l-154,-35l-67,27l-242,15l-53,94l-89,-11l-154,35h-370l-210,69l-350,-51l-63,64l-383,-23l5,85l-92,1l-354,-666l30,4l145,-122l252,41l160,94l1200,-395l328,-536l716,-103l113,1500Z" /><path id="2403806" d="M-367199,-60953l-68,57l0,68l68,109l-110,153l-119,14l-67,-75l-58,70l-113,-5l-155,61l-29,89l-84,11l-79,-100l-112,-31l-170,-10l-66,18l12,109l-89,10l-116,-38l-124,-42l-19,-125l-156,-101l-140,-148l-125,40l-94,-1l-128,-70l95,-430l226,-23l77,-110l20,-313l-193,-97l-66,47l-74,-5l-91,-63l-114,41l-113,-65l304,-250l40,-98l-12,-133l288,-5l72,-66l135,-68l136,-101l136,-17l97,-52l32,-159l66,10l111,-117l24,-73l415,53l187,-221l109,130l91,161l-7,117l70,131l65,46l108,207l69,205l-237,70l-107,3l-89,61l-384,107l31,74l195,85l87,175l85,-6l159,141l37,133l-59,152l-1,148l121,112Z" /><path id="2403905" d="M-381145,-59591l-102,-10l-61,-107l-136,-15l-40,-91l-73,-45l-21,-88l-77,-58l28,-79l-216,-96l9,-147l-64,-35l4,-101l117,-100l300,-398l442,-177l381,-46l216,-76l350,296l-17,80l-148,45l-59,132l-22,107l-122,-78l-50,9l-174,-92l-21,94l83,52l62,178l-129,-5l-168,46l139,116l-153,130l-278,559Z" /><path id="2404002" d="M-378010,-61537l-28,100l-107,-1l-231,237l-264,161l62,-112l-9,-84l-87,-32l-93,64l-32,-52l94,-206l-103,-45l-87,-162l289,-165l55,-4l573,-335l-15,110l33,45l-27,124l-120,213l73,39l24,105Z" /><path id="2404101" d="M-360995,-50772l-108,-73l-187,-79l-315,-41l-391,14l-429,-9l-189,29l-144,46l-143,8l-182,-144l13,-99l148,-43l40,-82l-8,-311l26,-13l101,-503l-21,-174l26,-649l1157,298l84,25l522,1800Z" /><path id="2404200" d="M-351499,-62181l-124,-7l-73,43l-328,-82l-61,-96l-170,-101l-56,1l-546,370l175,-1080l15,-110l-55,-459l361,209l144,-82l230,-18l206,21l107,32l46,179l-46,141l114,88l105,-37l2,179l-30,55l-4,201l-67,57l2,216l21,191l32,89Z" /><path id="2404309" d="M-372947,-54779l-74,147l36,114l-35,84l73,138l6,161l-33,58l16,163l-1302,802l-1571,333l-2051,587l52,-131l-18,-79l-9,-50l-48,-98l-14,-138l29,-96l64,-83l-43,-105l-174,-156l-85,-38l1706,-986l-128,-176l79,-44l40,-117l391,-246l78,5l318,-190l-145,-796l857,48l511,-201l597,1087l877,3Z" /><path id="2404408" d="M-371386,-49479l-115,-14l-75,39l-67,100l-160,182l-151,91l-143,127l-113,140l-123,-71l-9,-45l-282,-109l-66,-78l-19,-167l5,-171l-152,43l-222,-44l990,-461l321,215l107,-329l-7,-119l220,54l81,45l43,47l-14,113l-116,66l-20,73l90,183l-3,90Z" /><path id="2404507" d="M-363083,-51021l-233,151l-97,19l-308,-41l-161,23l-186,62l-238,-524l624,-1177l209,-83l715,-304l-26,649l21,174l-101,503l-26,13l8,311l-40,82l-148,43l-13,99Z" /><path id="2404606" d="M-354469,-57334l-51,38l-62,118l-225,29l-60,-66l-132,45l-475,74l-45,63l-58,-178l-741,67h-3l-242,-36l175,-720l34,-135l409,-640l655,-143l400,506l40,13l134,-49l247,1014Z" /><path id="2404705" d="M-366990,-55261l-7,623l-1607,215l-31,-67l-104,-86l-6,-88l50,-117l-37,-79l-129,-73l-22,-90l-102,-99l-53,-174l39,-112l-1,-96l175,-228l-98,-136l-52,-167l816,-391l649,-42l7,78l-57,165l-148,55l-4,111l62,53l100,11l30,64l82,15l185,178l115,169l148,308Z" /><path id="2404804" d="M-370754,-67541l-74,130l-3,55l-125,111l-101,-10l-155,-54h-74l-291,-87l-171,-122l-295,-99l-345,196l-199,30l-52,69l-41,-118l-14,-180l-45,-48l160,-127l-27,-79l54,-120l1,-117l205,-135l419,-15l98,78l101,30l65,82l141,87l85,151l56,19l104,158l76,-17l447,132Z" /><path id="2404853" d="M-367027,-57014l-229,102l-62,69l-70,272l-89,29l-33,74l-649,42l-816,391l64,-198l-11,-75l88,-98l15,-97l-21,-321l-36,-80l-2,-128l-58,-76l243,-86l76,-63l125,16l114,-124l118,-63l119,-27l111,-116l133,19l136,-84l98,11l30,52l84,-13l102,190l151,137l89,118l180,127Z" /><path id="2404903" d="M-379131,-59035l409,248l-77,1244l238,69l-251,503l-208,-528l-78,-343l-654,-321l-49,-169l-69,50l-108,-100l-91,-24l-74,-135l100,-28l533,-66l126,65l215,43l15,-288l-14,-108l37,-112Z" /><path id="2405009" d="M-360965,-64203l-808,130l-439,45l-446,229l-305,95l-29,-117l76,-139l145,-24l181,-64l78,4l14,-330l233,34l520,32l307,55l116,-28l37,29l183,-40l71,77l66,12Z" /><path id="2405108" d="M-361517,-52572l-84,-25l-1157,-298l526,-1444l633,-2l314,-227l652,514l356,-398l353,-186l-73,478l-127,169l-245,979l-139,24l-116,-52l-59,70l-352,105l-303,195l-179,98Z" /><path id="2405207" d="M-374475,-59027l-24,32l-267,-1l-165,57l-98,-122l-167,-77l-145,-93l-205,-358l-55,-45l-147,-51l-84,-108l-99,-26l357,-341l426,-485l583,-322l148,138l161,84l483,319l21,820l-256,-19l-151,-138l-207,-91l-109,827Z" /><path id="2405306" d="M-355467,-60540l-110,72l-131,-327l-181,-173l-40,13l-487,-405l-17,-180l-105,-232l-284,90l-380,-82l-12,33l-192,-96l513,-132l260,-20l33,-243l119,29l88,85l175,56l58,77l126,-109l115,-32l242,59l81,75l92,-17l150,579l10,128l-56,92l-17,229l100,55l-47,46l-2,116l-88,198l-13,16Z" /><path id="2405405" d="M-358705,-63628l-225,102h-142l-21,-54l-94,-32l-84,-117l-104,-22l-110,-74l-165,-53l-5,-832l3,-134l74,-49l136,-37l738,44l905,53l-588,307l-94,9l-19,110l-46,62l98,318l-20,146l34,103l-169,-22l-82,-42l-20,214Z" /><path id="2405504" d="M-359342,-57149l-75,461l98,159l76,30l-1,133l131,69l-730,1504l-81,155l-701,-1915l385,-427l534,-163l364,-6Z" /><path id="2405603" d="M-371407,-61810l75,56l-21,81l71,92l-174,75l-113,-19l-44,-50l-44,-129l-85,-97l-143,-6l-50,-36l-7,-139l-74,-75l-320,-74l-179,-134l-191,-252l-24,-115l-1,-168l-137,-23l-174,40l-109,1l-64,-46l-67,-204l-58,-51l-171,-61l-123,-78l-139,-222l-2,-249l-110,-104l-3,-113l-73,-101l3,-190l92,-59l54,-111l627,-176l576,504l414,362l29,1226l-48,114l51,68l77,16l156,134l300,110l123,163l100,40Z" /><path id="2405702" d="M-366797,-65793l7,280l-161,-66l-84,197l-89,13l-118,88l-125,31l-211,122l-33,-29l-99,-6l-93,-99l-108,52l-42,-60l-131,-67l-277,-49l-209,42l-67,33l-171,32l-151,96l-94,10l-159,-71l-131,97l-85,-1l-86,-75l5,-182l106,-208l-32,-98l66,-66l59,1l56,-101l154,-199l74,-63l95,-2l20,-101l79,16l127,-80l6,-181l35,-71l83,70l135,-50l212,-222l67,-36l33,-19l254,93l18,42l214,-12l157,101l47,70l221,54l245,271l287,93l-106,310Z" /><path id="2405801" d="M-358319,-53061l-1436,-260l-30,-126l-109,-27l-67,-218l-62,-154l-101,-145l127,-169l73,-478l81,-155l730,-1504l129,54l131,-76l126,73l34,92l141,66l261,-30l25,-52l236,-33l83,-58l126,-14l55,-64l124,-44l103,164l71,22l17,1614l-67,-7l-126,74l-68,83l-60,5l-192,-172l-60,-36l-118,-12l-177,1587Z" /><path id="2405900" d="M-378432,-63331l30,63l115,73l122,33l-75,102l119,133l176,37l296,-32l68,56l-133,135l19,85l78,117l-149,70l-178,-106l-124,2l-212,35l-221,-31l-92,-81l-225,-91l-62,-48l-201,-73l57,-126l16,-205l337,-113l50,-31l189,-4Z" /><path id="2406007" d="M-382476,-62897l-134,91l-107,-35l-259,60l-100,-105l-97,-13l-90,-109l-58,-32l-13,-76l21,-171l-53,-455l200,-96l71,61l106,-18l236,11l-114,-134l151,-66l2,-40l132,-31l55,-129l142,328l4,154l128,132l-117,185l-105,47l-1,441Z" /><path id="2406106" d="M-368937,-59750l-97,-6l-110,46l-45,53l-70,-58l-107,31l-148,387l-134,50l-83,119l8,80l113,45l58,160l172,136l-40,123l-169,46l-79,128l-106,274l-126,-36l-121,-99l-76,-100l-20,-213l-37,-124l-111,-140l-91,-63l-313,-935l-553,297l-65,-15l-25,-117l-121,-111l-46,-117l-66,-17l-78,-286l-116,-268l-17,-69l43,-220l-3,-244l46,-91l-40,-97l-41,-221l87,-117l95,14l113,19l174,-75l-71,-92l21,-81l-75,-56l78,-67l-13,-143l37,-73l144,18l0,-59l102,-14l88,-164l145,-72l125,9l72,193l172,-57l123,-26l303,48l123,87l171,205l164,17l113,65l114,-41l91,63l74,5l66,-47l193,97l-20,313l-77,110l-226,23l-95,430l128,70l94,1l125,-40l140,148l156,101l19,125l124,42l75,96l-67,94l56,150l-90,197l-7,60l-144,82l-206,14Z" /><path id="2406155" d="M-353422,-63153l91,15l99,427l-8,371l-20,57l14,219l56,154l-204,56l-60,-99l0,-165l-45,-131l-76,-493l-83,-168l-10,-103l61,-66l118,-66l67,-8Z" /><path id="2406205" d="M-356432,-63258l-127,68l-115,104l-40,-60l15,-341l-124,-39l-7,-55l62,-216l-43,-114l86,-172l9,-69l551,-119l578,-38l145,135l-108,264l-420,52l-185,359l-208,153l-69,88Z" /><path id="2406304" d="M-353814,-61585l-321,261l-189,-30l-113,-52l-18,-135l-122,-41l-281,-183l-140,-36l-89,-86l-97,-46l-86,-80l-234,14l-92,17l-81,-75l992,-250l321,-227l334,431l216,518Z" /><path id="2406403" d="M-358225,-60732l171,299l67,7l204,267l-565,688l-900,-635l1023,-626Z" /><path id="2406502" d="M-364117,-61042l-40,106l-111,10l-174,512l-265,-38l-511,-15l-256,-96l-913,-327l43,-138l105,-125l16,-165l120,2l43,71l134,-56l322,-41l72,28l25,-98l108,23l96,85l75,135l-35,31l106,139l201,-57l38,-93l-113,-20l-61,-60l59,-145l113,8l141,111l104,37l76,65l110,31l43,-48l156,43l5,-71l-47,-169l90,58l131,25l63,80l0,73l-69,89Z" /><path id="2406601" d="M-354437,-61406l-219,190l-81,3l-35,53l-230,39l-263,216l-52,-11l-100,-55l17,-229l56,-92l-10,-128l-150,-579l234,-14l86,80l97,46l89,86l140,36l281,183l122,41l18,135Z" /><path id="2406700" d="M-360625,-56553l-807,638l-5,246l-283,222l311,445l124,434l-314,227l-633,2l435,-436l-825,-2024l-113,-294l-113,-1500l87,138l66,23l59,100l106,-9l-51,-132l1,-175l338,-352l113,263l161,-94l110,249l77,48l101,-25l89,56l82,-84l91,16l57,-68l89,45l94,3l53,169l-31,330l238,602l293,937Z" /><path id="2406809" d="M-360804,-61020l-90,31l-177,3l-106,-43l13,96l-47,44l-244,-97l-58,-63l-116,-16l-109,-152l-184,-75l-161,-37l-169,-105l-30,-129l20,-78l687,-19l237,-446l559,145l12,276l-37,665Z" /><path id="2406908" d="M-378010,-61537l38,42l-46,98l-61,40l-33,102l10,115l56,62l1,95l83,-28l72,102l-241,102l-327,238l134,-253l-316,-218l264,-161l231,-237l107,1l28,-100Z" /><path id="2407005" d="M-383313,-63287l-633,-164l-19,264l-122,252l-122,-71l-137,-123l-123,-63l-107,-105l-8,-5l-176,-155l-126,-159l-16,-65l59,-69l9,-145l-31,-82l207,13l150,36l28,-106l97,-65l112,-39l254,42l172,-126l67,-147l53,-192l87,25l86,-36l114,5l-38,87l70,234l14,405l26,99l53,455Z" /><path id="2407104" d="M-352824,-58498l4,203l-165,-93l-101,25l-703,-70l-531,-19l-396,104l-134,49l-40,-13l-400,-506l-432,-505l166,-162l182,-472l-203,-511l110,-72l1402,535l331,131l318,144l118,-12l144,65l102,89l91,6l137,1084Z" /><path id="2407203" d="M-364068,-50807l-424,143l-253,-30l-201,62l-132,9l-81,-53l-88,2l-162,-93l-14,-118l-411,32l-121,44l-155,23l23,-92l-47,-65l-348,68l-205,-1l-110,32l-90,-39l-269,74l-66,-43l-221,-43l-61,-110l104,-61l213,-28l17,-85l-134,-6l-2,-146l90,-54l-60,-154l-15,-211l1497,-408l72,-37l79,13l93,-141l55,-13l70,-96l-30,-112l101,-94l-67,-377l273,-4l-8,-1003l757,323l296,358l153,82l137,110l10,436l121,205l-624,1177l238,524Z" /><path id="2407252" d="M-382867,-63918l114,134l-236,-11l-106,18l-71,-61l-200,96l-26,-99l-14,-405l-70,-234l408,219l72,77l20,120l59,45l50,101Z" /><path id="2407302" d="M-381256,-63672l220,109l38,260l23,158l340,609l62,579l-241,43l-478,156l-404,-183l-141,-98l-102,-167l-264,-120l-288,-167l-21,-161l-73,-102l109,-141l1,-441l105,-47l117,-185l-128,-132l-4,-154l354,48l76,126l71,65l237,-251l391,196Z" /><path id="2407401" d="M-378458,-60569l-157,260l-92,37l-265,193l-295,4l-72,32l-28,-93l-65,1l-112,-161l-19,-91l-153,-256l-94,-113l399,-236l36,-93l-21,-142l-43,-100l1,-109l34,-113l-67,-56l126,-9l117,43l14,136l91,-53l52,-119l50,81l69,-8l13,-91l-130,-131l70,-12l104,99l87,162l103,45l-94,206l32,52l93,-64l87,32l9,84l-62,112l316,218l-134,253Z" /><path id="2407500" d="M-352558,-55169l-43,113l-6,250l-121,15l-94,147l-58,38l-50,278l-97,160l-78,78l8,170l-122,151l-41,-44l-360,-325l-135,-56l-39,-149l-107,-170l-114,141l-112,5l-138,-30l-52,-45l-283,-24l-216,-68l-202,-389l117,54l180,11l178,160l244,29l114,92l63,5l87,-74l212,-44l101,46l148,-57l259,-186l168,-8l172,24l15,-51l164,-41l77,-96l23,-118l76,-94l59,-17l3,119Z" /><path id="2407609" d="M-373773,-60426l-483,-319l-161,-84l-148,-138l-583,322l-426,485l-200,-180l555,-1178l190,-3l-5,77h140l64,-73l241,67l40,118l10,131l82,79l197,32l182,-38l142,34l74,146l74,97l46,151l-84,31l53,243Z" /><path id="2407708" d="M-352244,-65216l-510,407l-38,324l-136,-19l-78,30l-138,-22l-269,-890l105,-57l562,4l214,99l174,13l60,24l54,87Z" /><path id="2407807" d="M-353651,-60555l-144,-54l-77,22l-41,69l-203,-20l-86,59l-92,-26l-28,-150l-104,36l-18,-85l-122,-81l-195,65l-165,-25l42,116l-116,75l-126,43l-88,-26l-159,10l-81,-29l88,-198l2,-116l47,-46l52,11l263,-216l230,-39l35,-53l81,-3l219,-190l113,52l189,30l321,-261l290,-235l219,386l44,26l35,313l72,26l167,348l3,57l-117,45l-94,71l-38,66l-301,-17l-117,-56Z" /><path id="2407906" d="M-357733,-64828l-25,114l28,206l65,71l18,251l-87,110l-700,298l-34,-103l20,-146l-98,-318l46,-62l19,-110l94,-9l588,-307l66,5Z" /><path id="2408003" d="M-374464,-48810l-207,-49l-19,-134l-50,-15l-184,-237l9,-187l-52,-261l12,-93l-29,-179l24,-119l74,-85l-360,-995l-585,-1615l1571,-333l1302,-802l-16,-163l33,-58l-6,-161l-73,-138l35,-84l-36,-114l74,-147l1219,-126l299,1166l37,383l131,422l-297,-5l-7,1272l454,1l0,166h56l1,173l-60,80l-66,28l-194,165l-154,289l47,154l-48,72l27,90l69,24l115,120l-4,188l-44,66l-81,-45l-220,-54l7,119l-107,329l-321,-215l-990,461l-61,28h-147l-78,58l-89,20l-164,181l-34,95l-292,-44l-173,60l-98,-12l-59,-45l-191,305Z" /><path id="2408102" d="M-352036,-57432l-225,159l-115,129l-171,43l-108,61l-110,-177l-148,-108l47,-310l351,-131l39,-56l-47,-160l-89,-118l-185,-89l-23,-106l-4,-203l40,-44l131,-22l113,-94l111,9l70,-78l119,-54l61,95l417,-312l221,20l2,148l-174,27l-80,158l-20,280l2,223l18,153l-131,173l-21,267l-83,47l-8,70Z" /><path id="2408201" d="M-351210,-59817l-88,-4l-217,177l-90,99l-151,74l-71,93l-213,43l-80,-13l-239,-118l-103,-76l108,25l51,-221l12,-176l-41,-136l35,-150l-60,-289l-18,-194l94,-51l20,-332l-85,43l10,-133l43,-74l29,-394l61,-84l79,-31l144,94l225,-4l153,106l32,61l-53,121l169,1l62,-55l69,48l54,-76l157,97l134,-52l-5,222l-20,69l16,286l-18,83l42,165l-97,32l-38,111l8,211l29,96l-65,168l-10,88l-74,50Z" /><path id="2408300" d="M-353096,-64031l-142,59l-132,11l-40,-79l-92,-48l-227,33l-133,150l-230,90l-379,-243l-3,-86l-405,97l-297,-16l-266,-111l-145,-135l-226,-390l-1,-142l166,-77l133,16l37,77l354,57l110,-10l56,-55l67,24l59,-55l190,37l87,42l39,-65l95,-16l73,-23l180,11l90,-18l130,-44l303,-180l232,-266l269,890l17,132l94,156l-72,92l9,85Z" /><path id="2408409" d="M-376724,-60479l-21,305l175,254l84,507l-852,294l-1,-1l-205,-271l-161,-148l-31,-78l73,-320l-59,-81l236,-69l79,-45l8,-101l56,-35l126,-143l131,-83l78,-12l197,39l87,-12Z" /><path id="2408508" d="M-368167,-66796l-67,36l-212,222l-135,50l-83,-70l-35,71l-6,181l-127,80l-79,-16l-20,101l-95,2l-74,63l-154,199l-56,101l-59,-1l-437,-394l8,-245l-238,-680l101,21l73,-45l86,-99l58,-187l-15,-176l41,-123l111,-52l-10,-76l20,-72l198,179l271,157l359,137l393,121l-63,133l-1,191l-94,91l82,150l259,-50Z" /><path id="2408607" d="M-382290,-64833l-222,494l-15,155l-55,129l-132,31l-2,40l-151,66l-50,-101l-59,-45l-20,-120l-72,-77l-408,-219l38,-87l154,-40l94,-121l49,-145l78,-25l88,26l75,-101l13,-83l72,61l117,51l133,112l92,-18l56,42l127,-25Z" /><path id="2408706" d="M-370358,-58910l417,1193l-273,166l-332,93l-500,896l-19,-65l-116,-36l-77,-53l-45,-77l-123,-83l-210,-257l-62,5l-70,-109l-86,70l-101,-14l-80,-70l-171,76l16,-84l-64,-639l459,-293l-155,-46l463,-426l181,-68l294,7l654,-186Z" /><path id="2408805" d="M-360124,-53991l101,145l62,154l67,218l109,27l30,126l1436,260l-83,715l83,246l-1203,-274l-497,-187l-489,-427l139,-24l245,-979Z" /><path id="2408904" d="M-366797,-65793l106,-310l-287,-93l-245,-271l-55,-119l39,-72l75,-6l98,-135l-49,-128l39,-27l-76,-122l75,-15l-36,-262l63,-90l-71,-89l-114,-285l-78,-104l-2,-104l55,-141l151,5l85,-145l97,-25l165,159l53,-72l107,-23l60,84l85,20l114,-14l88,123l140,56l102,-59l264,-5l54,-141l-29,-54l45,-98l77,-53l165,-13l145,167l192,75l45,91l42,312l-35,237l-158,82l-33,74l-96,48l-107,23l-137,186l-8,49l113,126l57,290l104,312l83,159l23,84l-118,35l-175,-9l-72,78l-183,23l-120,131l-246,-3l-119,-71l-124,-2l-108,74l-44,-8l-281,65Z" /><path id="2408953" d="M-353824,-52700l-27,10l-334,-638l-631,-1206l216,68l283,24l52,45l138,30l112,-5l114,-141l107,170l39,149l135,56l360,325l-119,34l-68,64l-102,167l-46,150l-22,195l-90,357l-117,146Z" /><path id="2409100" d="M-355587,-64309l-578,38l-551,119l59,-89l-46,-76l67,-151l268,-76l75,-5l124,-77l128,34l119,-124l1,-50l107,-75l1,142l226,390Z" /><path id="2409209" d="M-353885,-63228l304,730l-433,44l-37,-181l-158,-97l-47,-74l2,-388l224,-11l145,-23Z" /><path id="2409308" d="M-375219,-61518l-555,1178l200,180l-357,341l-555,406l-84,-507l-175,-254l21,-305l-20,-197l-132,-417l-214,-677l89,-81l269,-55l265,12l82,96l223,36l120,9l219,138l127,61l89,-91l207,-14l36,131l145,10Z" /><path id="2409332" d="M-356388,-57900l-175,720l-1208,16l-25,-988l-172,-381l106,-57l203,-51l27,22l211,-104l59,32l148,4l17,67l158,5l123,-94l84,19l153,747l291,43Z" /><path id="2409407" d="M-381894,-60463l-261,222l-367,139l10,-229l-14,-100l-157,-141l-66,-86l136,-91l-7,-274l-50,-99l174,-237l5,-279l128,-1l291,83l337,-144l118,-148l-79,-93l404,183l478,-156l241,-43l24,347l132,-81l-21,431l-216,76l-381,46l-442,177l-300,398l-117,100Z" /><path id="2409506" d="M-357909,-50774l-114,40l-305,-13l-269,71l-135,-9l-129,18l-222,72l-439,-1779l1203,274l410,1326Z" /><path id="2409605" d="M-360625,-56553l701,1915l-353,186l-356,398l-652,-514l-124,-434l-311,-445l283,-222l5,-246l807,-638Z" /><path id="2409704" d="M-362622,-56799l825,2024l-435,436l-526,1444l-715,304l-209,83l-121,-205l-10,-436l-137,-110l-153,-82l-296,-358l-300,-2285l1520,-490l109,-29l185,-127l194,-172l69,3Z" /><path id="2409803" d="M-351458,-65528l-4,200l-262,860l-3,138l-78,5l-6,102l-40,68l-142,-6l-86,-37l-143,-15l-84,28l-10,154l-59,56l-192,76l-145,177l-17,14l-367,-323l-9,-85l72,-92l-94,-156l-17,-132l138,22l78,-30l136,19l38,-324l510,-407l62,30l81,-146l28,-105l133,-66l251,-80l114,66l117,-11Z" /><path id="2409902" d="M-365156,-54022l8,1003l-273,4l67,377l-101,94l30,112l-70,96l-55,13l-93,141l-79,-13l-72,37l-1497,408l59,-276l79,-119l-104,-150l-5,-92l43,-84l-38,-149l-289,-107l902,-995l1090,-227l180,-179l218,106Z" /><path id="2410009" d="M-380998,-63303l109,-28l-5,160l147,31l116,-6l66,34l130,-13l0,-81l124,-6l472,106l49,71l16,112l113,199l28,159l-81,11l-921,18l-340,-609l-23,-158Z" /><path id="2410108" d="M-356256,-54923l-43,11l-162,125l-126,8l-226,139l-272,29l-46,-19l-227,54l-93,-7l-17,-1614l-7,-96l88,-67l94,44l214,-61l107,-279l651,-488h3l-97,850l-40,175l-130,254l-97,902l426,40Z" /><path id="2410207" d="M-379828,-59685l-28,-71l-95,34l-204,-92l-108,-96l-105,-67l-67,-105l-101,36h-139l-109,-99l-83,-5l153,-130l-139,-116l168,-46l129,5l-62,-178l-83,-52l21,-94l174,92l50,-9l122,78l22,-107l59,-132l148,-45l17,-80l278,208l94,113l153,256l19,91l-112,206l-96,-82l-163,14l64,134l80,82l3,151l-60,106Z" /><path id="2410256" d="M-368557,-49723l-73,-22l-106,27l-114,-47l-142,-8l-91,-125l-4,-911l-439,-3l-225,-227l0,-268l450,-3l274,-187l757,-204l300,-45l484,226l98,-94l97,-136l15,211l60,154l-90,54l2,146l134,6l-17,85l-213,28l-104,61l61,110l221,43l66,43l-135,37l-53,104l-177,77l-167,100l-206,54l-228,176l-173,193l-262,345Z" /><path id="2410306" d="M-355929,-60955l-117,35l-818,189l-144,14l-209,-27l-242,122l-358,215l-170,-19l-67,-7l-171,-299l-7,-12l-26,-45l50,-505l126,-103l759,-28l109,-306l12,-33l380,82l284,-90l105,232l17,180l487,405Z" /><path id="2410405" d="M-354185,-53328l-223,67l-17,87l-113,-19l-40,-46l-178,-35l-72,-54l-76,11l-113,-60l-91,27l-236,-38l-462,385l-53,-98l-558,-244l-386,-267l-30,-40l-356,-240l-161,-195l-31,-84l-263,-345l126,-74l67,7l93,7l227,-54l46,19l272,-29l226,-139l126,-8l162,-125l43,-11l171,-1l105,47l88,-28l109,-83l131,51l148,-62l67,-95l61,-31l179,66l179,136l202,389l631,1206Z" /><path id="2410504" d="M-381696,-61941l79,93l-118,148l-337,144l-291,-83l-128,1l-285,-172l108,-32l-44,-135l59,-115l-67,-134l105,-59l47,-131l77,-77l288,167l264,120l102,167l141,98Z" /><path id="2410603" d="M-376724,-60479l-87,12l-197,-39l-78,12l-131,83l-126,143l-56,35l-8,101l-79,45l-236,69l-73,-127l-35,-262l37,-114l19,-157l123,-95l79,-106l150,-338l311,-91l74,29l161,186l132,417l20,197Z" /><path id="2410702" d="M-379131,-59035l-37,112l14,108l-15,288l-215,-43l-126,-65l-59,-69l-304,-151l-15,-60l-110,-100l-95,-141l-102,-64l-105,-11l-58,-137l-91,11l186,-553l108,96l204,92l95,-34l28,71l25,74l98,45l169,7l324,-39l251,188l-51,138l-115,135l-4,102Z" /><path id="2410801" d="M-382720,-62226l-76,-149l-108,13l-112,-51l-156,49l-407,188l-32,-112l-182,-339l-133,-119l-109,-49l37,-72l-89,-68l122,-252l19,-264l633,164l-21,171l13,76l58,32l90,109l97,13l100,105l259,-60l107,35l134,-91l-109,141l73,102l21,161l-77,77l-47,131l-105,59Z" /><path id="2410900" d="M-357771,-57164l-1625,-166l15,-101l141,-209l-50,-133l-96,-162l131,-68l744,-1130l13,-21l171,66l359,555l172,381l25,988Z" /><path id="2411007" d="M-381215,-59458l71,46l123,179l217,128l200,67l209,193l352,276l-100,28l-443,992l-149,-230l-141,-152l-129,-114l-139,-178l-45,-105l26,-152l-42,-103l-20,-234l-51,-99l-150,-100l-20,-122l-147,-108l-61,-75l19,-68l203,-11l57,36l159,-53l1,-41Z" /><path id="2411056" d="M-373078,-49456l222,44l152,-43l-5,171l19,167l66,78l282,109l9,45l123,71l-112,161l-205,339l-1042,-267l-895,-229l191,-305l59,45l98,12l173,-60l292,44l34,-95l164,-181l89,-20l78,-58h147l61,-28Z" /><path id="2411106" d="M-359255,-58003l-2,-72l-180,-61l-41,84l-164,27l-114,78l-55,-90l-106,-45l-95,-87l-127,-183l472,-661l475,-73l-31,97l112,41l65,-17l176,-128l124,44l131,-67l104,-17l-744,1130Z" /><path id="2411205" d="M-359182,-61628l-192,-30l-119,-44l-176,-16l-13,122l73,40l-44,66l-61,-6l-156,67l61,186l-67,171l11,89l-115,117l-67,-21l-237,193h-34l-179,-160l-113,-37l-109,-113l-85,-16l37,-665l-12,-276l-559,-145l-200,-892l144,-300l103,67l92,-8l492,215l158,-65l211,96l363,-910l88,-198l232,-609l5,832l165,53l110,74l104,22l84,117l94,32l21,54h142l225,-102l-470,2001l-7,-1Z" /><path id="2411403" d="M-365679,-57576l-485,4l-137,-15l-72,33l-67,-35l-17,100l-119,64l-38,179l-133,185l-138,28l-107,75l-35,-56l-180,-127l-89,-118l-151,-137l-102,-190l-84,13l-30,-52l-98,-11l-136,84l210,-378l-71,-89l9,-116l-25,-118l51,-115l-13,-242l-445,-521l-579,-508l-25,33l-152,-144l206,-14l144,-82l7,-60l90,-197l-56,-150l67,-94l-75,-96l116,38l89,-10l-12,-109l66,-18l170,10l112,31l79,100l84,-11l29,-89l155,-61l113,5l58,-70l67,75l119,-14l110,-153l-68,-109l0,-68l68,-57l50,-45l131,-47l84,8l247,-86l154,5l146,228l913,327l70,666l654,631l395,157l111,135l96,390l137,-12l127,77l49,-22l57,-127l96,-79l171,41l192,-23l17,-60l-38,-109l133,242l359,63l-716,103l-328,536l-1200,395l-160,-94l-252,-41l-145,122l-30,-4Z" /><path id="2411429" d="M-367260,-68166l-55,141l2,104l78,104l114,285l71,89l-63,90l36,262l-75,15l76,122l-39,27l49,128l-98,135l-75,6l-39,72l55,119l-221,-54l-47,-70l-157,-101l-214,12l-18,-42l-254,-93l-33,19l-259,50l-82,-150l94,-91l1,-191l63,-133l623,-560l32,-516l355,39l38,-16l42,198Z" /><path id="2411502" d="M-353885,-63228l-145,23l-224,11l-2,388l47,74l-155,198l-321,227l-6,-429l-213,-161l-127,-80l-70,79l-155,59l-133,-20l-145,12l-66,-29l-40,-86l-110,-9l-104,-59l-82,28l-159,-155l-128,94l-97,-27l-96,-94l-16,-74l69,-88l208,-153l185,-359l420,-52l108,-264l266,111l297,16l405,-97l3,86l379,243l85,400l122,187Z" /><path id="2411601" d="M-359083,-50595l-276,89l-124,62l-165,2l-162,25l-33,-39l-195,3l-97,-41l-240,-21l-60,-127l99,-96l-85,-100l-4,-248l-63,-472l-62,-246l10,-224l-70,-259l-46,-60l229,-45l49,-50l148,-31l86,-56l125,-32l497,187l439,1779Z" /><path id="2411700" d="M-359655,-64710l-232,609l-88,198l-363,910l-211,-96l-158,65l-492,-215l-92,8l-103,-67l433,-904l107,56l86,90l87,-98l71,45l53,-153l45,-60l145,-121l199,-77l85,-131l-46,-59l76,-101l306,-77l95,44l-3,134Z" /><path id="2411809" d="M-370457,-62239l-172,57l-72,-193l-125,-9l-145,72l-88,164l-102,14l0,59l-144,-18l-37,73l13,143l-78,67l-100,-40l-123,-163l-300,-110l-156,-134l-77,-16l-51,-68l48,-114l-29,-1226l-414,-362l236,-135l168,-125l135,-20l185,-67l114,16l97,-55l270,-56l-4,205l388,104l22,46l236,107l34,98l-82,272l-6,111l62,467l-55,169l322,542l30,125Z" /><path id="2411908" d="M-381215,-59458l-1,41l-159,53l-57,-36l-203,11l-13,-76l-128,-70l-60,33l-88,-94l-96,-25l-125,-122l-300,-252l-77,-107l367,-139l261,-222l-4,101l64,35l-9,147l216,96l-28,79l77,58l21,88l73,45l40,91l136,15l61,107l102,10l-16,98l-54,35Z" /><path id="2412005" d="M-352820,-58295l23,106l185,89l89,118l47,160l-39,56l-351,131l-47,310l148,108l110,177l-86,33l-113,-103l-16,-109l-142,-73l-120,-88l-85,37l-190,-35l-56,69l-147,24l-86,-6l-142,-56l-296,-27l-188,47l-147,-7l-247,-1014l396,-104l531,19l703,70l101,-25l165,93Z" /><path id="2412104" d="M-370353,-67342l-244,135l-54,133l-199,103l20,62l-199,62l-56,118l-10,161l-113,-32l-140,101l-13,63l-143,175l-128,70l-85,4l-79,49l-388,-59l-330,-272l-503,-53l-98,-141l-28,-227l306,-49l-65,-191l103,-112l160,-80l52,-69l199,-30l345,-196l295,99l171,122l291,87h74l155,54l101,10l125,-111l3,-55l74,-130l125,31l216,109l60,59Z" /><path id="2412203" d="M-352203,-61708l-61,84l-29,394l-43,74l-10,133l85,-43l-20,332l-94,51l18,194l60,289l-35,150l41,136l-12,176l-51,221l-108,-25l-44,-79l-201,8l-81,36l-173,-5l-91,-6l-102,-89l-144,-65l-118,12l-318,-144l31,-179l-118,-165l99,-114l-7,-78l38,-126l40,-19l117,56l301,17l38,-66l94,-71l117,-45l-3,-57l-167,-348l-72,-26l-35,-313l-44,-26l-219,-386l130,-34l204,-56l333,-143l-124,440l384,-91l222,57l172,-61Z" /><path id="2412302" d="M-357406,-61827l-228,-189l-86,-195l-132,-32l-53,-55l78,-180l-39,-89l21,-94l-91,-95l-23,-246l-82,-188l-237,-196l-105,-163l-116,-73l-206,-6l20,-214l82,42l169,22l700,-298l87,-110l182,145l230,161l405,299l7,55l124,39l-15,341l40,60l115,-104l127,-68l-182,580l-25,216l-25,72l64,168l-33,243l-260,20l-513,132Z" /><path id="2412401" d="M-367743,-64730l-71,77l-83,-26l-134,43l-92,92l-79,156l-235,13l-34,74l-270,114l-307,-292l-317,-275l-212,-163l-50,-183l113,-123l86,75l85,1l131,-97l159,71l94,-10l151,-96l171,-32l67,-33l209,-42l277,49l131,67l42,60l108,-52l93,99l99,6l-72,152l-60,275Z" /><path id="2412500" d="M-383491,-61235l-106,-169l-21,-77l-105,-112l-17,-79l-148,42l-77,-108l-123,-41l-58,96l-96,2l-226,273l-192,194l-74,-146l-21,-210l-116,-82l-65,-99l-72,-46l-5,-112h-172l-87,-25l-21,-203l96,-93l-86,-162l-102,-77l-74,15l-85,-180l-106,-51l-141,-106l76,-53l11,-86l279,68l502,-91l109,-91l-68,213l67,311l116,-7l76,213l138,95l181,-145l124,176l530,459l-23,95l135,184l47,215Z" /><path id="2412559" d="M-356171,-51140l-63,-52l-156,-3l-358,98l-226,82l-122,-18l-84,60l-115,8l-193,70l-100,7l-96,60l-182,77l-43,-23l-410,-1326l-83,-246l83,-715l700,125l565,-5l93,227l132,-60l299,521l234,262l125,851Z" /><path id="2412609" d="M-356832,-58690l-84,-19l-123,94l-158,-5l-17,-67l-148,-4l-59,-32l-211,104l-27,-22l-203,51l-106,57l-359,-555l-171,-66l150,-317l565,-688l691,153l408,167l-57,95l-134,553l21,393l22,108Z" /><path id="2412708" d="M-356388,-57900l-291,-43l-153,-747l-22,-108l-21,-393l134,-553l57,-95l182,75l780,441l432,505l-655,143l-409,640l-34,135Z" /><path id="2412807" d="M-367897,-57552l-133,-19l-111,116l-119,27l-118,63l-114,124l-125,-16l-76,63l-243,86l-679,-417l-36,-210l-150,-118l27,-283l106,-274l79,-128l169,-46l40,-123l-172,-136l-58,-160l-113,-45l-8,-80l83,-119l134,-50l148,-387l107,-31l70,58l45,-53l110,-46l97,6l152,144l25,-33l579,508l445,521l13,242l-51,115l25,118l-9,116l71,89l-210,378Z" /><path id="2412906" d="M-360139,-58352l-131,-3l-121,-95l-261,-138l-2,93l-141,95l-103,10l-98,91l-129,-123l-53,-169l-94,-3l-89,-45l-57,68l-91,-16l-82,84l-89,-56l-101,25l-77,-48l-110,-249l-161,94l-113,-263l-287,-820l-285,-620l-208,-714l65,-68l389,-358l228,-68l78,7l-20,78l30,129l169,105l161,37l184,75l109,152l116,16l58,63l244,97l47,-44l-13,-96l106,43l177,-3l90,-31l85,16l109,113l113,37l179,160l206,202l56,77l157,94l14,70l117,107l-25,122l-49,42l62,88l8,95l145,159l-40,625l-472,661Z" /><path id="2413003" d="M-366046,-62904l-22,121l104,160l48,146l-70,61l-24,154l18,101l-86,125l-111,112l32,178l-122,193l50,144l6,91l-16,165l-105,125l-43,138l-146,-228l-295,-159l-178,-176l6,-185l-57,-45l-15,-201l-78,-52l15,-116l98,-156l-69,-205l-108,-207l-65,-46l-70,-131l7,-117l-91,-161l47,57l222,8l57,141l7,88l204,35l80,48l79,-17l112,-70l78,63l227,36l58,-169l107,-78l109,29Z" /><path id="2413102" d="M-355708,-60795l-767,635l-27,396l-182,-75l-408,-167l-691,-153l-204,-267l170,19l358,-215l242,-122l209,27l144,-14l818,-189l117,-35l40,-13l181,173Z" /><path id="2413201" d="M-350939,-61834l-39,258l0,178l-134,52l-157,-97l-54,76l-69,-48l-62,55l-169,-1l53,-121l106,-46l2,-110l107,-33l247,-198l84,-19l85,54Z" /><path id="2413300" d="M-356636,-64468l-67,151l46,76l-59,89l-9,69l-86,172l43,114l-62,216l-405,-299l-230,-161l-182,-145l-18,-251l-65,-71l-28,-206l25,-114l321,65l150,67l76,-29l114,30l252,216l83,-37l101,48Z" /><path id="2413359" d="M-369301,-51310l-450,3l0,268l225,227l439,3l4,911l-577,39l2,-360h-456l1,-205l-173,-1l2,-172l-225,-1l1,-368l-609,-2l3,-279l60,-80l-1,-173h-56l0,-166l-454,-1l7,-1272l297,5l749,-7l1231,3l-20,1628Z" /><path id="2413409" d="M-372308,-65695l-233,245l-61,215l-583,688l-627,176l-98,-157l-25,-194l-23,-379l-42,-94l-117,-100l-95,-38l-435,6l-90,-49l-87,-101l5,-95l71,-73l-38,-137l-18,-270l44,-29l15,-98l-29,-195l10,-74l102,-152l-90,-128l43,-67l-138,-305l774,128l116,-32l530,-8l107,31l177,91l28,227l98,141l503,53l330,272l-124,502Z" /><path id="2413508" d="M-355677,-62057l-242,-59l-115,32l-126,109l-58,-77l-175,-56l-88,-85l-119,-29l-64,-168l25,-72l25,-216l182,-580l16,74l96,94l97,27l128,-94l159,155l82,-28l104,59l110,9l40,86l66,29l145,-12l133,20l155,-59l70,-79l127,80l213,161l6,429l-992,250Z" /><path id="2413557" d="M-379471,-61605l67,56l-34,113l-1,109l43,100l21,142l-36,93l-399,236l-278,-208l-350,-296l21,-431l-57,-34l9,-78l148,-121l93,-171l292,-8l129,96l165,260l57,28l110,114Z" /><path id="2413607" d="M-380143,-58541l74,135l91,24l108,100l69,-50l49,169l654,321l78,343l208,528l-1774,-578l443,-992Z" /><path id="2413706" d="M-358225,-60732l-1023,626l-431,-242l-639,-346h34l237,-193l67,21l115,-117l-11,-89l67,-171l-61,-186l156,-67l61,6l44,-66l-73,-40l13,-122l176,16l119,44l192,30l950,884l7,12Z" /><path id="2413805" d="M-380263,-59910l-186,553l91,-11l58,137l105,11l102,64l95,141l110,100l15,60l304,151l59,69l-533,66l-352,-276l-209,-193l-200,-67l-217,-128l-123,-179l-71,-46l54,-35l16,-98l278,-559l83,5l109,99h139l101,-36l67,105l105,67Z" /><path id="2413904" d="M-355018,-54923l-179,-136l-179,-66l-61,31l-67,95l-148,62l-131,-51l-109,83l-88,28l-105,-47l-171,1l-426,-40l97,-902l130,-254l40,-175l97,-850l741,-67l58,178l37,152l538,221l-177,159l-93,724l196,854Z" /><path id="2414001" d="M-357214,-61731l-109,306l-759,28l-126,103l-50,505l26,45l-950,-884l7,1l470,-2001l206,6l116,73l105,163l237,196l82,188l23,246l91,95l-21,94l39,89l-78,180l53,55l132,32l86,195l228,189l192,96Z" /><path id="2414100" d="M-381256,-63672l-391,-196l-237,251l-71,-65l-76,-126l-354,-48l-142,-328l15,-155l222,-494l284,-50l89,-103l227,-14l92,14l108,69l39,-25l119,-258l130,-24l70,11l161,132l17,145l140,101l105,196l-62,2l-127,77l-70,132l-12,134l63,141l-139,46l-48,86l39,236l-148,63l-43,50Z" /><path id="2414159" d="M-366533,-61118l-154,-5l-247,86l-84,-8l-131,47l-50,45l-121,-112l1,-148l59,-152l-37,-133l-159,-141l-85,6l-87,-175l-195,-85l-31,-74l384,-107l89,-61l107,-3l237,-70l-98,156l-15,116l78,52l15,201l57,45l-6,185l178,176l295,159Z" /><path id="2414209" d="M-350334,-62864l2,119l-44,72l16,319l-59,84l-203,12l-102,51l-57,94l-46,225l-112,54l-85,-54l-84,19l-391,-312l-32,-89l-21,-191l-2,-216l67,-57l4,-201l30,-55l140,126l145,46l129,115l283,44l51,-67l108,-73l154,-39l109,-26Z" /><path id="2414308" d="M-371885,-64390l-185,67l-135,20l-168,125l-236,135l-576,-504l583,-688l61,-215l233,-245l139,101l48,191l-13,129l138,127l-62,150l30,209l-34,89l67,64l42,167l68,78Z" /><path id="2414407" d="M-353824,-52700l-80,165l-103,107l-160,218l-196,90l-226,150l-89,179l-126,151l-91,70l-282,59l-106,57l-193,67l-244,44l-328,132l-123,71l-125,-851l-234,-262l-299,-521l-132,60l-93,-227l-565,5l-700,-125l177,-1587l118,12l60,36l192,172l60,-5l68,-83l263,345l31,84l161,195l356,240l30,40l386,267l558,244l53,98l462,-385l236,38l91,-27l113,60l76,-11l72,54l178,35l40,46l113,19l17,-87l223,-67l334,638l27,-10Z" /><path id="2414456" d="M-370358,-58910l-654,186l-294,-7l-181,68l-463,426l-655,-849l982,-1126l78,286l66,17l46,117l121,111l25,117l65,15l553,-297l313,935l-2,1Z" /><path id="2414506" d="M-377722,-60018l59,81l-73,320l31,78l161,148l205,271l-475,-134l-1141,-163l-6,7l-251,-188l-127,-445l72,-32l295,-4l265,-193l92,-37l157,-260l327,-238l241,-102l116,231l-19,157l-37,114l35,262l73,127Z" /><path id="2414605" d="M-371046,-56562l-682,1657l-1219,126l-877,-3l-597,-1087l-39,-407l-27,3l-188,-1250l254,97l71,-27l201,59l173,87l179,17l80,67l336,23l205,60l45,41l158,-6l40,-37l106,5l50,-37l74,42l98,-43h95l71,95l233,-95l171,-76l80,70l101,14l86,-70l70,109l62,-5l210,257l123,83l45,77l77,53l116,36l19,65Z" /><path id="2414704" d="M-353422,-63153l-67,8l-118,66l-61,66l10,103l83,168l76,493l-82,-249l-304,-730l-122,-187l-85,-400l230,-90l133,-150l227,-33l92,48l40,79l132,-11l142,-59l-293,220l-34,55l3,115l-38,295l36,193Z" /><path id="2414753" d="M-385625,-63557l127,50l48,61l124,29l174,-55l109,-89l101,113l177,110l181,36l8,5l12,45l-250,208l-109,91l-502,91l-279,-68l37,-114l-86,-42l-68,-107l6,-117l44,-164l146,-83Z" /><path id="2414803" d="M-353651,-60555l-40,19l-38,126l7,78l-99,114l118,165l-31,179l-331,-131l-1402,-535l13,-16l81,29l159,-10l88,26l126,-43l116,-75l-42,-116l165,25l195,-65l122,81l18,85l104,-36l28,150l92,26l86,-59l203,20l41,-69l77,-22l144,54Z" /><path id="2414902" d="M-379212,-59598l-324,39l-169,-7l-98,-45l-25,-74l60,-106l-3,-151l-80,-82l-64,-134l163,-14l96,82l112,-206l112,161l65,-1l28,93l127,445Z" /><path id="2415008" d="M-350443,-62838l-154,39l-108,73l-51,67l-283,-44l-129,-115l-21,-203l15,-317l329,-61l137,47l153,82l-40,98l-39,193l165,15l26,126Z" /></g></svg>