<?xml version="1.0"?><svg xmlns="http://www.w3.org/2000/svg" version="1.2" baseProfile="tiny" width="1080" height="1080" viewBox="-38.7652 6.0259 3.9720000000000013 2.277100000000001" stroke-linecap="round" stroke-linejoin="round"><g id="UF25MU" transform="scale(0.0001,-0.0001)"><path id="2500106" d="M-375718,-74891l53,58l-65,237l35,47l-261,381l-109,42l-85,-23l-138,36l-113,-4l-239,278l-71,65l-237,-23l-82,53l-73,-77l-109,-10l-35,-40l-13,-518l246,-217l-109,-357l-178,-453l-206,-156l125,-384l33,-16l64,173l112,-5l107,109l-34,80l35,109l243,22l56,128l208,122l64,-73l81,14l109,-32l105,66l85,73l16,106l231,89l149,100Z" /><path id="2500205" d="M-380891,-70118l-437,42l-388,-32l-298,9l-136,28l-164,83l-42,-10l-285,73l-156,-151l-50,-7l-57,-128l-119,-253l-68,-15l-139,-143l-74,10l14,-132l113,-7l20,-60l-55,-97l15,-68l-73,-88l-162,15l133,-369l89,56l98,8l61,71l205,-22l-108,-239l6,-81l58,-38l38,-96l71,-21l363,98l93,78l66,-72l169,22l111,-94l184,124l71,12l-527,63l-66,94l0,139l150,44l265,112l88,-26l47,96l180,15l129,185l159,-6l59,34l116,-25l44,36l133,-18l5,-60l193,95l168,-52l-310,768Z" /><path id="2500304" d="M-355140,-70309l-90,45l-19,76l-116,112l-227,284l-57,21l-97,171l-112,-21l-24,97l-50,30l-77,-71l-8,-129l-121,-68l-57,47l-107,-80l7,-73l-118,37l-70,-40l-130,11l-14,-82l52,-68l-9,-70l-127,-22l-4,-99l-51,-79l-112,-18l78,-109l-105,-216l-121,-68l-15,-117l-76,-80l53,-150l288,-424l99,7l53,64l210,-5l137,71l648,112l302,5l54,41l31,99l217,120l84,15l25,212l-85,203l70,86l-40,89l-130,-12l-39,46Z" /><path id="2500403" d="M-356878,-70298l-247,73l-66,-30l-146,47l-76,-80l-166,2l-53,-49l-172,71l-179,14l-92,-74l-301,70l-20,-106l-156,-152l1,-170l136,-63l154,45l113,-137l22,-187l92,6l86,-47l105,4l83,37l208,-61l107,48l72,-10l161,79l95,80l76,80l15,117l121,68l105,216l-78,109Z" /><path id="2500502" d="M-354592,-69633l-122,273l0,123l-599,10l-336,137l-191,-127l126,-192l-100,3l-118,-88l50,-30l24,-97l112,21l97,-171l57,-21l227,-284l116,-112l19,-76l90,-45l351,400l197,276Z" /><path id="2500536" d="M-359562,-76531l-85,29l8,132l-76,29l5,112l-182,199l0,101l-67,34l-211,16l-342,-40l-44,-104l-120,-48l-41,31l-5,-107l-167,17l-132,-132l-53,5l-145,-112l-55,-6l11,-224l-39,-105l258,-476l16,-58l-50,-115l-82,-81l-106,-277l-2,-131l83,-16l144,62l100,11l251,-25l49,-41l79,-141l57,-19l85,74l84,-29l120,-136l52,66l38,121l-18,73l51,264l75,-27l118,229l48,165l52,41l2,100l57,62l-15,198l99,207l95,72Z" /><path id="2500577" d="M-358100,-68637l-181,54l-121,133l-26,69l-183,138l-266,290l-102,13l-158,-5l-112,-242l-474,-369l-627,-238l-538,-408l-221,-122l336,-382l247,-18l14,-58l95,-40l147,73l25,93l85,64l-9,74l51,56l161,102l37,-14l129,57l251,160l5,32l89,109l-56,87l130,35l131,-21l181,27l89,87l272,197l237,35l126,-52l50,-61l195,-106l17,51l43,78l-69,22Z" /><path id="2500601" d="M-348574,-73427l-157,90l-83,98l-109,84l-59,1l-205,119l-12,65l38,123l-78,122l-133,-10l38,212l-98,37l-9,-140l-39,-114l-170,-89l-99,82l-110,48l-134,24l-231,-25l-212,-92l414,-338l208,-128l253,-245l-111,-171l40,-32l106,-182l7,-119l-28,-53l80,-44l56,-110l154,-96l89,-118l150,-65l76,-74l87,-32l105,37l145,12l98,152l-231,117l-71,108l-264,-14l-37,78l405,466l2,75l129,141Z" /><path id="2500700" d="M-383424,-65863l-65,51l9,67l-145,43l-92,-14l-105,-137l-56,-6l-100,-131l-122,23l-42,-41l-77,93l-98,23l-62,139l-93,-106l-92,-265l-124,-57l-4,-79l-68,-114l6,-117l-78,-106l-132,-32l-33,-60l-232,-35l-18,-65l71,-144l-25,-104l170,-55l26,-96l78,-19l47,-244l-38,-232l-54,-70l26,-95l-230,-106l-189,8l-83,44l-101,-60l-131,21l-29,-38l139,-38l292,-40l211,8l147,-16l132,-47l392,-53l191,-45l-10,-465l-66,-634l103,-1l72,52l270,-23l49,125l151,43l116,250l-160,314l-106,79l267,591l-18,160l2,152l-51,160l140,45l-162,187l79,52l-8,204l-29,73l142,79l73,93l-86,107l15,129l-73,86l75,55l-67,151l44,139l-53,48l72,96Z" /><path id="2500734" d="M-370766,-75995l58,-97l100,-18l164,11l466,-155l99,62l-100,149l-6,207l-31,155l23,40l210,206l-277,312l-60,83l-109,4l-23,69l-10,-6l-170,-66l-106,-7l-161,-128l-94,8l-81,-59l-35,-475l-109,-257l18,-37l55,52l132,-15l47,-38Z" /><path id="2500775" d="M-380165,-66705l-130,22l-103,-62l-114,-5l-49,-55l-90,19l-248,-150l-75,-130l-11,-180l-89,-87l-112,-32l-34,-124l-110,-69l-53,13l-44,-278l228,-674l-133,-92l-198,-363l67,-21l73,-76l49,44l81,-18l92,99l113,50h128l48,61l185,48l117,-60l218,54h103l13,-48l97,-20l118,50l27,58l-10,179l-94,39l-16,122l45,122l121,64l-77,100l-58,127l-62,60l3,185l-80,92l-7,436l415,253l-181,193l-112,5l-51,49Z" /><path id="2500809" d="M-353493,-67749l-43,30l-35,131l-134,30l-36,-13l-271,-82l-78,-4l-62,-88l-79,-34l-249,-191l-165,-154l59,-109l258,100l144,-2l-37,-87l34,-109l133,1l36,-122l118,-28l96,-845l8,-21l221,-84l146,8l12,-118l174,-187l88,-138l376,172l143,132l-118,118l-101,-11l-39,59l-5,182l-53,33l-54,153l-27,199l-138,153l-3,66l207,93l-40,11l-42,176l-200,77l14,223l76,135l-190,141l-144,4Z" /><path id="2500908" d="M-356910,-68183l-92,40l-205,-105l-60,64l-135,36l-114,-90l-109,9l-39,-77l-76,-5l-88,59l-67,-83l-215,-59l-41,-64l89,-114l-38,-65l69,-22l339,-128l247,40l19,-72l66,-22l545,-61l258,-209l61,5l38,275l-65,-1l-47,149l-139,27l-63,-27l-156,86l-42,101l-132,122l150,174l42,17Z" /><path id="2501005" d="M-356368,-64544l-268,76l-101,-48l-83,37l-252,-216l-114,-30l-76,29l-150,-67l-321,-65l-66,-5l-905,-53l50,-40l-18,-521l240,-85l122,-113l272,-124l147,-83l155,-6l326,-116l54,-79l-31,-44l66,-91l105,68l47,102l196,38l80,71l-199,20l-120,227l126,28l202,127l149,432l207,155l160,376Z" /><path id="2501104" d="M-356496,-69106l-61,-5l-258,209l-545,61l-66,22l-19,72l-247,-40l-339,128l-43,-78l146,-239l77,-99l-50,-47l40,-98l7,-106l-46,-17l26,-106l126,-167l-21,-596l-35,-52l172,-71l53,49l166,-2l76,80l146,-47l66,30l247,-73l112,18l51,79l4,99l127,22l9,70l-52,68l14,82l130,-11l70,40l118,-37l-7,73l107,80l57,-47l121,68l8,129l77,71l118,88l100,-3l-126,192l-286,56l-149,-1l-27,43l-194,13Z" /><path id="2501153" d="M-369154,-70806l-72,281l-199,118l-260,-110l-103,-65l-115,-37l-67,12l-101,90l63,-229l78,-446l-81,-60l11,-95l-27,-105l70,-23l26,-89l-9,-107l-58,-67l-205,-172l266,102l335,38l262,42l35,230l45,265l-8,118l56,134l-14,93l72,82Z" /><path id="2501203" d="M-358974,-70796l-66,110l22,168l-16,120l-99,113l-62,21l-78,97l-208,-28l-85,21l40,-106l-58,-151l-10,-166l-54,-21l-27,-92l56,25l638,-120l7,9Z" /><path id="2501302" d="M-355840,-74506l-99,-36l-56,31l-151,14l-204,-41l-104,-4l-182,-106l-106,43l-130,-169l-69,7l-43,77l-82,-47l-60,30l-72,-40l-46,89l-81,-87l-46,61l-186,-39l-34,-65l-109,-35l-24,85l-139,77l-105,-59l-107,4l22,69l-86,58l-71,-57l-41,51l-4,-2l-64,-77l22,-106l-1,-163l137,-295l202,-115l509,-491l3,-91l105,-41l35,-90l-43,-159l122,-162l114,-33l87,30l121,-44l114,45l93,163l133,57l169,51l117,-3l121,51l38,-101l166,-22l70,151l-115,153l18,375l47,96l-6,195l32,145l7,214l90,223l-28,135Z" /><path id="2501351" d="M-367011,-70077l-246,11l-23,-99l-107,-37l-57,-90l-96,-133l5,-144l-18,-270l-110,-139l-124,-111l172,-125l204,-23l45,-81l109,41l121,-110l161,36l71,102l149,-5l150,-40l-33,198l-53,72l40,63l-31,57l2,117l41,98l15,128l61,57l-137,276l-56,70l-35,39l-220,42Z" /><path id="2501401" d="M-349650,-66029l-137,21l-77,41l-185,-16l-115,-174l-40,-30l-191,-567l125,-328l194,36l73,-7l282,-102l111,-20l141,40l154,-76l-24,236l31,93l-147,59l-72,97l-47,138l-57,277l-19,282Z" /><path id="2501500" d="M-355264,-66452l18,373l-158,116l-107,-153l-53,98l-50,12l-70,-82l-92,26l-43,-106l-60,-10l-88,-169l-50,-14l-78,-162l-173,-41l-121,112h-85l-159,102l-56,-17l-13,-143l-119,3l-14,-88l76,-40l-7,-81l-82,-8l-25,-98l147,-45l-43,-61l51,-152l-43,-197l77,-121l56,-22l154,-163l32,-167l770,-172l84,136l90,-14l92,77l103,12l87,47l9,80l-15,71l-69,42l-81,106l1,97l-72,29l-52,133l94,144l3,76l90,137l44,297Z" /><path id="2501534" d="M-362318,-65966l-114,77l-87,92l-187,76l-70,69l-220,135l3,-113l279,-447l13,-103l-22,-228l-43,-150l79,-359l185,63l82,431l102,457Z" /><path id="2501575" d="M-358752,-75117l-167,13l-92,-56l-17,78l-122,20l-70,-78l-112,76l-54,2l-94,108l-63,-12l-84,58l-27,88l-77,13l-76,96l-117,43l-11,66l-98,67l-59,-1l-402,-300l-102,-355l-89,-117l-45,14l-99,-104l-112,-4l-10,-83l-129,-133l-68,-103l216,-98l-23,-98l87,-89l114,22l37,-56l41,-31l120,48l44,104l342,40l211,-16l67,-34l0,-101l182,-199l-5,-112l76,-29l-8,-132l85,-29l69,-1l27,-74l139,-97l22,-124l283,87l138,105l198,7l26,157l-10,97l-111,241l28,78l87,12l-5,149l156,49l73,92l100,-5l81,33l40,62l-237,80l-123,114l-97,-24l-171,71l48,191l49,114Z" /><path id="2501609" d="M-359241,-67210l-71,-19l-87,92l-2,71l-74,87l-137,16l-129,-84l-68,16l-174,162l-77,142l2,210l139,156l41,135l118,157l86,219l-552,-459l-836,-377l-1547,-1682l548,-672l462,-421l490,137l221,122l538,408l627,238l474,369l112,242l158,5l-89,101l74,81l4,102l-38,66l64,85l-23,69l-254,140l0,86Z" /><path id="2501708" d="M-361903,-76415l-42,-61l-99,331l-51,24l-73,158l47,75l-17,102l-112,199l33,143l-100,126l-95,51l-69,-3l-73,-164l-151,-145l-78,-1l-96,-95l-21,-71l-107,-60l112,-55l-127,-107l-12,-39l-178,-104l-92,85l-105,-4l-80,39l-105,-29l-96,-115l70,-93l-55,-228l141,-231l-37,-62l-888,29l375,-915l90,-469l68,28l191,-50l103,65l263,-33l162,2l73,28l114,-19l168,-96l141,-127l76,-11l102,17l133,123l-23,104l-89,27l-30,82l79,111l191,153l106,59l101,-63l22,-126l64,-74l144,65l211,2l190,21l166,-26l2,131l-75,90l-204,48l-50,85l13,90l-50,119l7,98l-47,138l80,55l-4,102l-191,206l-87,115l-29,150Z" /><path id="2501807" d="M-348914,-70939l-157,64l-95,-30l41,-63l-8,-175l-99,-52l-173,-31l-27,-99l-68,-63l-41,-96l180,-182l198,2l65,154l-95,159l72,73l180,61l33,99l-54,86l48,93Z" /><path id="2501906" d="M-354220,-66676l-889,199l-155,25l-44,-297l-90,-137l-3,-76l-94,-144l52,-133l72,-29l-1,-97l81,-106l69,-42l15,-71l114,-1l127,-188l201,37l170,193l165,15l-309,123l-243,83l514,558l248,88Z" /><path id="2502003" d="M-371739,-60480l-55,-20l-149,20l-79,92l-205,-33l-92,145l-187,17l-59,-26l-61,-100l-10,-79l-89,-93l-144,-23l-87,79l-136,-77l-105,-22l-161,-75l-186,-190l-172,37l-72,-23l-74,-97l-74,-146l-142,-34l-182,38l-197,-32l-82,-79l-10,-131l-40,-118l-241,-67l-64,73h-140l5,-77l-190,3l-145,-10l-36,-131l-207,14l-89,91l-127,-61l-219,-138l-120,-9l-33,-47l-11,-127l26,-124l-26,-97l37,-149l-68,-178l71,-102l35,-138l108,89l148,47l47,90l188,71l224,23l185,-58l59,47l321,-10l179,92l65,122l175,44l73,69l77,124l97,53l121,1l209,60l81,102l153,6l122,58l152,-5l132,-94l197,-94l131,35l77,-23l99,19l144,-62l90,4l-3,-91l114,-39l30,-87l320,74l74,75l7,139l50,36l143,6l85,97l44,129l44,50l-95,-14l-87,117l41,221l40,97l-46,91l3,244l-43,220l17,69Z" /><path id="2502052" d="M-385384,-64213l-159,-115l-21,-148l-106,-45l-35,-61l1,-120l-246,-302l-173,-128l-38,-149l56,-42l34,28l160,100l86,4l150,89l182,-40l160,26l-39,183l158,6l113,362l-70,33l-53,82l-132,-16l-28,253Z" /><path id="2502102" d="M-381408,-73969l-329,283l-188,2l-79,-24l-30,-62l-180,87l-42,73l-106,4l-34,-43l-133,-280l105,-308l-77,-132l-15,-126l-80,-56l28,-110l-17,-122l22,-99l261,4l251,85l462,137l99,-214l490,62l-204,558l-204,281Z" /><path id="2502151" d="M-361239,-73619l90,906l-8,97l56,53l4,78l72,142l-1,140l53,35l58,140l-33,486l-128,22l-283,-106l-62,-45l-266,-346l-553,39l-1021,91l-43,-1167l-5,-25l-148,-594l638,-19l55,21l33,84l206,-45l118,78l58,-30l-8,-113l135,15l71,69l192,-5l200,145l128,-3l128,29l75,-111l189,-61Z" /><path id="2502201" d="M-385709,-67979l-89,92l-276,77l-65,-14l-30,-109l-100,25l-122,-21l35,-77l-163,-111l-160,-163l-50,-81l12,-110l52,-101l75,-25l55,-125l67,-62l40,171l56,91l109,46l17,67l145,141l36,107l75,29l155,130l126,23Z" /><path id="2502300" d="M-379194,-64116l-67,-95l-162,-30l-71,61l-58,99l-2,99l-126,-69l3,-111l-34,-62l-123,-57l-139,16l-109,-57l-116,-147l71,-214l-91,-2l-50,-63l89,-69l13,-93l-83,-239l10,-92l108,-41l246,8l78,-22l52,-20l175,6l172,63l70,-45l158,-34l158,-89l199,444l180,473l-107,83l-22,63l-182,127l-140,24l-100,85Z" /><path id="2502409" d="M-384061,-72061l-224,-196l-150,43l1,79l-116,15l-54,191l-77,-63l7,-94l-135,-90l-141,4l-149,-59l-139,-86l-39,18l-160,-82l-2,-91l-105,-47l23,-117l93,-21l12,-152l68,-96l-53,-157l-96,-82l3,-206l158,-59l79,-76l-19,-106l85,-74l143,23l17,-108l51,4l183,-79l31,79l163,68l63,79l118,6l82,103l11,89l128,-37l63,30l-20,56l48,68l-47,135l-73,32l-3,75l54,65l-33,91l59,65l-40,53l-5,106l153,157l-56,82l56,85l-16,277Z" /><path id="2502508" d="M-361428,-73558l-32,-357l-285,108l-28,-129l-172,-33l-23,-88l63,-19l-39,-171l-80,-20l-54,-124l-92,-60l-47,-993l-33,-143l112,-199l17,-102l-47,-75l73,-158l51,-24l99,-331l42,61l81,2l95,50l149,-29l123,136l140,58l40,83l100,-5l152,100l155,14l-87,89l23,98l-216,98l68,103l129,133l10,83l112,4l99,104l45,-14l89,117l102,355l-457,278l-84,92l62,78l-45,106l-1,100l72,86l-50,59l3,134l-120,39l-37,73l-73,43l-15,129l-189,61Z" /><path id="2502607" d="M-380581,-70886l-168,52l-193,-95l-5,60l-133,18l-44,-36l-116,25l-59,-34l-159,6l-129,-185l-180,-15l-47,-96l-88,26l-265,-112l-150,-44l0,-139l66,-94l527,-63l147,-289l20,-318l643,-131l59,172l221,-42l67,35l43,103l19,204l-74,133l-87,64l-43,135l-45,40l34,245l74,117l67,177l-2,81Z" /><path id="2502706" d="M-355303,-67711l-103,-12l-92,-77l-90,14l-84,-136l-770,172l25,-257l145,-72l199,-42l196,20l123,29l128,108l295,220l28,33Z" /><path id="2502805" d="M-374851,-62425l-321,10l-59,-47l-185,58l-224,-23l-188,-71l-47,-90l-148,-47l-108,-89l-1,-73l151,-108l-109,-214l17,-234l49,-59l-45,-165l76,-311l54,-29l90,-136l58,-16l17,-150l82,87l99,16l105,-48l159,43l97,48l118,-58l210,88l66,-16l192,93l659,62l99,-6l3,113l110,104l2,249l139,222l123,78l171,61l-113,42l-145,146l-109,77l-130,13l-109,-67l-135,-29l-84,55l-233,-51l-76,72l-226,111l-95,115l-56,174Z" /><path id="2502904" d="M-378164,-64483l209,824l-59,107l-219,141l-199,80l89,-86l-98,-127l26,-86l-127,-33l-47,-81l-244,74l-58,-34l6,-168l42,-45l-60,-84l-112,4l-179,-119l100,-85l140,-24l182,-127l22,-63l107,-83l43,51l87,4l80,45l124,-60l145,-25Z" /><path id="2503001" d="M-348507,-74398l-98,-152l-145,-12l-105,-37l-87,32l-76,74l-150,65l-89,118l-154,96l-56,110l-80,44l-2,-36l-138,-230l-83,-56l-41,-178l43,-138l-83,-302l157,-211l86,-177l102,12l111,76l68,15l97,-55l57,-78l158,47l60,-80l83,87l198,-116l94,100l42,-16l74,175l-98,119l31,469l24,235Z" /><path id="2503100" d="M-361428,-73558l-75,111l-128,-29l-128,3l-200,-145l-192,5l-71,-69l-135,-15l8,113l-58,30l-118,-78l-206,45l-33,-84l-55,-21l-638,19l148,594l-1091,-1699l100,-56l91,-116l127,14l39,-62l94,-7l141,-115l51,-17l147,-252l100,-92l224,-2l-51,-149l44,-18l61,-167l118,-148l92,-3l127,107l-112,55l107,60l21,71l96,95l78,1l151,145l73,164l69,3l95,-51l100,-126l47,993l92,60l54,124l80,20l39,171l-63,19l23,88l172,33l28,129l285,-108l32,357Z" /><path id="2503209" d="M-348616,-69824l-64,-56l25,-135l61,-138l88,108l30,214l-140,7M-348424,-70560l42,153l86,100l4,122l37,127l-25,326l-21,70l-130,38l71,-151l20,-136l-9,-138l-33,-68l-168,-171l-40,-9l-44,-311l64,-34l-20,-104l-67,-69l64,-136l138,-43l-13,254l-25,108l69,72Z" /><path id="2503308" d="M-386468,-68784l-67,62l-55,125l-75,25l-52,101l-55,-72l18,-75l-113,-40l-137,-108l-100,19l-55,-46l19,-68l-184,-31l21,-76l-260,-68l-89,-73l63,-57l32,-235l-83,-45l0,-78l77,-61h60l80,-158l-88,-134l-139,-62l73,-47l58,17l213,-151l199,-70l193,-101l16,-111l160,-60l-20,30l87,272l217,316l-4,143l108,524l-118,393Z" /><path id="2503407" d="M-370864,-71086l-97,86l-192,95l-172,52l-57,58l-94,33l-197,104l-92,-8l-125,78l-431,-290l-131,-222l103,-269l-130,-623l166,8l174,-74l130,-96l254,-130l69,114l-6,203l100,61l151,-10l157,106l277,145l109,-25l-75,501l109,103Z" /><path id="2503506" d="M-357321,-66188l-66,91l31,44l-54,79l-326,116l-155,6l-147,83l-272,124l-122,113l-240,85l-98,-331l110,-1015l181,-38l-29,111l46,44l97,-2l81,-85l141,-39l108,-4l233,-99l207,-2l139,64l36,77l-246,500l134,11l102,128l109,-61Z" /><path id="2503555" d="M-370203,-71910l-341,346l-148,1l-75,-104l-131,-23l-109,25l-277,-145l-157,-106l-151,10l-100,-61l6,-203l-69,-114l76,-110l246,-69l284,57l215,30l38,-22l131,56l58,-99l103,-67l130,-52l122,4l31,63l174,4l-205,601l149,-22Z" /><path id="2503605" d="M-353286,-66217l26,191l-104,135l-94,-30l-13,-62l-115,-16l-125,16l-134,-81l-77,149l-34,285l311,510l-303,180l-130,44l32,-366l-97,-396l-153,-518l-143,-127l-103,180l-136,17l-59,-69l-57,13l-97,-48l-28,-123l-124,-13l7,-113l-73,-18l889,-199l75,-86l355,295l0,161l86,18l100,-36l22,164l296,-57Z" /><path id="2503704" d="M-384281,-69309l66,634l10,465l-191,45l-392,53l-132,47l-147,16l-211,-8l-292,40l-139,38l-126,-23l-155,-130l-75,-29l-36,-107l-145,-141l-17,-67l-109,-46l-56,-91l-40,-171l118,-393l-108,-524l4,-143l-217,-316l-87,-272l20,-30l40,-15l37,105l264,-105l58,42l142,-69l74,-101l197,32l110,111l17,107l173,109l94,-81l67,7l106,92l22,71l144,53l21,92l159,42l-4,54l411,30l66,37l77,-34l187,21l274,-2l133,-18l-367,215l-45,358Z" /><path id="2503753" d="M-377852,-68793l-192,33l-147,6l-47,36l-150,15l-84,-52l-105,-241l-127,-27l-47,-54l-13,-146l-47,-66l-86,-15l31,-121l-203,-99l-48,-120l-84,-60l141,-204l66,18l108,-155l98,-29l94,-90l309,-60l260,36l277,-3l273,-33l193,-7l265,11l286,32l35,23l25,457l-168,106l-273,-361l-66,61l-131,383l17,156l-62,76l36,171l-83,15l5,112l-42,90l-198,37l-19,49l-97,20Z" /><path id="2503803" d="M-352886,-71095l-95,-25l-36,-53l-138,21l-46,42l-13,94l-79,53l-478,636l14,-442l125,-11l17,-79l84,-87l-63,-54l79,-109l33,-113l-61,-99l6,-131l-34,-131l54,-92l-26,-89l56,-182l146,111l11,42l12,45l62,195l115,25l81,94l74,167l100,172Z" /><path id="2503902" d="M-367268,-77759l-158,-174l-38,-101l-110,15l-18,-138l-98,-11l-143,-102l-311,-32l-167,-110l127,200l-1425,-97l299,-405l22,-301l0,-597l35,-511l-38,-246l60,4l40,76l105,32l31,67l150,63l111,-41l124,61l155,195l175,129l177,200l784,72l388,42l300,22l965,87l-457,384l-191,108l-121,51l-148,144l-32,66l-97,96l-14,58l-137,63l-345,631Z" /><path id="2504009" d="M-360254,-71664l-70,-75l-139,87l-188,-7l-297,117l33,-486l-58,-140l-53,-35l1,-140l-72,-142l-4,-78l-56,-53l8,-97l-90,-906l854,-44l99,-53l92,-97l174,-25l58,95l120,23l22,83l-74,160l99,97l21,78l-13,132l28,118l-45,97l145,-7l32,66l144,94l386,-42l-1,-120l61,1l-16,109l173,-14l13,-79l106,-49l241,-14l108,-34l28,-268l30,33l219,24l45,57l104,13l64,-51l98,56l245,-84l112,28l65,47l48,-50l136,268l73,176l102,194l-103,-24l-169,-150l-138,4l-72,45l-113,-88l-191,58l-43,54l-126,26l-118,97l-300,77l272,431l-203,115l-87,33l-50,-70l-120,-82l-127,148l-114,214l-106,24l-122,-108l-316,44l-13,-175l-154,-45l-78,23l-76,86l-12,75l-145,180l-387,-55Z" /><path id="2504033" d="M-351633,-68506l-104,31l-116,-6l-33,-56l-165,-20l-129,-45l-11,-62l-115,-34l89,-189l99,-67l94,-143l111,-117l167,-68l-54,-151l29,-82l108,31l141,72l31,-27l155,13l130,-5l117,54l102,-17l-246,436l-57,-33l-289,51l13,75l-91,322l24,37Z" /><path id="2504074" d="M-364781,-76531l-142,96l-19,67l-79,33l-103,-8l-110,-74l-123,14l-408,150l-116,-99l80,-50l68,-89l273,-198l-55,-195l-90,-54l-167,-176l-17,-61l-110,21l-81,74l-210,18l29,-304l24,-30l-73,-126l61,-90l154,-80l289,-282l4,-44l158,-63l-51,-106l32,-87l-115,-328l313,-414l50,-12l186,-121l135,-54l127,39l66,-84l188,101l150,-17l5,82l89,79l72,137l-30,135l36,61l-18,172l26,164l-17,63l60,113l166,17l80,37l-90,469l-375,915l2,103l-120,53l-101,-3l-103,36Z" /><path id="2504108" d="M-382904,-70211l-177,-38l-186,111l-100,210l-237,29l-67,-400l-9,-161l248,-589l162,-15l73,88l-15,68l55,97l-20,60l-113,7l-14,132l74,-10l139,143l68,15l119,253Z" /><path id="2504157" d="M-357802,-66905l-233,99l-108,4l-141,39l-81,85l-97,2l-46,-44l29,-111l-181,38l-61,-116l-220,-13l-66,-71l31,-62l-100,-52l-16,-55l-149,-48l0,-86l254,-140l23,-69l-64,-85l38,-66l-4,-102l-74,-81l89,-101l102,-13l266,-290l183,-138l26,-69l121,-133l181,-54l38,65l-89,114l41,64l215,59l67,83l-209,372l-43,208l192,176l4,214l25,138l60,98l-3,141Z" /><path id="2504207" d="M-375201,-70016l-692,58l-93,-47l-176,48l-107,48l-40,-30l-220,-58l-69,-77l-198,-91l130,-1386l-74,-55l-235,-78l-62,-72l48,36l89,-26l104,22l41,-85l-8,-108l79,-117l-48,-80l21,-52l104,-89l-8,-44l210,-100l149,-166l27,-72l100,-71l135,7l60,-130l82,-48l26,-108l64,-54l63,-121l161,111l129,148l166,40l32,251l95,109l87,18l22,91l71,66l-6,56l-490,1175l308,-9l-77,1090Z" /><path id="2504306" d="M-376131,-62724l-35,138l-71,102l68,178l-37,149l26,97l-26,124l11,127l33,47l-223,-36l-82,-96l-265,-12l-269,55l-89,81l-334,-120l-125,-131l28,-70l-40,-81l-77,-17l-118,-124l104,-28l38,-55l-152,-63l149,-70l-78,-117l-19,-85l133,-135l-68,-56l-296,32l-176,-37l-119,-133l75,-102l-122,-33l-115,-73l-30,-63l199,-80l219,-141l59,-107l-209,-824l30,1l197,-150l219,79l238,-79l25,-138l127,-102l-11,971l1108,-330l344,-192l-49,72l96,120l66,12l-17,150l-58,16l-90,136l-54,29l-76,311l45,165l-49,59l-17,234l109,214l-151,108l1,73Z" /><path id="2504355" d="M-361239,-73619l15,-129l73,-43l37,-73l120,-39l-3,-134l50,-59l-72,-86l1,-100l45,-106l-62,-78l84,-92l457,-278l402,300l15,36l-121,69l59,57l62,-18l37,162l-126,26l116,137l-47,60l108,97l-31,72l-174,25l-92,97l-99,53l-854,44Z" /><path id="2504405" d="M-384138,-73408l-63,-30l-128,37l-11,-89l-82,-103l-118,-6l-63,-79l-163,-68l-31,-79l-183,79l-51,-4l-17,108l-143,-23l-85,74l19,106l-79,76l-158,59l-90,-189l-206,-270l9,-53l-55,-120l-68,-30l-52,-144l83,9l39,-52l-19,-149l-205,-98l25,-130l-139,4l-48,-35l-161,28l-68,-21l87,-136l53,-137l-73,-48l-78,-98l1,-125l-89,-89l33,-45l-15,-248l-82,-157l-160,-23l-58,-81l245,-91l128,26l122,-16l118,-75l59,-69l180,-25l188,85l85,-41l255,28h166l50,-192l-10,-115l69,-150l148,-104l109,56l211,-9l-25,-92l41,-79l-83,-129l27,-93l91,-82l175,-28l-90,-199l229,-24l-163,523l41,72l-26,139l101,98l-11,101l-74,86l83,111l-37,84l39,84l19,74l119,159l-23,87l48,74l-357,174l-121,-5l-193,119l135,49l-152,795l103,34l227,24l287,82h290l39,154l-136,91l11,80l70,131l-34,58l-81,2l4,80l60,166l-64,71Z" /><path id="2504504" d="M-376573,-67219l87,-34l41,-89l0,-89l104,-89l48,-76l-27,-96l55,-36l50,-107l-103,-105l6,-125l14,-134l35,-58l-22,-103l-53,-71l-17,-157l-89,-42l-109,-138l-127,-70l-106,-143l-12,-147l-49,-56l84,-120l-4,-135l-76,-33l-120,29l24,-159l168,-106l-25,-457l198,91l69,77l220,58l40,30l107,-48l176,-48l93,47l692,-58l-247,326l50,219l-186,66l-36,64l15,138l-113,-3l12,165l-36,100l10,71l-85,127l11,135l-19,117l74,50l-6,320l-1,53l-166,19l-78,63l-27,685l-258,-29l-105,83l-181,28Z" /><path id="2504603" d="M-348058,-72445l-12,73l-114,-6l-129,98l-103,-85l-50,47l-144,32l-99,66l-188,76l-226,15l-172,-126l-46,-126l-91,-105l98,-37l-38,-212l133,10l78,-122l-38,-123l12,-65l205,-119l59,-1l109,-84l83,-98l157,-90l108,-5l107,-49l38,22l135,-45l33,-125l107,-148l19,-102l50,237l-20,25l19,182l33,105l-75,153l34,176l-27,41l24,181l-47,98l-22,236Z" /><path id="2504702" d="M-366574,-76857l-89,22l-103,-67l-138,4l-64,-39l-124,-18l-155,-56l-73,-75l-333,-194l385,-479l345,-631l137,-63l14,-58l97,-96l32,-66l148,-144l121,-51l191,-108l457,-384l-56,208l65,107l197,58l155,-29l-313,414l115,328l-32,87l51,106l-158,63l-4,44l-289,282l-154,80l-61,90l73,126l-24,30l-29,304l-72,18l-37,71l-103,56l-76,77l-96,-17Z" /><path id="2504801" d="M-378694,-70164l-86,-23l-522,233l-759,516l-157,-95l-94,-101l-18,-80l-61,-40l-202,62l-149,-44l-42,-104l45,-106l-30,-140l-122,-32l310,-768l54,-128l36,-233l180,-129l68,-178l-90,-123l81,-90l76,-35l64,67l200,-2l12,110l82,96l-30,59l9,118l41,115l114,201l171,33l34,110l297,1l64,63l123,-18l154,14l149,-51l102,-63l178,-20l118,27l96,-36l-29,375l-467,439Z" /><path id="2504850" d="M-366190,-77062l210,-18l81,-74l110,-21l17,61l167,176l90,54l55,195l-273,198l-68,89l-80,50l-108,514l-1167,-74l151,-857l204,-3l111,-61l39,34l77,-58l96,17l76,-77l103,-56l37,-71l72,-18Z" /><path id="2504900" d="M-350673,-72285l269,854l-76,154l37,42l-149,424l-987,536l398,-429l-247,-628l-95,-192l-190,-110l-95,-126l-63,-16l163,-189l228,-90l82,-120l156,-84l99,22l42,-64l199,-7l122,30l107,-7Z" /><path id="2505006" d="M-362591,-68096l-60,-29l-211,38l-187,128l-141,77l-44,-52l-183,-25l-26,-79l-75,-77l-127,-33l-6,-69l-125,-28l-131,-146l-33,-92l-108,-77l51,-131l112,-119l117,-92l13,-66l143,-156l270,-136l50,-91l245,-57l54,89l217,508l167,443l18,272Z" /><path id="2505105" d="M-359652,-64844l-95,-44l-306,77l-76,101l46,59l-85,131l-199,77l-145,121l-45,60l-53,153l-71,-45l-87,98l-86,-90l-107,-56l-4,-1l-66,-12l-71,-77l-183,40l-37,-29l-116,28l-307,-55l-60,-393l-446,-893l-67,-372l-102,-457l134,-30l142,-146l91,-64l197,-47l110,-65l220,-31l27,25l141,-17l184,55l112,57l836,377l552,459l889,221l15,-149l98,331l18,521l-50,40l-738,-44l-136,37l-74,49Z" /><path id="2505204" d="M-354714,-69237l-90,49l-30,84l21,79l-183,152l0,78l-257,127l-95,-50l-303,-147l2,-225l336,-137l599,-10Z" /><path id="2505238" d="M-352306,-68698l-103,-10l-7,84l-130,25l-112,122l-88,15l-56,-90l-165,36l-207,-93l3,-66l138,-153l27,-199l54,-153l53,-33l5,-182l39,-59l101,11l118,-118l145,71l30,-63l95,1l140,65l34,47l147,31l75,-84l140,-69l59,47l-29,82l54,151l-167,68l-111,117l-94,143l-99,67l-89,189Z" /><path id="2505279" d="M-352277,-66886l-152,-73l-64,-74l-126,-60l-85,31l-119,-25l-163,-86l-107,27l-27,75l-81,-15l-133,60l-131,-243l11,-116l-32,-114l-219,-59l134,-30l35,-131l43,-30l370,110l252,116l105,-58l211,8l15,51l136,1l95,-91l109,94l1,204l40,59l5,123l-115,170l-8,76Z" /><path id="2505303" d="M-381000,-74808l-490,-62l-99,214l-462,-137l-251,-85l-261,-4l72,-73l24,-154l41,-87l98,-47l4,-123l-132,-81l25,-35l-46,-210l-15,-55l101,-74l4,-48h124l29,-50l398,-218l417,38l-64,95l444,299l302,424l-263,473Z" /><path id="2505352" d="M-358660,-66793l-110,1015l-15,149l-889,-221l-86,-219l-118,-157l-41,-135l-139,-156l-2,-210l77,-142l174,-162l68,-16l129,84l137,-16l74,-87l2,-71l87,-92l71,19l149,48l16,55l100,52l-31,62l66,71l220,13l61,116Z" /><path id="2505402" d="M-370147,-72489l-174,-4l-31,-63l-122,-4l-130,52l-103,67l-58,99l-131,-56l-38,22l-215,-30l-284,-57l-38,-167l-338,-434l40,-32l84,-104l4,-120l110,-62l122,32l96,-117l73,27l64,-69l78,-4l119,-53l46,26l117,-43l127,-100l55,-151l142,39l10,10l248,915l154,35l-27,346Z" /><path id="2505501" d="M-375537,-67754l70,81l72,194l-83,71l35,105l77,116l132,36l38,44l-551,-101l-645,-39l105,-83l258,29l27,-685l78,-63l166,-19l1,-53l137,108l78,8l5,251Z" /><path id="2505600" d="M-383226,-73301l-13,89l-172,53l-70,-41l-203,-2l-145,-35l-309,-171l64,-71l-60,-166l-4,-80l81,-2l34,-58l-70,-131l-11,-80l136,-91l-39,-154l167,16l73,31l222,-27l24,-86l118,-66l253,-196l-126,-210l11,-140l128,-87l-5,-80l42,-103l86,-35l83,-104l87,29l42,-268l128,-175l144,17l53,33l46,210l-25,35l132,81l-4,123l-98,47l-41,87l-24,154l-72,73l-22,99l17,122l-28,110l80,56l15,126l77,132l-105,308l-327,327l-123,33l-30,87l-125,51l-100,67l8,63Z" /><path id="2505709" d="M-355575,-65458l-103,-28l-82,32l-92,-22l-148,18l-40,48l-132,-45l-63,-52l-202,-223l-137,-40l-41,-59l-108,43l-18,-69l-152,-54l-80,-71l-196,-38l-47,-102l-105,-68l-109,61l-102,-128l-134,-11l246,-500l81,46l118,12l82,113l235,22l69,-22l14,88l119,-3l13,143l56,17l159,-102h85l121,-112l173,41l78,162l50,14l88,169l60,10l43,106l92,-26l70,82l50,-12l53,-98l107,153l-43,44l-38,130l-59,15l-102,115l4,80l103,79l-36,42Z" /><path id="2505808" d="M-353486,-67499l-58,90l-233,215l-112,21l-111,69l-91,337l-54,5l-96,-170l-13,-72l-86,-72l217,-251l139,-17l225,-101l45,-36l-27,-90l36,13l219,59Z" /><path id="2505907" d="M-376796,-70165l-35,-23l-286,-32l-265,-11l-193,7l-273,33l-277,3l-260,-36l-309,60l467,-439l29,-375l134,-264l83,-72l54,69l56,-29l36,-107l76,-42l156,26l93,-146l24,-99l91,-108l136,17l133,-35l89,12l62,72l235,78l74,55l-130,1386Z" /><path id="2506004" d="M-357769,-70212l-165,70l-60,-41l-128,99l-42,91l27,169l-398,145l-146,97l-176,-26l-90,82l-122,170l-104,-20l-202,34l-58,-43l21,-62l-86,-153l-190,-98l-83,5l2,-171l92,-186l111,-124l85,-21l208,28l78,-97l62,-21l99,-113l16,-120l-22,-168l66,-110l127,250l97,-32l120,13l78,53l156,152l20,106l301,-70l92,74l179,-14l35,52Z" /><path id="2506103" d="M-357354,-73239l-48,50l-65,-47l-112,-28l-245,84l-98,-56l-64,51l-104,-13l-45,-57l-219,-24l-30,-33l37,-313l-31,-286l84,-89l3,-74l72,-94l-25,-71l-93,-59l-41,-104l104,-121l23,-72l41,-51l71,57l86,-58l-22,-69l107,-4l105,59l139,-77l24,-85l109,35l34,65l525,1349l-143,-37l-116,38l-140,-40l77,174Z" /><path id="2506202" d="M-363440,-63025l-136,-75h-50l-320,160l-208,-391l-131,-266l-41,-34l-545,33l-127,16l-4,-122l-42,-161l-63,-210l-80,-106l-102,-252l-21,-88l28,-272l24,-219l93,-17l161,-106l189,-71l228,20l398,452l10,86l-75,56l-147,45l83,104l77,9l36,68l-138,33l-31,80l70,44l64,103l123,57l215,-78l67,40l112,138l49,352l213,537l21,35Z" /><path id="2506251" d="M-357114,-76420l-114,33l-122,162l43,159l-35,90l-105,41l-3,91l-509,491l-202,115l-137,295l1,163l-22,106l64,77l-101,-61l15,-143l-80,-124l-88,29l6,-119l-37,-61l-212,-41l-49,-114l-48,-191l171,-71l97,24l123,-114l237,-80l-40,-62l-81,-33l-100,5l-73,-92l-156,-49l5,-149l-87,-12l-28,-78l111,-241l10,-97l-26,-157l115,-35l148,48l95,3l110,-29l81,26l41,163l53,4l80,-109l187,123l31,78l110,-26l66,-123h145l136,55l174,30Z" /><path id="2506301" d="M-353804,-69325l-96,845l-118,28l-36,122l-133,-1l-34,109l37,87l-144,2l-258,-100l-59,109l-211,-66l-45,-50l-128,36l-60,-57l-83,-222l-75,-90l-98,-34l-3,-111l95,50l257,-127l0,-78l183,-152l-21,-79l30,-84l90,-49l0,-123l122,-273l74,20l114,169l128,6l10,82l284,70l178,-39Z" /><path id="2506400" d="M-353771,-70327l-69,-80l-146,-45l-184,20l-81,-129l-271,-178l-394,18l-25,-212l-84,-15l-217,-120l-31,-99l-54,-41l0,-76l111,-100l-59,-130l-128,-36l252,-486l235,-24l35,-44l1,-158l39,-89l155,-124l207,-92l227,103l65,70l143,-33l18,30l282,8l-86,287l343,156l-56,182l26,89l-54,92l34,131l-6,131l61,99l-33,113l-79,109l63,54l-84,87l-17,79l-125,11l-14,442Z" /><path id="2506509" d="M-365635,-71821l127,-63l45,-235l51,-83l114,-114l-184,-23l-81,-99l-117,-19l-41,-115l93,-78l70,-560l-125,-43l-79,10l-77,-122l-220,-60l48,-97l718,28l0,109l222,86l311,70l26,80l188,30l56,47l158,-21l94,67l170,19l151,-14l109,44l151,-93l170,-64l119,15l59,40l5,25l43,1167l-700,-339l-89,27l-64,129l-72,69l-665,114l-784,66Z" /><path id="2506608" d="M-383100,-75189l-42,103l5,80l-128,87l-11,140l126,210l-253,196l-118,66l-24,86l-222,27l-73,-31l-167,-16h-290l-287,-82l-227,-24l-103,-34l152,-795l-135,-49l193,-119l121,5l357,-174l-48,-74l23,-87l-119,-159l-19,-74l499,-42l-21,139l76,197l-62,27l-31,112l82,120l579,41l167,124Z" /><path id="2506707" d="M-373970,-73083l-72,40l-3,95l-142,-68l-148,-226l-129,49l-97,72l-603,-62l-127,25l-71,-32l-273,33l-64,-5l-68,-112l-103,-61l-93,1l-153,47l-149,-21l-214,83l-102,-25l-112,42l-119,-25l-106,-51l-81,-91l-107,-301l-55,-25l-140,62l-73,-128l162,-64l109,10l73,77l82,-53l237,23l71,-65l239,-278l113,4l138,-36l85,23l109,-42l261,-381l-35,-47l65,-237l-53,-58l149,93l143,15l95,53l51,77l6,169l57,89l75,65l-14,54l99,84l110,202l77,39l-6,57l-105,183l21,63l301,68l184,-30l157,43l63,38l100,-88l74,36l224,14l-106,245l23,87l-30,152Z" /><path id="2506806" d="M-355428,-72013l-58,53l-183,81l-128,-26l-157,-111l-188,175l-18,62l109,85l-534,-207l-128,-187l234,-96l69,-68l142,-4l-41,-194l-48,-53l-151,-11l-18,-117l-100,-4l-59,-57l-152,-15l-206,106l-102,-194l-73,-176l-136,-268l-77,-174l140,40l116,-38l143,37l494,-44l54,38l78,-37l25,92l194,-4l418,-311l398,-218l-243,841l88,450l-10,107l135,85l-59,187l32,175Z" /><path id="2506905" d="M-353208,-72934l-35,40l-202,138l-279,129l-62,111l-64,-81l-54,3l-147,-72l-173,-61l88,-116l4,-143l32,-15l94,-171l-120,-18l-197,8l168,-47l106,-90l-24,-113l-60,-97l4,-84l-40,-80l49,-107l68,-283l109,-26l144,-195l172,-45l-2,-79l99,15l44,64l-40,107l100,22l91,-8l6,75l189,95l50,-32l131,76l157,137l-59,91l138,102l12,44l-202,429l-176,-19l-53,216l-66,80Z" /><path id="2507002" d="M-381724,-71612l-71,-12l-184,-124l-111,94l-169,-22l-66,72l-93,-78l-363,-98l-138,-69l25,-165l140,5l43,-96l-19,-226l70,-19l-106,-281l86,-54l204,-26l-100,-175l-122,-114l-29,-68l-78,3l-196,-88l-49,-69l-176,-79l-8,-63l100,-67l125,-51l30,-87l123,-33l327,-327l133,280l34,43l106,-4l42,-73l180,-87l30,62l79,24l188,-2l329,-283l709,399l64,71l64,-4l46,326l-334,232l-55,595l-643,131l-20,318l-147,289Z" /><path id="2507101" d="M-352309,-67612l-95,91l-136,-1l-15,-51l-211,-8l-105,58l-252,-116l-370,-110l144,-4l190,-141l-76,-135l-14,-223l200,-77l42,-176l40,-11l165,-36l56,90l88,-15l112,-122l130,-25l7,-84l103,10l115,34l11,62l129,45l165,20l33,56l116,6l104,-31l-348,417l-128,237l-116,77l-60,73l-24,90Z" /><path id="2507200" d="M-355371,-73858l-398,218l-418,311l-194,4l-25,-92l-78,37l-54,-38l-494,44l-525,-1349l186,39l46,-61l81,87l46,-89l72,40l60,-30l82,47l43,-77l69,-7l130,169l106,-43l182,106l104,4l204,41l151,-14l56,-31l99,36l159,110l136,-44l85,101l39,147l-32,46l111,204l-29,84Z" /><path id="2507309" d="M-352244,-65216l-54,-87l-60,-24l-174,-13l-214,-99l-562,-4l-105,57l-232,266l-311,-510l34,-285l77,-149l134,81l125,-16l115,16l13,62l94,30l104,-135l-26,-191l72,-23l336,-16l131,-43l142,-126l24,-71l124,-111l-116,-78l144,-274l152,73l175,159l73,-27l263,139l89,19l158,-28l122,60l-622,589l79,472l-133,66l-28,105l-81,146l-62,-30Z" /><path id="2507408" d="M-378164,-64483l-145,25l-124,60l-80,-45l-87,-4l-43,-51l-180,-473l-199,-444l379,-30l366,-143l18,-41l-12,-209l-42,-79l287,-33l30,212l63,128l95,-30l190,89l126,426l-6,72l112,179l88,2l-127,102l-25,138l-238,79l-219,-79l-197,150l-30,-1Z" /><path id="2507507" d="M-348424,-70560l-69,-72l25,-108l13,-254l-138,43l-64,136l67,69l20,104l-64,34l-280,-331l-48,-93l54,-86l-33,-99l-180,-61l-72,-73l95,-159l-65,-154l-198,-2l-128,19l-27,-42l-97,20l-93,-68l19,-411l165,-8l164,17l63,-116l172,126l226,-15l188,-76l99,-66l144,-32l50,-47l103,85l129,-98l114,6l12,-73l17,265l40,150l54,88l-14,201l29,195l-36,76l-124,15l-71,59l-52,98l4,176l-104,112l-10,144l23,132l-97,92l-25,82Z" /><path id="2507606" d="M-355151,-72036l-252,486l128,36l59,130l-111,100l0,76l-302,-5l-648,-112l87,-213l139,-156l-109,-85l18,-62l188,-175l157,111l128,26l183,-81l58,-53l31,36l109,-46l44,27l93,-40Z" /><path id="2507705" d="M-365560,-68941l29,-226l-92,-47l-83,44l-73,-87l-61,-11l-59,-83l-65,-32l-11,-172l32,-206l-60,-122l-184,-67l10,-74l-116,-61l-52,-118l-60,3l-113,83l-238,-41l56,-70l137,-276l-61,-57l-15,-128l-41,-98l-2,-117l31,-57l-40,-63l53,-72l33,-198l479,-3l205,-434l286,-90l784,-66l-33,223l141,370l-156,949l132,403l44,449l-837,552Z" /><path id="2507804" d="M-366549,-69282l-184,24l-139,-2l-75,-85l-146,-402l-93,-80l-188,99l-172,168l-119,201l44,90l21,124l-145,-4l-1009,-1062l100,-419l246,115l129,1l192,91l114,32l182,-2l142,-27l104,138l101,-10l57,90l107,37l23,99l246,-11l83,60l55,119l190,165l76,191l15,240l43,20Z" /><path id="2507903" d="M-351935,-73112l-144,42l-114,75l-86,-32l-98,-118l-9,-103l-82,-116l-72,-26l-22,-76l-136,-93l-13,-81l-12,-44l-138,-102l59,-91l158,78l158,51l319,-61l171,-68l89,-102l99,20l87,79l183,-45l-18,144l60,62l-32,59l-83,36l-85,106h-117l-33,133l-130,197l41,76Z" /><path id="2508000" d="M-377247,-73871l-291,-108l-40,57l-84,-75l-98,-21l-45,139l-209,-151l-68,-3l-139,-88l-61,17l-80,-77l-44,14l-115,-165l-681,-419l216,-610l-9,-233l26,-32l206,-16l124,9l-9,-177l125,20l140,-93l70,-11l80,-70l55,7l22,-93l160,-104l133,-18l75,23l129,-22l-24,-108l74,-62l76,83l-25,63l101,102l42,118l66,3l-33,16l-125,384l206,156l178,453l109,357l-246,217l13,518Z" /><path id="2508109" d="M-379022,-65415l-158,89l-158,34l-70,45l-172,-63l-175,-6l-52,20l173,-402l-99,-132l26,-125l111,-108l-92,-68l41,-105l214,-23l240,26l74,55l110,-3l166,-78l68,-8l161,-118l783,-32l-13,149l-66,138l55,95l-26,56l-145,29l-287,33l42,79l12,209l-18,41l-366,143l-379,30Z" /><path id="2508208" d="M-353286,-66217l-296,57l-22,-164l-100,36l-86,-18l0,-161l-355,-295l54,-5l91,-337l111,-69l112,-21l233,-215l58,-90l32,114l-11,116l131,243l133,-60l5,375l-140,185l-68,38l118,271Z" /><path id="2508307" d="M-358275,-71248l-126,26l-100,51l-141,-27l-40,91l-125,101l-103,29l43,72l-85,49l-8,-67l-123,-33l-28,-65l-145,-20l-49,-33l7,-212l-43,-56l257,-348l11,-107l122,108l106,-24l114,-214l127,-148l120,82l50,70l87,-33l122,82l-23,132l197,166l190,64l-23,76l28,76l-151,71l-154,-51l-70,1l-44,91Z" /><path id="2508406" d="M-381202,-65224l-130,24l-119,258l-39,25l-108,-69l-92,-14l-227,14l-89,103l-284,50l319,-674l-116,-14l-58,-81l-27,-152l-117,-78l-45,-81l-99,-29l-40,-105l-90,-32l3,-9l729,102l193,-234l186,173l178,74l-151,158l-119,73l18,180l111,148l102,47l111,143Z" /><path id="2508505" d="M-367666,-73059l-123,50l-192,-299l-580,90l-1063,357l-523,372l27,-346l-154,-35l-248,-915l-10,-10l32,19l189,-80l55,-4l119,-178l116,24l275,140l218,47l238,10l39,-51l129,-13l176,44l105,-12l270,87l164,25l108,-44l113,26l287,30l158,-14l-31,537l106,143Z" /><path id="2508554" d="M-354421,-64866l21,-135l104,-50l35,-78l-30,-149l-66,-44l45,-60l-47,-89l-7,-138l-75,-33l-46,-78l55,-34l-51,-278l-59,-91l103,-180l143,127l153,518l97,396l-32,366l-90,18l-180,-11l-73,23Z" /><path id="2508604" d="M-348987,-68659l-136,2l-211,-243l-168,-42l-140,-86l-125,6l-258,-103l850,-426l75,46l77,-57l235,-104l73,-3l24,-112l118,65l17,110l-89,177l-16,125l27,99l92,168l-196,89l-138,116l-111,173Z" /><path id="2508703" d="M-373871,-71663l-118,25l-278,3l-22,-187l-51,-32l-158,-21l-71,-74l-101,-1l-65,-42l22,-78l-104,-31l-125,-171l6,-56l-71,-66l-22,-91l-87,-18l-95,-109l-32,-251l-166,-40l-129,-148l-161,-111l64,5l273,-33l71,32l127,-25l603,62l97,-72l129,-49l148,226l142,68l3,-95l72,-40l121,68l47,70l-74,51l-38,89l-176,111l77,106l250,104l93,83l103,-26l31,84l194,62l83,18l42,104l-122,-8l12,79l-158,-24l-108,82l-24,95l-116,89l64,83l17,79l-219,21Z" /><path id="2508802" d="M-374822,-69158l-151,157l36,105l-63,141l3,138l-109,104l-82,153l-88,52l6,99l126,55l90,12l-19,125l22,203l-138,112l-43,8l-115,-78l-190,18l-5,-251l-78,-8l-137,-108l6,-320l-74,-50l19,-117l-11,-135l85,-127l-10,-71l36,-100l-12,-165l113,3l-15,-138l36,-64l186,-66l-50,-219l247,-326l72,80l-97,60l6,150l104,30l44,102l130,12l91,-126l75,45l132,2l107,51l-69,101l-97,36l33,98l-156,172l4,45Z" /><path id="2508901" d="M-350879,-66252l-71,103l-105,88l30,80l-12,108h-254l-69,78l42,92l-11,136l154,150l68,304l-18,62l-110,-248l-91,-59l-132,-170l-117,11l-114,-66l-251,80l-79,-472l622,-589l-122,-60l-158,28l-89,-19l-263,-139l-73,27l-175,-159l8,-76l115,-170l-5,-123l-40,-59l-1,-204l-109,-94l24,-90l60,-73l116,-77l128,-237l348,-417l-24,-37l91,-322l-13,-75l289,-51l57,33l221,60l35,66l-27,142l34,166l52,41l35,206l-150,-58l-64,79l-237,587l0,219l134,200l63,457l-3,153l-72,159l170,84l32,71l131,74Z" /><path id="2509008" d="M-381314,-77958l41,161l62,59l59,114l-27,88l39,71l-60,86l-111,26l69,148l55,321l-114,78l69,112l118,39l33,49l-116,103l-28,154l-117,72l44,130l4,105l174,158l81,179l-444,-299l64,-95l-417,-38l44,-261l-516,-75l-174,-138l39,-101l-59,-134l-155,-99l-80,-7l-167,-152l4,-60l-209,-227l87,-61l-35,-74l-111,-120l135,25l76,-131l-68,-163l35,-59l13,-165l43,-91l179,-112l124,61l61,-30l184,4l31,47l136,56l92,97l91,31l289,177l105,100l204,-35l124,-124Z" /><path id="2509057" d="M-349315,-67211l-154,76l-141,-40l-111,20l-282,102l-73,7l-194,-36l-169,-85l-385,-51l-62,-56l-37,-109l344,-364l137,-5l200,-136l247,-85l37,115l144,18l70,-92l45,1l174,134l-2,130l49,18l145,-50l85,23l-75,26l-20,73l-62,37l125,136l-61,113l26,80Z" /><path id="2509107" d="M-352886,-71095l97,63l126,237l118,116l61,271l-22,126l-52,56l-2,255l35,40l-24,153l-64,102l-23,115l-143,-132l-376,-172l-130,-54l-282,25l-25,-90l-74,-33l-104,-214l-1,-96l478,-636l79,-53l13,-94l46,-42l138,-21l36,53l95,25Z" /><path id="2509156" d="M-383248,-68755l70,340l2,137l125,232l147,374l-633,-47l18,-160l-267,-591l106,-79l160,-314l272,108Z" /><path id="2509206" d="M-356986,-72189l47,174l-51,21l-131,289l48,61l191,81l106,101l-288,424l-797,-474l-190,-64l-197,-166l23,-132l-122,-82l203,-115l-272,-431l300,-77l118,-97l126,-26l43,-54l191,-58l113,88l72,-45l138,-4l169,150l103,24l57,412Z" /><path id="2509305" d="M-349685,-64872l-99,-1l-137,-142l-190,-46l-174,6l-85,-116l-207,-107l-94,31l-83,103l-135,94l-66,73l-82,-81l-88,7l18,-62l-68,-304l-154,-150l11,-136l-42,-92l69,-78h254l12,-108l-30,-80l105,-88l71,-103l171,71l77,80l71,11l69,65l350,71l92,-29l185,16l77,-41l137,-21l-15,221l1,340l-10,460l-11,136Z" /><path id="2509339" d="M-357117,-70888l-95,-80l-161,-79l-72,10l-107,-48l-208,61l-83,-37l-105,-4l-86,47l-92,-6l-86,-103l-63,-121l44,-91l70,-1l154,51l151,-71l-28,-76l23,-76l797,474l-53,150Z" /><path id="2509370" d="M-376641,-65482l-17,114l-171,80l-99,112l-74,18l-64,117l-209,68l-53,101l-88,-2l-112,-179l6,-72l-126,-426l-190,-89l-95,30l-63,-128l-30,-212l145,-29l38,-58h79l53,53l166,23l4,117l112,67l151,-35l104,35l67,129l190,82l-59,100l335,-16Z" /><path id="2509396" d="M-373140,-72894l-17,109l54,78l-19,146l66,61l-172,105l-32,68l-82,46l-194,-62l-31,-84l-103,26l-93,-83l-250,-104l-77,-106l176,-111l38,-89l74,-51l-47,-70l-121,-68l30,-152l-23,-87l106,-245l133,61l230,155l-76,141l49,42l169,218l70,69l142,-13Z" /><path id="2509404" d="M-355151,-72036l-93,40l-44,-27l-109,46l-31,-36l-32,-175l59,-187l-135,-85l10,-107l-88,-450l243,-841l29,-84l97,53l25,81l60,41l156,28l86,66l280,63l120,60l41,73l-77,186l231,109l197,-8l120,18l-94,171l-32,15l-4,143l-88,116l-255,160l-207,92l-155,124l-39,89l-1,158l-35,44l-235,24Z" /><path id="2509503" d="M-359305,-71074l49,33l145,20l28,65l123,33l8,67l-29,51l-638,120l-56,-25l-97,-83l-79,-182l56,-29l134,-123h70l174,59l112,-6Z" /><path id="2509602" d="M-384081,-72025l-1,97l-115,12l-104,-59l-103,-19l-76,28l-87,129l-224,-9l-104,39l-135,-38l-150,19l-7,94l-77,39l-124,19l-102,-22l-228,-136l-427,4l-297,-10l76,-100l118,25l50,-58l-31,-67l29,-163l46,-101l226,-174l97,-8l242,90l69,-41l-24,-84l105,47l2,91l160,82l39,-18l139,86l149,59l141,-4l135,90l-7,94l77,63l54,-191l116,-15l-1,-79l150,-43l224,196l-20,36Z" /><path id="2509701" d="M-369609,-78309l-527,815l-126,325l-51,-90l-232,-202l-28,-45l-108,-26l-106,-99l-76,-24l-42,46l-89,-100l-182,10l-25,-64l-80,19l-63,-68l-176,14l-65,-125l-122,-79l-123,95l-85,-5l-65,-77l-194,-78h-132l4,-64l-135,-59l32,-41l123,16l54,-147l-31,-85l-124,8l-89,-29l-30,-81l44,-40l17,-149l-177,-101l-153,-139l-103,-61l-163,-3l-43,-37l-34,-137l24,-126l-213,-105l-44,17l-155,-56l25,-58l-43,-141l-54,-65l168,-1l3,-46l279,119l91,-24l115,49l144,-67l139,38l165,-12l59,-34h215l-19,93l42,71l94,45l152,-87l-7,-223l181,-140l149,-3l86,-122l22,-143l211,-29l-25,-74l95,-87l99,1l29,-42l132,-53l187,83l93,109l149,-31l149,-85l105,25l114,-18l314,-88l193,-72l126,53l57,74l112,6l65,96l38,246l-35,511l0,597l-22,301l-299,405Z" /><path id="2509800" d="M-353804,-69325l-178,39l-284,-70l-10,-82l-128,-6l-114,-169l-74,-20l-197,-276l-351,-400l39,-46l130,12l40,-89l-70,-86l85,-203l394,-18l271,178l81,129l184,-20l146,45l69,80l1,96l104,214l74,33l25,90l282,-25l130,54l-88,138l-174,187l-12,118l-146,-8l-221,84l-8,21Z" /><path id="2509909" d="M-354949,-74839l-104,4l-124,43l-68,-6l-130,90l-115,23l35,225l45,31l-50,90l-85,-101l-136,44l-159,-110l28,-135l-90,-223l-7,-214l-32,-145l6,-195l-47,-96l-18,-375l115,-153l-70,-151l-166,22l-38,101l-121,-51l-117,3l-169,-51l119,-82l117,1l-29,-71l144,-243l20,-61l116,91l104,-9l98,41l158,-78l123,-33l250,58l76,104l74,51l-121,183l59,141l75,36l-96,138l-80,16l-14,80l101,106l73,196l-15,92l90,97l32,140l73,50l-21,45l91,241Z" /><path id="2510006" d="M-382557,-69049l-205,-57l-127,12l-92,64l-139,31l-128,244l-272,-108l-116,-250l-151,-43l-49,-125l-270,23l-72,-52l-103,1l45,-358l367,-215l265,-17l237,-29l100,-210l186,-111l177,38l57,128l50,7l156,151l262,554l-178,322Z" /><path id="2510105" d="M-361745,-64308l-520,-32l14,-1254l446,893l60,393Z" /><path id="2510204" d="M-380800,-73896l4,-89l135,-51l-43,-58l95,-145l63,-8l21,-127l45,-35l24,-116l-37,-256l79,-57l53,-206l-102,-95l34,6l192,-107l31,-63l99,-17l134,13l165,44l247,277l-143,-11l-156,234l-99,287l-406,248l-118,56l4,173l-28,56l-293,47Z" /><path id="2510303" d="M-362813,-66787l-263,319l-438,369l-83,20l-48,86l-134,54l-59,-90l3,-108l-35,-60l41,-106l-69,-41l-98,-127l-38,-150l-327,330l-21,-2l-111,51l-112,-102l-59,60l-53,118l-133,58l-88,73l-82,20l-118,71l-107,-53l38,-109l-23,-84l-83,-159l-104,-312l-57,-290l-113,-126l8,-49l137,-186l107,-23l136,84l110,23l195,-32l85,48l99,-20l127,51l194,-81l96,-111l169,-34l18,-109l87,-49l132,73l156,54l50,55l246,-39l7,133l54,174l254,158l36,103l179,1l92,66Z" /><path id="2510402" d="M-377037,-71756l-89,-12l-133,35l-136,-17l-91,108l-24,99l-93,146l-156,-26l-324,-163l-180,-707l-745,-770l-76,-105l34,-79l121,-127l22,-81l138,66l114,-58l63,-533l-40,-64l72,-49l83,9l71,-83l44,-14l80,77l61,-17l139,88l68,3l209,151l45,-139l98,21l84,75l40,-57l291,108l35,40l-162,64l73,128l140,-62l55,25l107,301l81,91l106,51l119,25l112,-42l102,25l214,-83l149,21l153,-47l93,-1l103,61l68,112l-63,121l-64,54l-26,108l-82,48l-60,130l-135,-7l-100,71l-27,72l-149,166l-210,100l8,44l-104,89l-21,52l48,80l-79,117l8,108l-41,85l-104,-22l-89,26l-48,-36Z" /><path id="2510501" d="M-361599,-69461l-462,421l-548,672l-167,-443l-217,-508l-54,-89l-245,57l-129,-174l605,-1390l380,-91l110,-47l0,124l-75,53l-11,123l164,63l202,4l32,48l14,344l91,146l41,118l-6,87l107,141l91,10l159,96l10,130l41,124l-133,-19Z" /><path id="2510600" d="M-371000,-75994l-18,37l109,257l35,475l81,59l-153,-56l-115,-89l-122,-33l-105,-83l-83,-125l-265,-195l-154,-224l-42,-159l-96,-108l-51,-115l28,-168l73,-55l110,-152l27,-115l131,-137l76,55l37,86l-23,87l53,69l149,75l18,79l102,76l118,52l122,-34l108,6l-46,149l11,89l-37,127l-78,70Z" /><path id="2510659" d="M-367067,-72701l-72,-22l-62,63l-94,37l-174,-427l-197,-9l-106,-143l369,-280l307,-309l112,-37l88,11l40,-52l118,44l103,-67l336,-37l74,50l100,12l114,88l0,257l-48,97l220,60l77,122l79,-10l125,43l-316,282l-243,89l-391,-17l-129,157l-135,30l-150,7l-50,-40l-95,1Z" /><path id="2510709" d="M-370071,-70517l-262,-63l-294,-129l-206,-16l-74,-111l-16,-126l59,-124l-109,-103l75,-501l131,23l75,104l148,-1l341,-346l205,172l58,67l9,107l-26,89l-70,23l27,105l-11,95l81,60l-78,446l-63,229Z" /><path id="2510808" d="M-371732,-69831l-14,110l-65,93l70,195l-109,79l65,118l-163,91l-44,62l-133,31l-74,-52l-196,9l-204,-47l-155,14l-207,-26l-381,-78l-41,-38l-289,-23l-170,-57l-227,31l-48,-28l-308,159l-397,30l-4,-45l156,-172l-33,-98l97,-36l69,-101l-107,-51l-132,-2l-75,-45l-91,126l-130,-12l-44,-102l-104,-30l-6,-150l97,-60l-72,-80l92,26l187,6l150,63l374,-67l183,-12l113,-63l146,63l239,22l218,-578l30,-356l22,-65l-75,-175l-90,-3l10,-115l-304,-26l19,-184l97,-61l228,123l44,-27l145,42l31,103l67,78l62,176l77,103l4,87l-73,16l2,82l91,84l243,-96l417,-330l131,222l431,290l-341,54l-71,66l58,47l-5,126l-32,103l115,71l92,94l342,196Z" /><path id="2510907" d="M-374647,-65327l-137,-8l-92,235l-103,-136l-116,-30l-28,-43l-280,-147l-135,-43l-203,-15l-301,168l15,123l-86,27l-43,-77l-93,26l-45,-46l-96,-2l-77,-108l-116,2l-58,-81l-335,16l59,-100l-190,-82l-67,-129l-104,-35l-151,35l-112,-67l-4,-117l-166,-23l-53,-53h-79l-38,58l26,-56l-55,-95l66,-138l13,-149l1258,-802l181,-28l645,39l551,101l-89,-210l148,137l114,30l128,87l48,-37l138,305l-43,67l90,128l-102,152l-10,74l29,195l-15,98l-44,29l18,270l38,137l-71,73l-5,95l87,101l90,49Z" /><path id="2511004" d="M-380800,-73896l47,175l-3,62l57,89l-709,-399l204,-281l204,-558l263,-473l-302,-424l152,96l136,47l97,2l171,76l75,116l-5,102l-50,127l102,95l-53,206l-79,57l37,256l-24,116l-45,35l-21,127l-63,8l-95,145l43,58l-135,51l-4,89Z" /><path id="2511103" d="M-362813,-66787l-92,-66l-179,-1l-36,-103l-254,-158l-54,-174l-7,-133l-246,39l-50,-55l-156,-54l-132,-73l-87,49l-18,109l-169,34l-96,111l-194,81l-127,-51l-99,20l-85,-48l-195,32l-110,-23l-136,-84l96,-48l33,-74l158,-82l35,-237l-42,-312l-45,-91l-192,-75l-145,-167l67,-16l41,59l143,-17l10,-62l140,-45l91,106l126,5l62,-100l197,19l76,-16l91,53l73,-50l166,-9l106,-66l108,77l33,92l131,146l125,28l6,69l127,33l75,77l26,79l183,25l44,52l141,-77l187,-128l211,-38l60,29l89,1242l-185,-63l-126,130Z" /><path id="2511202" d="M-350673,-72285l-107,7l-122,-30l-199,7l-42,64l-99,-22l-156,84l-82,120l-214,-464l-29,-149l2,-108l-93,-187l-103,-29l-18,-120l-41,-76l130,-197l33,-133h117l85,-106l83,-36l32,-59l-60,-62l18,-144l189,-43l73,-49l196,-38l164,41l211,26l75,-79l149,-111l185,-80l150,-177l119,-100l173,-85l12,-73l-41,-69l-19,-127l51,-111l83,302l-43,138l41,178l83,56l138,230l2,36l28,53l-7,119l-106,182l-40,32l111,171l-253,245l-208,128l-414,338l-14,83l-141,145l-82,279Z" /><path id="2511301" d="M-378198,-70978l-96,36l-118,-27l-178,20l-102,63l-149,51l-154,-14l-123,18l-64,-63l-297,-1l-34,-110l-171,-33l-114,-201l-41,-115l-9,-118l30,-59l-82,-96l-12,-110l-200,2l-64,-67l-76,35l-81,90l90,123l-68,178l-180,129l-36,233l-54,128l2,-81l-67,-177l-74,-117l-34,-245l45,-40l43,-135l87,-64l74,-133l-19,-204l-43,-103l-67,-35l-221,42l-59,-172l55,-595l334,-232l427,328l508,-320l582,106l745,770l180,707l324,163l-76,42l-36,107l-56,29l-54,-69l-83,72l-134,264Z" /><path id="2511400" d="M-362963,-63704l147,158l49,142l-24,228l-8,87l-151,168l-85,91l-101,-4l-304,-191l-21,-35l-213,-537l-49,-352l-112,-138l-67,-40l-215,78l-123,-57l-64,-103l-70,-44l31,-80l138,-33l-36,-68l-77,-9l-83,-104l147,-45l75,-56l-10,-86l-398,-452l-228,-20l22,-193l78,-85l170,-33l101,-66l22,-64l8,-304l55,-308l-23,-34l21,2l327,-330l38,150l98,127l69,41l-41,106l35,60l-3,108l59,90l134,-54l48,-86l83,-20l438,-369l263,-319l126,-130l-79,359l43,150l22,228l-13,103l-279,447l-3,113l220,-135l70,-69l187,-76l87,-92l114,-77l67,372l-14,1254l-233,-34l-14,330l-78,-4l-181,64l-145,24l-76,139l29,117Z" /><path id="2511509" d="M-352327,-72051l-45,-62l-157,-24h-167l-50,40l-107,-53l-185,-6l-27,-86l105,-95l61,-140l29,-170l-32,-167l-90,-94l-148,63l-68,-89l66,-80l53,-216l176,19l202,-429l13,81l136,93l22,76l72,26l82,116l9,103l98,118l86,32l-223,584l46,167l71,92l-28,101Z" /><path id="2511608" d="M-355878,-68393l-114,-54l-47,24l-170,-101l-53,25l-296,-120l-12,-64l47,-149l65,1l-38,-275l194,-13l27,-43l149,1l286,-56l191,127l-2,225l-227,472Z" /><path id="2511707" d="M-355348,-68718l3,111l98,34l75,90l83,222l60,57l128,-36l45,50l-906,-44l-116,-159l227,-472l303,147Z" /><path id="2511806" d="M-354430,-67528l-165,-15l-170,-193l-201,-37l-127,188l-114,1l-9,-80l-87,-47l-28,-33l-295,-220l-128,-108l-8,-162l906,44l211,66l165,154l249,191l79,34l62,88l-55,60l-116,21l-59,45l-110,3Z" /><path id="2511905" d="M-348574,-73427l-129,-141l-2,-75l-405,-466l37,-78l264,14l71,-108l231,-117l-24,-235l-31,-469l98,-119l-74,-175l152,-47l47,-43l79,-21l43,164l114,196l12,52l-50,202l41,107l61,73l-56,87l-15,84l14,198l69,465l-19,102l-107,148l-33,125l-135,45l-38,-22l-107,49l-108,5Z" /><path id="2512002" d="M-359433,-69385l-102,260l-5,-32l-251,-160l-129,-57l-37,14l-161,-102l-51,-56l9,-74l-85,-64l-25,-93l-147,-73l-95,40l-14,58l-247,18l-336,382l-490,-137l133,19l-41,-124l-10,-130l-159,-96l-91,-10l-107,-141l6,-87l-41,-118l-91,-146l-14,-344l-32,-48l-202,-4l-164,-63l11,-123l75,-53l0,-124l11,-87l64,-75l17,-217l46,-183l-17,-288l-35,-75l553,-39l266,346l62,45l283,106l128,-22l297,-117l188,7l139,-87l70,75l459,660l-56,29l79,182l97,83l27,92l54,21l10,166l58,151l-40,106l-111,124l-92,186l-2,171l83,-5l190,98l86,153l-21,62Z" /><path id="2512036" d="M-384480,-64034l-28,106l-150,-36l-207,-13l31,82l-9,145l-59,69l16,65l126,159l176,155l-181,-36l-177,-110l-101,-113l-109,89l-174,55l-124,-29l-48,-61l-127,-50l-49,-58l-97,-27l40,-107l-99,9l-95,-42l-24,-84l-69,-51l77,-52l69,26l62,-75l90,-23l76,44l129,15l67,-41l203,62l0,-110l-139,-142l28,-253l132,16l328,63l70,44l112,178l88,22l146,109Z" /><path id="2512077" d="M-384379,-65753l-180,65l-377,-16l-80,419l-28,110l-269,-84l41,-228l-127,-13l8,-229l25,-236l99,-227l14,-165l100,-3l-9,-106l89,-157l109,-6l132,32l78,106l-6,117l68,114l4,79l124,57l92,265l93,106Z" /><path id="2512101" d="M-377831,-66417l-783,32l-161,118l-68,8l-166,78l-110,3l-74,-55l-240,-26l-214,23l-41,105l-481,-334l4,-240l51,-49l112,-5l181,-193l-415,-253l7,-436l124,23l255,128l366,65l236,65l206,26l32,-91l-77,-136l104,-61l20,-149l-52,-81l105,-18l78,-46l-10,-171l75,-65l1,-104l-135,-154l-184,5l-118,-33l-83,-162l-111,-20l-36,-104l-568,-7l-27,-58l-118,-50l85,-599l759,-516l522,-233l86,23l-94,90l-98,29l-108,155l-66,-18l-141,204l84,60l48,120l203,99l-31,121l86,15l47,66l13,146l47,54l127,27l105,241l84,52l150,-15l47,-36l147,-6l192,-33l9,313l334,89l3,258l164,141l1030,-73l-6,125l103,105l-50,107l-55,36l27,96l-48,76l-104,89l0,89l-41,89l-87,34l-1258,802Z" /><path id="2512200" d="M-370766,-75995l-47,38l-132,15l-55,-52l78,-70l37,-127l-11,-89l46,-149l-108,-6l-122,34l-118,-52l-102,-76l-18,-79l-149,-75l-53,-69l23,-87l-37,-86l-76,-55l108,-189l-4,-121l117,-165l-128,-169l-53,-106l50,-68l176,-14l63,68l80,-19l25,64l182,-10l89,100l42,-46l76,24l106,99l108,26l28,45l232,202l51,90l220,617l-257,195l-60,2l-78,79l-190,115l-168,60l29,106Z" /><path id="2512309" d="M-379808,-75263l-165,-44l-134,-13l-99,17l-31,63l-192,107l-34,-6l50,-127l5,-102l-75,-116l-171,-76l-97,-2l-136,-47l-152,-96l54,-8l165,-175l125,-31l42,-105l-10,-128l-119,42l-59,-308l115,-71l43,43l171,20l-56,-96l-19,-145l-53,-87l29,-180l-82,-245l-107,-144l-11,-85l67,-56l67,-147l-18,-112l85,54l214,188l97,-17l174,-160l44,-11l26,-109l48,-12l104,1l55,60l142,-47l128,114l52,96l51,4l44,152l162,111l45,63l10,104l83,37l188,-41l-90,155l-105,71l-43,85l-173,98l-38,95l-73,47l-9,136l-70,10l-36,68l17,166l-11,130l23,98l-33,49l49,87l232,134l22,96l-61,39l-197,-20l-49,70l-70,-6l-126,70l-61,60l104,46l-67,89Z" /><path id="2512408" d="M-359305,-71074l-112,6l-174,-59h-70l-134,123l-459,-660l387,55l145,-180l12,-75l76,-86l78,-23l154,45l13,175l316,-44l-11,107l-257,348l43,56l-7,212Z" /><path id="2512507" d="M-358384,-73312l-28,268l-108,34l-241,14l-106,49l-13,79l-173,14l16,-109l-61,-1l1,120l-386,42l-144,-94l-32,-66l-145,7l45,-97l-28,-118l13,-132l-21,-78l-99,-97l74,-160l-22,-83l-120,-23l-58,-95l31,-72l-108,-97l47,-60l-116,-137l126,-26l-37,-162l-62,18l-59,-57l121,-69l-15,-36l59,1l98,-67l11,-66l117,-43l76,-96l77,-13l27,-88l84,-58l63,12l94,-108l54,-2l112,-76l70,78l122,-20l17,-78l92,56l167,-13l212,41l37,61l-6,119l88,-29l80,124l-15,143l101,61l4,2l-23,72l-104,121l41,104l93,59l25,71l-72,94l-3,74l-84,89l31,286l-37,313Z" /><path id="2512606" d="M-370071,-70517l-170,30l-151,66l-203,22l26,167l-184,89l-110,-78l-167,-5l-62,71l-125,27l-77,82l-123,28l-129,110l-186,77l-342,-196l-92,-94l-115,-71l32,-103l5,-126l-58,-47l71,-66l341,-54l125,-78l92,8l197,-104l94,-33l57,-58l172,-52l192,-95l97,-86l-59,124l16,126l74,111l206,16l294,129l262,63Z" /><path id="2512705" d="M-358074,-68737l-17,-51l-195,106l-50,61l-126,52l-237,-35l-272,-197l-89,-87l-181,-27l-131,21l-130,-35l56,-87l-89,-109l102,-260l58,43l202,-34l104,20l122,-170l90,-82l176,26l146,-97l398,-145l-27,-169l42,-91l128,-99l60,41l165,-70l21,596l-126,167l-26,106l46,17l-7,106l-40,98l50,47l-77,99l-146,239Z" /><path id="2512721" d="M-352429,-66959l-144,274l116,78l-124,111l-24,71l-142,126l-131,43l-336,16l-72,23l-118,-271l68,-38l140,-185l-5,-375l81,15l27,-75l107,-27l163,86l119,25l85,-31l126,60l64,74Z" /><path id="2512747" d="M-355575,-65458l-181,188l-83,49l-689,301l-207,-155l-149,-432l-202,-127l-126,-28l120,-227l199,-20l152,54l18,69l108,-43l41,59l137,40l202,223l63,52l132,45l40,-48l148,-18l92,22l82,-32l103,28Z" /><path id="2512754" d="M-357043,-72601l206,-106l152,15l59,57l100,4l18,117l151,11l48,53l41,194l-142,4l-69,68l-234,96l-273,-101l-57,-412Z" /><path id="2512762" d="M-352608,-71377l-88,49l-63,144l-127,89l-100,-172l-74,-167l-81,-94l-115,-25l-62,-195l62,-29l449,-105l225,240l21,240l-47,25Z" /><path id="2512788" d="M-360717,-76040l-37,56l-114,-22l-155,-14l-152,-100l-100,5l-40,-83l-140,-58l-123,-136l-149,29l-95,-50l-81,-2l29,-150l87,-115l191,-206l4,-102l-80,-55l47,-138l-7,-98l50,-119l-13,-90l50,-85l204,-48l75,-90l106,277l82,81l50,115l-16,58l-258,476l39,105l-11,224l55,6l145,112l53,-5l132,132l167,-17l5,107Z" /><path id="2512804" d="M-375095,-65266l19,57l120,57l-116,71l-103,2l-209,122l90,62l-62,142l-275,43l-109,152l-31,79l-116,56l-344,192l-1108,330l11,-971l53,-101l209,-68l64,-117l74,-18l99,-112l171,-80l17,-114l58,81l116,-2l77,108l96,2l45,46l93,-26l43,77l86,-27l-15,-123l301,-168l203,15l135,43l280,147l28,43Z" /><path id="2512903" d="M-350049,-65983l-92,29l-350,-71l-69,-65l-71,-11l-77,-80l-171,-71l-131,-74l-32,-71l-170,-84l72,-159l3,-153l-63,-457l-134,-200l0,-219l237,-587l64,-79l150,58l-35,-206l-52,-41l-34,-166l27,-142l-35,-66l-221,-60l246,-436l84,-5l264,66l218,80l224,110l172,18l258,103l125,-6l140,86l168,42l211,243l136,-2l-82,231l-43,166l-30,206l-8,182l-39,167l-59,31l-85,-23l-145,50l-49,-18l2,-130l-174,-134l-45,-1l-70,92l-144,-18l-37,-115l-247,85l-200,136l-137,5l-344,364l37,109l62,56l385,51l169,85l-125,328l191,567l40,30l115,174Z" /><path id="2513000" d="M-367444,-70292l-101,10l-104,-138l-142,27l-182,2l-114,-32l-192,-91l-129,-1l-246,-115l-83,26l-410,-182l-7,-20l-72,-82l14,-93l-56,-134l8,-118l-45,-265l114,-55l74,30l141,-55l169,-22l132,68l182,31l309,102l155,-41l242,351l124,111l110,139l18,270l-5,144l96,133Z" /><path id="2513109" d="M-353629,-74428l2,79l-172,45l-144,195l-109,26l-68,283l-49,107l40,80l-4,84l60,97l24,113l-106,90l-168,47l-231,-109l77,-186l-41,-73l-120,-60l-280,-63l-86,-66l-156,-28l-60,-41l-25,-81l-97,-53l-111,-204l32,-46l-39,-147l50,-90l-45,-31l-35,-225l115,-23l130,-90l68,6l124,-43l104,-4l59,57l129,20l126,138l97,-2l34,92l127,-72l33,-102l97,-36l118,38l31,78l176,68l67,64l95,7l76,83l55,-22Z" /><path id="2513158" d="M-358686,-76628l-198,-7l-138,-105l-283,-87l-22,124l-139,97l-27,74l-69,1l-95,-72l-99,-207l15,-198l-57,-62l-2,-100l-52,-41l-48,-165l-118,-229l-75,27l-51,-264l18,-73l-38,-121l-52,-66l183,-26l123,129l96,-33l74,112l150,47l156,-27l149,48l191,-73l112,36l65,89l79,52l28,85l-8,119l97,49l98,-15l116,35l254,-21l-96,56l-23,226l72,43l-31,73l46,112l-6,169l-52,52l-30,123l45,30l-95,-3l-148,-48l-115,35Z" /><path id="2513208" d="M-380268,-64748l-106,-4l-35,49l39,132l-69,51l5,87l-85,-1l-21,-103l-169,-102l-105,-196l-140,-101l-17,-145l-161,-132l-70,-11l-111,-143l-102,-47l-111,-148l-18,-180l119,-73l151,-158l67,32l133,-103l137,77l33,60l124,75l101,18l154,-25l50,-129l143,-234l180,-1l107,41l121,-60l81,8l62,67l93,16l92,68l-111,108l-26,125l99,132l-173,402l-78,22l-246,-8l-108,41l-10,92l83,239l-13,93l-89,69Z" /><path id="2513307" d="M-385201,-67037l-123,9l-125,47l-106,-69l-71,-13l-165,21l-132,167l-21,138l-55,-13l-82,75l-29,91l-101,93l-92,32l-70,100l-118,83l-62,-29l-18,-118l101,-119l6,-82l-56,-108l-104,-20l-26,-88l-82,-132l7,-90l76,-179l89,-61l5,-156l31,-113l51,-61l70,-8l113,-137l151,-47l65,14l276,-77l89,-92l29,38l131,-21l101,60l83,-44l189,-8l230,106l-26,95l54,70l38,232l-47,244l-78,19l-26,96l-170,55Z" /><path id="2513356" d="M-384571,-77181l90,199l-175,28l-91,82l-27,93l83,129l-41,79l25,92l-211,9l-109,-56l-148,104l-69,150l10,115l-50,192h-166l-255,-28l-85,41l-188,-85l-180,25l-59,69l-118,75l-122,16l-128,-26l-245,91l-58,-35l-149,12l-75,-65l11,-99l-55,-147l5,-98l97,-1l104,-113l83,-17l33,-78l135,-177l63,30l129,-111l-7,-85l93,-5l1,-85l161,-95l-3,-108l121,-93l63,-113l2,-125l99,-25l41,-123l93,9l33,58l171,-91l61,1l147,76l46,-43l135,-13l84,53l200,-7l8,112l53,41l265,38l69,128Z" /><path id="2513406" d="M-367745,-69149l-89,96l-19,95l-66,11l-53,94l-180,38l-57,66l-100,-101l-44,42l-29,117l-92,-22l-175,144l13,166l-267,147l-103,80l-96,607l-271,-157l-198,-179l-20,72l-70,-69l27,-177l65,-82l-532,-550l-31,-108l-133,-95l-81,-121l471,-318l123,23l119,-12l-78,-205l37,-115l187,76l75,-27l-20,-90l6,-154l78,-58l-14,-196l-239,-187l-17,-107l193,-2l199,-118l72,-281l7,20l410,182l83,-26l-100,419l1009,1062Z" /><path id="2513505" d="M-382477,-75692l-53,-33l-144,-17l-128,175l-42,268l-87,-29l-83,104l-86,35l-167,-124l-579,-41l-82,-120l31,-112l62,-27l-76,-197l21,-139l-499,42l-39,-84l37,-84l-83,-111l74,-86l11,-101l-101,-98l26,-139l-41,-72l163,-523l66,-95l181,-5l87,104l-9,69l194,57l121,106l1,43l151,142l103,-166l180,13l147,-226l-39,-122l50,-106l209,227l-4,60l167,152l80,7l155,99l59,134l-39,101l174,138l516,75l-44,261l-398,218l-29,50h-124l-4,48l-101,74l15,55Z" /><path id="2513604" d="M-379008,-73063l-582,-106l-508,320l-427,-328l-46,-326l-64,4l-64,-71l-57,-89l3,-62l-47,-175l293,-47l28,-56l-4,-173l118,-56l406,-248l99,-287l156,-234l143,11l359,235l681,419l115,165l-71,83l-83,-9l-72,49l40,64l-63,533l-114,58l-138,-66l-22,81l-121,127l-34,79l76,105Z" /><path id="2513653" d="M-385016,-65285l346,-15l121,126l39,184l19,545l-55,95l-80,207l-88,-22l-112,-178l-70,-44l-328,-63l53,-82l70,-33l-113,-362l151,-73l19,-175l28,-110Z" /><path id="2513703" d="M-350025,-69125l-172,-18l-224,-110l-218,-80l-264,-66l-84,5l-102,17l-117,-54l-130,5l-61,-222l-56,-104l68,-65l33,-213l49,-58l-276,-187l987,-536l149,-424l-37,-42l76,-154l-269,-854l82,-279l141,-145l14,-83l212,92l231,25l134,-24l110,-48l99,-82l170,89l39,114l9,140l91,105l46,126l-63,116l-164,-17l-165,8l-19,411l93,68l97,-20l27,42l128,-19l-180,182l41,96l68,63l27,99l173,31l99,52l8,175l-41,63l95,30l157,-64l280,331l44,311l-63,1l-53,183l-34,242l49,90l-24,112l-73,3l-235,104l-77,57l-75,-46l-850,426Z" /><path id="2513802" d="M-373887,-71480l-19,184l304,26l-10,115l90,3l75,175l-22,65l-30,356l-218,578l-239,-22l-146,-63l-113,63l-183,12l-374,67l-150,-63l-187,-6l-92,-26l77,-1090l-308,9l490,-1175l125,171l104,31l-22,78l65,42l101,1l71,74l158,21l51,32l22,187l278,-3l118,-25l-16,183Z" /><path id="2513851" d="M-365635,-71821l-286,90l-205,434l-479,3l-18,-75l56,-107l-23,-94l21,-68l-27,-131l41,-102l-170,-194l49,-58l-53,-200l-338,-378l95,-1l50,40l150,-7l135,-30l129,-157l391,17l243,-89l316,-282l-70,560l-93,78l41,115l117,19l81,99l184,23l-114,114l-51,83l-45,235l-127,63Z" /><path id="2513901" d="M-373888,-63910l-99,6l-659,-62l-192,-93l-66,16l-210,-88l-118,58l-97,-48l-159,-43l-105,48l-99,-16l-82,-87l-66,-12l-96,-120l49,-72l116,-56l31,-79l109,-152l275,-43l62,-142l-90,-62l209,-122l103,-2l116,-71l-120,-57l-19,-57l116,30l103,136l92,-235l137,8l435,-6l95,38l117,100l42,94l23,379l25,194l98,157l-54,111l-92,59l-3,190l73,101Z" /><path id="2513927" d="M-376312,-68065l-1030,73l-164,-141l-3,-258l-334,-89l-9,-313l97,-20l19,-49l198,-37l42,-90l-5,-112l83,-15l-36,-171l62,-76l-17,-156l131,-383l66,-61l273,361l-24,159l120,-29l76,33l4,135l-84,120l49,56l12,147l106,143l127,70l109,138l89,42l17,157l53,71l22,103l-35,58l-14,134Z" /><path id="2513943" d="M-363022,-75968l-92,3l-118,148l-61,167l-44,18l51,149l-224,2l-100,92l-147,252l-51,17l-141,115l-94,7l-39,62l-127,-14l-91,116l-100,56l-381,-1753l103,-36l101,3l120,-53l-2,-103l888,-29l37,62l-141,231l55,228l-70,93l96,115l105,29l80,-39l105,4l92,-85l178,104l12,39Z" /><path id="2513968" d="M-380001,-68731l568,7l36,104l111,20l83,162l118,33l184,-5l135,154l-1,104l-75,65l10,171l-78,46l-105,18l52,81l-20,149l-104,61l77,136l-32,91l-206,-26l-236,-65l-366,-65l-255,-128l-124,-23l80,-92l-3,-185l62,-60l58,-127l77,-100l-121,-64l-45,-122l16,-122l94,-39l10,-179Z" /><path id="2513984" d="M-379688,-66131l-93,-16l-62,-67l-81,-8l-121,60l-107,-41l-180,1l-143,234l-50,129l-154,25l-101,-18l-124,-75l-33,-60l-137,-77l23,-72l11,-333l79,-165l62,-322l248,150l90,-19l49,55l114,5l103,62l130,-22l-4,240l481,334Z" /><path id="2514008" d="M-363309,-73079l-59,-40l-119,-15l-170,64l-151,93l-109,-44l-151,14l-170,-19l-94,-67l-158,21l-56,-47l-188,-30l-26,-80l-311,-70l-222,-86l0,-109l-718,-28l0,-257l-114,-88l-100,-12l-74,-50l998,-1352l-688,-557l108,-514l116,99l408,-150l123,-14l110,74l103,8l79,-33l19,-67l142,-96l381,1753l1091,1699Z" /><path id="2514107" d="M-366870,-81557l-69,149l287,175l249,34l117,88l7,82l-91,97l-107,19l-27,100l-83,15l49,94l126,82l124,51l10,56l-15,261l28,227l-14,163l47,43l5,126l92,130l10,71l256,-93l101,-9l26,79l-58,50l74,107l-965,-87l-300,-22l-388,-42l-784,-72l-177,-200l-175,-129l-155,-195l-124,-61l48,-122l-23,-144l-44,-55l-90,-26l-66,-262l-18,-124l-190,-120l5,-68l-104,-190l-76,-64l-4,-145l-53,-58l22,-81l-254,-179l17,-128l56,-52l-28,-125l-51,-97l43,-90l-3,-98l48,-99l-89,-78l-36,-98l74,-158l-5,-93l70,-70l72,81l3,137l48,35l192,41l147,167l123,123l168,52l175,132l184,55l190,87l118,29l67,99l115,59l65,-3l124,-9l138,-56l81,48l34,158l92,33l169,-1l51,109l-69,52l30,54l191,-70l67,33l100,-10Z" /><path id="2514206" d="M-380146,-68839l-97,20l-13,48h-103l-218,-54l-117,60l-185,-48l-48,-61h-128l-113,-50l-92,-99l-81,18l-49,-44l-73,76l-67,21l-133,228l-982,-126l88,-199l178,-322l-262,-554l285,-73l42,10l164,-83l136,-28l298,-9l388,32l437,-42l122,32l30,140l-45,106l42,104l149,44l202,-62l61,40l18,80l94,101l157,95l-85,599Z" /><path id="2514305" d="M-382781,-71780l-71,21l-38,96l-58,38l-6,81l-166,-4l-27,-88l3,-42l-161,-102l-84,-189l10,-45l-145,-316l-78,2l-77,-165l-80,-113l-95,-45l-6,-84l-70,-49l-83,-154l-217,-179l73,-32l47,-135l-48,-68l20,-56l309,171l145,35l203,2l70,41l172,-53l13,-89l176,79l49,69l196,88l78,-3l29,68l122,114l100,175l-204,26l-86,54l106,281l-70,19l19,226l-43,96l-140,-5l-25,165l138,69Z" /><path id="2514404" d="M-372639,-67322l-160,80l-103,112l65,191l-306,49l-177,-91l-107,-31l-530,8l-116,32l-774,-128l-48,37l-128,-87l-114,-30l-148,-137l89,210l-38,-44l-132,-36l-77,-116l-35,-105l83,-71l-72,-194l-70,-81l190,-18l115,78l43,-8l138,-112l-22,-203l19,-125l-90,-12l-126,-55l-6,-99l88,-52l82,-153l109,-104l-3,-138l63,-141l-36,-105l151,-157l397,-30l308,-159l48,28l227,-31l170,57l289,23l41,38l381,78l207,26l155,-14l204,47l196,-9l74,52l-9,185l-89,443l-123,178l-205,135l-1,117l-54,120l27,79l-160,127l45,48l14,180l41,118Z" /><path id="2514453" d="M-353038,-72156l-88,161l-92,123l-112,79l-11,-42l-146,-111l-343,-156l86,-287l-282,-8l-18,-30l-143,33l-65,-70l-227,-103l255,-160l173,61l147,72l54,-3l64,81l62,-111l279,-129l202,-138l35,-40l68,89l148,-63l90,94l32,167l-29,170l-61,140l-105,95l27,86Z" /><path id="2514503" d="M-383869,-69882l-133,18l-274,2l-187,-21l-77,34l-66,-37l-411,-30l4,-54l-159,-42l-21,-92l-144,-53l-22,-71l-106,-92l-67,-7l-94,81l-173,-109l-17,-107l-110,-111l-197,-32l-74,101l-142,69l-58,-42l-264,105l-37,-105l-74,-194l46,-23l59,-123l103,-107l-24,-109l-92,-117l-18,-76l-81,-101l30,-111l-4,-119l-99,-56l86,-79l-64,-68l12,-113l225,41l151,-6l297,10l427,-4l228,136l102,22l124,-19l77,-39l7,-94l150,-19l135,38l104,-39l224,9l87,-129l76,-28l103,19l104,59l115,-12l1,-97l934,389l27,88l166,4l108,239l-205,22l-61,-71l-98,-8l-89,-56l-133,369l-248,589l9,161l67,400l-265,17Z" /><path id="2514552" d="M-380695,-77723l18,112l-67,147l-67,56l11,85l107,144l82,245l-29,180l53,87l19,145l56,96l-171,-20l-43,-43l-115,71l59,308l119,-42l10,128l-42,105l-125,31l-165,175l-54,8l-81,-179l-174,-158l-4,-105l-44,-130l117,-72l28,-154l116,-103l-33,-49l-118,-39l-69,-112l114,-78l-55,-321l-69,-148l111,-26l60,-86l-39,-71l27,-88l-59,-114l-62,-59l-41,-161l20,-101l93,-131l229,-83l201,-33l117,109l-103,143l22,119l-18,111l58,101Z" /><path id="2514602" d="M-372452,-71100l-417,330l-243,96l-91,-84l-2,-82l73,-16l-4,-87l-77,-103l-62,-176l-67,-78l-31,-103l-145,-42l-44,27l-228,-123l-97,61l16,-183l219,-21l-17,-79l-64,-83l116,-89l24,-95l108,-82l158,24l-12,-79l253,200l607,-25l130,623l-103,269Z" /><path id="2514651" d="M-372336,-62131l-30,87l-114,39l3,91l-90,-4l-144,62l-99,-19l-77,23l-131,-35l-197,94l-132,94l-152,5l-122,-58l-153,-6l-81,-102l-209,-60l-121,-1l-97,-53l-77,-124l-73,-69l-175,-44l-65,-122l-179,-92l56,-174l95,-115l226,-111l76,-72l233,51l84,-55l135,29l109,67l130,-13l109,-77l145,-146l113,-42l58,51l67,204l64,46l109,-1l174,-40l137,23l1,168l24,115l191,252l179,134Z" /><path id="2514701" d="M-367302,-68364l-38,16l-355,-39l-32,516l-623,560l-393,-121l-359,-137l96,-607l103,-80l267,-147l-13,-166l175,-144l92,22l29,-117l44,-42l100,101l57,-66l180,-38l53,-94l66,-11l19,-95l89,-96l145,4l26,151l124,199l148,431Z" /><path id="2514800" d="M-366738,-73825l-118,-44l-40,52l-88,-11l-112,37l-307,309l-369,280l31,-537l-158,14l-287,-30l-113,-26l-108,44l-164,-25l-270,-87l-105,12l-176,-44l-129,13l-39,51l-238,-10l-218,-47l-275,-140l-116,-24l-100,-120l-23,-67l84,-21l31,-58l-91,-35l24,-63l80,-48l25,-86l74,-13l92,-98l-14,-79l101,-30l-45,37l12,111l107,65l999,-845l284,395l1094,627l11,68l135,240l112,53l16,47l108,64l99,24l71,-32l113,77Z" /><path id="2514909" d="M-370101,-68711l-96,-37l-36,30l35,117l-124,26l-24,143l-118,57l-111,-61l-144,173l-119,112l41,102l-196,-47l-78,78l-263,85l-188,-51l-141,-87l-65,-82l-101,-30l-98,-78l-419,15l123,-178l89,-443l9,-185l133,-31l44,-62l163,-91l-65,-118l109,-79l-70,-195l65,-93l14,-110l186,-77l129,-110l123,-28l77,-82l125,-27l62,-71l167,5l110,78l184,-89l-26,-167l203,-22l151,-66l170,-30l101,-90l67,-12l115,37l103,65l260,110l-193,2l17,107l239,187l14,196l-78,58l-6,154l20,90l-75,27l-187,-76l-37,115l78,205l-119,12l-123,-23l-471,318l81,121l133,95l31,108Z" /><path id="2515005" d="M-351480,-72055l-228,90l-163,189l-141,-93l-106,-7l-141,-43l-68,-132l28,-101l-71,-92l-46,-167l223,-584l114,-75l144,-42l18,120l103,29l93,187l-2,108l29,149l214,464Z" /><path id="2515104" d="M-358126,-71024l-22,187l-113,137l-154,-45l-136,63l-1,170l-78,-53l-120,-13l-97,32l-127,-250l-7,-9l29,-51l85,-49l-43,-72l103,-29l125,-101l40,-91l141,27l100,-51l126,-26l63,121l86,103Z" /><path id="2515203" d="M-368794,-80168l-111,41l-150,-63l-31,-67l-105,-32l-40,-76l-60,-4l-65,-96l-112,-6l-57,-74l-126,-53l-193,72l-314,88l-114,18l-105,-25l61,-149l-16,-110l64,-165l51,-68l-63,-63l-171,-24l-306,5l-145,-168l-160,-86l-180,4l-106,38l-94,-19l-90,-25l-54,-114l76,-111l-124,-87l32,-117l190,-68l147,35l82,-17l-6,-86l-72,-75l32,-176l125,-164l100,-82l105,25l90,93l144,-111l-141,-81l-16,-208l65,-61l175,40l179,-22l124,-172l73,-63l167,-62l127,-71l132,56l178,-31l57,13l-70,70l5,93l-74,158l36,98l89,78l-48,99l3,98l-43,90l51,97l28,125l-56,52l-17,128l254,179l-22,81l53,58l4,145l76,64l104,190l-5,68l190,120l18,124l66,262l90,26l44,55l23,144l-48,122Z" /><path id="2515302" d="M-351771,-69515l-59,-47l-140,69l-75,84l-147,-31l-34,-47l-140,-65l-95,-1l-30,63l-145,-71l23,-115l64,-102l24,-153l-35,-40l2,-255l52,-56l22,-126l-61,-271l-118,-116l-126,-237l-97,-63l127,-89l63,-144l88,-49l-3,86l87,68l133,37l3,-128l55,-157l50,-57l4,-86l119,6l48,-125l120,4l121,-47l63,16l95,126l190,110l95,192l247,628l-398,429l276,187l-49,58l-33,213l-68,65l56,104l61,222l-155,-13l-31,27l-141,-72l-108,-31Z" /><path id="2515401" d="M-364048,-68560l-106,66l-166,9l-73,50l-91,-53l-76,16l-197,-19l-62,100l-126,-5l-91,-106l-140,45l-10,62l-143,17l-41,-59l-67,16l-165,13l-96,-72l-43,-95l73,-91l-11,-82l119,-193l837,-552l-44,-449l1011,199l335,218l129,174l-50,91l-270,136l-143,156l-13,66l-117,92l-112,119l-51,131Z" /><path id="2515500" d="M-366738,-73825l-113,-77l-71,32l-99,-24l-108,-64l-16,-47l-112,-53l-135,-240l-11,-68l-1094,-627l-284,-395l369,-14l86,-73l-100,-488l58,-62l106,-16l195,-280l30,-96l178,-155l-193,-121l88,-43l311,-544l333,194l73,75l155,56l124,18l64,39l138,-4l103,67l89,-22l-77,58l-39,-34l-111,61l-204,3l-151,857l1167,74l688,557l-998,1352l-336,37l-103,67Z" /><path id="2515609" d="M-354340,-67076l86,72l13,72l96,170l-75,86l-248,-88l-514,-558l243,-83l222,148l117,37l9,87l51,57Z" /><path id="2515708" d="M-384230,-73117l217,179l83,154l70,49l6,84l95,45l80,113l77,165l78,-2l145,316l-10,45l84,189l161,102l-3,42l-934,-389l20,-36l16,-277l-56,-85l56,-82l-153,-157l5,-106l40,-53l-59,-65l33,-91l-54,-65l3,-75Z" /><path id="2515807" d="M-356277,-71325l-137,-71l-210,5l-53,-64l-99,-7l-106,-101l-191,-81l-48,-61l131,-289l51,-21l-47,-174l273,101l128,187l534,207l-139,156l-87,213Z" /><path id="2515906" d="M-355754,-68072l-123,-29l-196,-20l-199,42l-145,72l-268,-102l-123,-140l-102,66l-42,-17l-150,-174l132,-122l42,-101l156,-86l63,27l139,-27l12,64l296,120l53,-25l170,101l47,-24l114,54l116,159l8,162Z" /><path id="2515930" d="M-353741,-67571l27,90l-45,36l-225,101l-139,17l-217,251l-51,-57l-9,-87l-117,-37l-222,-148l309,-123l110,-3l59,-45l116,-21l55,-60l78,4l271,82Z" /><path id="2515971" d="M-351871,-71776l-121,47l-120,-4l-48,125l-119,-6l-4,86l-50,57l-55,157l-3,128l-133,-37l-87,-68l3,-86l47,-25l-21,-240l-225,-240l-449,105l-62,29l-12,-45l112,-79l92,-123l88,-161l185,6l107,53l50,-40h167l157,24l45,62l68,132l141,43l106,7l141,93Z" /><path id="2516003" d="M-356835,-66595l-69,22l-235,-22l-82,-113l-118,-12l-81,-46l-36,-77l-139,-64l-207,2l3,-141l-60,-98l-25,-138l-4,-214l-192,-176l43,-208l209,-372l88,-59l76,5l39,77l109,-9l114,90l135,-36l60,-64l205,105l92,-40l102,-66l123,140l268,102l-25,257l-32,167l-154,163l-56,22l-77,121l43,197l-51,152l43,61l-147,45l25,98l82,8l7,81l-76,40Z" /><path id="2516102" d="M-362240,-71978l35,75l17,288l-46,183l-17,217l-64,75l-11,87l-110,47l-380,91l-605,1390l-335,-218l-1011,-199l-132,-403l156,-949l-141,-370l33,-223l665,-114l72,-69l64,-129l89,-27l700,339l1021,-91Z" /><path id="2516151" d="M-361062,-66686l-112,-57l-184,-55l-141,17l-27,-25l-220,31l-110,65l-197,47l-91,64l-142,146l-134,30l-82,-431l-89,-1242l-18,-272l1547,1682Z" /><path id="2516201" d="M-380899,-66936l-62,322l-79,165l-11,333l-23,72l-133,103l-67,-32l-178,-74l-186,-173l-193,234l-729,-102l-3,9l-102,-84l-91,-211l-126,-37l-54,121l-114,17l-101,139l-86,-34l-250,22l67,-151l-75,-55l73,-86l-15,-129l86,-107l-73,-93l-142,-79l29,-73l8,-204l-79,-52l162,-187l-140,-45l51,-160l-2,-152l633,47l-147,-374l-125,-232l-2,-137l-70,-340l128,-244l139,-31l92,-64l127,-12l205,57l-88,199l982,126l133,-228l198,363l133,92l-228,674l44,278l53,-13l110,69l34,124l112,32l89,87l11,180l75,130Z" /><path id="2516300" d="M-368781,-75388l-999,845l-107,-65l-12,-111l45,-37l12,-67l-191,-141l-73,68l-146,-71l23,-69l109,-4l60,-83l277,-312l-210,-206l-23,-40l31,-155l6,-207l100,-149l-99,-62l-466,155l-164,-11l-100,18l-58,97l-29,-106l168,-60l190,-115l78,-79l60,-2l257,-195l-220,-617l126,-325l527,-815l1425,97l-127,-200l167,110l311,32l143,102l98,11l18,138l110,-15l38,101l158,174l-385,479l-311,544l-88,43l193,121l-178,155l-30,96l-195,280l-106,16l-58,62l100,488l-86,73l-369,14Z" /><path id="2516409" d="M-355814,-64841l-107,75l-1,50l-119,124l-128,-34l-124,77l-75,5l-160,-376l689,-301l83,-49l181,-188l36,-42l-103,-79l-4,-80l102,-115l59,-15l38,-130l43,-44l158,-116l-18,-373l155,-25l73,18l-7,113l124,13l28,123l97,48l57,-13l59,69l136,-17l59,91l51,278l-55,34l46,78l75,33l7,138l47,89l-45,60l66,44l30,149l-35,78l-104,50l-21,135l-95,16l-39,65l-87,-42l-190,-37l-59,55l-67,-24l-56,55l-110,10l-354,-57l-37,-77l-133,-16l-166,77Z" /><path id="2516508" d="M-366605,-71294l-150,40l-149,5l-71,-102l-161,-36l-121,110l-109,-41l-45,81l-204,23l-172,125l-242,-351l-155,41l-309,-102l-182,-31l-132,-68l-169,22l-141,55l-74,-30l-114,55l-35,-230l-262,-42l-335,-38l-266,-102l-149,22l205,-601l523,-372l1063,-357l580,-90l192,299l123,-50l197,9l174,427l94,-37l62,-63l72,22l338,378l53,200l-49,58l170,194l-41,102l27,131l-21,68l23,94l-56,107l18,75Z" /><path id="2516607" d="M-377533,-76258l-76,-83l-74,62l24,108l-129,22l-75,-23l-133,18l-160,104l-22,93l-55,-7l-80,70l-70,11l-140,93l-125,-20l9,177l-124,-9l-206,16l-26,32l9,233l-216,610l-359,-235l-247,-277l67,-89l-104,-46l61,-60l126,-70l70,6l49,-70l197,20l61,-39l-22,-96l-232,-134l-49,-87l33,-49l-23,-98l11,-130l-17,-166l36,-68l70,-10l9,-136l73,-47l38,-95l173,-98l43,-85l105,-71l59,73l168,71l77,82l45,109l112,126l193,75l68,-28l213,35l87,177l153,3l76,-90l2,-85l69,-41l39,-98l62,-96l104,39l64,84l38,184l-60,78l-69,25Z" /><path id="2516706" d="M-372479,-71992l-607,25l-253,-200l122,8l-42,-104l-83,-18l82,-46l32,-68l172,-105l-66,-61l19,-146l-54,-78l17,-109l257,11l63,95l67,45l146,1l265,3l115,-122l85,-52l175,-34l198,-149l-40,32l338,434l38,167l-246,69l-76,110l-254,130l-130,96l-174,74l-166,-8Z" /><path id="2516755" d="M-366756,-70158l238,41l113,-83l60,-3l52,118l116,61l-10,74l184,67l60,122l-32,206l11,172l65,32l59,83l61,11l73,87l83,-44l92,47l-29,226l-119,193l-220,-339l-74,-78l-63,-140l-79,-72l-50,37l-209,2l-175,56l-43,-20l-15,-240l-76,-191l-190,-165l-55,-119l-83,-60l220,-42l35,-39Z" /><path id="2516805" d="M-385044,-65175l-19,175l-151,73l-158,-6l39,-183l-160,-26l-182,40l-150,-89l-86,-4l-160,-100l-51,-88l-144,-147l-60,-94l-5,-68l-99,-129l101,-78l37,-147l-96,-82l-79,-32l-24,-116l118,-83l70,-100l92,-32l101,-93l29,-91l82,-75l55,13l21,-138l132,-167l165,-21l71,13l106,69l125,-47l123,-9l25,104l-71,144l18,65l232,35l33,60l-109,6l-89,157l9,106l-100,3l-14,165l-99,227l-25,236l-8,229l127,13l-41,228l269,84Z" /><path id="2516904" d="M-383438,-64567l-114,-5l-86,36l-87,-25l-53,192l-67,147l-172,126l-254,-42l-112,39l-97,65l-146,-109l80,-207l55,-95l-19,-545l-39,-184l-121,-126l-346,15l80,-419l377,16l180,-65l62,-139l98,-23l77,-93l42,41l122,-23l100,131l56,6l105,137l92,14l145,-43l-9,-67l65,-51l136,92l60,-55l204,108l44,91l-20,147l-40,77l-105,68l21,68l121,30l201,20l-85,161l-13,83l-75,101l-88,-26l-78,25l-49,145l-94,121l-154,40Z" /><path id="2517001" d="M-356195,-76625l-20,61l-144,243l29,71l-117,-1l-119,82l-133,-57l-93,-163l-114,-45l-121,44l-87,-30l-174,-30l-136,-55h-145l-66,123l-110,26l-31,-78l-187,-123l-80,109l-53,-4l-41,-163l-81,-26l-110,29l-45,-30l30,-123l52,-52l6,-169l-46,-112l31,-73l-72,-43l23,-226l96,-56l250,78l104,14l93,20l130,117l86,43l117,-8l42,94l66,42l229,22l68,116l114,18l113,-138l42,42l124,62l107,-3l115,53l138,112l102,126l18,61Z" /><path id="2517100" d="M-369591,-67833l10,76l-111,52l-41,123l15,176l-58,187l-86,99l-73,45l-101,-21l-317,-246l-60,-59l-216,-109l-125,-31l-447,-132l-76,17l-104,-158l-56,-19l-85,-151l188,51l263,-85l78,-78l196,47l-41,-102l119,-112l144,-173l111,61l118,-57l24,-143l124,-26l-35,-117l36,-30l96,37l532,550l-65,82l-27,177l70,69Z" /><path id="2517209" d="M-382290,-64833l-127,25l-56,-42l-92,18l-133,-112l-117,-51l-72,-61l85,-161l-201,-20l-121,-30l-21,-68l105,-68l40,-77l20,-147l-44,-91l-204,-108l-60,55l-136,-92l-72,-96l53,-48l-44,-139l250,-22l86,34l101,-139l114,-17l54,-121l126,37l91,211l102,84l90,32l40,105l99,29l45,81l117,78l27,152l58,81l116,14l-319,674Z" /><path id="2517407" d="M-370377,-80445l-149,85l-149,31l-93,-109l-187,-83l-132,53l-29,42l-99,-1l-95,87l25,74l-211,29l12,-114l-97,-161l13,-133l102,-141l29,-94l-41,-121l52,-178l-16,-71l94,19l106,-38l180,-4l160,86l145,168l306,-5l171,24l63,63l-51,68l-64,165l16,110l-61,149Z" /></g></svg>