<?xml version="1.0"?><svg xmlns="http://www.w3.org/2000/svg" version="1.2" baseProfile="tiny" width="1080" height="1080" viewBox="-41.3583 3.8262 8.963000000000001 5.656700000000001" stroke-linecap="round" stroke-linejoin="round"><g id="UF26MU" transform="scale(0.0001,-0.0001)"><path id="2600054" d="M-350541,-78800l-143,683l-147,74l-162,-4l-33,-184l-34,-20l-194,145l-146,183l180,-572l93,-77l127,-249l127,-74l99,-88l117,-12l30,-60l139,-37l178,-206l127,140l327,-44l237,46l232,-106l202,-9l121,-84l69,58l61,168l85,-11l122,40l117,3l0,125l-52,61l-156,-11l-64,45l-140,18l-210,-10l-76,-59l-464,-72l-769,200Z" /><path id="2600104" d="M-375588,-76392l-120,64l-80,-20l-44,44l-284,40l-170,-76l-54,-45l-110,48l-64,162l-218,9l-18,63l-181,-91l-117,25l47,-75l200,-210l-73,-187l26,-139l-61,-117l3,-184l-60,-112l37,-24l6,-159l90,-150l5,-84l-159,-29l-73,-76l10,-76l154,-133l21,-199l159,-110l543,-713l-35,85l87,62l82,173l-19,110l99,120l189,121l-23,66l118,62l26,88l303,251l98,152l-18,209l-109,169l-4,98l-60,62l-71,-67l-56,34l44,116l-57,165l47,78l27,131l-2,148l-92,52l11,69Z" /><path id="2600203" d="M-408618,-83707l-7,57l-100,76l-191,13l-61,-104l50,-53l28,-149l-46,-58l-133,-89l63,-87l-8,-130l-67,-42l-179,-190l-136,131l-91,36l-79,98l-154,129l-56,82l-215,-16l-74,-206l-129,-38l-33,-38l-154,-33l-85,-143l-41,-190l16,-104l-76,-22l-189,52l-57,-76l-25,-209l-58,-116l-75,-82l-61,-16l-43,-83l-183,-113l-79,85l-149,-4l-75,-265l-97,-203l-119,-77l-6,-42l-194,1l-43,-68l-94,-25l46,-85l12,-230l-70,-109l-203,-34l-57,-82l-118,-58l-174,-16l-187,24l-81,-94l-47,-119l-175,-160l-119,-45l-73,-58l-85,-15l-129,23l148,-144l91,-57l293,3l101,-81l167,2l83,43l70,91l253,31l-24,69l148,72l204,-48l73,30l212,-47l344,41l107,28l195,-10l-29,-69l-85,-65l-58,-247l44,-93l116,-70l18,-104l52,-5l26,-98l213,-39l36,-45l89,71l110,-41l224,-1l113,-228l-64,-263l101,-86l113,100l96,48l105,-6l107,60l73,-50l109,-24l19,-112l145,175l28,107l-28,257l66,105l122,73l145,-56l1530,1524l-133,54l-73,77l-56,-28l-26,130l-215,34l-11,114l-150,121l-126,48l-47,139l-63,-1l-42,1091l-94,749Z" /><path id="2600302" d="M-359210,-83659l-169,-43l-68,20l0,101l-194,7l-77,-17l5,-210l-160,-90l-51,66l-7,87l-142,124l-32,-302l80,-399l199,-643l140,-401l-1,-129l83,6l128,130l226,-120l27,-79l233,-61l197,137l-218,331l132,161l-43,250l37,60l-151,44l-12,156l18,126l-30,100l-70,-20l-70,58l-27,131l47,97l152,136l-1,94l-181,92Z" /><path id="2600401" d="M-354708,-85459l-64,61l-14,118l-58,13l-60,95l27,112l-335,-506l-29,-226l114,-561l-249,-234l-272,-251l71,-338l-451,-246l31,-100l-92,-112l26,-122l-96,-135l-6,-136l-59,-73l93,-40l137,-218l169,-107l123,37l27,74l277,143l70,-60l150,103l107,-18l113,-97l137,21l15,63l99,38l116,-228l96,-31l256,35l149,5l74,56l40,116l94,38l60,-20l145,116l63,9l214,593l-16,222l-621,113l92,306l-795,552l-138,440l439,272l-21,96l-121,17l-56,-35l-71,30Z" /><path id="2600500" d="M-370553,-93074l77,163l107,52l-2,100l63,81l85,53l76,-65l102,57l85,114l219,74l88,94l-11,108l138,123l-8,56l74,199l-28,73l-81,6l-199,199l-4,69l-82,225l109,49l16,114l149,182l64,151l116,122l3,153l63,3l82,264l51,13l104,125l12,66l69,80l68,217l68,64l-10,75l42,190l-35,97l79,199l61,38l33,136l54,73l-30,9l-53,15l-61,-83l-163,-32l-52,-118l-80,14l-114,62l-207,38l-126,-38l-201,61l-188,-12l-133,-102l-188,-61l-150,-76l-68,-5l-87,-157l-86,2l-90,-63l-147,-217l-113,-65l-67,-135l-4,-85l-96,-176l-101,-60l-52,-132l-111,-73l-24,-63l-108,-102l-68,-195l17,-183l-21,-32l8,-285l29,-33l-16,-138l-59,-109l-36,-179l-115,-167l-37,-146l-103,-47l-26,-105l384,-227l-84,-136l-8,-139l48,-100l219,76l125,80l134,192l83,22l175,-77l234,-208l101,-146l-47,-156l43,-201l23,101Z" /><path id="2600609" d="M-367591,-85990l238,263l94,136l-4,112l132,146l182,78l69,-32l110,28l-247,1048l-830,-17l-300,-81l-65,132l-8,-51l-43,-809l390,-408l13,-111l61,-52l3,-97l-37,-57l-2,-131l47,-8l5,-126l105,2l87,35Z" /><path id="2600708" d="M-351571,-75019l-94,13l-174,-88l-96,-28l-37,-75l-109,-21l-121,-108l-348,-115l-179,-472l155,-522l33,-31l-65,-114l36,-27l-25,-149l182,-298l2,86l294,154l266,-68l199,-257l96,44l-30,107l12,103l99,15l122,65l-19,235l106,-60l47,-64l-249,498l177,545l278,98l-9,76l50,40l-102,127l-178,-67l-140,166l-4,94l-175,98Z" /><path id="2600807" d="M-360073,-83614l-151,-40l-3,-95l-139,-109l-134,95l-126,-65l-135,-165l-37,69l30,130l-213,-38l-207,-181l-122,-1l-31,-270l-602,-413l-233,-183l-256,-304l-197,-342l-42,-98l374,-106l616,267l731,-449l68,-26l94,129l216,70l425,184l18,113l126,105l38,-133l279,111l-140,401l-199,643l-80,399l32,302Z" /><path id="2600906" d="M-354056,-84281l321,472l-424,514l-506,684l-50,-94l-98,-52l-67,-103l8,-52l-122,-167l-99,-33l-4,107l-199,-12l9,-136l-292,-143l-50,-130l149,35l121,-412l71,-58l60,14l74,-88l-28,-72l106,-182l21,-129l439,-240l161,40l133,185l69,65l197,-13Z" /><path id="2601003" d="M-362995,-88334l-134,49l-36,43l-22,128l-101,121l-49,-62l-83,41l267,-419l-71,-254l164,-845l504,3l222,195l174,493l-79,55l68,97l-142,28l-39,-36l-125,156l-169,-25l35,81l-83,88l-77,-36l-176,21l-48,78Z" /><path id="2601052" d="M-350541,-78800l138,66l40,56l1,257l40,172l67,29l51,82l-84,139l-112,63l18,129l-10,133l-148,181l-214,33l-55,45l-111,16l-75,171l-62,-38l-60,-144l15,-82l-100,-171l-60,-37l-138,-223l146,-183l194,-145l34,20l33,184l162,4l147,-74l143,-683Z" /><path id="2601102" d="M-403454,-73292l-54,-50l-102,-214l-118,-68l-211,-58l-397,10l-155,61l-271,164l-67,54l-274,165l-134,43l-178,-138l11,-91l-23,-190l-58,-323l-1038,-406l-111,-161l-86,-33l-292,-37l-49,-36l-88,-206l-4,-74l110,-307l102,-200l128,-190l186,-218l171,-153l89,-137l101,-232l48,-266l-59,-267l-79,-148l-310,-266l-69,-130l-22,-133l21,-90l98,-131l186,-120l166,-58l501,-126l101,-36l135,-96l128,-201l40,-184l-3,-170l-31,-130l-44,-500l20,-247l-3,-30l-165,-327h344l33,66l32,389l82,73l63,8l99,250l153,49l55,84l98,5l-13,70l90,55l30,153l122,46l143,7l826,231l-83,238l-67,1133l2,20l358,630l515,845l-729,2329Z" /><path id="2601201" d="M-369009,-84398l-257,132l-218,300l35,231l353,778l13,426l-147,-167l-192,-41l-48,-35l-3,-137l-72,-81l-57,-13l-178,31l-132,-56l-127,71l-167,62l-112,-99l29,-45l-70,-103l0,-72l-79,-204l-43,-61l-99,-45l-131,-12l-76,-98l-151,-63l-70,-76l-14,-69l-81,-8l-153,-132l-234,-51l101,-231l192,-65l295,-77l673,-579l33,107l122,138l38,84l-35,192l157,105l85,-144l136,62l243,-2l95,-36l28,-89l100,-69l119,154l99,87Z" /><path id="2601300" d="M-355784,-84311l-186,184l0,32l125,152l182,156l170,271l-854,-222l-213,-42l-443,48l221,-185l9,-97l-86,-394l193,-527l886,611l-4,13Z" /><path id="2601409" d="M-351028,-87849l-25,-41l-202,-124l-35,81l-80,83l-105,32l-48,64l-262,2l-26,43l-111,-32l-149,116l-58,-1l-107,89l-110,-35l-125,-189l-91,27l-68,-103l-58,13l-156,-70l-58,25l-117,-53h-145l-107,-52l-131,-4l-142,-76l-70,-11l-63,-9l-145,-116l-60,20l-94,-38l-40,-116l-74,-56l90,-123l54,5l438,-109l631,-159l76,16l172,-64l101,-58l178,40l-81,34l-45,110l-130,132l1237,261l-27,-137l94,-191l-41,196l41,178l125,230l117,83l32,87Z" /><path id="2601508" d="M-358002,-85949l-86,105l-48,-5l128,383l-127,-53l-117,269l-16,-58l-103,53l-85,-85l-100,-49l169,-399l-83,-42l-29,-101l-31,-133l-20,-73l209,-177l84,29l95,-136l89,-78l-29,-230l113,62l77,-15l31,-59l91,-27l195,34l-407,785Z" /><path id="2601607" d="M-386292,-86210l-99,71l-123,3l2,116l-91,-2l-62,60l-152,47l-206,40l-260,69l-157,62l-131,-7l-100,53l7,67l-106,205l1,63l-146,100l-74,123l-74,11l-113,75l-118,-1l-44,292l-67,-1l-84,76l47,210l-11,104l-49,116l-91,111l-109,59l-60,295l-105,113l-19,204l-226,171l-40,-95l-131,-165l-94,27l-147,-31l-224,42l-192,-24l-29,-192l-152,-58l-30,49l-183,3l-131,-48l-53,-52l-148,-8l27,-74l5,-159l-59,-65l-131,17l-63,-77l50,-112l-3,-98l-39,-61l-77,4l-97,-83l-4,-95l-105,-30l44,-113l-113,10l-67,-94l49,-67l-204,-150l-69,64h-83l-51,57l-240,-171l-132,31l-118,-99l34,-103l-87,1l-124,-96l-86,16l-151,-264l-96,-119l-70,-51l-1,-127l93,-187l155,-98l60,-113l-48,-113l12,-148l-25,-64l25,-153l112,-212l58,-50l109,18l168,-25l198,47l135,138l108,-143l128,-57l417,-75l377,-116l217,-17l93,-30l99,-107l129,-92l113,-49l105,-106l115,-214l104,-6l146,-108l87,3l157,84l118,26l314,36l167,57l132,-6l-21,105l55,76l3,284l-23,125l79,102l21,197l88,34l2055,712Z" /><path id="2601706" d="M-362072,-82256l-179,69l-130,98l-96,156l25,169l59,77l-295,75l-624,-32l-87,-234l-49,-63l-94,-251l-81,-64l-96,176l-721,621l-499,191l30,-64l-161,-236l-48,-14l-106,-166l-23,-76l-71,-28l-1,-74l-156,-175l-167,43l-70,-23l-100,23l-248,-66l457,-708l1,89l239,237l-59,27l0,81l117,5l33,-72l103,141l87,18l81,-58l86,5l56,-167l-117,-131l37,-136l-45,-90l-217,-92l-45,-100l82,-54l51,-85l104,-31l72,86l91,14l-82,-696l-179,-180l84,-70l94,3l61,65l63,-46l87,52l18,112l164,25l61,-116l114,5l122,121l223,58l76,-88l89,14l113,-27l127,21l262,671l-37,167l54,91l291,100l367,27l157,79l126,126l327,273l-8,102Z" /><path id="2601805" d="M-378114,-80810l-205,53l-176,-82l-318,90l-73,-54l-100,9l-36,54l-182,-14l-156,112l-34,-45l-23,-90l-122,-5l-136,-37l-145,-14l-109,-99l-181,-218l-136,-68l-36,-118l-45,-77l-156,-97l-144,29l-231,-159l-77,-136l-131,-91l-73,-154l6,-126l-55,-64l-141,54l-86,-61l-109,-16l-217,-238l65,-92l7,-99l-108,-19l-10,-85l-144,-147l31,-95l-36,-46l-6,-131l41,-77l73,-304l59,-23l73,-151l30,-138l-12,-100l88,-46l267,-60l95,23l165,-64l113,-9l129,-76l24,-121l102,-92l231,-142l89,-31l106,13l45,82l208,-26l233,-64l116,6l63,65h63l235,138l-6,86l62,43l97,160l213,165l74,74l38,103l46,13l54,119l103,87l42,79l-15,157l70,53l-5,146l-54,139l119,206l-56,100l88,127l16,79l135,102l128,71l34,72l102,96l34,109l-127,1187Z" /><path id="2601904" d="M-356303,-81041l-195,-12l-1860,-91l-80,-97l-41,-300l-65,-82l-132,-34l-59,34l-148,-99l-25,-70l25,-104l84,-167l283,-660l-106,-102l87,-210l-182,-178l-72,-92l-113,-206l-281,-88l-27,-60l181,-92l1,-94l63,-13l210,82l65,-31l101,55l133,-35l106,97l255,77l54,66l-8,67l124,190l233,155l-64,58l-13,94l188,78l56,28l147,221l188,167l71,130l1,113l257,129l191,22l148,64l-39,441l258,549Z" /><path id="2602001" d="M-399046,-73383l-58,11l-159,-38l-266,-129l-411,-169l-67,-37l-445,-62l-423,-24l-403,12l-293,104l261,-1543l271,-1611l150,-913l-78,-59l133,-251l105,-9l187,48l118,61l233,64l88,-1l73,-72l227,-44l150,-89l198,-51l89,-66l-15,-74l54,-35l-7,-96l53,-78l-97,-266l-28,-112l27,-87l54,-25l-2,-123l226,-258l1,-108l66,-258l72,13l79,-151l146,-118l-6,-71l129,-80l80,-102l908,1154l-520,2221l-894,-165l-4,1895l-2,1792Z" /><path id="2602100" d="M-365330,-91014l-303,-176l-450,-27l-80,54l-56,-50l-51,66l-116,-70l-179,-60l-107,45l-95,-21l-209,108l-92,9l23,172l151,276l-22,274l32,210l-166,-7l-147,-164l-47,-89l-157,-157l-98,-202l-5,-58l-105,-62l-87,19l-75,-61l-74,-147l155,-242l-1035,-305l-107,-961l34,-124l68,77l55,2l207,-92l108,-109l392,82l350,89l621,-215l105,-34l18,-44l170,-124l115,-29l43,34l99,-17l101,-125l97,-49l56,52l127,-141l151,60l69,-9l180,42l-2,97l-76,122l26,169l186,100l536,174l-8,24l-74,22l-36,87l41,176l-63,22l-71,85l-36,177l43,65l-56,148l102,24l86,78l35,90l-109,56l28,218l-45,152l-68,29l-76,164l-27,21Z" /><path id="2602209" d="M-354191,-77213l-86,79l-180,207l-387,-372l-179,-91l-93,-89l-147,-11l-34,58l-117,78l27,67l-96,119l-185,-109l-50,-62l-132,-81l-290,-404l-119,153l-137,93l-305,14l-9,-194l-348,2l-39,-217l-12,-158l29,-183l59,-25l71,-129l73,-6l44,32l867,67l219,69l56,-45l498,341l135,-30l21,-61l266,123l7,133l-85,59l34,124l-4,225l246,297l382,-73Z" /><path id="2602308" d="M-355784,-84311l4,-13l-886,-611l-193,527l86,394l-9,97l-221,185l-219,-144l-328,28l34,-180l-64,-85l161,-250l-191,-48l-32,-104l-105,-13l-105,-103l-59,5l-173,-53l-135,78l-151,-175l11,-70l120,-60l67,-102l-46,-95l-34,-147l117,-269l127,53l-128,-383l48,5l86,-105l72,-41l83,21l38,69l98,-91l100,58l64,110l98,-73l147,-38l84,44l-17,100l97,-13l144,-190l58,18l19,123l-89,152l24,228l569,123l1,-151l83,-8l153,134l34,79l201,114l64,5l16,62l136,88l24,42l275,132l-12,54l-118,13l82,88l23,136l-169,66l-19,101l126,62l-33,84l-112,100l-126,-163Z" /><path id="2602407" d="M-364783,-90860l-21,1156l-171,124l-124,36l-217,-119l-185,129l-56,-123l-145,-117l87,-121l-236,23l-57,-83l2,-276l-99,-103l144,-157l42,-15l31,-139l91,-57l231,-83l38,-136l-27,-87l125,-6l27,-21l477,150l43,25Z" /><path id="2602506" d="M-372607,-72742l-146,-1l-67,-45l-63,-95l-257,-11l-142,13l-70,-69l-169,-218l-49,-42l76,-141l-230,-155l-133,-61l-224,-14l-74,-36l-100,88l-63,-38l52,-108l161,-124l163,55l127,13l140,-63l100,18l6,102l46,132l62,-155l91,25l231,6l92,-130l146,-157l197,18l-126,239l40,159l-14,36l93,141l-20,92l113,190l11,336Z" /><path id="2602605" d="M-361648,-79659l-128,-26l-192,107l-62,-50l-241,76l-150,-10l-209,24l-81,61l-208,41l-196,-163l-139,-85l-171,89l-85,-33l-19,92l-188,20l-10,64l-85,87l-59,-29l-137,12l-224,162l-206,17l635,-564l-637,-1692l721,-621l96,-176l81,64l94,251l49,63l87,234l624,32l295,-75l-59,-77l-25,-169l96,-156l130,-98l179,-69l141,-106l127,60l252,210l63,108l99,60l100,-40l63,91l-154,-29l-82,113l-28,144l-83,-3l-126,95l-20,81l-64,30l20,160l93,92l4,183l-59,51l-27,149l-54,96l35,105l109,15l54,92l66,176l230,162l-19,38l214,156l34,86l-28,159l-114,32l-91,-11l-42,58l-134,-2l-17,-89l-61,-3l-77,78Z" /><path id="2602704" d="M-352595,-76756l-367,-355l-258,82l-175,-53l-165,-14l-140,141l-147,-282l-258,-102l-23,-66l-250,-99l322,-253l126,136l145,-1l117,-64l86,-14l31,-86l115,85l266,-42l127,81l448,906Z" /><path id="2602803" d="M-371490,-84035l-113,-7l-127,-108l-117,-17l-26,-38l-160,33l-55,98l-146,21l-785,-2371l117,-189l27,-240l-13,-117l68,-153l89,-142l147,-150l225,-59l74,40l69,-31l93,33l126,-24l109,-73l49,13l92,-144l139,-5l49,-41l-16,-84l156,-211l89,-72l127,-43l126,-180l85,-29l13,-62l135,-162l62,-119l-70,-72l13,-75l-44,-139l47,-52l23,-177l-66,-109l28,-74l-81,-179l-80,-58l19,-107l113,65l147,217l90,63l86,-2l87,157l68,5l150,76l188,61l133,102l223,1853l-178,1540l-73,58l-59,102l-201,-35l-97,58l-157,-33l-108,30l-53,48l-83,2l488,356l-673,579l-295,77l-192,65l-101,231Z" /><path id="2602902" d="M-350645,-82228l-135,36l-73,90l-187,141l-55,62l-172,57l-141,-46l-74,39l-72,-174l-92,-150l25,-75l-532,372h-37l-95,-104l12,-88l-138,-60l-10,178l-128,-77l-46,-150l-33,-228l-20,-23l-1,-129l95,-93l54,-132l113,63l23,-61l-18,-137l85,-29l192,71l107,-57l91,-6l280,95l110,51l59,-100l-32,-103l89,-104l319,-241l76,74l54,-36l165,-43l117,-153l159,-23l47,33l220,-148l122,61l196,-43l62,86l85,-8l40,-65l130,-62l53,105l117,-24l33,133l-86,41l-7,195l67,165l-89,75l53,188l15,151l57,140l142,168l-32,77l-70,-136l-70,-35l-53,76l-68,-13l-57,177l-166,-127l-64,25l-20,73l-101,-29l-115,182l-575,-168Z" /><path id="2603009" d="M-393174,-81826l-59,2l-126,-118l-100,-29l-59,-71l-61,81l-77,-49l-82,-155l1,-151l-61,-102l102,-65l-78,-59l-127,1l-53,68l-124,1l-78,68l-96,-56l-41,27l-168,-28l-178,76l-308,-91l-139,85l-155,-30l-155,42l-35,-65l-97,4l-165,-54l287,-878l-27,-128l-80,-51l-55,-97l36,-45l-58,-171l37,-140l-87,-38l-15,-103l58,-118l-13,-101l72,-26l65,-172l-31,-65l55,-105l81,-82l116,-192l112,-135l123,-42l31,-54l215,-104l-2,-471l12,-116l149,108l37,127l54,61l166,-1l77,46l30,73l88,93l362,93l153,-50l77,-97l117,-110l247,-15l79,17l193,-23l68,-32l112,-130l26,-70l70,51l96,119l151,264l86,-16l124,96l87,-1l-34,103l118,99l132,-31l240,171l51,-57h83l69,-64l204,150l-49,67l67,94l113,-10l-44,113l105,30l4,95l97,83l77,-4l39,61l3,98l-50,112l63,77l131,-17l59,65l-5,159l-27,74l148,8l53,52l-1622,1525l-408,134l-69,-43l-165,-37l-115,1l-174,-56l-156,447Z" /><path id="2603108" d="M-362671,-85624l42,98l197,342l256,304l-66,341l-1122,590l37,132l-284,-75l54,-365l351,-623l137,-435l-127,-181l-82,-214l-8,-174l25,-60l-67,-119l9,-84l568,527l13,-4h67Z" /><path id="2603207" d="M-365401,-87838l-106,144l-49,113l-163,-41l-59,-81l-209,9l-208,-20l-88,153l-739,322l-710,-80l19,-34l-28,-265l149,-129l-29,-96l-164,-77l-4,-99l113,-171l129,-91l-43,-57l220,11l696,2l18,-70l-60,-153l54,-131l139,15l243,-215l157,-184l-14,84l84,63l218,4l92,30l118,-26l112,35l80,61l-50,61l-191,301l-83,65l-61,128l74,33l21,63l236,221l3,52l83,50Z" /><path id="2603306" d="M-362995,-88334l501,465l-1330,1516l134,-522l-27,-564l429,-554l101,-121l22,-128l36,-43l134,-49Z" /><path id="2603405" d="M-380524,-79217l-94,-15l-82,36l-39,-103l-82,-69l-53,36l9,86l-74,22l-260,138l-95,41l-341,-9l-46,-238l128,-84l59,-78l520,-1087l692,-795l36,118l136,68l181,218l109,99l145,14l136,37l122,5l23,90l-603,-88l-49,-45l-113,-11l-29,57l-156,139l-44,155l-64,16l-32,139l-151,104l-142,-7l-120,85l-159,-18l708,539l-176,405Z" /><path id="2603454" d="M-350001,-79292l-71,41l-87,-8l-52,-66l-78,-13l-78,-64l60,-179l140,-16l18,-94l62,-29l-81,-182l56,-211l-54,-85l58,-179l147,8l56,45l82,-24l168,150l32,294l2,163l-163,41l-154,84l-99,20l50,111l-97,28l83,165Z" /><path id="2603504" d="M-357222,-83876l-3,103l-108,76l18,64l-70,250l45,45l-8,98l53,92l-286,243l-188,-78l13,-94l64,-58l-233,-155l-124,-190l8,-67l-54,-66l-255,-77l-106,-97l-6,-123l74,27l176,3l45,21l440,125l49,-104l128,-10l328,-28Z" /><path id="2603603" d="M-352371,-74406l-89,164l-197,119l-69,79l-130,-3l-381,-155l-92,49l-6,-75l-91,8l85,-87l-10,-100l63,-140l90,-23l66,-211l537,571l224,-196Z" /><path id="2603702" d="M-361210,-88368l-70,2l-197,90l-38,71l37,118l-79,31l-71,113l-67,4l-64,99l-100,22l-18,-55l-290,-60l321,815l-23,-1l-79,-5l-238,-14l-308,-731l-501,-465l48,-78l176,-21l77,36l83,-88l-35,-81l169,25l125,-156l39,36l142,-28l-68,-97l79,-55l-174,-493l-73,-184l7,-360l-64,-78l23,-47l163,-10l93,-39l4,-185l176,33l116,-51l148,43l51,-87l77,19l65,-48l140,27l293,124l-23,85l95,103l-79,111l-124,44l-39,63l3,194l57,50l216,34l186,84l89,153l95,103l306,69l-278,133l-644,528l45,55Z" /><path id="2603801" d="M-364872,-87039l-25,99l-124,144l-318,210l-86,358l-142,-108l-45,-91l-65,58l1,214l-94,-13l-108,161l-217,-56l61,120l-130,235l25,131l-320,-260l-157,-105l-70,-180l-74,-17l-113,-190l60,-89l66,-157l-56,-101l-97,-26l-122,-537l739,-322l88,-153l208,20l209,-9l59,81l163,41l49,-113l106,-144l222,-18l163,-69l146,-32l-290,255l-11,85l48,33l54,143l-78,116l122,93l51,150l102,43Z" /><path id="2603900" d="M-377048,-76169l-29,37l-204,-33l-176,72l-101,-102l25,-63l69,-25l60,-78l-38,-184l-64,-84l-104,-39l-62,96l-19,-184l118,-137l-254,54l-154,-706l-489,-485l91,-84l-16,-106l87,-4l850,-495l543,-1120l131,146l81,8l-9,147l75,8l51,127l60,-14l13,113l107,63l55,182l46,57l140,43l-8,13l-543,713l-159,110l-21,199l-154,133l-10,76l73,76l159,29l-5,84l-90,150l-6,159l-37,24l60,112l-3,184l61,117l-26,139l73,187l-200,210l-47,75Z" /><path id="2603926" d="M-385495,-82883l-55,-48l-161,-63l-57,24l-103,-64l-199,-18l-62,-49l-154,-7l-160,81l-55,119l-98,59l-73,-2l-335,219l-193,52l-193,130l-732,98l-135,-199l-114,-125l-26,-82l-109,-104l-70,-5l-123,-116l-410,-322l226,-171l19,-204l105,-113l60,-295l109,-59l91,-111l49,-116l11,-104l-47,-210l84,-76l67,1l44,-292l118,1l113,-75l74,-11l74,-123l146,-100l-1,-63l106,-205l-7,-67l100,-53l131,7l157,-62l260,-69l206,-40l152,-47l62,-60l91,2l-2,-116l123,-3l99,-71l2,-1l352,1476l443,1852Z" /><path id="2604007" d="M-353043,-77662l-127,-81l-266,42l-115,-85l-31,86l-86,14l-117,64l-145,1l-126,-136l0,-493l98,-24l108,77l87,13l172,-106l107,3l141,63l106,-11l45,-67l176,30l102,-14l90,-115l-37,-27l23,-107l-65,-167l9,-42l73,-13l82,-143l57,-25l210,55l62,-7l262,-16l-111,650l-263,156l-220,203l-301,222Z" /><path id="2604106" d="M-359582,-79901l-190,57l-159,22l-123,59l-56,-35l-8,-78l30,-64l-25,-100l-239,-29l-77,7l-226,-88l-78,-7l-88,-65l-189,109l34,66l-115,4l-27,76l-214,-156l19,-38l-230,-162l-66,-176l-54,-92l-109,-15l-35,-105l54,-96l27,-149l59,-51l-4,-183l-93,-92l-20,-160l64,-30l20,-81l126,-95l83,3l28,-144l82,-113l154,29l402,-408l79,-136l131,-1209l-11,-202l126,65l134,-95l139,109l3,95l151,40l142,-124l7,-87l51,-66l160,90l-5,210l77,17l194,-7l0,-101l68,-20l169,43l27,60l281,88l113,206l72,92l182,178l-87,210l106,102l-283,660l-371,192l-55,-162l-537,366l-89,226l147,288l548,1106l-104,53l-32,64l-139,-27l-151,56Z" /><path id="2604155" d="M-356799,-77036l-42,-42l-113,138l-114,-18l-68,-116l-229,-22l-66,-42l-42,-94l-117,8l-86,-43l-130,-117l-93,-20l234,-314l-9,-125l56,-90l17,-89l78,-71l96,-115l84,49l127,-157l136,2l-29,183l12,158l39,217l348,-2l9,194l305,-14l-79,46l-90,101l-97,60l-81,137l-56,198Z" /><path id="2604205" d="M-356936,-85975l-58,-18l-144,190l-97,13l17,-100l-84,-44l-147,38l-98,73l-64,-110l-100,-58l-98,91l-38,-69l-83,-21l-72,41l407,-785l-195,-34l-91,27l-31,59l-77,15l-113,-62l-37,-22l12,-139l-52,-66l155,-64l76,52l55,-111l105,-34l73,76l80,-24l108,56l65,-52l6,-174l-66,-27l-2,-89l-109,-76l-49,-73l13,-68l-75,-95l325,156l177,-91l33,-416l577,619l214,98l-254,6l-405,-15l391,612l-270,363l87,76l87,189l87,81l-241,6Z" /><path id="2604304" d="M-391466,-77182l-244,30l-210,179l-88,18l-75,60l-144,-73l-154,-18l-46,-62l-99,-1l29,214l-31,62l-125,75l-11,50l-22,-195l88,-52l19,-112l-82,-244l-126,-85l11,-116l-48,-54l72,-171l9,-193l38,-23l1546,127l133,56l-38,108l-120,110l-85,107l-59,119l-138,84Z" /><path id="2604403" d="M-351663,-79771l-148,7l-34,32l-401,174l-133,-208l-61,-54l-109,-172l100,-130l-89,-44l-51,-96l-18,-316l93,34l173,162l85,104l20,70l191,92l27,87l156,116l70,-42l140,140l-11,44Z" /><path id="2604502" d="M-354394,-82526l-44,106l149,257l-29,37l-41,276l55,64l3,138l-189,-51l-69,-37l-93,4l-216,-73l-59,-51l96,-120l-36,-76l-107,2l-153,-186l30,-769l4,-107l99,33l122,167l-8,52l67,103l98,52l50,94l72,-31l47,102l94,38l58,-24Z" /><path id="2604601" d="M-350725,-76183l121,79l-31,162l-124,45l61,83l161,78l66,102l8,147l97,52l-97,74l-150,-51l-84,-43l-76,27l-101,-45l-98,36l-50,-40l9,-76l-278,-98l-177,-545l249,-498l3,-11l76,17l32,161l181,143l52,-14l150,215Z" /><path id="2604700" d="M-361957,-90448l-575,-143l-94,3l-55,42h-194l-73,48l-109,-12l-156,18l-205,-36l-176,56l-71,286l-430,-200l-505,-349l-52,-46l121,52l110,9l56,-125l108,-58l106,28l111,-1183l11,-176l112,-17l158,84l102,-59l98,42l67,21l-52,111l30,38l125,-56l113,62l61,154l265,130l35,-17l173,79l95,3l74,258l-62,141l28,75l-63,74l2,87l111,-2l147,32l45,-41l140,171l6,131l116,2l75,63l-6,52l77,168Z" /><path id="2604809" d="M-354455,-84518l-161,-40l-439,240l-21,129l-106,182l28,72l-74,88l-60,-14l-71,58l-121,412l-13,-125l-170,-271l-182,-156l-125,-152l0,-32l186,-184l126,163l112,-100l33,-84l-126,-62l19,-101l169,-66l-23,-136l-82,-88l118,-13l12,-54l73,30l112,-129l-17,-76l104,-19l152,65l-4,86l-50,75l54,40l161,29l284,127l102,106Z" /><path id="2604908" d="M-356542,-79443l-138,-17l-214,-132l-114,23l-132,-22l-212,-70l-56,3l-170,-91l14,-55l-57,-206l20,-113l-123,5l-135,-33l-29,-78l-65,-32l-43,-147l-182,-156l-224,-149l56,-122l-27,-146l63,-66l-48,-97l1860,91l-9,323l-140,259l97,-14l19,49l132,14l65,177l103,62l98,-33l29,102l-438,671Z" /><path id="2605004" d="M-358793,-85475l-197,-137l-233,61l-27,79l-226,120l-128,-130l-83,-6l1,129l-279,-111l265,-682l220,-143l499,174l215,30l33,-35l203,62l31,133l-234,14l-104,152l17,195l27,95Z" /><path id="2605103" d="M-375410,-79788l-85,-109l-118,-19l-137,108l-131,-9l104,208l230,168l-86,45l117,159l-154,76l-19,149l-63,23l-42,81h-58l-37,167l-163,-100l-36,-73l-77,-45l-140,-43l-46,-57l-55,-182l-107,-63l-13,-113l-60,14l-51,-127l-75,-8l9,-147l-81,-8l-131,-146l-68,-31l-63,-168l-209,-114l-290,-77l-127,53l-172,-140l8,-89l-65,-8l-51,-89l37,-66l-91,-228l-108,-14l127,-1187l-34,-109l-102,-96l-34,-72l-128,-71l-135,-102l-16,-79l-88,-127l56,-100l-119,-206l54,-139l5,-146l-70,-53l15,-157l-42,-79l-103,-87l-54,-119l-46,-13l-38,-103l-74,-74l53,-71l169,-76l86,8l194,79l94,105l216,52l114,103l163,-105l-72,-136l-63,-240l109,75l965,180l918,773l133,133l56,135l70,110l8,91l113,59l51,58l153,246l14,195l50,89l176,203l9,193l-78,159l-16,83l-74,75l11,331l15,115l119,155l71,180l-297,784Z" /><path id="2605152" d="M-404352,-83897l-38,113l-138,149l-97,26l-60,-50l-86,43l-108,-26l-73,-59l-151,18l-27,-29l-179,29l-37,-97l-77,1l-160,60l-148,89l-141,-14l-70,-38l-281,-2l-87,-74l-98,4l-47,-56l-138,19l9,68l-131,24l-47,-45l-104,111l5,52l-171,108l-137,-39l-117,37l-141,104l-125,-52l-28,54l19,106l-61,80l-16,152l-74,59l-89,9l-127,-237l-96,-19l-155,14l-43,-156l30,-248l-95,-129l-87,-73l-212,15l-32,89l94,-749l42,-1091l63,1l47,-139l126,-48l150,-121l11,-114l215,-34l26,-130l56,28l73,-77l133,-54l1789,-438l1498,228l-135,116l-33,138l131,157l67,130l16,99l48,63l30,145l81,72l151,63l103,99l44,79l-6,84l87,181l246,-75l-110,128l1,152l39,138l-61,59l13,84l-66,218l-81,17l-74,78l3,57l-163,82l-86,-4l-47,66l-182,18l-73,104Z" /><path id="2605202" d="M-351401,-83099l-89,104l32,103l-59,100l-110,-51l-280,-95l-91,6l-107,57l-192,-71l-85,29l18,137l-23,61l-113,-63l-54,132l-95,93l1,129l-115,-424l72,-109l-314,-120l-389,133l-196,-58l83,-319l21,-206l26,-55l141,-33l-124,-143l-119,-36l-81,-160l222,-166l-40,-153l-21,-98l29,-59l139,62l118,134l69,38l-126,-274l-4,-102l101,-174l-5,-40l140,-105l122,254l172,-236l1,95l325,30l173,-28l198,-10l-273,437l-78,178l137,136l315,275l-2,189l191,60l33,-36l90,165l77,178l139,109Z" /><path id="2605301" d="M-395992,-74287l-63,46l-211,-29l-76,202l-115,259l-74,86l-182,138l-349,207l-351,110l-191,5l-158,-17l-130,-40l-262,33l-133,-37l-194,73l-96,-3l-324,-144l-145,15l2,-1792l4,-1895l894,165l249,149l140,11l100,79l118,-61l147,26l122,-17l154,-123l209,24l121,64l88,-74l236,-148l147,-58l155,-4l97,180l12,113l-79,99l30,104l-68,101l143,168l-25,55l60,148l120,60l22,44l121,74l38,93l61,23l101,129l-38,142l-58,109l40,108l83,82l38,106l3,260l-69,32l-97,203l-91,306l-49,19l-115,-45l-112,37Z" /><path id="2605400" d="M-353045,-79416l-194,99l-315,411l22,-64l-86,-80l-123,-12l-90,32l-146,-131l-175,-78l-190,-229l-78,-143l-102,-144l-50,-135l696,-144l831,618Z" /><path id="2605459" d="M-324014,-38262l14,-72l-79,-48l-236,-74l-163,-99l2,-64l-98,-37l-81,-103l77,-41l159,92l64,8l106,-75l170,207h105l21,73l-61,233Z" /><path id="2605509" d="M-351571,-75019l-2,43l-169,120l-92,22l-79,76l-96,33l-249,186l-7,56l-106,77l-224,196l-537,-571l-53,-102l126,-119l474,-88l-35,179l298,-137l85,-148l156,-22l109,21l37,75l96,28l174,88l94,-13Z" /><path id="2605608" d="M-378470,-78030l-115,104l-209,117l-91,-9l-138,73l-429,43l-126,40l-128,-114l-142,47l-55,-60l-104,-1l-201,-122l-6,-126l82,-119l42,-17l16,-199l-24,-147l47,-117l55,-51l-14,-74l-110,-46l-30,-133l-130,-59l25,-64l-198,-92l-71,-61l176,-405l-708,-539l159,18l120,-85l142,7l151,-104l32,-139l64,-16l44,-155l156,-139l29,-57l113,11l49,45l603,88l34,45l156,-112l182,14l36,-54l100,-9l73,54l318,-90l176,82l205,-53l108,14l91,228l-37,66l51,89l65,8l-8,89l172,140l127,-53l290,77l209,114l63,168l68,31l-543,1120l-850,495l-87,4l16,106l-91,84Z" /><path id="2605707" d="M-381787,-82767l-135,-37l-56,13l-89,-63l-151,84l-226,159l-62,-18l-142,90l-19,-48l-128,-102l-113,-162l-120,-8l-115,-58l-186,14l-48,73l-97,-43l-203,65l-92,-94l-97,-31l-200,-125l-124,-211l15,-146l-135,-72l-110,-216l-79,32l-86,-122l-43,-110l-59,-42l-3,-75l-109,-126l-142,-66l-57,-134l-89,-49l-63,10l-9,199l21,137l-36,44l56,198l55,121l19,107l-50,62l88,156l96,-8l54,88l-11,134l-128,-55l-73,135l-97,32l-234,161l-96,-9l-443,-1852l-352,-1476l-18,-162l30,-251l48,-46l-65,-167l-118,-121l-25,-166l-88,-163l-41,-161l-47,-284l19,-204l-42,-130l62,-232l-25,-327l22,-139l-43,-221l-113,-117l-202,-85l7,-175l37,-112l148,-244l168,-107l127,-42h95l113,67l138,227l33,398l-6,242l38,127l138,241l130,194l66,67l186,78l107,-9l287,-71l100,-48l216,-139l110,-164l123,250l110,31l51,80l319,126l71,78l111,43l10,44l158,106l152,-21l57,78l80,7l90,57l82,-32l72,124l137,70l22,72l164,-57l58,72l143,-10l40,55l-15,129l44,18l-9,138l29,120l78,77l103,45l90,75l51,-14l182,21l192,106l171,-99l51,7l145,-97l118,-14l46,52l161,2l118,-45l117,19l156,133l89,11l76,-44l30,-74l130,58l101,133l-4,138l151,66l110,50l204,1l182,-103l223,54l45,55l-32,122l195,168l240,64l64,62l109,-6l172,62l206,44l652,1815l-109,-75l63,240l72,136l-163,105l-114,-103l-216,-52l-94,-105l-194,-79l-86,-8l-169,76l-53,71l-213,-165l-97,-160l-62,-43l6,-86l-235,-138h-63l-63,-65l-116,-6l-233,64l-208,26l-45,-82l-106,-13l-89,31l-231,142l-102,92l-24,121l-129,76l-113,9l-165,64l-95,-23l-267,60l-88,46l12,100l-30,138l-73,151l-59,23l-73,304l-41,77l6,131l36,46l-31,95l144,147Z" /><path id="2605806" d="M-358050,-79736l-47,121l-77,44l31,138l-39,127l66,17l34,124l-54,34l18,115l-59,54l3,90l-46,277l-238,-42l-281,2l-182,-66l-192,-90l4,-161l-457,-33l-100,-93l9,-225l-56,-34l150,-109l-65,-21l-25,-87l9,-123l-41,-60l98,-42l5,-122l151,-56l139,27l32,-64l104,-53l90,-15l112,51l85,-43l19,89l65,67l135,-43l167,7l56,97l187,3l170,40l20,58Z" /><path id="2605905" d="M-352647,-86307l-212,143l-125,163l-131,68l-221,165l-22,67l-211,288l-182,-88l-80,90l-76,-134l-222,57l-152,91l-43,206l32,102l-332,-39l-46,-164l2,-127l-40,-40l71,-30l56,35l121,-17l21,-96l-439,-272l138,-440l795,-552l-92,-306l621,-113l1,200l-57,14l-111,139l101,276l50,96l119,62l78,115l147,66l441,-25Z" /><path id="2606002" d="M-364870,-87957l-146,32l-163,69l-222,18l-83,-50l-3,-52l-236,-221l-21,-63l-74,-33l61,-128l83,-65l191,-301l50,-61l-80,-61l-112,-35l-118,26l-92,-30l-218,-4l-84,-63l14,-84l67,-86l-36,-117l41,-97l-18,-55l-186,-47l-54,-100l7,-199l-65,-102l109,-159l-73,-55l-40,-128l366,-126l99,103l-2,276l57,83l236,-23l-87,121l145,117l56,123l185,-129l217,119l124,-36l171,-124l21,-1156l131,79l52,46l505,349l430,200l-111,294l-71,105l-47,19l-108,205l19,178l-71,49l-59,110l5,106l-55,53l-145,39l-177,208l-140,370l48,182l97,134l35,125l-98,-14l-154,20l-173,46Z" /><path id="2606101" d="M-352568,-79422l-341,51l-90,2l-46,-47l-831,-618l-696,144l-44,-116l15,-127l-36,-34l-19,-144l265,-87l95,-414l3,-1l136,71l145,-15l127,13l264,134l118,-5l48,98l148,-87l117,-31l68,27l144,-100l251,165l120,-35l18,316l51,96l89,44l-100,130l109,172l61,54l133,208l-322,136Z" /><path id="2606200" d="M-348538,-75396l-42,16l-94,-100l-198,116l-83,-87l-60,80l-158,-47l-57,78l-97,55l-68,-15l-111,-76l-102,-12l-86,177l-157,211l-51,111l19,127l41,69l-12,73l-924,-518l165,-274l150,51l97,-74l-97,-52l-8,-147l-66,-102l-161,-78l-61,-83l124,-45l31,-162l-121,-79l1483,-736l19,12l175,74l81,-26l53,-98l-54,-70l113,-117l78,47l153,-18l96,206l46,31l59,59l76,-22l119,334l140,205l21,92l-62,80l-186,374l-19,115l-57,102l52,53l-47,43l-152,47Z" /><path id="2606309" d="M-396160,-77037l-155,4l-147,58l-236,148l-88,74l-121,-64l-209,-24l-154,123l-122,17l-147,-26l-118,61l-100,-79l-140,-11l-249,-149l520,-2221l1890,418l123,209l-128,173l20,117l100,77l-95,65l20,148l-34,52l-183,112l10,97l-106,101l-87,34l-4,204l-70,91l60,104l-50,87Z" /><path id="2606408" d="M-355097,-83005l-30,769l153,186l107,-2l36,76l-96,120l59,51l216,73l93,-4l69,37l66,231l35,198l-404,225l168,107l-483,362l-415,-134l-312,-76l-468,-255l-258,-549l39,-441l76,-843l304,-567l-205,-297l854,222l13,125l-149,-35l50,130l292,143l-9,136l199,12Z" /><path id="2606507" d="M-368798,-92764l-34,124l107,961l1035,305l-155,242l-177,269l154,781l-358,526l-425,666l-5,8l-54,-73l-33,-136l-61,-38l-79,-199l35,-97l-42,-190l10,-75l-68,-64l-68,-217l-69,-80l-12,-66l-104,-125l-51,-13l-82,-264l-63,-3l-3,-153l-116,-122l-64,-151l-149,-182l-16,-114l-109,-49l82,-225l4,-69l199,-199l81,-6l28,-73l-74,-199l8,-56l-138,-123l11,-108l-88,-94l-219,-74l-85,-114l-102,-57l-76,65l-85,-53l-63,-81l2,-100l-107,-52l-77,-163l78,-75l232,-8l59,-82l56,-154l94,-133l238,-67l241,-220l90,-17l97,56l64,74l-64,88l2,113l143,101l14,73l-59,53l54,176l77,135l158,149l81,-24l100,72Z" /><path id="2606606" d="M-373685,-84184l-150,51l-123,-163l-80,21l-162,-157l-37,-87l-65,80l-46,-112l-77,6l-174,-48l-86,103l-123,88l-85,-15l-210,8l-295,97l-171,187l-155,7l-77,71l-204,-33l-117,-70l-70,21l15,259l-10,187l128,76l-2,108l44,150l-15,81l38,86l-918,-773l-965,-180l-652,-1815l-293,-742l52,-69l156,-32l76,-163l114,-63l202,-8l177,91l89,-1l186,-60l102,-64l126,-37l224,7l51,-34l195,9l66,24l169,-10l125,-44l73,-121l53,-41l-21,-72l25,-160l-34,-96l-175,-77l-14,-89l126,-18l151,-63l605,-442l112,106l104,-37l147,58l141,81l98,-10l133,102l100,-7l104,173l67,36l209,-15l591,-311l133,1912l79,1128l220,925Z" /><path id="2606705" d="M-360950,-85912l-731,449l-616,-267l-374,106h-67l-190,-689l245,69l200,-309l535,-571l79,5l52,471l170,195l102,147l260,211l278,87l57,96Z" /><path id="2606804" d="M-348902,-78019l-100,-41l-93,9l-135,-30l-116,334l-16,247l-62,75l2,201l140,139l59,84l0,94l-19,-12l-38,-79l-100,-53l-240,-32l-65,-95l-32,-113l-112,-63l-162,42l-195,-42l-170,-78l-96,-13l-529,293l-14,-76l75,-171l111,-16l55,-45l214,-33l148,-181l10,-133l-18,-129l112,-63l84,-139l-51,-82l-67,-29l-40,-172l-1,-257l-40,-56l-138,-66l769,-200l464,72l76,59l210,10l140,-18l64,-45l156,11l42,20l69,176l144,103l-4,161l-39,71l20,97l-21,119l-202,51l-162,20l-87,74Z" /><path id="2606903" d="M-371707,-78002l-42,64l-23,140l22,230l-119,113l-548,34l10,63l-104,169l-127,67l-131,-13l-79,85l-142,-94l-138,7l-109,-65l-36,-77l-108,-21l-174,-395l-221,-35l-153,-1l-134,-75l-224,-97l-130,-2l-117,-56l-112,88l-18,117l-134,27l10,117l-28,110l-72,49l-22,96l-124,-2l-109,78l-79,89l5,94l-105,5l-57,-87l4,-98l109,-169l18,-209l-98,-152l-303,-251l-26,-88l-118,-62l23,-66l-189,-121l-99,-120l19,-110l-82,-173l-87,-62l35,-85l8,-13l77,45l36,73l163,100l37,-167h58l42,-81l63,-23l19,-149l154,-76l-117,-159l86,-45l-230,-168l-104,-208l131,9l137,-108l118,19l85,109l91,72l249,37l127,1l82,-54l122,77l49,231l137,-90l158,28l36,59l105,23l222,-171l227,-8l173,9l86,28l44,60l155,56l44,-17l213,105l-24,126l34,137l43,37l163,3l103,61l153,139l177,101l-17,149l-44,40l30,81l89,29l124,-8l31,85l-54,147l-123,-16l-32,41l135,59l-4,64h132l194,78l65,77l85,5l123,-95Z" /><path id="2607000" d="M-378529,-85950l-206,-44l-172,-62l-109,6l-64,-62l-240,-64l-195,-168l32,-122l-45,-55l-223,-54l-182,103l-204,-1l-110,-50l148,-156l34,-122l4,-1333l6,-1494l64,-125l54,-213l52,-40l104,-191l166,200l284,15l108,116l157,102l101,112l45,14l103,132l138,-86l95,50l69,107l68,49l185,59l-74,63l132,177l0,85l-52,116l159,115l113,10l248,231l77,-15l105,81l52,-120l37,-7l51,-171l83,-47l20,-71l95,-107l22,-94l157,-142l46,-136l634,335l550,566l120,150l127,110l-147,-58l-104,37l-112,-106l-605,442l-151,63l-126,18l14,89l175,77l34,96l-25,160l21,72l-53,41l-73,121l-125,44l-169,10l-66,-24l-195,-9l-51,34l-224,-7l-126,37l-102,64l-186,60l-89,1l-177,-91l-202,8l-114,63l-76,163l-156,32l-52,69l293,742Z" /><path id="2607109" d="M-373768,-76266l-160,-23l-72,-67l-77,7l-76,-81l-82,-127l-96,-91l-280,-74l-144,29l-196,-116l-1,-111l-48,-61l-90,-17l-115,-59l-12,-41l-5,-94l79,-89l109,-78l124,2l22,-96l72,-49l28,-110l-10,-117l134,-27l18,-117l112,-88l117,56l130,2l224,97l134,75l153,1l221,35l174,395l108,21l36,77l-164,319l-51,-1l-52,85l72,177l-38,116l-77,92l-55,11l-120,137h-46Z" /><path id="2607208" d="M-349568,-83788l-77,65l-15,-151l82,18l10,68M-349609,-83667l-130,62l-40,65l-85,8l-62,-86l-196,43l-122,-61l-220,148l-47,-33l-159,23l-117,153l-165,43l-54,36l-76,-74l-319,241l-139,-109l-77,-178l-90,-165l-33,36l-191,-60l2,-189l-315,-275l-137,-136l78,-178l273,-437l350,4l47,-72l180,-37l29,-111l163,-187l486,-100l17,-70l-64,-63l14,-138l98,-79l17,-198l40,-131l171,-122l41,180l52,55l51,143l112,106l158,-10l-19,76l56,61l-35,245l66,153l-24,113l78,225l109,166l34,188l197,436l-92,48l-44,63l133,179Z" /><path id="2607307" d="M-402420,-73180l-55,43l-82,75l-73,52l-209,18l-268,-15l-107,-52l-80,-127l-160,-106l729,-2329l341,-1231l266,81l493,-258l586,160l-271,1611l-261,1543l-386,134l-251,168l-86,78l-126,155Z" /><path id="2607406" d="M-386936,-89187l202,85l113,117l43,221l-22,139l25,327l-62,232l42,130l-19,204l47,284l41,161l88,163l25,166l118,121l65,167l-48,46l-30,251l18,162l-2,1l-2055,-712l-88,-34l-21,-197l-79,-102l23,-125l-3,-284l-55,-76l21,-105l478,-33l101,-57l223,-186l32,-52l318,-275l226,-84l106,-91l81,-195l47,-212l1,-157Z" /><path id="2607505" d="M-371012,-89603l-132,3l-86,31l-180,113l-143,-1l-27,57l-114,-11l-109,155l-151,127l-32,127l-69,23l-74,100l-72,29l-4,71l-68,110l23,127l-106,128l27,40l-61,117l-160,134l-160,-64l-86,3l-101,-71l-77,28l-207,-49l-81,-114l-206,61l-29,68l-138,62l-18,74l-464,-24l-95,-212l57,-44l-91,-181l51,-55l-44,-88l-85,62l-62,-13l-100,-122l-326,368l36,-300l-130,-130l7,-175l-108,-250l-69,-77l-109,-17l-68,-161l0,-90l62,-49l147,29l56,-39l65,-183l83,-14l158,-96l370,-91l147,11l204,-135l5,-80l42,11l328,-269l242,-280l67,-113l102,8l68,-80l-4,-71l74,-95l71,-39l143,-279l38,-37l119,-65l195,-200l3,-114l120,-141l24,-178l32,-46l-12,-107l182,165l139,56l26,105l103,47l37,146l115,167l36,179l59,109l16,138l-29,33l-8,285l21,32l-17,183l68,195l108,102l24,63l111,73l52,132l101,60l96,176l4,85l67,135l-19,107Z" /><path id="2607604" d="M-348451,-78164l80,69l17,247l122,331l-3,165l-64,91l-31,126l14,130l-166,127l-46,-31l-96,-206l-5,-162l-129,-145l-86,-228l-49,-231l-9,-138l87,-74l162,-20l202,-51Z" /><path id="2607653" d="M-351538,-73925l-183,45l-87,-79l-99,-20l-89,102l-171,68l-319,61l-158,-51l-158,-78l-157,-137l-131,-76l-50,32l-189,-95l92,-49l381,155l130,3l69,-79l197,-119l89,-164l106,-77l7,-56l249,-186l96,-33l79,-76l92,-22l169,-120l2,-43l175,-98l4,-94l140,-166l178,67l102,-127l98,-36l101,45l76,-27l84,43l-165,274l924,518l-173,85l-119,100l-150,177l-185,80l-149,111l-75,79l-211,-26l-164,-41l-196,38l-73,49l-189,43Z" /><path id="2607703" d="M-371769,-73096l-198,149l-175,34l-85,52l-115,122l-265,-3l-11,-336l-113,-190l20,-92l-93,-141l14,-36l-40,-159l126,-239l219,-32l98,-102l118,-69l248,13l72,-130l-35,-54l50,-129l78,-89l140,25l174,-41l-88,-165l40,-49l-33,-83l21,-115l208,107l132,51l1000,-176l10,6l146,71l73,-68l191,141l-12,67l-101,30l14,79l-92,98l-74,13l-25,86l-80,48l-24,63l91,35l-31,58l-84,21l23,67l100,120l-119,178l-55,4l-189,80l-32,-19l-142,-39l-55,151l-127,100l-117,43l-46,-26l-119,53l-78,4l-64,69l-73,-27l-96,117l-122,-32l-110,62l-4,120l-84,104Z" /><path id="2607752" d="M-348624,-77115l-153,18l-78,-47l-113,117l54,70l-53,98l-81,26l-175,-74l0,-94l-59,-84l-140,-139l-2,-201l62,-75l16,-247l116,-334l135,30l93,-9l100,41l9,138l49,231l86,228l129,145l5,162Z" /><path id="2607802" d="M-349242,-76919l-1483,736l-150,-215l-52,14l-181,-143l-32,-161l-76,-17l300,-220l7,-48l-72,-179l529,-293l96,13l170,78l195,42l162,-42l112,63l32,113l65,95l240,32l100,53l38,79Z" /><path id="2607901" d="M-349088,-81551l-48,100l-80,35h-116l-40,48l-158,-18l-77,123l18,143l-29,24l4,146l-88,75l-37,92l-155,71l-68,103l-41,-30l-164,81l-384,-115l-31,-207l-389,-736l312,-391l-16,-89l30,-132l575,168l115,-182l101,29l20,-73l64,-25l166,127l57,-177l68,13l53,-76l70,35l70,136l108,133l18,108l-17,155l89,306Z" /><path id="2607950" d="M-357744,-87659l75,95l-13,68l49,73l109,76l2,89l66,27l-6,174l-65,52l-108,-56l-80,24l-73,-76l-105,34l-55,111l-76,-52l-155,64l52,66l-12,139l-56,-63l13,-182l-28,-94l-241,-71l-6,-190l-154,-162l58,-87l81,-480l96,61l133,10l-15,64l73,33l-19,123l170,84l42,-63l167,44l81,65Z" /><path id="2608008" d="M-365365,-79016l-155,29l-197,-58l-65,-107l56,-208l-74,-107l58,-50l-26,-79l-101,9l-256,93l-10,-71l-92,-130l-5,-126l-47,-43l14,-163l-28,-227l15,-261l-10,-56l-124,-51l-126,-82l-49,-94l83,-15l27,-100l107,-19l91,-97l-7,-82l-117,-88l-249,-34l-287,-175l69,-149l43,-68l37,-147l138,-34l96,-122l92,-156l127,-53l123,4l43,42l-6,236l56,195l61,-464l248,66l100,-23l70,23l167,-43l156,175l1,74l71,28l23,76l106,166l48,14l161,236l-30,64l499,-191l637,1692l-635,564l-25,39l-150,17l-188,-101l-66,84l-127,-39l-135,54l-186,121l-50,12Z" /><path id="2608057" d="M-382376,-93298l170,173l175,156l114,10l121,46l60,62l78,138l84,87l10,125l1,77l77,116l47,126l87,42l198,156l13,44l218,213l-1066,205l-61,482l-1079,-444l70,-51l72,-104l100,-82l86,-290l0,-61l-74,-99l370,-734l92,-322l37,-71Z" /><path id="2608107" d="M-355037,-78101l-21,61l-135,30l-498,-341l-56,45l-219,-69l-867,-67l-44,-32l23,-224l-49,-80l12,-119l-27,-73l45,-106l62,-24l652,305l290,-161l87,-1l170,61l89,-90l206,48l110,-105l-44,215l146,220l68,507Z" /><path id="2608206" d="M-355002,-84981l-152,-65l-104,19l17,76l-112,129l-73,-30l-275,-132l-24,-42l-136,-88l-16,-62l169,-1122l142,-124l128,-10l-5,-144l67,-11l249,234l-114,561l29,226l335,506l-14,113l-111,-34Z" /><path id="2608255" d="M-364482,-86578l-42,-66l-111,-45l-59,-111l18,-107l-196,-132l-102,-43l-51,-150l-122,-93l78,-116l-54,-143l-48,-33l11,-85l290,-255l173,-46l154,-20l98,14l233,60l124,139l81,33l-475,1199Z" /><path id="2608305" d="M-363288,-87993l-429,554l27,564l-134,522l-1,3l-657,-228l475,-1199l5,-140l90,9l92,-35l166,-9l152,97l82,-159l83,-41l49,62Z" /><path id="2608404" d="M-360755,-87705l-4,387l-127,-28l-56,32l182,105l-482,55l-302,255l-273,251l-52,-471l23,1l-321,-815l290,60l18,55l100,-22l64,-99l67,-4l71,-113l79,-31l-37,-118l38,-71l197,-90l70,-2l303,599l152,64Z" /><path id="2608453" d="M-352894,-78744l-9,42l65,167l-23,107l37,27l-90,115l-102,14l-176,-30l-45,67l-106,11l-141,-63l-107,-3l-172,106l-87,-13l-108,-77l-98,24l174,-254l185,-99l-3,-104l76,-70l70,-129l90,10l99,-57l21,121l61,29l120,-69l184,37l85,91Z" /><path id="2608503" d="M-352410,-78877l-62,7l-210,-55l-57,25l-82,143l-73,13l-85,-91l-184,-37l-120,69l-61,-29l-21,-121l-99,57l-90,-10l315,-411l194,-99l46,47l90,-2l341,-51l33,302l54,74l-19,84l90,85Z" /><path id="2608602" d="M-364029,-92234l-11,176l-111,1183l-106,-28l-108,58l-56,125l-110,-9l-121,-52l-131,-79l-43,-25l-477,-150l76,-164l68,-29l45,-152l-28,-218l109,-56l-35,-90l-86,-78l-102,-24l56,-148l-43,-65l36,-177l71,-85l63,-22l-41,-176l36,-87l74,-22l77,86l55,140l111,-36l136,45l72,118l235,154l85,-47l-11,-92l91,-37l84,90l40,-27Z" /><path id="2608701" d="M-358102,-86729l29,230l-89,78l-95,136l-84,-29l-209,177l20,73l-203,-62l-33,35l-215,-30l-499,-174l-253,-424l-15,-206l21,-172l-38,-9l-26,-153l47,-73l9,-111l66,12l246,-36l130,47l103,-74l579,-19l154,162l6,190l241,71l28,94l-13,182l56,63l37,22Z" /><path id="2608750" d="M-401962,-85117l-112,87l-127,-26l-74,20l-101,-74l-129,38l-54,104l-72,-17l-5,-78l-67,-36l-121,17l-47,79l-88,-7l-37,-109l-159,-34l-89,19l-52,-38l-102,15l-67,63l-246,75l-87,-181l6,-84l-44,-79l-103,-99l-151,-63l-81,-72l-30,-145l-48,-63l-16,-99l-67,-130l-131,-157l33,-138l135,-116l103,-139l12,-61l117,-134l32,-109l100,-36l8,-119l-40,-192l36,-45l-92,-263l86,-193l-45,-60l62,-55l-56,-69l55,-109l150,-89l80,-6l56,-100l39,-137l-32,-92l13,-87l125,-86l226,-20l44,37l102,-15l140,-152l121,-97l122,-141l-26,-88l28,-68l-10,-139l-107,-34l-54,-61l-63,16l-87,-156l79,-99l32,-112l-44,-51l9,-141l96,-64l43,-72l87,37l146,141l174,-112l105,-155l-5,-137l101,-76l28,-97l104,-75l7,-81l123,-81l124,-134l130,-81l35,-98l79,-47l154,14l144,-38l100,82l182,80l92,82l151,77l118,151l231,33l68,-26l121,23l187,3l-192,20l-47,309l45,80l-63,131l-172,91l26,102l83,75l-297,157l-57,90l-141,39l-106,-65l289,2071l-59,1175l-126,14l-51,134l-95,58l-158,-6l-150,49l-114,114l-31,80l-87,48l-23,68l-77,26l-1,250l-137,109l30,75l-112,29l-90,158Z" /><path id="2608800" d="M-361948,-87124l-535,571l-200,309l-245,-69l190,689l-13,4l-568,-527l-506,-203l1,-3l1330,-1516l308,731l238,14Z" /><path id="2608909" d="M-354420,-79611l78,143l190,229l175,78l146,131l90,-32l123,12l86,80l-22,64l-70,129l-76,70l3,104l-185,99l-174,254l0,493l-322,253l250,99l-63,192l-382,73l-246,-297l4,-225l-34,-124l85,-59l-7,-133l-266,-123l-68,-507l-146,-220l44,-215l67,-343l65,116l75,74l580,-415Z" /><path id="2609006" d="M-354344,-74708l-33,102l-127,72l-34,-92l-97,2l-126,-138l-129,-20l-59,-57l-91,-241l21,-45l114,-190l8,-244l125,-14l112,64l89,-73l53,-201l-66,-195l83,-49l16,-46l196,-91l152,392l-119,-61l-44,44l112,140l57,-12l79,113l-56,215l-52,379l-184,246Z" /><path id="2609105" d="M-354457,-76927l-190,215l-103,-64l-397,208l14,-145l-114,-32l-46,-51l82,-164l-186,-117l-23,-83l-63,-8l96,-119l-27,-67l117,-78l34,-58l147,11l93,89l179,91l387,372Z" /><path id="2609154" d="M-374117,-88149l-591,311l-209,15l-67,-36l-104,-173l-100,7l-133,-102l-98,10l-141,-81l-127,-110l-120,-150l-550,-566l-634,-335l5,-90l81,-39l11,-68l175,-189l-121,-19l-113,-51l82,-62l49,-96l241,115l3,-69l179,-24l15,-87l97,33l185,126l144,191l234,-32l165,15l99,96l129,10l78,-35l0,90l68,161l109,17l69,77l108,250l-7,175l130,130l-36,300l326,-368l100,122l62,13l85,-62l44,88l-51,55l91,181l-57,44l95,212Z" /><path id="2609204" d="M-357209,-88010l-33,416l-177,91l-325,-156l-81,-65l-167,-44l-42,63l-170,-84l19,-123l-73,-33l15,-64l-133,-10l-96,-61l22,-645l79,38l105,-17l36,130l151,-30l128,127l75,-34l63,-99l55,-26l-79,-184l46,-66l-39,-89l98,-86l123,-20l125,-91l120,53l131,24l501,440l-477,645Z" /><path id="2609303" d="M-385983,-81323l-24,-75l-67,-36l-209,62l-65,-80l-229,158l-20,113l-62,59l-37,99l-181,20l-58,266l16,76l-74,44l0,61l-122,123l-58,11l-213,194l-396,198l-522,-135l-474,63l-6,-273l79,-79l-119,-65l-282,-349l-210,-197l-57,-184l171,-183l105,-43l37,-112l143,-49l101,-63l120,1l26,-185l-46,-129l-81,-83l140,-64l148,-94l204,43l33,-46l147,-96l732,-98l193,-130l193,-52l335,-219l73,2l98,-59l55,-119l160,-81l154,7l62,49l199,18l103,64l57,-24l161,63l55,48l-63,226l71,82l-5,63l134,-3l55,49l-7,110l-56,47l-527,1028l-90,-42Z" /><path id="2609402" d="M-350582,-80880l-226,22l-208,-27l-76,75l-152,26l-101,-83l-95,-36l-107,2l-411,106l-206,-438l-91,-82l57,-186l-58,-38l19,-225l24,-97l60,-15l532,-372l-25,75l92,150l72,174l74,-39l141,46l172,-57l55,-62l187,-141l73,-90l135,-36l-30,132l16,89l-312,391l389,736Z" /><path id="2609501" d="M-351556,-77095l-96,-44l-199,257l-266,68l-294,-154l-2,-86l-182,298l-448,-906l301,-222l220,-203l40,123l268,169l103,78l113,37l66,96l94,-19l64,78l29,152l148,116l106,122l-65,40Z" /><path id="2609600" d="M-348280,-79591l-127,-18l-146,59l-27,-121l-61,-75l-84,46l-29,-108l-65,51h-134l-186,-37l-30,-86l178,-141l131,-36l131,-116l-26,-144l150,-128l-36,38l49,124l168,158l55,170l-15,48l104,316Z" /><path id="2609709" d="M-355147,-76568l-61,-56l-61,95l-1,78l-76,-104l-250,-58l-123,33l-158,78l-98,-41l-104,9l-116,-91l-18,-61l-102,-126l-138,-112l-115,-53l-107,3l-124,-62l56,-198l81,-137l97,-60l90,-101l79,-46l137,-93l119,-153l290,404l132,81l50,62l185,109l63,8l23,83l186,117l-82,164l46,51l114,32l-14,145Z" /><path id="2609808" d="M-394761,-85928l-12,116l2,471l-215,104l-31,54l-123,42l-112,135l-116,192l-81,82l-55,105l31,65l-65,172l-72,26l13,101l-58,118l15,103l87,38l-37,140l58,171l-36,45l55,97l80,51l27,128l-287,878l-1134,-1003l-27,-69l7,-140l58,-105l86,-48l24,-106l-67,-130l91,-76l-83,-123l36,-134l-41,-66l20,-72l90,-53l91,-164l23,-161l170,-62l45,-59l-48,-83l-81,-43l-27,-1406l234,42l81,-20l193,63l143,107l123,38l119,136l112,24l193,82l76,86l329,75l96,36Z" /><path id="2609907" d="M-401039,-76869l-586,-160l-493,258l-266,-81l14,-1334l-1080,-301l-826,-231l-143,-7l-122,-46l-30,-153l-90,-55l13,-70l-98,-5l-55,-84l-153,-49l-99,-250l-63,-8l-82,-73l-32,-389l-33,-66h-344l-150,-331l0,-1l1414,-14l82,-47l8,-118l-52,-87l20,-126l162,-137l116,-6l71,63l51,-21l72,51l101,-63l171,-62l84,163l122,70l69,-34l101,100l166,-67l141,-19l139,16l121,82l165,-210l81,27l132,-8l55,-82l-58,-52l-76,-202l-125,-181l-80,-25l-62,-97l10,-105l70,-90l148,-79l5,-76l147,-469l212,-1l79,696l121,-273l41,58l154,74l51,48l170,17l73,53l160,-33l215,69l131,-25l81,-140l180,-54l97,48l63,-37l59,52l137,-41l102,-3l76,-88l-59,-35l20,-111l96,-24l-24,-68l73,-55l55,24l91,-128l77,31l80,-101l73,34l173,-2l55,33l123,-17l36,85l-30,128l-139,75l-59,96l28,67l-86,111l-2,268l869,1099l-80,102l-129,80l6,71l-146,118l-79,151l-72,-13l-66,258l-1,108l-226,258l2,123l-54,25l-27,87l28,112l97,266l-53,78l7,96l-54,35l15,74l-89,66l-198,51l-150,89l-227,44l-73,72l-88,1l-233,-64l-118,-61l-187,-48l-105,9l-133,251l78,59l-150,913Z" /><path id="2610004" d="M-355877,-85176l-64,-5l-201,-114l-34,-79l-153,-134l-83,8l-1,151l-569,-123l-24,-228l89,-152l-19,-123l241,-6l-87,-81l-87,-189l-87,-76l270,-363l-391,-612l405,15l254,-6l-214,-98l-577,-619l1146,254l-26,122l92,112l-31,100l451,246l-71,338l272,251l-67,11l5,144l-128,10l-142,124l-169,1122Z" /><path id="2610103" d="M-361115,-90177l-293,-124l-140,-27l-65,48l-77,-19l-51,87l-148,-43l-116,51l-176,-33l-4,185l-93,39l-163,10l-23,47l64,78l-7,360l73,184l-222,-195l-504,-3l-45,-109l-161,-116l-133,-46l-50,-60l-78,6l-162,-58l-87,23l111,-294l71,-286l176,-56l205,36l156,-18l109,12l73,-48h194l55,-42l94,-3l575,143l68,-15l94,53l61,-30l93,35l124,-22l133,69l111,21l61,58l97,102Z" /><path id="2610202" d="M-359965,-85470l-38,133l-126,-105l-18,-113l-425,-184l-216,-70l-94,-129l-68,26l-57,-96l-278,-87l-260,-211l-102,-147l-170,-195l273,-251l302,-255l482,-55l-182,-105l56,-32l127,28l4,-387l197,154l153,-80l132,-135l414,-44l82,108l77,18l37,63l1,112l-7,78l-66,-12l-9,111l-47,73l26,153l38,9l-21,172l15,206l253,424l-220,143l-265,682Z" /><path id="2610301" d="M-366123,-89063l-157,184l-243,215l-139,-15l-54,131l60,153l-18,70l-696,-2l-220,-11l-76,-86l-103,-439l207,74l82,-45l-20,-82l-280,-358l-490,341l-92,78l-136,37l-181,-16l-7,-39l30,-9l5,-8l1293,-606l68,-45l153,28l50,104l473,67l112,-2l150,-96l43,-125l54,100l186,47l18,55l-41,97l36,117l-67,86Z" /><path id="2610400" d="M-393603,-80505l-777,-90l-294,33l-162,182l29,143l-61,173l16,56l96,94l56,115l52,31l56,195l54,58l-1152,-368l21,172l-50,124l48,93l-86,143l169,101l15,141l-29,73l-71,14l-42,66l-21,248l-1890,-418l-908,-1154l-869,-1099l2,-268l86,-111l-28,-67l59,-96l139,-75l30,-128l-36,-85l-123,17l-55,-33l-173,2l-73,-34l-80,101l-77,-31l-91,128l-55,-24l-73,55l24,68l-96,24l-20,111l59,35l-76,88l-102,3l-137,41l-59,-52l-63,37l-97,-48l-180,54l-81,140l-131,25l-215,-69l-160,33l-73,-53l-170,-17l-51,-48l-154,-74l-41,-58l-121,273l-79,-696l-33,-348l1134,-813l-238,-60l24,-49l136,-10l45,-85l-1,-89l83,-49l228,18l35,43l126,10l137,-102l75,8l112,174l73,18l110,-40l32,-63l166,-69l93,-60l237,133l185,-53l32,19l203,-59l162,133l86,11l115,94l106,143l167,60l141,-25l120,21l113,-62l92,35l43,-67l120,-19l7,-71l87,-46l57,80l92,-29l28,-237l30,-54l91,15l81,-64l22,-115l105,-50l-22,-111l118,-57l221,-240l16,-121l59,-53l-20,72l41,66l-36,134l83,123l-91,76l67,130l-24,106l-86,48l-58,105l-7,140l27,69l1134,1003l165,54l97,-4l35,65l155,-42l155,30l139,-85l308,91l-15,153l-53,40l-109,-44l-84,43l-98,6l-154,62l-95,-40l-96,88l-86,31l-48,155l101,87l589,251l95,126l225,15l101,-98l73,28l48,122l-62,88l4,73l154,4l54,179l60,36l55,121l5,122l83,33l187,122l34,66l68,11Z" /><path id="2610509" d="M-354420,-79611l-580,415l-75,-74l-65,-116l-175,77l-68,-153l-72,-7l-169,58l-172,-54l-213,109l-119,-19l-67,-73l-223,61l-124,-56l438,-671l-29,-102l-98,33l-103,-62l-65,-177l-132,-14l-19,-49l-97,14l140,-259l9,-323l195,12l468,255l312,76l415,134l483,-362l195,142l134,-16l-95,414l-265,87l19,144l36,34l-15,127l44,116l50,135l102,144Z" /><path id="2610608" d="M-350310,-79298l-178,206l-139,37l-30,60l-117,12l-99,88l-127,74l-127,249l-93,77l-180,572l-51,-342l-808,22l111,-650l-262,16l-90,-85l19,-84l-54,-74l-33,-302l322,-136l401,-174l34,-32l148,-7l15,63l85,13l267,-50l111,12l67,47l128,-39l65,66l143,49l46,102l220,70l53,-44l96,80l78,64l-21,40Z" /><path id="2610707" d="M-348280,-79591l52,166l26,168l-9,131l-38,86l4,195l-94,154l-26,250l-46,-10l4,-161l-144,-103l-69,-176l-42,-20l52,-61l0,-125l-117,-3l-122,-40l-85,11l-61,-168l-69,-58l-121,84l-202,9l-232,106l-237,-46l-327,44l-127,-140l21,-40l78,13l52,66l87,8l71,-41l92,-91l231,-35l194,123l322,-53l70,-92l-47,-354l186,37h134l65,-51l29,108l84,-46l61,75l27,121l146,-59l127,18Z" /><path id="2610806" d="M-367732,-87319l-125,223l-311,200l-243,254l-711,521l7,129l68,72l39,103l-49,136l101,128l72,2l70,129l63,7l116,240l48,55l-5,118l100,185l12,159l62,54l29,126l63,42l73,110l33,98l8,51l-289,-220l-92,-130l-133,-51l-69,23l-28,194l-186,-37l-99,-87l-119,-154l-100,69l-28,89l-95,36l-243,2l-136,-62l-85,144l-157,-105l35,-192l-38,-84l-122,-138l-33,-107l-488,-356l83,-2l53,-48l108,-30l157,33l97,-58l201,35l59,-102l73,-58l178,-1540l-223,-1853l188,12l201,-61l126,38l207,-38l114,-62l80,-14l52,118l163,32l61,83l53,-15l7,39l181,16l136,-37l92,-78l490,-341l280,358l20,82l-82,45l-207,-74l103,439l76,86l43,57l-129,91l-113,171l4,99l164,77l29,96l-149,129l28,265l-19,34Z" /><path id="2610905" d="M-366060,-82124l-340,-654l52,-75l-234,28l-125,30l-26,46l-370,48l-79,-4l-66,51l-17,72l-151,-48l-314,32l-111,-162l-107,-25l-80,17l6,92l-40,112l-88,19l-22,61l12,140l74,85l84,171l-16,72l140,118l-65,3l-115,-59l-67,-99l-118,-29l-190,-87l-184,-55l-175,-132l-168,-52l-123,-123l-13,-426l-353,-778l-35,-231l218,-300l257,-132l186,37l28,-194l69,-23l133,51l92,130l289,220l65,-132l300,81l830,17l247,-1048l-110,-28l-69,32l-182,-78l-132,-146l4,-112l-94,-136l-238,-263l299,-83l14,-128l-22,-96l63,-30l-12,-156l349,-219l97,26l56,101l-66,157l-60,89l113,190l74,17l70,180l157,105l320,260l37,87l522,425l-254,438l-442,1174l248,328l320,202l105,91l-457,708Z" /><path id="2611002" d="M-380655,-86844l-76,44l-89,-11l-156,-133l-117,-19l-118,45l-161,-2l-46,-52l-118,14l-145,97l-51,-7l-171,99l-192,-106l-182,-21l-51,14l-90,-75l-103,-45l-78,-77l-29,-120l9,-138l-44,-18l15,-129l-40,-55l-143,10l-58,-72l-164,57l-22,-72l-137,-70l-72,-124l-82,32l-90,-57l-80,-7l-57,-78l-152,21l-158,-106l-10,-44l-111,-43l-71,-78l-319,-126l-51,-80l-110,-31l-123,-250l-35,-238l-60,-122l-128,-109l-99,-40l-90,-85l-84,-142l-4,-83l58,-124l105,-214l153,-126l42,-70l349,-254l307,-116l149,8l176,124l235,239l222,105l167,4l66,-113l141,-126l131,-224l-3,-109l-137,-144l-173,-84l-52,-110l59,-103l128,-32l14,-72l-89,-55l-64,-97l27,-241l58,-74l1079,444l-76,1244l70,296l-57,185l15,108l-59,166l14,167l-101,215l-117,104l1706,1711Z" /><path id="2611101" d="M-404295,-86445l-1498,-228l-1789,438l-1530,-1524l-145,56l-122,-73l-66,-105l28,-257l-28,-107l-145,-175l126,-30l154,78l97,18l63,-141l120,-91l66,-124l14,-181l116,-158l22,-107l149,-78l50,-246l103,-62l-11,-263l53,-150l124,-150l22,-207l58,-56l33,-152l-5,-101l45,-70l-19,-108l78,-33l91,-151l146,-6l20,-52l124,32l119,-60l64,19l-9,-136l73,7l73,-45l106,-16l102,-98l124,-71l97,-13l151,46l74,-136l103,-79l-47,-133l22,-137l-72,-72l-51,-147l15,-42l-127,-191l69,-123l-27,-134l91,-22l-71,-191l-141,-40l-74,-46l4,-92l-118,-98l-193,93l-46,-96l-76,-18l-48,-70l141,-122l50,-97l-41,-99l32,-64l-83,-179l40,-122l-6,-196l-217,-130l47,-99l-5,-64l-66,-132l-3,-73l177,89l276,-21l70,-29l138,-89l201,-95l291,-66l163,-72l127,-19l146,61l90,72l121,39l148,-12l169,90l106,156l34,163l101,110l210,78l135,-14l133,-54l61,-53l100,-13l35,72l105,99l11,63l134,289l85,116l127,46l83,-36l51,-72l134,-93l199,-65l150,17l175,171l51,94l-35,154l48,175l69,117l66,186l95,118l73,238l17,205l103,352l40,104l-11,145l-55,132l-5,112l66,293l79,229l56,121l90,114l163,133l89,33l154,-23l148,-71l-7,81l-104,75l-28,97l-101,76l5,137l-105,155l-174,112l-146,-141l-87,-37l-43,72l-96,64l-9,141l44,51l-32,112l-79,99l87,156l63,-16l54,61l107,34l10,139l-28,68l26,88l-122,141l-121,97l-140,152l-102,15l-44,-37l-226,20l-125,86l-13,87l32,92l-39,137l-56,100l-80,6l-150,89l-55,109l56,69l-62,55l45,60l-86,193l92,263l-36,45l40,192l-8,119l-100,36l-32,109l-117,134l-12,61l-103,139Z" /><path id="2611200" d="M-366870,-81557l-100,10l-67,-33l-191,70l-30,-54l69,-52l-51,-109l-169,1l-92,-33l-34,-158l-81,-48l-138,56l-124,9l-140,-118l16,-72l-84,-171l-74,-85l-12,-140l22,-61l88,-19l40,-112l-6,-92l80,-17l107,25l111,162l314,-32l151,48l17,-72l66,-51l79,4l370,-48l26,-46l125,-30l234,-28l-52,75l340,654l-61,464l-56,-195l6,-236l-43,-42l-123,-4l-127,53l-92,156l-96,122l-138,34l-37,147l-43,68Z" /><path id="2611309" d="M-353664,-82990l279,209l207,980l-255,623l-860,365l-3,1l-134,16l-195,-142l-168,-107l404,-225l-35,-198l-66,-231l189,51l-3,-138l-55,-64l41,-276l29,-37l-149,-257l44,-106l52,-46l92,12l14,-99l91,-23l117,114l152,-39l104,-82l41,-86l-9,-110l76,-105Z" /><path id="2611408" d="M-354394,-82526l-58,24l-94,-38l-47,-102l-72,31l506,-684l424,-514l-321,-472l94,-33l84,136l154,-69l78,157l76,-123l109,-64l40,153l-222,166l81,160l119,36l124,143l-141,33l-26,55l-21,206l-83,319l-74,16l-76,105l9,110l-41,86l-104,82l-152,39l-117,-114l-91,23l-14,99l-92,-12l-52,46Z" /><path id="2611507" d="M-359662,-87509l-1,-112l-37,-63l-77,-18l-82,-108l-414,44l-132,135l-153,80l-197,-154l-152,-64l-303,-599l-45,-55l644,-528l278,-133l69,4l115,-44l95,-6l170,90l42,-12l222,98l114,31l-42,289l-5,506l-109,619Z" /><path id="2611533" d="M-377672,-76572l-39,98l-69,41l-2,85l-76,90l-153,-3l-87,-177l-213,-35l-68,28l-193,-75l-112,-126l-45,-109l-77,-82l-168,-71l-59,-73l90,-155l-188,41l-83,-37l-10,-104l-45,-63l-162,-111l-44,-152l-51,-4l-52,-96l126,-40l429,-43l138,-73l91,9l209,-117l115,-104l489,485l154,706l254,-54l-118,137l19,184Z" /><path id="2611606" d="M-349139,-79794l47,354l-70,92l-322,53l-194,-123l-231,35l-92,91l-83,-165l97,-28l-50,-111l99,-20l154,-84l163,-41l-2,-163l-32,-294l-168,-150l-82,24l-56,-45l13,-92l-219,-97l164,-81l41,30l68,-103l155,-71l37,-92l88,-75l-4,-146l29,-24l-18,-143l77,-123l158,18l40,-48h116l80,-35l48,-100l132,308l137,259l49,154l165,385l-150,128l26,144l-131,116l-131,36l-178,141l30,86Z" /><path id="2611705" d="M-357578,-79749l-62,-39l-115,90l-111,8l-184,-46l-20,-58l-170,-40l-187,-3l-56,-97l-167,-7l-135,43l-65,-67l-19,-89l-85,43l-112,-51l-90,15l-548,-1106l-147,-288l89,-226l537,-366l55,162l371,-192l-84,167l-25,104l25,70l148,99l59,-34l132,34l65,82l41,300l80,97l48,97l-63,66l27,146l-56,122l224,149l182,156l43,147l65,32l29,78l135,33l123,-5l-20,113l57,206l-14,55Z" /><path id="2611804" d="M-353461,-84277l-109,64l-76,123l-78,-157l-154,69l-84,-136l-94,33l-197,13l-69,-65l-133,-185l-102,-106l-284,-127l-161,-29l-54,-40l50,-75l4,-86l111,34l14,-113l-27,-112l60,-95l58,-13l14,-118l64,-61l40,40l-2,127l46,164l332,39l-32,-102l43,-206l152,-91l222,-57l76,134l80,-90l182,88l211,-288l22,-67l221,-165l131,-68l125,-163l212,-143h3l-33,336l-130,363l125,311l-45,420l-172,236l-122,-254l-140,105l5,40l-101,174l4,102l126,274l-69,-38l-118,-134l-139,-62l-29,59l21,98Z" /><path id="2611903" d="M-351026,-86864l-102,71l-38,182l-55,35l-36,101l-58,33l-91,-15l-419,599l-12,-174l-100,-171l-79,-200l-108,-94l-162,-7l-48,-31h-143l-167,228h-3l-441,25l-147,-66l-78,-115l-119,-62l-50,-96l-101,-276l111,-139l57,-14l-1,-200l781,389l1227,-489l76,-60l153,29l139,49l72,52l13,175l-55,16l-42,128l26,97Z" /><path id="2612000" d="M-356522,-82031l-148,-64l-191,-22l-257,-129l-1,-113l-71,-130l-188,-167l-147,-221l-56,-28l286,-243l-53,-92l8,-98l-45,-45l70,-250l-18,-64l108,-76l3,-103l219,144l443,-48l213,42l205,297l-304,567l-76,843Z" /><path id="2612109" d="M-355207,-79043l-110,105l-206,-48l-89,90l-170,-61l-87,1l-290,161l-652,-305l169,-148l80,-9l49,-74l-29,-112l124,56l223,-61l67,73l119,19l213,-109l172,54l169,-58l72,7l68,153l175,-77l-67,343Z" /><path id="2612208" d="M-390180,-78127l-72,-107l-286,41l-40,-36l-50,-139l-48,-51l-254,-157l-35,74l85,176l-46,95l20,135l-115,248l-5,138l-133,-56l-164,-111l-100,-112l-38,-282l-740,-742l-45,-132l3,-111l-73,-78l64,-103l17,-216l-129,-283l39,-176l-62,-51l5,-89l-93,-62l-138,-20l-23,-69l-255,-90l-90,61l-174,-492l125,-26l82,-67l35,-92l-79,-111l30,-107l-32,-32l22,-172l-43,-114l-159,-181l156,-447l174,56l115,-1l165,37l69,43l408,-134l1622,-1525l131,48l183,-3l30,-49l152,58l29,192l192,24l224,-42l147,31l94,-27l131,165l40,95l410,322l123,116l70,5l109,104l26,82l114,125l135,199l-147,96l-33,46l-204,-43l-148,94l-140,64l81,83l46,129l-26,185l-120,-1l-101,63l-143,49l-37,112l-105,43l-171,183l57,184l210,197l-130,-72l-65,38l-83,-10l-68,53l-103,-38l-127,-4l-91,189l-186,88l-92,-28l-73,-105l-72,71l-61,-3l-9,111l-109,4l-44,-34l-228,-1l-1,-150l-92,-47l-290,518l111,171l-22,177l84,69l15,145l94,74l11,264l35,80l-110,60l42,213l159,48l66,288l121,32l84,85l-17,74l202,259l-25,122Z" /><path id="2612307" d="M-366309,-89565l-43,125l-150,96l-112,2l-473,-67l-50,-104l-153,-28l-68,45l-1293,606l425,-666l358,-526l-154,-781l177,-269l74,147l75,61l87,-19l105,62l5,58l98,202l157,157l47,89l147,164l166,7l513,-4l40,128l73,55l-109,159l65,102l-7,199Z" /><path id="2612406" d="M-365107,-84021l179,180l82,696l-91,-14l-72,-86l-104,31l-51,85l-82,54l45,100l217,92l45,90l-37,136l117,131l-56,167l-86,-5l-81,58l-87,-18l-103,-141l-33,72l-117,-5l0,-81l59,-27l-239,-237l-1,-89l-105,-91l-320,-202l-248,-328l442,-1174l254,-438l494,526l-46,488l25,30Z" /><path id="2612455" d="M-401974,-82211l-212,1l-147,469l-5,76l-148,79l-70,90l-10,105l62,97l80,25l125,181l76,202l58,52l-55,82l-132,8l-81,-27l-165,210l-121,-82l-139,-16l-141,19l-166,67l-101,-100l-69,34l-122,-70l-84,-163l-171,62l-101,63l-72,-51l-51,21l-71,-63l-116,6l-162,137l-170,-2050l-100,-133l-43,-200l120,-100l4,-96l69,-149l75,-99l-17,-54l29,-152l-34,-167l73,-104l182,-18l47,-66l86,4l163,-82l-3,-57l74,-78l81,-17l66,-218l-13,-84l61,-59l-39,-138l-1,-152l110,-128l67,-63l102,-15l52,38l89,-19l159,34l37,109l88,7l47,-79l121,-17l67,36l5,78l72,17l54,-104l129,-38l101,74l74,-20l127,26l112,-87l56,75l5,165l-71,239l40,155l46,34l28,106l78,148l121,12l65,128l70,-8l129,237l55,219l253,126l-24,49l238,60l-1134,813l33,348Z" /><path id="2612471" d="M-381314,-77958l-124,124l-204,35l-105,-100l-289,-177l-91,-31l-92,-97l152,-178l-181,-253l28,-141l-10,-81l-67,-118l-86,-86l748,7l341,9l95,-41l-135,154l-72,108l-25,133l-68,80l22,162l276,259l-93,131l-20,101Z" /><path id="2612505" d="M-362635,-78317l-76,11l-141,127l-168,96l-114,19l-73,-28l-162,-2l-263,33l-103,-65l-191,50l-68,-28l-80,-37l-166,-17l-60,-113l17,-63l-26,-164l18,-172l-36,-61l30,-135l-72,-137l-89,-79l-5,-82l25,-39l206,-17l224,-162l137,-12l59,29l85,-87l10,-64l188,-20l19,-92l85,33l171,-89l139,85l196,163l208,-41l81,-61l209,-24l150,10l241,-76l62,50l192,-107l128,26l-75,86l27,175l-733,476l-235,237l29,368Z" /><path id="2612554" d="M-404285,-80697l-20,126l52,87l-8,118l-82,47l-1414,14l-231,-504l-51,-228l46,-119l81,-79l17,-143l-81,-34l-71,-84l-198,92l-83,11l-100,-108l-24,-80l-133,15l-80,-50l-13,-137l-75,-96l-91,-29l-100,-131l-62,-17l-28,-145l-77,-80l-116,19l-142,-50l-76,-119l-198,-39l-25,-40l-143,-46l-29,-92l58,-243l-19,-102l89,-9l74,-59l16,-152l61,-80l-19,-106l28,-54l125,52l141,-104l117,-37l137,39l171,-108l-5,-52l104,-111l47,45l131,-24l-9,-68l138,-19l47,56l98,-4l87,74l281,2l70,38l141,14l148,-89l160,-60l77,-1l37,97l179,-29l27,29l151,-18l73,59l108,26l86,-43l60,50l97,-26l138,-149l38,-113l34,167l-29,152l17,54l-75,99l-69,149l-4,96l-120,100l43,200l100,133l170,2050Z" /><path id="2612604" d="M-396723,-84566l-59,53l-16,121l-221,240l-118,57l22,111l-105,50l-22,115l-81,64l-91,-15l-30,54l-28,237l-92,29l-57,-80l-87,46l-7,71l-120,19l-43,67l-92,-35l-113,62l-120,-21l-141,25l-167,-60l-106,-143l-115,-94l-86,-11l-162,-133l-203,59l-32,-19l-185,53l-237,-133l-93,60l-166,69l-32,63l-110,40l-73,-18l-112,-174l-75,-8l-137,102l-126,-10l-35,-43l-228,-18l-83,49l1,89l-45,85l-136,10l-253,-126l-55,-219l-129,-237l-70,8l-65,-128l-121,-12l-78,-148l-28,-106l-46,-34l-40,-155l71,-239l-5,-165l-56,-75l90,-158l112,-29l-30,-75l137,-109l1,-250l77,-26l23,-68l87,-48l31,-80l114,-114l150,-49l158,6l95,-58l51,-134l126,-14l59,-1175l-289,-2071l106,65l141,-39l57,-90l297,-157l-83,-75l-26,-102l172,-91l63,-131l-45,-80l47,-309l192,-20l69,-13l196,62l103,17l126,70l64,106l219,265l106,104l97,171l75,91l106,67l144,291l-50,348l-48,62l-171,315l-14,136l22,86l75,132l62,38l239,55l181,13l248,47l164,-52l148,-4l133,100l277,151l260,-50l116,12l151,-18l218,147l-48,279l43,115l-85,340l-107,310l10,163l32,33l279,35l149,-23l27,1406l81,43l48,83l-45,59l-170,62l-23,161l-91,164l-90,53Z" /><path id="2612703" d="M-358810,-77663l-28,-85l-79,-52l-65,-89l-112,-36l-191,73l-149,-48l286,-564l-71,-206l81,-57l25,-64l192,90l182,66l281,-2l238,42l-239,508l-71,237l-185,150l-95,37Z" /><path id="2612802" d="M-374318,-73567l-157,-43l-184,30l-301,-68l-21,-63l105,-183l6,-57l-77,-39l-110,-202l-99,-84l14,-54l-75,-65l193,-131l120,-56l11,-48l220,-253l160,-222l30,-158l-14,-87l256,311l477,301l122,643l0,147l-33,154l-140,63l-127,-13l-163,-55l-161,124l-52,108Z" /><path id="2612901" d="M-358611,-87513l-579,19l-103,74l-130,-47l-246,36l7,-78l109,-619l5,-506l42,-289l81,67l182,10l79,170l50,63l104,-11l48,81l92,-88l115,42h146l118,-129l41,-7l-22,645l-81,480l-58,87Z" /><path id="2613008" d="M-363611,-83892l-127,-21l-113,27l-89,-14l-76,88l-223,-58l-122,-121l-114,-5l-61,116l-164,-25l-18,-112l-87,-52l-63,46l-61,-65l-94,-3l-84,70l-25,-30l46,-488l-494,-526l-522,-425l-37,-87l-25,-131l130,-235l-61,-120l217,56l108,-161l94,13l-1,-214l65,-58l45,91l142,108l86,-358l318,-210l124,-144l25,-99l196,132l-18,107l59,111l111,45l42,66l657,228l506,203l-9,84l67,119l-25,60l8,174l82,214l127,181l-137,435l-351,623l-54,365Z" /><path id="2613107" d="M-360626,-83828l11,202l-131,1209l-79,136l-402,408l-63,-91l-100,40l-99,-60l-63,-108l-252,-210l-127,-60l82,-199l-143,-103l-123,-55l-3,-79l-152,-39l-6,-91l44,-171l89,-89l-48,-59l11,-76l75,-66l-25,-47l39,-102l-71,-168l-63,-27l-96,-282l147,-146l-43,-75l67,-78l-22,-168l-70,-57l66,-341l233,183l602,413l31,270l122,1l207,181l213,38l-30,-130l37,-69l135,165Z" /><path id="2613206" d="M-363420,-88014l-82,159l-152,-97l-166,9l-92,35l-90,-9l-5,140l-81,-33l-124,-139l-233,-60l-35,-125l-97,-134l-48,-182l140,-370l177,-208l145,-39l55,-53l-5,-106l59,-110l71,-49l-19,-178l108,-205l47,-19l71,-105l87,-23l162,58l78,-6l50,60l133,46l161,116l45,109l-164,845l71,254l-267,419Z" /><path id="2613305" d="M-357550,-83848l-128,10l-49,104l-440,-125l-45,-21l-176,-3l-74,-27l6,123l-133,35l-101,-55l-65,31l-210,-82l-63,13l-152,-136l-47,-97l27,-131l70,-58l70,20l30,-100l-18,-126l12,-156l151,-44l-37,-60l43,-250l-132,-161l218,-331l-27,-95l-17,-195l104,-152l234,-14l29,101l83,42l-169,399l100,49l85,85l103,-53l16,58l34,147l46,95l-67,102l-120,60l-11,70l151,175l135,-78l173,53l59,-5l105,103l105,13l32,104l191,48l-161,250l64,85l-34,180Z" /><path id="2613404" d="M-351302,-88623l-94,191l27,137l-1237,-261l130,-132l45,-110l81,-34l259,-86l110,44l269,-32l152,-122l33,-111l13,66l71,78l25,138l116,234Z" /><path id="2613503" d="M-387151,-76219l-25,-50h-61l-85,-70l-96,-145l-10,-119l-117,6l-61,37l-212,-59l-107,-62l-197,-7l-75,40l-45,-135l84,-84l8,-107l-70,-174l-61,-48l-180,-8l-77,49l-159,40l-101,-118l-16,-241l-134,-31l-44,48l-164,12l3,-92l-123,-1l-120,-50l-14,-126l-54,-100l66,-102l-50,-123l-81,-66l-4,-89l-116,-104l57,-105l-29,-39l-17,-127l88,-92l13,-160l51,-102l108,-68l78,-172l186,-117l36,-118l0,-163l181,-95l-9,-86l64,-49l28,-132l68,-45l-32,-134l474,-63l522,135l396,-198l213,-194l58,-11l122,-123l0,-61l74,-44l-16,-76l58,-266l181,-20l37,-99l62,-59l20,-113l229,-158l65,80l209,-62l67,36l24,75l-222,335l126,615l499,973l27,347l-723,833l41,352l299,325l-41,123l-99,25l-2,125l-63,113l-121,93l3,108l-161,95l-1,85l-93,5l7,85l-129,111l-63,-30l-135,177l-33,78l-83,17l-104,113l-97,1Z" /><path id="2613602" d="M-372704,-73935l-197,-18l-146,157l-92,130l-231,-6l-91,-25l-62,155l-46,-132l-6,-102l-100,-18l33,-154l0,-147l-122,-643l-477,-301l-256,-311l128,-49l61,-83l26,-103l-40,-108l32,-188l-83,-78l114,-207l5,-132l87,-65l14,-67l76,81l77,-7l72,67l160,23l215,112l94,120l240,39l91,45l78,-3l3,-78l875,-894l27,-44l118,-34l135,-131l63,66l185,24l107,-127l35,2l-108,189l-131,137l-27,115l-110,152l-73,55l-28,168l51,115l96,108l42,159l154,224l265,195l83,125l105,83l122,33l115,89l153,56l94,-8l161,128l106,7l170,66l-1000,176l-132,-51l-208,-107l-21,115l33,83l-40,49l88,165l-174,41l-140,-25l-78,89l-50,129l35,54l-72,130l-248,-13l-118,69l-98,102l-219,32Z" /><path id="2613701" d="M-349961,-80369l-147,-8l-58,179l54,85l-56,211l81,182l-62,29l-18,94l-140,16l-60,179l-96,-80l-53,44l-220,-70l-46,-102l-143,-49l-65,-66l-128,39l-67,-47l-111,-12l-267,50l-85,-13l-15,-63l11,-44l-140,-140l-70,42l-156,-116l-27,-87l-191,-92l192,-176l86,-411l411,-106l107,-2l95,36l101,83l152,-26l76,-75l208,27l226,-22l31,207l384,115l219,97l-13,92Z" /><path id="2613800" d="M-354501,-76027l-83,49l66,195l-53,201l-89,73l-112,-64l-125,14l-8,244l-114,190l-73,-50l-32,-140l-90,-97l15,-92l-73,-196l-101,-106l14,-80l80,-16l96,-138l-75,-36l-59,-141l121,-183l-74,-51l1,-78l61,-95l61,56l397,-208l103,64l190,-215l8,430l-38,99l-93,17l-49,210l128,144Z" /><path id="2613909" d="M-383109,-77391l-50,106l39,122l-147,226l-180,-13l-103,166l-151,-142l-1,-43l-121,-106l-194,-57l9,-69l-87,-104l-181,5l-66,95l-229,24l-69,-128l-265,-38l-53,-41l-8,-112l-200,7l-84,-53l-135,13l-46,43l-147,-76l-61,-1l-171,91l-33,-58l-93,-9l-299,-325l-41,-352l723,-833l-27,-347l-499,-973l-126,-615l222,-335l90,42l527,-1028l56,-47l7,-110l-55,-49l-134,3l5,-63l-71,-82l63,-226l96,9l234,-161l97,-32l73,-135l128,55l11,-134l-54,-88l-96,8l-88,-156l50,-62l-19,-107l-55,-121l-56,-198l36,-44l-21,-137l9,-199l63,-10l89,49l57,134l142,66l109,126l3,75l59,42l43,110l86,122l79,-32l110,216l135,72l-15,146l124,211l200,125l97,31l92,94l203,-65l97,43l48,-73l186,-14l115,58l120,8l113,162l128,102l19,48l142,-90l62,18l226,-159l151,-84l89,63l56,-13l135,37l10,85l108,19l-7,99l-65,92l217,238l109,16l86,61l141,-54l55,64l-6,126l73,154l131,91l77,136l231,159l144,-29l156,97l45,77l-692,795l-520,1087l-59,78l-128,84l46,238l-748,-7l86,86l67,118l10,81l-28,141l181,253l-152,178l-136,-56l-31,-47l-184,-4l-61,30l-124,-61l-179,112l-43,91l-13,165l-35,59l68,163l-76,131l-135,-25l111,120l35,74l-87,61Z" /><path id="2614006" d="M-392664,-76648l-39,49l-185,-50l-89,19l-92,-21l-45,99l-100,10l-170,96l-31,77l-87,57l-179,73l-15,46l-31,51l-113,56l-79,4l-160,-229l-80,-31l-39,-76l-92,-43l-136,-131l-119,63l-250,-141l-123,-21l-34,-86l-66,-20l6,-96l-84,-85l-2,-98l48,-55l39,-140l-130,-30l20,-82l-102,-3l-77,-41l-172,25l-142,-8l-75,20l-45,-46l-24,-126l-145,-96l-10,-97l183,-112l34,-52l-20,-148l95,-65l-100,-77l-20,-117l128,-173l-123,-209l21,-248l42,-66l71,-14l29,-73l-15,-141l-169,-101l86,-143l-48,-93l50,-124l-21,-172l1152,368l-54,-58l-56,-195l-52,-31l-56,-115l-96,-94l-16,-56l61,-173l-29,-143l162,-182l294,-33l777,90l230,-38l135,9l39,54l175,-7l43,55l90,-61l255,90l23,69l138,20l93,62l-5,89l62,51l-39,176l129,283l-17,216l-64,103l73,78l-3,111l45,132l740,742l38,282l100,112l164,111l-1546,-127l-38,23l-9,193l-72,171l48,54l-11,116l126,85l82,244l-19,112l-88,52l22,195Z" /><path id="2614105" d="M-373502,-79486l-44,-60l-86,-28l-173,-9l-227,8l-222,171l-105,-23l-36,-59l-158,-28l-137,90l-49,-231l-122,-77l-82,54l-127,-1l-249,-37l-91,-72l297,-784l-71,-180l-119,-155l-15,-115l-11,-331l74,-75l16,-83l78,-159l-9,-193l-176,-203l-50,-89l-14,-195l-153,-246l-51,-58l-113,-59l-8,-91l-70,-110l-56,-135l-133,-133l-38,-86l15,-81l-44,-150l2,-108l-128,-76l10,-187l-15,-259l70,-21l117,70l204,33l77,-71l155,-7l171,-187l295,-97l210,-8l85,15l123,-88l86,-103l174,48l77,-6l46,112l65,-80l37,87l162,157l80,-21l123,163l150,-51l54,127l147,32l83,-21l312,44l281,121l191,-114l66,90l57,-1l165,-122l95,-25l146,-21l55,-98l160,-33l26,38l117,17l127,108l113,7l234,51l153,132l81,8l14,69l70,76l151,63l76,98l131,12l99,45l43,61l79,204l0,72l70,103l-29,45l112,99l-73,63l-124,172l-179,22l-175,-40l-65,61l16,208l141,81l-144,111l-90,-93l-105,-25l-100,82l-125,164l-32,176l72,75l6,86l-82,17l-147,-35l-190,68l-32,117l124,87l-76,111l54,114l90,25l16,71l-52,178l41,121l-29,94l-102,141l-13,133l97,161l-12,114l-22,143l-86,122l-149,3l-181,140l7,223l-152,87l-94,-45l-42,-71l19,-93h-215l-59,34l-165,12l-139,-38l-144,67l-115,-49l-91,24l-279,-119l-3,46l-168,1l54,65l43,141l-25,58Z" /><path id="2614204" d="M-352030,-84790l-198,10l-173,28l-325,-30l-1,-95l45,-420l-125,-311l130,-363l33,-336l167,-228h143l48,31l162,7l108,94l79,200l100,171l12,174l419,-599l91,15l58,-33l36,-101l55,-35l38,-182l102,-71l148,-44l38,92l134,132l-28,82l26,99l158,308l68,101l-171,122l-40,131l-17,198l-98,79l-14,138l64,63l-17,70l-486,100l-163,187l-29,111l-180,37l-47,72l-350,-4Z" /><path id="2614303" d="M-394476,-75722l-126,-38l-133,31l-30,196l-77,122l-5,83l150,122l140,187l-10,215l-40,92l-148,-15l-169,14l-100,72l-97,-30l-243,-154l-95,-14l-3,-260l-38,-106l-83,-82l-40,-108l58,-109l38,-142l-101,-129l-61,-23l-38,-93l-121,-74l-22,-44l-120,-60l-60,-148l25,-55l-143,-168l68,-101l-30,-104l79,-99l-12,-113l-97,-180l50,-87l-60,-104l70,-91l4,-204l87,-34l106,-101l145,96l24,126l45,46l75,-20l142,8l172,-25l77,41l102,3l-20,82l130,30l-39,140l-48,55l2,98l84,85l-6,96l66,20l34,86l123,21l250,141l119,-63l136,131l92,43l39,76l80,31l160,229l-288,52l-26,162l-116,131l-127,15Z" /><path id="2614402" d="M-376199,-75259l-105,-66l-109,32l-81,-14l-64,73l-208,-122l-56,-128l-243,-22l-35,-109l34,-80l-107,-109l-112,5l-64,-173l-66,-3l-42,-118l176,-72l204,33l29,-37l117,-25l181,91l18,-63l218,-9l64,-162l110,-48l54,45l170,76l284,-40l44,-44l80,20l120,-64l-249,392l-362,741Z" /><path id="2614501" d="M-357523,-78093l-353,-10l-146,69l-113,-78l-95,25l-163,-64l-66,64l239,-508l46,-277l-3,-90l59,-54l-18,-115l54,-34l-34,-124l-66,-17l39,-127l-31,-138l77,-44l47,-121l184,46l111,-8l115,-90l62,39l170,91l56,-3l212,70l132,22l114,-23l214,132l138,17l29,112l-49,74l-80,9l-169,148l-62,24l-45,106l27,73l-12,119l49,80l-23,224l-73,6l-71,129l-59,25l-136,-2l-127,157l-84,-49l-96,115Z" /><path id="2614600" d="M-374497,-75350l14,87l-30,158l-160,222l-220,253l-11,48l-120,56l-193,131l-57,-89l-6,-169l-51,-77l-95,-53l-143,-15l-149,-93l-149,-100l-231,-89l-16,-106l-85,-73l362,-741l249,-392l-11,-69l92,-52l2,-148l-27,-131l-47,-78l57,-165l-44,-116l56,-34l71,67l60,-62l57,87l105,-5l12,41l115,59l90,17l48,61l1,111l196,116l144,-29l280,74l96,91l82,127l-14,67l-87,65l-5,132l-114,207l83,78l-32,188l40,108l-26,103l-61,83l-128,49Z" /><path id="2614709" d="M-362242,-84539l70,57l22,168l-67,78l43,75l-147,146l96,282l63,27l71,168l-39,102l25,47l-75,66l-11,76l48,59l-89,89l-44,171l6,91l152,39l3,79l123,55l143,103l-82,199l-141,106l8,-102l-327,-273l-126,-126l-157,-79l-367,-27l-291,-100l-54,-91l37,-167l-262,-671l284,75l-37,-132l1122,-590Z" /><path id="2614808" d="M-378262,-89327l-185,-59l-68,-49l-69,-107l-95,-50l-138,86l-103,-132l-45,-14l-101,-112l-157,-102l-108,-116l-284,-15l-166,-200l-104,191l-52,40l-54,213l-64,125l-6,1494l-4,1333l-34,122l-148,156l-151,-66l4,-138l-101,-133l-130,-58l-30,74l-1706,-1711l117,-104l101,-215l-14,-167l59,-166l-15,-108l57,-185l-70,-296l76,-1244l61,-482l1066,-205l97,21l165,-36l91,66l125,-12l150,43l37,90l137,-5l126,38l58,-31l151,76l74,234l96,42l67,88l33,139l89,52l50,121l79,88l227,201l6,82l62,47l126,32l67,-52l58,157l-44,92l124,38l141,115l71,153l69,64l129,457Z" /><path id="2614857" d="M-351026,-86864l-26,-97l42,-128l55,-16l-13,-175l-72,-52l-139,-49l-153,-29l-76,60l-1227,489l-781,-389l16,-222l-214,-593l70,11l142,76l131,4l107,52h145l117,53l58,-25l156,70l58,-13l68,103l91,-27l125,189l110,35l107,-89l58,1l149,-116l111,32l26,-43l262,-2l48,-64l105,-32l80,-83l35,-81l202,124l25,41l-33,117l24,78l96,70l80,117l-34,178l105,253l-113,86l25,42l-148,44Z" /><path id="2615003" d="M-361268,-77842l-166,26l-190,-21l-211,-2l-144,-65l-64,74l-22,126l-101,63l-106,-59l-191,-153l-79,-111l30,-82l89,-27l23,-104l-133,-123l-102,-17l-29,-368l235,-237l733,-476l-27,-175l75,-86l77,-78l61,3l17,89l134,2l42,-58l91,11l114,-32l28,-159l-34,-86l27,-76l115,-4l170,128l97,112l197,229l5,50l133,217l145,90l-81,72l42,76l90,39l45,70l34,193l-35,235l-59,81l28,79l-81,118l7,60l90,56l87,-37l29,51l-183,26l-120,136l-84,29l-85,-74l-57,19l-79,141l-49,41l-251,25l-100,-11l-144,-62l-83,16Z" /><path id="2615102" d="M-365330,-91014l-125,6l27,87l-38,136l-231,83l-91,57l-31,139l-42,15l-144,157l-366,126l-513,4l-32,-210l22,-274l-151,-276l-23,-172l92,-9l209,-108l95,21l107,-45l179,60l116,70l51,-66l56,50l80,-54l450,27l303,176Z" /><path id="2615201" d="M-393174,-81826l159,181l43,114l-22,172l32,32l-30,107l79,111l-35,92l-82,67l-125,26l174,492l-43,-55l-175,7l-39,-54l-135,-9l-230,38l-68,-11l-34,-66l-187,-122l-83,-33l-5,-122l-55,-121l-60,-36l-54,-179l-154,-4l-4,-73l62,-88l-48,-122l-73,-28l-101,98l-225,-15l-95,-126l-589,-251l-101,-87l48,-155l86,-31l96,-88l95,40l154,-62l98,-6l84,-43l109,44l53,-40l15,-153l178,-76l168,28l41,-27l96,56l78,-68l124,-1l53,-68l127,-1l78,59l-102,65l61,102l-1,151l82,155l77,49l61,-81l59,71l100,29l126,118l59,-2Z" /><path id="2615300" d="M-353426,-74220l-100,-22l40,-107l-44,-64l-99,-15l-55,22l-76,-83l-95,-7l-67,-64l-176,-68l-31,-78l-118,-38l-97,36l184,-246l52,-379l56,-215l-79,-113l-57,12l-112,-140l44,-44l119,61l-152,-392l91,23l84,-57l79,27l154,-1l49,55l143,-2l51,-44l153,53l137,-30l105,37l169,-19l142,132h68l135,77l179,472l348,115l121,108l-156,22l-85,148l-298,137l35,-179l-474,88l-126,119l53,102l-66,211l-90,23l-63,140l10,100l-85,87Z" /><path id="2615409" d="M-360118,-79876l-145,38l-108,-10l-23,-40l-112,20l-51,72l-152,-11l-97,-112l-170,-128l-34,-66l189,-109l88,65l78,7l226,88l77,-7l239,29l25,100l-30,64Z" /><path id="2615508" d="M-351219,-76694l-47,64l-106,60l19,-235l-122,-65l-99,-15l-12,-103l30,-107l65,-40l-106,-122l-148,-116l-29,-152l-64,-78l-94,19l-66,-96l-113,-37l-103,-78l-268,-169l-40,-123l263,-156l808,-22l51,342l138,223l60,37l100,171l-15,82l60,144l62,38l14,76l72,179l-7,48l-300,220l-3,11Z" /><path id="2615607" d="M-403450,-78487l1080,301l-14,1334l-341,1231l-515,-845l-358,-630l-2,-20l67,-1133l83,-238Z" /><path id="2615706" d="M-380007,-77790l-48,12l-26,109l-44,11l-174,160l-97,17l-214,-188l-85,-54l-58,-101l18,-111l-22,-119l103,-143l-117,-109l-201,33l-229,83l-276,-259l-22,-162l68,-80l25,-133l72,-108l135,-154l260,-138l74,-22l-9,-86l53,-36l82,69l39,103l82,-36l94,15l71,61l198,92l-25,64l130,59l30,133l110,46l14,74l-55,51l-47,117l24,147l-16,199l-42,17l-82,119l6,126l201,122Z" /><path id="2615805" d="M-372234,-84053l-95,25l-165,122l-57,1l-66,-90l-191,114l-281,-121l-312,-44l-83,21l-147,-32l-54,-127l-220,-925l-79,-1128l-133,-1912l464,24l18,-74l138,-62l29,-68l206,-61l81,114l207,49l77,-28l101,71l86,-3l160,64l160,-134l61,-117l-27,-40l106,-128l-23,-127l68,-110l4,-71l72,-29l74,-100l69,-23l32,-127l151,-127l109,-155l114,11l27,-57l143,1l180,-113l86,-31l132,-3l80,58l81,179l-28,74l66,109l-23,177l-47,52l44,139l-13,75l70,72l-62,119l-135,162l-13,62l-85,29l-126,180l-127,43l-89,72l-156,211l16,84l-49,41l-139,5l-92,144l-49,-13l-109,73l-126,24l-93,-33l-69,31l-74,-40l-225,59l-147,150l-89,142l-68,153l13,117l-27,240l-117,189l785,2371Z" /><path id="2615904" d="M-371502,-77169l-35,-2l-107,127l-185,-24l-63,-66l-135,131l-118,34l-27,44l-875,894l-3,78l-78,3l-91,-45l-240,-39l-94,-120l-215,-112h46l120,-137l55,-11l77,-92l38,-116l-72,-177l52,-85l51,1l164,-319l109,65l138,-7l142,94l79,-85l131,13l127,-67l104,-169l-10,-63l548,-34l119,-113l-22,-230l23,-140l42,-64l122,79l65,125l-50,68l53,106l128,169l-117,165l4,121Z" /><path id="2616001" d="M-367591,-85990l-87,-35l-105,-2l-5,126l-47,8l2,131l37,57l-3,97l-61,52l-13,111l-390,408l43,809l-33,-98l-73,-110l-63,-42l-29,-126l-62,-54l-12,-159l-100,-185l5,-118l-48,-55l-116,-240l-63,-7l-70,-129l-72,-2l-101,-128l49,-136l-39,-103l-68,-72l-7,-129l711,-521l243,-254l311,-200l125,-223l710,80l122,537l-349,219l12,156l-63,30l22,96l-14,128l-299,83Z" /><path id="2616100" d="M-389660,-78456l-86,26l-76,-31l-126,58l-66,2l-61,165l-62,107l-43,2l25,-122l-202,-259l17,-74l-84,-85l-121,-32l-66,-288l-159,-48l-42,-213l110,-60l-35,-80l-11,-264l-94,-74l-15,-145l-84,-69l22,-177l-111,-171l290,-518l92,47l1,150l228,1l44,34l109,-4l9,-111l61,3l72,-71l73,105l92,28l186,-88l91,-189l127,4l103,38l68,-53l83,10l65,-38l130,72l282,349l119,65l-79,79l6,273l32,134l-68,45l-28,132l-64,49l9,86l-181,95l0,163l-36,118l-186,117l-78,172l-108,68l-51,102l-13,160l-88,92l17,127l-39,-14Z" /><path id="2616183" d="M-357899,-77404l-104,-14l-250,-78l-254,21l-116,-35l-98,15l-97,-49l8,-119l95,-37l185,-150l71,-237l66,-64l163,64l95,-25l113,78l146,-69l353,10l-78,71l-17,89l-56,90l9,125l-234,314Z" /><path id="2616209" d="M-359434,-77900l-156,27l-150,-47l-74,-112l-96,33l-123,-129l-29,-51l-87,37l-90,-56l-7,-60l81,-118l-28,-79l59,-81l35,-235l-34,-193l-45,-70l-90,-39l-42,-76l81,-72l-145,-90l-133,-217l-5,-50l-197,-229l152,11l51,-72l112,-20l23,40l108,10l145,-38l8,78l56,35l123,-59l159,-22l190,-57l-5,122l-98,42l41,60l-9,123l25,87l65,21l-150,109l56,34l-9,225l100,93l457,33l-4,161l-25,64l-81,57l71,206l-286,564Z" /><path id="2616308" d="M-352729,-75913l-135,-77h-68l-142,-132l-169,19l-105,-37l-137,30l-153,-53l-51,44l-143,2l-49,-55l-154,1l-79,-27l-84,57l-91,-23l-196,91l-16,46l-128,-144l49,-210l93,-17l38,-99l-8,-430l180,-207l86,-79l63,-192l23,66l258,102l147,282l140,-141l165,14l175,53l258,-82l367,355l25,149l-36,27l65,114l-33,31l-155,522Z" /><path id="2616407" d="M-352236,-80208l-20,-70l-85,-104l-173,-162l-93,-34l-120,35l-251,-165l-144,100l-68,-27l-117,31l-148,87l-48,-98l-118,5l-264,-134l-127,-13l-145,15l-136,-71l860,-365l255,-623l-207,-980l-279,-209l74,-16l196,58l389,-133l314,120l-72,109l115,424l20,23l33,228l46,150l128,77l10,-178l138,60l-12,88l95,104h37l-60,15l-24,97l-19,225l58,38l-57,186l91,82l206,438l-86,411l-192,176Z" /><path id="2616506" d="M-355825,-88465l-169,107l-137,218l-93,40l59,73l6,136l96,135l-1146,-254l477,-645l-501,-440l96,47l134,-18l82,58l209,42l81,69l22,68l89,6l199,10l87,57l96,112l73,-8l111,53l13,50l116,84Z" /></g></svg>