<?xml version="1.0"?><svg xmlns="http://www.w3.org/2000/svg" version="1.2" baseProfile="tiny" width="1080" height="1080" viewBox="-38.2376 8.8161 3.0848999999999975 1.6824999999999992" stroke-linecap="round" stroke-linejoin="round"><g id="UF27MU" transform="scale(0.0001,-0.0001)"><path id="2700102" d="M-379516,-90974l-33,-139l-67,-88l-96,-42l-74,-234l-151,-76l-58,31l-126,-38l96,-68l4,-79l88,-20l94,-87l-32,-63l140,-79l16,-204l-170,-161l52,-70l169,-63l38,-81l-75,-93l-68,-39l-56,-174l65,-159l-49,-142l-24,-159l-169,-60l1279,-705l73,24l111,88l89,180l6,53l109,92l7,106l75,23l19,88l149,118l315,52l34,207l48,147l-646,676l-1182,1238Z" /><path id="2700201" d="M-362548,-96215l-332,127l-57,75l-228,-115l-44,27l-253,55l20,62l-62,61l-417,-106l35,-259l78,-66l-134,-130l59,-33l89,-60l73,-198l-14,-78l31,-130l151,-98l122,-51l-14,-84l18,-169l79,112l21,138l97,-49l431,-160l103,33l164,14l137,549l-12,18l-141,515Z" /><path id="2700300" d="M-366093,-96537l-150,-9l-48,98l-106,88l-156,-70l-308,76l-9,-167l-249,-112l-140,-130l-286,-311l346,-517l261,-436l31,-15l653,-334l-11,-54l72,-51l107,-21l68,25l105,-239l1,-69l65,-28l160,62l97,2l175,-69l-11,99l-112,155l6,173l1,176l45,126l-156,45l15,132l93,169l-50,103l-56,28l-90,117l-48,124l21,80l-80,146l2,142l-41,81l-205,228l-12,157Z" /><path id="2700409" d="M-359289,-93756l1,11l-856,-265l-21,37l-366,-267l-206,-86l-283,-209l-228,-52l-59,38l-115,-55l-136,-125l-523,175l-129,-289l-58,-302l83,-487l268,-369l108,-121l238,-63l73,65l114,-11l108,141l75,28l180,-12l86,-37l165,42l46,-18l314,148l238,75l115,-93l50,112l410,465l225,355l44,129l-9,168l28,11l20,861Z" /><path id="2700508" d="M-354725,-93580l-419,437l-58,-94l60,-174l-36,-139l-71,8l-112,73l-238,-110l-62,14l-148,-28l-1056,-113l-41,-4l139,-276l102,-3l91,-50l176,18l113,-27l75,-51l95,46l179,-18l176,55l163,-39l102,17l41,-43l39,-135l48,-29l50,-112l71,-69l114,27l118,172l56,167l-6,82l43,143l99,153l97,102Z" /><path id="2700607" d="M-358553,-97883l-503,-236l-91,23l-118,139l-109,10l-9,51l-183,29l-105,-17l-241,66l-95,73l-39,74l-236,-419l13,-22l120,30l252,-110l58,-67h64l151,-77l81,-96l128,-22l188,75l65,-17l115,-163l22,92l132,71l76,98l177,294l87,121Z" /><path id="2700706" d="M-370460,-96201l-585,127l-485,-101l-9,14l-371,-743l-227,-31l-53,-167l343,-265l153,-44l68,-56l-3,-70l126,-89l473,-287l203,-31l189,27l74,-84l83,-15l79,-57l83,184l98,28l74,164l57,5l118,131l-26,272l62,75l-661,387l123,530l14,96Z" /><path id="2700805" d="M-364884,-95022l-125,31l-122,-44l-126,-105l-7,-144l-68,-25l-47,-20l427,-710l145,-32h130l23,-112l136,39l50,85l-416,1037Z" /><path id="2700904" d="M-370402,-98073l-79,57l-83,15l-74,84l-189,-27l-203,31l-473,287l-126,89l3,70l-68,56l-153,44l-343,265l-44,-124l-69,-77l-102,-57l-89,-11l-20,-123l-77,-79l-156,-87l-15,-60l-212,-108l-128,-209l118,-137l19,-132h113l140,-135l103,-66l42,-127l72,-118l40,-166l108,-58l84,-1l123,-21l180,38l184,-30l151,52l287,-200l71,109l11,106l75,34l-2,156l112,81l-8,107l49,77l628,395Z" /><path id="2701001" d="M-360750,-96735l-147,176l-94,40l-85,84l-77,-59l-256,40l1,40l-105,129l-256,72l-40,91l-108,121l-197,42l-286,24l-99,-298l-49,18l141,-515l12,-18l-137,-549l61,-24l675,98l1062,215l48,117l-108,88l44,68Z" /><path id="2701100" d="M-360427,-92810l403,152l469,517l669,758l-540,-258l-565,-253l-324,-137l-275,-129l-65,93l-147,4l-71,48l-234,-66l-150,63l-253,-50l-144,-57l-46,22l-123,-17l-185,-68l552,-216l521,-245l121,-10l128,49l35,-121l58,-32l144,-8l22,-39Z" /><path id="2701209" d="M-369368,-93774l-97,-56l-90,17l-241,220l-146,-150l-286,47l-158,-472l-11,-10l191,35l38,-242l126,-103l13,-71l79,-57l119,-135l34,-110l635,-362l380,-115l85,-103l105,-25l221,148l50,33l-72,184l46,11l36,75l-122,150l13,205l-32,146l3,107l156,126l18,72l-26,236l36,63l-386,-18l-363,-50l-354,204Z" /><path id="2701308" d="M-361558,-94729l-38,54l365,919l29,445l-342,258l-319,-849l-201,-555l-47,-73l30,-24l523,-175Z" /><path id="2701357" d="M-355398,-88211l-277,-143l-27,-74l-118,-187l54,-38l-91,-264l64,-194l55,-36l200,90l105,-98l40,-91l119,-142l-2,-44l111,-60l101,-7l153,76l-54,100l7,72l-45,90l34,59l3,160l-61,66l-136,57l-200,-68l-120,442l85,234Z" /><path id="2701407" d="M-362532,-97297l-164,-14l-103,-33l-431,160l-97,49l-21,-138l-79,-112l-49,-105l-101,-2l42,-90l-61,-111l-102,40l-100,-15l-140,-75l-72,-88l35,-64l347,-377l93,-70l188,-227l101,-214l115,-86l352,-54l6,-74l-36,-350l1026,454l-35,96l-580,79l202,349l113,-68l106,65l11,79l-43,128l-62,99l141,55l90,4l-8,46l-241,247l-327,319l-55,74l-61,24Z" /><path id="2701506" d="M-366870,-99655l36,111l74,66l26,111l-121,61l-118,194l-281,67l-54,51l-22,91l-89,5l-108,72l-9,-70l-175,-194l-103,-32l-39,-109l-49,-30l-42,-291l-38,-29l-99,-171l-14,-65l-179,-162l-110,-40l-47,-83l90,-26l139,105l117,-75l92,38l117,-160l736,-235l89,259l-18,190l199,351Z" /><path id="2701605" d="M-373956,-90281l-5,80l-204,135l-147,-11l-370,91l-158,96l-83,14l-65,183l-56,39l-147,-29l-269,-320l-431,-594l-483,-486l-166,-202l-55,-92l-37,-217l-193,-196l263,-98l343,-42l106,-318l33,-67l-99,-62l-2,-91l65,-14l60,-131l-32,-118l34,-64l172,-73l171,42l65,91l160,64l63,79l106,-8l79,59l65,119l112,63l164,56l96,64l-4,72l90,45l148,146l123,50l81,89l29,82l115,148l-33,54l64,203l-47,22l-29,120l-8,174l73,140l1,136l211,332l39,5l-8,140Z" /><path id="2701704" d="M-360427,-92810l-22,39l-144,8l-58,32l-35,121l-128,-49l-121,10l-521,245l-552,216l464,-865l342,-258l-29,-445l-365,-919l38,-54l136,125l115,55l59,-38l228,52l283,209l206,86l366,267l204,137l-121,168l-66,58l116,36l-9,110l37,77l-30,60l25,113l-357,-207l-56,27l-50,121l-67,60l133,131l-165,171l-5,38l149,63Z" /><path id="2701803" d="M-373731,-95248l-72,219l595,345l506,111l4,38l-488,329l-133,-35l-1180,-292l46,-233l722,-482Z" /><path id="2701902" d="M-362915,-91741l-35,17l-265,-130l-61,-154l-113,-62l-125,56l-30,-38l52,-111l-67,-21l92,-183l61,-37l38,-291l124,-104l-22,-47l131,-180l125,4l17,-102l625,211l360,725l-677,265l-152,95l-78,87Z" /><path id="2702009" d="M-365361,-96631l-62,185l-15,169l-74,70l-194,565l-39,-17l-131,-86l-121,52l-48,-76l-184,-28l21,-78l-43,-150l109,-68l24,-100l-122,-15l123,-128l24,-201l12,-157l205,-228l41,-81l171,180l179,88l124,104Z" /><path id="2702108" d="M-357233,-89095l-131,-24l-120,-53l-125,91l-123,20l-98,86l39,89l-46,66l79,184l-55,26l-63,99l-75,34l-128,-127l-151,30l-36,-130l-87,-743l7,-396l777,-252l756,-202l1,56l34,144l-392,-56l34,398l354,311l-29,103l350,374l-59,144l-89,-6l-22,-68l-81,-69l-209,-42l-82,-58l-134,18l-96,-47Z" /><path id="2702207" d="M-357912,-96806l54,106l56,31l-5,93l113,186l-22,69l-108,98l-111,222l-102,-63l-109,-130l-86,-189l-138,-37l-77,9l-208,95l-21,53l-1,-146l32,-139l291,2l91,-24l132,19l107,-227l112,-28Z" /><path id="2702306" d="M-360315,-100508l-104,-3l-147,92l52,125l-57,85l6,91l-175,85l-83,236l-198,174l-40,108l-98,119l-80,59l-1571,-14l-69,-502l-33,-150l-68,-125l-76,-66l9,-120l-1477,-89l43,-112l-6,-87l139,-135l146,51l43,-135l166,-16l-4,-181l76,-30l139,8l162,-176l17,-131l-21,-146l22,-79l168,-75l66,-95l-14,-117l-156,-168l18,-99l-48,-78l-145,-99l1117,-338l157,119l225,263l122,103l246,177l95,169l72,89l191,144l59,23l91,-44l65,133l69,88l111,76l19,72l149,244l72,67l156,70l117,5l130,104l27,99l108,132Z" /><path id="2702355" d="M-366861,-96354l9,159l50,174l-78,41l-104,-11l7,183l-180,-77l-114,76l-164,54h-118l-11,98l-75,77l-104,5l-113,73l-214,-109l-140,15l-105,77l-113,-162l-64,-15l-121,-101l-131,-75l-51,-107l-79,-13l-164,-207l-1,-76l24,-37l269,-156l-11,-56l73,-116l214,-119l83,22l118,-88l99,-44l49,-60l-22,-62l250,-139l147,-166l201,222l286,311l140,130l249,112l9,167Z" /><path id="2702405" d="M-378941,-95395l56,94l-10,116l-56,21l16,111l-22,263l57,181l-41,115l49,64l-7,84l75,22l18,107l59,26l24,125l-1279,705l-1562,860l-10,-125l-84,-87l-78,-138l-60,-62l-121,-46l-114,-10l-175,-156l-170,-173l140,-171l87,-61l93,-106l53,-158l60,-63l1,-87l-87,-88l-21,-135l24,-31l213,-60l240,-146l24,-30l130,56l238,-45l47,61l167,-8l189,-41l75,-69l16,-84l111,-28l144,-94l71,28l139,-42l35,-66l78,-21l130,-206l-54,-157l140,-124l115,-41l215,-26l81,-47l311,-102l230,95Z" /><path id="2702504" d="M-369796,-93593l-238,67l-94,133l-56,154l-59,82l-232,8l-78,75l-23,-101l-162,-7l-149,-155l-7,-145l-133,-135l-40,-133l-55,-82l-74,-41l-192,-244l-65,-102l-36,-141l312,-17l1,-223l130,-6l649,428l11,10l158,472l286,-47l146,150Z" /><path id="2702553" d="M-368347,-95090l419,224l839,18l-7,68l-107,72l-9,85l46,163l-59,128l-14,429l66,27l49,89l-10,89l-70,68l0,145l71,210l8,135l128,210l-621,215l-350,-89l-11,-654l11,-107l-61,-116l-236,-229l-36,-63l26,-236l-18,-72l-156,-126l-3,-107l32,-146l-13,-205l122,-150l-36,-75Z" /><path id="2702603" d="M-365913,-98716l-105,239l-68,-25l-107,21l-72,51l11,54l-653,334l16,-28l-455,-605l127,-144l-251,45l-57,-52l108,-72l89,-5l22,-91l54,-51l281,-67l118,-194l121,-61l-26,-111l-74,-66l-36,-111l181,-56l147,-105l83,-37h55l132,70l-42,65l29,69l-97,54l39,83l208,1l16,459l85,27l-8,299l129,10Z" /><path id="2702702" d="M-362596,-102641l-1117,338l-220,-102l-54,-76l30,-134l90,-80l103,-229l-167,-174l624,-257l154,-111l139,20l-14,136l42,170l104,183l121,154l165,162Z" /><path id="2702801" d="M-357251,-91252l-152,-85l-383,-158l-59,-54l-343,-42l-44,84l-169,15l-32,-32l-104,96l-187,58l-162,-13l541,-974l-19,-288l319,-20l355,-425l-5,-786l-1,-20l790,186l41,4l-54,721l-14,382l-97,306l-221,1045Z" /><path id="2702900" d="M-369039,-96275l-309,17l-112,-68l24,-89l-60,-76l-30,-133l-121,-125l-45,-191l837,-519l-120,-275l-9,-168l-95,-48l36,-143l-263,-133l-45,-59l10,-135l-154,-166l243,-308l233,-84l563,-349l191,-130l90,-102l122,-44l71,22l38,29l42,291l49,30l39,109l103,32l175,194l9,70l57,52l-20,112l-118,61l-51,67l75,147l-28,272l-57,133l66,58l168,284l-311,344l-147,166l-250,139l22,62l-49,60l-99,44l-118,88l-83,-22l-214,119l-73,116l11,56l-269,156l-24,37Z" /><path id="2703007" d="M-358450,-88725l-41,7l-118,129h-146l-115,-42l-92,88l-48,-81l-104,11l-50,-63l-79,-170l-182,-10l-81,-67l-114,-31l-222,-98l-42,12l147,-152l28,-75l174,-199l-80,-138l47,-34l44,-246l-91,-80l70,-346l114,-51l51,33l122,8l78,-106l66,3l80,-107l27,-79l121,-70l43,9l53,125l76,-17l109,27l259,692l-7,396l87,743l-105,17l-79,-38Z" /><path id="2703106" d="M-365332,-95309l-369,448l-455,40l-235,-186l-485,163l-213,-4l-839,-18l-419,-224l-46,-11l72,-184l-50,-33l-5,-108l61,-93l105,-77l140,-15l214,109l113,-73l104,-5l75,-77l11,-98h118l164,-54l114,-76l180,77l-7,-183l104,11l78,-41l-50,-174l-9,-159l308,-76l156,70l106,-88l48,-98l150,9l-24,201l-123,128l122,15l-24,100l-109,68l43,150l-21,78l184,28l48,76l121,-52l131,86l77,55l76,156l136,103l77,16l47,20Z" /><path id="2703205" d="M-364914,-100711l-182,25l-10,127l-66,154l-1338,59l-101,-20l7,-110l-59,-38l-45,-148l-31,-285l-58,-136l-39,-176l-199,-62l-246,-100l-166,-29l145,-165l6,-320l76,-433l-18,-168l34,-113l188,-55l179,-4l138,30l122,-1l191,159l67,-2l-79,50l-201,5l179,148l101,119l69,46l112,157l219,73l683,159l123,279l69,227l23,313l44,15l63,220Z" /><path id="2703304" d="M-375882,-92868l-172,73l-34,64l32,118l-60,131l-65,14l2,91l99,62l-33,67l-106,318l-343,42l-263,98l-490,-48l-121,-129l-484,29l-24,-35l-287,-213l-103,-26l646,-676l436,-456l710,-744l75,84l1,69l126,192l122,106l45,67l85,227l144,176l66,151l1,57l-5,91Z" /><path id="2703403" d="M-371539,-96161l-63,129l-980,298l61,-89l79,-75l14,-114l67,-42l-165,-274l-332,-38l-46,23l-127,-17l147,-506l479,-494l102,57l69,77l44,124l53,167l227,31l371,743Z" /><path id="2703502" d="M-354090,-88380l-149,-5l-256,-35l-96,31l-116,228l-99,-38l-15,-63l-137,-21l-113,97l-107,18l-150,-103l-70,60l-85,-234l120,-442l200,68l136,-57l61,-66l-3,-160l-34,-59l45,-90l-7,-72l54,-100l147,-8l225,-69l211,122l109,171l435,-478l120,251l-27,59l-30,251l51,35l74,240l177,103l-89,139l-438,109l-54,-5l-90,123Z" /><path id="2703601" d="M-352413,-90647l-103,-85l-94,43l-260,347l-163,57l-328,-34l-9,-154l28,-70l-36,-88l15,-205l84,-224l19,-143l101,-79l149,-78l-112,-110l136,20l85,-25l-50,-80l98,58l-19,60l25,117l57,70l78,16l30,94l91,133l28,124l112,90l38,146Z" /><path id="2703700" d="M-369039,-96275l1,76l164,207l-1139,-306l-447,97l-14,-96l-123,-530l661,-387l98,66l-15,91l64,32l32,95l65,-10l45,191l121,125l30,133l60,76l-24,89l112,68l309,-17Z" /><path id="2703759" d="M-360410,-98584l-140,-162l-101,-11l-151,78l-118,26l-55,108l-86,27l-204,148l-18,85l-160,-268l-120,-43l-94,97l-8,95l-105,278l-70,119l-90,-4l-141,-55l62,-99l43,-128l-11,-79l-106,-65l-113,68l-202,-349l580,-79l35,-96l-1026,-454l-1,-4l1571,14l80,-59l98,-119l40,-108l198,-174l83,-236l175,-85l-6,-91l57,-85l-52,-125l147,-92l104,3l47,52l224,408l132,186l160,197l125,258l-74,131l-69,18l-13,107l-71,26l-139,-31l-149,79l-70,-126l-75,257l-123,362Z" /><path id="2703809" d="M-355801,-91578l-491,656l-575,-75l-184,168l-38,266l-48,34l157,119l111,46l56,67l-756,202l-777,252l-259,-692l-40,-142l-241,-706l162,13l187,-58l104,-96l32,32l169,-15l44,-84l343,42l59,54l383,158l152,85l131,113l144,49l80,67l144,18l85,-83l127,25l66,-146l85,29l99,-103l119,-69l370,-226Z" /><path id="2703908" d="M-354911,-89423l-153,-76l-101,7l-111,60l2,44l-119,142l-40,91l-105,98l-200,-90l-55,36l-38,-175l-11,-242l-33,-33l42,-182l99,-62l29,-55l-29,-83l87,-20l49,-84l-47,-55l240,-72l866,674l-225,69l-147,8Z" /><path id="2704005" d="M-364010,-97831l-135,56l-493,-60l-5,-86l-89,-108l-528,-3l-272,-359l256,-86l121,-119l119,31l70,-105l2,-131l-34,-113l21,-94l100,-153l8,-100l140,-99l-1,-176l-60,-64l101,-110l112,92l93,14l497,733l33,127l823,-125l-115,86l-101,214l-188,227l-93,70l-347,377l-35,64Z" /><path id="2704104" d="M-366907,-98042l-31,15l-261,436l-346,517l-201,-222l311,-344l-168,-284l-66,-58l57,-133l28,-272l-75,-147l51,-67l118,-61l20,-112l251,-45l-127,144l455,605l-16,28Z" /><path id="2704203" d="M-363427,-97385l-18,169l14,84l-122,51l-151,98l-31,130l14,78l-73,198l-89,60l-184,-58l-605,-173l-430,-175l-162,42l-97,250l-124,-104l-179,-88l-171,-180l-2,-142l80,-146l-21,-80l48,-124l90,-117l56,-28l50,-103l-93,-169l-15,-132l156,-45l-45,-126l-1,-176l272,359l528,3l89,108l5,86l493,60l135,-56l72,88l140,75l100,15l102,-40l61,111l-42,90l101,2l49,105Z" /><path id="2704302" d="M-355585,-94875l-43,79l-141,67l-132,38l-118,-50l-161,50l-80,113l-2,100l-157,34l-101,84l-119,53l-128,321l-139,276l-790,-186l-271,-1419l-177,-485l110,-76l8,-50l91,-75l111,-222l108,-98l22,-69l-113,-186l5,-93l-56,-31l-54,-106l86,-156l-72,-150l287,280l124,84l157,36l100,-44l147,105h111l-24,163l26,141l61,148l140,195l193,191l68,128l165,137l175,77l97,143l157,37l42,175l79,87l208,154Z" /><path id="2704401" d="M-368371,-95318l-221,-148l-105,25l-85,103l-380,115l-635,362l-34,110l-119,135l-79,57l-13,71l-126,103l-38,242l-191,-35l-649,-428l6,-306l-109,-68l66,-116l-116,-285l-331,-794l485,101l585,-127l447,-97l1139,306l79,13l51,107l131,75l121,101l64,15l113,162l-61,93l5,108Z" /><path id="2704500" d="M-352350,-88832l-178,-40l-101,58l-172,64l-76,-16l-631,159l89,-139l-177,-103l-74,-240l-51,-35l30,-251l27,-59l124,-202l-44,-176l221,-276l145,-52l185,-145l163,-57l260,-347l94,-43l103,85l22,153l145,243l79,169l145,147l206,153l50,91l99,342l117,142l23,68l-33,111l-152,122l-269,32l-110,-44l-259,86Z" /><path id="2704609" d="M-372292,-92269l-32,46l-24,178l-120,141l-3,114l-195,200l-119,65l-350,-446l-379,37l-849,97l-81,-89l-123,-50l-148,-146l-90,-45l4,-72l-96,-64l-164,-56l-112,-63l-65,-119l-79,-59l-106,8l-63,-79l-160,-64l-65,-91l-171,-42l603,-162l1287,-295l-153,430l790,223l1063,403Z" /><path id="2704708" d="M-357912,-96806l-112,28l-107,227l-132,-19l-91,24l-291,-2l-32,139l1,146l-5,9l-201,-225l-544,78l-359,-37l-84,-187l28,-71l-402,232l41,-141l-153,-169l18,-240l99,2l203,-49l160,27l-18,-352l-153,-285l39,-74l95,-73l241,-66l105,17l183,-29l9,-51l109,-10l118,-139l91,-23l503,236l153,172l87,136l90,97l86,170l239,196l72,150l-86,156Z" /><path id="2704807" d="M-361917,-96001l-268,369l-83,487l58,302l-202,-263l-144,-82l-371,-8l-136,-28l-37,43l-104,3l-89,76l-107,-10l-114,43l-312,29l-42,-56l5,-79l110,-107l-70,-126l25,-100l-21,-102l122,-196l165,-80l28,-37l62,-61l-20,-62l253,-55l44,-27l228,115l57,-75l332,-127l49,-18l99,298l286,-24l197,-42Z" /><path id="2704906" d="M-363894,-94254l-12,10l-702,-285l78,-64l-87,-173l-67,-89l174,-198l642,-43l42,56l312,-29l114,-43l-30,179l-107,116l-17,124l160,47l-500,392Z" /><path id="2705002" d="M-376991,-89359l-46,136l-157,142l-22,94l-95,107l-20,71l-83,47l-51,171l-37,7l-52,120l-105,-81l-77,15l-248,-231l-113,-10l-159,-115l52,-116l0,-85l-132,-177l74,-63l-129,-457l-69,-64l-71,-153l-141,-115l-124,-38l44,-92l-58,-157l-67,52l-126,-32l-62,-47l-6,-82l-227,-201l-79,-88l-50,-121l-89,-52l1182,-1238l103,26l287,213l24,35l484,-29l121,129l490,48l193,196l37,217l55,92l166,202l483,486l431,594l269,320l-62,49l-78,35l-129,-10l-99,-96l-165,-15l-234,32l-144,-191l-185,-126l-97,-33l-15,87l-179,24l-3,69l-241,-115l-49,96l-82,62l113,51l121,19l-175,189l-11,68l-81,39l-5,90Z" /><path id="2705101" d="M-355602,-90488l-1210,247l-1,-56l-56,-67l-111,-46l-157,-119l48,-34l38,-266l184,-168l575,75l491,-656l251,-335l792,7l-82,122l26,28l137,-18l90,-73l147,59l-12,100l-96,37l-123,-22l-152,216l-115,69l-161,61l-111,-24l-55,168l60,166l80,16l108,148l-585,365Z" /><path id="2705200" d="M-358774,-94167l1079,291l5,786l-355,425l-319,20l-19,-455l67,-29l15,-98l-431,-866l-42,-74Z" /><path id="2705309" d="M-367968,-92804l-392,-82l-108,109l-207,92l-55,-2l-68,-77l-100,-72l-81,24l-158,-149l-77,-135l-54,-176l59,-53l-14,-73l-143,-101l-2,-113l64,-88l-64,-74l354,-204l363,50l386,18l236,229l61,116l-11,107l11,654Z" /><path id="2705408" d="M-373031,-96360l127,17l46,-23l332,38l165,274l-67,42l-14,114l-79,75l-33,10l-495,452l-87,-170l-430,-846l55,-76l221,52l259,41Z" /><path id="2705507" d="M-358774,-94167l42,74l431,866l-15,98l-67,29l19,455l19,288l-541,974l-669,-758l-469,-517l-403,-152l-149,-63l5,-38l165,-171l-133,-131l67,-60l50,-121l56,-27l357,207l-25,-113l30,-60l-37,-77l9,-110l-116,-36l66,-58l121,-168l-204,-137l21,-37l856,265l-1,-11l515,-411Z" /><path id="2705606" d="M-355793,-89111l-64,194l91,264l-54,38l118,187l-123,-37l-116,-84l-13,-50l-111,-53l-73,8l-96,-112l-87,-57l-199,-10l59,-144l-350,-374l29,-103l-354,-311l-34,-398l392,56l-34,-144l1210,-247l-57,120l29,78l-15,188l47,55l-49,84l-87,20l29,83l-29,55l-99,62l-42,182l33,33l11,242l38,175Z" /><path id="2705705" d="M-371199,-95381l-675,-232l-407,420l-421,620l-506,-111l-595,-345l72,-219l595,-283l87,170l495,-452l33,-10l-61,89l980,-298l63,-129l9,-14l331,794Z" /><path id="2705804" d="M-377252,-93344l-436,456l-48,-147l-34,-207l-315,-52l-149,-118l-19,-88l-75,-23l-7,-106l-109,-92l-6,-53l-89,-180l-111,-88l-73,-24l-24,-125l-59,-26l-18,-107l-75,-22l7,-84l-49,-64l41,-115l-57,-181l22,-263l-16,-111l56,-21l10,-116l-56,-94l79,-107l224,-164l216,-128l-27,80l33,90l130,143l120,35l87,-36l192,189l7,67l-84,179l129,69l63,118l28,136l36,31l-11,143l55,41l6,77l458,549l-52,539Z" /><path id="2705903" d="M-367140,-100455l-736,235l-117,160l-92,-38l-117,75l-139,-105l-90,26l-180,-174l-78,-195l-59,-64l93,-48l438,-163l83,-172l70,-25l60,-76l108,-35l196,-187l39,123l150,179l155,98l87,185l125,118l4,83Z" /><path id="2706000" d="M-371046,-94606l-130,6l-1,223l-312,17l-492,37l-96,-23l-10,-53l-210,-64l-254,-3l-121,-29l-26,-40l-4,-38l421,-620l407,-420l675,232l116,285l-66,116l109,68l-6,306Z" /><path id="2706109" d="M-372785,-91525l-38,37l-143,279l-71,39l-74,95l4,71l-68,80l-102,-8l-67,113l-242,280l-328,269l-42,-11l8,-140l-39,-5l-211,-332l-1,-136l-73,-140l8,-174l29,-120l47,-22l-64,-203l33,-54l-115,-148l-29,-82l849,-97l379,-37l350,446Z" /><path id="2706208" d="M-373031,-96360l-147,-243l-195,-118l-122,-167l316,-158l722,-297l52,-17l-479,494l-147,506Z" /><path id="2706307" d="M-366249,-93318l-97,49l-101,125l-99,17l-43,-34l-115,29l-170,124l-18,44l-105,34l-128,-210l-8,-135l-71,-210l0,-145l70,-68l10,-89l-49,-89l-66,-27l14,-429l59,-128l-46,-163l9,-85l107,-72l7,-68l213,4l485,-163l235,186l455,-40l369,-448l68,25l7,144l126,105l122,44l125,-31l145,148l55,19l67,89l87,173l-78,64l-259,468l-191,180l-450,443l6,-103l-94,-23l-190,-8l-99,17l-47,-53l-317,290Z" /><path id="2706406" d="M-373566,-96377l-32,39l-1088,-161l-38,130l-102,128l-83,64l-62,92l-232,156l-159,147l-15,91l-227,169l-91,45l62,92l-4,210l-67,73l-94,-36l-103,33l-134,96l-136,43l-257,-237l-162,5l-132,-158l79,-206l142,-199l131,-256l-60,-197l-164,-359l34,-99l-36,-110l55,-81l168,-68l38,-70l119,-79l245,-133l153,-128l94,-45l448,-37l122,-36l423,-5l71,-16l304,-78l107,-58l169,-25l144,-151l120,-13l186,-68l164,-39l207,-257l71,-51l223,-86l-19,132l-118,137l128,209l212,108l15,60l156,87l77,79l20,123l89,11l-52,17l-722,297l-316,158l122,167l195,118l147,243l-259,-41l-221,-52l-55,76Z" /><path id="2706422" d="M-380121,-91560l-137,5l-37,-90l-150,-43l-125,12l-91,-66l-165,36l-97,-21l-218,-213l-13,-44l-198,-156l-87,-42l-47,-126l-77,-116l-1,-77l1562,-860l169,60l24,159l49,142l-65,159l56,174l68,39l75,93l-38,81l-169,63l-52,70l170,161l-16,204l-140,79l32,63l-94,87l-88,20l-4,79l-96,68Z" /><path id="2706448" d="M-355246,-94426l-71,69l-50,112l-48,29l-39,135l-41,43l-102,-17l-163,39l-176,-55l-179,18l-95,-46l-75,51l-113,27l-176,-18l-91,50l-102,3l128,-321l119,-53l101,-84l157,-34l2,-100l80,-113l161,-50l118,50l132,-38l141,-67l43,-79l42,125l201,185l96,139Z" /><path id="2706505" d="M-356171,-91352l217,-382l-6,-109l55,-56l-17,-135l-51,-46l-12,-142l69,-155l99,-96l25,-85l655,-519l-7,-66l419,-437l128,139l188,53l16,80l314,234l123,61l21,77l67,73l-89,142l-252,201l-18,43l-198,133l-186,67l-82,97l-23,127l-47,69l5,78l-792,-7l-251,335l-370,226Z" /><path id="2706604" d="M-363894,-94254l152,509l63,-67l21,204l259,741l-508,-62l59,-187l-186,-253l-1,-58l-128,-127l-692,-509l-12,2l259,-468l702,285l12,-10Z" /><path id="2706703" d="M-363713,-102303l145,99l48,78l-18,99l156,168l14,117l-66,95l-168,75l-22,79l21,146l-17,131l-162,176l-139,-8l-76,30l4,181l-166,16l-43,135l-146,-51l-139,135l6,87l-43,112l-26,80l-364,-388l-63,-220l-44,-15l-23,-313l-69,-227l-123,-279l-683,-159l-219,-73l-112,-157l-69,-46l-101,-119l-179,-148l201,-5l79,-50l104,-42l109,-139l101,-198l132,-112l155,-148l79,-269l-6,-153l69,-118l9,-70l-53,-386l84,-83l185,-63l332,-8l125,66l25,13l-193,276l23,48l110,20l30,100l-116,-25l-69,25l7,104l161,38l8,151l305,165l127,-23l69,46l237,18l86,155l77,53l76,-17l167,174l-103,229l-90,80l-30,134l54,76l220,102Z" /><path id="2706802" d="M-363931,-103098l-76,17l-77,-53l-86,-155l-237,-18l-69,-46l-127,23l-305,-165l-8,-151l-161,-38l-7,-104l69,-25l116,25l-30,-100l-110,-20l-23,-48l193,-276l238,147l116,-52l208,-163l87,-129l184,-441l77,-99l82,-17l148,265l139,220l189,361l209,334l133,158l61,19l58,101l-74,82l-139,-20l-154,111l-624,257Z" /><path id="2706901" d="M-358872,-95888l-482,387l-30,8l-115,160l-98,53l-410,-465l-50,-112l-115,93l-238,-75l-314,-148l-46,18l-165,-42l-86,37l-180,12l-75,-28l-108,-141l-114,11l-73,-65l-238,63l40,-91l256,-72l105,-129l-1,-40l256,-40l77,59l85,-84l94,-40l147,-176l195,-187l169,-7l49,-85l-18,240l153,169l-41,141l402,-232l-28,71l84,187l359,37l544,-78l201,225l-141,243l-50,123Z" /><path id="2707008" d="M-362111,-94530l-420,93l-489,176l-96,-22l-124,-75l-58,-82l-209,-47l113,-159l-160,-47l17,-124l107,-116l30,-179l107,10l89,-76l104,-3l37,-43l136,28l371,8l144,82l202,263l129,289l-30,24Z" /><path id="2707107" d="M-376722,-95356l-39,114l62,188l-35,58l138,140l-64,92l-30,139l56,227l90,308l2,2l-710,744l52,-539l-458,-549l-6,-77l-55,-41l11,-143l-36,-31l-28,-136l-63,-118l-129,-69l84,-179l-7,-67l-192,-189l-87,36l-120,-35l-130,-143l-33,-90l27,-80l104,-155l136,20l84,-141l167,-136l66,-181l133,37l262,101l221,-51l148,-1l318,-187l79,-72l45,-99l63,-123l36,110l-34,99l164,359l60,197l-131,256l-142,199l-79,206Z" /><path id="2707206" d="M-371983,-92155l-139,-56l-182,-165l12,107l-1063,-403l-790,-223l153,-430l-1287,295l-603,162l5,-91l98,-11l175,-81l415,-51l112,-133l62,-33l173,-182l269,-103l127,-23l323,-47l154,28l103,71l134,-49l253,30l107,39l68,-20l168,13l301,88l678,306l128,201l94,63l129,125l115,71l8,139l84,136l-384,227Z" /><path id="2707305" d="M-353664,-89434l-120,-251l-435,478l-109,-171l-211,-122l-866,-674l-240,72l15,-188l-29,-78l57,-120l585,-365l69,76l129,49l159,-33l106,77l160,12l120,-30l66,-72l488,-114l59,28l176,-264l-81,-24l193,-159l36,-77l125,-88l90,2l112,110l-149,78l-101,79l-19,143l-84,224l-15,205l36,88l-28,70l9,154l328,34l-185,145l-145,52l-221,276l44,176l-124,202Z" /><path id="2707404" d="M-353122,-91470l-90,-2l-125,88l-36,77l-193,159l81,24l-176,264l-59,-28l-488,114l-66,72l-120,30l-160,-12l-106,-77l-159,33l-129,-49l-69,-76l-108,-148l-80,-16l-60,-166l55,-168l111,24l161,-61l115,-69l152,-216l123,22l96,-37l12,-100l-147,-59l-90,73l-137,18l-26,-28l82,-122l481,-33l497,-158l187,-195l202,-15l94,93l100,224l120,49l129,228l-3,158l50,80l-85,25l-136,-20Z" /><path id="2707503" d="M-366459,-99853l-83,37l-147,105l-181,56l-199,-351l18,-190l-89,-259l-4,-83l-125,-118l-87,-185l-155,-98l-150,-179l-39,-123l-76,-24l-95,-79l-153,-88l-103,-29l-181,-168l-108,-64l-88,-91l55,-104l107,-84l79,-140l118,-40l131,21l99,-141l220,-7l112,30l94,-33l137,-137l148,-230l-34,113l18,168l-76,433l-6,320l-145,165l166,29l246,100l199,62l39,176l58,136l31,285l45,148l59,38l-7,110l101,20l29,25l12,153l46,86l-85,48l76,94l-27,87Z" /><path id="2707602" d="M-364029,-92234l-40,27l-84,-90l-91,37l11,92l-85,47l-235,-154l-72,-118l-136,-45l-111,36l-55,-140l-77,-86l8,-24l-536,-174l-186,-100l-26,-169l76,-122l2,-97l-180,-42l-69,9l-151,-60l-127,141l-56,-52l317,-290l47,53l99,-17l190,8l94,23l-6,103l450,-443l191,-180l12,-2l692,509l128,127l1,58l186,253l-59,187l508,62l133,21l22,47l-124,104l-38,291l-61,37l-92,183l-98,-42l-102,59l-158,-84l-112,17Z" /><path id="2707701" d="M-359289,-93756l-20,-861l-28,-11l9,-168l-44,-129l-225,-355l98,-53l115,-160l30,-8l482,-387l409,404l190,-20l306,189l271,1419l1,20l-1079,-291l-515,411Z" /><path id="2707800" d="M-359047,-98559l-115,163l-65,17l-188,-75l-128,22l-81,96l-151,77h-64l-58,67l-252,110l-120,-30l-90,-4l-37,-59l21,-98l-67,-217l32,-94l123,-362l75,-257l70,126l149,-79l139,31l71,-26l13,-107l69,-18l74,-131l82,100l166,283l66,72l248,216l18,177Z" /><path id="2707909" d="M-358144,-95800l-111,16l-178,-261l-122,-67l-6,-44l-115,-107l21,-53l208,-95l77,-9l138,37l86,189l109,130l102,63l-91,75l-8,50l-110,76Z" /><path id="2708006" d="M-370576,-93175l-43,201l47,156l-101,146l-234,208l-175,77l-83,-22l-134,-192l-125,-80l-219,-76l-48,100l-115,-71l-129,-125l-94,-63l-128,-201l-678,-306l-301,-88l-168,-13l-68,20l-107,-39l-253,-30l-134,49l-103,-71l-154,-28l-323,47l1127,-665l133,35l488,-329l26,40l121,29l254,3l210,64l10,53l96,23l492,-37l36,141l65,102l192,244l74,41l55,82l40,133l133,135l7,145l149,155l162,7Z" /><path id="2708105" d="M-361212,-90279l-61,-58l-111,-21l-133,-69l-124,22l-93,-35l-61,30l-94,-53l-68,15l-77,-168l6,-52l-75,-63l-116,-2l-6,-131l-140,-171l-45,41l-147,-32l-111,2l-2,-87l63,-74l-28,-75l62,-141l-74,-258l-95,-3l-173,-79l78,-87l152,-95l677,-265l172,181l188,79l185,105l355,252l-139,295l-84,36l161,690l-52,-40l-215,-31l225,342Z" /><path id="2708204" d="M-367700,-101241l-196,187l-108,35l-60,76l-70,25l-83,172l-438,163l-93,48l59,64l-734,-301l-51,25l17,-127l147,-107l57,-177l73,-89l66,-141l170,-7l37,-68l81,-12l112,10l51,-96l106,-88l53,-135l88,91l108,64l181,168l103,29l153,88l95,79l76,24Z" /><path id="2708303" d="M-359545,-90310l-70,346l91,80l-44,246l-47,34l80,138l-174,199l-28,75l-147,152l-170,-90l-95,6l-115,44l-69,-4l-306,-69l-95,-103l-89,-153l-186,-84l-216,-34l-57,-50l-3,-194l39,-63l124,-44l79,-111l-95,-103l23,-85l-97,-102l-225,-342l215,31l52,40l172,-27l86,-38l17,-56l160,7l23,57l201,21l41,-65l154,87l47,138l92,-40l175,67l457,89Z" /><path id="2708402" d="M-373731,-95248l-722,482l-552,173l-1539,503l-90,-308l-56,-227l30,-139l64,-92l-138,-140l35,-58l-62,-188l39,-114l132,158l162,-5l257,237l136,-43l134,-96l103,-33l94,36l67,-73l4,-210l-62,-92l91,-45l227,-169l15,-91l159,-147l232,-156l62,-92l83,-64l102,-128l38,-130l1088,161l32,-39l430,846l-595,283Z" /><path id="2708501" d="M-356171,-91352l-119,69l-99,103l-85,-29l-66,146l-127,-25l-85,83l-144,-18l-80,-67l-144,-49l-131,-113l221,-1045l97,-306l14,-382l54,-721l1056,113l148,28l62,-14l238,110l112,-73l71,-8l36,139l-60,174l58,94l7,66l-655,519l-25,85l-99,96l-69,155l12,142l51,46l17,135l-55,56l6,109l-217,382Z" /><path id="2708600" d="M-360337,-97014l-49,85l-169,7l-195,187l-44,-68l108,-88l-48,-117l-1062,-215l-675,-98l55,-74l327,-319l241,-247l8,-46l70,-119l105,-278l8,-95l94,-97l120,43l160,268l18,-85l204,-148l86,-27l55,-108l118,-26l151,-78l101,11l140,162l-32,94l67,217l-21,98l37,59l90,4l-13,22l236,419l153,285l18,352l-160,-27l-203,49l-99,-2Z" /><path id="2708709" d="M-353391,-92307l-202,15l-187,195l-497,158l-481,33l-5,-78l47,-69l23,-127l82,-97l186,-67l198,-133l18,-43l252,-201l89,-142l102,66l225,245l150,245Z" /><path id="2708808" d="M-364790,-99600l60,64l1,176l-140,99l-8,100l-100,153l-21,94l34,113l-2,131l-70,105l-119,-31l-121,119l-256,86l-6,-173l112,-155l11,-99l-175,69l-97,-2l-160,-62l-65,28l-1,69l-129,-10l8,-299l-85,-27l-16,-459l-208,-1l-39,-83l97,-54l-29,-69l42,-65l-132,-70h-55l27,-87l-76,-94l85,-48l-46,-86l-12,-153l-29,-25l1338,-59l66,-154l10,-127l182,-25l364,388l-160,14l-125,39l-43,110l73,134l61,30l23,248l-69,148Z" /><path id="2708907" d="M-358144,-95800l177,485l-306,-189l-190,20l-409,-404l50,-123l141,-243l5,-9l115,107l6,44l122,67l178,261l111,-16Z" /><path id="2708956" d="M-374446,-93576l-127,23l-269,103l-173,182l-62,33l-112,133l-415,51l-175,81l-98,11l-1,-57l-66,-151l-144,-176l-85,-227l-45,-67l-122,-106l-126,-192l-1,-69l-75,-84l-2,-2l1539,-503l552,-173l-46,233l1180,292l-1127,665Z" /><path id="2709004" d="M-363504,-95923l-28,37l-165,80l-122,196l21,102l-25,100l70,126l-110,107l-5,79l-642,43l-174,198l-55,-19l-145,-148l416,-1037l133,-103l162,51l181,-114l-55,-44l-32,-92l137,-123l134,130l-78,66l-35,259l417,106Z" /><path id="2709103" d="M-365379,-95329l-77,-16l-136,-103l-76,-156l-77,-55l39,17l194,-565l74,-70l15,-169l62,-185l97,-250l162,-42l430,175l605,173l184,58l-59,33l-137,123l32,92l55,44l-181,114l-162,-51l-133,103l-50,-85l-136,-39l-23,112h-130l-145,32l-427,710Z" /><path id="2709152" d="M-364524,-100403l1477,89l-9,120l76,66l68,125l33,150l69,502l1,4l36,350l-6,74l-352,54l-823,125l-33,-127l-497,-733l-93,-14l-112,-92l-101,110l69,-148l-23,-248l-61,-30l-73,-134l43,-110l125,-39l160,-14l26,-80Z" /><path id="2709202" d="M-369692,-96940l-65,10l-32,-95l-64,-32l15,-91l-98,-66l-62,-75l26,-272l-118,-131l-57,-5l-74,-164l-98,-28l-83,-184l-628,-395l-49,-77l8,-107l-112,-81l2,-156l-75,-34l-11,-106l-71,-109l218,-140l57,-116l204,-123l31,-62l149,-156l29,-71l141,-15l178,-55l287,95l87,57l110,-108l114,-12l79,-50l37,-70l82,-264l7,-66l-38,-243l82,-159l10,-51l51,-25l734,301l78,195l180,174l47,83l110,40l179,162l14,65l99,171l-71,-22l-122,44l-90,102l-191,130l-563,349l-233,84l-243,308l154,166l-10,135l45,59l263,133l-36,143l95,48l9,168l120,275l-837,519Z" /><path id="2709301" d="M-358605,-90535l-109,-27l-76,17l-53,-125l-43,-9l-121,70l-27,79l-80,107l-66,-3l-78,106l-122,-8l-51,-33l-114,51l-457,-89l-175,-67l-92,40l-47,-138l-154,-87l-41,65l-201,-21l-23,-57l-160,-7l-17,56l-86,38l-172,27l-161,-690l84,-36l139,-295l-355,-252l-185,-105l-188,-79l-172,-181l185,68l123,17l46,-22l144,57l253,50l150,-63l234,66l71,-48l147,-4l65,-93l275,129l324,137l565,253l540,258l241,706l40,142Z" /><path id="2709400" d="M-361544,-93053l-464,865l-360,-725l-625,-211l-17,102l-125,-4l-131,180l-133,-21l-259,-741l-21,-204l-63,67l-152,-509l500,-392l-113,159l209,47l58,82l124,75l96,22l489,-176l420,-93l47,73l201,555l319,849Z" /></g></svg>