<?xml version="1.0"?><svg xmlns="http://www.w3.org/2000/svg" version="1.2" baseProfile="tiny" width="1080" height="1080" viewBox="-38.245 9.515 1.8491 2.0534999999999997" stroke-linecap="round" stroke-linejoin="round"><g id="UF28MU" transform="scale(0.0001,-0.0001)"><path id="2800100" d="M-369180,-101247l-51,-20l-116,60l-52,-346l-35,-722l381,513l227,287l-81,12l-37,68l-170,7l-66,141Z" /><path id="2800209" d="M-369434,-102275l-178,-82l-104,312l-119,89l-113,180l-221,-134l-405,99l-930,180l-1,-1l-42,-212l85,-70l88,-23l9,-66l-67,-50l-52,-117l-26,-188l103,-105l-26,-104l38,-26l8,-196l-121,-100l34,-128l-77,-46l49,-150l-51,-64l-89,-34l1,-87l94,-51l16,-223l61,8l120,82l100,-168l89,65l46,-34l99,40l49,112l68,-9l49,115l74,72l150,98l105,-132l139,157l201,-55l88,298l532,123l224,139l-187,96l234,437l-144,-47Z" /><path id="2800308" d="M-370398,-108841l59,140l-34,36l-152,38l-67,-37l-69,-99l-57,99l-115,33l-140,-193l-63,-34l17,-88l-56,-102l54,-123l107,-239l-477,-1219l-100,71l-120,-26l-126,-219l116,-135l-43,-116l21,-115l-12,-264l10,-70l100,-113l105,277l183,308l464,678l212,291l227,264l19,85l-11,140l-45,120l-7,195l-42,158l5,202l37,57Z" /><path id="2800407" d="M-376649,-113327l-109,-36l37,-92l62,-3l97,54l-87,77M-376536,-113331l70,82l-53,43l-75,-31l-37,-81l95,-13M-376831,-113163l78,-69l48,145l-58,82l-68,-158M-375233,-112993l-7,72l79,27l76,141l-67,107l-107,104l25,68l-63,110l51,50l-119,85l42,248l-26,89l-192,56l79,177l-503,-376l-5,-101l-111,-31l-104,12l-157,-44l-79,32l-82,-31l-107,8l-102,-167l14,-36l75,-137l-11,-370l601,-530l59,22l26,114l63,52l61,-18l104,30l231,189l197,-10l59,58Z" /><path id="2800506" d="M-372445,-107784l-280,256l19,63l-83,51l-42,97l50,61l-33,54l-101,-21l-67,-91l-108,-33l-228,88l-45,41l-254,-167l-344,-713l-61,-152l-10,-8l-32,-90l16,-82l171,-81l172,-11l69,51l132,-26l110,24l23,77l80,62l107,-11l3,23l4,6l445,329l287,203Z" /><path id="2800605" d="M-368527,-107442l-201,30l-94,-32l-49,-118l-123,-164l-109,-47l-176,-126l-96,18l-9,-72l-89,-26l-119,-94l-1,-98l-48,-16l-43,-142l-129,-27l-3,-109l-105,-57l-14,-46l-157,-81l-188,-203l-118,11l-37,-57l-5,-202l42,-158l7,-195l45,-120l85,59l215,347l515,652l142,148l83,59l100,146l531,581l148,139Z" /><path id="2800670" d="M-375462,-111659l-70,71l102,71l18,98l-119,18l150,475l94,387l-23,577l-375,-293l-9,-110l42,-36l-572,-274l64,-11l-8,-119l-69,-76l-93,66l-165,-274l34,-76l-6,-97l-258,-224l-343,-257l61,-75l-38,-100l130,206l52,-37l74,-151l85,70l256,-106l64,-51l419,-48l503,376Z" /><path id="2800704" d="M-364862,-105364l494,193l280,44l129,158l-77,99l-184,441l-87,129l-208,163l-116,52l-238,-147l-25,-13l53,-127l-252,-76l-54,-36l-138,-180l-546,-328l-23,-5l860,-133l148,-156l-16,-78Z" /><path id="2801009" d="M-375008,-106885l-318,-2l-45,-64l-144,-22l-91,58l-155,28l-99,77l-90,-147l63,-74l34,-113l-27,-78l280,-351l-63,-91l84,-152l141,13l159,-101l83,-26l26,-104l-75,-156l109,-61l82,-4l87,-69l174,-83l-37,-132l129,23l75,-77l56,-114l12,-110l526,559l10,8l-292,-63l-177,416l25,71l-52,151l32,196l-82,264l-62,89l-99,19l-69,101l-160,58l-50,63Z" /><path id="2801108" d="M-369180,-101247l-73,89l-57,177l-147,107l-17,127l-10,51l-425,-155l-173,-190l-234,-199l-55,-116l-80,23l1,81l-105,-14l-110,-98l-238,-84l-601,-183l930,-180l405,-99l221,134l113,-180l119,-89l104,-312l178,82l35,722l52,346l116,-60l51,20Z" /><path id="2801207" d="M-378941,-95395l-230,-95l-311,102l-81,47l-215,26l-115,41l-140,124l-109,-128l-8,-77l-76,-50l40,-102l-21,-114l-102,-120l-64,49l-47,-58l48,-60l-133,-75l-105,9l7,-78l76,-95l-31,-89l46,-79l-14,-111l131,52l42,-53l157,-43l103,-127l-112,-101l-74,40l-43,-47l-21,-260l-72,-5l-35,-106l21,-75l-4,-181l65,-163l-19,-97l72,-121l-11,-86l125,-75l-15,-104l36,-145l173,-133l24,-99l-48,-126l77,-78l-70,-111l-76,32l29,-148l119,-96l31,-159l-52,-111l-62,7l67,-140l82,-16l136,-166l196,-61l108,2l138,76l17,43l168,124l102,-4l61,69l64,-23l125,58l116,123l-50,64l0,248l39,204l-26,37l65,167l42,223l39,80l15,162l91,25l31,163l-31,97l92,279l0,112l37,68l1652,374l-45,99l-79,72l-318,187l-148,1l-221,51l-262,-101l-133,-37l-66,181l-167,136l-84,141l-136,-20l-104,155l-216,128l-224,164l-79,107Z" /><path id="2801306" d="M-370181,-103321l-201,55l-139,-157l-105,132l-150,-98l-74,-72l-49,-115l-68,9l-49,-112l-99,-40l-46,34l-89,-65l-18,-100l84,-27l-11,-113l91,-52l-71,-51l57,-28l-14,-212l-49,-75l-175,-112l-31,-181l162,-57l76,-59l18,-118l86,-94l30,-85l-9,-192l220,32l154,-31l-11,-104l-71,-168l4,-91l43,-62l-85,-112l117,-86l10,-110l-75,-113l178,-64l178,-41l249,-157l358,997l-23,114l214,65l214,742l-141,71l-122,1l-62,181l-62,50l-43,112l-46,34l-11,165l43,98l-159,199l-60,304l-168,-41Z" /><path id="2801405" d="M-375966,-102505l-99,110l-37,-60l-187,42l-202,153l-49,80l-229,119l-141,18l-98,36l-23,87l-181,42l-112,-66l-128,-34l-204,16l185,-419l-186,-138l65,-16l103,-108l-12,-245l-51,-38l-135,34l236,-244l18,-248l-136,-47l-103,15l-193,-65l-12,-80l-113,-73l-320,-114l-84,-65l-37,-218l-101,-34l-8,-193l-53,-27l116,-150l224,-360l41,-39l85,-257l-26,-82l165,72l176,-4l80,38l106,-15l143,-52l181,-29l76,62l415,292l564,687l492,417l-42,276l19,138l-37,45l-299,471l148,270Z" /><path id="2801504" d="M-369235,-106769l-55,63l-36,162l-159,39l-77,-17l-76,56l-51,156l-230,-6l-194,-97l12,-203l-12,-142l367,-94l580,-4l-36,-154l82,-2l122,86l-28,75l-129,87l-80,-5Z" /><path id="2801603" d="M-369027,-103242l111,131l54,103l119,37l41,70l184,157l74,125l-41,216l-192,121l-341,24l-272,30l-234,-437l187,-96l-22,-306l332,-175Z" /><path id="2801702" d="M-376527,-114826l-65,-21l-110,56l-63,73l53,149l-46,103l-153,143l-12,79l-97,32l-37,76l-148,60l-20,85l-76,-25l-61,-66l-111,-33l-38,59l-103,1l-99,-105l-164,39l-46,-112l-83,-43l-63,-145l-11,-125l-75,-133l-116,-75l-60,-69l87,-88l156,-49l-75,-101l14,-77l149,-76l103,-35l157,-4l36,-67l112,67l98,-133l83,22l107,-16l16,-140l101,22l53,-34l110,129l64,-50l-27,-180l165,9l88,-61l17,112l102,110l-10,101l102,91l200,90l-52,166l-76,25l-14,124l-62,40Z" /><path id="2801900" d="M-371641,-103398l-75,-4l7,173l-35,122l-102,23l-167,115l-85,9l-66,-46l-65,23l-129,187l0,53l-75,130l-81,61l-99,168l-64,-10l-190,-165l293,-131l13,-112l146,-72l19,-106l22,-107l-117,-99l9,-65l86,-174l-21,-81l20,-90l72,-40l42,-143l167,-135l34,-108l197,-46l61,-89l132,-11l83,64l139,-74l131,77l164,8l71,51l-91,52l11,113l-84,27l18,100l-100,168l-120,-82l-61,-8l-16,223l-94,51Z" /><path id="2802007" d="M-372073,-106076l49,-82l-17,-84l95,-12l78,-91l75,-185l-102,-44l-32,-88l23,-57l-86,-53l32,-141l-101,-129l42,-73l-16,-89l115,-79l127,108l125,-99l56,-73l-28,-113l24,-54l34,95l69,34l-30,122l73,64l42,194l210,-22l61,178l248,298l-21,138l-197,-59l-130,-7l-86,-33l-72,55l-47,93l26,112l-71,44l-274,-47l-294,179Z" /><path id="2802106" d="M-372602,-112896l-149,104l-366,285l-41,57l-124,71l-21,97l23,83l-41,81l-176,149l98,284l34,190l52,119l-81,78l38,136l-55,129l-101,127l-88,38l-77,142l-102,25l-65,139l-44,32l-494,-340l-5,-84l82,-115l-68,-199l-217,-195l-872,-196l-79,-177l192,-56l26,-89l-42,-248l119,-85l-51,-50l63,-110l-25,-68l107,-104l67,-107l-76,-141l-79,-27l7,-72l126,-8l44,-35l173,13l115,-53l163,-35l131,167l74,-11l62,-81l208,32l76,-15l52,-103l207,-143l11,-173l-96,-112l-7,-170l-148,-155l-49,-168l4,-196l91,-127l151,-93l168,-127l124,149l142,14l163,63l126,130l27,286l98,307l230,471l165,270Z" /><path id="2802205" d="M-372396,-102980l-19,106l-146,72l-13,112l-293,131l190,165l64,10l-710,276l-514,-75l-134,-386l52,-72l21,-122l-57,-121l107,-100l19,-172l100,-125h102l40,-174l45,15l43,-124l-54,-132l62,-19l1,-129l78,2l137,110l51,117l58,37l148,238l-4,74l68,68l76,11l138,122l155,12l189,73Z" /><path id="2802304" d="M-375305,-106458l210,196l350,597l-278,386l-87,219l-365,442l-108,177l-172,736l-492,-417l-564,-687l-415,-292l340,-218l136,-220l338,-507l9,-1l817,-148l281,-263Z" /><path id="2802403" d="M-371338,-99138l-287,200l-151,-52l-184,30l-180,-38l-123,21l-50,-150l-28,-458l-236,-2l-31,-57l-99,23l-16,-74l75,-230l-162,49l-61,-62l14,-153l-101,-65l-48,121l-50,38l-87,-11l-20,-80l-113,-5l-68,93l25,71l-99,28l-52,-103l-24,-123l-46,-29l-163,85l-35,-154l-109,-79l23,-76l-186,-135l-84,1l-107,-108l93,-27l565,-460l226,-177l-146,-278l322,26l168,-10l155,-37l-16,-110l51,-14l68,67l243,166l111,-119l63,45l92,-4l-28,85l31,112l-35,174l-60,32l10,148l124,-32l113,110l-63,87l45,48l86,-16l46,66l-41,59l134,131l-82,31l55,129l86,-15l77,-90l115,-33l76,19l206,-32l31,-32l163,56l90,7l407,-105l322,46l229,192l534,149l-82,264l-37,70l-79,50l-114,12l-110,108l-87,-57l-287,-95l-178,55l-141,15l-29,71l-149,156l-31,62l-204,123l-57,116l-218,140Z" /><path id="2802502" d="M-369166,-106856l-580,4l-367,94l-51,-90l107,-117l169,-72l81,29l116,-48l78,16l114,-87l149,172l184,99Z" /><path id="2802601" d="M-371505,-101632l-146,-85l-164,-24l-52,89l-161,63l-33,133l-142,99l-31,-112l28,-85l-92,4l-63,-45l-111,119l-243,-166l-68,-67l-51,14l16,110l-155,37l-168,10l-182,-570l710,-276l99,-168l81,-61l75,-130l0,-53l129,-187l65,-23l66,46l85,-9l167,-115l102,-23l35,-122l-7,-173l75,4l-1,87l89,34l51,64l-49,150l77,46l-34,128l121,100l-8,196l-38,26l26,104l-103,105l26,188l52,117l67,50l-9,66l-88,23l-85,70l42,212Z" /><path id="2802700" d="M-364894,-104245l-125,-66l-332,8l-185,63l-84,83l-40,-166l-162,-54l-34,-123l-98,10l11,-112l-57,-176l81,-43l-73,-85l-9,-62l147,-29l23,5l546,328l138,180l54,36l252,76l-53,127Z" /><path id="2802809" d="M-374087,-114239l-74,-57l-77,1l-104,54l-86,-32l-34,-140l-132,-21l-32,-48l-156,-16l-67,58l-104,22l-54,98l-65,180l-180,-80l-120,70l-124,-10l-151,44l-377,227l-503,-937l62,-40l14,-124l76,-25l52,-166l-6,-44l79,-101l87,-59l131,-14l161,114l70,-63l-59,-64l74,-110l35,94l69,31l135,-83l189,-17l68,25l89,-21l37,130l116,114l295,25l171,-13l257,125l389,296l259,230l-168,127l-151,93l-91,127Z" /><path id="2802908" d="M-373945,-105823l-281,60l-371,-180l-148,278l-350,-597l-210,-196l124,-108l-7,-89l109,-63l71,-167l50,-63l160,-58l69,-101l99,-19l62,-89l82,-264l-32,-196l52,-151l-25,-71l177,-416l292,63l61,152l344,713l254,167l53,35l105,261l-84,385l-86,5l-84,-42l-89,5l-50,97l-65,48l-33,128l-111,-14l-77,22l6,147l-21,124l27,35l-73,159Z" /><path id="2803005" d="M-377068,-111743l-53,78l-108,49l-60,-15l-91,136l-74,-35l-52,49l-152,63l-109,99l-167,-11l-121,-71l-410,-207l-299,-258l106,-229l-34,-100l-176,65l-180,-90l-173,-195l-18,-76l-123,-207l45,-97l173,-99l65,95l83,46l208,-128l67,42l59,-119l51,-42l89,27l53,-68l178,-161l98,11l40,-120l124,-68l112,-93l7,-134l50,-92l108,-96l63,-10l5,-101l78,-49l-8,-101l103,-1l38,-59l111,33l61,66l379,358l1,577l287,181l11,370l-75,137l-76,46l-87,245l-184,184l38,100l-61,75Z" /><path id="2803104" d="M-370620,-100615l-407,105l-90,-7l-163,-56l-31,32l-206,32l-76,-19l-115,33l-77,90l-86,15l-55,-129l82,-31l-134,-131l41,-59l-46,-66l-86,16l-45,-48l63,-87l-113,-110l-124,32l-10,-148l60,-32l35,-174l142,-99l33,-133l161,-63l52,-89l164,24l146,85l1,1l601,183l238,84l-15,441l60,308Z" /><path id="2803203" d="M-373184,-108345l-107,11l-80,-62l-23,-77l-110,-24l-132,26l-69,-51l-172,11l-171,81l-16,82l32,90l-526,-559l-82,-108l-89,-4l-173,-106l-134,24l480,-764l162,-31l56,-66l80,-21l-1,-116l136,-97l79,-243l156,-181l44,-32l65,-139l102,-25l77,-142l88,-38l101,-127l55,-129l-38,-136l81,-78l-52,-119l-34,-190l-98,-284l176,-149l41,-81l-23,-83l21,-97l124,-71l41,-57l366,-285l149,-104l119,162l413,505l224,231l185,173l116,209l-100,113l-10,70l12,264l-21,115l-216,137l-140,40l-156,97l-71,119l-9,227l-42,37l-205,45l-88,-3l-90,57l-81,-10l-75,112l-183,109l-18,226l-161,52l-83,60l32,62l-75,53l-25,197l46,132l120,960Z" /><path id="2803302" d="M-367813,-105749l-198,-11l-74,16l-11,258l-39,51l-184,121l-56,236l-85,114l-103,-21l-57,40l-72,127l9,144l-36,89l-31,214l180,119l-32,81l-91,-11l-77,64l4,51l-97,107l-167,-66l-29,-143l-121,-40l-70,-57l-73,3l-27,-232l-214,-742l-214,-65l23,-114l-358,-997l194,97l230,6l51,-156l76,-56l77,17l159,-39l36,-162l55,-63l203,147l91,12l540,416l588,445Z" /><path id="2803401" d="M-367053,-104006l-283,372l9,50l-48,174l19,119l-38,78l-96,68l-110,-42l-173,95l-105,86l-77,178l-52,-118l-179,-34l-35,-26l94,-220l1,-41l-165,-36l-161,-120l-4,-129l40,-27l-43,-125l-147,-129l-310,-27l-114,-166l167,66l97,-107l-4,-51l77,-64l91,11l32,-81l-180,-119l31,-214l36,-89l-9,-144l72,-127l57,-40l103,21l85,-114l56,-236l184,-121l39,-51l11,-258l74,-16l198,11l173,-55l65,-98l97,135l3,112l-59,141l20,100l77,72l113,20l118,51l-38,97l71,31l-19,140l29,80l-43,47l85,394l-35,17l115,208l16,85l-39,99l11,67Z" /><path id="2803500" d="M-376175,-107128l-33,60l-161,-64l-141,70l-119,-111l-53,87l-92,-68l-54,-137l-99,-55l-148,-36l-42,-101l22,-63l-113,-125l28,-26l-62,-162l-86,-115l-141,-65l-197,-153l-383,-200l-89,-306l-146,108l-324,-103l-150,54l50,-214l49,-98l-89,-233l136,-109l142,-41l120,-180l-46,-38l-4,-144l156,-245l19,-101l130,-60l195,-20l136,63l38,-102l128,61l181,-6l17,80l-60,58l22,76l193,-48l152,-96l170,-227l162,51l79,-95l127,-79l195,-194l16,-62l120,-33l572,274l-42,36l9,110l375,293l113,359l641,-172l-480,764l134,-24l173,106l89,4l82,108l-12,110l-56,114l-75,77l-129,-23l37,132l-174,83l-136,-48l-85,-80l-258,100l-74,-52l-110,53l-134,-37l-182,122l-55,122l-101,21l-41,160l124,114l-73,216l-110,146l-83,59l-25,163l135,137Z" /><path id="2803609" d="M-370882,-107832l-105,77l-98,-10l-139,-98l-48,5l-72,92l30,63l-68,48l-91,-44l-56,24l-85,161l-546,-139l-91,57l-194,-188l-287,-203l-445,-329l741,-23l137,-28l150,-114l72,14l265,-83l55,103l194,128l86,-31l298,30l91,52l73,87l104,-53l68,15l194,-11l-104,155l-120,91l-9,152Z" /><path id="2803708" d="M-375305,-106458l-281,263l-817,148l-64,-58l-51,-184l-35,-202l-57,-86l-75,-180l44,-54l-5,-122l41,-81l-58,-65l34,-94l119,111l141,-70l161,64l33,-60l99,59l17,118l109,-6l90,147l99,-77l155,-28l91,-58l144,22l45,64l318,2l-71,167l-109,63l7,89l-124,108Z" /><path id="2803807" d="M-369158,-103934l32,239l119,194l-20,259l-332,175l22,306l-224,-139l-532,-123l400,-351l535,-560Z" /><path id="2803906" d="M-372304,-106743l-83,106l-72,25l-14,128l-116,-9l-103,156l-90,6l-42,161l-131,61l-9,99l-298,-222l-61,-164l34,-141l84,-385l-105,-261l-53,-35l45,-41l228,-88l108,33l67,91l101,21l60,92l62,-42l103,135l232,-57l66,56l-12,71l31,111l-32,93Z" /><path id="2804003" d="M-370686,-107478l68,333l106,113l-74,121l-194,73l-108,18l-29,101l10,168l-248,-298l-61,-178l-210,22l-42,-194l-73,-64l30,-122l-69,-34l-34,-95l85,-161l56,-24l91,44l68,-48l-30,-63l72,-92l48,-5l139,98l98,10l105,-77l153,68l51,82l-28,79l20,125Z" /><path id="2804102" d="M-373205,-105402l-118,-28l-152,26l-169,-113l5,-73l-100,-26l-32,-55l-163,-115l-11,-37l73,-159l-27,-35l21,-124l-6,-147l77,-22l111,14l33,-128l65,-48l50,-97l89,-5l84,42l86,-5l-34,141l61,164l298,222l32,65l73,15l74,64l139,-2l109,-90l57,14l-146,154l-216,54l-120,-30l-66,19l-79,91l-98,254Z" /><path id="2804201" d="M-374201,-100622l-500,397l-931,235l-233,-2l3,-107l-91,-62l-137,-35l-56,-69l-281,52l-128,80l-107,-24l-76,-106l-108,-21l-30,53l-105,37l-40,56l-219,-146l-70,44l-156,-30l-87,12l-93,-52l-92,12l-68,-35l-102,4l82,-107l-56,-258l-37,-19l-27,-158l-73,-257l103,-77l60,-88l77,-48l34,-105l-27,108l-40,56l-18,159l-34,86l11,87l365,-141l177,-22l79,-83l162,-26l99,-64l95,68l90,-8l28,-51l137,-13l47,85l55,-4l61,100l87,4l71,82l80,-12l91,83l83,-78l67,93l129,-9l135,-82l142,-196l51,98l127,30l66,-46l293,122l78,48l71,-29l60,104l70,-63l109,43l53,-118l140,20l77,-16l-49,270l153,57l149,-41l-76,123Z" /><path id="2804300" d="M-370093,-103023l-88,-298l168,41l60,-304l159,-199l-43,-98l11,-165l46,-34l43,-112l62,-50l62,-181l122,-1l141,-71l27,232l73,-3l70,57l121,40l29,143l-128,92l-535,560l-400,351Z" /><path id="2804409" d="M-367016,-102704l-46,-118l-263,30l-162,176l-89,-6l-19,76l-166,-103l-107,23l-82,-122l-5,-80l77,-178l105,-86l173,-95l110,42l96,-68l38,-78l-19,-119l48,-174l-9,-50l283,-372l34,-51l465,43l76,15l351,-117l50,-90l76,-762l9,62l73,85l-81,43l57,176l-11,112l98,-10l34,123l162,54l40,166l53,386l-9,70l-69,118l6,153l-79,269l-155,148l-157,-55l-506,-143l-209,374l-92,129l-179,4Z" /><path id="2804458" d="M-374033,-102920l-64,-126l-90,-22l-85,57l-42,-43l-81,82l-196,93l-20,92l-178,-119l-106,75l-150,-122l-34,44l-242,79l-48,45l-31,197l-184,8l-50,-19l-187,177l-145,-83l-148,-270l299,-471l37,-45l-19,-138l42,-276l172,-736l108,-177l730,19l534,581l107,-150l6,613l-32,93l16,170l49,76l32,296Z" /><path id="2804508" d="M-373141,-101538l-322,-26l146,278l-226,177l-565,460l-93,27l76,-123l-149,41l-153,-57l49,-270l-77,16l-140,-20l-53,118l-109,-43l-70,63l-60,-104l-71,29l-78,-48l-293,-122l-66,46l-127,-30l-51,-98l-142,196l-135,82l-129,9l-67,-93l-83,78l-91,-83l-80,12l-71,-82l-87,-4l-61,-100l-55,4l-47,-85l-137,13l-28,51l-90,8l-95,-68l-99,64l-162,26l-79,83l-177,22l-365,141l-11,-87l34,-86l18,-159l40,-56l27,-108l-88,-349l11,-61l166,-106l204,-16l128,34l112,66l181,-42l23,-87l98,-36l141,-18l229,-119l49,-80l202,-153l187,-42l37,60l99,-110l145,83l187,-177l50,19l184,-8l31,-197l48,-45l242,-79l34,-44l150,122l106,-75l178,119l20,-92l196,-93l81,-82l42,43l85,-57l90,22l64,126l-18,342l80,9l134,386l514,75l182,570Z" /><path id="2804607" d="M-372396,-102980l-189,-73l-155,-12l-138,-122l-76,-11l-68,-68l4,-74l-148,-238l-58,-37l-51,-117l-137,-110l-62,-116l133,-97l88,-131l-89,-77l33,-56l84,-24l184,57l26,-78l137,-179l-40,-19l27,-110l87,57l58,-44l-749,-257l-103,81l130,-233l263,-334l98,-254l79,-91l66,-19l120,30l216,-54l146,-154l123,-93h52l134,-81l130,-124l17,84l-49,82l17,50l188,169l110,60l50,91l-100,78l242,338l169,220l10,369l31,181l175,112l49,75l14,212l-57,28l-164,-8l-131,-77l-139,74l-83,-64l-132,11l-61,89l-197,46l-34,108l-167,135l-42,143l-72,40l-20,90l21,81l-86,174l-9,65l117,99l-22,107Z" /><path id="2804706" d="M-370665,-101364l110,98l105,14l-1,-81l80,-23l55,116l234,199l173,190l425,155l-82,159l38,243l-7,66l-534,-149l-229,-192l-322,-46l-60,-308l15,-441Z" /><path id="2804805" d="M-370649,-108230l-194,11l-68,-15l-104,53l-73,-87l-91,-52l-298,-30l-86,31l-194,-128l-55,-103l-265,83l-72,-14l-150,114l-137,28l-741,23l-4,-6l101,-2l102,-155l266,-33l31,43l157,-81l81,-102l248,-119l127,24l94,-144l79,31l53,-101l103,-35l51,-138l102,-105l53,14l73,-62l156,71l214,67l69,-22l-54,123l56,102l-17,88l63,34l140,193l115,-33l57,-99l69,99l67,37l152,-38l34,-36l55,227l-26,74l-148,141l-191,29Z" /><path id="2804904" d="M-366001,-104968l-76,762l-50,90l-351,117l-76,-15l-465,-43l-34,51l-11,-67l39,-99l-16,-85l-115,-208l35,-17l-85,-394l43,-47l-29,-80l19,-140l-71,-31l38,-97l-118,-51l-113,-20l-77,-72l-20,-100l59,-141l-3,-112l-97,-135l74,-47l764,-339l8,-20l337,244l265,180l279,159l86,7l489,205l411,149l16,78l-148,156l-860,133l-147,29Z" /><path id="2805000" d="M-376629,-107173l-34,94l58,65l-41,81l5,122l-44,54l75,180l57,86l35,202l51,184l64,58l-9,1l-338,507l-136,220l-68,-501l-51,-26l-61,-152l-115,-170l-14,-106l129,-57l87,-144l-89,-88l-30,-156l80,-67l189,-90l-16,-69l81,-27l-64,-84l54,-98l92,68l53,-87Z" /><path id="2805109" d="M-375965,-112035l-419,48l-64,51l-256,106l-85,-70l-74,151l-52,37l-130,-206l184,-184l87,-245l76,-46l-14,36l102,167l107,-8l82,31l79,-32l157,44l104,-12l111,31l5,101Z" /><path id="2805208" d="M-377226,-105101l-76,-62l-181,29l-143,52l-106,15l-80,-38l-176,4l-165,-72l-71,-133l9,-92l-75,-7l-36,-206l18,-239l136,-14l24,-90l85,-51l69,89l141,-93l97,-8l86,-49l8,-128l104,-44l60,26l99,-113l83,24l93,-36l-18,-76l87,-39l88,121l-129,57l14,106l115,170l61,152l51,26l68,501l-340,218Z" /><path id="2805307" d="M-367575,-105902l-65,98l-173,55l-588,-445l-540,-416l-91,-12l-203,-147l80,5l129,-87l28,-75l44,-129l99,38l21,48l130,-105l-12,-152l30,-139l-42,-47l201,-30l248,227l302,240l133,93l497,301l169,77l303,117l146,79l-8,20l-764,339l-74,47Z" /><path id="2805406" d="M-374660,-97480l-71,16l-423,5l-122,36l-448,37l-94,45l-153,128l-245,133l-119,79l-38,70l-168,68l-55,81l-63,123l-1652,-374l-37,-68l0,-112l-92,-279l31,-97l-31,-163l-91,-25l-15,-162l-39,-80l-42,-223l-65,-167l26,-37l-39,-204l0,-248l50,-64l-116,-123l-125,-58l-64,23l-61,-69l-49,-105l-64,-37l44,-69l119,-17l10,-126l177,-173l23,-54l135,-116l105,-19l190,-287l84,-46l-13,-127l124,42l228,-6l102,-4l68,35l92,-12l93,52l87,-12l156,30l70,-44l219,146l40,-56l105,-37l30,-53l108,21l76,106l12,162l126,50l112,155l133,64l83,-14l120,55l986,1503l430,702Z" /><path id="2805505" d="M-379725,-107571l-43,-8l-489,324l-80,8l36,111l-18,56l-102,72l-128,-101l-129,-48l-153,34l-153,-1l-352,-72l-113,16l-178,71l-91,-1l-50,54l-122,-42l-159,-8l-44,-15l-71,-151l32,-39l-14,-161l54,-109l-58,-92l-26,-119l-57,-78l-97,-45l-53,-84l38,-124l-105,-106l57,-47l70,-129l-41,-121l0,-294l79,-182l3,-140l129,-85l50,-83l31,75l81,-48l-30,-71l215,-74l119,12l-11,177l72,53l0,107l81,83l142,-10l85,66l78,115l45,144l-71,169l69,61l17,83l99,5l57,64l91,13l69,67l297,46l106,-12l182,36l260,-52l184,-9l133,-38l8,171l-31,506Z" /><path id="2805604" d="M-372965,-98306l-223,86l-71,51l-207,257l-164,39l-186,68l-120,13l-144,151l-169,25l-107,58l-304,78l-430,-702l-986,-1503l-120,-55l-83,14l-133,-64l-112,-155l-126,-50l-12,-162l107,24l128,-80l281,-52l56,69l137,35l91,62l-3,107l233,2l931,-235l500,-397l107,108l84,-1l186,135l-23,76l109,79l35,154l163,-85l46,29l24,123l52,103l99,-28l-25,-71l68,-93l113,5l20,80l87,11l50,-38l48,-121l101,65l-14,153l61,62l162,-49l-75,230l16,74l99,-23l31,57l236,2l28,458l50,150l-84,1l-108,58l-40,166l-72,118l-42,127l-103,66l-140,135h-113Z" /><path id="2805703" d="M-368449,-101888l-37,-3l-90,126l-96,-293l-5,-224l192,-121l41,-216l31,-174l51,-120l176,-67l179,34l52,118l5,80l82,122l107,-23l166,103l19,-76l89,6l162,-176l263,-30l46,118l-188,55l-148,230l-137,137l-94,33l-112,-30l-220,7l-99,141l-131,-21l-118,40l-79,140l-107,84Z" /><path id="2805802" d="M-376224,-110675l-120,33l-16,62l-195,194l-127,79l-79,95l-162,-51l-170,227l-152,96l-193,48l-22,-76l60,-58l-17,-80l-181,6l-128,-61l-38,102l-136,-63l-195,20l-130,60l-19,101l-156,245l4,144l46,38l-120,180l-142,41l-136,109l89,233l-49,98l-50,214l-194,-83l-419,-88l-20,-88l-338,94l178,-552l113,-103l107,-256l-91,-139l-67,-6l28,-97l126,-84l76,-105l303,-269l14,-52l507,-623l501,-240l167,11l109,-99l152,-63l52,-49l74,35l91,-136l60,15l108,-49l53,-78l343,257l258,224l6,97l-34,76l165,274l93,-66l69,76l8,119l-64,11Z" /><path id="2805901" d="M-371614,-107514l-24,54l28,113l-56,73l-125,99l-127,-108l-115,79l16,89l-42,73l101,129l-32,141l-314,29l32,-93l-31,-111l12,-71l-66,-56l-232,57l-103,-135l-62,42l-60,-92l33,-54l-50,-61l42,-97l83,-51l-19,-63l280,-256l194,188l91,-57l546,139Z" /><path id="2806008" d="M-373205,-105402l-263,334l-130,233l-102,244l-20,116l-384,307l-107,150l-534,-581l-730,-19l365,-442l87,-219l278,-386l148,-278l371,180l281,-60l11,37l163,115l32,55l100,26l-5,73l169,113l152,-26l118,28Z" /><path id="2806107" d="M-370113,-106758l12,142l-12,203l-249,157l-178,41l-178,64l-41,-171l-169,-91l21,-138l-10,-168l29,-101l108,-18l194,-73l74,-121l-106,-113l-68,-333l92,60l328,134l105,67l154,-104l66,17l103,-60l160,60l179,177l-114,87l-78,-16l-116,48l-81,-29l-169,72l-107,117l51,90Z" /><path id="2806206" d="M-373888,-110530l-156,181l-79,243l-136,97l1,116l-80,21l-56,66l-162,31l-641,172l-113,-359l23,-577l-94,-387l-150,-475l119,-18l-18,-98l-102,-71l70,-71l872,196l217,195l68,199l-82,115l5,84l494,340Z" /><path id="2806305" d="M-376634,-112900l-287,-181l90,-82l68,158l58,-82l-48,-145l104,-95l87,-77l538,-485l377,-227l151,-44l124,10l120,-70l180,80l65,-180l54,-98l104,-22l67,-58l156,16l32,48l132,21l34,140l86,32l104,-54l77,-1l74,57l-4,196l49,168l148,155l7,170l96,112l-11,173l-207,143l-52,103l-76,15l-208,-32l-62,81l-74,11l-131,-167l-163,35l-115,53l-173,-13l-44,35l-126,8l-59,-58l-197,10l-231,-189l-104,-30l-61,18l-63,-52l-26,-114l-59,-22l-601,530M-376536,-113331l-95,13l37,81l75,31l53,-43l-70,-82Z" /><path id="2806404" d="M-365873,-103013l-132,112l-101,198l-109,139l-104,42l-67,2l-191,-159l-122,1l-138,-30l92,-129l209,-374l506,143l157,55Z" /><path id="2806503" d="M-372480,-105944l-57,-14l-109,90l-139,2l-74,-64l-73,-15l-32,-65l9,-99l131,-61l42,-161l90,-6l103,-156l116,9l14,-128l72,-25l83,-106l314,-29l86,53l-23,57l32,88l102,44l-75,185l-78,91l-95,12l-130,124l-134,81h-52l-123,93Z" /><path id="2806602" d="M-368998,-106926l-122,-86l-82,2l36,154l-184,-99l-149,-172l-179,-177l-160,-60l-103,60l-66,-17l-154,104l-105,-67l-328,-134l-92,-60l-20,-125l28,-79l-51,-82l-153,-68l9,-152l120,-91l104,-155l191,-29l148,-141l26,-74l-55,-227l-59,-140l118,-11l188,203l157,81l14,46l105,57l3,109l129,27l43,142l48,16l1,98l119,94l89,26l9,72l96,-18l176,126l109,47l123,164l49,118l94,32l42,47l-30,139l12,152l-130,105l-21,-48l-99,-38l-44,129Z" /><path id="2806701" d="M-371021,-109171l-69,22l-214,-67l-156,-71l-73,62l-53,-14l-102,105l-51,138l-103,35l-53,101l-79,-31l-94,144l-127,-24l-248,119l-81,102l-157,81l-31,-43l-266,33l-102,155l-101,2l-3,-23l-120,-960l-46,-132l25,-197l75,-53l-32,-62l83,-60l161,-52l18,-226l183,-109l75,-112l81,10l90,-57l88,3l205,-45l42,-37l9,-227l71,-119l156,-97l140,-40l216,-137l43,116l-116,135l126,219l120,26l100,-71l477,1219l-107,239Z" /><path id="2806800" d="M-375950,-106957l-109,6l-17,-118l-99,-59l-135,-137l25,-163l83,-59l110,-146l73,-216l-124,-114l41,-160l101,-21l55,-122l182,-122l134,37l110,-53l74,52l258,-100l85,80l136,48l-87,69l-82,4l-109,61l75,156l-26,104l-83,26l-159,101l-141,-13l-84,152l63,91l-280,351l27,78l-34,113l-63,74Z" /><path id="2806909" d="M-368186,-102980l-176,67l-51,120l-31,174l-74,-125l-184,-157l-41,-70l-119,-37l-54,-103l-111,-131l20,-259l-119,-194l-32,-239l128,-92l114,166l310,27l147,129l43,125l-40,27l4,129l161,120l165,36l-1,41l-94,220l35,26Z" /><path id="2807006" d="M-373412,-103842l-78,-2l-1,129l-62,19l54,132l-43,124l-45,-15l-40,174h-102l-100,125l-19,172l-107,100l57,121l-21,122l-52,72l-80,-9l18,-342l-32,-296l-49,-76l-16,-170l32,-93l-6,-613l384,-307l20,-116l102,-244l103,-81l749,257l-58,44l-87,-57l-27,110l40,19l-137,179l-26,78l-184,-57l-84,24l-33,56l89,77l-88,131l-133,97l62,116Z" /><path id="2807105" d="M-377066,-106331l-88,-121l-87,39l18,76l-93,36l-83,-24l-99,113l-60,-26l-104,44l-8,128l-86,49l-97,8l-141,93l-69,-89l-51,-249l-53,-60l92,-80l-22,-93l59,-26l-102,-185l45,-39l-4,-121l-206,34l-158,-120l-12,-49l-208,-37l-413,-125l-145,-194l-131,-114l-83,-102l-74,64l-113,-75l-83,5l31,-506l-8,-171l-27,-556l338,-94l20,88l419,88l194,83l150,-54l324,103l146,-108l89,306l383,200l197,153l141,65l86,115l62,162l-28,26l113,125l-22,63l42,101l148,36l99,55l54,137l-54,98l64,84l-81,27l16,69l-189,90l-80,67l30,156l89,88l-87,144Z" /><path id="2807204" d="M-370718,-106151l75,113l-10,110l-117,86l85,112l-43,62l-4,91l71,168l11,104l-154,31l-220,-32l9,192l-30,85l-86,94l-18,118l-76,59l-162,57l-10,-369l-169,-220l-242,-338l100,-78l-50,-91l-110,-60l-188,-169l-17,-50l294,-179l274,47l71,-44l-26,-112l47,-93l72,-55l86,33l130,7l197,59l169,91l41,171Z" /><path id="2807303" d="M-368504,-101784l-53,135l-106,88l-51,96l-112,-10l-227,-287l-381,-513l144,47l272,-30l341,-24l5,224l96,293l90,-126l37,3l-55,104Z" /><path id="2807402" d="M-379702,-108248l-133,38l-184,9l-260,52l-182,-36l-106,12l-297,-46l-69,-67l-91,-13l-57,-64l-99,-5l-17,-83l-69,-61l71,-169l-45,-144l-78,-115l-85,-66l-142,10l-81,-83l0,-107l-72,-53l11,-177l-119,-12l11,-59l-69,-128l63,-68l-1,-68l115,-146l244,-119l94,-136l72,-39l67,118l192,-94l-42,-91l51,-66l-11,-121l109,-70l160,-256l-56,-64l-54,-144l-75,-29l61,-86l-13,-63l235,-83l-11,-107l-49,-81l55,-163l86,-130l87,-40l16,-55l178,43l63,-11l197,-153l57,27l161,-82l29,-56l10,-167l-128,-62l47,-81l-82,-40l102,-92l-123,-104l85,-120l-49,-74l-134,-76l42,-166l97,-98l40,-189l-94,-35l29,-82l79,14l41,-59l154,248l-16,113l180,53l-8,115l130,97l20,155l123,207l18,76l173,195l180,90l176,-65l34,100l-106,229l299,258l410,207l121,71l-501,240l-507,623l-14,52l-303,269l-76,105l-126,84l-28,97l67,6l91,139l-107,256l-113,103l-178,552l27,556Z" /><path id="2807501" d="M-379362,-112698l-20,-155l-130,-97l8,-115l-180,-53l16,-113l-154,-248l38,-182l90,-67l13,-77l-134,-58l60,-62l72,30l75,-78l85,19l7,-95l90,-141l62,-27l81,124l6,79l108,-14l69,-77l124,-273l169,64l109,-34l29,-78l177,19l-38,-110l-78,3l-35,-152l108,-9l204,-148l60,69l116,75l75,133l11,125l63,145l83,43l46,112l164,-39l99,105l8,101l-78,49l-5,101l-63,10l-108,96l-50,92l-7,134l-112,93l-124,68l-40,120l-98,-11l-178,161l-53,68l-89,-27l-51,42l-59,119l-67,-42l-208,128l-83,-46l-65,-95l-173,99l-45,97Z" /><path id="2807600" d="M-376753,-113232l-78,69l-90,82l-1,-577l-379,-358l76,25l20,-85l148,-60l37,-76l97,-32l12,-79l153,-143l46,-103l-53,-149l63,-73l110,-56l65,21l503,937l-538,485l-97,-54l-62,3l-37,92l109,36l-104,95Z" /></g></svg>