<?xml version="1.0"?><svg xmlns="http://www.w3.org/2000/svg" version="1.2" baseProfile="tiny" width="1080" height="1080" viewBox="-41.8796 17.8919 12.580600000000004 3.409200000000002" stroke-linecap="round" stroke-linejoin="round"><g id="UF32MU" transform="scale(0.0001,-0.0001)"><path id="3200102" d="M-409705,-199770l-82,-24l-161,91l-7,93l-112,3l-96,-101l-301,-61l-99,-96l-119,-2l-183,157l-97,6l-62,63l-102,-91l-42,49l65,116l-59,148l-83,68l-33,129l18,53l-190,254l-103,6l-127,-143l-91,-11l-99,148l-76,-19l-105,-97l-143,17l-102,-56l-30,-120l-119,-183l-101,52l-168,-101l-44,-68l18,-95l128,-23l27,-112l-49,-44l-8,-98l120,16l45,-106l91,-113l-146,-214l103,-76l29,-105l73,-58l-87,-188l-92,-132l114,-281l129,-97l-36,-95l22,-205l-56,-111l-95,53l-38,-51l1,-138l-56,-48l99,-193l13,-67l-147,-49l157,-84l61,-292l71,-104l-162,-51l41,-124l140,-32l212,133l84,-35l96,114l109,-26l91,-57l75,-147l106,9l108,-61l42,37l33,151l153,15l123,-69l208,118l18,75l103,100l-8,230l109,1l15,-104l129,-32l68,81l71,-38l63,112l-18,75l134,10l97,-29l39,45l-106,153l-100,39l54,160l-74,45l51,88l-14,117l-108,71l-78,102l34,67l211,127l125,25l-4,-134l136,33l54,102l79,-3l105,155l164,120l-17,90l-68,25l-46,140l-98,187l48,104l-65,89l0,427Z" /><path id="3200136" d="M-407627,-188486l-146,-92l-152,-1l-103,141l-111,20l-135,-64l-52,-121l-146,32l-155,-69l63,-123l-36,-36l-7,-158l-195,29l-177,-85l-81,-392l482,1l-10,-813l204,-6l215,60l129,-76l151,-19l58,48l44,192l102,69l120,-51l49,-117l109,-113l5,-62l105,-52l55,-199l122,-16l84,-51l-38,-119l-73,-47l-28,-198l44,-108l124,6l146,-36l-29,-160l-102,-55l65,-68l14,-104l19,154l98,91l9,49l-50,165l121,65l111,-26l58,103l117,62l106,-12l256,105l87,117l156,-25l27,-32l179,193l58,30l-78,34l-82,-100l-284,62l-90,64l-59,-14l-64,195l-128,-19l-99,144l104,221l-86,67l-89,21l61,91l-57,52l12,84l-62,94l-86,-25l-76,31l-15,97l-278,37l12,-84l-80,-17l-160,96l-85,-56l-80,46l-12,146l45,42l-22,129l79,54l-59,173l78,-21l96,66l60,2l25,124l-99,132l-141,-26l-88,94l-85,-4l-94,-58Z" /><path id="3200169" d="M-409260,-184389l-13,83l-88,71l97,100l-51,130l-56,21l-56,-70l-81,36l48,138l-118,51l-85,-86l-165,-9l63,-64l-98,-115l-92,52l-83,-11l-67,66l46,114l-75,34l-90,-66l-106,14l-75,71l50,201l-61,10l-135,183l-26,-76l-104,-50l15,-69l-112,-110l-98,-12l8,-100l-88,-64l-42,-105l-142,-2l-113,-67l-42,54l-147,-17l-7,-42l-161,-67l-57,10l-141,-175l-10,-69l87,-32l1501,-145l67,-102l4,-93l-99,-508l-162,-778l83,-12l7,-122l-64,-11l-115,-143l222,-125l-10,-70l95,-13l150,-123l163,-59l11,-49l113,10l227,-45l123,-91l91,79l67,-103l101,82l74,-50l57,43l-4,132l-71,73l42,175l-2,378l-43,93l-119,47l-68,87l23,160l66,128l133,90l-5,153l50,54l-24,65l-130,-8l-28,107l85,20l-63,122l3,74l-71,39l30,91l-38,122l54,140l-55,125Z" /><path id="3200201" d="M-414147,-205729l-50,55l-149,27l-36,35l-117,-107l-11,-77l-84,-35l-96,14l-84,-127l41,-89l-53,-42l-92,15l-1,70l-75,35l-58,156l23,88l-31,123l5,117l-237,-14l-57,-118l-100,-52h-86l-159,-105l-64,-1l-97,67l-25,82l-173,154l-71,-99l-126,-101l-117,16l-72,-84l55,-71l-38,-90l145,-105l-5,-169l176,-72l-44,-87l8,-139l95,-69l13,-117l-21,-90l31,-99l-110,-34l-21,-178l69,-16l76,-85l17,-138l-87,-3l-76,-180l20,-46l-93,-56l16,-71l-133,-127l67,-144l-19,-114l102,14l11,-60l-67,-49l-29,-109l60,-229l-70,-53l-31,-106l101,-134l69,-172l-21,-79l118,-6l27,100l147,-85l43,-120l167,184l113,21l143,80l233,-69l-21,-78l117,-92l59,113l81,-1l35,98l112,23l52,-135l154,37l-42,120l30,109l-72,38l53,110l-10,185l56,45l-17,109l21,161l82,37l29,66l134,52l107,89l89,205l161,416l-32,120l78,45l54,185l-58,128l45,127l67,40l56,89l-78,89l59,84l-174,42l-85,208l29,75l-93,141l11,57l-94,32Z" /><path id="3200300" d="M-409124,-204487l-176,118l-177,-23l-150,51l-254,-27l33,-115l-23,-99l95,22l87,-66l-35,-181l65,-29l-30,-127l91,-12l13,-114l-36,-292l-41,-44l94,-103l2,-89l-105,-28l-12,-119l107,-141l-13,-80l139,-78l87,67l261,-189l-6,-150l-50,-104l-98,-38l-86,-151l6,-106l39,-48l198,-77l278,155l177,-84l86,-68l172,-20l-8,97l313,-153l99,-21l139,-77l135,-25l5,283l111,192l149,-2l8,113l160,2l17,120l92,85l54,119l210,90l49,60l132,45l9,148l-126,40l-5,100l38,88l85,41l-10,83l-147,54l-145,28l19,94l68,10l-17,210l105,54l99,205l-23,106l210,85l-42,101h-133l-114,95l-34,62l-163,-5l-97,-62l59,-60l-29,-129l-117,18l-124,-122l-78,-144l-105,-137l-251,8l-37,-89l-104,-11l-159,-136l-129,31l122,183l12,129l-80,35l-201,-47l-49,33l-138,-69l-61,32l-66,105l-17,132l-324,30l-104,132Z" /><path id="3200359" d="M-409643,-191221l24,188l67,-4l59,58l105,41l-108,146l169,75l83,60l100,11l28,71l126,69l-21,87l59,160l-4,129l-120,57l-84,-34l-69,34l-21,73l-192,19l-66,-81l58,465l-19,146l89,-19l147,18l67,44l-1484,-40l8,-156l36,-79l174,-113l92,-2l29,50l131,13l7,-58l-149,-115l-185,-80l-111,-75l-98,-193l85,-137l-25,-120l48,-52l82,-50l-13,-74l184,-27l76,-38l153,-4l-2,-155l57,-92l178,-16l80,-104l170,-96Z" /><path id="3200409" d="M-405709,-207652l-769,1376l32,498l64,297l-113,2l-157,-90l-84,-79l-69,76l-38,-88l5,-100l126,-40l-9,-148l-132,-45l-49,-60l-210,-90l-54,-119l-92,-85l-17,-120l-160,-2l-8,-113l-149,2l-111,-192l-5,-283l-135,25l-139,77l-99,21l-313,153l8,-97l140,-55l114,-144l109,-70l101,-26l-69,-138l-58,-28l-55,-169l102,-42l158,64l84,-82l-48,-73l91,-33l-19,-82l28,-119l203,-6l35,-120l102,-73l95,-9l49,-83l123,-60l9,-72l80,-50l106,65l182,68l71,93l120,61l147,-53l103,-91l-50,-99l25,-110l92,72l113,255l169,63l105,13l48,91l22,180l50,86Z" /><path id="3200508" d="M-415577,-211733l-36,101l129,77l26,60l236,43l129,-28l90,118l63,129l-53,130l-138,38l41,201l61,143l-128,81l86,192l-37,228l63,52l4,132l52,18l2,124l-82,-11l-142,84l20,83l-63,111l-173,-38l-298,87l-68,-31l-60,-127l36,-167l-93,-126l-4,-48l99,-122l91,-39l-21,-166l-121,-159l15,-85l114,-48l18,-72l-183,-108l-11,-60l-98,-107l-128,-48l-211,-182l-105,-161l235,-36l94,-100l235,74l30,-101l75,-99l88,-28l52,-113l69,104Z" /><path id="3200607" d="M-399117,-196870l-1196,801l-134,132l-45,92l-67,19l-83,-36l-111,61l-102,148l-237,116l-109,22l-205,-45l-269,23l-46,-64l-87,-1l-117,-110l-74,-8l-34,-109l-76,-30l-110,32l-358,-169l-2,-66l-92,-38l-7,-74l-208,-58l-3,-75l-86,-7l15,-106l-96,-24l-39,-80l-97,-28l-25,76l-124,59l-105,-103l37,-141l-86,-21l-43,-180l26,-136l51,-64l0,-737l0,-1270l78,-11l8,-99l56,-60l-7,-141l84,-101l192,-71l16,-156l147,-65l126,31l49,-46l-36,-103l105,-210l52,6l82,88l122,-85l237,111l67,99l184,-50l61,-41l159,-28l67,-98l67,-22l77,109l-18,86l59,72l59,156l42,36l-80,120l-133,14l43,68l138,47l67,73l102,21l169,107l37,157l153,295l139,140l108,223l-4,112l39,137l97,141l298,326l263,244l209,179l286,212l278,176Z" /><path id="3200706" d="M-410929,-209534l-2,202l-93,11l-105,53l-106,-57l-100,37l-35,201l-91,44l-3,63l-97,71l-105,-87l-221,88l-122,104l-127,-92l-84,83l-105,-31l-89,56l-34,102l-201,-150l29,-118l-123,-310l-38,-22l9,-144l-69,-55l33,-76l200,44l6,52l102,26l93,-48l19,-107l136,-118l37,-170l-72,-181l127,-253l74,-56l53,-113l58,-22l32,-106l60,-75l124,62l156,13l101,134l-18,101l83,-3l118,80l56,162l89,19l139,99l-69,56l17,107l96,7l-79,152l-129,35l128,92l87,-5l55,43Z" /><path id="3200805" d="M-408204,-193568l-67,56l-43,127l-118,48l-176,109l-25,-74l-138,-42l-34,89l55,126l126,52l-2,73l-150,109l-166,18l0,65l188,165l-48,95l-96,38l-18,77l33,80l-135,12l-83,-23l-138,48l-115,93l-62,-74l17,-87l64,-50l12,-74l121,-6l40,-71l-57,-130l-148,-7l-78,-69l61,-69l103,3l-47,-100l83,-64l121,6l47,-69l-81,-100l-69,-36l-158,-237l-1,-141l58,-28l24,-212l-203,-88l-115,-154l17,-109l-59,-43l-15,-68l91,-88l10,-107l131,-111l-265,-336l-10,-107l-161,-26l-205,5l-103,25l-276,175l-30,-156l88,-129l-38,-196l81,-212l-3,-138l-201,-71l-34,-77l-115,9l-33,-144l-157,25l-84,-79l-10,-106l-83,-247l-114,1l-95,-33l-78,-149l-103,-60l-99,25l-110,-111l-84,-265l26,-169l-47,-44l-30,-122l21,-84l-112,-53l29,-108l136,-105l211,53l141,-91l152,-20l-5,-159l98,-48l47,83l130,-22l154,101l200,51l79,99l73,-145l95,-114l137,63l65,-38l18,-122l101,-76l112,47l-23,37l54,367l73,66l-1,182l106,106l277,-54l-21,94l30,97l72,37l73,116l86,12l-52,190l-55,67l-52,271l91,99l-70,97l55,113l157,106l157,10l61,60l92,11l61,174h60l194,146l172,-81l52,21l-23,178l49,141l72,35l-113,96l-265,104l21,73h141l65,139l-57,90l-132,52l-204,-14l-60,224l-40,63l153,162l-21,57l100,50l18,133l-34,64l99,62l33,152l113,40l100,-5l84,89l-14,113Z" /><path id="3200904" d="M-406521,-185132l-95,34l-63,-25l-114,21l-239,108l-206,309l-134,37l-140,-37l-21,-61l-103,-104l-129,-3l-128,50l-14,-120l-178,-15l-58,-51l-151,-24l-182,68l13,74l-88,270l59,34l-45,140l52,57l-182,44l-104,-17l-190,5l-64,68l-82,-18l-153,-101l55,-125l-54,-140l38,-122l-30,-91l71,-39l-3,-74l63,-122l-85,-20l28,-107l130,8l24,-65l-50,-54l5,-153l-133,-90l-66,-128l-23,-160l68,-87l119,-47l43,-93l2,-378l-42,-175l71,-73l4,-132l-57,-43l-74,50l-101,-82l-67,103l-91,-79l15,-796l78,-95l36,-131l88,-75l30,-151l-111,-42l-88,-113l-90,56l-54,-93l-119,-11l-9,-54l-367,30l-248,10l1272,-634l3,-7l177,85l195,-29l7,158l36,36l-63,123l155,69l146,-32l52,121l135,64l111,-20l103,-141l152,1l146,92l41,84l-31,70l-106,-2l-37,148l88,-4l-62,244l155,13l48,165l47,60l157,18l4,36l132,82l26,111l-3,205l46,128l-92,84l154,10l98,-26l-29,108l86,-16l83,55l-22,60l-209,37l-105,-8l-95,68l-45,164l73,320l5,247l-49,3l-59,148l-92,-23l-44,-114l-204,40l18,-156l-115,-25l-37,-52l-140,67l-3,141l-107,137l58,29l72,-109l118,-44l100,33l8,66l103,114l84,-2l122,69l102,2l52,50l157,10l40,70l131,80l58,137l223,181l103,41Z" /><path id="3201001" d="M-401246,-184885l-119,20l-266,109l-135,42l-108,-47l-124,-106l-150,-54l-324,-45l-249,22l-123,109l-90,47l-3,54l-145,166l26,90l-40,60l-93,18l-62,294l-48,88l-171,142l-78,97l-129,11l-151,-53l-48,19l-152,-51l-210,199l-111,41l-86,-8l-144,-131l-45,30l-127,-37l-112,95l-7,-110l361,-293l-52,-53l76,-68l-95,-63l-64,-112l89,-83l3,-62l-64,-102l81,-73l-29,-159l77,-39l-3,-76l110,-65l50,21l169,-146l-91,-69l47,-209l172,2l115,-33l87,66l134,-83l213,-4l37,-53l126,-74l-61,-89l74,-115l287,80l178,-40l156,14l51,56l170,15l77,-94l89,-49l108,47l116,-48l-10,113l412,253l55,116l-35,142l75,103l81,18l170,107l82,90Z" /><path id="3201100" d="M-416455,-211434l105,161l211,182l128,48l98,107l11,60l183,108l-18,72l-114,48l-15,85l121,159l21,166l-91,39l-99,122l-58,-130l-76,19l-78,-128l-48,-16l-34,-187l-90,-60l-30,-121l-199,-159l-82,67l-174,-10l-57,-105l-87,39l-93,-60l-66,19l-83,-142l63,-60l-74,-50l9,-92l122,-25l-5,73l98,50l69,-63l248,-30l-15,-72l199,-114Z" /><path id="3201159" d="M-412714,-199422l-190,18l-75,28l-48,-5l-52,-102l-39,-241l-81,-62l102,-165l6,-213l-82,-106l-12,-145l-78,-130l-64,-32l-50,-175l-5,-129l-70,-9l12,-111l-118,-390l-61,-30l-59,-148l-81,-50l18,-63l-83,-209l-267,-86l-28,-84l-37,-13l-3,-109l57,-120l127,-13l48,56l112,25l47,47l36,153l232,54l62,-108l52,-151l-119,-101l24,-87l132,-6l178,-139l66,-121l84,9l75,103l-5,68l-109,59l-30,62l90,99l111,-38l-5,-94l85,11l14,81l68,-1l54,-165l106,-34l5,-104l-39,-92l213,-45l-41,124l162,51l-71,104l-61,292l-157,84l147,49l-13,67l-99,193l56,48l-1,138l38,51l95,-53l56,111l-22,205l36,95l-129,97l-114,281l92,132l87,188l-73,58l-29,105l-103,76l146,214l-91,113l-45,106l-120,-16l8,98l49,44l-27,112l-128,23l-18,95l44,68Z" /><path id="3201209" d="M-410775,-206141l-77,-16l-139,71l-176,-89l-156,22l-7,-116l-181,-164l-165,-14l-56,-85l-79,-45l12,-93l-247,-47l-498,87l-115,81l-87,5l-168,115l-60,-80l-82,-5l-163,183l19,91l-109,140l-100,40l-112,-83l11,-96l-77,-17l-78,50l-76,-78l-59,-84l78,-89l-56,-89l-67,-40l-45,-127l58,-128l123,-98l102,-13l89,-116l-73,-151l73,-80l88,53l178,-64l-135,-146l9,-115l-73,-100l-75,-20l-11,-124l117,-136l-58,-161l69,-213l-19,-185l73,-26l-19,-99l135,50l33,65l232,-37l19,146l87,-83l-2,-56l206,39l74,-15l207,52l-14,-109l-51,-103l34,-102l89,-56l105,31l84,-83l127,92l122,-104l221,-88l105,87l97,-71l3,-63l91,-44l35,-201l100,-37l106,57l105,-53l93,-11l2,-202l130,198l-4,124l109,42l32,91l133,48l-43,111l39,130l137,96h334l-251,159l73,194l64,41l18,91l-73,63l61,194l-50,78l-243,-2l20,105l95,123l26,79l-176,41l-53,120l-146,104l9,65l70,85l-127,43l-226,-135l-61,136l14,71l150,-2l19,213l188,279l-24,78l30,66l102,83l-210,123l-12,58Z" /><path id="3201308" d="M-403733,-202149l-116,-81l-230,-83l-131,42l-99,-3l-375,64l-191,-169l-86,25l-64,64l-243,-171l-38,-103l-272,-139l-377,18l-7,69l48,99l-32,64l-101,-57l1,-163l45,-109l151,-153l26,14l97,42l65,-43l-13,-74l180,-24l142,76l150,15l-26,-95l6,-249l68,-195l295,3l109,39l114,92l71,8l36,-67l142,68l125,-84l70,-1l150,-177l-13,-203l110,-125l243,-82l53,49l19,262l53,230l34,64l-1,123l-73,95l2,112l116,216l144,137l67,105l-90,-2l-12,102l-228,170l-37,144l-77,41Z" /><path id="3201407" d="M-410528,-204599l-150,-4l-26,84l-120,113l-68,-12l-119,80l-1,142l34,107l-70,61l-65,-25l13,-79l-44,-65l-281,-119l-166,95l-68,-40l1,-192l-87,-19l-167,16l-32,-58l-105,-36l-47,88l-123,-53l-35,-98l90,-67l9,-69l78,-47l-23,-114l-106,22l-155,-26l-63,-87l-60,83l-225,-5l-124,43l31,-199l-175,-127l-121,51l-121,192l-58,-12l79,-93l-86,-76l-158,9l-102,68l-218,-62l-23,-150l56,-89l-146,-47l-25,-120l-105,75l-53,-10l-8,-139l-81,-120l94,-32l-11,-57l93,-141l-29,-75l85,-208l174,-42l76,78l78,-50l77,17l-11,96l112,83l100,-40l109,-140l-19,-91l163,-183l82,5l60,80l168,-115l87,-5l115,-81l498,-87l247,47l-12,93l79,45l56,85l165,14l181,164l7,116l156,-22l176,89l139,-71l77,16l82,19l30,170l-104,64l12,82h92l87,125l99,21l75,-57l58,34l7,85l161,151l-3,96l-279,-11l-105,119l71,81l45,-74l183,72l3,95l-83,110l-51,121l-109,27l-50,143l26,69Z" /><path id="3201506" d="M-406648,-192300l-82,-99h-102l-45,40l-135,-57l52,-150h-83l-39,-53l-3,-205l-25,-80l-70,-72l-115,104l-84,-46l-124,-16l-63,-44l-122,41l-152,14l-31,-57l-211,-54l0,-99l-96,-148l29,-214l-55,-73l14,-113l-84,-89l-100,5l-113,-40l-33,-152l-99,-62l34,-64l-18,-133l-100,-50l21,-57l-153,-162l40,-63l60,-224l204,14l132,-52l57,-90l-65,-139h-141l-21,-73l265,-104l113,-96l-72,-35l-49,-141l23,-178l-52,-21l-76,-61l-106,-31l-36,-87l33,-116l-72,-54l71,-137l182,2l99,119l41,116l157,-17l81,46l81,94l61,-10l-31,-138l115,-195l-52,-190l114,-19l-31,-129l145,-30l177,102l127,2l29,174l160,-19l207,25l151,-60l185,-133l496,-298l149,92l80,-220l139,-1l74,-77l21,-129l83,-65l97,31l117,-56l106,380l85,121l203,137l21,116l85,-20l141,115l445,-106l422,188l63,56l-56,186l-134,241l7,121l173,56l17,60l-41,143l-172,-64l-439,85l-331,-31l-172,48l-140,137l-121,53l-30,63l-153,76l-43,81l-76,12l-116,77l-127,226l-36,109l11,101l-109,76l-112,26l-65,-20l-15,-77l-157,-9l-109,-85l-85,143l-22,168l19,102l-50,76l-29,145l58,61l85,303l53,15l171,-54l129,132l87,40l129,7l-12,67l223,66l50,101l41,93l54,11l7,111l-32,42l-128,47l-76,83l-78,-55l-139,-29l-112,27l-102,111l-121,-91l-66,41l-74,155l-35,146l-345,114Z" /><path id="3201605" d="M-396678,-183372l-64,125l-147,39l-881,559l-1348,859l81,-100l38,-109l-66,-123l-75,-12l-143,-218l-80,-6l-58,-77l153,-123l-43,-173l-44,-30l-23,-118l37,-88l130,-86l9,-96l-351,34l44,-43l-75,-78l-7,-215l201,-543l22,-125l-104,-125l-133,-90l-137,-42l-169,6l-107,45l-179,-50l-102,-66l1410,-1754l420,-496l111,-86l45,53l140,16l79,-88l-71,-143l79,-72l-97,-43l75,-58l-24,-100l97,-2l54,81l124,78l392,-7l33,386l65,328l83,237l-22,242l6,398l18,288l66,337l68,227l239,666l189,419l42,162Z" /><path id="3201704" d="M-412388,-202775l-213,45l39,92l-5,104l-106,34l-54,165l-68,1l-14,-81l-85,-11l5,94l-111,38l-90,-99l30,-62l109,-59l5,-68l-75,-103l-84,-9l-89,-42l-11,-115l59,-41l-4,-83l-164,-58l-30,43l-108,-12l-101,-67l-60,-186l42,-78l-4,-151l115,-259l2,-133l89,20l77,-97l60,-1l65,-132l-32,-93l48,-51l-37,-299l26,-45l-45,-113l-3,-121l32,-105l-99,-62l58,12l121,-192l121,-51l175,127l-31,199l124,-43l225,5l60,-83l63,87l155,26l106,-22l23,114l-78,47l-9,69l-90,67l35,98l123,53l47,-88l105,36l32,58l-48,70l20,90l-56,65l183,147l49,109l-21,57l-152,12l-93,95l13,96l-83,133l-86,19l70,193l-56,92l106,126l169,79l100,-52l79,37l57,75l37,143l43,45l-75,147l-91,57l-109,26l-96,-114l-84,35l-212,-133l-140,32Z" /><path id="3201803" d="M-416602,-206375l-37,80l51,70l-42,130l-55,-10l37,264l-39,42l-2,128l-58,113l-158,115l-4,107l-44,44l-106,-12l-73,37l-8,87l-106,48l-156,-31l-52,107l-294,38l-76,-23l9,-146l72,-48l-69,-170l14,-72l-34,-109l-156,-176l-33,-115l61,-77l141,-24l42,-91l66,21l60,-65l-80,-79l35,-78l73,19l89,-34l26,-102l94,5l84,-82l76,-13l70,-121l232,-91l93,30l140,-22l69,46l107,12l-38,84l-78,30l57,134Z" /><path id="3201902" d="M-407521,-201762l-73,81l-64,2l-53,71l-320,-49l-59,-91l-142,95l-113,-63l4,-52l-186,-75l-140,-78l-31,36l-294,-151l-47,51l-199,-41l-27,55l-157,-20l-157,107l-91,-19l-65,-101l49,-116l-120,-142l-221,118l-97,29l-134,-10l18,-75l-63,-112l-71,38l-68,-81l-129,32l-15,104l-109,-1l8,-230l-103,-100l-18,-75l-208,-118l-123,69l-153,-15l-33,-151l-42,-37l22,-49l226,-49l62,-55l8,-195l99,-78l15,-66l-49,-71l112,-90l-53,-273l141,-33l80,-119l-40,-96l106,-49l18,-119l97,-174l-5,-206l-26,-69l50,-143l109,-27l209,3l-8,55l144,75l-56,125l32,75l-30,167l86,76l67,-17l70,-89l254,27l150,-51l177,23l176,-118l67,21l65,232l104,16l21,122l-79,98l71,25l149,137l270,41l114,40l91,-146l220,-62l126,-100l44,93l-7,118l63,67l24,131l109,58l85,126l134,38l124,-38l-55,-163l18,-104l-49,-62l118,-94l105,22l13,74l85,15l25,-80l120,-44l75,27l185,-8l30,44l189,-19l31,-52l-32,-102l54,-42l70,-132l94,-52l91,24l14,80l279,-11l130,39l177,20l102,52l73,124l-58,68l-73,-42l-117,25l19,92l-102,21l-88,78h-119l-2,104l73,111l15,162l42,74l-26,102l-1,198l-26,-14l-151,153l-45,109l-1,163l101,57l-138,-67l-72,102l-108,51l16,79l-89,50l-65,80l-243,-18l42,102l-104,52l-107,135l-155,-15l-213,69l-135,-8l-136,-47l-68,126Z" /><path id="3202009" d="M-417995,-204770l-259,-63l63,-203l40,-49l61,-228l47,-71l-78,-114l-163,-75l-61,-113l-68,-318l-44,-64l-74,-8l-33,-96l172,-76l187,-30l-7,-93l80,-162l-180,-152l-82,-149l-113,-78l-39,-143l-65,-12l26,-119l-69,-34l51,-170l-161,-81l-32,-99l49,-89l227,19l74,-133l23,47l-65,154l-6,180l46,37l87,-99l94,16l103,105l48,-67l103,-8l54,90l10,93l74,7l83,151l-67,20l-4,133l-70,110l220,230l-81,40l21,59l111,-13l58,74l96,27l-26,102l-89,34l-73,-19l-35,78l80,79l-60,65l-66,-21l-42,91l-141,24l-61,77l33,115l156,176l34,109l-14,72l69,170l-72,48l-9,146l-64,70l-57,184l-50,17Z" /><path id="3202108" d="M-407985,-179569l-97,49l-53,-63l-115,-54l-56,95l-171,-133l-52,-98l-60,-21l-39,-87l-143,58l-47,113l-94,-120l-112,-32l1291,-1214l4,-365l14,-118l-232,-41l-105,70l-190,37l-209,-5l-120,103l-62,4l-31,92l-121,99l-105,-40l-25,113l-178,-21l-155,-123l-74,-94h-83l-36,61l-75,-37l-29,-204l-77,3l-37,72l-83,49l-128,-47l-62,-194l-169,-14l-45,100l-135,-1l-57,-144l-57,76l-124,-6l-46,-137l-113,-27l-249,-139l0,-104l-112,-67l125,-178l-113,-67l67,-140l-5,-46l-238,-188l-72,-25l-46,-77l-90,-67l-16,-68l-162,-101l49,-214l34,-61l31,-177l-22,-126l16,-132l-115,-23l-29,-93l21,-120l162,-25l147,17l42,-54l113,67l142,2l42,105l88,64l-8,100l98,12l112,110l-15,69l104,50l26,76l135,-183l61,-10l-50,-201l75,-71l106,-14l90,66l75,-34l-46,-114l67,-66l83,11l92,-52l98,115l-63,64l165,9l85,86l118,-51l-48,-138l81,-36l56,70l56,-21l51,-130l-97,-100l88,-71l13,-83l153,101l82,18l64,-68l190,-5l104,17l182,-44l-52,-57l45,-140l-59,-34l88,-270l-13,-74l182,-68l151,24l58,51l178,15l14,120l128,-50l129,3l103,104l21,61l140,37l134,-37l206,-309l239,-108l114,-21l63,25l95,-34l82,-42l189,117l66,80l50,-11l250,91l280,20l93,-61l132,33l96,53l86,-28l-74,199l-91,22l-309,228l-55,76l-91,-50l-138,72l-14,82l-87,61l2,106l223,398l8,162l86,72l-69,49l-110,-17l-133,14l-44,167l-14,250l-81,114l600,565l58,2l11,130l61,145l-58,93l-47,173l29,94l-24,88l-77,48l27,130l-18,112l55,106l-16,48l-202,180l-97,-120l-79,3l-44,80l-82,-61l-70,66l18,91l-85,125l-67,19l16,86l-35,167l-91,167l-89,12l-93,64l-33,135l-193,26l-92,-26l-132,-110l-59,27l-66,164l-96,34l-270,-84l-75,56l-115,6l-30,68l39,102l-112,112l-102,-65l4,102l-66,146Z" /><path id="3202207" d="M-403461,-199069l-92,-57l-181,63l-513,-7l-3,136l-108,110l-64,233l-109,-95l-10,-110l-67,17l-47,89l-154,33l-16,108l-106,37l-120,-25l25,-23l-6,-202l147,-193l110,-91l31,-125l-1,-199l103,26l114,-28l-17,-93l48,-27l-19,-103l9,-168l34,-186l185,-118l126,-99l294,22l129,-83l68,-168l149,-71l83,101l173,72l103,6l208,57l102,-43l109,-85l94,18l50,-39l83,55l119,-128l193,169l157,-18l97,-56l51,-97l-18,-91l82,148l99,30l100,-22l48,30l-5,152l49,86l-67,22l-67,98l-159,28l-61,41l-184,50l-67,-99l-237,-111l-122,85l-82,-88l-52,-6l-105,210l36,103l-49,46l-126,-31l-147,65l-16,156l-192,71l-84,101l7,141l-56,60l-8,99l-78,11Z" /><path id="3202256" d="M-404307,-192580l43,138l59,60l-13,96l37,97l149,212l-91,87l-2,78l57,65l21,131l92,35l-46,102l-101,-16l-8,92l89,45l143,214l228,187l-18,105l-80,59l44,-81l-101,-53l-64,-103l-64,32l-197,-88l-185,11l-170,78l-63,-80l-99,-33l-73,21l-189,-11l-85,-100l-60,-16l13,-219l-44,-101l-187,56l-120,69l-211,2l-128,-122l13,-80l-82,-170l-103,-12l-121,-105l4,-84l-167,-112l9,-140l45,-74l-66,-130l18,-145l43,-14l10,-159l121,91l102,-111l112,-27l139,29l78,55l76,-83l128,-47l32,-42l-7,-111l-54,-11l-41,-93l122,-102l123,21l107,57l15,57l170,92l46,113l146,-66l97,136l83,3l97,-120l61,30l26,88l-57,103l56,21l43,93Z" /><path id="3202306" d="M-415994,-206645l-49,88l-138,72l-269,-31l29,115l-102,-13l-79,39l-57,-134l78,-30l38,-84l-107,-12l-69,-46l-140,22l-93,-30l-232,91l-70,121l-76,13l-84,82l-94,-5l-96,-27l-58,-74l-111,13l-21,-59l81,-40l-220,-230l70,-110l4,-133l67,-20l-83,-151l-74,-7l-10,-93l-54,-90l-103,8l-48,67l-103,-105l-94,-16l-87,99l-46,-37l6,-180l65,-154l-23,-47l91,-30l100,-82l-33,-58l118,-70l178,-40l52,72l188,-18l201,-69l152,-107l-27,-81l63,-103l-53,-56l-23,-131l49,-118l-25,-62l165,69l126,-24l-139,-243l79,-84l-37,-193l-152,-78l35,-154l101,16l50,104l60,4l72,95l94,8l44,-78l84,62l-14,57l62,86l78,181l84,11l97,-33l81,234l-21,99l32,84l105,19l47,-134l31,106l70,53l-60,229l29,109l67,49l-11,60l-102,-14l19,114l-67,144l133,127l-16,71l93,56l-20,46l76,180l87,3l-17,138l-76,85l-69,16l21,178l110,34l-31,99l21,90Z" /><path id="3202405" d="M-406262,-204679l-190,21l-109,56l-210,-85l23,-106l-99,-205l-105,-54l17,-210l-68,-10l-19,-94l145,-28l147,-54l10,-83l-85,-41l69,-76l84,79l157,90l113,-2l-64,-297l-32,-498l769,-1376l117,159l118,97l142,28l176,287l50,170l88,149l103,73l-38,67l66,70l81,28l70,-28l34,209l61,105l123,-4l98,-104l112,-26l109,175l153,204l18,167l118,269l138,202l-27,174l-948,113l-95,16l-534,323l-94,-31l-203,-12l-229,-57l-94,2l-51,-46l-215,194Z" /><path id="3202454" d="M-414102,-202303l-57,120l3,109l-2504,4l-53,-107l26,-103l-65,-143l2,-91l-73,-41l-11,-82l133,-58l-148,-209l68,-195l-27,-95l114,-7l322,267l59,16l91,143l18,78l159,6l153,51l225,-36l12,-74l116,-236l168,117h79l55,-71l102,119l98,46l71,-25l68,-101l13,-123l91,-78l-22,-128l56,-47l97,112l230,197l34,152l-90,70l57,41l115,203l151,102l64,97Z" /><path id="3202504" d="M-403461,-197799l-142,40l-95,67l-25,-89l-60,-64l-169,-21l-42,45l-123,-25l-20,-71l-127,-36l-111,82l-63,177l-80,115l-25,119l-116,-173l-123,-117l-75,-17l3,-115l-67,-86l-134,-85l-87,-260l91,-224l120,25l106,-37l16,-108l154,-33l47,-89l67,-17l10,110l109,95l64,-233l108,-110l3,-136l513,7l181,-63l92,57l0,1270Z" /><path id="3202553" d="M-415963,-205040l27,224l-57,49l-72,-31l-100,55l-24,98l-127,36l8,54l87,63l-4,58l-161,43l-32,139l100,141l-191,95l14,131l-110,70l-21,-150l-80,10l-74,-229l-75,-39l-37,61l-154,30l-121,163l-96,32l-124,120l-65,-10l-295,104l-39,-35l-124,16l21,-97l-63,-220l-71,-75l-11,-88l52,-128l-47,-80l36,-201l-2,-139l50,-17l57,-184l64,-70l76,23l294,-38l52,-107l156,31l106,-48l8,-87l73,-37l106,12l44,-44l4,-107l158,-115l58,-113l2,-128l39,-42l-37,-264l55,10l42,-130l-51,-70l37,-80l79,-39l102,13l-29,-115l269,31l138,-72l49,-88l-13,117l-95,69l-8,139l44,87l-176,72l5,169l-145,105l38,90l-55,71l72,84l117,-16l126,101l71,99l-35,96l15,226l70,96Z" /><path id="3202603" d="M-408386,-206876l-172,20l-86,68l-177,84l-278,-155l-62,-74l-8,-138l-81,-62l-59,-129l6,-73l67,-87l-78,-50l-159,-249l160,-95l133,-103l208,-232l201,4l101,87l116,-67l139,40l52,-44l83,46l0,-475l572,687l-28,119l19,82l-91,33l48,73l-84,82l-158,-64l-102,42l55,169l58,28l69,138l-101,26l-109,70l-114,144l-140,55Z" /><path id="3202652" d="M-415539,-202986l-116,236l-12,74l-225,36l-153,-51l-159,-6l-18,-78l-91,-143l-59,-16l-322,-267l-114,7l27,95l-68,195l148,209l-133,58l-119,-39l7,-110l-52,-79l-86,-56l41,-86l-125,-27l67,-66l-198,-112l-164,65l-134,-135l-170,-50l-197,-80l7,-86l112,-17l46,103l100,13l170,82l83,112l94,-11l66,-113l71,-34l86,-132l13,-79l60,-25l46,-86l11,-156l118,-9l76,92l118,-29l37,77l115,-25l42,-56l32,-136l84,-4l71,-59l36,-129l139,-25l49,110l95,67l41,92l91,42l-80,198l-61,39l293,147l72,-25l18,97l79,81l125,54l-63,192l-67,64Z" /><path id="3202702" d="M-408341,-195687l-172,81l-194,-146h-60l-61,-174l-92,-11l-61,-60l-157,-10l-157,-106l-55,-113l70,-97l-91,-99l52,-271l55,-67l52,-190l-86,-12l-73,-116l-72,-37l-30,-97l21,-94l-277,54l-106,-106l1,-182l-73,-66l-54,-367l23,-37l94,-44l62,56l110,3l96,-49l166,-6l37,-116l-46,-61l-109,-26l-53,-50l89,-123l-98,-104l43,-59l77,-27l144,62l176,115l66,-35l52,66l67,-8l117,70l554,-569l153,33l-108,75l-32,144l167,235l84,53l177,34l47,45l5,154l53,3l41,59l-44,68l16,130l-46,70l22,72l-59,150l75,128l9,322l38,281l95,141l36,194l-145,30l31,129l-114,19l52,190l-115,195l31,138l-61,10l-81,-94l-81,-46l-157,17l-41,-116l-99,-119l-182,-2l-71,137l72,54l-33,116l36,87l106,31l76,61Z" /><path id="3202801" d="M-408092,-209958l-18,190l23,175l52,176l85,165l180,209l40,115l54,8l91,135l-4,128l-691,-251l-238,46l-142,-68l-248,33l-353,-15l-187,49l-69,57l-279,112h-266h-334l-137,-96l-39,-130l43,-111l-133,-48l-32,-91l-109,-42l4,-124l-130,-198l-55,-43l-87,5l-128,-92l129,-35l79,-152l-96,-7l-17,-107l69,-56l-139,-99l120,-31l75,39l229,-99l573,208l-1,-116l-105,-69l2,-46l-117,-40l92,-174l77,-74l41,-96l74,4l161,-67l106,22l122,-112l125,-3l143,-333l74,121l51,165l-34,89l22,175l36,81h110l77,55l92,-80l132,-57l66,30l71,-73l161,67l118,78l389,498Z" /><path id="3202900" d="M-408141,-198882l-153,-33l-554,569l-117,-70l-67,8l-52,-66l-66,35l-176,-115l-144,-62l-77,27l141,-133l47,2l21,-234l90,-57l-96,-52l-100,47l-42,-161l-15,-226l-92,-167l33,-77l-145,-123l0,-427l65,-89l-48,-104l98,-187l46,-140l68,-25l35,122l102,10l119,54l107,-7l68,57l3,63l102,20l61,123l108,-22l100,87l-2,133l98,119l41,119l119,37l155,-47l182,114l39,-13l80,120l100,36l105,195l7,90l-86,16l-54,59l-12,90l-72,64l-182,6l-15,57l27,158Z" /><path id="3203007" d="M-416834,-202637l11,82l73,41l-2,91l65,143l-26,103l53,107l-908,1l-68,-111l-35,-113l-27,-258l-52,-50l-55,-219l42,-44l-58,-81l-210,-47l-38,-83l-152,-34l-74,-127l-238,-270l8,-62l-70,-161l144,-45l-3,-88l54,-55l34,-174l39,-34l293,-97l11,88l71,75l63,220l-21,97l124,-16l39,35l295,-104l65,10l124,-120l96,-32l121,-163l154,-30l37,-61l75,39l74,229l80,-10l21,150l110,-70l-14,-131l191,-95l-100,-141l32,-139l161,-43l4,-58l-87,-63l-8,-54l127,-36l24,-98l100,-55l72,31l57,-49l-27,-224l193,43l30,58l-52,157l20,117l-72,71l70,47l50,101l-60,165l143,1l83,-73l134,32l70,-70l119,-6l208,72l194,162l74,40l20,160l68,90l-6,178l-32,71l87,107l-58,73l38,87l-93,28l-25,52l-56,47l22,128l-91,78l-13,123l-68,101l-71,25l-98,-46l-102,-119l-55,71h-79l-168,-117l67,-64l63,-192l-125,-54l-79,-81l-18,-97l-72,25l-293,-147l61,-39l80,-198l-91,-42l-41,-92l-95,-67l-49,-110l-139,25l-36,129l-71,59l-84,4l-32,136l-42,56l-115,25l-37,-77l-118,29l-76,-92l-118,9l-11,156l-46,86l-60,25l-13,79l-86,132l-71,34l-66,113l-94,11l-83,-112l-170,-82l-100,-13l-46,-103l-112,17l-7,86l197,80l170,50l134,135l164,-65l198,112l-67,66l125,27l-41,86l86,56l52,79l-7,110l119,39Z" /><path id="3203056" d="M-397411,-191489l-386,476l-816,1045l-18,43l-212,218l-172,118l-123,144l-56,115l-98,33l-322,347l-48,143l-142,5l-89,32l-186,-172l5,807l-95,-11l-94,64l-241,-33l-84,63l-153,39l-114,-19l-79,45l-216,232l-94,-13l-833,-1077l14,-221l86,-49l20,-125l115,-72l-16,-80l51,-52l157,-91l180,-32l120,-81l364,-81l64,-59l171,-48l160,18l60,-37l114,13l94,-50l69,10l142,-66l87,-2l235,-129l41,-134l92,-52l129,-119l52,-94l137,-29l39,-93l127,5l121,70l116,-6l106,58l65,-37l-49,-122l60,-57l45,-116l-56,-63l-88,-30l7,-75l101,-17l4,-129l177,-54l81,-75l80,4l60,-160l84,13l238,-102l86,6l178,-82l143,-40l99,23l104,97Z" /><path id="3203106" d="M-413374,-208635l19,99l-73,26l19,185l-69,213l58,161l-117,136l11,124l75,20l73,100l-9,115l135,146l-178,64l-88,-53l-73,80l73,151l-89,116l-102,13l-123,98l-54,-185l-78,-45l32,-120l-161,-416l-89,-205l-107,-89l-134,-52l-29,-66l-82,-37l-21,-161l17,-109l-56,-45l10,-185l-53,-110l72,-38l-30,-109l42,-120l103,-151l137,31l47,117l7,193l115,216l86,-25l348,-197l287,-4l49,118Z" /><path id="3203130" d="M-403495,-196682l-115,57l-93,92l-39,107l32,184l-55,17l-422,-188l-445,106l-141,-115l-85,20l-21,-116l-203,-137l-85,-121l-106,-380l91,-170l-4,-120l-61,-219l-19,-196l-63,-22l26,-181l91,-93l70,-156l87,260l134,85l67,86l-3,115l75,17l123,117l116,173l25,-119l80,-115l63,-177l111,-82l127,36l20,71l123,25l42,-45l169,21l60,64l25,89l95,-67l142,-40l0,737l-51,64l-26,136l43,180Z" /><path id="3203163" d="M-409938,-198010l-112,-47l-101,76l-18,122l-65,38l-137,-63l-95,114l-73,145l-79,-99l-200,-51l-154,-101l-130,22l-47,-83l-98,48l5,159l-152,20l-141,91l-211,-53l29,-111l-22,-78l80,-64l18,-139l-107,-184l-105,-54l96,-92l-83,-94l5,-192l-14,-210l-21,-25l99,-148l91,11l127,143l103,-6l190,-254l-18,-53l33,-129l83,-68l59,-148l-65,-116l42,-49l102,91l62,-63l97,-6l183,-157l119,2l99,96l301,61l96,101l112,-3l7,-93l161,-91l82,24l145,123l-33,77l92,167l15,226l42,161l100,-47l96,52l-90,57l-21,234l-47,-2l-141,133l-43,59l98,104l-89,123l53,50l109,26l46,61l-37,116l-166,6l-96,49l-110,-3l-62,-56l-94,44Z" /><path id="3203205" d="M-397411,-191489l-104,-97l-99,-23l-143,40l-178,82l-86,-6l-238,102l-84,-13l-60,160l-80,-4l-81,75l-177,54l-4,129l-101,17l-7,75l88,30l56,63l-45,116l-60,57l49,122l-65,37l-106,-58l-116,6l-121,-70l-127,-5l-39,93l-137,29l-52,94l-129,119l-92,52l-41,134l-235,129l-209,-436l160,-79l-47,-67l-67,18l-154,-94l-537,-1090l135,10l165,-66l41,9l163,-104l-468,-499l4,86l-132,41l-31,59l-110,55l-88,-14l55,-97l-48,-73l-201,110l-90,15l-28,130l-53,102l-353,10l11,-91l-27,-194l64,-105l56,-28l-1,-91l-220,-986l-693,-268l-31,72l-75,-30l-140,87l-9,211l-50,195l-219,-604l-34,67l-93,18l13,106h-216l-53,41l-167,-149l-71,12l-112,76l11,88l-74,57l-105,200h-159l-36,57l108,65l39,91l-14,81l63,82l-7,158l-148,126l-43,-93l-56,-21l57,-103l-26,-88l-61,-30l-97,120l-83,-3l-97,-136l-146,66l-46,-113l-170,-92l-15,-57l-55,-119l-106,-67l-55,-111l73,-34l80,29l187,-158l19,-103l106,5l113,-52l-53,-92l102,-63l125,-123l23,-74l-39,-73l107,-94h49l63,-110l-56,-26l-43,-105l8,-78l92,-51l-6,-64l47,-135l-1,-106l93,-72l51,-82l235,-10l195,-264l41,-143l-17,-60l-173,-56l-7,-121l134,-241l56,-186l-63,-56l55,-17l-32,-184l39,-107l93,-92l115,-57l86,21l-37,141l105,103l124,-59l25,-76l97,28l39,80l96,24l-15,106l86,7l3,75l208,58l7,74l92,38l2,66l358,169l110,-32l76,30l34,109l74,8l117,110l87,1l46,64l269,-23l205,45l109,-22l237,-116l102,-148l111,-61l83,36l67,-19l45,-92l134,-132l1196,-801l309,152l311,116l224,57l83,-12l82,61l18,154l54,87l251,491l117,255l193,457l170,368l60,200l184,468l96,347l38,267l36,353l-24,317l-124,641l-65,420l-89,701h-18l-16,-425l-89,-6l-95,-88Z" /><path id="3203304" d="M-410254,-188372l-583,6l-138,-57l-130,34l-95,212l8,76l-108,27l-35,106l-133,-12l-22,5l-834,2l-81,-189l-46,-43l73,-143l-61,-88l7,-102l131,-46l61,-102l92,-90l70,224l72,-75l139,-14l203,59l72,-62l62,-222l92,17l67,-57l103,-39l63,-135l61,-47l-18,-63l125,-151l134,-7l253,-100l1484,40l106,3l81,392l-3,7l-1272,634Z" /><path id="3203320" d="M-409261,-211902l93,147l126,120l121,75l157,171l180,113l22,99l137,292l103,350l36,79l68,31l93,106l76,273l-43,88l-389,-498l-118,-78l-161,-67l-71,73l-66,-30l-132,57l-92,80l-77,-55h-110l-36,-81l-22,-175l34,-89l-51,-165l-74,-121l-48,-272l32,-342l76,-115l136,-66Z" /><path id="3203346" d="M-406253,-204242l-94,52l-70,132l-54,42l32,102l-31,52l-189,19l-30,-44l-185,8l-75,-27l-120,44l-25,80l-85,-15l-13,-74l-105,-22l-118,94l49,62l-18,104l55,163l-124,38l-134,-38l-85,-126l-109,-58l-24,-131l-63,-67l7,-118l-44,-93l-126,100l-220,62l-91,146l-114,-40l-270,-41l-149,-137l-71,-25l79,-98l-21,-122l-104,-16l-65,-232l-67,-21l104,-132l324,-30l17,-132l66,-105l61,-32l138,69l49,-33l201,47l80,-35l-12,-129l-122,-183l129,-31l159,136l104,11l37,89l251,-8l105,137l78,144l124,122l117,-18l29,129l-59,60l97,62l163,5l34,-62l114,-95h133l42,-101l109,-56l190,-21l-62,56l103,269l-32,112Z" /><path id="3203353" d="M-405090,-193130l-107,-57l-123,-21l-122,102l-50,-101l-223,-66l12,-67l-129,-7l-87,-40l-129,-132l-171,54l-53,-15l-85,-303l-58,-61l29,-145l50,-76l-19,-102l22,-168l85,-143l109,85l157,9l15,77l65,20l112,-26l109,-76l-11,-101l36,-109l127,-226l116,-77l76,-12l43,-81l153,-76l30,-63l121,-53l140,-137l172,-48l331,31l439,-85l172,64l-195,264l-235,10l-51,82l-93,72l1,106l-47,135l6,64l-92,51l-8,78l43,105l56,26l-63,110h-49l-107,94l39,73l-23,74l-125,123l-102,63l53,92l-113,52l-106,-5l-19,103l-187,158l-80,-29l-73,34l55,111l106,67l55,119Z" /><path id="3203403" d="M-414553,-208933l-154,-37l-52,135l-112,-23l-35,-98l-81,1l-59,-113l-117,92l21,78l-233,69l-143,-80l-113,-21l-167,-184l15,-90l-88,-88l43,-182l98,-22l5,-82l298,-87l173,38l63,-111l-20,-83l142,-84l82,11l-2,-124l-52,-18l-4,-132l-63,-52l37,-228l-86,-192l128,-81l-61,-143l-41,-201l138,-38l53,-130l-63,-129l-90,-118l-129,28l-236,-43l-26,-60l-129,-77l36,-101l90,-97l183,30l103,-73l85,115l92,-68l159,27l74,-137l95,-92l234,-127l110,-2l187,156l134,18l146,-8l186,-51l316,-26l56,-87l69,-31l96,51l127,-151l209,-62l64,-53l77,74l76,-5l44,79l151,49l193,-125l90,-30l227,-127l72,92l76,-53l353,71l32,102l-207,-33l-152,-3l-109,26l-81,354l16,141l-38,125l-61,96l-107,275l-120,172l29,165l-35,71l-72,25l-29,76l47,67h71l276,104l-32,106l-58,22l-53,113l-74,56l-127,253l-96,-51l-75,-135l-144,-7l-77,62l-41,93l-84,84l-91,-25l-150,62l-84,-71l-60,-4l-76,79l-93,9l-81,70l-49,-54l-101,-4l-78,-125l-91,-9l-347,5l-618,172l299,668l-26,160l-103,151Z" /><path id="3203502" d="M-402224,-179804l-131,50l-199,36l-132,102l-71,-10l-153,108l-1,49l-140,-8l-48,68l-135,20l-106,115l-115,36l-101,-67l-128,76l-50,-71l-40,-21l-36,-219l-76,-68l-100,-421l-6,-104l84,-191l-290,-540l-34,-105l25,-99l-183,-118l-37,-64l-46,-157l38,-133l117,-86l-25,-35l121,-157l-32,-121l55,-171l-40,-44l13,-151l-54,-171l21,-96l93,34l188,-20l72,-175l210,14l55,-63l178,-8l60,-167l210,-109l258,-57l169,53l109,-90l153,-43l92,110l68,-44l107,15l10,129l109,93l153,-73l123,44l362,65l28,40l153,82l396,945l-50,191l-113,101l-16,99l85,91l16,196l-63,170l-60,38l-180,31l-10,59l-425,245l-132,251l-178,46l-67,65l-90,226l-18,172l-20,12Z" /><path id="3203601" d="M-403684,-179229l-42,-47l-139,-8l-28,36l-139,13l-142,-35l-277,82l-142,-17l-34,-77l-139,102l-75,94l-62,12l-103,-43l-80,46l-82,127l-102,25l-90,-46l-44,-63l-275,-132l-168,-22l-25,-208l-100,30l-123,-17l-58,-46l27,-72l-93,-111l77,-59l-101,-94l-19,-152l-114,6l-84,-31l-55,-133l-105,-58l33,-135l93,-64l89,-12l91,-167l35,-167l-16,-86l67,-19l85,-125l-18,-91l70,-66l82,61l44,-80l79,-3l97,120l202,-180l16,-48l-55,-106l18,-112l81,127l65,20l46,138l127,-30l60,-70l88,-26l37,-83l236,22l39,-20l153,101l86,31l163,-53l37,64l183,118l-25,99l34,105l290,540l-84,191l6,104l100,421l76,68l36,219l40,21l50,71Z" /><path id="3203700" d="M-413105,-202694l-66,121l-178,139l-132,6l-24,87l119,101l-52,151l-62,108l-232,-54l-36,-153l-47,-47l-112,-25l-48,-56l-127,13l-64,-97l-151,-102l-115,-203l-57,-41l90,-70l-34,-152l-230,-197l-97,-112l25,-52l93,-28l-38,-87l58,-73l-87,-107l32,-71l6,-178l-68,-90l-20,-160l-74,-40l-194,-162l-208,-72l-119,6l-70,70l-134,-32l-83,73l-143,-1l60,-165l-50,-101l-70,-47l72,-71l-20,-117l52,-157l-30,-58l-193,-43l-70,-96l-15,-226l35,-96l173,-154l25,-82l97,-67l64,1l159,105h86l100,52l57,118l237,14l-5,-117l31,-123l-23,-88l58,-156l75,-35l1,-70l92,-15l53,42l-41,89l84,127l96,-14l84,35l11,77l117,107l36,-35l149,-27l50,-55l81,120l8,139l53,10l105,-75l25,120l146,47l-56,89l23,150l218,62l102,-68l158,-9l86,76l-79,93l99,62l-32,105l3,121l45,113l-26,45l37,299l-48,51l32,93l-65,132l-60,1l-77,97l-89,-20l-2,133l-115,259l4,151l-42,78l60,186l101,67l108,12l30,-43l164,58l4,83l-59,41l11,115l89,42Z" /><path id="3203809" d="M-412448,-208686l51,103l14,109l-207,-52l-74,15l-206,-39l2,56l-87,83l-19,-146l-232,37l-33,-65l-135,-50l-49,-118l-287,4l-348,197l-86,25l-115,-216l-7,-193l-47,-117l-137,-31l26,-160l-299,-668l618,-172l347,-5l91,9l78,125l101,4l49,54l81,-70l93,-9l76,-79l60,4l84,71l150,-62l91,25l84,-84l41,-93l77,-62l144,7l75,135l96,51l72,181l-37,170l-136,118l-19,107l-93,48l-102,-26l-6,-52l-200,-44l-33,76l69,55l-9,144l38,22l123,310l-29,118l201,150Z" /><path id="3203908" d="M-404561,-184120l-136,18l-154,-31l-67,35l-52,198l-120,-6l-75,67l-130,187l-194,56l-119,-41l-98,38l-125,-87l-223,-398l-2,-106l87,-61l14,-82l138,-72l91,50l55,-76l309,-228l91,-22l74,-199l-86,28l-96,-53l-132,-33l-122,-121l-21,-160l31,-119l-36,-200l14,-132l46,-65l76,-8l3,-74l105,-35l73,-79l-11,-140l94,-46l74,-117l180,20l75,-103l-36,-193l133,-66l-364,-86l-225,-198l-57,-10l-531,-348l-85,10l-174,-57l-137,10l-118,189l-168,43l-270,-37l-98,26l-154,-10l92,-84l-46,-128l3,-205l-26,-111l-132,-82l-4,-36l-157,-18l-47,-60l-48,-165l-155,-13l62,-244l-88,4l37,-148l106,2l31,-70l-41,-84l94,58l85,4l88,-94l141,26l99,-132l-25,-124l-60,-2l-96,-66l-78,21l59,-173l-79,-54l22,-129l-45,-42l12,-146l80,-46l85,56l160,-96l80,17l-12,84l278,-37l15,-97l76,-31l86,25l62,73l59,-33l103,58l11,-92l154,-66l135,66l109,116l71,237l128,166l152,60l107,96l159,84l80,-39l200,70l161,105l131,32l450,-19l111,30l162,11l-39,163l20,79l92,56l-10,108l38,61l-29,224l159,104l167,167l137,93l47,132l71,64l521,1490l-178,40l-287,-80l-74,115l61,89l-126,74l-37,53l-213,4l-134,83l-87,-66l-115,33l-172,-2l-47,209l91,69l-169,146l-50,-21l-110,65l3,76l-77,39l29,159l-81,73l64,102l-3,62l-89,83l64,112l95,63l-76,68Z" /><path id="3204005" d="M-406913,-191499l-14,104l-65,68l102,55l29,160l-146,36l-124,-6l-44,108l28,198l73,47l38,119l-84,51l-122,16l-55,199l-105,52l-5,62l-109,113l-49,117l-120,51l-102,-69l-44,-192l-58,-48l-151,19l-129,76l-215,-60l-204,6l10,813l-482,-1l-106,-3l-67,-44l-147,-18l-89,19l19,-146l-58,-465l66,81l192,-19l21,-73l69,-34l84,34l120,-57l4,-129l-59,-160l21,-87l-126,-69l-28,-71l-100,-11l-83,-60l-169,-75l108,-146l-105,-41l-59,-58l-67,4l-24,-188l82,-70l-58,-150l138,25l41,-58l-27,-90l61,-69l-5,-173l152,-91l-35,-42l64,-92l-124,-196l115,-93l138,-48l83,23l135,-12l-33,-80l18,-77l96,-38l48,-95l-188,-165l0,-65l166,-18l150,-109l2,-73l-126,-52l-55,-126l34,-89l138,42l25,74l176,-109l118,-48l43,-127l67,-56l55,73l-29,214l96,148l0,99l211,54l31,57l152,-14l122,-41l63,44l124,16l84,46l115,-104l70,72l25,80l3,205l39,53h83l-52,150l135,57l45,-40h102l82,99l9,109l50,65l3,102l-98,-17l-2,86l52,97l83,69l-26,122l-86,-13l-9,75l-111,35l-17,146l-113,-75Z" /><path id="3204054" d="M-402204,-179816l18,-172l90,-226l67,-65l178,-46l132,-251l425,-245l10,-59l180,-31l60,-38l63,-170l-16,-196l-85,-91l16,-99l113,-101l50,-191l-396,-945l63,-45l130,17l164,-53l267,39l59,-76l97,-8l167,-77l174,72l285,-4l55,-60l185,-40l100,-138l351,-34l-9,96l-130,86l-37,88l23,118l44,30l43,173l-153,123l58,77l80,6l143,218l75,12l66,123l-38,109l-81,100l-1083,693l-414,261l-1589,1020Z" /><path id="3204104" d="M-404259,-182572l-92,63h-164l-89,36l-89,-16l-107,-70l-63,-1105l112,-95l127,37l45,-30l144,131l86,8l111,-41l210,-199l152,51l48,-19l151,53l129,-11l78,-97l171,-142l48,-88l62,-294l93,-18l40,-60l-26,-90l145,-166l3,-54l90,-47l123,-109l249,-22l324,45l150,54l124,106l108,47l135,-42l266,-109l119,-20l183,21l159,-14l112,56l83,115l118,63l29,68l132,128l131,7l102,66l179,50l107,-45l169,-6l137,42l133,90l104,125l-22,125l-201,543l7,215l75,78l-44,43l-100,138l-185,40l-55,60l-285,4l-174,-72l-167,77l-97,8l-59,76l-267,-39l-164,53l-130,-17l-63,45l-153,-82l-28,-40l-362,-65l-123,-44l-153,73l-109,-93l-10,-129l-107,-15l-68,44l-92,-110l-153,43l-109,90l-169,-53l-258,57l-210,109l-60,167l-178,8l-55,63l-210,-14l-72,175l-188,20l-93,-34Z" /><path id="3204203" d="M-407012,-208346l-80,50l-9,72l-123,60l-49,83l-95,9l-102,73l-35,120l-203,6l-572,-687l0,-348l691,251l125,156l181,79l86,-42l185,118Z" /><path id="3204252" d="M-404427,-181250l-163,53l-86,-31l-153,-101l-39,20l-236,-22l-37,83l-88,26l-60,70l-127,30l-46,-138l-65,-20l-81,-127l-27,-130l77,-48l24,-88l-29,-94l47,-173l58,-93l-61,-145l-11,-130l-58,-2l-600,-565l81,-114l14,-250l44,-167l133,-14l110,17l69,-49l-86,-72l-8,-162l125,87l98,-38l119,41l194,-56l130,-187l75,-67l120,6l52,-198l67,-35l154,31l136,-18l52,53l-361,293l7,110l63,1105l107,70l89,16l89,-36h164l92,-63l-21,96l54,171l-13,151l40,44l-55,171l32,121l-121,157l25,35l-117,86l-38,133l46,157Z" /><path id="3204302" d="M-409457,-211107l-143,333l-125,3l-122,112l-106,-22l-161,67l-74,-4l-41,96l-77,74l-92,174l117,40l-2,46l105,69l1,116l-573,-208l-229,99l-75,-39l-120,31l-89,-19l-56,-162l-118,-80l-83,3l18,-101l-101,-134l-156,-13l-124,-62l-60,75l-276,-104h-71l-47,-67l29,-76l72,-25l35,-71l-29,-165l120,-172l107,-275l61,-96l38,-125l-16,-141l81,-354l109,-26l152,3l207,33l98,-24l117,12l102,90h159l302,-150l194,-205l155,93l90,-61l105,-9l67,-145l-11,-112l43,-79l180,-40l123,-59l37,-48l-10,357l45,190l75,168l239,394l-136,66l-76,115l-32,342l48,272Z" /><path id="3204351" d="M-402883,-190754l-166,-89l-126,24l-103,49l-188,-62l-63,92l-125,77l-94,-129l0,-1l80,-59l18,-105l-228,-187l-143,-214l-89,-45l8,-92l101,16l46,-102l-92,-35l-21,-131l-57,-65l2,-78l91,-87l-149,-212l-37,-97l13,-96l-59,-60l-43,-138l148,-126l7,-158l-63,-82l14,-81l-39,-91l-108,-65l36,-57h159l105,-200l74,-57l-11,-88l112,-76l71,-12l167,149l53,-41h216l-13,-106l93,-18l34,-67l219,604l50,-195l9,-211l140,-87l75,30l31,-72l693,268l220,986l1,91l-56,28l-64,105l27,194l-11,91l-13,168l-36,67l-144,30l-80,87l-205,82l12,140l-55,55l58,63l-144,179l-97,56l-52,129l-193,82l-16,32Z" /><path id="3204401" d="M-409099,-206859l-198,77l-74,-93l-99,-64l-123,-24l-36,-155l67,-34l-101,-208l5,-99l-100,-177l-186,-178l35,-64l-45,-51l110,-92l-26,-67l79,-120l-9,-75l-97,-43l52,-244l-23,-40l72,-84l279,-112l69,-57l187,-49l353,15l248,-33l142,68l238,-46l0,348l0,475l-83,-46l-52,44l-139,-40l-116,67l-101,-87l-201,-4l-208,232l-133,103l-160,95l159,249l78,50l-67,87l-6,73l59,129l81,62l8,138l62,74Z" /><path id="3204500" d="M-404545,-199465l-106,16l3,-80l-202,-106l-51,86h-209l-23,-264l-125,61l-78,-52l15,-58l-103,-102l-23,65l-287,-2l-71,50l-58,-29l-78,86l-51,-7l-2,-168l-58,-53l38,-104l-210,-335l79,-217l109,-27l9,-117l-66,-93l-152,-155l-123,-26l-70,177l-163,22l-150,-39l19,-77l-50,-57l27,-88l-45,-81l-36,-149l-205,-60l-104,-49l-30,-70l-103,-39l-63,-88l-114,-91l-66,23l68,-126l136,47l135,8l213,-69l155,15l107,-135l104,-52l-42,-102l243,18l65,-80l89,-50l-16,-79l108,-51l72,-102l138,67l32,-64l-48,-99l7,-69l377,-18l272,139l38,103l243,171l64,-64l86,-25l191,169l375,-64l99,3l131,-42l230,83l116,81l-101,156l15,77l-82,136l-123,108l-91,-27l-35,75l-66,2l-86,118l-56,151l24,404l172,783l-126,99l-185,118l-34,186l-9,168l19,103l-48,27Z" /><path id="3204559" d="M-406052,-200022l-112,44l-77,144l36,51l-97,137l-135,-112l-183,-52l-7,74l-93,99l-106,-34l-22,-84l-119,-52l-88,64l-127,-77l-83,39l-152,-64l-63,86l-79,29l-11,113l54,128l-72,41l-88,-10l-78,36l-105,-195l-100,-36l-80,-120l-39,13l-182,-114l-155,47l-119,-37l-41,-119l-98,-119l2,-133l-100,-87l-108,22l-61,-123l-102,-20l-3,-63l-68,-57l-107,7l-119,-54l-102,-10l-35,-122l17,-90l-164,-120l-105,-155l-79,3l-54,-102l-136,-33l4,134l-125,-25l-211,-127l-34,-67l78,-102l108,-71l14,-117l-51,-88l74,-45l-54,-160l100,-39l106,-153l-39,-45l221,-118l120,142l-49,116l65,101l91,19l157,-107l157,20l27,-55l199,41l47,-51l294,151l31,-36l140,78l186,75l-4,52l113,63l142,-95l59,91l320,49l53,-71l64,-2l73,-81l66,-23l114,91l63,88l103,39l30,70l104,49l205,60l36,149l45,81l-27,88l50,57l-19,77l150,39l163,-22l70,-177l123,26l152,155l66,93l-9,117l-109,27l-79,217l210,335l-38,104Z" /><path id="3204609" d="M-405186,-197446l-175,44l-91,-8l-71,70l-86,-76l-86,2l-222,-132l-182,-21l-50,-72l-107,-17l-9,-52l-143,-39l-63,29l-298,-74l-56,58l-123,-6l-38,-108l-109,-68l21,-52l-6,-194l-152,-55l-47,-63l-117,9l-71,-40l-143,39l-138,133l-53,-3l-5,-154l-47,-45l-177,-34l-84,-53l-167,-235l32,-144l108,-75l-27,-158l15,-57l182,-6l72,-64l12,-90l54,-59l86,-16l-7,-90l78,-36l88,10l72,-41l-54,-128l11,-113l79,-29l63,-86l152,64l83,-39l127,77l88,-64l119,52l22,84l106,34l93,-99l7,-74l183,52l135,112l97,-137l-36,-51l77,-144l112,-44l58,53l2,168l51,7l78,-86l58,29l71,-50l287,2l23,-65l103,102l-15,58l78,52l125,-61l23,264h209l51,-86l202,106l-3,80l106,-16l17,93l-114,28l-103,-26l1,199l-31,125l-110,91l-147,193l6,202l-25,23l-91,224l-70,156l-91,93l-26,181l63,22l19,196l61,219Z" /><path id="3204658" d="M-404582,-190483l-95,31l-114,-35l-75,18l-89,-83l-134,-50l-150,24l-181,139l-51,-53l-90,32l-58,-30l-179,-193l-27,32l-156,25l-87,-117l-256,-105l-106,12l-117,-62l-58,-103l-111,26l-121,-65l50,-165l-9,-49l-98,-91l-19,-154l113,75l17,-146l111,-35l9,-75l86,13l26,-122l-83,-69l-52,-97l2,-86l98,17l-3,-102l-50,-65l-9,-109l345,-114l35,-146l74,-155l66,-41l-10,159l-43,14l-18,145l66,130l-45,74l-9,140l167,112l-4,84l121,105l103,12l82,170l-13,80l128,122l211,-2l120,-69l187,-56l44,101l-13,219l60,16l85,100l189,11l73,-21l99,33l63,80l170,-78l185,-11l197,88l64,-32l64,103l101,53l-44,81l0,1l-35,-47l-157,-1l-16,39l-215,52l-124,12l-175,221l-112,33Z" /><path id="3204708" d="M-403730,-188497l-111,9l-176,-21l-162,-11l-111,-30l-450,19l-131,-32l-161,-105l-200,-70l-80,39l-159,-84l-107,-96l-152,-60l-128,-166l-71,-237l-109,-116l-135,-66l-154,66l-11,92l-103,-58l-59,33l-62,-73l62,-94l-12,-84l57,-52l-61,-91l89,-21l86,-67l-104,-221l99,-144l128,19l64,-195l59,14l90,-64l284,-62l82,100l78,-34l90,-32l51,53l181,-139l150,-24l134,50l89,83l75,-18l114,35l95,-31l58,36l72,112l55,30l62,106l-11,48l-150,95l29,102l-152,8l33,157l-41,19l-18,139l272,112l119,-26l61,-55l125,55l-4,78l262,35l73,-35l7,970Z" /><path id="3204807" d="M-416282,-208618l-47,134l-105,-19l-32,-84l21,-99l-81,-234l-97,33l-84,-11l-78,-181l-62,-86l14,-57l-84,-62l-44,78l-94,-8l-72,-95l-60,-4l-50,-104l-101,-16l79,-73l86,-26l-7,-118l79,-258l-55,-5l-68,-179l79,-62l-9,-69l-78,-36l-20,-70l34,-101l56,-38l-164,-196l91,-6l19,-63l-97,-140l-46,-153l96,-42l94,17l83,142l66,-19l93,60l87,-39l57,105l174,10l82,-67l199,159l30,121l90,60l34,187l48,16l78,128l76,-19l58,130l4,48l93,126l-36,167l60,127l68,31l-5,82l-98,22l-43,182l88,88l-15,90l-43,120l-147,85l-27,-100l-118,6l21,79l-69,172l-101,134Z" /><path id="3204906" d="M-400299,-184441l-131,-7l-132,-128l-29,-68l-118,-63l-83,-115l-112,-56l-159,14l-183,-21l-82,-90l-170,-107l-81,-18l-75,-103l35,-142l-55,-116l-412,-253l10,-113l-116,48l-108,-47l-89,49l-77,94l-170,-15l-51,-56l-156,-14l-521,-1490l-71,-64l-47,-132l-137,-93l-167,-167l-159,-104l29,-224l-38,-61l10,-108l-92,-56l-20,-79l39,-163l176,21l111,-9l161,40l331,-49l110,33l167,14l32,45l92,-27l55,65l165,-8l52,-59l56,-198l104,9l142,-144l139,-5l47,-64l833,1077l94,13l216,-232l79,-45l114,19l153,-39l84,-63l241,33l94,-64l95,11l-5,-807l186,172l89,-32l142,-5l48,-143l322,-347l98,-33l56,-115l123,-144l172,-118l212,-218l18,-43l816,-1045l386,-476l95,88l89,6l16,425h18l-95,670l-21,218l-47,306l-12,219l-60,196l-20,442l-50,538l15,577l23,533l-5,209l-392,7l-124,-78l-54,-81l-97,2l24,100l-75,58l97,43l-79,72l71,143l-79,88l-140,-16l-45,-53l-111,86l-420,496l-1410,1754Z" /><path id="3204955" d="M-405273,-197156l-117,56l-97,-31l-83,65l-21,129l-74,77l-139,1l-80,220l-149,-92l-496,298l-185,133l-151,60l-207,-25l-160,19l-29,-174l-127,-2l-177,-102l-36,-194l-95,-141l-38,-281l-9,-322l-75,-128l59,-150l-22,-72l46,-70l-16,-130l44,-68l-41,-59l138,-133l143,-39l71,40l117,-9l47,63l152,55l6,194l-21,52l109,68l38,108l123,6l56,-58l298,74l63,-29l143,39l9,52l107,17l50,72l182,21l222,132l86,-2l86,76l71,-70l91,8l175,-44l4,120l-91,170Z" /><path id="3205002" d="M-401918,-200545l18,91l-51,97l-97,56l-157,18l-193,-169l-119,128l-83,-55l-50,39l-94,-18l-109,85l-102,43l-208,-57l-103,-6l-173,-72l-83,-101l-149,71l-68,168l-129,83l-294,-22l-172,-783l-24,-404l56,-151l86,-118l66,-2l35,-75l91,27l123,-108l82,-136l-15,-77l101,-156l77,-41l37,-144l228,-170l12,-102l90,2l20,131l-24,73l183,26l86,81l45,-97l249,-18l50,18h470l61,-36l-10,71l174,194l4,78l79,150l19,171l45,89l-6,188l28,139l96,264l-22,176l9,135l-27,54l-158,172Z" /><path id="3205010" d="M-400025,-189950l-87,2l-142,66l-69,-10l-94,50l-114,-13l-60,37l-160,-18l-171,48l-64,59l-364,81l-120,81l-180,32l-157,91l-51,52l16,80l-115,72l-20,125l-86,49l-576,-1263l-244,-425l16,-32l193,-82l52,-129l97,-56l144,-179l-58,-63l55,-55l-12,-140l205,-82l80,-87l144,-30l36,-67l13,-168l353,-10l53,-102l28,-130l90,-15l201,-110l48,73l-55,97l88,14l110,-55l31,-59l132,-41l-4,-86l468,499l-163,104l-41,-9l-165,66l-135,-10l537,1090l154,94l67,-18l47,67l-160,79l209,436Z" /><path id="3205036" d="M-409881,-204368l-70,89l-67,17l-86,-76l30,-167l-32,-75l56,-125l-144,-75l8,-55l-209,-3l51,-121l83,-110l-3,-95l-183,-72l-45,74l-71,-81l105,-119l279,11l3,-96l-161,-151l-7,-85l-58,-34l-75,57l-99,-21l-87,-125h-92l-12,-82l104,-64l-30,-170l-82,-19l12,-58l210,-123l-102,-83l-30,-66l24,-78l-188,-279l-19,-213l-150,2l-14,-71l61,-136l226,135l127,-43l-70,-85l-9,-65l146,-104l53,-120l176,-41l-26,-79l-95,-123l-20,-105l243,2l50,-78l-61,-194l73,-63l-18,-91l-64,-41l-73,-194l251,-159h266l-72,84l23,40l-52,244l97,43l9,75l-79,120l26,67l-110,92l45,51l-35,64l186,178l100,177l-5,99l101,208l-67,34l36,155l123,24l99,64l74,93l-39,48l-6,106l86,151l98,38l50,104l6,150l-261,189l-87,-67l-139,78l13,80l-107,141l12,119l105,28l-2,89l-94,103l41,44l36,292l-13,114l-91,12l30,127l-65,29l35,181l-87,66l-95,-22l23,99l-33,115Z" /><path id="3205069" d="M-411367,-202877l-108,61l-106,-9l-43,-45l-37,-143l-57,-75l-79,-37l-100,52l-169,-79l-106,-126l56,-92l-70,-193l86,-19l83,-133l-13,-96l93,-95l152,-12l21,-57l-49,-109l-183,-147l56,-65l-20,-90l48,-70l167,-16l87,19l-1,192l68,40l166,-95l281,119l44,65l-13,79l65,25l70,-61l-34,-107l1,-142l119,-80l68,12l120,-113l26,-84l150,4l5,206l-97,174l-18,119l-106,49l40,96l-80,119l-141,33l53,273l-112,90l49,71l-15,66l-99,78l-8,195l-62,55l-226,49l-22,49Z" /><path id="3205101" d="M-403703,-203997l-243,82l-110,125l13,203l-150,177l-70,1l-125,84l-142,-68l-36,67l-71,-8l-114,-92l-109,-39l-295,-3l-68,195l-6,249l26,95l-150,-15l-142,-76l-180,24l13,74l-65,43l-97,-42l1,-198l26,-102l-42,-74l-15,-162l-73,-111l2,-104h119l88,-78l102,-21l-19,-92l117,-25l73,42l58,-68l-73,-124l-102,-52l-177,-20l-130,-39l-279,11l-14,-80l-91,-24l32,-112l-103,-269l62,-56l215,-194l51,46l94,-2l229,57l203,12l94,31l534,-323l207,730l258,-8l66,62l272,23l141,60l2,99l193,89Z" /><path id="3205150" d="M-405511,-184938l-93,61l-280,-20l-250,-91l-50,11l-66,-80l-189,-117l-82,42l-103,-41l-223,-181l-58,-137l-131,-80l-40,-70l-157,-10l-52,-50l-102,-2l-122,-69l-84,2l-103,-114l-8,-66l-100,-33l-118,44l-72,109l-58,-29l107,-137l3,-141l140,-67l37,52l115,25l-18,156l204,-40l44,114l92,23l59,-148l49,-3l-5,-247l-73,-320l45,-164l95,-68l105,8l209,-37l22,-60l-83,-55l-86,16l29,-108l270,37l168,-43l118,-189l137,-10l174,57l85,-10l531,348l57,10l225,198l364,86l-133,66l36,193l-75,103l-180,-20l-74,117l-94,46l11,140l-73,79l-105,35l-3,74l-76,8l-46,65l-14,132l36,200l-31,119l21,160l122,121Z" /><path id="3205176" d="M-402077,-188845l-47,64l-139,5l-142,144l-104,-9l-56,198l-52,59l-165,8l-55,-65l-92,27l-32,-45l-167,-14l-110,-33l-331,49l-161,-40l-7,-970l-73,35l-262,-35l4,-78l-125,-55l-61,55l-119,26l-272,-112l18,-139l41,-19l-33,-157l152,-8l-29,-102l150,-95l11,-48l-62,-106l-55,-30l-72,-112l-58,-36l112,-33l175,-221l124,-12l215,-52l16,-39l157,1l35,47l94,129l125,-77l63,-92l188,62l103,-49l126,-24l166,89l244,425l576,1263l-14,221Z" /><path id="3205200" d="M-403772,-205355l86,132l85,55l8,81l73,131l54,193l168,299l79,185l23,222l54,132l118,213l91,115l97,61l34,179l132,117l-74,40l-76,-49l-211,12l-55,-63l-69,59l-390,-28l1,-123l-34,-64l-53,-230l-19,-262l-53,-49l-193,-89l-2,-99l-141,-60l-272,-23l-66,-62l-258,8l-207,-730l95,-16l948,-113l27,-174Z" /><path id="3205309" d="M-293371,-204880l-44,-43l-27,-180l103,-72l44,-70l189,35l56,-55l60,63l-95,120l-73,18l-61,75l-152,109M-402149,-202426l-61,36h-470l-50,-18l-249,18l-45,97l-86,-81l-183,-26l24,-73l-20,-131l-67,-105l-144,-137l-116,-216l-2,-112l73,-95l390,28l69,-59l55,63l211,-12l76,49l-94,101l-55,13l-14,94l16,154l116,117l187,63l113,-182l100,-110l62,36l-31,151l107,191l11,70l77,76Z" /></g></svg>