<?xml version="1.0"?><svg xmlns="http://www.w3.org/2000/svg" version="1.2" baseProfile="tiny" width="1080" height="1080" viewBox="-44.8893 20.764 3.9313999999999965 2.6036" stroke-linecap="round" stroke-linejoin="round"><g id="UF33MU" transform="scale(0.0001,-0.0001)"><path id="3300100" d="M-442315,-230753l-62,-175l-151,-46l33,-120l-88,-63l-143,-17l-94,-174l-153,34l32,87l-25,61l-96,-46l-71,-121l-71,-34l3,-70l-50,-104l-191,-19l-107,-36l-75,-64l-60,10l-92,-74l41,-107l114,-4l69,-76l92,102l65,-94l-90,-133l-27,-106l64,-43l-5,-67l119,16l41,163l71,46l109,222l227,39l169,-32l91,-127l60,36l98,-122l161,14l41,40l199,31l140,-61l45,162l104,28l76,-48l111,125l191,50l87,-22l79,-73l-65,-76l114,-20l97,76l143,37l32,89l-165,41l-128,88l-171,-67l-28,208l134,136l2,58l-211,-54l-75,-139l-85,-32l-59,44l-27,89l39,88l-77,28l-96,-38l-157,12l-52,164l117,-31l5,78l-128,9l-88,79l-171,-9l19,154M-443720,-230368l-23,54l-164,-106l93,-42l66,23l129,-24l39,-125l65,49l37,111l-43,58l-119,-40l-80,42M-443181,-228451l-72,73l-84,-51l-475,-155l-100,56l-93,-23l-102,87l-124,-41l-96,-106l-6,-77l-110,-77l-69,-3l-71,-65l-86,-17l-44,91l-86,91l46,96l-91,108l-102,-4l-107,-47l-138,-142l-110,-22l-251,-202l-150,43l-226,-6l-61,-59l-82,50l-129,-134l-95,-62l-92,-93l85,-29l86,-213l98,9l40,-52l133,-50l96,20l207,-94l68,-81l20,-88l109,-89l-11,-101l50,-50l-63,-196l40,-77l98,24l120,-64l186,3l158,106l26,79l80,27l56,-50l85,31l107,-89l28,-86l105,41l-71,96l55,87l92,44l-108,62l68,70l-29,115l29,107l77,20l37,104l91,-32l246,22l115,-65l114,-19l138,80l-22,73l-169,63l51,98l83,17l49,-43l88,86l65,-7l174,-127l-20,-61l-106,-47l-21,-178l165,81l173,-8l-94,-122l-8,-94l-212,-168l-124,42l-95,-70l-14,-86l-67,-85l170,-112l110,29l62,81l256,134l61,-74l-68,-119l55,-44l87,24l13,64l85,31l70,105l62,22l74,-50l84,87l110,-50l94,-114l-10,-82l-160,-261l99,-80l137,77l46,-12l179,117l75,-27l-10,-134l91,46l129,17l-31,117l103,25l-5,186l29,71l-53,86l-38,154l-159,349l9,78l-52,126l-224,-30l-109,64l-157,125l46,62l-7,348l-69,39l-76,145l-87,60l-309,51l-78,-92l-155,91l-30,-25Z" /><path id="3300159" d="M-421198,-216015l-206,-47l-223,-194l-96,-44l-147,9l-159,-144l-18,-51l94,-58l-5,-116l100,-90l14,-65l189,-94l152,-9l123,-130l176,70l41,85l84,81l329,228l182,216l-176,37l-50,71l-116,-31l-57,82l-194,89l-37,105Z" /><path id="3300209" d="M-421824,-225527l-45,-28l-60,-24l4,-90l-68,-91l-195,-141l-71,-21l-211,-206l-284,72l-57,-88l-144,-94l-145,-157l-45,-85l-90,-379l-59,-61l-25,-123l-140,-65l-62,7l-167,-142l-109,57l-161,-44l-73,-91l-82,19l-87,-62l-218,61l-50,-925l769,-126l-127,-484l-40,-113l86,-126l-36,-280l268,1l736,-39l-18,133l81,119l-77,141l456,367l-123,151l98,82l-144,482l355,218l515,898l125,86l113,134l112,50l-505,1007Z" /><path id="3300225" d="M-430478,-222086l-111,187l249,232l-46,37l-164,-23l-424,-239l-91,-94l-147,-1l-106,79l-60,-46l-182,45l-36,-20l-24,-182l-41,-30l8,-141l-46,-46l-74,-319l19,-48l-72,-269l9,-47l78,-91h127l157,62l85,210l100,71l105,-70l102,14l64,165l100,36l-39,191l179,188l227,91l54,58Z" /><path id="3300233" d="M-419694,-228228l291,134l71,-4l50,139l64,88l138,89l116,-76l127,40l69,123l106,76l-77,109l56,83l-123,27l-53,-144l-98,7l-96,-33l-53,-114l-118,-28l-108,45l-124,124l-138,218l-141,29l-362,-485l83,-177l320,-270Z" /><path id="3300258" d="M-419776,-229785l-55,-5l-202,-144l-26,-157l175,42l138,127l-30,137M-421222,-229083l-308,149l-187,197l-93,-32l-93,20l-150,-50l-64,22l-190,49l-63,93l-456,-367l77,-141l-81,-119l18,-133l808,-40l654,-52l611,-68l260,-65l100,-52l86,-156l96,-13l44,-76l73,76l-119,127l128,92l-36,99l-73,-78l-88,38l29,84l-98,27l-36,121l-512,3l-150,67l-187,178Z" /><path id="3300308" d="M-437487,-224032l-157,119l-38,103l-54,35l-116,166l-74,-29l-63,91l-85,27l-63,-38l-53,-116l-149,-83l-27,-105l-82,18l-35,164l-96,60l81,144l0,115l120,132l87,22l23,70l-80,44l-113,-59l-78,12l-124,-76l-206,-92l-8,-90l-125,-86l-71,4l-66,-67l30,-61l-395,110l-6,47l-150,85l-46,50l-21,189l-151,44l-207,-20l-179,130l38,-69l-244,-166l-58,-69l-104,-59l-52,-120l-2,-97l-73,-19l-86,-158l3,-90l264,-90l522,-161l23,-20l-345,-212l-337,-296l149,-78l0,-84l206,-191l54,-19l24,108l100,8l116,-116l47,-142l104,-62l101,25l283,-46l110,38l286,-50l449,-78l147,114l-12,100l116,52l33,-80l161,-74l128,42l59,-94l-88,-78l-52,-156l115,-80l103,21l86,175l113,32l78,132l41,592l110,-11l-50,109l-86,66l-87,2l102,142l63,43l53,148l66,57Z" /><path id="3300407" d="M-440056,-224071l-522,161l-264,90l-3,90l86,158l73,19l2,97l52,120l104,59l58,69l244,166l-38,69l-89,-58l-131,-38l-27,-60l-184,-38l-207,-92l-289,-42l-51,-90l-163,4l-76,73l-181,56l-34,-57l44,-78l92,-333l-145,-24l-371,-118l13,-130l-56,-40l-80,-382l3,-102l-51,-21l20,-236l-81,9l-31,-68l-189,-14l-84,114l-114,35l-139,97l-83,96l-62,16l-100,-38l-83,-164l-148,22l-50,-49l97,-153l-27,-62l89,-57l44,-79l-91,-143l43,-60l28,-226l-64,-57l33,-60l-39,-109l-188,-7l45,-157l146,11l74,-73l372,-86l178,8l117,-92l78,61l130,-28l68,45l48,-120l169,12l-3,-108l132,-36l69,-74l-53,-118l182,-103l58,-140l185,206l-12,40l320,52l223,-57l86,26l-9,61l-36,110l-11,231l-57,99l55,178l-55,57l60,53l56,219l-50,155l-458,-75l-201,212l2,208l21,125l-7,201l31,107l93,173l98,86l230,53l204,151l757,-13l75,5Z" /><path id="3300456" d="M-433293,-227559l21,319l74,146l-75,46l-30,100l-179,-37l-172,134l-49,-92l-82,36l-154,-6l-307,-127l-27,-123l-68,-82l117,-255l85,-56l-21,-94l53,-31l136,-95l117,110l561,107Z" /><path id="3300506" d="M-422940,-221145l-66,-75l-102,109l-52,16l-122,-126l-145,-22l-10,122l-44,42l-86,-51l-191,-46l-47,-81l-83,-36l-78,96l-108,-4l-218,51l-104,-76l-68,56l-241,44l-12,-49l64,-131l-568,-293l364,-339l2,-64l135,-109l-21,-132l1155,-774l66,24l84,-49l58,37l174,16l148,57l101,-27l80,37l-74,64l34,53l100,22l11,65l158,54l169,214l-26,76l116,35l4,89l-120,30l-81,62l-67,-10l-89,86l-54,-9l-67,83l59,120l-67,156l-50,25l2,105l-59,89l66,116l112,-20l27,98l-17,82l-152,92Z" /><path id="3300605" d="M-417338,-209433l-35,154l152,78l37,193l-79,84l139,243l-126,24l-165,-69l-78,23l-338,-327l-298,-413l45,-122l82,-8l107,-87l-42,-181l-73,-30l-73,-116l13,-102l-60,-47l-90,-162l-79,-56l-63,-101l-15,-102l-128,-62l114,-197l81,-64l39,-103l110,-56l-74,-69l-64,-111l128,-12l112,54l67,-66l-30,-198l145,-43l126,6l113,-83l-4,-199l69,-9l110,75l168,10l32,-136l90,-141l-14,-82l-93,-155l77,-47l150,44l40,-54l22,-125l134,-112l36,-80l85,73l127,48l189,1l124,-96l-83,-65l127,-29l58,-123l101,-8l36,-153l176,-110l-30,-64l60,-76l-16,62l328,147l154,158l137,59l2,72l96,60l72,-40l66,62l50,144l190,116l71,20l5,286l-95,92l-74,137l-159,-27l-92,68l-85,-115l-103,73l-183,-30l-90,97l-69,-104l-52,113l-88,28l-75,99l-30,101l-235,-74l-94,100l-235,36l-199,114l15,72l-248,30l-69,63l-98,-50l5,-73l-122,25l-9,92l74,50l-63,60l-94,-17l-96,42l46,153l97,140l-19,63l-91,6l164,196l-56,38l-34,101l20,70l78,36l9,69l-79,62l68,179l55,5l-79,258l7,118l-86,26l-79,73Z" /><path id="3300704" d="M-419366,-228626l-86,-10l-27,-105l76,5l37,110M-419914,-225981l-48,66l53,110l-43,56l-93,-98l-52,118l-77,-51l-43,96l-81,-25l-30,99l-90,-79l-77,77l-105,9l-49,-84l-80,12l-85,-71l-128,45l22,73l-140,25l-38,-67l-84,3l-22,77l-102,65l-32,101l-174,-143l-47,108l-265,-68l505,-1007l1069,-1430l-131,-597l-31,-96l-131,26l-116,-13l-78,47l-143,-55l-101,33l-109,-94l44,-101l-3,-89l-50,-135l-123,-45l187,-178l150,-67l512,-3l0,114l42,152l127,177l107,60l55,-68l144,69l80,157l-48,86l8,79l92,203l72,74l-320,270l-83,177l362,485l-78,66l-63,118l-66,229l-33,205l-22,352l18,231l65,114Z" /><path id="3300803" d="M-425506,-224558l-123,91l-79,-24l-39,104l97,50l82,103l-18,138l15,133l59,94l-11,87l-121,188l-202,41l-103,-125l-144,-61l-25,-81l-227,-113l-180,-27l-32,93l-280,-64l-95,39l-95,105l-88,57l32,77l-78,82l-115,15l-125,-56l8,-93l-242,-77l-37,-61l-132,28l-131,61l-89,-50l1,-66l-108,-20l26,-162l-108,-8l-62,-71l-116,16l-118,-48l4,-93l-132,-31l-50,-86l-164,-161l-122,-51l-148,21l-61,54l-48,-185l158,-276l183,-90l-3,-64l-95,-75l71,-68l4,-110l56,-104l97,-56l103,-141l0,-37l-179,-109l-39,-95l-197,-92l-36,-177l75,-66l39,-130l-76,-168l264,96l163,24l190,71l205,-29l218,35l52,-32l81,41l66,-68l358,-450l135,80l111,11l133,70l118,132l56,22l-18,115l170,23l87,45l54,-74l204,17l147,-144l151,81l196,185l82,51l131,-10l69,60l-388,794l102,70l71,188l81,133l-1,75l107,144l42,123l92,11l34,105Z" /><path id="3300902" d="M-418160,-213275l-89,-38l-54,-74l-244,-61l-181,-221l-221,-150l-89,-191l-250,-181l-103,-43l-111,-89l-113,-231l-58,-46l-67,-147l-241,-142l-49,-76l-71,-11l-106,-80l-86,-9l-255,-199l32,-87l-17,-108l-71,-36l-49,-102l-111,-122l-105,-64l-184,-237l-77,-33l-68,38l37,-105l194,-89l57,-82l116,31l50,-71l176,-37l303,81l85,-17l81,-96l125,48l197,112l49,53l361,219l131,107l216,101l62,11l106,-51l70,7l72,72l-24,105l27,59l269,247l110,145l91,35l-21,65l99,158l-91,84l823,180l327,80l-712,558l25,104l-373,626Z" /><path id="3300936" d="M-415424,-222346l-107,325l132,44l10,78l-89,69l-64,244l-147,128l-52,74l-212,65l-984,236l-774,-726l668,-713l-40,-125l50,-149l52,-22l90,-182l309,169l487,213l671,272Z" /><path id="3300951" d="M-433266,-220078l-148,-12l-53,52l6,-522l60,61l124,-103l62,5l108,-71l112,40l60,-57l80,-2l122,-75l62,49l14,77l118,74l-49,-471l436,323l689,252l157,108l-6,58l-110,-42l-114,4l-98,45l-62,67l-97,-74l-227,-83l-55,78l-140,-41l-62,50l-90,59l25,87l-124,76l-82,-54l-67,40l-60,-40l-130,10l-217,-100l-140,133l-104,-1Z" /><path id="3301009" d="M-412762,-212401l-64,53l-209,62l-127,151l-96,-51l-69,31l-56,87l-316,26l-186,51l-146,8l-134,-18l-187,-156l-110,2l-234,127l-5,-286l-71,-20l-190,-116l-50,-144l-66,-62l-72,40l-96,-60l-2,-72l-137,-59l-154,-158l-328,-147l16,-62l340,-1116l2,-7l1014,311l56,-116l86,-2l146,-216l68,-54l17,-281l68,-16l232,-229l92,-160l-6,-115l90,-144l45,-123l-47,-123l-142,-40l-219,-230l-18,-186l-68,-69l-157,-21l-21,-54l-627,-584l-43,98l-151,151l-83,141l-121,104l-83,36l-22,-43l-132,-47l-95,-120l-62,28l-89,-129l-136,-99l-205,-19l-58,-62l-183,18l-121,-118l-67,-126l-79,-8l-330,-200l-45,-113l19,-55l-66,-176l-139,-54l-184,-123l-135,-151l7,-81l-145,19l-88,-17l-44,47l-120,30l-66,-31l-9,-110l-119,-23l-13,-66l-283,-215l16,-68l-126,-41l-132,-103l-104,-39l-143,-110l40,-99l-41,-75l191,-48l196,-28l137,2l226,77l165,5l208,-113l97,-3l454,36l110,-75l-8,-106l-56,-60l20,-130l-70,-208l75,-160l-71,-78l37,-128l-60,-115l-85,-33l-222,-191l-84,-41l-65,92l-147,-38l158,-163l83,-235l-28,-105l68,-44l46,-176l102,-1l49,92l188,181l148,81l366,-62l55,15l120,43l181,14l118,41l121,-22l131,7l413,-80l118,55l163,276l100,77l756,281l1599,-787l67,-137l137,-200l126,-1l159,36l263,-23l95,-55l101,49l160,6l90,44l62,-59l102,55l77,-17l27,62l542,315l310,158l203,93l216,116l132,108l104,197l53,240l-1,256l-66,299l-1461,-8l-68,120l-178,161l-68,137l53,90l50,407l-127,254l-156,185l53,278l-223,222l113,26l81,55l66,93l223,141l116,171l-91,60l-145,-27l-69,-70l-125,-76l-78,5l-117,62l113,461l19,272l26,171l-159,-9l-30,51l-212,103l-137,141l-196,72l104,557l-45,-12l-129,121l46,38l11,117l-28,195l28,88l-19,244l-90,138l95,110l39,90l103,-7l60,128l-61,90l-207,26l-58,127l67,118l-11,61l158,202l-479,-23l-27,45l-116,17l185,321l47,209l108,65l2,97Z" /><path id="3301108" d="M-422371,-216972l-90,-94l-205,-79l-400,-139l-75,-94l-194,-80l-191,18l-51,29l-200,-73l-160,-90l-19,-42l-343,-141l-84,-4l-214,-87l-23,-107l-52,-58l112,-161l151,-100l-64,-48l69,-70l-129,-123l214,-160l-48,-101l-121,12l-88,-27l-128,-122l-97,-6l-289,-156l943,-1301l154,133l76,157l75,94l280,-95l382,119l98,84l-14,58l145,53l168,-91l58,22l166,-41l53,114l76,41l-7,126l55,91l43,144l57,19l67,165l93,-3l-59,131l85,186l337,211l87,71l-397,749l-302,866Z" /><path id="3301157" d="M-415381,-216219l83,-36l121,-104l83,-141l151,-151l43,-98l627,584l21,54l157,21l68,69l18,186l219,230l142,40l47,123l-45,123l-90,144l6,115l-92,160l-232,229l-68,16l-17,281l-68,54l-146,216l-86,2l-56,116l-1014,-311l-2,7l-238,-212l-44,-89l-140,-97l-70,-128l-186,96l-381,-71l300,-1166l141,78l97,2l422,220l196,49l-24,-557l57,-54Z" /><path id="3301207" d="M-425090,-219075l289,156l97,6l128,122l88,27l121,-12l48,101l-214,160l129,123l-69,70l64,48l-151,100l-112,161l52,58l23,107l-35,-14l-247,-116l-1129,-472l-52,-14l-83,-95l-122,-28l-138,-71l-250,-75l-28,-67l49,-103l-40,-84l50,-68l-13,-100l-78,-78l-15,-120l-87,-137l-85,-12l-92,-96l106,-29l-24,-66l1431,-303l11,151l-103,193l10,132l98,66l11,168l84,60l-19,48l107,113l94,-61l96,51Z" /><path id="3301306" d="M-422053,-223691l-61,75l-158,31l-127,-30l-361,-175l-45,-65l-137,-68l55,-124l111,30l-38,-111l-228,-451l17,-66h109l68,-116l140,-95l21,-117l72,-94l-31,-162l101,-107l42,-128l87,1l115,53l181,20l188,-88l63,-77l45,28l265,68l47,-108l174,143l32,-101l102,-65l22,-77l84,-3l38,67l140,-25l-22,-73l128,-45l85,71l80,-12l49,84l105,-9l77,-77l90,79l30,-99l81,25l43,-96l77,51l52,-118l93,98l43,-56l-53,-110l48,-66l122,356l-75,166l-34,210l30,56l-42,170l-122,124l-154,101l-81,114l-7,125l97,56l-29,88l24,118l-123,55l-116,-37l-39,38l-172,13l-4,-118l-103,42l-121,-87l-195,24l57,94l29,178l-100,53l-165,-13l-15,-68l-120,-4l-8,-70l-65,-83l-78,72l-110,-72l-129,21l-61,-67l-187,21l-67,94l36,68l-152,87l65,147l58,43l-78,134l95,41Z" /><path id="3301405" d="M-417505,-220864l-101,27l-231,-149l-152,6l-160,-27l-68,22l-95,135l-63,130l-105,6l-112,79l-110,122l-73,-34l-100,57l-132,-72l-80,-121l-90,14l-182,100l-58,-135l-201,-75l-5,-250l45,-134l-23,-82l-68,-75l-69,-16l23,-51l-18,-148l132,14l275,-122l139,10l57,-65l117,-207l-48,-152l-114,-61l8,-173l138,-19l100,-260l66,-23l-4,-85l84,-71l187,51l0,56l114,281l21,199l56,70l4,102l110,88l97,40l-53,402l536,-349l774,726l-226,207l8,63l100,9l228,123l174,6l56,117l-55,-15l-366,62l-148,-81l-188,-181l-49,-92l-102,1Z" /><path id="3301504" d="M-422694,-220892l-119,12l-171,54l-111,85l-19,168l104,83l47,88l-9,104l-68,20l-89,-38l-51,348l-382,-119l-280,95l-75,-94l-76,-157l-154,-133l162,-223l529,-461l-25,-19l44,-42l10,-122l145,22l122,126l52,-16l102,-109l66,75l83,10l210,-83l-17,161l-73,1l-50,104l93,60Z" /><path id="3301603" d="M-425090,-219075l-96,-51l-94,61l-107,-113l19,-48l-84,-60l-11,-168l-98,-66l-10,-132l103,-193l-11,-151l-110,7l-137,-148l-17,-121l106,-30l-23,-144l-129,-42l50,-169l-296,-194l-33,-77l85,-51l69,-94l-34,-53l-85,5l-37,-163l-103,-73l67,-58l203,-18l119,18l43,-223l80,19l86,-31l136,91l218,-54l568,293l-64,131l12,49l241,-44l68,-56l104,76l218,-51l108,4l78,-96l83,36l47,81l191,46l86,51l25,19l-529,461l-162,223l-943,1301Z" /><path id="3301702" d="M-432250,-225636l-307,-87l-50,169l147,284l117,43l-42,112l-569,360l-10,-2l-41,-79l-200,-169l-103,-177l-382,-84l-60,60l-141,-117l-123,-11l1,-86l-87,-33l150,-87l68,-104l8,-107l-106,-57l-187,-147l56,-152l219,-43l74,-79l-1,-69l-196,-223l30,-91l129,-75l138,-43l64,-121l172,-134l179,37l30,-100l75,-46l-74,-146l-21,-319l1,-305l-17,-163l268,19l45,-54l218,-12l50,-24l15,150l-59,75l-2,73l195,236l133,53l59,80l132,19l123,69l-14,66l-70,32l-1,119l66,89l-35,220l-61,72l55,66l15,149l71,104l159,139l3,60l-306,591Z" /><path id="3301801" d="M-435618,-225001l-103,390l-104,43l-1054,-16l-5,-46l-118,-743l-38,-90l-75,-32l35,-151l128,61l45,61l89,-29l-94,-114l-5,-91l229,-89l97,45l-28,71l-129,58l106,102l-5,86l120,18l149,72l142,2l262,-288l356,680Z" /><path id="3301850" d="M-429182,-224510l-72,-29l-48,59l-102,-90l-121,2l-43,-92l-70,18l-123,-68l-67,74l-173,39l-163,-68l-124,52l-107,32l-82,-25l-104,-145l-42,-95l268,-87l83,-71l-15,-114l70,-51l38,-94l83,-1098l-112,-138l-16,-149l-55,-16l-74,-128l-36,-134l57,-257l73,-78l115,9l3,63l79,43l180,-142l98,22l33,-50l145,103l50,77l103,38l135,196l107,60l91,119l3,167l48,3l76,168l-39,130l-75,66l36,177l197,92l39,95l179,109l0,37l-103,141l-97,56l-56,104l-4,110l-71,68l95,75l3,64l-183,90l-158,276l48,185Z" /><path id="3301876" d="M-422117,-228777l350,501l-157,60l-4,80l-75,184l76,60l-113,90l-51,-50l-448,-68l144,-482l-98,-82l123,-151l63,-93l190,-49Z" /><path id="3301900" d="M-427472,-226865l-358,450l-66,68l-81,-41l-52,32l-218,-35l-205,29l-190,-71l-163,-24l-264,-96l-48,-3l-3,-167l-91,-119l-107,-60l-135,-196l-103,-38l-50,-77l-145,-103l-33,50l-98,-22l-180,142l-79,-43l-3,-63l-115,-9l-7,-170l88,-7l207,96l5,-55l82,-100l112,-59l158,-47l208,-161l-26,-184l45,-78l193,-174l133,31l201,-507l177,-45l69,-45l85,56l58,-18l172,47l56,91l54,-7l187,60l30,39l159,10l140,61l106,-74l78,-20l153,113l-31,89l-108,78l116,155l-53,47l-167,71l-261,-72l-148,41l-64,100l154,26l65,120l-54,60l18,105l-49,71l-113,85l75,60l278,-10l53,113l129,154l38,85l-35,85l21,80Z" /><path id="3302007" d="M-436678,-230531l12,105l-394,-103l-480,-69l-391,-17l1,-24l271,21l329,40l652,47M-438822,-229487l134,240l-137,-1l3,-239M-437530,-227001l-65,-8l-138,80l-118,2l-61,-30l-166,-149l-247,-191l2,-121l-64,-165l97,-96l79,10l86,-49l-76,-53l-129,-167l-164,-81l-244,-72l-146,-129l-92,-109l-62,28l-96,-70l29,-84l-147,-180l-18,-71l-120,-106l29,-110l149,-6l77,82l77,-16l123,44l79,-38l50,-302l97,105l252,36l67,-93l-130,-132l97,-80l103,10l218,136l74,-72l68,77l53,28l-44,105l104,-2l40,89h148l152,73l25,99l139,-4l68,50l99,8l202,78l163,20l76,-13l-813,453l-131,63l-156,106l-100,107l47,192l157,30l-18,67l87,52l-66,77l78,201l126,-1l67,57l51,185l-124,50Z" /><path id="3302056" d="M-415851,-213174l-39,-87l-209,-58l-106,-121l10,-59l-98,-61l-187,95l-23,-117l-177,124l-128,-36l-190,-124l-33,-58l-95,-42l-103,33l-147,-110l-130,-42l-120,-76l-52,-69l-134,-23l712,-558l-327,-80l632,-520l525,-794l-300,1166l381,71l186,-96l70,128l140,97l44,89l238,212l-340,1116Z" /><path id="3302106" d="M-419371,-217412l4,1444l-361,-219l-49,-53l-197,-112l-125,-48l-81,96l-85,17l-303,-81l-182,-216l-329,-228l-84,-81l-41,-85l-176,-70l-123,130l-152,9l-189,94l-148,-38l-79,-48l-87,3l-96,-59l-117,-15l302,-866l397,-749l212,-18l73,51l-54,73l27,84l243,-69l-43,111l16,94l61,5l141,146l77,-20l37,111l158,37l111,-11l-7,74l82,122l100,-11l109,140l134,39l-18,97l145,66l111,91l104,45l89,-14l274,41l119,-109Z" /><path id="3302205" d="M-418391,-210816l-82,-95l-230,-98l-71,-153l-152,3l-51,-42l-20,-154l-96,4l-117,-38l-92,-152l-129,20l-318,218l-33,92l-185,-45l-108,34l-86,-42l4,-63l-74,-38l-100,117l-30,118l119,181l52,118l-34,96l-174,-15l11,87l-86,185l-63,89l-265,87l-3,-57l-145,-13l-88,-87l-9,-88l-159,-145l20,-56l-127,-45l-2,-78l-83,-158l-120,-12l-120,34l-108,-311l-73,-116l-83,-28l-52,-141l91,-104l3,-46l134,-13l0,117l116,-52l101,88l152,-52l138,-14l-119,-130l134,-146l-44,-84l127,-105l30,149l40,3l21,143l94,-67l81,26l52,117l72,-23l258,-26l-59,-94l107,-11l66,-184l-14,-65l-170,-89l5,-90l185,-28l53,-71l-183,-95l-78,13l-53,-136l-88,13l-101,-85l39,-49l-40,-297l58,-61l-20,-99l-165,-198l48,-74l153,-37l244,22l43,67l96,36l74,114l62,33l132,-21l71,18l157,161l200,29l86,-42l156,50l103,-20l128,160l129,-31l83,-50l54,61l255,-31l65,-29l136,65l61,84l234,-392l373,-626l-25,-104l134,23l52,69l120,76l130,42l147,110l103,-33l95,42l33,58l190,124l128,36l177,-124l23,117l187,-95l98,61l-10,59l106,121l209,58l39,87l-60,76l30,64l-176,110l-36,153l-101,8l-58,123l-127,29l83,65l-124,96l-189,-1l-127,-48l-85,-73l-36,80l-134,112l-22,125l-40,54l-150,-44l-77,47l93,155l14,82l-90,141l-32,136l-168,-10l-110,-75l-69,9l4,199l-113,83l-126,-6l-145,43l30,198l-67,66l-112,-54l-128,12l64,111l74,69l-110,56l-39,103l-81,64Z" /><path id="3302254" d="M-445437,-223323l-54,80l-61,-64l-83,-9l-71,70l-98,-37l-122,54l-174,-37l-161,-87l-16,-94l-143,-115l-39,-88l-123,-85l-37,-70l-10,-193l73,6l110,-158l72,-182l-26,-105l-107,-93l37,-106l-96,-182l108,-142l251,-129l-34,-80l-28,-174l107,-221l181,-96l121,55l19,109l59,90l119,63l-97,63l-10,111l95,92l320,126l66,87l83,-13l78,42l-6,97l165,52l168,106l-5,93l-66,50l2,77l-1099,378l-114,79l-31,93l101,89l75,27l53,72l139,45l88,-78l101,6l64,74l-4,166l60,86Z" /><path id="3302270" d="M-435554,-226797l37,79l90,38l-36,122l-146,198l-105,16l34,107l-11,143l-95,-66l-146,-39l-174,-145l-121,-78l-379,226l-79,-130l-23,-203l113,-71l88,66l97,28l71,-86l-29,-111l-93,-8l-63,-94l137,-399l103,15l100,104l84,158l60,-2l72,72l109,-74l136,38l163,-1l6,97Z" /><path id="3302304" d="M-420930,-213448l165,198l20,99l-58,61l40,297l-39,49l101,85l88,-13l53,136l78,-13l183,95l-53,71l-185,28l-5,90l170,89l14,65l-66,184l-107,11l59,94l-258,26l-72,23l-52,-117l-81,-26l-94,67l-21,-143l-40,-3l-30,-149l-127,105l44,84l-134,146l119,130l-138,14l-152,52l-101,-88l-116,52l0,-117l-134,13l-3,46l-91,104l-48,-124l-82,-63l136,-237l-70,-46l-9,-139l111,-24l24,-97l-59,-58l53,-114l-101,-59l-138,-161l-61,3l-90,-103l-5,-245l-86,-110l7,-61l82,-45l47,-92l30,45l166,69l81,113l176,15l196,-39l22,53l139,61l30,-62l143,-69l59,-131l112,-67l99,8l59,-66Z" /><path id="3302403" d="M-419738,-221336l-57,65l-176,-82l-84,-81l-146,-43l-53,-90l-196,-63l-98,24l-108,-38h-110l-112,-61l-75,-104l23,-67l-49,-65l55,-75l-150,-74l-103,10l-136,-53l-169,22l-123,-63l-176,-155l-53,-116l-95,3l-177,-154l-84,-104l-83,-42l-217,-210l-19,-109l-129,-93l80,-61l184,-87l87,-69l125,-40l36,-148l73,-132l-95,-41l78,-134l-58,-43l-65,-147l152,-87l-36,-68l67,-94l187,-21l61,67l129,-21l110,72l78,-72l65,83l8,70l120,4l15,68l165,13l100,-53l-29,-178l-57,-94l195,-24l121,87l103,-42l4,118l211,213l79,28l107,108l282,-119l165,41l155,76l183,1l74,-66l96,-28l83,20l131,-46l130,-115l152,-66l182,-6l55,79l174,-6l95,31l103,-87l228,124l206,135l79,129l-96,39l26,102l117,127l226,123l266,225l235,166l-90,182l-52,22l-50,149l40,125l-668,713l-536,349l53,-402l-97,-40l-110,-88l-4,-102l-56,-70l-21,-199l-114,-281l0,-56l-187,-51l-84,71l4,85l-66,23l-100,260l-138,19l-8,173l114,61l48,152l-117,207l-57,65l-139,-10l-275,122l-132,-14l18,148l-23,51Z" /><path id="3302452" d="M-422195,-220099l-50,61l42,80l-69,75l19,64l-73,88l-104,3l-76,-41l-53,-114l-166,41l-58,-22l-168,91l-145,-53l14,-58l-98,-84l51,-348l89,38l68,-20l9,-104l-47,-88l-104,-83l19,-168l111,-85l171,-54l119,-12l40,73l-45,134l88,37l16,197l101,5l71,58l120,181l108,108Z" /><path id="3302502" d="M-430389,-226926l36,134l74,128l55,16l16,149l112,138l-83,1098l-38,94l-70,51l15,114l-83,71l-268,87l-168,-24l84,-140l-80,-119l-153,-89l-167,-130l-72,41l-310,-90l-131,-75l-206,-60l-155,1l-269,-105l306,-591l-3,-60l-159,-139l-71,-104l-15,-149l-55,-66l61,-72l35,-220l-66,-89l1,-119l70,-32l197,56l146,21l193,101l185,15l78,-61l100,8l73,68l17,105l81,27l72,77l75,1l120,62l145,-71l92,16l59,-75l124,1Z" /><path id="3302601" d="M-437931,-230615l-132,2l-221,31l-526,161l36,-77l-10,-128l-65,-57l-146,-5l-195,105l-144,11l-141,68l-60,91l-198,-40l-75,-110l-212,-175l-90,-46l30,-156l200,-84l184,112l153,42l722,123l360,30l531,78l-1,24M-440300,-229960l-225,-73l150,-79l76,35l-1,117M-439169,-229911l-111,20l-94,-96l64,-87l141,163M-438822,-229487l-3,239l-140,-84l-75,24l-69,-106l90,-177l93,27l104,77M-439390,-228812l-113,-59l-146,7l-155,204l62,115l-160,107l-94,-19l-42,-133l-103,-55l-42,-62l-266,-124l-66,54l-127,-29l-71,24l-172,-54l-234,190l-128,-104l-185,-80l-88,-106l-31,-86l-95,-13l-61,-94l-45,-153l-70,27l-104,-34l52,-126l-9,-78l159,-349l38,-154l53,-86l-29,-71l5,-186l121,-41l236,55l56,62l111,31l90,121l86,68l-13,74l118,46l76,135l14,81l-51,112l70,75l126,31l144,69l73,-105l-18,-94l-133,-174l73,-50l153,39l20,161l192,153l54,69l150,18l145,89l106,-31l162,76l96,-35l81,15l214,-21l164,84l121,17l14,51l-50,302l-79,38l-123,-44l-77,16l-77,-82l-149,6l-29,110Z" /><path id="3302700" d="M-426599,-228590l-178,47l-187,-30l-75,52l-123,-16l-174,129l-153,-113l-78,20l-106,74l-140,-61l-159,-10l-30,-39l-187,-60l-54,7l-56,-91l-172,-47l-58,18l-85,-56l-69,45l-177,45l-150,-100l-259,-45l-153,-78l-138,-39l-8,-70l-18,-110l-162,-70l-66,-120l-105,-96l-205,-110l-95,-91l-27,-70l108,-93l9,57l114,15l347,-4l457,-49l113,8l286,71l484,44l565,27l488,37l159,1l277,-31l21,120l124,49l282,48l70,178l-124,118l-87,40l-123,-65l-114,143l18,184l173,187Z" /><path id="3302809" d="M-436884,-224630l-65,34l-113,-38l-89,84l-53,-100l-134,-174l-76,22l-81,87l-53,116l-110,11l-41,-592l-78,-132l-113,-32l-86,-175l115,-14l32,-106l66,-31l-25,-140l78,-82l-33,-60l21,-107l-3,58l325,243l152,182l133,81l75,32l38,90l118,743Z" /><path id="3302858" d="M-434107,-227681l-216,21l-100,-76l-291,-143l-310,-54l108,-89l-47,-116l62,-17l77,-149l132,-100l212,148l55,102l138,134l180,103l136,141l-136,95Z" /><path id="3302908" d="M-434915,-224200l-161,-62l42,-55l-143,-151l-130,44l-90,-87l-151,-754l-70,264l-356,-680l-205,-205l-74,-39l-353,-271l379,-226l-61,165l266,262l132,66l34,98l345,97l96,73l196,-10l119,-47l94,83l23,91l119,59l185,125l221,100l55,-47l208,-74l96,63l85,-16l123,11l141,117l60,-60l382,84l103,177l200,169l41,79l-29,73l107,57l-125,106l-192,-69l-310,101l-190,-28l-132,-91l-117,-29l-135,-66l-114,15l-168,-58l-39,58l49,87l-65,89l-4,81l-487,231Z" /><path id="3303005" d="M-420930,-213448l-59,66l-99,-8l-112,67l-59,131l-143,69l-30,62l-139,-61l-22,-53l-196,39l-176,-15l-81,-113l-166,-69l-30,-45l-114,-51l57,-165l-1,-71l-124,-64l18,-42l-114,-101l153,-65l-16,-98l-218,-62l-78,101l-74,-46l-29,-98l28,-135l381,-224l350,-187l650,-25l132,-27l241,225l64,-21l64,64l131,-1l97,117l63,16l53,132l68,45l39,135l122,141l16,105l-114,119l60,182l-9,45l-96,-36l-43,-67l-244,-22l-153,37l-48,74Z" /><path id="3303104" d="M-418010,-209871l-166,126l65,96l-62,21l-52,96l-149,-39l-45,31l-162,-9l-24,-153l-77,-28l-237,-8l-32,54l-123,30l-69,85l-38,105l70,126l-7,49l-137,-59l-104,-109l-124,71l-64,-188l-248,-28l-22,32l-171,-89l-41,-263l28,-36l-18,-156l-121,-44l-47,24l-341,-102l-96,17l-74,-52l-150,41l47,-72l265,-87l63,-89l86,-185l-11,-87l174,15l34,-96l-52,-118l-119,-181l30,-118l100,-117l74,38l-4,63l86,42l108,-34l185,45l33,-92l318,-218l129,-20l92,152l117,38l96,-4l20,154l51,42l152,-3l71,153l230,98l82,95l-114,197l128,62l15,102l63,101l79,56l90,162l60,47l-13,102l73,116Z" /><path id="3303203" d="M-433906,-228138l-201,221l-180,-103l-138,-134l-55,-102l-212,-148l111,-86l269,97l92,67l66,110l75,4l173,74Z" /><path id="3303302" d="M-429568,-229008l-230,-79l-58,11l-17,155l-69,43l-151,-34l-186,153l-134,33l-261,30l-43,31l-185,44l-132,62l-56,-87l-63,1l-189,-168l93,-137l-108,-27l45,-107l153,36l55,-63l99,-30l57,-65l-38,-110l-133,-37l-79,93l-114,-132l156,1l52,-145l91,9l288,-41l181,-57l146,-120l260,-23l-108,93l27,70l95,91l205,110l105,96l66,120l162,70l18,110Z" /><path id="3303401" d="M-425221,-221599l-218,54l-136,-91l24,-58l-178,-113l-106,41l-103,-18l-120,-147l-60,-33l-121,48l-34,45l-147,-7l24,-154l-26,-62l-263,-109l-74,-195l-142,-137l-57,-2l-101,-96l-81,-28l-40,-125l70,-87l-153,-309l83,-121l-85,-70l33,-161l-44,-22l115,-15l78,-82l-32,-77l88,-57l95,-105l95,-39l280,64l32,-93l180,27l227,113l25,81l144,61l103,125l202,-41l121,-188l11,-87l-59,-94l-15,-133l18,-138l-82,-103l-97,-50l39,-104l79,24l123,-91l140,-19l247,229l119,1l186,-69l64,-75l196,69l31,74l179,17l61,42l275,37l138,34l158,-36l42,67l122,-105l94,44l75,-42l93,5l42,68l95,-29l131,71l123,99l119,59l-111,-30l-55,124l137,68l45,65l361,175l127,30l158,-31l61,-75l-73,132l-36,148l-125,40l-87,69l-184,87l-80,61l129,93l-113,-3l-253,142l-80,-37l-101,27l-148,-57l-174,-16l-58,-37l-84,49l-66,-24l-1155,774l21,132l-135,109l-2,64l-364,339Z" /><path id="3303500" d="M-434014,-225334l-85,16l-96,-63l-208,74l-55,47l-221,-100l-185,-125l-119,-59l-23,-91l-94,-83l-119,47l-196,10l-96,-73l-345,-97l-34,-98l-132,-66l-266,-262l61,-165l121,78l174,145l146,39l95,66l11,-143l-34,-107l105,-16l146,-198l36,-122l-90,-38l-37,-79l130,-8l79,-82l134,-56l-147,-95l-67,-111l42,-125l-39,-87l99,-26l-29,-127l-251,-64l-99,50l-59,-22l-162,5l-90,63l-126,-11l-19,-122l-115,-114l35,-96l-110,-8l56,-270l72,-116l-11,-47l-249,-182l-222,-80l-33,-112l148,6l146,77l201,-70l277,49l78,191l291,98l376,64l317,70l-62,17l47,116l-108,89l310,54l291,143l100,76l216,-21l-53,31l21,94l-85,56l-117,255l68,82l27,123l307,127l154,6l82,-36l49,92l-64,121l-138,43l-129,75l-30,91l196,223l1,69l-74,79l-219,43l-56,152l187,147l106,57l-8,107l-68,104l-150,87l87,33l-1,86Z" /><path id="3303609" d="M-435974,-225681l-262,288l-142,-2l-149,-72l-120,-18l5,-86l-106,-102l129,-58l28,-71l-97,-45l-229,89l5,91l94,114l-89,29l-45,-61l-128,-61l-35,151l-133,-81l-152,-182l-325,-243l3,-58l-48,-54l-105,-3l-74,-56l-54,-105l-403,-211l66,-74l73,-15l89,-81l-21,-139l42,-62l115,-51l91,14l100,-31l118,-2l138,-80l65,8l18,91l134,169l266,263l75,30l154,-56l118,24l57,-49l23,203l79,130l353,271l74,39l205,205Z" /><path id="3303708" d="M-432588,-221033l49,471l-118,-74l-14,-77l-62,-49l-122,75l-80,2l-60,57l-112,-40l-108,71l-62,-5l-124,103l-60,-61l-6,522l-37,-42l-146,-25l-28,-93l-150,-104l-219,-122l-181,-128l-142,-48l366,-1563l16,-48l734,-576l367,-920l43,42l73,165l142,160l-16,94l65,83l101,48l60,84l64,-86l176,59l65,61l107,-41l190,27l-9,47l72,269l-19,48l74,319l46,46l-8,141l41,30l24,182l-388,-78l-23,234l-421,457l-160,283Z" /><path id="3303807" d="M-445914,-232037l-85,-19l-55,-97l-89,-23l26,-70l100,28l145,125l-42,56M-446834,-231512l-115,-50l13,-81l114,66l-12,65M-445211,-230273l-120,64l-98,-24l-40,77l63,196l-50,50l11,101l-109,89l-20,88l-68,81l-207,94l-96,-20l-133,50l-40,52l-98,-9l-86,213l-85,29l-239,-130l-126,77l-120,-130l-92,4l-71,-40l-101,61l-143,-118l-156,-52l-74,-150l17,-75l-156,-138l-119,52l-152,-38l-10,-115l-96,-54l97,-110l-58,-105l20,-66l-55,-56l-1,-163l-97,-57l46,-72l-115,-298l65,-5l30,-94l-70,-62l57,-72l-84,-163l29,-92l-94,-34l42,-98l-31,-92l-185,-40l-176,-143l-142,-37l-2,-120l-77,-60l25,-106l-92,-133l33,-92l165,-140l132,13l142,-72l24,-80l117,-69l43,-105l-10,-105l168,80l25,-64l180,-91l6,-110l80,-44l-28,-114l39,-118l178,-35l27,-78l157,-99l57,-67l116,-20l-73,45l46,96l115,86l142,47l27,-37l146,13l98,60l28,-90l161,27l157,118l232,-153l95,-15l-19,-83l178,-60l79,46l104,115l108,163l-44,71l146,152l94,53l64,101h197l-111,193l-120,64l-46,-58l-151,-13l-212,27l-44,46l84,125l-10,91l97,90l-200,34l-118,-43l28,-66l-104,-80l-72,-11l-127,-184l-37,-113l-78,-82l-192,-27l153,153l61,101l15,87l154,170l-130,14l-62,63l-132,-10l-74,-46l-50,-83l-143,52l52,121l63,-45l72,42l24,162l104,-26l63,29l69,-78l99,148l-30,111l-192,20l-86,36l-27,-144l-95,-2l-64,-108l-105,-79l-60,25l-53,-111l-155,-24l-50,41l62,116l-121,175l147,165l-40,83l122,25l-92,110l119,152l-27,61l36,109l62,62l-104,39l47,147l-1,102l87,158l11,88l159,175l122,19l53,-42l58,97l76,-19l214,44l95,-44l139,22l-2,-128l149,51l230,179l247,92l94,-2Z" /><path id="3303856" d="M-432887,-223707l-367,920l-642,-114l-1140,-211l-34,-209l68,-193l18,-141l106,-77l-27,-66l-106,-98l-67,-120l97,-136l66,-48l487,-231l4,-81l65,-89l-49,-87l39,-58l168,58l114,-15l135,66l117,29l132,91l-41,158l134,163l167,16l63,33l31,113l86,23l82,171l182,129l112,4Z" /><path id="3303906" d="M-429806,-222647l26,95l-26,65l-116,95l-59,133l-105,66l-68,-40l-136,207l-188,-60l-54,-58l-227,-91l-179,-188l39,-191l-100,-36l-64,-165l-102,-14l-105,70l-100,-71l-85,-210l-157,-62h-127l-78,91l-190,-27l-107,41l-65,-61l-176,-59l-64,86l-60,-84l-101,-48l-65,-83l16,-94l-142,-160l-73,-165l-43,-42l-112,-4l-182,-129l-82,-171l-86,-23l-31,-113l-63,-33l-167,-16l-134,-163l41,-158l190,28l310,-101l192,69l125,-106l-107,-57l29,-73l10,2l569,-360l42,-112l-117,-43l-147,-284l50,-169l307,87l269,105l155,-1l206,60l131,75l310,90l72,-41l167,130l153,89l80,119l-84,140l168,24l42,95l104,145l82,25l107,-32l60,202l-101,83l-47,217l66,85l22,97l-26,65l22,99l-37,94l100,113l-110,285l-124,9l32,110l67,70l223,64l-21,114l264,122l16,84l76,53Z" /><path id="3303955" d="M-439135,-225208l-286,50l-110,-38l-283,46l-101,-25l-104,62l-47,142l-116,116l-100,-8l-24,-108l28,-92l-12,-130l-87,-210l-5,-83l-90,-50l-70,33l-143,-421l137,67l306,48l95,-54l160,34l132,54l38,46l-110,100l83,105l297,-161l412,477Z" /><path id="3304003" d="M-437976,-225519l-103,-21l-115,80l52,156l88,78l-59,94l-128,-42l-161,74l-33,80l-116,-52l12,-100l-147,-114l-449,78l-412,-477l-297,161l-83,-105l110,-100l-38,-46l-132,-54l-160,-34l-95,54l-306,-48l-137,-67l-178,-482l81,-69l-70,-51l56,-127l87,98l212,151h327l133,-172l162,-112l67,-5l105,79l100,-18l29,-187l141,-137l-43,-66l32,-83l82,-4l168,120l64,-149l218,98l120,-102l-18,-101l-89,-100l-88,10l-15,-190l111,-17l27,-92l-49,-276l171,-112l4,-71l244,72l164,81l129,167l76,53l-86,49l-79,-10l-97,96l64,165l-2,121l247,191l166,149l61,30l-100,31l-91,-14l-115,51l-42,62l21,139l-89,81l-73,15l-66,74l403,211l54,105l74,56l105,3l48,54l-21,107l33,60l-78,82l25,140l-66,31l-32,106l-115,14Z" /><path id="3304102" d="M-418446,-207773l-74,133l-227,-19l-100,-175l-115,-50l-88,-90l-105,47l-127,-13l20,-83l-35,-58l-28,-176l58,-131l-30,-48l-73,-125l-135,-27l-40,-68l49,-65l-106,-109l4,-68l-52,-76l13,-91l-30,-105h-68l-51,-179l-217,77l-169,-19l-213,16l-93,-72l-199,-45l-53,27l-133,-32l-75,41l-75,-79l-136,-81l1,-68l-121,23l-111,-39l-129,-140l7,-67l92,-123l140,-78l69,7l61,-121l113,-18l179,-90l150,-41l74,52l96,-17l341,102l47,-24l121,44l18,156l-28,36l41,263l171,89l22,-32l248,28l64,188l124,-71l104,109l137,59l-33,90l114,175l-9,242l82,36l-82,164l51,24l297,-48l88,-32l26,81l289,110l99,105l60,19l79,99l141,124l42,-3l122,104l-188,18l-52,-72l-178,40l-118,70l33,58l-100,82l-91,30Z" /><path id="3304110" d="M-443010,-224494l18,73l122,151l84,63l43,109l-14,58l-347,62l-33,-43l-79,-94l-82,-41l-217,18l6,-223l-51,-97l-132,-68l-42,-84l79,-54l35,-106l117,-151l81,23l101,-40l27,62l-97,153l50,49l148,-22l83,164l100,38Z" /><path id="3304128" d="M-441481,-223314l-9,123l-86,76l86,44l36,79l-54,110l37,78l-141,87l-35,54l89,92l-183,153l-151,14l-191,-105l-58,25l-80,-43l-14,-68l-133,-63l-104,-15l-32,68l-95,-75l34,-242l-66,-175l-73,-20l-22,-86l-213,1l-72,-80l-195,-76l-102,17l-26,-97l21,-122l-99,-48l-12,-88l29,-123l105,-148l153,-54l33,43l347,-62l14,-58l-43,-109l-84,-63l-122,-151l-18,-73l62,-16l83,-96l139,-97l114,-35l84,-114l189,14l31,68l81,-9l-20,236l51,21l-3,102l80,382l56,40l-13,130l371,118l145,24l-92,333l-44,78l34,57l181,-56Z" /><path id="3304144" d="M-436348,-227833l110,8l-35,96l115,114l19,122l126,11l90,-63l162,-5l59,22l99,-50l251,64l29,127l-99,26l39,87l-42,125l67,111l147,95l-134,56l-79,82l-130,8l-6,-97l-163,1l-136,-38l-109,74l-72,-72l-60,2l-84,-158l-100,-104l-103,-15l-60,-166l25,-192l99,-187l-25,-84Z" /><path id="3304151" d="M-411338,-220955l-77,17l-102,-55l-62,59l-90,-44l-160,-6l-101,-49l-95,55l-263,23l-159,-36l-126,1l-137,200l-67,137l-1599,787l-756,-281l-100,-77l-163,-276l-118,-55l-413,80l-131,-7l-121,22l-118,-41l-181,-14l-120,-43l-56,-117l-174,-6l-228,-123l-100,-9l-8,-63l226,-207l984,-236l212,-65l52,-74l147,-128l64,-244l89,-69l-10,-78l-132,-44l107,-325l236,102l250,90l425,130l647,169l322,91l364,86l534,141l488,163l484,216l217,116l119,87Z" /><path id="3304201" d="M-442599,-222680l-28,239l-288,10l-108,-108l-130,-4l-19,-52l-278,61l-74,-43l-72,37l-151,-71l-22,-72l-131,-22l-48,116l-384,75l-56,-43l-183,-19l-49,-70l33,-59l-382,-332l-183,-68l-19,-54l-131,-73l-25,-75l-110,-16l-60,-86l4,-166l-64,-74l-101,-6l-88,78l-139,-45l-53,-72l-75,-27l-101,-89l31,-93l114,-79l1099,-378l-2,-77l66,-50l5,-93l-168,-106l-165,-52l6,-97l-78,-42l-83,13l-66,-87l-320,-126l-95,-92l10,-111l97,-63l-119,-63l-59,-90l-19,-109l-121,-55l-181,96l-107,221l28,174l34,80l-251,129l-108,142l96,182l-37,106l107,93l26,105l-72,182l-110,158l-73,-6l10,193l-40,78l-45,-21l-376,60l-132,86l-84,-6l-115,-123l-150,-16l-368,-122l-106,-68l-59,-106l0,-13l147,-33h162l84,-66l148,2l139,-95l83,-92l16,-74l123,-220l12,-74l-57,-51l38,-169l69,-4l13,-208l103,33l52,-77l80,-31l68,-38l115,-140l-72,-82l-17,-114l109,48l235,-15l20,-220l-41,-39l29,-181l-23,-43l115,-55l117,41l99,-120l160,71l35,-115l93,-25l98,223l102,-101l180,50l86,-113l89,-54l-25,-65l164,-3l39,-96l105,115l200,172l140,-43l269,110l95,60l144,-34l96,30l56,169l92,82l86,5l117,-70l109,-7l-29,-247l18,-59l49,-31l75,89l-32,49l45,105l51,13l-45,157l188,7l39,109l-33,60l64,57l-28,226l-43,60l91,143l-44,79l-89,57l-101,40l-81,-23l-117,151l-35,106l-79,54l42,84l132,68l51,97l-6,223l217,-18l82,41l79,94l-153,54l-105,148l-29,123l12,88l99,48l-21,122l26,97l102,-17l195,76l72,80l213,-1l22,86l73,20l66,175l-34,242Z" /><path id="3304300" d="M-424418,-227303l-114,39l-67,79l-129,-60l-174,23l-65,-32l-115,54l-216,24l34,129l-16,730l-55,57l-179,64l-132,-5l-69,-60l-131,10l-82,-51l-196,-185l-151,-81l-147,144l-204,-17l-54,74l-87,-45l-170,-23l18,-115l-56,-22l-118,-132l-133,-70l-111,-11l-135,-80l383,-369l85,-33l64,-268l84,-139l101,-64l-128,-122l52,-88l221,-43l-87,-163l77,-108l58,-22l-125,-165l86,-42l120,29l30,-87l73,19l22,112l61,83l134,50l73,70l78,15l138,119l177,41l155,-108l221,60l44,-95l125,-75l121,-4l35,-43l161,12l101,87l189,16l75,-38l50,925Z" /><path id="3304409" d="M-438738,-228091l-4,71l-171,112l49,276l-27,92l-111,17l15,190l88,-10l89,100l18,101l-120,102l-218,-98l-64,149l-168,-120l-82,4l-32,83l43,66l-141,137l-29,187l-100,18l-105,-79l-67,5l-162,112l-133,172h-327l-212,-151l-87,-98l-56,127l70,51l-81,69l9,-61l-86,-26l-223,57l-320,-52l12,-40l-185,-206l42,-49l-69,-96l-80,-43l24,-99l-113,-99l-159,-31l-30,-46l51,-156l-104,-17l-89,46l-87,-13l-161,-210l-74,-29l-71,-94l38,-138l-31,-51l167,-55l-41,-110l-170,-39l-63,-227l-158,-72l-20,69l-107,15l-124,-50l-89,-72l-7,-51l30,25l155,-91l78,92l309,-51l87,-60l76,-145l69,-39l7,-348l-46,-62l157,-125l109,-64l224,30l104,34l70,-27l45,153l61,94l95,13l31,86l88,106l185,80l128,104l234,-190l172,54l71,-24l127,29l66,-54l266,124l42,62l103,55l42,133l94,19l160,-107l-62,-115l155,-204l146,-7l113,59l120,106l18,71l147,180l-29,84l96,70l62,-28l92,109l146,129Z" /><path id="3304508" d="M-434370,-220600l-275,-128l-123,34l-53,-35l-224,-21l-3,86l-73,72l-60,-16l-76,-119l-161,-67l-59,5l-184,-86l-33,105l-53,-12l-167,224l-116,-165l-88,2l-1,-94l-93,-18l-148,142l-97,42l-182,-86l-45,-126l71,-66l22,-118l-53,-427l19,-67l-38,-183l30,-85l76,-50l-28,-116l107,-82l134,-24l91,-99l166,-69l15,-66l-41,-107l84,-45l-75,-74l24,-51l204,-51l11,-119l-85,-87l63,-36l103,74l170,162l63,-39l144,-18l161,-56l70,138l-23,178l52,79l301,-133l73,47l0,74l63,62l-14,134l146,18l313,-197l84,71l-14,44l191,82l-366,1563Z" /><path id="3304524" d="M-418178,-224170l-103,87l-95,-31l-174,6l-55,-79l-182,6l-152,66l-130,115l-131,46l-83,-20l-96,28l-74,66l-183,-1l-155,-76l-165,-41l-282,119l-107,-108l-79,-28l-211,-213l172,-13l39,-38l116,37l123,-55l-24,-118l29,-88l-97,-56l7,-125l81,-114l154,-101l122,-124l42,-170l-30,-56l34,-210l75,-166l99,194l76,86l150,61l140,-91l88,73l113,191l154,189l76,61l129,-17l123,108l97,272l156,172l213,156Z" /><path id="3304557" d="M-436678,-230531l310,25l250,3l250,-30l185,-61l18,46l-105,67l-270,94l-100,77l-426,-81l-100,-35l-12,-105M-435992,-230282l-31,-108l126,-17l-95,125M-432306,-228368l-70,-24l-34,-75l48,-144l139,-94l45,94l-88,49l-58,90l85,53l-67,51M-432728,-228098l-50,24l-218,12l-45,54l-268,-19l-346,-14l-194,-99l-57,2l-173,-74l-75,-4l-66,-110l-92,-67l-269,-97l-111,86l-132,100l-77,149l-317,-70l-376,-64l-291,-98l-78,-191l-277,-49l-201,70l-146,-77l-148,-6l-76,13l-163,-20l-202,-78l-99,-8l-68,-50l-139,4l-25,-99l-152,-73h-148l-40,-89l-104,2l44,-105l-53,-28l63,-87l54,15l86,-75l304,-147l137,-114l69,-28l82,-99h55l109,-155l91,-32l102,79l63,11l105,-66l98,-131l110,-11l44,-49l110,-6l137,-110l145,-53l53,-95l146,-72l11,-55l162,-81l-63,-123l23,-97l120,12l55,133l68,16l99,94l242,24l6,44l146,76l251,54l133,47l346,76l319,45l303,20l217,-3l331,-49l154,52l127,88l226,32l64,-19l137,57l10,45l134,38l194,-9l100,21l29,116l261,153l90,82l-56,74l-67,-5l-75,-85l-101,38l115,98l-27,63l87,152l11,119l-77,7l-119,92l-151,33l-146,-55l-53,109l147,152l-85,45l-35,-61l-123,-10l-108,121l-85,214l-99,41l-120,130l-59,137M-431722,-227756l-59,-72l-69,-15l-54,-112l-171,6l-132,103l-155,-71l-202,-55l-93,-140l70,-84l78,-37l25,-71l92,-34l113,124l110,42l133,-30l107,7l60,-96l61,-22l82,60l-58,226l89,93l121,61l-1,87l-147,30Z" /><path id="3304607" d="M-418839,-218723l-133,-60l-293,28l-100,32l-133,138l-39,145l-115,162l-46,127l-13,120l-171,-183l-67,-38l-104,-134l12,-72l-77,-28l-57,-94l-69,-37l-70,-136l-32,-116l-83,-32l-111,-182l-91,-109l-102,53l-3,-109l-97,-115l-133,121l-45,-31l71,-155l109,-118l-180,-11l-18,-116l63,-78l-180,-97l-28,-119l-159,-131l32,-104l-61,-45l30,-84l114,32l225,-4l-44,-196l509,-87l647,8l263,-201l201,75l58,135l182,-100l90,-14l80,121l132,72l100,-57l73,34l110,-122l112,-79l105,-6l63,-130l95,-135l68,-22l160,27l152,-6l231,149l101,-27l-46,176l-68,44l28,105l-83,235l-158,163l147,38l65,-92l84,41l222,191l85,33l60,115l-37,128l71,78l-75,160l70,208l-20,130l56,60l8,106l-110,75l-454,-36l-97,3l-208,113l-165,-5l-226,-77l-137,-2l-196,28l-191,48l41,75Z" /><path id="3304706" d="M-420581,-214338l-63,-16l-97,-117l-131,1l-64,-64l-64,21l-241,-225l-132,27l-650,25l-350,187l-381,224l-107,-148l22,-35l-82,-134l240,-97l-34,-57l141,-77l28,-47l-51,-93l-140,-75l-119,-243l-113,45l-95,-59l39,-92l-118,-169l-166,-49l60,-90l-211,-132l-67,-90l-103,-133l-57,-134l101,-124l-61,-14l-49,-79l44,-64l189,-53l66,-85l87,-3l293,56l138,-127l58,-132l88,30l80,-156l-74,-102l61,-108l205,79l90,94l117,15l96,59l87,-3l79,48l148,38l-14,65l-100,90l5,116l-94,58l18,51l159,144l147,-9l96,44l223,194l206,47l68,-38l77,33l184,237l105,64l111,122l49,102l71,36l17,108l-32,87l255,199l86,9l106,80l71,11l49,76l-93,128l139,178l-52,67l0,100l-102,134l-139,-80l-137,23l-115,-41l-101,42Z" /><path id="3304755" d="M-410238,-216053l-246,162l41,-177l-16,-94l159,-2l122,24l-60,87M-409610,-213011l-37,48l-123,59l-180,40l-43,79l11,112l-67,145l-105,9l-90,61l-155,-93l-194,205l-302,150h-159l-102,-90l-117,-12l-98,24l-32,-102l-353,-71l-76,53l-72,-92l-227,127l-90,30l-193,125l-151,-49l-44,-79l-76,5l-77,-74l-2,-97l-108,-65l-47,-209l-185,-321l116,-17l27,-45l479,23l-158,-202l11,-61l-67,-118l58,-127l207,-26l61,-90l-60,-128l-103,7l-39,-90l-95,-110l90,-138l19,-244l-28,-88l28,-195l-11,-117l-46,-38l129,-121l45,12l-104,-557l196,-72l137,-141l212,-103l30,-51l159,9l-26,-171l-19,-272l-113,-461l117,-62l78,-5l125,76l69,70l145,27l91,-60l74,41l168,-35l122,67l28,193l112,72l77,119l234,142l48,2l21,112l-193,526l7,48l-80,236l-3,135l40,145l116,187l367,371l148,234l50,143l91,101l91,24l128,159l84,152l-29,113l12,214l52,164l-31,103Z" /><path id="3304805" d="M-417427,-214643l-823,-180l91,-84l-99,-158l21,-65l-91,-35l-110,-145l-269,-247l-27,-59l24,-105l-72,-72l-70,-7l-106,51l-62,-11l-216,-101l-131,-107l-4,-1444l67,-1l-76,-134l39,-85l-23,-60l-90,-40l-49,32l-87,-213l-121,-118l13,-120l46,-127l115,-162l39,-145l133,-138l100,-32l293,-28l133,60l-40,99l143,110l104,39l132,103l126,41l-16,68l283,215l13,66l119,23l9,110l66,31l120,-30l44,-47l88,17l145,-19l-7,81l135,151l184,123l139,54l66,176l-19,55l45,113l330,200l79,8l67,126l121,118l183,-18l58,62l205,19l136,99l89,129l62,-28l95,120l132,47l22,43l-57,54l24,557l-196,-49l-422,-220l-97,-2l-141,-78l-525,794l-632,520Z" /><path id="3304904" d="M-428860,-228676l-201,507l-133,-31l-193,174l-45,78l26,184l-208,161l-158,47l-112,59l-82,100l-5,55l-207,-96l-88,7l-200,-141l-177,-79l-41,-135l-130,-112l23,-91l140,-40l-177,-177l-141,-73l15,-64l-80,-216l132,-62l185,-44l43,-31l261,-30l134,-33l186,-153l151,34l69,-43l17,-155l58,-11l230,79l8,70l138,39l153,78l259,45l150,100Z" /><path id="3305000" d="M-410481,-216178l-48,-2l-234,-142l-77,-119l-112,-72l-28,-193l-122,-67l-168,35l-74,-41l-116,-171l-223,-141l-66,-93l-81,-55l-113,-26l223,-222l-53,-278l156,-185l127,-254l-50,-407l-53,-90l68,-137l178,-161l68,-120l1461,8l-71,254l-58,314l-44,131l-192,798l-47,227l-18,201l25,358l68,383l24,210l-114,2l-236,55Z" /><path id="3305109" d="M-433309,-228027l17,163l-1,305l-561,-107l-117,-110l-136,-141l201,-221l57,-2l194,99l346,14Z" /><path id="3305133" d="M-418160,-213275l-234,392l-61,-84l-136,-65l-65,29l-255,31l-54,-61l-83,50l-129,31l-128,-160l-103,20l-156,-50l-86,42l-200,-29l-157,-161l-71,-18l-132,21l-62,-33l-74,-114l9,-45l-60,-182l114,-119l-16,-105l-122,-141l-39,-135l-68,-45l-53,-132l101,-42l115,41l137,-23l139,80l102,-134l0,-100l52,-67l-139,-178l93,-128l241,142l67,147l58,46l113,231l111,89l103,43l250,181l89,191l221,150l181,221l244,61l54,74l89,38Z" /><path id="3305158" d="M-427556,-221182l-382,-40l-127,-127l-79,-13l-47,-102l-81,37l-88,-96l-54,-5l-110,-95l-116,-29l-103,104l8,109l90,173l-74,249l-122,18l-115,-105l-85,-22l-91,44l-19,78l-138,-31l-34,64l-115,12l-121,115l-137,-40l-40,-85l61,-80l32,-215l93,-125l-465,-151l-26,47l-131,10l-36,-135l-194,-268l-76,-200l188,60l136,-207l68,40l105,-66l59,-133l116,-95l26,-65l-26,-95l63,13l40,92l122,1l116,90l44,112l233,106l122,-17l144,352l142,34l99,-42l136,71l70,88l77,-9l248,121l379,330l47,-17l115,68l162,-23l-14,53l-95,42Z" /><path id="3305208" d="M-421222,-229083l123,45l50,135l3,89l-44,101l109,94l101,-33l143,55l78,-47l116,13l131,-26l31,96l131,597l-1069,1430l-112,-50l-113,-134l-125,-86l-515,-898l-355,-218l448,68l51,50l113,-90l-76,-60l75,-184l4,-80l157,-60l-350,-501l64,-22l150,50l93,-20l93,32l187,-197l308,-149Z" /><path id="3305307" d="M-419371,-217412l-119,109l-274,-41l-89,14l-104,-45l-111,-91l-145,-66l18,-97l-134,-39l-109,-140l-100,11l-82,-122l7,-74l-111,11l-158,-37l-37,-111l-77,20l-141,-146l-61,-5l-16,-94l43,-111l-243,69l-27,-84l54,-73l-73,-51l-212,18l-87,-71l-337,-211l-85,-186l59,-131l-93,3l-67,-165l-57,-19l-43,-144l-55,-91l7,-126l104,-3l73,-88l-19,-64l69,-75l-42,-80l50,-61l200,-58l162,4l31,90l61,20l204,-61l71,-143h104l61,45l-32,104l159,131l28,119l180,97l-63,78l18,116l180,11l-109,118l-71,155l45,31l133,-121l97,115l3,109l102,-53l91,109l111,182l83,32l32,116l70,136l69,37l57,94l77,28l-12,72l104,134l67,38l171,183l121,118l87,213l49,-32l90,40l23,60l-39,85l76,134l-67,1Z" /><path id="3305406" d="M-426910,-219693l24,66l-106,29l92,96l85,12l87,137l15,120l78,78l13,100l-50,68l40,84l-49,103l28,67l-197,-59l-550,-295l-478,-209l-225,-82l-52,14l-202,-78l-313,-91l-144,-60l29,-65l-151,-94l-33,-70l-127,-85l-281,-127l-94,-25l-121,-91l-98,1l-153,-111l-35,-59l-91,-42l-53,33l-76,-59l59,-97l-60,-76l32,-133l-96,-165l467,-26l137,40l121,-115l115,-12l34,-64l138,31l19,-78l91,-44l85,22l115,105l122,-18l74,-249l-90,-173l-8,-109l103,-104l116,29l110,95l54,5l88,96l81,-37l47,102l79,13l127,127l382,40l-35,177h95l153,61l22,147l-42,182l-67,100l94,28l161,-37l44,86l-10,139l170,289l-45,88l27,102l79,127Z" /><path id="3305505" d="M-424468,-228228l-75,38l-189,-16l-101,-87l-161,-12l-35,43l-121,4l-125,75l-44,95l-221,-60l-155,108l-177,-41l-138,-119l-78,-15l-73,-70l-134,-50l-61,-83l-22,-112l-73,-19l-148,-41l-173,-187l-18,-184l114,-143l123,65l87,-40l124,-118l-70,-178l289,31l335,16l603,-6l439,-44l188,29l742,-8l36,280l-86,126l40,113l127,484l-769,126Z" /><path id="3305554" d="M-436708,-226529l-57,49l-118,-24l-154,56l-75,-30l-266,-263l-134,-169l-18,-91l124,-50l-51,-185l-67,-57l-126,1l-78,-201l66,-77l-87,-52l18,-67l-157,-30l-47,-192l100,-107l156,-106l131,-63l813,-453l33,112l222,80l249,182l11,47l-72,116l-56,270l25,84l-99,187l-25,192l60,166l-137,399l63,94l93,8l29,111l-71,86l-97,-28l-88,-66l-113,71Z" /><path id="3305604" d="M-421869,-225555l-63,77l-188,88l-181,-20l-115,-53l-87,-1l-42,128l-101,107l31,162l-72,94l-21,117l-140,95l-68,116h-109l-17,66l228,451l38,111l-119,-59l-123,-99l-131,-71l-95,29l-42,-68l-93,-5l-75,42l-94,-44l-122,105l-42,-67l-158,36l-138,-34l-275,-37l-61,-42l-179,-17l-31,-74l-196,-69l-64,75l-186,69l-119,-1l-247,-229l-140,19l-34,-105l-92,-11l-42,-123l-107,-144l1,-75l-81,-133l-71,-188l-102,-70l388,-794l132,5l179,-64l55,-57l16,-730l-34,-129l216,-24l115,-54l65,32l174,-23l129,60l67,-79l114,-39l218,-61l87,62l82,-19l73,91l161,44l109,-57l167,142l62,-7l140,65l25,123l59,61l90,379l45,85l145,157l144,94l57,88l284,-72l211,206l71,21l195,141l68,91l-4,90l60,24Z" /><path id="3305703" d="M-425479,-219996l-1431,303l-79,-127l-27,-102l45,-88l-170,-289l10,-139l-44,-86l-161,37l-94,-28l67,-100l42,-182l-22,-147l-153,-61h-95l35,-177l95,-42l14,-53l-51,-84l-2,-95l-55,-111l63,-50l40,-148l-66,-96l181,-248l4,-130l-106,-101l225,-141l58,-80l16,-100l81,28l101,96l57,2l142,137l74,195l263,109l26,62l-24,154l147,7l34,-45l121,-48l60,33l120,147l103,18l106,-41l178,113l-24,58l-86,31l-80,-19l-43,223l-119,-18l-203,18l-67,58l103,73l37,163l85,-5l34,53l-69,94l-85,51l33,77l296,194l-50,169l129,42l23,144l-106,30l17,121l137,148l110,-7Z" /><path id="3305752" d="M-427472,-226865l-21,-80l35,-85l-38,-85l-129,-154l-53,-113l-278,10l-75,-60l113,-85l49,-71l-18,-105l54,-60l-65,-120l-154,-26l64,-100l148,-41l261,72l167,-71l53,-47l-116,-155l108,-78l31,-89l174,-129l123,16l75,-52l187,30l178,-47l148,41l-30,87l-120,-29l-86,42l125,165l-58,22l-77,108l87,163l-221,43l-52,88l128,122l-101,64l-84,139l-64,268l-85,33l-383,369Z" /><path id="3305802" d="M-427447,-221277l-162,23l-115,-68l-47,17l-379,-330l-248,-121l-77,9l-70,-88l-136,-71l-99,42l-142,-34l-144,-352l-122,17l-233,-106l-44,-112l-116,-90l-122,-1l-40,-92l-63,-13l-76,-53l-16,-84l-264,-122l21,-114l-223,-64l-67,-70l-32,-110l124,-9l110,-285l-100,-113l37,-94l-22,-99l26,-65l-22,-97l-66,-85l47,-217l101,-83l-60,-202l124,-52l163,68l173,-39l67,-74l123,68l70,-18l43,92l121,-2l102,90l48,-59l72,29l61,-54l148,-21l122,51l164,161l50,86l132,31l-4,93l118,48l116,-16l62,71l108,8l-26,162l108,20l-1,66l89,50l131,-61l132,-28l37,61l242,77l-8,93l125,56l44,22l-33,161l85,70l-83,121l153,309l-70,87l40,125l-16,100l-58,80l-225,141l106,101l-4,130l-181,248l66,96l-40,148l-63,50l55,111l2,95l51,84Z" /><path id="3305901" d="M-421362,-220247h-104l-71,143l-204,61l-61,-20l-31,-90l-162,-4l-200,58l-108,-108l-120,-181l-71,-58l-101,-5l-16,-197l-88,-37l45,-134l-40,-73l-93,-60l50,-104l73,-1l17,-161l-210,83l-83,-10l152,-92l17,-82l-27,-98l-112,20l-66,-116l59,-89l-2,-105l50,-25l67,-156l-59,-120l67,-83l54,9l89,-86l67,10l81,-62l120,-30l-4,-89l-116,-35l26,-76l-169,-214l-158,-54l-11,-65l-100,-22l-34,-53l74,-64l253,-142l113,3l19,109l217,210l83,42l84,104l177,154l95,-3l53,116l176,155l123,63l169,-22l136,53l103,-10l150,74l-55,75l49,65l-23,67l75,104l112,61h110l108,38l98,-24l196,63l53,90l146,43l84,81l176,82l57,-65l69,16l68,75l23,82l-45,134l5,250l-263,201l-647,-8l-509,87l44,196l-225,4l-114,-32l-30,84Z" /><path id="3306008" d="M-430022,-220328l-57,13l-188,-112l-125,-19l3,-84l57,-129l-199,-158l-224,-112l-26,98l-116,-48l-165,52l-160,-67l-43,-144l-91,-61l-67,55l-74,238l-35,62l200,165l56,112l-30,117l-157,-108l-689,-252l-436,-323l160,-283l421,-457l23,-234l388,78l36,20l182,-45l60,46l106,-79l147,1l91,94l424,239l164,23l46,-37l-249,-232l111,-187l76,200l194,268l36,135l131,-10l26,-47l465,151l-93,125l-32,215l-61,80l40,85l-467,26l96,165l-32,133l60,76l-59,97l76,59Z" /><path id="3306107" d="M-437089,-220758l-104,-46l-121,-158l-209,85l-89,83l-70,118l-83,16l-125,-70l-105,-96l-103,6l-145,-88l-69,-5l-104,-78l-168,39l-52,-52l-170,-10l9,-126l-125,4l-283,-117l-82,-53l-139,-19l-109,-98l-114,29l-122,-70l-209,-95l-67,-68l-99,90l-189,14l-151,-99l-118,20l-116,-44l-43,-108h-77l-31,-69l-142,86l-112,-149l-89,-23l-36,-84l33,-98l-167,-64l-72,19l-64,-50l-24,-86l-200,-32l-50,19l-98,-119l151,-14l183,-153l-89,-92l35,-54l141,-87l-37,-78l54,-110l-36,-79l-86,-44l86,-76l9,-123l76,-73l163,-4l51,90l289,42l207,92l184,38l27,60l131,38l89,58l179,-130l207,20l151,-44l21,-189l46,-50l150,-85l6,-47l395,-110l-30,61l66,67l71,-4l125,86l8,90l206,92l124,76l78,-12l113,59l80,-44l-23,-70l-87,-22l-120,-132l0,-115l-81,-144l96,-60l35,-164l82,-18l27,105l149,83l53,116l63,38l85,-27l63,-91l74,29l116,-166l54,-35l38,-103l157,-119l46,6l154,197l83,69l118,-105l77,31l95,152l-11,75l180,30l-52,95l148,44l-42,184l152,133l61,-50l96,-4l138,128l190,-26l167,190l-63,36l85,87l-11,119l-204,51l-24,51l75,74l-84,45l41,107l-15,66l-166,69l-91,99l-134,24l-107,82l28,116l-76,50l-30,85l38,183l-19,67l53,427l-22,118l-71,66l-46,-43l-72,99l-19,89l-108,2l-28,-51l-132,7Z" /><path id="3306156" d="M-417752,-207999l-122,-104l-42,3l-141,-124l-79,-99l-60,-19l-99,-105l-289,-110l-26,-81l-88,32l-297,48l-51,-24l82,-164l-82,-36l9,-242l-114,-175l33,-90l7,-49l-70,-126l38,-105l69,-85l123,-30l32,-54l237,8l77,28l24,153l162,9l45,-31l149,39l52,-96l62,-21l-65,-96l166,-126l73,30l42,181l-107,87l-82,8l-45,122l298,413l338,327l78,-23l25,62l-49,118l23,131l53,56l-63,103l27,81l-152,107l-201,69Z" /><path id="3306206" d="M-434004,-222163l-191,-82l14,-44l-84,-71l-313,197l-146,-18l14,-134l-63,-62l0,-74l-73,-47l-301,133l-52,-79l23,-178l-70,-138l-161,56l-144,18l-63,39l-170,-162l-103,-74l-167,-190l-190,26l-138,-128l-96,4l-61,50l-152,-133l42,-184l-148,-44l52,-95l-180,-30l11,-75l-95,-152l-77,-31l-118,105l-83,-69l-154,-197l-46,-6l-66,-57l-53,-148l-63,-43l-102,-142l87,-2l86,-66l50,-109l53,-116l81,-87l76,-22l134,174l53,100l89,-84l113,38l65,-34l5,46l1054,16l104,-43l103,-390l70,-264l151,754l90,87l130,-44l143,151l-42,55l161,62l-66,48l-97,136l67,120l106,98l27,66l-106,77l-18,141l-68,193l34,209l1140,211l642,114l-734,576l-16,48Z" /><path id="3306305" d="M-440056,-224071l-75,-5l-757,13l-204,-151l-230,-53l-98,-86l-93,-173l-31,-107l7,-201l-21,-125l-2,-208l201,-212l458,75l50,-155l-56,-219l-60,-53l55,-57l-55,-178l57,-99l11,-231l36,-110l178,482l143,421l70,-33l90,50l5,83l87,210l12,130l-28,92l-54,19l-206,191l0,84l-149,78l337,296l345,212l-23,20Z" /></g></svg>