<?xml version="1.0"?><svg xmlns="http://www.w3.org/2000/svg" version="1.2" baseProfile="tiny" width="1080" height="1080" viewBox="-48.2857 15.5018 0.9771999999999963 0.5482000000000014" stroke-linecap="round" stroke-linejoin="round"><g id="UF53MU" transform="scale(0.0001,-0.0001)"><path id="5300108" d="M-473100,-160363l-69,1l-56,97l-128,60l-126,131l-125,-4l-98,66l-82,228l15,165l38,31l33,133l-38,84l113,77l3,76l-70,28l18,109l-76,14l-41,194l67,128l42,226l16,245l92,34l30,99l138,191l44,136l76,92l-10,51l145,207l13,82l-71,196l68,75l14,139l-60,70l-130,67l43,82l6,225l-73,233l55,103l62,207l62,14l-57,106l-131,-11l-128,83l-132,-8l-171,41l-28,91l-91,-3l-41,88l-124,115l-121,12l0,439l-776,-1l-1209,-2l-2371,-1h-2003l-1457,-1l3,-1206l-185,-4l-160,-186l-4,-171l0,-79l-67,-198l21,-102l-20,-87l97,-41l88,16l116,-48l31,-50l-8,-318l-85,-179l-146,-108l-4,-56l-107,-133l-137,-45l-111,-66l-129,-155l-8,-60l-42,-148l62,-153l24,-159l54,-82l-47,-83l17,-169l47,-101l-55,-110l114,20l82,-37l33,-79l12,-157l-89,-112l21,-161l-34,-22l-105,-258l22,-112l-21,-93l-66,-105l8,-76l1930,-1h667l795,-2l1072,-1l1478,2l1726,-1l2025,-1l-15,137Z" /></g></svg>